<?xml version="1.0" encoding="utf-8" standalone="no"?>
<!DOCTYPE svg PUBLIC "-//W3C//DTD SVG 1.1//EN"
  "http://www.w3.org/Graphics/SVG/1.1/DTD/svg11.dtd">
<svg xmlns:xlink="http://www.w3.org/1999/xlink" width="460.8pt" height="345.6pt" viewBox="0 0 460.8 345.6" xmlns="http://www.w3.org/2000/svg" version="1.1">
 <metadata>
  <rdf:RDF xmlns:dc="http://purl.org/dc/elements/1.1/" xmlns:cc="http://creativecommons.org/ns#" xmlns:rdf="http://www.w3.org/1999/02/22-rdf-syntax-ns#">
   <cc:Work>
    <dc:type rdf:resource="http://purl.org/dc/dcmitype/StillImage"/>
    <dc:date>2025-04-23T19:25:12.988883</dc:date>
    <dc:format>image/svg+xml</dc:format>
    <dc:creator>
     <cc:Agent>
      <dc:title>Matplotlib v3.10.1, https://matplotlib.org/</dc:title>
     </cc:Agent>
    </dc:creator>
   </cc:Work>
  </rdf:RDF>
 </metadata>
 <defs>
  <style type="text/css">*{stroke-linejoin: round; stroke-linecap: butt}</style>
 </defs>
 <g id="figure_1">
  <g id="patch_1">
   <path d="M 0 345.6 
L 460.8 345.6 
L 460.8 0 
L 0 0 
z
" style="fill: #ffffff"/>
  </g>
  <g id="axes_1">
   <g id="patch_2">
    <path d="M 33.64 317.72 
L 450 317.72 
L 450 35.0844 
L 33.64 35.0844 
z
" style="fill: #ffffff"/>
   </g>
   <g id="patch_3">
    <path d="M 52.565455 317.72 
L 56.136295 317.72 
L 56.136295 317.613014 
L 52.565455 317.613014 
z
" clip-path="url(#pb9455be9c6)" style="fill: #1f77b4"/>
   </g>
   <g id="patch_4">
    <path d="M 56.136295 317.72 
L 59.707136 317.72 
L 59.707136 317.72 
L 56.136295 317.72 
z
" clip-path="url(#pb9455be9c6)" style="fill: #1f77b4"/>
   </g>
   <g id="patch_5">
    <path d="M 59.707136 317.72 
L 63.277976 317.72 
L 63.277976 317.72 
L 59.707136 317.72 
z
" clip-path="url(#pb9455be9c6)" style="fill: #1f77b4"/>
   </g>
   <g id="patch_6">
    <path d="M 63.277976 317.72 
L 66.848816 317.72 
L 66.848816 317.72 
L 63.277976 317.72 
z
" clip-path="url(#pb9455be9c6)" style="fill: #1f77b4"/>
   </g>
   <g id="patch_7">
    <path d="M 66.848816 317.72 
L 70.419657 317.72 
L 70.419657 317.72 
L 66.848816 317.72 
z
" clip-path="url(#pb9455be9c6)" style="fill: #1f77b4"/>
   </g>
   <g id="patch_8">
    <path d="M 70.419657 317.72 
L 73.990497 317.72 
L 73.990497 317.72 
L 70.419657 317.72 
z
" clip-path="url(#pb9455be9c6)" style="fill: #1f77b4"/>
   </g>
   <g id="patch_9">
    <path d="M 73.990497 317.72 
L 77.561338 317.72 
L 77.561338 317.613014 
L 73.990497 317.613014 
z
" clip-path="url(#pb9455be9c6)" style="fill: #1f77b4"/>
   </g>
   <g id="patch_10">
    <path d="M 77.561338 317.72 
L 81.132178 317.72 
L 81.132178 317.613014 
L 77.561338 317.613014 
z
" clip-path="url(#pb9455be9c6)" style="fill: #1f77b4"/>
   </g>
   <g id="patch_11">
    <path d="M 81.132178 317.72 
L 84.703019 317.72 
L 84.703019 317.506028 
L 81.132178 317.506028 
z
" clip-path="url(#pb9455be9c6)" style="fill: #1f77b4"/>
   </g>
   <g id="patch_12">
    <path d="M 84.703019 317.72 
L 88.273859 317.72 
L 88.273859 316.971098 
L 84.703019 316.971098 
z
" clip-path="url(#pb9455be9c6)" style="fill: #1f77b4"/>
   </g>
   <g id="patch_13">
    <path d="M 88.273859 317.72 
L 91.8447 317.72 
L 91.8447 316.436168 
L 88.273859 316.436168 
z
" clip-path="url(#pb9455be9c6)" style="fill: #1f77b4"/>
   </g>
   <g id="patch_14">
    <path d="M 91.8447 317.72 
L 95.41554 317.72 
L 95.41554 317.18507 
L 91.8447 317.18507 
z
" clip-path="url(#pb9455be9c6)" style="fill: #1f77b4"/>
   </g>
   <g id="patch_15">
    <path d="M 95.41554 317.72 
L 98.986381 317.72 
L 98.986381 316.329182 
L 95.41554 316.329182 
z
" clip-path="url(#pb9455be9c6)" style="fill: #1f77b4"/>
   </g>
   <g id="patch_16">
    <path d="M 98.986381 317.72 
L 102.557221 317.72 
L 102.557221 316.329182 
L 98.986381 316.329182 
z
" clip-path="url(#pb9455be9c6)" style="fill: #1f77b4"/>
   </g>
   <g id="patch_17">
    <path d="M 102.557221 317.72 
L 106.128062 317.72 
L 106.128062 314.617406 
L 102.557221 314.617406 
z
" clip-path="url(#pb9455be9c6)" style="fill: #1f77b4"/>
   </g>
   <g id="patch_18">
    <path d="M 106.128062 317.72 
L 109.698902 317.72 
L 109.698902 314.082476 
L 106.128062 314.082476 
z
" clip-path="url(#pb9455be9c6)" style="fill: #1f77b4"/>
   </g>
   <g id="patch_19">
    <path d="M 109.698902 317.72 
L 113.269743 317.72 
L 113.269743 313.654532 
L 109.698902 313.654532 
z
" clip-path="url(#pb9455be9c6)" style="fill: #1f77b4"/>
   </g>
   <g id="patch_20">
    <path d="M 113.269743 317.72 
L 116.840583 317.72 
L 116.840583 310.551938 
L 113.269743 310.551938 
z
" clip-path="url(#pb9455be9c6)" style="fill: #1f77b4"/>
   </g>
   <g id="patch_21">
    <path d="M 116.840583 317.72 
L 120.411424 317.72 
L 120.411424 309.803036 
L 116.840583 309.803036 
z
" clip-path="url(#pb9455be9c6)" style="fill: #1f77b4"/>
   </g>
   <g id="patch_22">
    <path d="M 120.411424 317.72 
L 123.982264 317.72 
L 123.982264 307.556331 
L 120.411424 307.556331 
z
" clip-path="url(#pb9455be9c6)" style="fill: #1f77b4"/>
   </g>
   <g id="patch_23">
    <path d="M 123.982264 317.72 
L 127.553105 317.72 
L 127.553105 308.091261 
L 123.982264 308.091261 
z
" clip-path="url(#pb9455be9c6)" style="fill: #1f77b4"/>
   </g>
   <g id="patch_24">
    <path d="M 127.553105 317.72 
L 131.123945 317.72 
L 131.123945 302.421003 
L 127.553105 302.421003 
z
" clip-path="url(#pb9455be9c6)" style="fill: #1f77b4"/>
   </g>
   <g id="patch_25">
    <path d="M 131.123945 317.72 
L 134.694786 317.72 
L 134.694786 296.215815 
L 131.123945 296.215815 
z
" clip-path="url(#pb9455be9c6)" style="fill: #1f77b4"/>
   </g>
   <g id="patch_26">
    <path d="M 134.694786 317.72 
L 138.265626 317.72 
L 138.265626 293.006235 
L 134.694786 293.006235 
z
" clip-path="url(#pb9455be9c6)" style="fill: #1f77b4"/>
   </g>
   <g id="patch_27">
    <path d="M 138.265626 317.72 
L 141.836467 317.72 
L 141.836467 289.903641 
L 138.265626 289.903641 
z
" clip-path="url(#pb9455be9c6)" style="fill: #1f77b4"/>
   </g>
   <g id="patch_28">
    <path d="M 141.836467 317.72 
L 145.407307 317.72 
L 145.407307 283.698454 
L 141.836467 283.698454 
z
" clip-path="url(#pb9455be9c6)" style="fill: #1f77b4"/>
   </g>
   <g id="patch_29">
    <path d="M 145.407307 317.72 
L 148.978148 317.72 
L 148.978148 277.493266 
L 145.407307 277.493266 
z
" clip-path="url(#pb9455be9c6)" style="fill: #1f77b4"/>
   </g>
   <g id="patch_30">
    <path d="M 148.978148 317.72 
L 152.548988 317.72 
L 152.548988 272.999854 
L 148.978148 272.999854 
z
" clip-path="url(#pb9455be9c6)" style="fill: #1f77b4"/>
   </g>
   <g id="patch_31">
    <path d="M 152.548988 317.72 
L 156.119828 317.72 
L 156.119828 266.259737 
L 152.548988 266.259737 
z
" clip-path="url(#pb9455be9c6)" style="fill: #1f77b4"/>
   </g>
   <g id="patch_32">
    <path d="M 156.119828 317.72 
L 159.690669 317.72 
L 159.690669 254.063333 
L 156.119828 254.063333 
z
" clip-path="url(#pb9455be9c6)" style="fill: #1f77b4"/>
   </g>
   <g id="patch_33">
    <path d="M 159.690669 317.72 
L 163.261509 317.72 
L 163.261509 250.104852 
L 159.690669 250.104852 
z
" clip-path="url(#pb9455be9c6)" style="fill: #1f77b4"/>
   </g>
   <g id="patch_34">
    <path d="M 163.261509 317.72 
L 166.83235 317.72 
L 166.83235 241.438986 
L 163.261509 241.438986 
z
" clip-path="url(#pb9455be9c6)" style="fill: #1f77b4"/>
   </g>
   <g id="patch_35">
    <path d="M 166.83235 317.72 
L 170.40319 317.72 
L 170.40319 229.991485 
L 166.83235 229.991485 
z
" clip-path="url(#pb9455be9c6)" style="fill: #1f77b4"/>
   </g>
   <g id="patch_36">
    <path d="M 170.40319 317.72 
L 173.974031 317.72 
L 173.974031 218.757955 
L 170.40319 218.757955 
z
" clip-path="url(#pb9455be9c6)" style="fill: #1f77b4"/>
   </g>
   <g id="patch_37">
    <path d="M 173.974031 317.72 
L 177.544871 317.72 
L 177.544871 209.771132 
L 173.974031 209.771132 
z
" clip-path="url(#pb9455be9c6)" style="fill: #1f77b4"/>
   </g>
   <g id="patch_38">
    <path d="M 177.544871 317.72 
L 181.115712 317.72 
L 181.115712 191.155569 
L 177.544871 191.155569 
z
" clip-path="url(#pb9455be9c6)" style="fill: #1f77b4"/>
   </g>
   <g id="patch_39">
    <path d="M 181.115712 317.72 
L 184.686552 317.72 
L 184.686552 185.485311 
L 181.115712 185.485311 
z
" clip-path="url(#pb9455be9c6)" style="fill: #1f77b4"/>
   </g>
   <g id="patch_40">
    <path d="M 184.686552 317.72 
L 188.257393 317.72 
L 188.257393 170.82823 
L 184.686552 170.82823 
z
" clip-path="url(#pb9455be9c6)" style="fill: #1f77b4"/>
   </g>
   <g id="patch_41">
    <path d="M 188.257393 317.72 
L 191.828233 317.72 
L 191.828233 157.027036 
L 188.257393 157.027036 
z
" clip-path="url(#pb9455be9c6)" style="fill: #1f77b4"/>
   </g>
   <g id="patch_42">
    <path d="M 191.828233 317.72 
L 195.399074 317.72 
L 195.399074 145.793507 
L 191.828233 145.793507 
z
" clip-path="url(#pb9455be9c6)" style="fill: #1f77b4"/>
   </g>
   <g id="patch_43">
    <path d="M 195.399074 317.72 
L 198.969914 317.72 
L 198.969914 143.225843 
L 195.399074 143.225843 
z
" clip-path="url(#pb9455be9c6)" style="fill: #1f77b4"/>
   </g>
   <g id="patch_44">
    <path d="M 198.969914 317.72 
L 202.540755 317.72 
L 202.540755 125.894112 
L 198.969914 125.894112 
z
" clip-path="url(#pb9455be9c6)" style="fill: #1f77b4"/>
   </g>
   <g id="patch_45">
    <path d="M 202.540755 317.72 
L 206.111595 317.72 
L 206.111595 119.26098 
L 202.540755 119.26098 
z
" clip-path="url(#pb9455be9c6)" style="fill: #1f77b4"/>
   </g>
   <g id="patch_46">
    <path d="M 206.111595 317.72 
L 209.682436 317.72 
L 209.682436 103.534039 
L 206.111595 103.534039 
z
" clip-path="url(#pb9455be9c6)" style="fill: #1f77b4"/>
   </g>
   <g id="patch_47">
    <path d="M 209.682436 317.72 
L 213.253276 317.72 
L 213.253276 103.427053 
L 209.682436 103.427053 
z
" clip-path="url(#pb9455be9c6)" style="fill: #1f77b4"/>
   </g>
   <g id="patch_48">
    <path d="M 213.253276 317.72 
L 216.824117 317.72 
L 216.824117 84.169574 
L 213.253276 84.169574 
z
" clip-path="url(#pb9455be9c6)" style="fill: #1f77b4"/>
   </g>
   <g id="patch_49">
    <path d="M 216.824117 317.72 
L 220.394957 317.72 
L 220.394957 84.918476 
L 216.824117 84.918476 
z
" clip-path="url(#pb9455be9c6)" style="fill: #1f77b4"/>
   </g>
   <g id="patch_50">
    <path d="M 220.394957 317.72 
L 223.965798 317.72 
L 223.965798 70.261395 
L 220.394957 70.261395 
z
" clip-path="url(#pb9455be9c6)" style="fill: #1f77b4"/>
   </g>
   <g id="patch_51">
    <path d="M 223.965798 317.72 
L 227.536638 317.72 
L 227.536638 71.545227 
L 223.965798 71.545227 
z
" clip-path="url(#pb9455be9c6)" style="fill: #1f77b4"/>
   </g>
   <g id="patch_52">
    <path d="M 227.536638 317.72 
L 231.107479 317.72 
L 231.107479 62.344431 
L 227.536638 62.344431 
z
" clip-path="url(#pb9455be9c6)" style="fill: #1f77b4"/>
   </g>
   <g id="patch_53">
    <path d="M 231.107479 317.72 
L 234.678319 317.72 
L 234.678319 54.855412 
L 231.107479 54.855412 
z
" clip-path="url(#pb9455be9c6)" style="fill: #1f77b4"/>
   </g>
   <g id="patch_54">
    <path d="M 234.678319 317.72 
L 238.24916 317.72 
L 238.24916 52.287748 
L 234.678319 52.287748 
z
" clip-path="url(#pb9455be9c6)" style="fill: #1f77b4"/>
   </g>
   <g id="patch_55">
    <path d="M 238.24916 317.72 
L 241.82 317.72 
L 241.82 56.139244 
L 238.24916 56.139244 
z
" clip-path="url(#pb9455be9c6)" style="fill: #1f77b4"/>
   </g>
   <g id="patch_56">
    <path d="M 241.82 317.72 
L 245.39084 317.72 
L 245.39084 53.143636 
L 241.82 53.143636 
z
" clip-path="url(#pb9455be9c6)" style="fill: #1f77b4"/>
   </g>
   <g id="patch_57">
    <path d="M 245.39084 317.72 
L 248.961681 317.72 
L 248.961681 48.543238 
L 245.39084 48.543238 
z
" clip-path="url(#pb9455be9c6)" style="fill: #1f77b4"/>
   </g>
   <g id="patch_58">
    <path d="M 248.961681 317.72 
L 252.532521 317.72 
L 252.532521 55.7113 
L 248.961681 55.7113 
z
" clip-path="url(#pb9455be9c6)" style="fill: #1f77b4"/>
   </g>
   <g id="patch_59">
    <path d="M 252.532521 317.72 
L 256.103362 317.72 
L 256.103362 49.82707 
L 252.532521 49.82707 
z
" clip-path="url(#pb9455be9c6)" style="fill: #1f77b4"/>
   </g>
   <g id="patch_60">
    <path d="M 256.103362 317.72 
L 259.674202 317.72 
L 259.674202 53.143636 
L 256.103362 53.143636 
z
" clip-path="url(#pb9455be9c6)" style="fill: #1f77b4"/>
   </g>
   <g id="patch_61">
    <path d="M 259.674202 317.72 
L 263.245043 317.72 
L 263.245043 62.344431 
L 259.674202 62.344431 
z
" clip-path="url(#pb9455be9c6)" style="fill: #1f77b4"/>
   </g>
   <g id="patch_62">
    <path d="M 263.245043 317.72 
L 266.815883 317.72 
L 266.815883 65.233053 
L 263.245043 65.233053 
z
" clip-path="url(#pb9455be9c6)" style="fill: #1f77b4"/>
   </g>
   <g id="patch_63">
    <path d="M 266.815883 317.72 
L 270.386724 317.72 
L 270.386724 72.294129 
L 266.815883 72.294129 
z
" clip-path="url(#pb9455be9c6)" style="fill: #1f77b4"/>
   </g>
   <g id="patch_64">
    <path d="M 270.386724 317.72 
L 273.957564 317.72 
L 273.957564 81.06698 
L 270.386724 81.06698 
z
" clip-path="url(#pb9455be9c6)" style="fill: #1f77b4"/>
   </g>
   <g id="patch_65">
    <path d="M 273.957564 317.72 
L 277.528405 317.72 
L 277.528405 90.053804 
L 273.957564 90.053804 
z
" clip-path="url(#pb9455be9c6)" style="fill: #1f77b4"/>
   </g>
   <g id="patch_66">
    <path d="M 277.528405 317.72 
L 281.099245 317.72 
L 281.099245 93.584342 
L 277.528405 93.584342 
z
" clip-path="url(#pb9455be9c6)" style="fill: #1f77b4"/>
   </g>
   <g id="patch_67">
    <path d="M 281.099245 317.72 
L 284.670086 317.72 
L 284.670086 102.999109 
L 281.099245 102.999109 
z
" clip-path="url(#pb9455be9c6)" style="fill: #1f77b4"/>
   </g>
   <g id="patch_68">
    <path d="M 284.670086 317.72 
L 288.240926 317.72 
L 288.240926 122.898504 
L 284.670086 122.898504 
z
" clip-path="url(#pb9455be9c6)" style="fill: #1f77b4"/>
   </g>
   <g id="patch_69">
    <path d="M 288.240926 317.72 
L 291.811767 317.72 
L 291.811767 125.14521 
L 288.240926 125.14521 
z
" clip-path="url(#pb9455be9c6)" style="fill: #1f77b4"/>
   </g>
   <g id="patch_70">
    <path d="M 291.811767 317.72 
L 295.382607 317.72 
L 295.382607 137.769557 
L 291.811767 137.769557 
z
" clip-path="url(#pb9455be9c6)" style="fill: #1f77b4"/>
   </g>
   <g id="patch_71">
    <path d="M 295.382607 317.72 
L 298.953448 317.72 
L 298.953448 145.151591 
L 295.382607 145.151591 
z
" clip-path="url(#pb9455be9c6)" style="fill: #1f77b4"/>
   </g>
   <g id="patch_72">
    <path d="M 298.953448 317.72 
L 302.524288 317.72 
L 302.524288 153.603485 
L 298.953448 153.603485 
z
" clip-path="url(#pb9455be9c6)" style="fill: #1f77b4"/>
   </g>
   <g id="patch_73">
    <path d="M 302.524288 317.72 
L 306.095129 317.72 
L 306.095129 169.75837 
L 302.524288 169.75837 
z
" clip-path="url(#pb9455be9c6)" style="fill: #1f77b4"/>
   </g>
   <g id="patch_74">
    <path d="M 306.095129 317.72 
L 309.665969 317.72 
L 309.665969 174.465754 
L 306.095129 174.465754 
z
" clip-path="url(#pb9455be9c6)" style="fill: #1f77b4"/>
   </g>
   <g id="patch_75">
    <path d="M 309.665969 317.72 
L 313.23681 317.72 
L 313.23681 189.764751 
L 309.665969 189.764751 
z
" clip-path="url(#pb9455be9c6)" style="fill: #1f77b4"/>
   </g>
   <g id="patch_76">
    <path d="M 313.23681 317.72 
L 316.80765 317.72 
L 316.80765 202.282112 
L 313.23681 202.282112 
z
" clip-path="url(#pb9455be9c6)" style="fill: #1f77b4"/>
   </g>
   <g id="patch_77">
    <path d="M 316.80765 317.72 
L 320.378491 317.72 
L 320.378491 210.734006 
L 316.80765 210.734006 
z
" clip-path="url(#pb9455be9c6)" style="fill: #1f77b4"/>
   </g>
   <g id="patch_78">
    <path d="M 320.378491 317.72 
L 323.949331 317.72 
L 323.949331 223.893283 
L 320.378491 223.893283 
z
" clip-path="url(#pb9455be9c6)" style="fill: #1f77b4"/>
   </g>
   <g id="patch_79">
    <path d="M 323.949331 317.72 
L 327.520172 317.72 
L 327.520172 232.131204 
L 323.949331 232.131204 
z
" clip-path="url(#pb9455be9c6)" style="fill: #1f77b4"/>
   </g>
   <g id="patch_80">
    <path d="M 327.520172 317.72 
L 331.091012 317.72 
L 331.091012 244.862538 
L 327.520172 244.862538 
z
" clip-path="url(#pb9455be9c6)" style="fill: #1f77b4"/>
   </g>
   <g id="patch_81">
    <path d="M 331.091012 317.72 
L 334.661852 317.72 
L 334.661852 255.240179 
L 331.091012 255.240179 
z
" clip-path="url(#pb9455be9c6)" style="fill: #1f77b4"/>
   </g>
   <g id="patch_82">
    <path d="M 334.661852 317.72 
L 338.232693 317.72 
L 338.232693 261.980297 
L 334.661852 261.980297 
z
" clip-path="url(#pb9455be9c6)" style="fill: #1f77b4"/>
   </g>
   <g id="patch_83">
    <path d="M 338.232693 317.72 
L 341.803533 317.72 
L 341.803533 266.580695 
L 338.232693 266.580695 
z
" clip-path="url(#pb9455be9c6)" style="fill: #1f77b4"/>
   </g>
   <g id="patch_84">
    <path d="M 341.803533 317.72 
L 345.374374 317.72 
L 345.374374 273.64177 
L 341.803533 273.64177 
z
" clip-path="url(#pb9455be9c6)" style="fill: #1f77b4"/>
   </g>
   <g id="patch_85">
    <path d="M 345.374374 317.72 
L 348.945214 317.72 
L 348.945214 283.912426 
L 345.374374 283.912426 
z
" clip-path="url(#pb9455be9c6)" style="fill: #1f77b4"/>
   </g>
   <g id="patch_86">
    <path d="M 348.945214 317.72 
L 352.516055 317.72 
L 352.516055 285.731188 
L 348.945214 285.731188 
z
" clip-path="url(#pb9455be9c6)" style="fill: #1f77b4"/>
   </g>
   <g id="patch_87">
    <path d="M 352.516055 317.72 
L 356.086895 317.72 
L 356.086895 289.368711 
L 352.516055 289.368711 
z
" clip-path="url(#pb9455be9c6)" style="fill: #1f77b4"/>
   </g>
   <g id="patch_88">
    <path d="M 356.086895 317.72 
L 359.657736 317.72 
L 359.657736 296.964717 
L 356.086895 296.964717 
z
" clip-path="url(#pb9455be9c6)" style="fill: #1f77b4"/>
   </g>
   <g id="patch_89">
    <path d="M 359.657736 317.72 
L 363.228576 317.72 
L 363.228576 301.351143 
L 359.657736 301.351143 
z
" clip-path="url(#pb9455be9c6)" style="fill: #1f77b4"/>
   </g>
   <g id="patch_90">
    <path d="M 363.228576 317.72 
L 366.799417 317.72 
L 366.799417 303.597849 
L 363.228576 303.597849 
z
" clip-path="url(#pb9455be9c6)" style="fill: #1f77b4"/>
   </g>
   <g id="patch_91">
    <path d="M 366.799417 317.72 
L 370.370257 317.72 
L 370.370257 305.737569 
L 366.799417 305.737569 
z
" clip-path="url(#pb9455be9c6)" style="fill: #1f77b4"/>
   </g>
   <g id="patch_92">
    <path d="M 370.370257 317.72 
L 373.941098 317.72 
L 373.941098 308.840162 
L 370.370257 308.840162 
z
" clip-path="url(#pb9455be9c6)" style="fill: #1f77b4"/>
   </g>
   <g id="patch_93">
    <path d="M 373.941098 317.72 
L 377.511938 317.72 
L 377.511938 310.76591 
L 373.941098 310.76591 
z
" clip-path="url(#pb9455be9c6)" style="fill: #1f77b4"/>
   </g>
   <g id="patch_94">
    <path d="M 377.511938 317.72 
L 381.082779 317.72 
L 381.082779 312.263714 
L 377.511938 312.263714 
z
" clip-path="url(#pb9455be9c6)" style="fill: #1f77b4"/>
   </g>
   <g id="patch_95">
    <path d="M 381.082779 317.72 
L 384.653619 317.72 
L 384.653619 314.51042 
L 381.082779 314.51042 
z
" clip-path="url(#pb9455be9c6)" style="fill: #1f77b4"/>
   </g>
   <g id="patch_96">
    <path d="M 384.653619 317.72 
L 388.22446 317.72 
L 388.22446 313.97549 
L 384.653619 313.97549 
z
" clip-path="url(#pb9455be9c6)" style="fill: #1f77b4"/>
   </g>
   <g id="patch_97">
    <path d="M 388.22446 317.72 
L 391.7953 317.72 
L 391.7953 316.222196 
L 388.22446 316.222196 
z
" clip-path="url(#pb9455be9c6)" style="fill: #1f77b4"/>
   </g>
   <g id="patch_98">
    <path d="M 391.7953 317.72 
L 395.366141 317.72 
L 395.366141 316.65014 
L 391.7953 316.65014 
z
" clip-path="url(#pb9455be9c6)" style="fill: #1f77b4"/>
   </g>
   <g id="patch_99">
    <path d="M 395.366141 317.72 
L 398.936981 317.72 
L 398.936981 316.65014 
L 395.366141 316.65014 
z
" clip-path="url(#pb9455be9c6)" style="fill: #1f77b4"/>
   </g>
   <g id="patch_100">
    <path d="M 398.936981 317.72 
L 402.507822 317.72 
L 402.507822 316.543154 
L 398.936981 316.543154 
z
" clip-path="url(#pb9455be9c6)" style="fill: #1f77b4"/>
   </g>
   <g id="patch_101">
    <path d="M 402.507822 317.72 
L 406.078662 317.72 
L 406.078662 317.292056 
L 402.507822 317.292056 
z
" clip-path="url(#pb9455be9c6)" style="fill: #1f77b4"/>
   </g>
   <g id="patch_102">
    <path d="M 406.078662 317.72 
L 409.649503 317.72 
L 409.649503 317.18507 
L 406.078662 317.18507 
z
" clip-path="url(#pb9455be9c6)" style="fill: #1f77b4"/>
   </g>
   <g id="patch_103">
    <path d="M 409.649503 317.72 
L 413.220343 317.72 
L 413.220343 317.399042 
L 409.649503 317.399042 
z
" clip-path="url(#pb9455be9c6)" style="fill: #1f77b4"/>
   </g>
   <g id="patch_104">
    <path d="M 413.220343 317.72 
L 416.791184 317.72 
L 416.791184 317.613014 
L 413.220343 317.613014 
z
" clip-path="url(#pb9455be9c6)" style="fill: #1f77b4"/>
   </g>
   <g id="patch_105">
    <path d="M 416.791184 317.72 
L 420.362024 317.72 
L 420.362024 317.613014 
L 416.791184 317.613014 
z
" clip-path="url(#pb9455be9c6)" style="fill: #1f77b4"/>
   </g>
   <g id="patch_106">
    <path d="M 420.362024 317.72 
L 423.932864 317.72 
L 423.932864 317.613014 
L 420.362024 317.613014 
z
" clip-path="url(#pb9455be9c6)" style="fill: #1f77b4"/>
   </g>
   <g id="patch_107">
    <path d="M 423.932864 317.72 
L 427.503705 317.72 
L 427.503705 317.72 
L 423.932864 317.72 
z
" clip-path="url(#pb9455be9c6)" style="fill: #1f77b4"/>
   </g>
   <g id="patch_108">
    <path d="M 427.503705 317.72 
L 431.074545 317.72 
L 431.074545 317.613014 
L 427.503705 317.613014 
z
" clip-path="url(#pb9455be9c6)" style="fill: #1f77b4"/>
   </g>
   <g id="matplotlib.axis_1">
    <g id="xtick_1">
     <g id="line2d_1">
      <defs>
       <path id="m9735ff2d39" d="M 0 0 
L 0 3.5 
" style="stroke: #000000; stroke-width: 0.8"/>
      </defs>
      <g>
       <use xlink:href="#m9735ff2d39" x="89.777056" y="317.72" style="stroke: #000000; stroke-width: 0.8"/>
      </g>
     </g>
     <g id="text_1">
      <!-- −1.0 -->
      <g transform="translate(77.63565 332.318437) scale(0.1 -0.1)">
       <defs>
        <path id="DejaVuSans-2212" d="M 678 2272 
L 4684 2272 
L 4684 1741 
L 678 1741 
L 678 2272 
z
" transform="scale(0.015625)"/>
        <path id="DejaVuSans-31" d="M 794 531 
L 1825 531 
L 1825 4091 
L 703 3866 
L 703 4441 
L 1819 4666 
L 2450 4666 
L 2450 531 
L 3481 531 
L 3481 0 
L 794 0 
L 794 531 
z
" transform="scale(0.015625)"/>
        <path id="DejaVuSans-2e" d="M 684 794 
L 1344 794 
L 1344 0 
L 684 0 
L 684 794 
z
" transform="scale(0.015625)"/>
        <path id="DejaVuSans-30" d="M 2034 4250 
Q 1547 4250 1301 3770 
Q 1056 3291 1056 2328 
Q 1056 1369 1301 889 
Q 1547 409 2034 409 
Q 2525 409 2770 889 
Q 3016 1369 3016 2328 
Q 3016 3291 2770 3770 
Q 2525 4250 2034 4250 
z
M 2034 4750 
Q 2819 4750 3233 4129 
Q 3647 3509 3647 2328 
Q 3647 1150 3233 529 
Q 2819 -91 2034 -91 
Q 1250 -91 836 529 
Q 422 1150 422 2328 
Q 422 3509 836 4129 
Q 1250 4750 2034 4750 
z
" transform="scale(0.015625)"/>
       </defs>
       <use xlink:href="#DejaVuSans-2212"/>
       <use xlink:href="#DejaVuSans-31" transform="translate(83.789062 0)"/>
       <use xlink:href="#DejaVuSans-2e" transform="translate(147.412109 0)"/>
       <use xlink:href="#DejaVuSans-30" transform="translate(179.199219 0)"/>
      </g>
     </g>
    </g>
    <g id="xtick_2">
     <g id="line2d_2">
      <g>
       <use xlink:href="#m9735ff2d39" x="168.019677" y="317.72" style="stroke: #000000; stroke-width: 0.8"/>
      </g>
     </g>
     <g id="text_2">
      <!-- −0.5 -->
      <g transform="translate(155.878271 332.318437) scale(0.1 -0.1)">
       <defs>
        <path id="DejaVuSans-35" d="M 691 4666 
L 3169 4666 
L 3169 4134 
L 1269 4134 
L 1269 2991 
Q 1406 3038 1543 3061 
Q 1681 3084 1819 3084 
Q 2600 3084 3056 2656 
Q 3513 2228 3513 1497 
Q 3513 744 3044 326 
Q 2575 -91 1722 -91 
Q 1428 -91 1123 -41 
Q 819 9 494 109 
L 494 744 
Q 775 591 1075 516 
Q 1375 441 1709 441 
Q 2250 441 2565 725 
Q 2881 1009 2881 1497 
Q 2881 1984 2565 2268 
Q 2250 2553 1709 2553 
Q 1456 2553 1204 2497 
Q 953 2441 691 2322 
L 691 4666 
z
" transform="scale(0.015625)"/>
       </defs>
       <use xlink:href="#DejaVuSans-2212"/>
       <use xlink:href="#DejaVuSans-30" transform="translate(83.789062 0)"/>
       <use xlink:href="#DejaVuSans-2e" transform="translate(147.412109 0)"/>
       <use xlink:href="#DejaVuSans-35" transform="translate(179.199219 0)"/>
      </g>
     </g>
    </g>
    <g id="xtick_3">
     <g id="line2d_3">
      <g>
       <use xlink:href="#m9735ff2d39" x="246.262298" y="317.72" style="stroke: #000000; stroke-width: 0.8"/>
      </g>
     </g>
     <g id="text_3">
      <!-- 0.0 -->
      <g transform="translate(238.310736 332.318437) scale(0.1 -0.1)">
       <use xlink:href="#DejaVuSans-30"/>
       <use xlink:href="#DejaVuSans-2e" transform="translate(63.623047 0)"/>
       <use xlink:href="#DejaVuSans-30" transform="translate(95.410156 0)"/>
      </g>
     </g>
    </g>
    <g id="xtick_4">
     <g id="line2d_4">
      <g>
       <use xlink:href="#m9735ff2d39" x="324.504919" y="317.72" style="stroke: #000000; stroke-width: 0.8"/>
      </g>
     </g>
     <g id="text_4">
      <!-- 0.5 -->
      <g transform="translate(316.553357 332.318437) scale(0.1 -0.1)">
       <use xlink:href="#DejaVuSans-30"/>
       <use xlink:href="#DejaVuSans-2e" transform="translate(63.623047 0)"/>
       <use xlink:href="#DejaVuSans-35" transform="translate(95.410156 0)"/>
      </g>
     </g>
    </g>
    <g id="xtick_5">
     <g id="line2d_5">
      <g>
       <use xlink:href="#m9735ff2d39" x="402.747541" y="317.72" style="stroke: #000000; stroke-width: 0.8"/>
      </g>
     </g>
     <g id="text_5">
      <!-- 1.0 -->
      <g transform="translate(394.795978 332.318437) scale(0.1 -0.1)">
       <use xlink:href="#DejaVuSans-31"/>
       <use xlink:href="#DejaVuSans-2e" transform="translate(63.623047 0)"/>
       <use xlink:href="#DejaVuSans-30" transform="translate(95.410156 0)"/>
      </g>
     </g>
    </g>
   </g>
   <g id="matplotlib.axis_2">
    <g id="ytick_1">
     <g id="line2d_6">
      <defs>
       <path id="m3480055d4d" d="M 0 0 
L -3.5 0 
" style="stroke: #000000; stroke-width: 0.8"/>
      </defs>
      <g>
       <use xlink:href="#m3480055d4d" x="33.64" y="317.72" style="stroke: #000000; stroke-width: 0.8"/>
      </g>
     </g>
     <g id="text_6">
      <!-- 0.0 -->
      <g transform="translate(10.736875 321.519219) scale(0.1 -0.1)">
       <use xlink:href="#DejaVuSans-30"/>
       <use xlink:href="#DejaVuSans-2e" transform="translate(63.623047 0)"/>
       <use xlink:href="#DejaVuSans-30" transform="translate(95.410156 0)"/>
      </g>
     </g>
    </g>
    <g id="ytick_2">
     <g id="line2d_7">
      <g>
       <use xlink:href="#m3480055d4d" x="33.64" y="273.275355" style="stroke: #000000; stroke-width: 0.8"/>
      </g>
     </g>
     <g id="text_7">
      <!-- 0.2 -->
      <g transform="translate(10.736875 277.074573) scale(0.1 -0.1)">
       <defs>
        <path id="DejaVuSans-32" d="M 1228 531 
L 3431 531 
L 3431 0 
L 469 0 
L 469 531 
Q 828 903 1448 1529 
Q 2069 2156 2228 2338 
Q 2531 2678 2651 2914 
Q 2772 3150 2772 3378 
Q 2772 3750 2511 3984 
Q 2250 4219 1831 4219 
Q 1534 4219 1204 4116 
Q 875 4013 500 3803 
L 500 4441 
Q 881 4594 1212 4672 
Q 1544 4750 1819 4750 
Q 2544 4750 2975 4387 
Q 3406 4025 3406 3419 
Q 3406 3131 3298 2873 
Q 3191 2616 2906 2266 
Q 2828 2175 2409 1742 
Q 1991 1309 1228 531 
z
" transform="scale(0.015625)"/>
       </defs>
       <use xlink:href="#DejaVuSans-30"/>
       <use xlink:href="#DejaVuSans-2e" transform="translate(63.623047 0)"/>
       <use xlink:href="#DejaVuSans-32" transform="translate(95.410156 0)"/>
      </g>
     </g>
    </g>
    <g id="ytick_3">
     <g id="line2d_8">
      <g>
       <use xlink:href="#m3480055d4d" x="33.64" y="228.830709" style="stroke: #000000; stroke-width: 0.8"/>
      </g>
     </g>
     <g id="text_8">
      <!-- 0.4 -->
      <g transform="translate(10.736875 232.629928) scale(0.1 -0.1)">
       <defs>
        <path id="DejaVuSans-34" d="M 2419 4116 
L 825 1625 
L 2419 1625 
L 2419 4116 
z
M 2253 4666 
L 3047 4666 
L 3047 1625 
L 3713 1625 
L 3713 1100 
L 3047 1100 
L 3047 0 
L 2419 0 
L 2419 1100 
L 313 1100 
L 313 1709 
L 2253 4666 
z
" transform="scale(0.015625)"/>
       </defs>
       <use xlink:href="#DejaVuSans-30"/>
       <use xlink:href="#DejaVuSans-2e" transform="translate(63.623047 0)"/>
       <use xlink:href="#DejaVuSans-34" transform="translate(95.410156 0)"/>
      </g>
     </g>
    </g>
    <g id="ytick_4">
     <g id="line2d_9">
      <g>
       <use xlink:href="#m3480055d4d" x="33.64" y="184.386064" style="stroke: #000000; stroke-width: 0.8"/>
      </g>
     </g>
     <g id="text_9">
      <!-- 0.6 -->
      <g transform="translate(10.736875 188.185283) scale(0.1 -0.1)">
       <defs>
        <path id="DejaVuSans-36" d="M 2113 2584 
Q 1688 2584 1439 2293 
Q 1191 2003 1191 1497 
Q 1191 994 1439 701 
Q 1688 409 2113 409 
Q 2538 409 2786 701 
Q 3034 994 3034 1497 
Q 3034 2003 2786 2293 
Q 2538 2584 2113 2584 
z
M 3366 4563 
L 3366 3988 
Q 3128 4100 2886 4159 
Q 2644 4219 2406 4219 
Q 1781 4219 1451 3797 
Q 1122 3375 1075 2522 
Q 1259 2794 1537 2939 
Q 1816 3084 2150 3084 
Q 2853 3084 3261 2657 
Q 3669 2231 3669 1497 
Q 3669 778 3244 343 
Q 2819 -91 2113 -91 
Q 1303 -91 875 529 
Q 447 1150 447 2328 
Q 447 3434 972 4092 
Q 1497 4750 2381 4750 
Q 2619 4750 2861 4703 
Q 3103 4656 3366 4563 
z
" transform="scale(0.015625)"/>
       </defs>
       <use xlink:href="#DejaVuSans-30"/>
       <use xlink:href="#DejaVuSans-2e" transform="translate(63.623047 0)"/>
       <use xlink:href="#DejaVuSans-36" transform="translate(95.410156 0)"/>
      </g>
     </g>
    </g>
    <g id="ytick_5">
     <g id="line2d_10">
      <g>
       <use xlink:href="#m3480055d4d" x="33.64" y="139.941419" style="stroke: #000000; stroke-width: 0.8"/>
      </g>
     </g>
     <g id="text_10">
      <!-- 0.8 -->
      <g transform="translate(10.736875 143.740638) scale(0.1 -0.1)">
       <defs>
        <path id="DejaVuSans-38" d="M 2034 2216 
Q 1584 2216 1326 1975 
Q 1069 1734 1069 1313 
Q 1069 891 1326 650 
Q 1584 409 2034 409 
Q 2484 409 2743 651 
Q 3003 894 3003 1313 
Q 3003 1734 2745 1975 
Q 2488 2216 2034 2216 
z
M 1403 2484 
Q 997 2584 770 2862 
Q 544 3141 544 3541 
Q 544 4100 942 4425 
Q 1341 4750 2034 4750 
Q 2731 4750 3128 4425 
Q 3525 4100 3525 3541 
Q 3525 3141 3298 2862 
Q 3072 2584 2669 2484 
Q 3125 2378 3379 2068 
Q 3634 1759 3634 1313 
Q 3634 634 3220 271 
Q 2806 -91 2034 -91 
Q 1263 -91 848 271 
Q 434 634 434 1313 
Q 434 1759 690 2068 
Q 947 2378 1403 2484 
z
M 1172 3481 
Q 1172 3119 1398 2916 
Q 1625 2713 2034 2713 
Q 2441 2713 2670 2916 
Q 2900 3119 2900 3481 
Q 2900 3844 2670 4047 
Q 2441 4250 2034 4250 
Q 1625 4250 1398 4047 
Q 1172 3844 1172 3481 
z
" transform="scale(0.015625)"/>
       </defs>
       <use xlink:href="#DejaVuSans-30"/>
       <use xlink:href="#DejaVuSans-2e" transform="translate(63.623047 0)"/>
       <use xlink:href="#DejaVuSans-38" transform="translate(95.410156 0)"/>
      </g>
     </g>
    </g>
    <g id="ytick_6">
     <g id="line2d_11">
      <g>
       <use xlink:href="#m3480055d4d" x="33.64" y="95.496774" style="stroke: #000000; stroke-width: 0.8"/>
      </g>
     </g>
     <g id="text_11">
      <!-- 1.0 -->
      <g transform="translate(10.736875 99.295992) scale(0.1 -0.1)">
       <use xlink:href="#DejaVuSans-31"/>
       <use xlink:href="#DejaVuSans-2e" transform="translate(63.623047 0)"/>
       <use xlink:href="#DejaVuSans-30" transform="translate(95.410156 0)"/>
      </g>
     </g>
    </g>
    <g id="ytick_7">
     <g id="line2d_12">
      <g>
       <use xlink:href="#m3480055d4d" x="33.64" y="51.052128" style="stroke: #000000; stroke-width: 0.8"/>
      </g>
     </g>
     <g id="text_12">
      <!-- 1.2 -->
      <g transform="translate(10.736875 54.851347) scale(0.1 -0.1)">
       <use xlink:href="#DejaVuSans-31"/>
       <use xlink:href="#DejaVuSans-2e" transform="translate(63.623047 0)"/>
       <use xlink:href="#DejaVuSans-32" transform="translate(95.410156 0)"/>
      </g>
     </g>
    </g>
   </g>
   <g id="line2d_13">
    <path d="M 52.565455 317.714652 
L 75.298733 317.588834 
L 84.770933 317.327802 
L 91.590916 316.920821 
L 96.895348 316.386294 
L 101.442004 315.70716 
L 105.230884 314.935491 
L 109.019763 313.929577 
L 112.429755 312.782981 
L 115.460859 311.539 
L 118.491963 310.053157 
L 121.523067 308.295388 
L 124.175283 306.510338 
L 126.827498 304.473508 
L 129.479714 302.165111 
L 132.13193 299.566212 
L 134.784146 296.659108 
L 137.436362 293.427702 
L 140.088578 289.857878 
L 142.740794 285.937849 
L 145.393009 281.658493 
L 148.424113 276.320044 
L 151.455217 270.50028 
L 154.486321 264.201038 
L 157.896313 256.551463 
L 161.306304 248.3263 
L 165.095184 238.550364 
L 168.884064 228.159621 
L 173.051832 216.105503 
L 177.977376 201.169132 
L 184.418471 180.858616 
L 199.952878 131.513168 
L 204.878422 116.787131 
L 209.04619 105.023577 
L 212.83507 95.020929 
L 216.245061 86.673882 
L 219.276165 79.836749 
L 221.928381 74.342678 
L 224.580597 69.334767 
L 227.232813 64.839244 
L 229.506141 61.411641 
L 231.779469 58.390925 
L 233.673908 56.192862 
L 235.568348 54.29124 
L 237.462788 52.691095 
L 239.357228 51.396661 
L 241.251668 50.411358 
L 242.76722 49.847465 
L 244.282772 49.484051 
L 245.798324 49.321727 
L 247.313876 49.360769 
L 248.829428 49.60111 
L 250.34498 50.042344 
L 251.860531 50.683727 
L 253.754971 51.765231 
L 255.649411 53.154892 
L 257.543851 54.849037 
L 259.438291 56.843183 
L 261.332731 59.132047 
L 263.606059 62.259105 
L 265.879387 65.789805 
L 268.152715 69.710613 
L 270.80493 74.757768 
L 273.457146 80.288906 
L 276.48825 87.165481 
L 279.519354 94.588964 
L 282.929346 103.530393 
L 286.718225 114.10634 
L 290.885993 126.387673 
L 296.190425 142.755203 
L 304.147073 168.153457 
L 313.99816 199.466386 
L 319.302592 215.600943 
L 323.849247 228.746862 
L 328.017015 240.108371 
L 331.805895 249.783466 
L 335.215887 257.911383 
L 338.625879 265.459373 
L 341.656982 271.666095 
L 344.688086 277.392507 
L 347.71919 282.637941 
L 350.750294 287.407535 
L 353.40251 291.198743 
L 356.054726 294.64375 
L 358.706941 297.75523 
L 361.359157 300.548065 
L 364.011373 303.038979 
L 366.663589 305.246169 
L 369.315805 307.188923 
L 371.968021 308.887247 
L 374.999125 310.55501 
L 378.030228 311.960503 
L 381.061332 313.133548 
L 384.471324 314.211091 
L 388.260204 315.152723 
L 392.427972 315.933395 
L 396.974627 316.54486 
L 402.279059 317.022139 
L 408.720155 317.367225 
L 417.434578 317.59215 
L 431.074545 317.699302 
L 431.074545 317.699302 
" clip-path="url(#pb9455be9c6)" style="fill: none; stroke: #ff7f0e; stroke-width: 1.5; stroke-linecap: square"/>
   </g>
   <g id="patch_109">
    <path d="M 33.64 317.72 
L 33.64 35.0844 
" style="fill: none; stroke: #000000; stroke-width: 0.8; stroke-linejoin: miter; stroke-linecap: square"/>
   </g>
   <g id="patch_110">
    <path d="M 450 317.72 
L 450 35.0844 
" style="fill: none; stroke: #000000; stroke-width: 0.8; stroke-linejoin: miter; stroke-linecap: square"/>
   </g>
   <g id="patch_111">
    <path d="M 33.64 317.72 
L 450 317.72 
" style="fill: none; stroke: #000000; stroke-width: 0.8; stroke-linejoin: miter; stroke-linecap: square"/>
   </g>
   <g id="patch_112">
    <path d="M 33.64 35.0844 
L 450 35.0844 
" style="fill: none; stroke: #000000; stroke-width: 0.8; stroke-linejoin: miter; stroke-linecap: square"/>
   </g>
   <g id="text_13">
    <!-- Sampling $\frac{\sqrt{2}}{e K_{1/4}(1)}e^{-8(x^2/2+x^4/4)}$  (N = 100000) -->
    <g transform="translate(114.08 28.2444) scale(0.12 -0.12)">
     <defs>
      <path id="DejaVuSans-53" d="M 3425 4513 
L 3425 3897 
Q 3066 4069 2747 4153 
Q 2428 4238 2131 4238 
Q 1616 4238 1336 4038 
Q 1056 3838 1056 3469 
Q 1056 3159 1242 3001 
Q 1428 2844 1947 2747 
L 2328 2669 
Q 3034 2534 3370 2195 
Q 3706 1856 3706 1288 
Q 3706 609 3251 259 
Q 2797 -91 1919 -91 
Q 1588 -91 1214 -16 
Q 841 59 441 206 
L 441 856 
Q 825 641 1194 531 
Q 1563 422 1919 422 
Q 2459 422 2753 634 
Q 3047 847 3047 1241 
Q 3047 1584 2836 1778 
Q 2625 1972 2144 2069 
L 1759 2144 
Q 1053 2284 737 2584 
Q 422 2884 422 3419 
Q 422 4038 858 4394 
Q 1294 4750 2059 4750 
Q 2388 4750 2728 4690 
Q 3069 4631 3425 4513 
z
" transform="scale(0.015625)"/>
      <path id="DejaVuSans-61" d="M 2194 1759 
Q 1497 1759 1228 1600 
Q 959 1441 959 1056 
Q 959 750 1161 570 
Q 1363 391 1709 391 
Q 2188 391 2477 730 
Q 2766 1069 2766 1631 
L 2766 1759 
L 2194 1759 
z
M 3341 1997 
L 3341 0 
L 2766 0 
L 2766 531 
Q 2569 213 2275 61 
Q 1981 -91 1556 -91 
Q 1019 -91 701 211 
Q 384 513 384 1019 
Q 384 1609 779 1909 
Q 1175 2209 1959 2209 
L 2766 2209 
L 2766 2266 
Q 2766 2663 2505 2880 
Q 2244 3097 1772 3097 
Q 1472 3097 1187 3025 
Q 903 2953 641 2809 
L 641 3341 
Q 956 3463 1253 3523 
Q 1550 3584 1831 3584 
Q 2591 3584 2966 3190 
Q 3341 2797 3341 1997 
z
" transform="scale(0.015625)"/>
      <path id="DejaVuSans-6d" d="M 3328 2828 
Q 3544 3216 3844 3400 
Q 4144 3584 4550 3584 
Q 5097 3584 5394 3201 
Q 5691 2819 5691 2113 
L 5691 0 
L 5113 0 
L 5113 2094 
Q 5113 2597 4934 2840 
Q 4756 3084 4391 3084 
Q 3944 3084 3684 2787 
Q 3425 2491 3425 1978 
L 3425 0 
L 2847 0 
L 2847 2094 
Q 2847 2600 2669 2842 
Q 2491 3084 2119 3084 
Q 1678 3084 1418 2786 
Q 1159 2488 1159 1978 
L 1159 0 
L 581 0 
L 581 3500 
L 1159 3500 
L 1159 2956 
Q 1356 3278 1631 3431 
Q 1906 3584 2284 3584 
Q 2666 3584 2933 3390 
Q 3200 3197 3328 2828 
z
" transform="scale(0.015625)"/>
      <path id="DejaVuSans-70" d="M 1159 525 
L 1159 -1331 
L 581 -1331 
L 581 3500 
L 1159 3500 
L 1159 2969 
Q 1341 3281 1617 3432 
Q 1894 3584 2278 3584 
Q 2916 3584 3314 3078 
Q 3713 2572 3713 1747 
Q 3713 922 3314 415 
Q 2916 -91 2278 -91 
Q 1894 -91 1617 61 
Q 1341 213 1159 525 
z
M 3116 1747 
Q 3116 2381 2855 2742 
Q 2594 3103 2138 3103 
Q 1681 3103 1420 2742 
Q 1159 2381 1159 1747 
Q 1159 1113 1420 752 
Q 1681 391 2138 391 
Q 2594 391 2855 752 
Q 3116 1113 3116 1747 
z
" transform="scale(0.015625)"/>
      <path id="DejaVuSans-6c" d="M 603 4863 
L 1178 4863 
L 1178 0 
L 603 0 
L 603 4863 
z
" transform="scale(0.015625)"/>
      <path id="DejaVuSans-69" d="M 603 3500 
L 1178 3500 
L 1178 0 
L 603 0 
L 603 3500 
z
M 603 4863 
L 1178 4863 
L 1178 4134 
L 603 4134 
L 603 4863 
z
" transform="scale(0.015625)"/>
      <path id="DejaVuSans-6e" d="M 3513 2113 
L 3513 0 
L 2938 0 
L 2938 2094 
Q 2938 2591 2744 2837 
Q 2550 3084 2163 3084 
Q 1697 3084 1428 2787 
Q 1159 2491 1159 1978 
L 1159 0 
L 581 0 
L 581 3500 
L 1159 3500 
L 1159 2956 
Q 1366 3272 1645 3428 
Q 1925 3584 2291 3584 
Q 2894 3584 3203 3211 
Q 3513 2838 3513 2113 
z
" transform="scale(0.015625)"/>
      <path id="DejaVuSans-67" d="M 2906 1791 
Q 2906 2416 2648 2759 
Q 2391 3103 1925 3103 
Q 1463 3103 1205 2759 
Q 947 2416 947 1791 
Q 947 1169 1205 825 
Q 1463 481 1925 481 
Q 2391 481 2648 825 
Q 2906 1169 2906 1791 
z
M 3481 434 
Q 3481 -459 3084 -895 
Q 2688 -1331 1869 -1331 
Q 1566 -1331 1297 -1286 
Q 1028 -1241 775 -1147 
L 775 -588 
Q 1028 -725 1275 -790 
Q 1522 -856 1778 -856 
Q 2344 -856 2625 -561 
Q 2906 -266 2906 331 
L 2906 616 
Q 2728 306 2450 153 
Q 2172 0 1784 0 
Q 1141 0 747 490 
Q 353 981 353 1791 
Q 353 2603 747 3093 
Q 1141 3584 1784 3584 
Q 2172 3584 2450 3431 
Q 2728 3278 2906 2969 
L 2906 3500 
L 3481 3500 
L 3481 434 
z
" transform="scale(0.015625)"/>
      <path id="DejaVuSans-20" transform="scale(0.015625)"/>
      <path id="STIXSizeOneSym-Regular-221a" d="M 6970 9933 
L 3373 -1888 
L 3104 -1888 
L 1626 2918 
Q 1555 3149 1465 3251 
Q 1376 3354 1229 3354 
Q 1011 3354 794 3181 
L 717 3309 
L 1766 4115 
L 1926 4115 
L 3379 -602 
L 3405 -602 
L 6605 9933 
L 6970 9933 
z
" transform="scale(0.015625)"/>
      <path id="DejaVuSans-Oblique-65" d="M 3078 2063 
Q 3088 2113 3092 2166 
Q 3097 2219 3097 2272 
Q 3097 2653 2873 2875 
Q 2650 3097 2266 3097 
Q 1838 3097 1509 2826 
Q 1181 2556 1013 2059 
L 3078 2063 
z
M 3578 1613 
L 903 1613 
Q 884 1494 878 1425 
Q 872 1356 872 1306 
Q 872 872 1139 634 
Q 1406 397 1894 397 
Q 2269 397 2603 481 
Q 2938 566 3225 728 
L 3116 159 
Q 2806 34 2476 -28 
Q 2147 -91 1806 -91 
Q 1078 -91 686 257 
Q 294 606 294 1247 
Q 294 1794 489 2264 
Q 684 2734 1063 3103 
Q 1306 3334 1642 3459 
Q 1978 3584 2356 3584 
Q 2950 3584 3301 3228 
Q 3653 2872 3653 2272 
Q 3653 2128 3634 1964 
Q 3616 1800 3578 1613 
z
" transform="scale(0.015625)"/>
      <path id="DejaVuSans-Oblique-4b" d="M 1081 4666 
L 1716 4666 
L 1331 2700 
L 3781 4666 
L 4622 4666 
L 1850 2438 
L 3878 0 
L 3109 0 
L 1247 2272 
L 806 0 
L 172 0 
L 1081 4666 
z
" transform="scale(0.015625)"/>
      <path id="DejaVuSans-2f" d="M 1625 4666 
L 2156 4666 
L 531 -594 
L 0 -594 
L 1625 4666 
z
" transform="scale(0.015625)"/>
      <path id="DejaVuSans-28" d="M 1984 4856 
Q 1566 4138 1362 3434 
Q 1159 2731 1159 2009 
Q 1159 1288 1364 580 
Q 1569 -128 1984 -844 
L 1484 -844 
Q 1016 -109 783 600 
Q 550 1309 550 2009 
Q 550 2706 781 3412 
Q 1013 4119 1484 4856 
L 1984 4856 
z
" transform="scale(0.015625)"/>
      <path id="DejaVuSans-29" d="M 513 4856 
L 1013 4856 
Q 1481 4119 1714 3412 
Q 1947 2706 1947 2009 
Q 1947 1309 1714 600 
Q 1481 -109 1013 -844 
L 513 -844 
Q 928 -128 1133 580 
Q 1338 1288 1338 2009 
Q 1338 2731 1133 3434 
Q 928 4138 513 4856 
z
" transform="scale(0.015625)"/>
      <path id="DejaVuSans-Oblique-78" d="M 3841 3500 
L 2234 1784 
L 3219 0 
L 2559 0 
L 1819 1388 
L 531 0 
L -166 0 
L 1556 1844 
L 641 3500 
L 1300 3500 
L 1972 2234 
L 3144 3500 
L 3841 3500 
z
" transform="scale(0.015625)"/>
      <path id="DejaVuSans-2b" d="M 2944 4013 
L 2944 2272 
L 4684 2272 
L 4684 1741 
L 2944 1741 
L 2944 0 
L 2419 0 
L 2419 1741 
L 678 1741 
L 678 2272 
L 2419 2272 
L 2419 4013 
L 2944 4013 
z
" transform="scale(0.015625)"/>
      <path id="DejaVuSans-4e" d="M 628 4666 
L 1478 4666 
L 3547 763 
L 3547 4666 
L 4159 4666 
L 4159 0 
L 3309 0 
L 1241 3903 
L 1241 0 
L 628 0 
L 628 4666 
z
" transform="scale(0.015625)"/>
      <path id="DejaVuSans-3d" d="M 678 2906 
L 4684 2906 
L 4684 2381 
L 678 2381 
L 678 2906 
z
M 678 1631 
L 4684 1631 
L 4684 1100 
L 678 1100 
L 678 1631 
z
" transform="scale(0.015625)"/>
     </defs>
     <use xlink:href="#DejaVuSans-53" transform="translate(0 0.30625)"/>
     <use xlink:href="#DejaVuSans-61" transform="translate(63.476562 0.30625)"/>
     <use xlink:href="#DejaVuSans-6d" transform="translate(124.755859 0.30625)"/>
     <use xlink:href="#DejaVuSans-70" transform="translate(222.167969 0.30625)"/>
     <use xlink:href="#DejaVuSans-6c" transform="translate(285.644531 0.30625)"/>
     <use xlink:href="#DejaVuSans-69" transform="translate(313.427734 0.30625)"/>
     <use xlink:href="#DejaVuSans-6e" transform="translate(341.210938 0.30625)"/>
     <use xlink:href="#DejaVuSans-67" transform="translate(404.589844 0.30625)"/>
     <use xlink:href="#DejaVuSans-20" transform="translate(468.066406 0.30625)"/>
     <use xlink:href="#STIXSizeOneSym-Regular-221a" transform="translate(581.853516 55.871875) scale(0.399712)"/>
     <use xlink:href="#DejaVuSans-32" transform="translate(632.870299 43.671875) scale(0.7)"/>
     <use xlink:href="#DejaVuSans-Oblique-65" transform="translate(499.853516 -40.259375) scale(0.7)"/>
     <use xlink:href="#DejaVuSans-Oblique-4b" transform="translate(542.919922 -40.259375) scale(0.7)"/>
     <use xlink:href="#DejaVuSans-31" transform="translate(588.823242 -51.74375) scale(0.49)"/>
     <use xlink:href="#DejaVuSans-2f" transform="translate(619.998535 -51.74375) scale(0.49)"/>
     <use xlink:href="#DejaVuSans-34" transform="translate(636.507324 -51.74375) scale(0.49)"/>
     <use xlink:href="#DejaVuSans-28" transform="translate(669.59668 -40.259375) scale(0.7)"/>
     <use xlink:href="#DejaVuSans-31" transform="translate(696.90625 -40.259375) scale(0.7)"/>
     <use xlink:href="#DejaVuSans-29" transform="translate(741.442383 -40.259375) scale(0.7)"/>
     <use xlink:href="#DejaVuSans-Oblique-65" transform="translate(781.251953 0.30625)"/>
     <use xlink:href="#DejaVuSans-2212" transform="translate(847.425286 38.5875) scale(0.7)"/>
     <use xlink:href="#DejaVuSans-38" transform="translate(906.07763 38.5875) scale(0.7)"/>
     <use xlink:href="#DejaVuSans-28" transform="translate(950.613763 38.5875) scale(0.7)"/>
     <use xlink:href="#DejaVuSans-Oblique-78" transform="translate(977.923333 38.5875) scale(0.7)"/>
     <use xlink:href="#DejaVuSans-32" transform="translate(1022.475417 65.384375) scale(0.49)"/>
     <use xlink:href="#DejaVuSans-2f" transform="translate(1055.564772 38.5875) scale(0.7)"/>
     <use xlink:href="#DejaVuSans-32" transform="translate(1076.611257 38.5875) scale(0.7)"/>
     <use xlink:href="#DejaVuSans-2b" transform="translate(1134.785085 38.5875) scale(0.7)"/>
     <use xlink:href="#DejaVuSans-Oblique-78" transform="translate(1207.075124 38.5875) scale(0.7)"/>
     <use xlink:href="#DejaVuSans-34" transform="translate(1251.627207 65.384375) scale(0.49)"/>
     <use xlink:href="#DejaVuSans-2f" transform="translate(1284.716562 38.5875) scale(0.7)"/>
     <use xlink:href="#DejaVuSans-34" transform="translate(1308.300547 38.5875) scale(0.7)"/>
     <use xlink:href="#DejaVuSans-29" transform="translate(1352.83668 38.5875) scale(0.7)"/>
     <use xlink:href="#DejaVuSans-20" transform="translate(1382.880625 0.30625)"/>
     <use xlink:href="#DejaVuSans-20" transform="translate(1414.667734 0.30625)"/>
     <use xlink:href="#DejaVuSans-28" transform="translate(1446.454844 0.30625)"/>
     <use xlink:href="#DejaVuSans-4e" transform="translate(1485.468516 0.30625)"/>
     <use xlink:href="#DejaVuSans-20" transform="translate(1560.273203 0.30625)"/>
     <use xlink:href="#DejaVuSans-3d" transform="translate(1592.060313 0.30625)"/>
     <use xlink:href="#DejaVuSans-20" transform="translate(1675.849375 0.30625)"/>
     <use xlink:href="#DejaVuSans-31" transform="translate(1707.636484 0.30625)"/>
     <use xlink:href="#DejaVuSans-30" transform="translate(1771.259531 0.30625)"/>
     <use xlink:href="#DejaVuSans-30" transform="translate(1834.882578 0.30625)"/>
     <use xlink:href="#DejaVuSans-30" transform="translate(1898.505625 0.30625)"/>
     <use xlink:href="#DejaVuSans-30" transform="translate(1962.128672 0.30625)"/>
     <use xlink:href="#DejaVuSans-30" transform="translate(2025.751719 0.30625)"/>
     <use xlink:href="#DejaVuSans-29" transform="translate(2089.374766 0.30625)"/>
     <path d="M 624.120299 113.25 
L 624.120299 117.625 
L 686.156432 117.625 
L 686.156432 113.25 
L 624.120299 113.25 
z
"/>
     <path d="M 499.853516 19.103125 
L 499.853516 25.353125 
L 768.751953 25.353125 
L 768.751953 19.103125 
L 499.853516 19.103125 
z
"/>
    </g>
   </g>
   <g id="legend_1">
    <g id="patch_113">
     <path d="M 349.209375 72.44065 
L 443 72.44065 
Q 445 72.44065 445 70.44065 
L 445 42.0844 
Q 445 40.0844 443 40.0844 
L 349.209375 40.0844 
Q 347.209375 40.0844 347.209375 42.0844 
L 347.209375 70.44065 
Q 347.209375 72.44065 349.209375 72.44065 
z
" style="fill: #ffffff; opacity: 0.8; stroke: #cccccc; stroke-linejoin: miter"/>
    </g>
    <g id="patch_114">
     <path d="M 351.209375 51.682837 
L 371.209375 51.682837 
L 371.209375 44.682837 
L 351.209375 44.682837 
z
" style="fill: #1f77b4"/>
    </g>
    <g id="text_14">
     <!-- Sampled -->
     <g transform="translate(379.209375 51.682837) scale(0.1 -0.1)">
      <defs>
       <path id="DejaVuSans-65" d="M 3597 1894 
L 3597 1613 
L 953 1613 
Q 991 1019 1311 708 
Q 1631 397 2203 397 
Q 2534 397 2845 478 
Q 3156 559 3463 722 
L 3463 178 
Q 3153 47 2828 -22 
Q 2503 -91 2169 -91 
Q 1331 -91 842 396 
Q 353 884 353 1716 
Q 353 2575 817 3079 
Q 1281 3584 2069 3584 
Q 2775 3584 3186 3129 
Q 3597 2675 3597 1894 
z
M 3022 2063 
Q 3016 2534 2758 2815 
Q 2500 3097 2075 3097 
Q 1594 3097 1305 2825 
Q 1016 2553 972 2059 
L 3022 2063 
z
" transform="scale(0.015625)"/>
       <path id="DejaVuSans-64" d="M 2906 2969 
L 2906 4863 
L 3481 4863 
L 3481 0 
L 2906 0 
L 2906 525 
Q 2725 213 2448 61 
Q 2172 -91 1784 -91 
Q 1150 -91 751 415 
Q 353 922 353 1747 
Q 353 2572 751 3078 
Q 1150 3584 1784 3584 
Q 2172 3584 2448 3432 
Q 2725 3281 2906 2969 
z
M 947 1747 
Q 947 1113 1208 752 
Q 1469 391 1925 391 
Q 2381 391 2643 752 
Q 2906 1113 2906 1747 
Q 2906 2381 2643 2742 
Q 2381 3103 1925 3103 
Q 1469 3103 1208 2742 
Q 947 2381 947 1747 
z
" transform="scale(0.015625)"/>
      </defs>
      <use xlink:href="#DejaVuSans-53"/>
      <use xlink:href="#DejaVuSans-61" transform="translate(63.476562 0)"/>
      <use xlink:href="#DejaVuSans-6d" transform="translate(124.755859 0)"/>
      <use xlink:href="#DejaVuSans-70" transform="translate(222.167969 0)"/>
      <use xlink:href="#DejaVuSans-6c" transform="translate(285.644531 0)"/>
      <use xlink:href="#DejaVuSans-65" transform="translate(313.427734 0)"/>
      <use xlink:href="#DejaVuSans-64" transform="translate(374.951172 0)"/>
     </g>
    </g>
    <g id="line2d_14">
     <path d="M 351.209375 62.860962 
L 361.209375 62.860962 
L 371.209375 62.860962 
" style="fill: none; stroke: #ff7f0e; stroke-width: 1.5; stroke-linecap: square"/>
    </g>
    <g id="text_15">
     <!-- Original PDF -->
     <g transform="translate(379.209375 66.360962) scale(0.1 -0.1)">
      <defs>
       <path id="DejaVuSans-4f" d="M 2522 4238 
Q 1834 4238 1429 3725 
Q 1025 3213 1025 2328 
Q 1025 1447 1429 934 
Q 1834 422 2522 422 
Q 3209 422 3611 934 
Q 4013 1447 4013 2328 
Q 4013 3213 3611 3725 
Q 3209 4238 2522 4238 
z
M 2522 4750 
Q 3503 4750 4090 4092 
Q 4678 3434 4678 2328 
Q 4678 1225 4090 567 
Q 3503 -91 2522 -91 
Q 1538 -91 948 565 
Q 359 1222 359 2328 
Q 359 3434 948 4092 
Q 1538 4750 2522 4750 
z
" transform="scale(0.015625)"/>
       <path id="DejaVuSans-72" d="M 2631 2963 
Q 2534 3019 2420 3045 
Q 2306 3072 2169 3072 
Q 1681 3072 1420 2755 
Q 1159 2438 1159 1844 
L 1159 0 
L 581 0 
L 581 3500 
L 1159 3500 
L 1159 2956 
Q 1341 3275 1631 3429 
Q 1922 3584 2338 3584 
Q 2397 3584 2469 3576 
Q 2541 3569 2628 3553 
L 2631 2963 
z
" transform="scale(0.015625)"/>
       <path id="DejaVuSans-50" d="M 1259 4147 
L 1259 2394 
L 2053 2394 
Q 2494 2394 2734 2622 
Q 2975 2850 2975 3272 
Q 2975 3691 2734 3919 
Q 2494 4147 2053 4147 
L 1259 4147 
z
M 628 4666 
L 2053 4666 
Q 2838 4666 3239 4311 
Q 3641 3956 3641 3272 
Q 3641 2581 3239 2228 
Q 2838 1875 2053 1875 
L 1259 1875 
L 1259 0 
L 628 0 
L 628 4666 
z
" transform="scale(0.015625)"/>
       <path id="DejaVuSans-44" d="M 1259 4147 
L 1259 519 
L 2022 519 
Q 2988 519 3436 956 
Q 3884 1394 3884 2338 
Q 3884 3275 3436 3711 
Q 2988 4147 2022 4147 
L 1259 4147 
z
M 628 4666 
L 1925 4666 
Q 3281 4666 3915 4102 
Q 4550 3538 4550 2338 
Q 4550 1131 3912 565 
Q 3275 0 1925 0 
L 628 0 
L 628 4666 
z
" transform="scale(0.015625)"/>
       <path id="DejaVuSans-46" d="M 628 4666 
L 3309 4666 
L 3309 4134 
L 1259 4134 
L 1259 2759 
L 3109 2759 
L 3109 2228 
L 1259 2228 
L 1259 0 
L 628 0 
L 628 4666 
z
" transform="scale(0.015625)"/>
      </defs>
      <use xlink:href="#DejaVuSans-4f"/>
      <use xlink:href="#DejaVuSans-72" transform="translate(78.710938 0)"/>
      <use xlink:href="#DejaVuSans-69" transform="translate(119.824219 0)"/>
      <use xlink:href="#DejaVuSans-67" transform="translate(147.607422 0)"/>
      <use xlink:href="#DejaVuSans-69" transform="translate(211.083984 0)"/>
      <use xlink:href="#DejaVuSans-6e" transform="translate(238.867188 0)"/>
      <use xlink:href="#DejaVuSans-61" transform="translate(302.246094 0)"/>
      <use xlink:href="#DejaVuSans-6c" transform="translate(363.525391 0)"/>
      <use xlink:href="#DejaVuSans-20" transform="translate(391.308594 0)"/>
      <use xlink:href="#DejaVuSans-50" transform="translate(423.095703 0)"/>
      <use xlink:href="#DejaVuSans-44" transform="translate(483.398438 0)"/>
      <use xlink:href="#DejaVuSans-46" transform="translate(560.400391 0)"/>
     </g>
    </g>
   </g>
  </g>
 </g>
 <defs>
  <clipPath id="pb9455be9c6">
   <rect x="33.64" y="35.0844" width="416.36" height="282.6356"/>
  </clipPath>
 </defs>
</svg>
