<?xml version="1.0" encoding="utf-8" standalone="no"?>
<!DOCTYPE svg PUBLIC "-//W3C//DTD SVG 1.1//EN"
  "http://www.w3.org/Graphics/SVG/1.1/DTD/svg11.dtd">
<svg xmlns:xlink="http://www.w3.org/1999/xlink" width="460.8pt" height="345.6pt" viewBox="0 0 460.8 345.6" xmlns="http://www.w3.org/2000/svg" version="1.1">
 <metadata>
  <rdf:RDF xmlns:dc="http://purl.org/dc/elements/1.1/" xmlns:cc="http://creativecommons.org/ns#" xmlns:rdf="http://www.w3.org/1999/02/22-rdf-syntax-ns#">
   <cc:Work>
    <dc:type rdf:resource="http://purl.org/dc/dcmitype/StillImage"/>
    <dc:date>2025-05-13T22:12:51.608817</dc:date>
    <dc:format>image/svg+xml</dc:format>
    <dc:creator>
     <cc:Agent>
      <dc:title>Matplotlib v3.10.1, https://matplotlib.org/</dc:title>
     </cc:Agent>
    </dc:creator>
   </cc:Work>
  </rdf:RDF>
 </metadata>
 <defs>
  <style type="text/css">*{stroke-linejoin: round; stroke-linecap: butt}</style>
 </defs>
 <g id="figure_1">
  <g id="patch_1">
   <path d="M 0 345.6 
L 460.8 345.6 
L 460.8 0 
L 0 0 
z
" style="fill: #ffffff"/>
  </g>
  <g id="axes_1">
   <g id="patch_2">
    <path d="M 56.09 303.64 
L 450 303.64 
L 450 28.32 
L 56.09 28.32 
z
" style="fill: #ffffff"/>
   </g>
   <g id="matplotlib.axis_1">
    <g id="xtick_1">
     <g id="line2d_1">
      <defs>
       <path id="m7cf4625b46" d="M 0 0 
L 0 3.5 
" style="stroke: #000000; stroke-width: 0.8"/>
      </defs>
      <g>
       <use xlink:href="#m7cf4625b46" x="73.995" y="303.64" style="stroke: #000000; stroke-width: 0.8"/>
      </g>
     </g>
     <g id="text_1">
      <!-- 0 -->
      <g transform="translate(70.81375 318.238437) scale(0.1 -0.1)">
       <defs>
        <path id="DejaVuSans-30" d="M 2034 4250 
Q 1547 4250 1301 3770 
Q 1056 3291 1056 2328 
Q 1056 1369 1301 889 
Q 1547 409 2034 409 
Q 2525 409 2770 889 
Q 3016 1369 3016 2328 
Q 3016 3291 2770 3770 
Q 2525 4250 2034 4250 
z
M 2034 4750 
Q 2819 4750 3233 4129 
Q 3647 3509 3647 2328 
Q 3647 1150 3233 529 
Q 2819 -91 2034 -91 
Q 1250 -91 836 529 
Q 422 1150 422 2328 
Q 422 3509 836 4129 
Q 1250 4750 2034 4750 
z
" transform="scale(0.015625)"/>
       </defs>
       <use xlink:href="#DejaVuSans-30"/>
      </g>
     </g>
    </g>
    <g id="xtick_2">
     <g id="line2d_2">
      <g>
       <use xlink:href="#m7cf4625b46" x="145.615716" y="303.64" style="stroke: #000000; stroke-width: 0.8"/>
      </g>
     </g>
     <g id="text_2">
      <!-- 20 -->
      <g transform="translate(139.253216 318.238437) scale(0.1 -0.1)">
       <defs>
        <path id="DejaVuSans-32" d="M 1228 531 
L 3431 531 
L 3431 0 
L 469 0 
L 469 531 
Q 828 903 1448 1529 
Q 2069 2156 2228 2338 
Q 2531 2678 2651 2914 
Q 2772 3150 2772 3378 
Q 2772 3750 2511 3984 
Q 2250 4219 1831 4219 
Q 1534 4219 1204 4116 
Q 875 4013 500 3803 
L 500 4441 
Q 881 4594 1212 4672 
Q 1544 4750 1819 4750 
Q 2544 4750 2975 4387 
Q 3406 4025 3406 3419 
Q 3406 3131 3298 2873 
Q 3191 2616 2906 2266 
Q 2828 2175 2409 1742 
Q 1991 1309 1228 531 
z
" transform="scale(0.015625)"/>
       </defs>
       <use xlink:href="#DejaVuSans-32"/>
       <use xlink:href="#DejaVuSans-30" transform="translate(63.623047 0)"/>
      </g>
     </g>
    </g>
    <g id="xtick_3">
     <g id="line2d_3">
      <g>
       <use xlink:href="#m7cf4625b46" x="217.236432" y="303.64" style="stroke: #000000; stroke-width: 0.8"/>
      </g>
     </g>
     <g id="text_3">
      <!-- 40 -->
      <g transform="translate(210.873932 318.238437) scale(0.1 -0.1)">
       <defs>
        <path id="DejaVuSans-34" d="M 2419 4116 
L 825 1625 
L 2419 1625 
L 2419 4116 
z
M 2253 4666 
L 3047 4666 
L 3047 1625 
L 3713 1625 
L 3713 1100 
L 3047 1100 
L 3047 0 
L 2419 0 
L 2419 1100 
L 313 1100 
L 313 1709 
L 2253 4666 
z
" transform="scale(0.015625)"/>
       </defs>
       <use xlink:href="#DejaVuSans-34"/>
       <use xlink:href="#DejaVuSans-30" transform="translate(63.623047 0)"/>
      </g>
     </g>
    </g>
    <g id="xtick_4">
     <g id="line2d_4">
      <g>
       <use xlink:href="#m7cf4625b46" x="288.857149" y="303.64" style="stroke: #000000; stroke-width: 0.8"/>
      </g>
     </g>
     <g id="text_4">
      <!-- 60 -->
      <g transform="translate(282.494649 318.238437) scale(0.1 -0.1)">
       <defs>
        <path id="DejaVuSans-36" d="M 2113 2584 
Q 1688 2584 1439 2293 
Q 1191 2003 1191 1497 
Q 1191 994 1439 701 
Q 1688 409 2113 409 
Q 2538 409 2786 701 
Q 3034 994 3034 1497 
Q 3034 2003 2786 2293 
Q 2538 2584 2113 2584 
z
M 3366 4563 
L 3366 3988 
Q 3128 4100 2886 4159 
Q 2644 4219 2406 4219 
Q 1781 4219 1451 3797 
Q 1122 3375 1075 2522 
Q 1259 2794 1537 2939 
Q 1816 3084 2150 3084 
Q 2853 3084 3261 2657 
Q 3669 2231 3669 1497 
Q 3669 778 3244 343 
Q 2819 -91 2113 -91 
Q 1303 -91 875 529 
Q 447 1150 447 2328 
Q 447 3434 972 4092 
Q 1497 4750 2381 4750 
Q 2619 4750 2861 4703 
Q 3103 4656 3366 4563 
z
" transform="scale(0.015625)"/>
       </defs>
       <use xlink:href="#DejaVuSans-36"/>
       <use xlink:href="#DejaVuSans-30" transform="translate(63.623047 0)"/>
      </g>
     </g>
    </g>
    <g id="xtick_5">
     <g id="line2d_5">
      <g>
       <use xlink:href="#m7cf4625b46" x="360.477865" y="303.64" style="stroke: #000000; stroke-width: 0.8"/>
      </g>
     </g>
     <g id="text_5">
      <!-- 80 -->
      <g transform="translate(354.115365 318.238437) scale(0.1 -0.1)">
       <defs>
        <path id="DejaVuSans-38" d="M 2034 2216 
Q 1584 2216 1326 1975 
Q 1069 1734 1069 1313 
Q 1069 891 1326 650 
Q 1584 409 2034 409 
Q 2484 409 2743 651 
Q 3003 894 3003 1313 
Q 3003 1734 2745 1975 
Q 2488 2216 2034 2216 
z
M 1403 2484 
Q 997 2584 770 2862 
Q 544 3141 544 3541 
Q 544 4100 942 4425 
Q 1341 4750 2034 4750 
Q 2731 4750 3128 4425 
Q 3525 4100 3525 3541 
Q 3525 3141 3298 2862 
Q 3072 2584 2669 2484 
Q 3125 2378 3379 2068 
Q 3634 1759 3634 1313 
Q 3634 634 3220 271 
Q 2806 -91 2034 -91 
Q 1263 -91 848 271 
Q 434 634 434 1313 
Q 434 1759 690 2068 
Q 947 2378 1403 2484 
z
M 1172 3481 
Q 1172 3119 1398 2916 
Q 1625 2713 2034 2713 
Q 2441 2713 2670 2916 
Q 2900 3119 2900 3481 
Q 2900 3844 2670 4047 
Q 2441 4250 2034 4250 
Q 1625 4250 1398 4047 
Q 1172 3844 1172 3481 
z
" transform="scale(0.015625)"/>
       </defs>
       <use xlink:href="#DejaVuSans-38"/>
       <use xlink:href="#DejaVuSans-30" transform="translate(63.623047 0)"/>
      </g>
     </g>
    </g>
    <g id="xtick_6">
     <g id="line2d_6">
      <g>
       <use xlink:href="#m7cf4625b46" x="432.098581" y="303.64" style="stroke: #000000; stroke-width: 0.8"/>
      </g>
     </g>
     <g id="text_6">
      <!-- 100 -->
      <g transform="translate(422.554831 318.238437) scale(0.1 -0.1)">
       <defs>
        <path id="DejaVuSans-31" d="M 794 531 
L 1825 531 
L 1825 4091 
L 703 3866 
L 703 4441 
L 1819 4666 
L 2450 4666 
L 2450 531 
L 3481 531 
L 3481 0 
L 794 0 
L 794 531 
z
" transform="scale(0.015625)"/>
       </defs>
       <use xlink:href="#DejaVuSans-31"/>
       <use xlink:href="#DejaVuSans-30" transform="translate(63.623047 0)"/>
       <use xlink:href="#DejaVuSans-30" transform="translate(127.246094 0)"/>
      </g>
     </g>
    </g>
    <g id="text_7">
     <!-- time -->
     <g transform="translate(241.748906 331.916562) scale(0.1 -0.1)">
      <defs>
       <path id="DejaVuSans-74" d="M 1172 4494 
L 1172 3500 
L 2356 3500 
L 2356 3053 
L 1172 3053 
L 1172 1153 
Q 1172 725 1289 603 
Q 1406 481 1766 481 
L 2356 481 
L 2356 0 
L 1766 0 
Q 1100 0 847 248 
Q 594 497 594 1153 
L 594 3053 
L 172 3053 
L 172 3500 
L 594 3500 
L 594 4494 
L 1172 4494 
z
" transform="scale(0.015625)"/>
       <path id="DejaVuSans-69" d="M 603 3500 
L 1178 3500 
L 1178 0 
L 603 0 
L 603 3500 
z
M 603 4863 
L 1178 4863 
L 1178 4134 
L 603 4134 
L 603 4863 
z
" transform="scale(0.015625)"/>
       <path id="DejaVuSans-6d" d="M 3328 2828 
Q 3544 3216 3844 3400 
Q 4144 3584 4550 3584 
Q 5097 3584 5394 3201 
Q 5691 2819 5691 2113 
L 5691 0 
L 5113 0 
L 5113 2094 
Q 5113 2597 4934 2840 
Q 4756 3084 4391 3084 
Q 3944 3084 3684 2787 
Q 3425 2491 3425 1978 
L 3425 0 
L 2847 0 
L 2847 2094 
Q 2847 2600 2669 2842 
Q 2491 3084 2119 3084 
Q 1678 3084 1418 2786 
Q 1159 2488 1159 1978 
L 1159 0 
L 581 0 
L 581 3500 
L 1159 3500 
L 1159 2956 
Q 1356 3278 1631 3431 
Q 1906 3584 2284 3584 
Q 2666 3584 2933 3390 
Q 3200 3197 3328 2828 
z
" transform="scale(0.015625)"/>
       <path id="DejaVuSans-65" d="M 3597 1894 
L 3597 1613 
L 953 1613 
Q 991 1019 1311 708 
Q 1631 397 2203 397 
Q 2534 397 2845 478 
Q 3156 559 3463 722 
L 3463 178 
Q 3153 47 2828 -22 
Q 2503 -91 2169 -91 
Q 1331 -91 842 396 
Q 353 884 353 1716 
Q 353 2575 817 3079 
Q 1281 3584 2069 3584 
Q 2775 3584 3186 3129 
Q 3597 2675 3597 1894 
z
M 3022 2063 
Q 3016 2534 2758 2815 
Q 2500 3097 2075 3097 
Q 1594 3097 1305 2825 
Q 1016 2553 972 2059 
L 3022 2063 
z
" transform="scale(0.015625)"/>
      </defs>
      <use xlink:href="#DejaVuSans-74"/>
      <use xlink:href="#DejaVuSans-69" transform="translate(39.208984 0)"/>
      <use xlink:href="#DejaVuSans-6d" transform="translate(66.992188 0)"/>
      <use xlink:href="#DejaVuSans-65" transform="translate(164.404297 0)"/>
     </g>
    </g>
   </g>
   <g id="matplotlib.axis_2">
    <g id="ytick_1">
     <g id="line2d_7">
      <defs>
       <path id="m5548f47d73" d="M 0 0 
L -3.5 0 
" style="stroke: #000000; stroke-width: 0.8"/>
      </defs>
      <g>
       <use xlink:href="#m5548f47d73" x="56.09" y="303.639978" style="stroke: #000000; stroke-width: 0.8"/>
      </g>
     </g>
     <g id="text_8">
      <!-- −1.0 -->
      <g transform="translate(24.807188 307.439197) scale(0.1 -0.1)">
       <defs>
        <path id="DejaVuSans-2212" d="M 678 2272 
L 4684 2272 
L 4684 1741 
L 678 1741 
L 678 2272 
z
" transform="scale(0.015625)"/>
        <path id="DejaVuSans-2e" d="M 684 794 
L 1344 794 
L 1344 0 
L 684 0 
L 684 794 
z
" transform="scale(0.015625)"/>
       </defs>
       <use xlink:href="#DejaVuSans-2212"/>
       <use xlink:href="#DejaVuSans-31" transform="translate(83.789062 0)"/>
       <use xlink:href="#DejaVuSans-2e" transform="translate(147.412109 0)"/>
       <use xlink:href="#DejaVuSans-30" transform="translate(179.199219 0)"/>
      </g>
     </g>
    </g>
    <g id="ytick_2">
     <g id="line2d_8">
      <g>
       <use xlink:href="#m5548f47d73" x="56.09" y="266.096352" style="stroke: #000000; stroke-width: 0.8"/>
      </g>
     </g>
     <g id="text_9">
      <!-- −0.5 -->
      <g transform="translate(24.807188 269.895571) scale(0.1 -0.1)">
       <defs>
        <path id="DejaVuSans-35" d="M 691 4666 
L 3169 4666 
L 3169 4134 
L 1269 4134 
L 1269 2991 
Q 1406 3038 1543 3061 
Q 1681 3084 1819 3084 
Q 2600 3084 3056 2656 
Q 3513 2228 3513 1497 
Q 3513 744 3044 326 
Q 2575 -91 1722 -91 
Q 1428 -91 1123 -41 
Q 819 9 494 109 
L 494 744 
Q 775 591 1075 516 
Q 1375 441 1709 441 
Q 2250 441 2565 725 
Q 2881 1009 2881 1497 
Q 2881 1984 2565 2268 
Q 2250 2553 1709 2553 
Q 1456 2553 1204 2497 
Q 953 2441 691 2322 
L 691 4666 
z
" transform="scale(0.015625)"/>
       </defs>
       <use xlink:href="#DejaVuSans-2212"/>
       <use xlink:href="#DejaVuSans-30" transform="translate(83.789062 0)"/>
       <use xlink:href="#DejaVuSans-2e" transform="translate(147.412109 0)"/>
       <use xlink:href="#DejaVuSans-35" transform="translate(179.199219 0)"/>
      </g>
     </g>
    </g>
    <g id="ytick_3">
     <g id="line2d_9">
      <g>
       <use xlink:href="#m5548f47d73" x="56.09" y="228.552726" style="stroke: #000000; stroke-width: 0.8"/>
      </g>
     </g>
     <g id="text_10">
      <!-- 0.0 -->
      <g transform="translate(33.186875 232.351945) scale(0.1 -0.1)">
       <use xlink:href="#DejaVuSans-30"/>
       <use xlink:href="#DejaVuSans-2e" transform="translate(63.623047 0)"/>
       <use xlink:href="#DejaVuSans-30" transform="translate(95.410156 0)"/>
      </g>
     </g>
    </g>
    <g id="ytick_4">
     <g id="line2d_10">
      <g>
       <use xlink:href="#m5548f47d73" x="56.09" y="191.0091" style="stroke: #000000; stroke-width: 0.8"/>
      </g>
     </g>
     <g id="text_11">
      <!-- 0.5 -->
      <g transform="translate(33.186875 194.808319) scale(0.1 -0.1)">
       <use xlink:href="#DejaVuSans-30"/>
       <use xlink:href="#DejaVuSans-2e" transform="translate(63.623047 0)"/>
       <use xlink:href="#DejaVuSans-35" transform="translate(95.410156 0)"/>
      </g>
     </g>
    </g>
    <g id="ytick_5">
     <g id="line2d_11">
      <g>
       <use xlink:href="#m5548f47d73" x="56.09" y="153.465475" style="stroke: #000000; stroke-width: 0.8"/>
      </g>
     </g>
     <g id="text_12">
      <!-- 1.0 -->
      <g transform="translate(33.186875 157.264693) scale(0.1 -0.1)">
       <use xlink:href="#DejaVuSans-31"/>
       <use xlink:href="#DejaVuSans-2e" transform="translate(63.623047 0)"/>
       <use xlink:href="#DejaVuSans-30" transform="translate(95.410156 0)"/>
      </g>
     </g>
    </g>
    <g id="ytick_6">
     <g id="line2d_12">
      <g>
       <use xlink:href="#m5548f47d73" x="56.09" y="115.921849" style="stroke: #000000; stroke-width: 0.8"/>
      </g>
     </g>
     <g id="text_13">
      <!-- 1.5 -->
      <g transform="translate(33.186875 119.721067) scale(0.1 -0.1)">
       <use xlink:href="#DejaVuSans-31"/>
       <use xlink:href="#DejaVuSans-2e" transform="translate(63.623047 0)"/>
       <use xlink:href="#DejaVuSans-35" transform="translate(95.410156 0)"/>
      </g>
     </g>
    </g>
    <g id="ytick_7">
     <g id="line2d_13">
      <g>
       <use xlink:href="#m5548f47d73" x="56.09" y="78.378223" style="stroke: #000000; stroke-width: 0.8"/>
      </g>
     </g>
     <g id="text_14">
      <!-- 2.0 -->
      <g transform="translate(33.186875 82.177442) scale(0.1 -0.1)">
       <use xlink:href="#DejaVuSans-32"/>
       <use xlink:href="#DejaVuSans-2e" transform="translate(63.623047 0)"/>
       <use xlink:href="#DejaVuSans-30" transform="translate(95.410156 0)"/>
      </g>
     </g>
    </g>
    <g id="ytick_8">
     <g id="line2d_14">
      <g>
       <use xlink:href="#m5548f47d73" x="56.09" y="40.834597" style="stroke: #000000; stroke-width: 0.8"/>
      </g>
     </g>
     <g id="text_15">
      <!-- 2.5 -->
      <g transform="translate(33.186875 44.633816) scale(0.1 -0.1)">
       <use xlink:href="#DejaVuSans-32"/>
       <use xlink:href="#DejaVuSans-2e" transform="translate(63.623047 0)"/>
       <use xlink:href="#DejaVuSans-35" transform="translate(95.410156 0)"/>
      </g>
     </g>
    </g>
    <g id="text_16">
     <!-- Energy difference -->
     <g transform="translate(18.7275 210.249531) rotate(-90) scale(0.1 -0.1)">
      <defs>
       <path id="DejaVuSans-45" d="M 628 4666 
L 3578 4666 
L 3578 4134 
L 1259 4134 
L 1259 2753 
L 3481 2753 
L 3481 2222 
L 1259 2222 
L 1259 531 
L 3634 531 
L 3634 0 
L 628 0 
L 628 4666 
z
" transform="scale(0.015625)"/>
       <path id="DejaVuSans-6e" d="M 3513 2113 
L 3513 0 
L 2938 0 
L 2938 2094 
Q 2938 2591 2744 2837 
Q 2550 3084 2163 3084 
Q 1697 3084 1428 2787 
Q 1159 2491 1159 1978 
L 1159 0 
L 581 0 
L 581 3500 
L 1159 3500 
L 1159 2956 
Q 1366 3272 1645 3428 
Q 1925 3584 2291 3584 
Q 2894 3584 3203 3211 
Q 3513 2838 3513 2113 
z
" transform="scale(0.015625)"/>
       <path id="DejaVuSans-72" d="M 2631 2963 
Q 2534 3019 2420 3045 
Q 2306 3072 2169 3072 
Q 1681 3072 1420 2755 
Q 1159 2438 1159 1844 
L 1159 0 
L 581 0 
L 581 3500 
L 1159 3500 
L 1159 2956 
Q 1341 3275 1631 3429 
Q 1922 3584 2338 3584 
Q 2397 3584 2469 3576 
Q 2541 3569 2628 3553 
L 2631 2963 
z
" transform="scale(0.015625)"/>
       <path id="DejaVuSans-67" d="M 2906 1791 
Q 2906 2416 2648 2759 
Q 2391 3103 1925 3103 
Q 1463 3103 1205 2759 
Q 947 2416 947 1791 
Q 947 1169 1205 825 
Q 1463 481 1925 481 
Q 2391 481 2648 825 
Q 2906 1169 2906 1791 
z
M 3481 434 
Q 3481 -459 3084 -895 
Q 2688 -1331 1869 -1331 
Q 1566 -1331 1297 -1286 
Q 1028 -1241 775 -1147 
L 775 -588 
Q 1028 -725 1275 -790 
Q 1522 -856 1778 -856 
Q 2344 -856 2625 -561 
Q 2906 -266 2906 331 
L 2906 616 
Q 2728 306 2450 153 
Q 2172 0 1784 0 
Q 1141 0 747 490 
Q 353 981 353 1791 
Q 353 2603 747 3093 
Q 1141 3584 1784 3584 
Q 2172 3584 2450 3431 
Q 2728 3278 2906 2969 
L 2906 3500 
L 3481 3500 
L 3481 434 
z
" transform="scale(0.015625)"/>
       <path id="DejaVuSans-79" d="M 2059 -325 
Q 1816 -950 1584 -1140 
Q 1353 -1331 966 -1331 
L 506 -1331 
L 506 -850 
L 844 -850 
Q 1081 -850 1212 -737 
Q 1344 -625 1503 -206 
L 1606 56 
L 191 3500 
L 800 3500 
L 1894 763 
L 2988 3500 
L 3597 3500 
L 2059 -325 
z
" transform="scale(0.015625)"/>
       <path id="DejaVuSans-20" transform="scale(0.015625)"/>
       <path id="DejaVuSans-64" d="M 2906 2969 
L 2906 4863 
L 3481 4863 
L 3481 0 
L 2906 0 
L 2906 525 
Q 2725 213 2448 61 
Q 2172 -91 1784 -91 
Q 1150 -91 751 415 
Q 353 922 353 1747 
Q 353 2572 751 3078 
Q 1150 3584 1784 3584 
Q 2172 3584 2448 3432 
Q 2725 3281 2906 2969 
z
M 947 1747 
Q 947 1113 1208 752 
Q 1469 391 1925 391 
Q 2381 391 2643 752 
Q 2906 1113 2906 1747 
Q 2906 2381 2643 2742 
Q 2381 3103 1925 3103 
Q 1469 3103 1208 2742 
Q 947 2381 947 1747 
z
" transform="scale(0.015625)"/>
       <path id="DejaVuSans-66" d="M 2375 4863 
L 2375 4384 
L 1825 4384 
Q 1516 4384 1395 4259 
Q 1275 4134 1275 3809 
L 1275 3500 
L 2222 3500 
L 2222 3053 
L 1275 3053 
L 1275 0 
L 697 0 
L 697 3053 
L 147 3053 
L 147 3500 
L 697 3500 
L 697 3744 
Q 697 4328 969 4595 
Q 1241 4863 1831 4863 
L 2375 4863 
z
" transform="scale(0.015625)"/>
       <path id="DejaVuSans-63" d="M 3122 3366 
L 3122 2828 
Q 2878 2963 2633 3030 
Q 2388 3097 2138 3097 
Q 1578 3097 1268 2742 
Q 959 2388 959 1747 
Q 959 1106 1268 751 
Q 1578 397 2138 397 
Q 2388 397 2633 464 
Q 2878 531 3122 666 
L 3122 134 
Q 2881 22 2623 -34 
Q 2366 -91 2075 -91 
Q 1284 -91 818 406 
Q 353 903 353 1747 
Q 353 2603 823 3093 
Q 1294 3584 2113 3584 
Q 2378 3584 2631 3529 
Q 2884 3475 3122 3366 
z
" transform="scale(0.015625)"/>
      </defs>
      <use xlink:href="#DejaVuSans-45"/>
      <use xlink:href="#DejaVuSans-6e" transform="translate(63.183594 0)"/>
      <use xlink:href="#DejaVuSans-65" transform="translate(126.5625 0)"/>
      <use xlink:href="#DejaVuSans-72" transform="translate(188.085938 0)"/>
      <use xlink:href="#DejaVuSans-67" transform="translate(227.449219 0)"/>
      <use xlink:href="#DejaVuSans-79" transform="translate(290.925781 0)"/>
      <use xlink:href="#DejaVuSans-20" transform="translate(350.105469 0)"/>
      <use xlink:href="#DejaVuSans-64" transform="translate(381.892578 0)"/>
      <use xlink:href="#DejaVuSans-69" transform="translate(445.369141 0)"/>
      <use xlink:href="#DejaVuSans-66" transform="translate(473.152344 0)"/>
      <use xlink:href="#DejaVuSans-66" transform="translate(508.357422 0)"/>
      <use xlink:href="#DejaVuSans-65" transform="translate(543.5625 0)"/>
      <use xlink:href="#DejaVuSans-72" transform="translate(605.085938 0)"/>
      <use xlink:href="#DejaVuSans-65" transform="translate(643.949219 0)"/>
      <use xlink:href="#DejaVuSans-6e" transform="translate(705.472656 0)"/>
      <use xlink:href="#DejaVuSans-63" transform="translate(768.851562 0)"/>
      <use xlink:href="#DejaVuSans-65" transform="translate(823.832031 0)"/>
     </g>
    </g>
    <g id="text_17">
     <!-- 1e−7 -->
     <g transform="translate(56.09 25.32) scale(0.1 -0.1)">
      <defs>
       <path id="DejaVuSans-37" d="M 525 4666 
L 3525 4666 
L 3525 4397 
L 1831 0 
L 1172 0 
L 2766 4134 
L 525 4134 
L 525 4666 
z
" transform="scale(0.015625)"/>
      </defs>
      <use xlink:href="#DejaVuSans-31"/>
      <use xlink:href="#DejaVuSans-65" transform="translate(63.623047 0)"/>
      <use xlink:href="#DejaVuSans-2212" transform="translate(125.146484 0)"/>
      <use xlink:href="#DejaVuSans-37" transform="translate(208.935547 0)"/>
     </g>
    </g>
   </g>
   <g id="line2d_15">
    <path d="M 73.995 228.552726 
L 74.080945 228.444621 
L 74.224186 227.784882 
L 74.453373 225.493912 
L 74.779247 219.692591 
L 75.219714 207.439249 
L 75.821328 183.816287 
L 76.79537 135.331526 
L 78.106029 72.438038 
L 78.739872 51.949135 
L 79.191083 43.515661 
L 79.502633 41.036387 
L 79.63155 40.836477 
L 79.667361 40.867275 
L 79.781954 41.217868 
L 79.97533 42.675904 
L 80.261813 46.798672 
L 80.655727 56.102202 
L 81.18572 74.487584 
L 81.952062 109.804245 
L 83.939536 204.686009 
L 84.512502 220.80422 
L 84.92074 227.016329 
L 85.189318 228.507088 
L 85.268101 228.545016 
L 85.307492 228.495846 
L 85.436409 228.017792 
L 85.647691 226.190794 
L 85.952079 221.331933 
L 86.367479 210.710097 
L 86.929701 189.98881 
L 87.774826 149.460014 
L 89.422102 69.894889 
L 90.034459 50.875306 
L 90.474927 43.112744 
L 90.772153 40.975325 
L 90.883165 40.836992 
L 90.922556 40.874617 
L 91.04073 41.259747 
L 91.237687 42.804114 
L 91.527751 47.092303 
L 91.925246 56.66172 
L 92.462402 75.560904 
L 93.243067 111.875271 
L 95.15176 203.345598 
L 95.735468 220.227256 
L 96.15445 226.857088 
L 96.430189 228.49065 
L 96.512553 228.548369 
L 96.555526 228.49965 
L 96.680862 228.049188 
L 96.888562 226.298052 
L 97.189369 221.589084 
L 97.601188 211.21256 
L 98.156249 190.983948 
L 98.983468 151.60488 
L 100.695203 69.030078 
L 101.300398 50.506249 
L 101.733703 43.014844 
L 102.027348 40.961237 
L 102.134779 40.837582 
L 102.174171 40.876889 
L 102.295926 41.285244 
L 102.496464 42.89728 
L 102.790109 47.323991 
L 103.194766 57.230374 
L 103.739083 76.647211 
L 104.537654 114.141302 
L 106.367564 202.105141 
L 106.958435 219.630583 
L 107.384578 226.652686 
L 107.66748 228.463715 
L 107.760587 228.549382 
L 107.803559 228.503332 
L 107.928895 228.060636 
L 108.133014 226.362725 
L 108.433821 221.701651 
L 108.842059 211.493368 
L 109.393539 191.522141 
L 110.210015 152.820667 
L 111.961142 68.441461 
L 112.562756 50.225411 
L 112.99248 42.919072 
L 113.282544 40.947894 
L 113.382813 40.836762 
L 113.425785 40.879226 
L 113.547541 41.292771 
L 113.748079 42.913267 
L 114.041723 47.351975 
L 114.446381 57.273599 
L 114.990698 76.707347 
L 115.789269 114.21595 
L 117.615597 202.027706 
L 118.210049 219.663111 
L 118.636192 226.667976 
L 118.919094 228.467022 
L 119.012201 228.548712 
L 119.055174 228.500827 
L 119.18051 228.05279 
L 119.38821 226.305628 
L 119.689017 221.602223 
L 120.100836 211.232686 
L 120.655897 191.011755 
L 121.483116 151.63906 
L 123.194851 69.054913 
L 123.800046 50.521621 
L 124.236932 42.982192 
L 124.530577 40.953424 
L 124.634427 40.837318 
L 124.6774 40.881617 
L 124.799155 41.300352 
L 125.003274 42.968929 
L 125.3005 47.518454 
L 125.705157 57.529993 
L 126.253056 77.211665 
L 127.058789 115.207758 
L 128.852888 201.556153 
L 129.450921 219.455236 
L 129.877064 226.569702 
L 130.163547 228.453773 
L 130.260235 228.549676 
L 130.303207 228.50446 
L 130.424962 228.083131 
L 130.629081 226.41025 
L 130.926307 221.85466 
L 131.334545 211.728438 
L 131.882444 191.996835 
L 132.691758 153.774683 
L 134.471533 68.068217 
L 135.069566 50.077428 
L 135.49929 42.848276 
L 135.785773 40.940505 
L 135.886042 40.837938 
L 135.929014 40.884072 
L 136.054351 41.327013 
L 136.25847 43.025319 
L 136.559277 47.686956 
L 136.967515 57.895941 
L 137.518994 77.867944 
L 138.33547 116.57007 
L 140.086597 200.948318 
L 140.688211 219.163413 
L 141.117935 226.468958 
L 141.407999 228.439574 
L 141.508268 228.550509 
L 141.551241 228.507961 
L 141.672996 228.094178 
L 141.873534 226.473293 
L 142.167179 222.034035 
L 142.571836 212.111711 
L 143.116153 192.67719 
L 143.914724 155.167922 
L 145.741052 67.357146 
L 146.335504 49.722694 
L 146.761648 42.71862 
L 147.044549 40.920124 
L 147.137656 40.838616 
L 147.180629 40.886586 
L 147.305965 41.334868 
L 147.513665 43.082431 
L 147.814472 47.786399 
L 148.226291 58.156641 
L 148.781352 78.378347 
L 149.608571 117.751689 
L 151.320306 200.334892 
L 151.925501 218.867229 
L 152.362388 226.405852 
L 152.656033 228.43405 
L 152.759883 228.549953 
L 152.802855 228.50557 
L 152.92461 228.086598 
L 153.128729 226.417626 
L 153.425955 221.867544 
L 153.830612 211.855309 
L 154.378511 192.17286 
L 155.184244 154.176109 
L 156.978343 67.828682 
L 157.576376 49.930554 
L 158.002519 42.816878 
L 158.289002 40.933363 
L 158.38569 40.83765 
L 158.428662 40.882951 
L 158.550418 41.304517 
L 158.754537 42.977794 
L 159.051763 47.533939 
L 159.460001 57.660865 
L 160.007899 77.393242 
L 160.817213 115.61605 
L 162.596988 201.321553 
L 163.195021 219.311389 
L 163.624745 226.539746 
L 163.911228 228.44696 
L 164.011497 228.549331 
L 164.050889 228.509029 
L 164.172644 228.097602 
L 164.373182 226.480559 
L 164.666827 222.046749 
L 165.071484 212.131345 
L 165.615801 192.704501 
L 166.414372 155.20182 
L 168.244281 67.250661 
L 168.835152 49.737454 
L 169.261296 42.725551 
L 169.544197 40.921614 
L 169.637304 40.8383 
L 169.680277 40.885436 
L 169.805613 41.331292 
L 170.013313 43.074881 
L 170.31412 47.773285 
L 170.725939 58.136539 
L 171.281 78.350564 
L 172.108219 117.717525 
L 173.823535 200.444153 
L 174.42873 218.934799 
L 174.862036 226.398458 
L 175.155681 228.432296 
L 175.259531 228.550213 
L 175.302503 228.506663 
L 175.424258 228.090048 
L 175.628377 226.424985 
L 175.925603 221.880412 
L 176.33026 211.875079 
L 176.878159 192.200317 
L 177.683892 154.210086 
L 179.477991 67.853065 
L 180.076024 49.94548 
L 180.502167 42.823987 
L 180.78865 40.934966 
L 180.885338 40.837377 
L 180.92831 40.881844 
L 181.050066 41.301054 
L 181.254185 42.970422 
L 181.551411 47.521059 
L 181.956068 57.533991 
L 182.503966 77.217216 
L 183.309699 115.214627 
L 185.103798 201.561082 
L 185.701831 219.458254 
L 186.127974 226.571141 
L 186.414457 228.4541 
L 186.511145 228.549624 
L 186.554118 228.504239 
L 186.675873 228.082434 
L 186.879992 226.408763 
L 187.177218 221.852062 
L 187.585456 211.724433 
L 188.133354 191.991283 
L 188.942668 153.767817 
L 190.722443 68.063277 
L 191.320476 50.074394 
L 191.750201 42.846834 
L 192.036683 40.940175 
L 192.136952 40.838001 
L 192.176344 40.878381 
L 192.298099 41.290046 
L 192.498637 42.907477 
L 192.792282 47.341837 
L 193.196939 57.257939 
L 193.741256 76.685558 
L 194.539827 114.188905 
L 196.369737 202.139077 
L 196.960608 219.651337 
L 197.386751 226.662449 
L 197.669653 228.465838 
L 197.76276 228.54897 
L 197.805732 228.501749 
L 197.931068 228.055648 
L 198.138768 226.311658 
L 198.439575 221.612693 
L 198.851395 211.248732 
L 199.406455 191.033933 
L 200.233674 151.666329 
L 201.948991 68.94065 
L 202.554186 50.450962 
L 202.987491 42.988102 
L 203.281136 40.954834 
L 203.384986 40.837121 
L 203.427958 40.880755 
L 203.549714 41.29761 
L 203.753833 42.963067 
L 204.051059 47.508198 
L 204.455716 57.514227 
L 205.003614 77.189768 
L 205.809347 115.180655 
L 207.603446 201.536708 
L 208.201479 219.443338 
L 208.627622 226.564041 
L 208.914105 228.452508 
L 209.010793 228.549908 
L 209.053766 228.505356 
L 209.175521 228.085908 
L 209.37964 226.416146 
L 209.676866 221.864951 
L 210.081523 211.851322 
L 210.629421 192.167322 
L 211.435154 154.169254 
L 213.229253 67.823766 
L 213.827286 49.927549 
L 214.25343 42.815452 
L 214.539912 40.93305 
L 214.6366 40.837716 
L 214.679573 40.883185 
L 214.801328 41.305227 
L 215.005447 42.979294 
L 215.302673 47.536553 
L 215.710911 57.664885 
L 216.25881 77.39881 
L 217.068124 115.622932 
L 218.847899 201.326503 
L 219.445932 219.314433 
L 219.875656 226.541199 
L 220.162139 228.447299 
L 220.262408 228.549277 
L 220.301799 228.50882 
L 220.423554 228.096918 
L 220.624092 226.479099 
L 220.917737 222.044189 
L 221.322394 212.127387 
L 221.866712 192.698992 
L 222.665283 155.194978 
L 224.495192 67.245789 
L 225.086063 49.73448 
L 225.512206 42.724158 
L 225.795108 40.921319 
L 225.888215 40.83837 
L 225.931187 40.885675 
L 226.056524 41.332021 
L 226.264224 43.076411 
L 226.565031 47.775939 
L 226.97685 58.140606 
L 227.53191 78.35618 
L 228.35913 117.72443 
L 230.074446 200.449161 
L 230.679641 218.937895 
L 231.112946 226.399954 
L 231.406591 228.432651 
L 231.510441 228.550162 
L 231.553414 228.506444 
L 231.675169 228.089351 
L 231.879288 226.423499 
L 232.176514 221.877813 
L 232.581171 211.871086 
L 233.129069 192.194771 
L 233.934802 154.203223 
L 235.728901 67.848141 
L 236.326934 49.942466 
L 236.753078 42.822552 
L 237.03956 40.934642 
L 237.136248 40.837433 
L 237.179221 40.882068 
L 237.300976 41.301755 
L 237.505095 42.971911 
L 237.802321 47.523662 
L 238.210559 57.645035 
L 238.758458 77.371294 
L 239.567772 115.588915 
L 241.351128 201.434152 
L 241.949161 219.3805 
L 242.378885 226.572575 
L 242.665368 228.45442 
L 242.762056 228.549565 
L 242.805028 228.504011 
L 242.930364 228.062761 
L 243.134483 226.367179 
L 243.43529 221.709422 
L 243.843528 211.505276 
L 244.395008 191.538624 
L 245.211484 152.840984 
L 246.962611 68.456133 
L 247.564225 50.234446 
L 247.99753 42.88422 
L 248.287594 40.939842 
L 248.387863 40.83806 
L 248.427254 40.878595 
L 248.54901 41.290736 
L 248.749548 42.908943 
L 249.043192 47.344405 
L 249.44785 57.261905 
L 249.992167 76.691077 
L 250.790738 114.195755 
L 252.620647 202.143957 
L 253.211518 219.654319 
L 253.637661 226.663849 
L 253.920563 228.466138 
L 254.01367 228.548904 
L 254.056643 228.501515 
L 254.181979 228.054924 
L 254.389679 226.310131 
L 254.690486 221.610042 
L 255.102305 211.244668 
L 255.657366 191.028317 
L 256.484585 151.659422 
L 258.199901 68.935637 
L 258.805096 50.447861 
L 259.238401 42.986602 
L 259.532046 40.954474 
L 259.635896 40.837166 
L 259.678869 40.880969 
L 259.800624 41.298298 
L 260.004743 42.964546 
L 260.301969 47.510788 
L 260.706626 57.518213 
L 261.254525 77.195305 
L 262.060258 115.187511 
L 263.854357 201.541626 
L 264.45239 219.446346 
L 264.878533 226.56547 
L 265.165016 228.452824 
L 265.261704 228.549844 
L 265.304676 228.505124 
L 265.426431 228.085199 
L 265.63055 226.414648 
L 265.927776 221.86234 
L 266.336014 211.740263 
L 266.883913 192.013231 
L 267.693227 153.794952 
L 269.476583 67.950683 
L 270.074616 50.005289 
L 270.50434 42.81401 
L 270.790823 40.932721 
L 270.887511 40.837765 
L 270.930483 40.883403 
L 271.05582 41.324897 
L 271.259939 43.020874 
L 271.560746 47.679193 
L 271.968984 57.884041 
L 272.520463 77.85147 
L 273.336939 116.549758 
L 275.088066 200.933653 
L 275.68968 219.154386 
L 276.122985 226.503811 
L 276.413049 228.447625 
L 276.513318 228.54921 
L 276.55271 228.508599 
L 276.674465 228.09622 
L 276.875003 226.477625 
L 277.168648 222.041614 
L 277.573305 212.123414 
L 278.117622 192.693467 
L 278.916193 155.188124 
L 280.746103 67.240902 
L 281.336973 49.731491 
L 281.763117 42.722752 
L 282.046019 40.921013 
L 282.139125 40.838429 
L 282.182098 40.885902 
L 282.307434 41.332739 
L 282.515134 43.077933 
L 282.815941 47.778584 
L 283.22776 58.144664 
L 283.782821 78.36179 
L 284.61004 117.731328 
L 286.325356 200.45417 
L 286.930551 218.94099 
L 287.363857 226.401449 
L 287.657502 228.433008 
L 287.761352 228.550111 
L 287.804324 228.506225 
L 287.926079 228.088658 
L 288.130198 226.422015 
L 288.427424 221.875215 
L 288.832081 211.867093 
L 289.37998 192.189224 
L 290.185713 154.196359 
L 291.979812 67.843214 
L 292.577845 49.939449 
L 293.003988 42.821115 
L 293.290471 40.934317 
L 293.387159 40.837486 
L 293.430131 40.88229 
L 293.551887 41.302453 
L 293.756006 42.973398 
L 294.053232 47.526261 
L 294.46147 57.649042 
L 295.009368 77.37685 
L 295.818682 115.595785 
L 297.602038 201.439086 
L 298.200071 219.383526 
L 298.629795 226.574008 
L 298.916278 228.454741 
L 299.012966 228.549508 
L 299.055939 228.503786 
L 299.181275 228.062046 
L 299.385394 226.365674 
L 299.686201 221.706792 
L 300.094439 211.501243 
L 300.645919 191.533038 
L 301.462395 152.834098 
L 303.213521 68.451158 
L 303.815135 50.231382 
L 304.248441 42.882756 
L 304.538504 40.939506 
L 304.638773 40.838117 
L 304.678165 40.878806 
L 304.79992 41.291422 
L 305.000458 42.910405 
L 305.294103 47.346967 
L 305.69876 57.265866 
L 306.243077 76.696589 
L 307.041648 114.202599 
L 308.871558 202.148837 
L 309.462429 219.657299 
L 309.888572 226.665248 
L 310.171474 228.466438 
L 310.264581 228.54884 
L 310.307553 228.501282 
L 310.432889 228.054201 
L 310.640589 226.308605 
L 310.941396 221.607392 
L 311.353216 211.240606 
L 311.908276 191.022703 
L 312.735495 151.652519 
L 314.447231 69.064696 
L 315.052426 50.527677 
L 315.489312 42.985106 
L 315.782957 40.954116 
L 315.886807 40.837216 
L 315.929779 40.881187 
L 316.051535 41.298994 
L 316.255654 42.966032 
L 316.55288 47.513387 
L 316.957537 57.522206 
L 317.505435 77.200851 
L 318.311168 115.194375 
L 320.105267 201.546551 
L 320.7033 219.44936 
L 321.129443 226.566905 
L 321.415926 228.453146 
L 321.512614 228.549788 
L 321.555587 228.504899 
L 321.677342 228.084498 
L 321.881461 226.413157 
L 322.178687 221.859737 
L 322.586925 211.736254 
L 323.134823 192.007672 
L 323.944137 153.788081 
L 325.723912 68.077856 
L 326.321945 50.083349 
L 326.75167 42.851096 
L 327.038152 40.941156 
L 327.138421 40.837823 
L 327.181394 40.883629 
L 327.30673 41.325614 
L 327.510849 43.022381 
L 327.811656 47.681825 
L 328.219894 57.888076 
L 328.771374 77.857056 
L 329.58785 116.556646 
L 331.338976 200.938626 
L 331.94059 219.157448 
L 332.373896 226.505272 
L 332.66396 228.447959 
L 332.764229 228.549151 
L 332.80362 228.508386 
L 332.925375 228.095531 
L 333.125913 226.476159 
L 333.419558 222.039047 
L 333.824215 212.11945 
L 334.368533 192.687952 
L 335.167104 155.181276 
L 336.993432 67.366681 
L 337.587884 49.72851 
L 338.014027 42.721353 
L 338.296929 40.920713 
L 338.390036 40.838494 
L 338.433008 40.886135 
L 338.558345 41.333462 
L 338.766045 43.07946 
L 339.066852 47.781236 
L 339.478671 58.148725 
L 340.033731 78.367404 
L 340.860951 117.738231 
L 342.572686 200.325111 
L 343.177881 218.861175 
L 343.614767 226.40294 
L 343.908412 228.433359 
L 344.012262 228.550055 
L 344.055235 228.506 
L 344.17699 228.087956 
L 344.381109 226.420524 
L 344.678335 221.872612 
L 345.082992 211.863096 
L 345.63089 192.183673 
L 346.436623 154.189489 
L 348.230722 67.838282 
L 348.828755 49.936427 
L 349.254899 42.819672 
L 349.541381 40.933988 
L 349.638069 40.837535 
L 349.681042 40.882508 
L 349.802797 41.303147 
L 350.006916 42.974883 
L 350.304142 47.528859 
L 350.71238 57.653044 
L 351.260279 77.382402 
L 352.069593 115.602651 
L 353.849368 201.311913 
L 354.447401 219.305465 
L 354.877125 226.536923 
L 355.163608 228.446307 
L 355.263877 228.549443 
L 355.306849 228.503553 
L 355.432185 228.061323 
L 355.636304 226.364161 
L 355.937111 221.704155 
L 356.34535 211.497204 
L 356.896829 191.52745 
L 357.713305 152.827209 
L 359.464432 68.446185 
L 360.066046 50.228319 
L 360.49577 42.920471 
L 360.785834 40.948223 
L 360.886103 40.836719 
L 360.929075 40.879022 
L 361.050831 41.292115 
L 361.251369 42.911874 
L 361.545014 47.349537 
L 361.949671 57.269833 
L 362.493988 76.702106 
L 363.292559 114.209447 
L 365.118887 202.023063 
L 365.713339 219.660279 
L 366.139482 226.666646 
L 366.422384 228.466736 
L 366.515491 228.548773 
L 366.558464 228.501047 
L 366.6838 228.053476 
L 366.8915 226.307077 
L 367.192307 221.604739 
L 367.604126 211.236543 
L 368.159187 191.017086 
L 368.986406 151.645612 
L 370.698141 69.059674 
L 371.303336 50.524568 
L 371.740222 42.983608 
L 372.033867 40.953758 
L 372.137717 40.837266 
L 372.18069 40.881405 
L 372.302445 41.299686 
L 372.506564 42.967513 
L 372.80379 47.515981 
L 373.208447 57.526195 
L 373.756346 77.206392 
L 374.562079 115.201232 
L 376.356178 201.551468 
L 376.954211 219.452366 
L 377.380354 226.568332 
L 377.666837 228.45346 
L 377.763525 228.549722 
L 377.806497 228.504665 
L 377.928252 228.083788 
L 378.132371 226.411657 
L 378.429597 221.857124 
L 378.837835 211.732235 
L 379.385734 192.002104 
L 380.195048 153.781198 
L 381.974823 68.0729 
L 382.572856 50.0803 
L 383.00258 42.849637 
L 383.289063 40.940811 
L 383.389332 40.837871 
L 383.432304 40.883846 
L 383.557641 41.326321 
L 383.76176 43.023878 
L 384.062567 47.684447 
L 384.470805 57.892098 
L 385.022284 77.862629 
L 385.83876 116.56352 
L 387.589887 200.943587 
L 388.191501 219.160497 
L 388.621225 226.467552 
L 388.911289 228.439237 
L 389.011558 228.550545 
L 389.054531 228.508158 
L 389.176286 228.094827 
L 389.376824 226.474679 
L 389.670469 222.036466 
L 390.075126 212.11547 
L 390.619443 192.68242 
L 391.418014 155.174415 
L 393.244342 67.361777 
L 393.838794 49.725512 
L 394.264938 42.719937 
L 394.54784 40.920396 
L 394.640946 40.838542 
L 394.683919 40.886352 
L 394.809255 41.334168 
L 395.016955 43.080969 
L 395.317762 47.783869 
L 395.729581 58.152771 
L 396.284642 78.373002 
L 397.111861 117.74512 
L 398.823596 200.330113 
L 399.428791 218.864264 
L 399.865678 226.404418 
L 400.159323 228.433698 
L 400.263173 228.549988 
L 400.306145 228.505764 
L 400.4279 228.087245 
L 400.632019 226.419022 
L 400.929245 221.869997 
L 401.333902 211.859086 
L 401.881801 192.178111 
L 402.687534 154.182611 
L 404.481633 67.833344 
L 405.079666 49.933401 
L 405.505809 42.818226 
L 405.792292 40.933654 
L 405.88898 40.83758 
L 405.931952 40.882721 
L 406.053708 41.303836 
L 406.257827 42.976363 
L 406.555053 47.531453 
L 406.963291 57.657044 
L 407.511189 77.387951 
L 408.320503 115.609513 
L 410.100278 201.316847 
L 410.698311 219.308495 
L 411.128035 226.538362 
L 411.414518 228.446632 
L 411.514787 228.549376 
L 411.55776 228.503317 
L 411.683096 228.060597 
L 411.887215 226.362646 
L 412.188022 221.701514 
L 412.59626 211.49316 
L 413.14774 191.521853 
L 413.964216 152.820311 
L 415.715342 68.4412 
L 416.316956 50.225245 
L 416.746681 42.918985 
L 417.036744 40.947864 
L 417.137013 40.836752 
L 417.179986 40.879224 
L 417.301741 41.292792 
L 417.502279 42.913328 
L 417.795924 47.352091 
L 418.200581 57.273786 
L 418.744898 76.707611 
L 419.543469 114.216282 
L 421.369798 202.027935 
L 421.96425 219.663245 
L 422.390393 226.66803 
L 422.673295 228.467021 
L 422.766402 228.548693 
L 422.809374 228.500798 
L 422.93471 228.052737 
L 423.14241 226.305535 
L 423.443217 221.602073 
L 423.855037 211.232465 
L 424.410097 191.011456 
L 425.237316 151.638695 
L 426.949052 69.054643 
L 427.554247 50.521448 
L 427.991133 42.982102 
L 428.284778 40.953392 
L 428.388628 40.837306 
L 428.4316 40.881613 
L 428.553356 41.300372 
L 428.757475 42.968988 
L 429.054701 47.518571 
L 429.459358 57.530179 
L 430.007256 77.21193 
L 430.812989 115.208089 
L 432.095 180.257283 
L 432.095 180.257283 
" clip-path="url(#pd84cb83e0a)" style="fill: none; stroke: #1f77b4; stroke-width: 1.5; stroke-linecap: square"/>
   </g>
   <g id="line2d_16">
    <path d="M 73.995 228.552726 
L 74.145404 228.657789 
L 74.345942 229.139567 
L 74.632424 230.49262 
L 75.026338 233.566755 
L 75.556332 239.664761 
L 76.319092 251.349469 
L 78.328053 283.286083 
L 78.897438 288.587148 
L 79.305676 290.633373 
L 79.577835 291.115205 
L 79.7354 291.064545 
L 79.921614 290.693267 
L 80.190192 289.572374 
L 80.559039 286.952484 
L 81.053222 281.67221 
L 81.744361 271.629205 
L 84.183047 233.93252 
L 84.687973 230.074521 
L 85.046077 228.752849 
L 85.271682 228.555229 
L 85.425666 228.705283 
L 85.640528 229.298673 
L 85.944916 230.887909 
L 86.360317 234.390555 
L 86.918958 241.205656 
L 87.75334 254.484863 
L 89.440007 281.619035 
L 90.048784 287.862495 
L 90.48567 290.393206 
L 90.782896 291.085119 
L 90.958367 291.090567 
L 91.130256 290.805109 
L 91.380929 289.878991 
L 91.728289 287.629944 
L 92.197405 282.959463 
L 92.841991 274.052109 
L 94.063125 253.304048 
L 95.069396 238.005056 
L 95.678172 231.782196 
L 96.115058 229.268783 
L 96.412284 228.589249 
L 96.584174 228.588138 
L 96.756064 228.874814 
L 97.006736 229.802674 
L 97.354097 232.054014 
L 97.823212 236.727226 
L 98.467799 245.637345 
L 99.692513 266.447689 
L 100.695203 281.68217 
L 101.303979 287.901541 
L 101.740865 290.412026 
L 102.038091 291.089464 
L 102.209981 291.089352 
L 102.381871 290.801458 
L 102.632543 289.871855 
L 102.979904 287.618223 
L 103.44902 282.942278 
L 104.093606 274.029393 
L 105.31832 253.217951 
L 106.32101 237.986805 
L 106.929786 231.770925 
L 107.366673 229.26337 
L 107.663899 228.588026 
L 107.835788 228.589361 
L 108.011259 228.887542 
L 108.265513 229.845178 
L 108.616454 232.152668 
L 109.089151 236.914007 
L 109.740899 245.99575 
L 111.044396 268.17352 
L 111.98979 282.23122 
L 112.584242 288.130154 
L 113.010385 290.482082 
L 113.300449 291.09896 
L 113.468758 291.081754 
L 113.644228 290.770133 
L 113.902063 289.775277 
L 114.256586 287.401947 
L 114.732863 282.54127 
L 115.391774 273.276689 
L 116.877904 248.058539 
L 117.723028 236.16861 
L 118.288832 230.982809 
L 118.693489 229.007581 
L 118.962067 228.559383 
L 119.116051 228.619253 
L 119.302265 228.999746 
L 119.570843 230.133619 
L 119.94327 232.801689 
L 120.441034 238.159958 
L 121.139336 248.364086 
L 123.531468 285.476917 
L 124.043556 289.494285 
L 124.408822 290.899206 
L 124.638008 291.124527 
L 124.788412 290.99409 
L 124.996112 290.453243 
L 125.293338 288.966526 
L 125.697995 285.666704 
L 126.242312 279.196979 
L 127.040883 266.701135 
L 128.874374 237.333076 
L 129.465245 231.505047 
L 129.891388 229.175837 
L 130.177871 228.577589 
L 130.342598 228.595068 
L 130.518069 228.904318 
L 130.772323 229.877681 
L 131.126845 232.235138 
L 131.603123 237.077117 
L 132.258453 246.266575 
L 133.658638 270.074173 
L 134.546735 282.911021 
L 135.126862 288.437889 
L 135.542262 290.588597 
L 135.821583 291.111815 
L 135.98273 291.068236 
L 136.165363 290.713363 
L 136.430359 289.629525 
L 136.795625 287.075344 
L 137.286227 281.893535 
L 137.970205 272.031593 
L 140.466187 233.619713 
L 140.963951 229.941802 
L 141.314892 228.718823 
L 141.529754 228.557119 
L 141.683739 228.718113 
L 141.902182 229.340489 
L 142.210151 230.98462 
L 142.629132 234.575195 
L 143.194936 241.561222 
L 144.047223 255.228443 
L 145.669432 281.349646 
L 146.28537 287.751367 
L 146.725837 290.352799 
L 147.030225 291.082006 
L 147.205696 291.093354 
L 147.377586 290.81365 
L 147.628258 289.895769 
L 147.975619 287.65756 
L 148.441153 283.042024 
L 149.082159 274.217008 
L 150.274644 253.9764 
L 151.305982 238.18333 
L 151.918339 231.864717 
L 152.358807 229.295143 
L 152.659614 228.592218 
L 152.831503 228.585326 
L 153.003393 228.866248 
L 153.254066 229.785873 
L 153.601426 232.026377 
L 154.066961 236.644631 
L 154.707966 245.472416 
L 155.904032 265.775671 
L 156.931789 281.50397 
L 157.544146 287.81909 
L 157.984614 290.385717 
L 158.285421 291.086522 
L 158.457311 291.092189 
L 158.6292 290.810049 
L 158.879873 289.888681 
L 159.227233 287.645882 
L 159.692768 283.024911 
L 160.333773 274.194358 
L 161.529839 253.889913 
L 162.557597 238.164937 
L 163.169954 231.853311 
L 163.610421 229.289634 
L 163.911228 228.590949 
L 164.083118 228.586504 
L 164.255008 228.869862 
L 164.50568 229.792973 
L 164.853041 232.038065 
L 165.322156 236.703829 
L 165.966743 245.606403 
L 167.184295 266.291329 
L 168.194147 281.657287 
L 168.802923 287.886167 
L 169.239809 290.404632 
L 169.537035 291.087782 
L 169.708925 291.091003 
L 169.880815 290.806428 
L 170.131487 289.881575 
L 170.478848 287.634189 
L 170.947964 282.965691 
L 171.59255 274.060345 
L 172.813683 253.313089 
L 173.819954 238.011679 
L 174.42873 231.786289 
L 174.865617 229.270751 
L 175.162843 228.589697 
L 175.334732 228.587699 
L 175.506622 228.873493 
L 175.757295 229.80009 
L 176.104655 232.049769 
L 176.573771 236.721 
L 177.218357 245.629115 
L 178.43949 266.377482 
L 179.445762 281.675556 
L 180.054538 287.897457 
L 180.491424 290.410065 
L 180.78865 291.089022 
L 180.96054 291.089796 
L 181.132429 290.802785 
L 181.383102 289.874445 
L 181.730462 287.622475 
L 182.199578 282.94851 
L 182.844164 274.03763 
L 184.068879 253.226983 
L 185.071569 237.993419 
L 185.680345 231.77501 
L 186.117231 229.265332 
L 186.414457 228.588469 
L 186.586347 228.588918 
L 186.758237 228.877147 
L 187.008909 229.807229 
L 187.35627 232.061493 
L 187.825385 236.738189 
L 188.469972 245.651835 
L 189.698267 266.524722 
L 190.700957 281.738542 
L 191.306152 287.908729 
L 191.743038 290.415478 
L 192.040264 291.090244 
L 192.212154 291.088572 
L 192.387625 290.790049 
L 192.641878 289.831928 
L 192.99282 287.523803 
L 193.465517 282.76171 
L 194.117265 273.679208 
L 195.424343 251.440911 
L 196.369737 237.400784 
L 196.964189 231.519797 
L 197.390332 229.182758 
L 197.680396 228.576494 
L 197.845124 228.596533 
L 198.020594 228.908497 
L 198.278429 229.903844 
L 198.632951 232.277813 
L 199.109229 237.139243 
L 199.76814 246.404578 
L 201.257851 271.680752 
L 202.102975 283.552649 
L 202.665198 288.696648 
L 203.069855 290.671116 
L 203.338432 291.118791 
L 203.492417 291.058619 
L 203.678631 290.677764 
L 203.947209 289.54338 
L 204.319636 286.874647 
L 204.8174 281.515613 
L 205.515702 271.310751 
L 207.907834 234.199174 
L 208.419922 230.182698 
L 208.785188 228.778473 
L 209.014374 228.553602 
L 209.164778 228.684333 
L 209.372478 229.225582 
L 209.669704 230.712856 
L 210.074361 234.013379 
L 210.618678 240.483879 
L 211.417249 252.98039 
L 213.247159 282.303958 
L 213.84161 288.174542 
L 214.267754 290.502961 
L 214.554237 291.10065 
L 214.718964 291.082848 
L 214.894435 290.773255 
L 215.148689 289.799406 
L 215.503211 287.441308 
L 215.979489 282.598574 
L 216.634818 273.408362 
L 218.035003 249.600611 
L 218.9231 236.764707 
L 219.503228 231.238788 
L 219.918628 229.088857 
L 220.197949 228.566182 
L 220.359096 228.610075 
L 220.541728 228.965303 
L 220.806725 230.049645 
L 221.171991 232.604482 
L 221.662593 237.787051 
L 222.346571 247.649737 
L 224.842552 286.0603 
L 225.340316 289.737331 
L 225.691258 290.959637 
L 225.90612 291.120921 
L 226.060105 290.959625 
L 226.278548 290.336828 
L 226.586517 288.692123 
L 227.005498 285.100836 
L 227.571302 278.114031 
L 228.423588 264.446187 
L 230.045798 238.325907 
L 230.661736 231.92515 
L 231.102203 229.324526 
L 231.406591 228.595909 
L 231.582062 228.584905 
L 231.753952 228.864943 
L 232.004624 229.783304 
L 232.351985 232.022145 
L 232.817519 236.638428 
L 233.458525 245.464206 
L 234.65101 265.705146 
L 235.682348 281.497301 
L 236.294705 287.814952 
L 236.735172 290.383715 
L 237.035979 291.086056 
L 237.207869 291.09261 
L 237.379759 290.811353 
L 237.630431 289.891249 
L 237.977792 287.650114 
L 238.443326 283.031111 
L 239.084332 274.202565 
L 240.280398 253.898983 
L 241.308155 238.171602 
L 241.920512 231.857444 
L 242.36098 229.291629 
L 242.661787 228.591408 
L 242.833676 228.586077 
L 243.005566 228.868552 
L 243.256239 229.7904 
L 243.603599 232.033829 
L 244.069134 236.655549 
L 244.710139 245.486865 
L 245.906205 265.791637 
L 246.933962 281.515699 
L 247.54632 287.826365 
L 247.986787 290.38923 
L 248.287594 291.087332 
L 248.459484 291.091439 
L 248.631373 290.807746 
L 248.882046 289.884156 
L 249.229406 287.638432 
L 249.698522 282.971916 
L 250.343108 274.068578 
L 251.560661 253.383343 
L 252.570513 238.018304 
L 253.179289 231.790385 
L 253.616175 229.272726 
L 253.913401 228.590155 
L 254.085291 228.58727 
L 254.257181 228.872181 
L 254.507853 229.797516 
L 254.855214 232.045531 
L 255.324329 236.714783 
L 255.968916 245.62089 
L 257.190049 266.36845 
L 258.19632 281.668942 
L 258.805096 287.893373 
L 259.241982 290.408102 
L 259.539208 291.08858 
L 259.711098 291.090241 
L 259.882988 290.804112 
L 260.13366 289.877035 
L 260.481021 287.626726 
L 260.950137 282.954741 
L 261.594723 274.045864 
L 262.819437 253.236016 
L 263.822127 238.000039 
L 264.430903 231.779099 
L 264.86779 229.267297 
L 265.165016 228.588917 
L 265.336905 228.588479 
L 265.508795 228.875826 
L 265.759468 229.804645 
L 266.106828 232.057248 
L 266.575944 236.731964 
L 267.22053 245.643606 
L 268.445245 266.454557 
L 269.447935 281.687205 
L 270.056711 287.904653 
L 270.493597 290.413526 
L 270.790823 291.08981 
L 270.962713 291.089024 
L 271.134602 290.80046 
L 271.385275 289.869897 
L 271.732635 287.615002 
L 272.201751 282.937552 
L 272.846338 274.023146 
L 274.074633 253.149961 
L 275.077323 237.937064 
L 275.682518 231.767834 
L 276.119404 229.261891 
L 276.41663 228.587702 
L 276.58852 228.589711 
L 276.763991 228.888576 
L 277.018244 229.847183 
L 277.369186 232.155945 
L 277.841882 236.918791 
L 278.493631 246.002052 
L 279.800709 268.240583 
L 280.746103 282.279771 
L 281.340554 288.159803 
L 281.766698 290.496054 
L 282.056762 291.101754 
L 282.221489 291.081393 
L 282.400541 290.759609 
L 282.658376 289.754992 
L 283.016479 287.339182 
L 283.496338 282.40685 
L 284.162411 272.987133 
L 286.805215 232.821491 
L 287.277912 229.640829 
L 287.607367 228.654019 
L 287.804324 228.56626 
L 287.965471 228.775726 
L 288.198238 229.521292 
L 288.524112 231.420184 
L 288.96458 235.462194 
L 289.562613 243.238393 
L 290.52233 259.109772 
L 291.865219 280.625673 
L 292.499062 287.442475 
L 292.953854 290.257435 
L 293.265404 291.065131 
L 293.448037 291.100565 
L 293.616345 290.845439 
L 293.859856 289.992881 
L 294.200054 287.874816 
L 294.658427 283.444906 
L 295.285108 274.97304 
L 296.377324 256.557054 
L 297.512512 238.763931 
L 298.139193 232.112801 
L 298.586823 229.388725 
L 298.894792 228.608404 
L 299.073844 228.578067 
L 299.242152 228.834387 
L 299.485663 229.688642 
L 299.825861 231.808964 
L 300.284234 236.241582 
L 300.910915 244.716239 
L 302.003131 263.133742 
L 303.138319 280.923607 
L 303.765001 287.571221 
L 304.21263 290.292318 
L 304.520599 291.070472 
L 304.699651 291.099535 
L 304.86796 290.842022 
L 305.11147 289.986071 
L 305.451669 287.86349 
L 305.910041 283.428163 
L 306.536722 274.950717 
L 307.628938 256.531699 
L 308.760546 238.791347 
L 309.387227 232.129996 
L 309.834856 229.397259 
L 310.142825 228.610638 
L 310.325458 228.579105 
L 310.493767 228.83781 
L 310.737277 229.69546 
L 311.077476 231.8203 
L 311.535848 236.258333 
L 312.16253 244.738564 
L 313.258327 263.221309 
L 314.386353 280.8962 
L 315.013034 287.554037 
L 315.460664 290.283796 
L 315.768633 291.068252 
L 315.951266 291.098486 
L 316.119574 290.838587 
L 316.363085 289.979241 
L 316.703283 287.852143 
L 317.161656 283.411407 
L 317.788337 274.928387 
L 318.884134 256.444133 
L 320.01216 238.772488 
L 320.638841 232.118165 
L 321.086471 229.391384 
L 321.39444 228.609095 
L 321.577073 228.58016 
L 321.745382 228.841252 
L 321.988892 229.702294 
L 322.32909 231.83165 
L 322.787463 236.275092 
L 323.414144 244.760896 
L 324.509941 263.246652 
L 325.637967 280.915047 
L 326.264649 287.565855 
L 326.712278 290.289657 
L 327.020247 291.06978 
L 327.199299 291.1 
L 327.367608 290.843571 
L 327.611118 289.98916 
L 327.951317 287.868631 
L 328.409689 283.435764 
L 329.03637 274.960853 
L 330.128586 256.54321 
L 331.263775 238.753645 
L 331.890456 232.106354 
L 332.338085 229.38553 
L 332.646055 228.607576 
L 332.825106 228.57863 
L 332.993415 228.836252 
L 333.236925 229.692359 
L 333.577124 231.815148 
L 334.035496 236.250721 
L 334.662178 244.728423 
L 335.754394 263.147583 
L 336.886001 280.887635 
L 337.512682 287.548663 
L 337.960312 290.281126 
L 338.268281 291.067549 
L 338.450914 291.098964 
L 338.619222 290.840148 
L 338.862733 289.982345 
L 339.202931 287.857297 
L 339.661304 283.419017 
L 340.287985 274.938529 
L 341.383782 256.455646 
L 342.511808 238.781051 
L 343.138489 232.123535 
L 343.586119 229.39405 
L 343.894088 228.609793 
L 344.076721 228.579678 
L 344.24503 228.839687 
L 344.48854 229.699187 
L 344.828738 231.826493 
L 345.287111 236.267478 
L 345.913792 244.750753 
L 347.009589 263.235142 
L 348.137615 280.906489 
L 348.764297 287.560489 
L 349.211926 290.286997 
L 349.519895 291.069087 
L 349.702528 291.097902 
L 349.870837 290.836701 
L 350.114347 289.975503 
L 350.454546 287.84594 
L 350.912918 283.402249 
L 351.539599 274.916191 
L 352.635396 256.430297 
L 353.763423 238.762197 
L 354.390104 232.111712 
L 354.837733 229.388182 
L 355.145703 228.608259 
L 355.324754 228.578155 
L 355.493063 228.834693 
L 355.736573 229.689259 
L 356.076772 231.809996 
L 356.535144 236.243112 
L 357.161826 244.718281 
L 358.254042 263.136062 
L 359.385649 280.879061 
L 360.01233 287.54328 
L 360.463541 290.292848 
L 360.77151 291.070604 
L 360.950562 291.099433 
L 361.11887 290.841702 
L 361.362381 289.985438 
L 361.702579 287.862443 
L 362.160952 283.426619 
L 362.787633 274.948662 
L 363.879849 256.529363 
L 365.011456 238.78961 
L 365.638137 232.128903 
L 366.085767 229.396713 
L 366.393736 228.610489 
L 366.576369 228.579194 
L 366.744677 228.838119 
L 366.988188 229.696079 
L 367.328386 231.821334 
L 367.786759 236.259861 
L 368.41344 244.740606 
L 369.509237 263.223628 
L 370.637263 280.897925 
L 371.263945 287.555117 
L 371.711574 290.28433 
L 372.019543 291.068387 
L 372.202176 291.098383 
L 372.370485 290.838265 
L 372.613995 289.978608 
L 372.954194 287.851094 
L 373.412566 283.40986 
L 374.039247 274.92633 
L 375.135044 256.441801 
L 376.263071 238.770752 
L 376.889752 232.117073 
L 377.337381 229.390838 
L 377.645351 228.608946 
L 377.827983 228.58025 
L 377.996292 228.841562 
L 378.239802 229.702914 
L 378.580001 231.832685 
L 379.038373 236.276623 
L 379.665055 244.762938 
L 380.760852 263.248971 
L 381.888878 280.91677 
L 382.515559 287.566932 
L 382.963189 290.290187 
L 383.271158 291.069911 
L 383.45021 291.099897 
L 383.618518 290.843248 
L 383.862029 289.988526 
L 384.202227 287.867582 
L 384.6606 283.434218 
L 385.287281 274.958794 
L 386.379497 256.540872 
L 387.511104 238.798171 
L 388.137785 232.134275 
L 388.588996 229.384982 
L 388.896965 228.607425 
L 389.076017 228.578712 
L 389.244325 228.836553 
L 389.487836 229.692971 
L 389.828034 231.816175 
L 390.286407 236.252246 
L 390.913088 244.730458 
L 392.005304 263.149894 
L 393.136911 280.889352 
L 393.763593 287.549737 
L 394.211222 290.281654 
L 394.519191 291.067679 
L 394.701824 291.098855 
L 394.870133 290.83982 
L 395.113643 289.981704 
L 395.453842 287.856243 
L 395.912214 283.417466 
L 396.538895 274.936466 
L 397.634692 256.453304 
L 398.762719 238.779307 
L 399.3894 232.122437 
L 399.837029 229.393497 
L 400.144998 228.609639 
L 400.327631 228.579762 
L 400.49594 228.83999 
L 400.73945 229.699803 
L 401.079649 231.827523 
L 401.538021 236.269005 
L 402.164703 244.752789 
L 403.2605 263.237455 
L 404.388526 280.908206 
L 405.015207 287.561561 
L 405.462837 290.287523 
L 405.770806 291.069216 
L 405.953439 291.097793 
L 406.121747 290.836372 
L 406.365258 289.974862 
L 406.705456 287.844885 
L 407.163829 283.400698 
L 407.79051 274.914128 
L 408.886307 256.427957 
L 410.014333 238.760457 
L 410.641014 232.110618 
L 411.088644 229.387635 
L 411.396613 228.608109 
L 411.575665 228.578239 
L 411.743973 228.834997 
L 411.987484 229.689874 
L 412.327682 231.811027 
L 412.786055 236.244639 
L 413.412736 244.720319 
L 414.504952 263.138381 
L 415.636559 280.880785 
L 416.263241 287.54436 
L 416.714451 290.293376 
L 417.02242 291.070734 
L 417.201472 291.09933 
L 417.369781 290.841379 
L 417.613291 289.984805 
L 417.95349 287.861395 
L 418.411862 283.425075 
L 419.038543 274.946606 
L 420.130759 256.52703 
L 421.262367 238.787868 
L 421.889048 232.127807 
L 422.336677 229.396163 
L 422.644646 228.610336 
L 422.827279 228.57928 
L 422.995588 228.838424 
L 423.239098 229.696695 
L 423.579297 231.822365 
L 424.037669 236.26139 
L 424.664351 244.742646 
L 425.760148 263.225945 
L 426.888174 280.899648 
L 427.514855 287.556196 
L 427.962485 290.284863 
L 428.270454 291.068523 
L 428.453087 291.098281 
L 428.621395 290.837943 
L 428.864906 289.977976 
L 429.205104 287.850049 
L 429.663477 283.408319 
L 430.290158 274.924278 
L 431.385955 256.439471 
L 432.095 244.705882 
L 432.095 244.705882 
" clip-path="url(#pd84cb83e0a)" style="fill: none; stroke: #ff7f0e; stroke-width: 1.5; stroke-linecap: square"/>
   </g>
   <g id="patch_3">
    <path d="M 56.09 303.64 
L 56.09 28.32 
" style="fill: none; stroke: #000000; stroke-width: 0.8; stroke-linejoin: miter; stroke-linecap: square"/>
   </g>
   <g id="patch_4">
    <path d="M 450 303.64 
L 450 28.32 
" style="fill: none; stroke: #000000; stroke-width: 0.8; stroke-linejoin: miter; stroke-linecap: square"/>
   </g>
   <g id="patch_5">
    <path d="M 56.09 303.64 
L 450 303.64 
" style="fill: none; stroke: #000000; stroke-width: 0.8; stroke-linejoin: miter; stroke-linecap: square"/>
   </g>
   <g id="patch_6">
    <path d="M 56.09 28.32 
L 450 28.32 
" style="fill: none; stroke: #000000; stroke-width: 0.8; stroke-linejoin: miter; stroke-linecap: square"/>
   </g>
   <g id="text_18">
    <!-- $(E(t)-E_0)/E_0$, $\omega$=1,  $\Delta t$=0.001, steps=100000 -->
    <g transform="translate(114.925 22.32) scale(0.12 -0.12)">
     <defs>
      <path id="DejaVuSans-28" d="M 1984 4856 
Q 1566 4138 1362 3434 
Q 1159 2731 1159 2009 
Q 1159 1288 1364 580 
Q 1569 -128 1984 -844 
L 1484 -844 
Q 1016 -109 783 600 
Q 550 1309 550 2009 
Q 550 2706 781 3412 
Q 1013 4119 1484 4856 
L 1984 4856 
z
" transform="scale(0.015625)"/>
      <path id="DejaVuSans-Oblique-45" d="M 1081 4666 
L 4031 4666 
L 3928 4134 
L 1606 4134 
L 1338 2753 
L 3566 2753 
L 3463 2222 
L 1234 2222 
L 909 531 
L 3284 531 
L 3181 0 
L 172 0 
L 1081 4666 
z
" transform="scale(0.015625)"/>
      <path id="DejaVuSans-Oblique-74" d="M 2706 3500 
L 2619 3053 
L 1472 3053 
L 1100 1153 
Q 1081 1047 1072 975 
Q 1063 903 1063 863 
Q 1063 663 1183 572 
Q 1303 481 1569 481 
L 2150 481 
L 2053 0 
L 1503 0 
Q 991 0 739 200 
Q 488 400 488 806 
Q 488 878 497 964 
Q 506 1050 525 1153 
L 897 3053 
L 409 3053 
L 500 3500 
L 978 3500 
L 1172 4494 
L 1747 4494 
L 1556 3500 
L 2706 3500 
z
" transform="scale(0.015625)"/>
      <path id="DejaVuSans-29" d="M 513 4856 
L 1013 4856 
Q 1481 4119 1714 3412 
Q 1947 2706 1947 2009 
Q 1947 1309 1714 600 
Q 1481 -109 1013 -844 
L 513 -844 
Q 928 -128 1133 580 
Q 1338 1288 1338 2009 
Q 1338 2731 1133 3434 
Q 928 4138 513 4856 
z
" transform="scale(0.015625)"/>
      <path id="DejaVuSans-2f" d="M 1625 4666 
L 2156 4666 
L 531 -594 
L 0 -594 
L 1625 4666 
z
" transform="scale(0.015625)"/>
      <path id="DejaVuSans-2c" d="M 750 794 
L 1409 794 
L 1409 256 
L 897 -744 
L 494 -744 
L 750 256 
L 750 794 
z
" transform="scale(0.015625)"/>
      <path id="DejaVuSans-Oblique-3c9" d="M 1369 -91 
Q 72 -91 434 1766 
Q 575 2500 1256 3500 
L 1875 3500 
Q 1231 2500 1088 1750 
Q 819 397 1519 397 
Q 2166 397 2478 2078 
L 3009 2078 
Q 2669 388 3316 397 
Q 4013 403 4275 1750 
Q 4419 2500 4169 3500 
L 4788 3500 
Q 5075 2500 4934 1766 
Q 4578 -94 3278 -91 
Q 2428 -88 2503 844 
Q 2194 -91 1369 -91 
z
" transform="scale(0.015625)"/>
      <path id="DejaVuSans-3d" d="M 678 2906 
L 4684 2906 
L 4684 2381 
L 678 2381 
L 678 2906 
z
M 678 1631 
L 4684 1631 
L 4684 1100 
L 678 1100 
L 678 1631 
z
" transform="scale(0.015625)"/>
      <path id="DejaVuSans-394" d="M 2188 4044 
L 906 525 
L 3472 525 
L 2188 4044 
z
M 50 0 
L 1831 4666 
L 2547 4666 
L 4325 0 
L 50 0 
z
" transform="scale(0.015625)"/>
      <path id="DejaVuSans-73" d="M 2834 3397 
L 2834 2853 
Q 2591 2978 2328 3040 
Q 2066 3103 1784 3103 
Q 1356 3103 1142 2972 
Q 928 2841 928 2578 
Q 928 2378 1081 2264 
Q 1234 2150 1697 2047 
L 1894 2003 
Q 2506 1872 2764 1633 
Q 3022 1394 3022 966 
Q 3022 478 2636 193 
Q 2250 -91 1575 -91 
Q 1294 -91 989 -36 
Q 684 19 347 128 
L 347 722 
Q 666 556 975 473 
Q 1284 391 1588 391 
Q 1994 391 2212 530 
Q 2431 669 2431 922 
Q 2431 1156 2273 1281 
Q 2116 1406 1581 1522 
L 1381 1569 
Q 847 1681 609 1914 
Q 372 2147 372 2553 
Q 372 3047 722 3315 
Q 1072 3584 1716 3584 
Q 2034 3584 2315 3537 
Q 2597 3491 2834 3397 
z
" transform="scale(0.015625)"/>
      <path id="DejaVuSans-70" d="M 1159 525 
L 1159 -1331 
L 581 -1331 
L 581 3500 
L 1159 3500 
L 1159 2969 
Q 1341 3281 1617 3432 
Q 1894 3584 2278 3584 
Q 2916 3584 3314 3078 
Q 3713 2572 3713 1747 
Q 3713 922 3314 415 
Q 2916 -91 2278 -91 
Q 1894 -91 1617 61 
Q 1341 213 1159 525 
z
M 3116 1747 
Q 3116 2381 2855 2742 
Q 2594 3103 2138 3103 
Q 1681 3103 1420 2742 
Q 1159 2381 1159 1747 
Q 1159 1113 1420 752 
Q 1681 391 2138 391 
Q 2594 391 2855 752 
Q 3116 1113 3116 1747 
z
" transform="scale(0.015625)"/>
     </defs>
     <use xlink:href="#DejaVuSans-28" transform="translate(0 0.125)"/>
     <use xlink:href="#DejaVuSans-Oblique-45" transform="translate(39.013672 0.125)"/>
     <use xlink:href="#DejaVuSans-28" transform="translate(102.197266 0.125)"/>
     <use xlink:href="#DejaVuSans-Oblique-74" transform="translate(141.210938 0.125)"/>
     <use xlink:href="#DejaVuSans-29" transform="translate(180.419922 0.125)"/>
     <use xlink:href="#DejaVuSans-2212" transform="translate(238.916016 0.125)"/>
     <use xlink:href="#DejaVuSans-Oblique-45" transform="translate(342.1875 0.125)"/>
     <use xlink:href="#DejaVuSans-30" transform="translate(405.371094 -16.28125) scale(0.7)"/>
     <use xlink:href="#DejaVuSans-29" transform="translate(452.641602 0.125)"/>
     <use xlink:href="#DejaVuSans-2f" transform="translate(491.655273 0.125)"/>
     <use xlink:href="#DejaVuSans-Oblique-45" transform="translate(525.34668 0.125)"/>
     <use xlink:href="#DejaVuSans-30" transform="translate(588.530273 -16.28125) scale(0.7)"/>
     <use xlink:href="#DejaVuSans-2c" transform="translate(635.800781 0.125)"/>
     <use xlink:href="#DejaVuSans-20" transform="translate(667.587891 0.125)"/>
     <use xlink:href="#DejaVuSans-Oblique-3c9" transform="translate(699.375 0.125)"/>
     <use xlink:href="#DejaVuSans-3d" transform="translate(783.115234 0.125)"/>
     <use xlink:href="#DejaVuSans-31" transform="translate(866.904297 0.125)"/>
     <use xlink:href="#DejaVuSans-2c" transform="translate(930.527344 0.125)"/>
     <use xlink:href="#DejaVuSans-20" transform="translate(962.314453 0.125)"/>
     <use xlink:href="#DejaVuSans-20" transform="translate(994.101562 0.125)"/>
     <use xlink:href="#DejaVuSans-394" transform="translate(1025.888672 0.125)"/>
     <use xlink:href="#DejaVuSans-Oblique-74" transform="translate(1094.296875 0.125)"/>
     <use xlink:href="#DejaVuSans-3d" transform="translate(1133.505859 0.125)"/>
     <use xlink:href="#DejaVuSans-30" transform="translate(1217.294922 0.125)"/>
     <use xlink:href="#DejaVuSans-2e" transform="translate(1280.917969 0.125)"/>
     <use xlink:href="#DejaVuSans-30" transform="translate(1312.705078 0.125)"/>
     <use xlink:href="#DejaVuSans-30" transform="translate(1376.328125 0.125)"/>
     <use xlink:href="#DejaVuSans-31" transform="translate(1439.951172 0.125)"/>
     <use xlink:href="#DejaVuSans-2c" transform="translate(1503.574219 0.125)"/>
     <use xlink:href="#DejaVuSans-20" transform="translate(1535.361328 0.125)"/>
     <use xlink:href="#DejaVuSans-73" transform="translate(1567.148438 0.125)"/>
     <use xlink:href="#DejaVuSans-74" transform="translate(1619.248047 0.125)"/>
     <use xlink:href="#DejaVuSans-65" transform="translate(1658.457031 0.125)"/>
     <use xlink:href="#DejaVuSans-70" transform="translate(1719.980469 0.125)"/>
     <use xlink:href="#DejaVuSans-73" transform="translate(1783.457031 0.125)"/>
     <use xlink:href="#DejaVuSans-3d" transform="translate(1835.556641 0.125)"/>
     <use xlink:href="#DejaVuSans-31" transform="translate(1919.345703 0.125)"/>
     <use xlink:href="#DejaVuSans-30" transform="translate(1982.96875 0.125)"/>
     <use xlink:href="#DejaVuSans-30" transform="translate(2046.591797 0.125)"/>
     <use xlink:href="#DejaVuSans-30" transform="translate(2110.214844 0.125)"/>
     <use xlink:href="#DejaVuSans-30" transform="translate(2173.837891 0.125)"/>
     <use xlink:href="#DejaVuSans-30" transform="translate(2237.460938 0.125)"/>
    </g>
   </g>
   <g id="legend_1">
    <g id="patch_7">
     <path d="M 339.345312 182.158125 
L 443 182.158125 
Q 445 182.158125 445 180.158125 
L 445 151.801875 
Q 445 149.801875 443 149.801875 
L 339.345312 149.801875 
Q 337.345312 149.801875 337.345312 151.801875 
L 337.345312 180.158125 
Q 337.345312 182.158125 339.345312 182.158125 
z
" style="fill: #ffffff; opacity: 0.8; stroke: #cccccc; stroke-linejoin: miter"/>
    </g>
    <g id="line2d_17">
     <path d="M 341.345312 157.900312 
L 351.345312 157.900312 
L 361.345312 157.900312 
" style="fill: none; stroke: #1f77b4; stroke-width: 1.5; stroke-linecap: square"/>
    </g>
    <g id="text_19">
     <!-- Velocity Verlet -->
     <g transform="translate(369.345312 161.400312) scale(0.1 -0.1)">
      <defs>
       <path id="DejaVuSans-56" d="M 1831 0 
L 50 4666 
L 709 4666 
L 2188 738 
L 3669 4666 
L 4325 4666 
L 2547 0 
L 1831 0 
z
" transform="scale(0.015625)"/>
       <path id="DejaVuSans-6c" d="M 603 4863 
L 1178 4863 
L 1178 0 
L 603 0 
L 603 4863 
z
" transform="scale(0.015625)"/>
       <path id="DejaVuSans-6f" d="M 1959 3097 
Q 1497 3097 1228 2736 
Q 959 2375 959 1747 
Q 959 1119 1226 758 
Q 1494 397 1959 397 
Q 2419 397 2687 759 
Q 2956 1122 2956 1747 
Q 2956 2369 2687 2733 
Q 2419 3097 1959 3097 
z
M 1959 3584 
Q 2709 3584 3137 3096 
Q 3566 2609 3566 1747 
Q 3566 888 3137 398 
Q 2709 -91 1959 -91 
Q 1206 -91 779 398 
Q 353 888 353 1747 
Q 353 2609 779 3096 
Q 1206 3584 1959 3584 
z
" transform="scale(0.015625)"/>
      </defs>
      <use xlink:href="#DejaVuSans-56"/>
      <use xlink:href="#DejaVuSans-65" transform="translate(60.658203 0)"/>
      <use xlink:href="#DejaVuSans-6c" transform="translate(122.181641 0)"/>
      <use xlink:href="#DejaVuSans-6f" transform="translate(149.964844 0)"/>
      <use xlink:href="#DejaVuSans-63" transform="translate(211.146484 0)"/>
      <use xlink:href="#DejaVuSans-69" transform="translate(266.126953 0)"/>
      <use xlink:href="#DejaVuSans-74" transform="translate(293.910156 0)"/>
      <use xlink:href="#DejaVuSans-79" transform="translate(333.119141 0)"/>
      <use xlink:href="#DejaVuSans-20" transform="translate(392.298828 0)"/>
      <use xlink:href="#DejaVuSans-56" transform="translate(424.085938 0)"/>
      <use xlink:href="#DejaVuSans-65" transform="translate(484.744141 0)"/>
      <use xlink:href="#DejaVuSans-72" transform="translate(546.267578 0)"/>
      <use xlink:href="#DejaVuSans-6c" transform="translate(587.380859 0)"/>
      <use xlink:href="#DejaVuSans-65" transform="translate(615.164062 0)"/>
      <use xlink:href="#DejaVuSans-74" transform="translate(676.6875 0)"/>
     </g>
    </g>
    <g id="line2d_18">
     <path d="M 341.345312 172.578437 
L 351.345312 172.578437 
L 361.345312 172.578437 
" style="fill: none; stroke: #ff7f0e; stroke-width: 1.5; stroke-linecap: square"/>
    </g>
    <g id="text_20">
     <!-- Beeman's Alg. -->
     <g transform="translate(369.345312 176.078437) scale(0.1 -0.1)">
      <defs>
       <path id="DejaVuSans-42" d="M 1259 2228 
L 1259 519 
L 2272 519 
Q 2781 519 3026 730 
Q 3272 941 3272 1375 
Q 3272 1813 3026 2020 
Q 2781 2228 2272 2228 
L 1259 2228 
z
M 1259 4147 
L 1259 2741 
L 2194 2741 
Q 2656 2741 2882 2914 
Q 3109 3088 3109 3444 
Q 3109 3797 2882 3972 
Q 2656 4147 2194 4147 
L 1259 4147 
z
M 628 4666 
L 2241 4666 
Q 2963 4666 3353 4366 
Q 3744 4066 3744 3513 
Q 3744 3084 3544 2831 
Q 3344 2578 2956 2516 
Q 3422 2416 3680 2098 
Q 3938 1781 3938 1306 
Q 3938 681 3513 340 
Q 3088 0 2303 0 
L 628 0 
L 628 4666 
z
" transform="scale(0.015625)"/>
       <path id="DejaVuSans-61" d="M 2194 1759 
Q 1497 1759 1228 1600 
Q 959 1441 959 1056 
Q 959 750 1161 570 
Q 1363 391 1709 391 
Q 2188 391 2477 730 
Q 2766 1069 2766 1631 
L 2766 1759 
L 2194 1759 
z
M 3341 1997 
L 3341 0 
L 2766 0 
L 2766 531 
Q 2569 213 2275 61 
Q 1981 -91 1556 -91 
Q 1019 -91 701 211 
Q 384 513 384 1019 
Q 384 1609 779 1909 
Q 1175 2209 1959 2209 
L 2766 2209 
L 2766 2266 
Q 2766 2663 2505 2880 
Q 2244 3097 1772 3097 
Q 1472 3097 1187 3025 
Q 903 2953 641 2809 
L 641 3341 
Q 956 3463 1253 3523 
Q 1550 3584 1831 3584 
Q 2591 3584 2966 3190 
Q 3341 2797 3341 1997 
z
" transform="scale(0.015625)"/>
       <path id="DejaVuSans-27" d="M 1147 4666 
L 1147 2931 
L 616 2931 
L 616 4666 
L 1147 4666 
z
" transform="scale(0.015625)"/>
       <path id="DejaVuSans-41" d="M 2188 4044 
L 1331 1722 
L 3047 1722 
L 2188 4044 
z
M 1831 4666 
L 2547 4666 
L 4325 0 
L 3669 0 
L 3244 1197 
L 1141 1197 
L 716 0 
L 50 0 
L 1831 4666 
z
" transform="scale(0.015625)"/>
      </defs>
      <use xlink:href="#DejaVuSans-42"/>
      <use xlink:href="#DejaVuSans-65" transform="translate(68.603516 0)"/>
      <use xlink:href="#DejaVuSans-65" transform="translate(130.126953 0)"/>
      <use xlink:href="#DejaVuSans-6d" transform="translate(191.650391 0)"/>
      <use xlink:href="#DejaVuSans-61" transform="translate(289.0625 0)"/>
      <use xlink:href="#DejaVuSans-6e" transform="translate(350.341797 0)"/>
      <use xlink:href="#DejaVuSans-27" transform="translate(413.720703 0)"/>
      <use xlink:href="#DejaVuSans-73" transform="translate(441.210938 0)"/>
      <use xlink:href="#DejaVuSans-20" transform="translate(493.310547 0)"/>
      <use xlink:href="#DejaVuSans-41" transform="translate(525.097656 0)"/>
      <use xlink:href="#DejaVuSans-6c" transform="translate(593.505859 0)"/>
      <use xlink:href="#DejaVuSans-67" transform="translate(621.289062 0)"/>
      <use xlink:href="#DejaVuSans-2e" transform="translate(684.765625 0)"/>
     </g>
    </g>
   </g>
  </g>
 </g>
 <defs>
  <clipPath id="pd84cb83e0a">
   <rect x="56.09" y="28.32" width="393.91" height="275.32"/>
  </clipPath>
 </defs>
</svg>
