<?xml version="1.0" encoding="utf-8" standalone="no"?>
<!DOCTYPE svg PUBLIC "-//W3C//DTD SVG 1.1//EN"
  "http://www.w3.org/Graphics/SVG/1.1/DTD/svg11.dtd">
<svg xmlns:xlink="http://www.w3.org/1999/xlink" width="460.8pt" height="345.6pt" viewBox="0 0 460.8 345.6" xmlns="http://www.w3.org/2000/svg" version="1.1">
 <metadata>
  <rdf:RDF xmlns:dc="http://purl.org/dc/elements/1.1/" xmlns:cc="http://creativecommons.org/ns#" xmlns:rdf="http://www.w3.org/1999/02/22-rdf-syntax-ns#">
   <cc:Work>
    <dc:type rdf:resource="http://purl.org/dc/dcmitype/StillImage"/>
    <dc:date>2025-05-13T22:13:22.848650</dc:date>
    <dc:format>image/svg+xml</dc:format>
    <dc:creator>
     <cc:Agent>
      <dc:title>Matplotlib v3.10.1, https://matplotlib.org/</dc:title>
     </cc:Agent>
    </dc:creator>
   </cc:Work>
  </rdf:RDF>
 </metadata>
 <defs>
  <style type="text/css">*{stroke-linejoin: round; stroke-linecap: butt}</style>
 </defs>
 <g id="figure_1">
  <g id="patch_1">
   <path d="M 0 345.6 
L 460.8 345.6 
L 460.8 0 
L 0 0 
z
" style="fill: #ffffff"/>
  </g>
  <g id="axes_1">
   <g id="patch_2">
    <path d="M 49.52 303.64 
L 450 303.64 
L 450 28.32 
L 49.52 28.32 
z
" style="fill: #ffffff"/>
   </g>
   <g id="matplotlib.axis_1">
    <g id="xtick_1">
     <g id="line2d_1">
      <defs>
       <path id="m1e9f51836d" d="M 0 0 
L 0 3.5 
" style="stroke: #000000; stroke-width: 0.8"/>
      </defs>
      <g>
       <use xlink:href="#m1e9f51836d" x="67.723636" y="303.64" style="stroke: #000000; stroke-width: 0.8"/>
      </g>
     </g>
     <g id="text_1">
      <!-- 0 -->
      <g transform="translate(64.542386 318.238437) scale(0.1 -0.1)">
       <defs>
        <path id="DejaVuSans-30" d="M 2034 4250 
Q 1547 4250 1301 3770 
Q 1056 3291 1056 2328 
Q 1056 1369 1301 889 
Q 1547 409 2034 409 
Q 2525 409 2770 889 
Q 3016 1369 3016 2328 
Q 3016 3291 2770 3770 
Q 2525 4250 2034 4250 
z
M 2034 4750 
Q 2819 4750 3233 4129 
Q 3647 3509 3647 2328 
Q 3647 1150 3233 529 
Q 2819 -91 2034 -91 
Q 1250 -91 836 529 
Q 422 1150 422 2328 
Q 422 3509 836 4129 
Q 1250 4750 2034 4750 
z
" transform="scale(0.015625)"/>
       </defs>
       <use xlink:href="#DejaVuSans-30"/>
      </g>
     </g>
    </g>
    <g id="xtick_2">
     <g id="line2d_2">
      <g>
       <use xlink:href="#m1e9f51836d" x="140.53891" y="303.64" style="stroke: #000000; stroke-width: 0.8"/>
      </g>
     </g>
     <g id="text_2">
      <!-- 20 -->
      <g transform="translate(134.17641 318.238437) scale(0.1 -0.1)">
       <defs>
        <path id="DejaVuSans-32" d="M 1228 531 
L 3431 531 
L 3431 0 
L 469 0 
L 469 531 
Q 828 903 1448 1529 
Q 2069 2156 2228 2338 
Q 2531 2678 2651 2914 
Q 2772 3150 2772 3378 
Q 2772 3750 2511 3984 
Q 2250 4219 1831 4219 
Q 1534 4219 1204 4116 
Q 875 4013 500 3803 
L 500 4441 
Q 881 4594 1212 4672 
Q 1544 4750 1819 4750 
Q 2544 4750 2975 4387 
Q 3406 4025 3406 3419 
Q 3406 3131 3298 2873 
Q 3191 2616 2906 2266 
Q 2828 2175 2409 1742 
Q 1991 1309 1228 531 
z
" transform="scale(0.015625)"/>
       </defs>
       <use xlink:href="#DejaVuSans-32"/>
       <use xlink:href="#DejaVuSans-30" transform="translate(63.623047 0)"/>
      </g>
     </g>
    </g>
    <g id="xtick_3">
     <g id="line2d_3">
      <g>
       <use xlink:href="#m1e9f51836d" x="213.354184" y="303.64" style="stroke: #000000; stroke-width: 0.8"/>
      </g>
     </g>
     <g id="text_3">
      <!-- 40 -->
      <g transform="translate(206.991684 318.238437) scale(0.1 -0.1)">
       <defs>
        <path id="DejaVuSans-34" d="M 2419 4116 
L 825 1625 
L 2419 1625 
L 2419 4116 
z
M 2253 4666 
L 3047 4666 
L 3047 1625 
L 3713 1625 
L 3713 1100 
L 3047 1100 
L 3047 0 
L 2419 0 
L 2419 1100 
L 313 1100 
L 313 1709 
L 2253 4666 
z
" transform="scale(0.015625)"/>
       </defs>
       <use xlink:href="#DejaVuSans-34"/>
       <use xlink:href="#DejaVuSans-30" transform="translate(63.623047 0)"/>
      </g>
     </g>
    </g>
    <g id="xtick_4">
     <g id="line2d_4">
      <g>
       <use xlink:href="#m1e9f51836d" x="286.169457" y="303.64" style="stroke: #000000; stroke-width: 0.8"/>
      </g>
     </g>
     <g id="text_4">
      <!-- 60 -->
      <g transform="translate(279.806957 318.238437) scale(0.1 -0.1)">
       <defs>
        <path id="DejaVuSans-36" d="M 2113 2584 
Q 1688 2584 1439 2293 
Q 1191 2003 1191 1497 
Q 1191 994 1439 701 
Q 1688 409 2113 409 
Q 2538 409 2786 701 
Q 3034 994 3034 1497 
Q 3034 2003 2786 2293 
Q 2538 2584 2113 2584 
z
M 3366 4563 
L 3366 3988 
Q 3128 4100 2886 4159 
Q 2644 4219 2406 4219 
Q 1781 4219 1451 3797 
Q 1122 3375 1075 2522 
Q 1259 2794 1537 2939 
Q 1816 3084 2150 3084 
Q 2853 3084 3261 2657 
Q 3669 2231 3669 1497 
Q 3669 778 3244 343 
Q 2819 -91 2113 -91 
Q 1303 -91 875 529 
Q 447 1150 447 2328 
Q 447 3434 972 4092 
Q 1497 4750 2381 4750 
Q 2619 4750 2861 4703 
Q 3103 4656 3366 4563 
z
" transform="scale(0.015625)"/>
       </defs>
       <use xlink:href="#DejaVuSans-36"/>
       <use xlink:href="#DejaVuSans-30" transform="translate(63.623047 0)"/>
      </g>
     </g>
    </g>
    <g id="xtick_5">
     <g id="line2d_5">
      <g>
       <use xlink:href="#m1e9f51836d" x="358.984731" y="303.64" style="stroke: #000000; stroke-width: 0.8"/>
      </g>
     </g>
     <g id="text_5">
      <!-- 80 -->
      <g transform="translate(352.622231 318.238437) scale(0.1 -0.1)">
       <defs>
        <path id="DejaVuSans-38" d="M 2034 2216 
Q 1584 2216 1326 1975 
Q 1069 1734 1069 1313 
Q 1069 891 1326 650 
Q 1584 409 2034 409 
Q 2484 409 2743 651 
Q 3003 894 3003 1313 
Q 3003 1734 2745 1975 
Q 2488 2216 2034 2216 
z
M 1403 2484 
Q 997 2584 770 2862 
Q 544 3141 544 3541 
Q 544 4100 942 4425 
Q 1341 4750 2034 4750 
Q 2731 4750 3128 4425 
Q 3525 4100 3525 3541 
Q 3525 3141 3298 2862 
Q 3072 2584 2669 2484 
Q 3125 2378 3379 2068 
Q 3634 1759 3634 1313 
Q 3634 634 3220 271 
Q 2806 -91 2034 -91 
Q 1263 -91 848 271 
Q 434 634 434 1313 
Q 434 1759 690 2068 
Q 947 2378 1403 2484 
z
M 1172 3481 
Q 1172 3119 1398 2916 
Q 1625 2713 2034 2713 
Q 2441 2713 2670 2916 
Q 2900 3119 2900 3481 
Q 2900 3844 2670 4047 
Q 2441 4250 2034 4250 
Q 1625 4250 1398 4047 
Q 1172 3844 1172 3481 
z
" transform="scale(0.015625)"/>
       </defs>
       <use xlink:href="#DejaVuSans-38"/>
       <use xlink:href="#DejaVuSans-30" transform="translate(63.623047 0)"/>
      </g>
     </g>
    </g>
    <g id="xtick_6">
     <g id="line2d_6">
      <g>
       <use xlink:href="#m1e9f51836d" x="431.800004" y="303.64" style="stroke: #000000; stroke-width: 0.8"/>
      </g>
     </g>
     <g id="text_6">
      <!-- 100 -->
      <g transform="translate(422.256254 318.238437) scale(0.1 -0.1)">
       <defs>
        <path id="DejaVuSans-31" d="M 794 531 
L 1825 531 
L 1825 4091 
L 703 3866 
L 703 4441 
L 1819 4666 
L 2450 4666 
L 2450 531 
L 3481 531 
L 3481 0 
L 794 0 
L 794 531 
z
" transform="scale(0.015625)"/>
       </defs>
       <use xlink:href="#DejaVuSans-31"/>
       <use xlink:href="#DejaVuSans-30" transform="translate(63.623047 0)"/>
       <use xlink:href="#DejaVuSans-30" transform="translate(127.246094 0)"/>
      </g>
     </g>
    </g>
    <g id="text_7">
     <!-- time -->
     <g transform="translate(238.463906 331.916562) scale(0.1 -0.1)">
      <defs>
       <path id="DejaVuSans-74" d="M 1172 4494 
L 1172 3500 
L 2356 3500 
L 2356 3053 
L 1172 3053 
L 1172 1153 
Q 1172 725 1289 603 
Q 1406 481 1766 481 
L 2356 481 
L 2356 0 
L 1766 0 
Q 1100 0 847 248 
Q 594 497 594 1153 
L 594 3053 
L 172 3053 
L 172 3500 
L 594 3500 
L 594 4494 
L 1172 4494 
z
" transform="scale(0.015625)"/>
       <path id="DejaVuSans-69" d="M 603 3500 
L 1178 3500 
L 1178 0 
L 603 0 
L 603 3500 
z
M 603 4863 
L 1178 4863 
L 1178 4134 
L 603 4134 
L 603 4863 
z
" transform="scale(0.015625)"/>
       <path id="DejaVuSans-6d" d="M 3328 2828 
Q 3544 3216 3844 3400 
Q 4144 3584 4550 3584 
Q 5097 3584 5394 3201 
Q 5691 2819 5691 2113 
L 5691 0 
L 5113 0 
L 5113 2094 
Q 5113 2597 4934 2840 
Q 4756 3084 4391 3084 
Q 3944 3084 3684 2787 
Q 3425 2491 3425 1978 
L 3425 0 
L 2847 0 
L 2847 2094 
Q 2847 2600 2669 2842 
Q 2491 3084 2119 3084 
Q 1678 3084 1418 2786 
Q 1159 2488 1159 1978 
L 1159 0 
L 581 0 
L 581 3500 
L 1159 3500 
L 1159 2956 
Q 1356 3278 1631 3431 
Q 1906 3584 2284 3584 
Q 2666 3584 2933 3390 
Q 3200 3197 3328 2828 
z
" transform="scale(0.015625)"/>
       <path id="DejaVuSans-65" d="M 3597 1894 
L 3597 1613 
L 953 1613 
Q 991 1019 1311 708 
Q 1631 397 2203 397 
Q 2534 397 2845 478 
Q 3156 559 3463 722 
L 3463 178 
Q 3153 47 2828 -22 
Q 2503 -91 2169 -91 
Q 1331 -91 842 396 
Q 353 884 353 1716 
Q 353 2575 817 3079 
Q 1281 3584 2069 3584 
Q 2775 3584 3186 3129 
Q 3597 2675 3597 1894 
z
M 3022 2063 
Q 3016 2534 2758 2815 
Q 2500 3097 2075 3097 
Q 1594 3097 1305 2825 
Q 1016 2553 972 2059 
L 3022 2063 
z
" transform="scale(0.015625)"/>
      </defs>
      <use xlink:href="#DejaVuSans-74"/>
      <use xlink:href="#DejaVuSans-69" transform="translate(39.208984 0)"/>
      <use xlink:href="#DejaVuSans-6d" transform="translate(66.992188 0)"/>
      <use xlink:href="#DejaVuSans-65" transform="translate(164.404297 0)"/>
     </g>
    </g>
   </g>
   <g id="matplotlib.axis_2">
    <g id="ytick_1">
     <g id="line2d_7">
      <defs>
       <path id="m4e15bad58f" d="M 0 0 
L -3.5 0 
" style="stroke: #000000; stroke-width: 0.8"/>
      </defs>
      <g>
       <use xlink:href="#m4e15bad58f" x="49.52" y="291.351857" style="stroke: #000000; stroke-width: 0.8"/>
      </g>
     </g>
     <g id="text_8">
      <!-- −4 -->
      <g transform="translate(27.777813 295.151076) scale(0.1 -0.1)">
       <defs>
        <path id="DejaVuSans-2212" d="M 678 2272 
L 4684 2272 
L 4684 1741 
L 678 1741 
L 678 2272 
z
" transform="scale(0.015625)"/>
       </defs>
       <use xlink:href="#DejaVuSans-2212"/>
       <use xlink:href="#DejaVuSans-34" transform="translate(83.789062 0)"/>
      </g>
     </g>
    </g>
    <g id="ytick_2">
     <g id="line2d_8">
      <g>
       <use xlink:href="#m4e15bad58f" x="49.52" y="260.513458" style="stroke: #000000; stroke-width: 0.8"/>
      </g>
     </g>
     <g id="text_9">
      <!-- −3 -->
      <g transform="translate(27.777813 264.312676) scale(0.1 -0.1)">
       <defs>
        <path id="DejaVuSans-33" d="M 2597 2516 
Q 3050 2419 3304 2112 
Q 3559 1806 3559 1356 
Q 3559 666 3084 287 
Q 2609 -91 1734 -91 
Q 1441 -91 1130 -33 
Q 819 25 488 141 
L 488 750 
Q 750 597 1062 519 
Q 1375 441 1716 441 
Q 2309 441 2620 675 
Q 2931 909 2931 1356 
Q 2931 1769 2642 2001 
Q 2353 2234 1838 2234 
L 1294 2234 
L 1294 2753 
L 1863 2753 
Q 2328 2753 2575 2939 
Q 2822 3125 2822 3475 
Q 2822 3834 2567 4026 
Q 2313 4219 1838 4219 
Q 1578 4219 1281 4162 
Q 984 4106 628 3988 
L 628 4550 
Q 988 4650 1302 4700 
Q 1616 4750 1894 4750 
Q 2613 4750 3031 4423 
Q 3450 4097 3450 3541 
Q 3450 3153 3228 2886 
Q 3006 2619 2597 2516 
z
" transform="scale(0.015625)"/>
       </defs>
       <use xlink:href="#DejaVuSans-2212"/>
       <use xlink:href="#DejaVuSans-33" transform="translate(83.789062 0)"/>
      </g>
     </g>
    </g>
    <g id="ytick_3">
     <g id="line2d_9">
      <g>
       <use xlink:href="#m4e15bad58f" x="49.52" y="229.675058" style="stroke: #000000; stroke-width: 0.8"/>
      </g>
     </g>
     <g id="text_10">
      <!-- −2 -->
      <g transform="translate(27.777813 233.474277) scale(0.1 -0.1)">
       <use xlink:href="#DejaVuSans-2212"/>
       <use xlink:href="#DejaVuSans-32" transform="translate(83.789062 0)"/>
      </g>
     </g>
    </g>
    <g id="ytick_4">
     <g id="line2d_10">
      <g>
       <use xlink:href="#m4e15bad58f" x="49.52" y="198.836659" style="stroke: #000000; stroke-width: 0.8"/>
      </g>
     </g>
     <g id="text_11">
      <!-- −1 -->
      <g transform="translate(27.777813 202.635878) scale(0.1 -0.1)">
       <use xlink:href="#DejaVuSans-2212"/>
       <use xlink:href="#DejaVuSans-31" transform="translate(83.789062 0)"/>
      </g>
     </g>
    </g>
    <g id="ytick_5">
     <g id="line2d_11">
      <g>
       <use xlink:href="#m4e15bad58f" x="49.52" y="167.99826" style="stroke: #000000; stroke-width: 0.8"/>
      </g>
     </g>
     <g id="text_12">
      <!-- 0 -->
      <g transform="translate(36.1575 171.797479) scale(0.1 -0.1)">
       <use xlink:href="#DejaVuSans-30"/>
      </g>
     </g>
    </g>
    <g id="ytick_6">
     <g id="line2d_12">
      <g>
       <use xlink:href="#m4e15bad58f" x="49.52" y="137.159861" style="stroke: #000000; stroke-width: 0.8"/>
      </g>
     </g>
     <g id="text_13">
      <!-- 1 -->
      <g transform="translate(36.1575 140.95908) scale(0.1 -0.1)">
       <use xlink:href="#DejaVuSans-31"/>
      </g>
     </g>
    </g>
    <g id="ytick_7">
     <g id="line2d_13">
      <g>
       <use xlink:href="#m4e15bad58f" x="49.52" y="106.321462" style="stroke: #000000; stroke-width: 0.8"/>
      </g>
     </g>
     <g id="text_14">
      <!-- 2 -->
      <g transform="translate(36.1575 110.12068) scale(0.1 -0.1)">
       <use xlink:href="#DejaVuSans-32"/>
      </g>
     </g>
    </g>
    <g id="ytick_8">
     <g id="line2d_14">
      <g>
       <use xlink:href="#m4e15bad58f" x="49.52" y="75.483063" style="stroke: #000000; stroke-width: 0.8"/>
      </g>
     </g>
     <g id="text_15">
      <!-- 3 -->
      <g transform="translate(36.1575 79.282281) scale(0.1 -0.1)">
       <use xlink:href="#DejaVuSans-33"/>
      </g>
     </g>
    </g>
    <g id="ytick_9">
     <g id="line2d_15">
      <g>
       <use xlink:href="#m4e15bad58f" x="49.52" y="44.644663" style="stroke: #000000; stroke-width: 0.8"/>
      </g>
     </g>
     <g id="text_16">
      <!-- 4 -->
      <g transform="translate(36.1575 48.443882) scale(0.1 -0.1)">
       <use xlink:href="#DejaVuSans-34"/>
      </g>
     </g>
    </g>
    <g id="text_17">
     <!-- $p(t) - p_{exact}(t)$ -->
     <g transform="translate(21.677813 200.03) rotate(-90) scale(0.1 -0.1)">
      <defs>
       <path id="DejaVuSans-Oblique-70" d="M 3175 2156 
Q 3175 2616 2975 2859 
Q 2775 3103 2400 3103 
Q 2144 3103 1911 2972 
Q 1678 2841 1497 2591 
Q 1319 2344 1212 1994 
Q 1106 1644 1106 1300 
Q 1106 863 1306 627 
Q 1506 391 1875 391 
Q 2147 391 2380 519 
Q 2613 647 2778 891 
Q 2956 1147 3065 1494 
Q 3175 1841 3175 2156 
z
M 1394 2969 
Q 1625 3272 1939 3428 
Q 2253 3584 2638 3584 
Q 3175 3584 3472 3232 
Q 3769 2881 3769 2247 
Q 3769 1728 3584 1258 
Q 3400 788 3053 416 
Q 2822 169 2531 39 
Q 2241 -91 1919 -91 
Q 1547 -91 1294 64 
Q 1041 219 916 525 
L 556 -1331 
L -19 -1331 
L 922 3500 
L 1497 3500 
L 1394 2969 
z
" transform="scale(0.015625)"/>
       <path id="DejaVuSans-28" d="M 1984 4856 
Q 1566 4138 1362 3434 
Q 1159 2731 1159 2009 
Q 1159 1288 1364 580 
Q 1569 -128 1984 -844 
L 1484 -844 
Q 1016 -109 783 600 
Q 550 1309 550 2009 
Q 550 2706 781 3412 
Q 1013 4119 1484 4856 
L 1984 4856 
z
" transform="scale(0.015625)"/>
       <path id="DejaVuSans-Oblique-74" d="M 2706 3500 
L 2619 3053 
L 1472 3053 
L 1100 1153 
Q 1081 1047 1072 975 
Q 1063 903 1063 863 
Q 1063 663 1183 572 
Q 1303 481 1569 481 
L 2150 481 
L 2053 0 
L 1503 0 
Q 991 0 739 200 
Q 488 400 488 806 
Q 488 878 497 964 
Q 506 1050 525 1153 
L 897 3053 
L 409 3053 
L 500 3500 
L 978 3500 
L 1172 4494 
L 1747 4494 
L 1556 3500 
L 2706 3500 
z
" transform="scale(0.015625)"/>
       <path id="DejaVuSans-29" d="M 513 4856 
L 1013 4856 
Q 1481 4119 1714 3412 
Q 1947 2706 1947 2009 
Q 1947 1309 1714 600 
Q 1481 -109 1013 -844 
L 513 -844 
Q 928 -128 1133 580 
Q 1338 1288 1338 2009 
Q 1338 2731 1133 3434 
Q 928 4138 513 4856 
z
" transform="scale(0.015625)"/>
       <path id="DejaVuSans-Oblique-65" d="M 3078 2063 
Q 3088 2113 3092 2166 
Q 3097 2219 3097 2272 
Q 3097 2653 2873 2875 
Q 2650 3097 2266 3097 
Q 1838 3097 1509 2826 
Q 1181 2556 1013 2059 
L 3078 2063 
z
M 3578 1613 
L 903 1613 
Q 884 1494 878 1425 
Q 872 1356 872 1306 
Q 872 872 1139 634 
Q 1406 397 1894 397 
Q 2269 397 2603 481 
Q 2938 566 3225 728 
L 3116 159 
Q 2806 34 2476 -28 
Q 2147 -91 1806 -91 
Q 1078 -91 686 257 
Q 294 606 294 1247 
Q 294 1794 489 2264 
Q 684 2734 1063 3103 
Q 1306 3334 1642 3459 
Q 1978 3584 2356 3584 
Q 2950 3584 3301 3228 
Q 3653 2872 3653 2272 
Q 3653 2128 3634 1964 
Q 3616 1800 3578 1613 
z
" transform="scale(0.015625)"/>
       <path id="DejaVuSans-Oblique-78" d="M 3841 3500 
L 2234 1784 
L 3219 0 
L 2559 0 
L 1819 1388 
L 531 0 
L -166 0 
L 1556 1844 
L 641 3500 
L 1300 3500 
L 1972 2234 
L 3144 3500 
L 3841 3500 
z
" transform="scale(0.015625)"/>
       <path id="DejaVuSans-Oblique-61" d="M 3438 1997 
L 3047 0 
L 2472 0 
L 2578 531 
Q 2325 219 2001 64 
Q 1678 -91 1281 -91 
Q 834 -91 548 182 
Q 263 456 263 884 
Q 263 1497 752 1853 
Q 1241 2209 2100 2209 
L 2900 2209 
L 2931 2363 
Q 2938 2388 2941 2417 
Q 2944 2447 2944 2509 
Q 2944 2788 2717 2942 
Q 2491 3097 2081 3097 
Q 1800 3097 1504 3025 
Q 1209 2953 897 2809 
L 997 3341 
Q 1322 3463 1633 3523 
Q 1944 3584 2234 3584 
Q 2853 3584 3176 3315 
Q 3500 3047 3500 2534 
Q 3500 2431 3484 2292 
Q 3469 2153 3438 1997 
z
M 2816 1759 
L 2241 1759 
Q 1534 1759 1195 1570 
Q 856 1381 856 984 
Q 856 709 1029 553 
Q 1203 397 1509 397 
Q 1978 397 2328 733 
Q 2678 1069 2791 1631 
L 2816 1759 
z
" transform="scale(0.015625)"/>
       <path id="DejaVuSans-Oblique-63" d="M 3431 3366 
L 3316 2797 
Q 3109 2947 2876 3022 
Q 2644 3097 2394 3097 
Q 2119 3097 1870 3000 
Q 1622 2903 1453 2725 
Q 1184 2453 1037 2087 
Q 891 1722 891 1331 
Q 891 859 1127 628 
Q 1363 397 1844 397 
Q 2081 397 2348 469 
Q 2616 541 2906 684 
L 2797 116 
Q 2547 13 2283 -39 
Q 2019 -91 1741 -91 
Q 1044 -91 669 257 
Q 294 606 294 1253 
Q 294 1797 489 2255 
Q 684 2713 1069 3078 
Q 1331 3328 1684 3456 
Q 2038 3584 2456 3584 
Q 2700 3584 2940 3529 
Q 3181 3475 3431 3366 
z
" transform="scale(0.015625)"/>
      </defs>
      <use xlink:href="#DejaVuSans-Oblique-70" transform="translate(0 0.125)"/>
      <use xlink:href="#DejaVuSans-28" transform="translate(63.476562 0.125)"/>
      <use xlink:href="#DejaVuSans-Oblique-74" transform="translate(102.490234 0.125)"/>
      <use xlink:href="#DejaVuSans-29" transform="translate(141.699219 0.125)"/>
      <use xlink:href="#DejaVuSans-2212" transform="translate(200.195312 0.125)"/>
      <use xlink:href="#DejaVuSans-Oblique-70" transform="translate(303.466797 0.125)"/>
      <use xlink:href="#DejaVuSans-Oblique-65" transform="translate(366.943359 -16.28125) scale(0.7)"/>
      <use xlink:href="#DejaVuSans-Oblique-78" transform="translate(410.009766 -16.28125) scale(0.7)"/>
      <use xlink:href="#DejaVuSans-Oblique-61" transform="translate(451.435547 -16.28125) scale(0.7)"/>
      <use xlink:href="#DejaVuSans-Oblique-63" transform="translate(494.331055 -16.28125) scale(0.7)"/>
      <use xlink:href="#DejaVuSans-Oblique-74" transform="translate(532.817383 -16.28125) scale(0.7)"/>
      <use xlink:href="#DejaVuSans-28" transform="translate(562.998047 0.125)"/>
      <use xlink:href="#DejaVuSans-Oblique-74" transform="translate(602.011719 0.125)"/>
      <use xlink:href="#DejaVuSans-29" transform="translate(641.220703 0.125)"/>
     </g>
    </g>
    <g id="text_18">
     <!-- 1e−6 -->
     <g transform="translate(49.52 25.32) scale(0.1 -0.1)">
      <use xlink:href="#DejaVuSans-31"/>
      <use xlink:href="#DejaVuSans-65" transform="translate(63.623047 0)"/>
      <use xlink:href="#DejaVuSans-2212" transform="translate(125.146484 0)"/>
      <use xlink:href="#DejaVuSans-36" transform="translate(208.935547 0)"/>
     </g>
    </g>
   </g>
   <g id="line2d_16">
    <path d="M 67.723636 167.99826 
L 68.801302 168.109204 
L 69.984551 168.462543 
L 71.662943 169.225752 
L 73.69813 170.101642 
L 74.779436 170.322452 
L 75.70419 170.288638 
L 76.581614 170.032712 
L 77.480883 169.531962 
L 78.46753 168.716589 
L 79.6617 167.421142 
L 82.060964 164.381078 
L 83.400765 162.91597 
L 84.340082 162.198271 
L 85.111924 161.87383 
L 85.796387 161.82069 
L 86.451725 161.994718 
L 87.125266 162.411849 
L 87.8607 163.142524 
L 88.698076 164.306075 
L 89.706567 166.11501 
L 91.079135 169.081646 
L 93.91165 175.294219 
L 94.887374 176.854354 
L 95.655575 177.693484 
L 96.289068 178.079527 
L 96.842464 178.168763 
L 97.370375 178.027501 
L 97.92013 177.64033 
L 98.535419 176.917543 
L 99.245368 175.716957 
L 100.090025 173.82002 
L 101.142206 170.867966 
L 102.740501 165.625156 
L 104.841222 158.876871 
L 105.867917 156.305937 
L 106.657963 154.877315 
L 107.295097 154.144043 
L 107.823008 153.848406 
L 108.285385 153.833927 
L 108.74048 154.048301 
L 109.239265 154.545529 
L 109.814505 155.455188 
L 110.495328 156.97812 
L 111.3145 159.395883 
L 112.341195 163.173999 
L 113.870316 169.763983 
L 116.120308 179.345845 
L 117.147003 182.756797 
L 117.937049 184.674814 
L 118.570542 185.6814 
L 119.080249 186.114729 
L 119.506218 186.206588 
L 119.906702 186.063187 
L 120.339953 185.655372 
L 120.846019 184.848875 
L 121.450386 183.432666 
L 122.174898 181.125205 
L 123.063244 177.498102 
L 124.231929 171.705262 
L 128.174877 151.338641 
L 129.030456 148.419935 
L 129.711279 146.81611 
L 130.253753 146.048217 
L 130.687003 145.779202 
L 131.054721 145.797678 
L 131.426078 146.049067 
L 131.855689 146.63163 
L 132.372677 147.74158 
L 132.995248 149.648866 
L 133.748886 152.728709 
L 134.684562 157.558454 
L 135.966111 165.460696 
L 139.126294 185.403759 
L 140.080174 189.81753 
L 140.82653 192.309845 
L 141.419975 193.595303 
L 141.889633 194.141769 
L 142.260991 194.268252 
L 142.595941 194.146955 
L 142.963659 193.755528 
L 143.407832 192.924487 
L 143.946665 191.40173 
L 144.602002 188.826329 
L 145.399329 184.722735 
L 146.411462 178.251413 
L 147.922379 166.955421 
L 150.205138 150.061877 
L 151.239114 144.059651 
L 152.032801 140.649529 
L 152.662653 138.823522 
L 153.161438 137.980533 
L 153.547359 137.710375 
L 153.864105 137.742772 
L 154.191774 138.019121 
L 154.584976 138.676014 
L 155.065557 139.953955 
L 155.655361 142.212046 
L 156.372591 145.911819 
L 157.260938 151.758402 
L 158.440545 161.144415 
L 162.248784 192.622025 
L 163.126208 197.554283 
L 163.821594 200.312534 
L 164.371349 201.68571 
L 164.797318 202.230295 
L 165.124987 202.332041 
L 165.419889 202.185146 
L 165.75848 201.737379 
L 166.177168 200.774088 
L 166.694156 198.973193 
L 167.327649 195.887935 
L 168.099491 190.937264 
L 169.071575 183.147204 
L 170.465987 169.967461 
L 173.09826 144.942783 
L 174.110392 137.529885 
L 174.893156 133.296614 
L 175.515727 131.028776 
L 176.003589 129.990051 
L 176.371306 129.653464 
L 176.658926 129.662369 
L 176.950188 129.916314 
L 177.303342 130.554231 
L 177.747515 131.864166 
L 178.29727 134.246279 
L 178.967171 138.220792 
L 179.793624 144.570632 
L 180.856727 154.61031 
L 182.63342 173.901261 
L 184.442879 192.700396 
L 185.473215 201.213643 
L 186.266902 206.084017 
L 186.900395 208.723218 
L 187.395539 209.946637 
L 187.766896 210.360494 
L 188.047235 210.3817 
L 188.320293 210.159979 
L 188.655243 209.561698 
L 189.077571 208.299932 
L 189.601841 205.965916 
L 190.246256 201.991885 
L 191.036302 195.617423 
L 192.041153 185.54846 
L 193.544788 167.932471 
L 195.84211 141.26843 
L 196.879728 131.802003 
L 197.677055 126.391963 
L 198.310548 123.463018 
L 198.805692 122.092532 
L 199.17705 121.616004 
L 199.450107 121.572591 
L 199.708601 121.772701 
L 200.025348 122.337551 
L 200.429473 123.564929 
L 200.935539 125.885175 
L 201.558109 129.878716 
L 202.319029 136.316218 
L 203.28019 146.497351 
L 204.645477 163.601519 
L 207.390613 198.332766 
L 208.395463 208.058749 
L 209.174587 213.624199 
L 209.793517 216.606034 
L 210.277738 217.978045 
L 210.634533 218.428544 
L 210.893027 218.453077 
L 211.14424 218.232655 
L 211.457346 217.621277 
L 211.86147 216.284872 
L 212.367537 213.761496 
L 212.990107 209.422097 
L 213.754668 202.394857 
L 214.715829 191.340458 
L 216.088397 172.689054 
L 218.800766 135.505603 
L 219.809258 124.897314 
L 220.592022 118.81278 
L 221.214592 115.544481 
L 221.698814 114.043405 
L 222.055609 113.54252 
L 222.310462 113.504141 
L 222.550753 113.712982 
L 222.852936 114.312856 
L 223.242498 115.636022 
L 223.734001 118.170297 
L 224.342008 122.581449 
L 225.088365 129.764814 
L 226.024041 141.100767 
L 227.323794 159.842834 
L 230.360191 204.477612 
L 231.335915 215.191932 
L 232.096835 221.315274 
L 232.701202 224.56741 
L 233.17086 226.035986 
L 233.513092 226.502698 
L 233.757023 226.520451 
L 233.993673 226.286146 
L 234.295856 225.627409 
L 234.689059 224.171789 
L 235.184203 221.397292 
L 235.795851 216.587011 
L 236.545848 208.781138 
L 237.488806 196.453997 
L 238.810403 175.93885 
L 241.741218 129.710222 
L 242.727865 117.970756 
L 243.496066 111.245893 
L 244.107714 107.646838 
L 244.584654 106.003215 
L 244.930527 105.471399 
L 245.170817 105.433372 
L 245.396545 105.646268 
L 245.687806 106.276428 
L 246.066445 107.689699 
L 246.547026 110.431049 
L 247.140471 115.217357 
L 247.868623 123.037724 
L 248.782455 135.447407 
L 250.027596 155.690245 
L 253.355254 211.27253 
L 254.298212 222.703616 
L 255.037287 229.210843 
L 255.627091 232.639277 
L 256.078545 234.133655 
L 256.406214 234.585701 
L 256.631941 234.583856 
L 256.857669 234.325637 
L 257.156211 233.591143 
L 257.545773 231.965746 
L 258.037276 228.861455 
L 258.645284 223.468943 
L 259.39164 214.702164 
L 260.330957 200.830855 
L 261.641632 177.824523 
L 264.616136 124.687253 
L 265.599142 111.481249 
L 266.367344 103.894947 
L 266.978992 99.841702 
L 267.452291 98.005529 
L 267.798164 97.406144 
L 268.031173 97.360707 
L 268.245978 97.575415 
L 268.526316 98.225443 
L 268.894034 99.708251 
L 269.363692 102.622284 
L 269.946214 107.76289 
L 270.663445 116.23767 
L 271.555432 129.623244 
L 272.760525 151.383585 
L 276.353958 218.475193 
L 277.26779 230.480515 
L 277.988661 237.279603 
L 278.55662 240.765581 
L 278.993512 242.256775 
L 279.302977 242.669768 
L 279.5105 242.64488 
L 279.728946 242.356283 
L 280.023848 241.540791 
L 280.409769 239.741288 
L 280.897631 236.30489 
L 281.501998 230.331031 
L 282.244714 220.60855 
L 283.18039 205.203319 
L 284.483784 179.676908 
L 287.494695 119.605184 
L 288.474061 104.956212 
L 289.238621 96.551839 
L 289.846629 92.062057 
L 290.319928 90.012359 
L 290.66216 89.345441 
L 290.887887 89.285063 
L 291.088129 89.48497 
L 291.353905 90.117968 
L 291.707059 91.603628 
L 292.162154 94.583973 
L 292.726473 99.885203 
L 293.421858 108.691151 
L 294.284719 122.661363 
L 295.427919 145.10655 
L 299.465526 227.805914 
L 300.324746 239.456406 
L 301.005569 245.950455 
L 301.540761 249.17643 
L 301.944886 250.46147 
L 302.221584 250.757868 
L 302.410904 250.685382 
L 302.632991 250.314939 
L 302.935174 249.317636 
L 303.332017 247.153461 
L 303.834443 243.056444 
L 304.453372 236.028389 
L 305.217933 224.605593 
L 306.186376 206.521378 
L 307.580788 175.812782 
L 310.205779 117.679689 
L 311.225193 100.225414 
L 312.015239 90.186134 
L 312.64145 84.766255 
L 313.132953 82.21232 
L 313.493389 81.325601 
L 313.726397 81.203203 
L 313.912076 81.360285 
L 314.156008 81.909734 
L 314.487317 83.27668 
L 314.916927 86.098413 
L 315.45576 91.259367 
L 316.118379 99.92876 
L 316.937551 113.791518 
L 317.997013 135.80722 
L 319.784628 178.46791 
L 321.579525 219.394028 
L 322.613502 238.18238 
L 323.410829 248.984131 
L 324.047963 254.893638 
L 324.543106 257.675345 
L 324.907183 258.670638 
L 325.147473 258.83229 
L 325.329511 258.691294 
L 325.566161 258.168506 
L 325.890189 256.833172 
L 326.312518 254.032446 
L 326.840428 248.894671 
L 327.492125 240.189903 
L 328.296734 226.226206 
L 329.330711 204.091353 
L 330.976336 163.320334 
L 332.971474 115.265889 
L 334.016373 95.24167 
L 334.820982 83.716508 
L 335.461757 77.408767 
L 335.964182 74.397294 
L 336.33554 73.308291 
L 336.579471 73.127433 
L 336.757869 73.264805 
L 336.990877 73.787271 
L 337.307624 75.117786 
L 337.722671 77.929042 
L 338.2433 83.118648 
L 338.887715 91.960917 
L 339.681402 106.14868 
L 340.700816 128.69437 
L 342.273625 169.139474 
L 344.403472 222.874796 
L 345.448371 243.779396 
L 346.25298 255.817111 
L 346.893755 262.41103 
L 347.39618 265.564674 
L 347.767538 266.710446 
L 348.011469 266.905883 
L 348.186226 266.772912 
L 348.415594 266.252577 
L 348.7287 264.911409 
L 349.140106 262.056105 
L 349.657094 256.757537 
L 350.297869 247.692643 
L 351.087914 233.096687 
L 352.096406 210.002389 
L 353.632808 168.988605 
L 355.842752 110.818601 
L 356.887651 89.069391 
L 357.69226 76.553937 
L 358.333034 69.70489 
L 358.835459 66.434815 
L 359.203177 65.258212 
L 359.443467 65.053874 
L 359.614583 65.181717 
L 359.836669 65.68672 
L 360.146134 67.026473 
L 360.550259 69.877596 
L 361.059966 75.204491 
L 361.689818 84.31217 
L 362.468942 99.062183 
L 363.459229 122.373115 
L 364.930098 162.922658 
L 367.303876 228.011459 
L 368.341493 250.349148 
L 369.142461 263.215701 
L 369.779595 270.236218 
L 370.27838 273.576518 
L 370.646097 274.779189 
L 370.882747 274.978749 
L 371.050222 274.846863 
L 371.272308 274.322886 
L 371.581773 272.931836 
L 371.985898 269.970753 
L 372.495605 264.437816 
L 373.125457 254.977578 
L 373.90458 239.656888 
L 374.894868 215.44543 
L 376.365737 173.33363 
L 378.739515 105.74779 
L 379.777132 82.555871 
L 380.5781 69.197524 
L 381.215234 61.908232 
L 381.714018 58.439315 
L 382.081736 57.189493 
L 382.318385 56.981279 
L 382.48222 57.111882 
L 382.700665 57.635669 
L 383.00649 59.037534 
L 383.406974 62.038775 
L 383.91304 67.67104 
L 384.539251 77.334873 
L 385.311093 92.951917 
L 386.294099 117.722256 
L 387.739482 160.482659 
L 390.193357 232.953752 
L 391.227334 256.820748 
L 392.024661 270.536587 
L 392.661795 278.040012 
L 393.156939 281.574092 
L 393.521015 282.841606 
L 393.754024 283.051768 
L 393.914218 282.922905 
L 394.129023 282.400582 
L 394.431206 280.990605 
L 394.828049 277.953944 
L 395.330475 272.229742 
L 395.953045 262.372862 
L 396.721246 246.39342 
L 397.696971 221.070644 
L 399.116869 177.716243 
L 401.65084 100.212569 
L 402.677536 75.779402 
L 403.474863 61.660804 
L 404.108356 53.999946 
L 404.599859 50.404074 
L 404.960295 49.120192 
L 405.193303 48.908642 
L 405.349856 49.040454 
L 405.564661 49.579573 
L 405.866845 51.036809 
L 406.263688 54.176949 
L 406.766113 60.097741 
L 407.388684 70.294433 
L 408.156885 86.825654 
L 409.13261 113.023039 
L 410.552508 157.873481 
L 413.086479 238.046235 
L 414.113174 263.320214 
L 414.910502 277.925496 
L 415.543995 285.851697 
L 416.039138 289.592957 
L 416.399574 290.911191 
L 416.628942 291.124474 
L 416.785495 290.989463 
L 416.996659 290.446811 
L 417.295202 288.975848 
L 417.692045 285.758916 
L 418.194471 279.674111 
L 418.8134 269.245661 
L 419.577961 252.313681 
L 420.546404 225.540638 
L 421.951739 179.778697 
L 424.536681 95.277167 
L 425.559735 69.336282 
L 426.353422 54.369352 
L 426.983274 46.254362 
L 427.474777 42.422541 
L 427.835213 41.057792 
L 428.064581 40.835426 
L 428.217493 40.967549 
L 428.428657 41.518677 
L 428.723559 43.001246 
L 429.116762 46.255869 
L 429.615546 52.432163 
L 430.230835 63.047446 
L 430.991755 80.329102 
L 431.796364 102.823758 
L 431.796364 102.823758 
" clip-path="url(#pe424d80919)" style="fill: none; stroke: #1f77b4; stroke-width: 1.5; stroke-linecap: square"/>
   </g>
   <g id="line2d_17">
    <path d="M 67.723636 167.99826 
L 68.801302 168.108454 
L 69.984551 168.461047 
L 71.659302 169.221697 
L 73.70177 170.100211 
L 74.783077 170.320358 
L 75.707831 170.285953 
L 76.585255 170.029502 
L 77.484524 169.528307 
L 78.471171 168.712623 
L 79.665341 167.417146 
L 82.104653 164.329586 
L 83.42625 162.894865 
L 84.361926 162.188085 
L 85.130128 161.872011 
L 85.81095 161.824605 
L 86.466288 162.003497 
L 87.139829 162.425642 
L 87.875263 163.161573 
L 88.71628 164.336295 
L 89.728412 166.158985 
L 91.115543 169.164757 
L 93.889805 175.251967 
L 94.86917 176.827595 
L 95.637372 177.675605 
L 96.274505 178.071415 
L 96.831542 178.166782 
L 97.359453 178.030239 
L 97.909208 177.648084 
L 98.520856 176.936014 
L 99.227164 175.750646 
L 100.068181 173.873592 
L 101.11308 170.956167 
L 102.682249 165.823585 
L 104.844863 158.868368 
L 105.871558 156.300387 
L 106.661604 154.874467 
L 107.298738 154.143562 
L 107.826648 153.849958 
L 108.289025 153.837279 
L 108.744121 154.053413 
L 109.242905 154.55252 
L 109.821787 155.471131 
L 110.50261 156.998775 
L 111.321781 159.421409 
L 112.352118 163.218599 
L 113.892161 169.861681 
L 116.116667 179.330514 
L 117.143363 182.744233 
L 117.933408 184.665183 
L 118.566901 185.674536 
L 119.076608 186.110302 
L 119.502577 186.204305 
L 119.903061 186.06298 
L 120.336312 185.657447 
L 120.842378 184.85362 
L 121.446745 183.440533 
L 122.171257 181.136598 
L 123.059604 177.513284 
L 124.224648 171.743481 
L 128.182158 151.312018 
L 129.037738 148.401552 
L 129.71492 146.811894 
L 130.257393 146.047221 
L 130.690644 145.780837 
L 131.058361 145.801558 
L 131.43336 146.058847 
L 131.866611 146.652918 
L 132.383599 147.772034 
L 133.009811 149.702681 
L 133.76709 152.814399 
L 134.710047 157.704321 
L 136.006159 165.72321 
L 139.093527 185.229374 
L 140.054688 189.71428 
L 140.804686 192.247921 
L 141.401771 193.563068 
L 141.87507 194.128696 
L 142.250069 194.26587 
L 142.585019 194.151904 
L 142.952736 193.768548 
L 143.393269 192.955484 
L 143.928461 191.459916 
L 144.580158 188.922356 
L 145.373844 184.867256 
L 146.375054 178.503153 
L 147.856845 167.465183 
L 150.219701 149.968718 
L 151.246396 144.025306 
L 152.040082 140.626139 
L 152.669935 138.809799 
L 153.165078 137.978969 
L 153.550999 137.71201 
L 153.867746 137.747042 
L 154.195415 138.026103 
L 154.588617 138.686201 
L 155.072839 139.979602 
L 155.662642 142.246632 
L 156.379873 145.956182 
L 157.268219 151.81265 
L 158.451467 161.237998 
L 162.234221 192.526126 
L 163.115286 197.500133 
L 163.814312 200.286978 
L 164.367708 201.676536 
L 164.793678 202.225038 
L 165.121346 202.329874 
L 165.416248 202.185792 
L 165.754839 201.74127 
L 166.173527 200.781972 
L 166.690515 198.985902 
L 167.320368 195.926593 
L 168.09221 190.987874 
L 169.064293 183.209793 
L 170.455065 170.075706 
L 173.105541 144.884468 
L 174.114033 137.509002 
L 174.896797 133.282764 
L 175.519367 131.02107 
L 176.00723 129.987376 
L 176.374947 129.654648 
L 176.662567 129.666583 
L 176.953828 129.923586 
L 177.310623 130.573657 
L 177.754796 131.892674 
L 178.304552 134.285525 
L 178.978093 138.296717 
L 179.804546 144.665583 
L 180.87129 154.760031 
L 182.669827 174.303789 
L 184.450161 192.766277 
L 185.480497 201.263526 
L 186.274183 206.118573 
L 186.904035 208.732471 
L 187.399179 209.950259 
L 187.770537 210.359812 
L 188.050876 210.377753 
L 188.323933 210.152861 
L 188.658884 209.550726 
L 189.081212 208.284208 
L 189.605482 205.944547 
L 190.249897 201.964133 
L 191.039943 195.582961 
L 192.044794 185.507727 
L 193.548429 167.888069 
L 195.84211 141.269949 
L 196.879728 131.804043 
L 197.677055 126.394294 
L 198.310548 123.465501 
L 198.805692 122.095082 
L 199.17705 121.618573 
L 199.450107 121.575157 
L 199.708601 121.775251 
L 200.025348 122.340064 
L 200.429473 123.567367 
L 200.935539 125.887477 
L 201.558109 129.88079 
L 202.319029 136.317931 
L 203.28019 146.498506 
L 204.645477 163.601752 
L 207.390613 198.331184 
L 208.395463 208.056675 
L 209.174587 213.62185 
L 209.793517 216.603542 
L 210.277738 217.975492 
L 210.634533 218.425974 
L 210.893027 218.450511 
L 211.14424 218.230105 
L 211.457346 217.618763 
L 211.86147 216.282432 
L 212.367537 213.759193 
L 212.990107 209.420021 
L 213.754668 202.393142 
L 214.715829 191.339302 
L 216.088397 172.688825 
L 218.800766 135.50717 
L 219.809258 124.899378 
L 220.592022 118.815123 
L 221.214592 115.546969 
L 221.698814 114.045956 
L 222.055609 113.545089 
L 222.310462 113.506708 
L 222.550753 113.715535 
L 222.852936 114.315376 
L 223.242498 115.638474 
L 223.734001 118.172623 
L 224.342008 122.58356 
L 225.088365 129.766583 
L 226.024041 141.102004 
L 227.323794 159.843205 
L 230.360191 204.475978 
L 231.335915 215.189832 
L 232.096835 221.312912 
L 232.701202 224.564914 
L 233.17086 226.033432 
L 233.513092 226.500128 
L 233.757023 226.517884 
L 233.993673 226.283593 
L 234.295856 225.62489 
L 234.689059 224.169339 
L 235.184203 221.394971 
L 235.795851 216.584906 
L 236.545848 208.779379 
L 237.488806 196.452777 
L 238.810403 175.938512 
L 241.741218 129.711824 
L 242.727865 117.972837 
L 243.496066 111.248244 
L 244.107714 107.649329 
L 244.584654 106.005768 
L 244.930527 105.473968 
L 245.170817 105.43594 
L 245.396545 105.648824 
L 245.687806 106.278953 
L 246.066445 107.692162 
L 246.547026 110.433393 
L 247.140471 115.219499 
L 247.868623 123.039541 
L 248.782455 135.448716 
L 250.027596 155.690737 
L 253.355254 211.270833 
L 254.298212 222.701481 
L 255.037287 229.208463 
L 255.627091 232.636772 
L 256.078545 234.131098 
L 256.406214 234.583131 
L 256.631941 234.581289 
L 256.857669 234.323083 
L 257.156211 233.588622 
L 257.545773 231.963292 
L 258.037276 228.859127 
L 258.645284 223.466828 
L 259.39164 214.70039 
L 260.330957 200.829614 
L 261.641632 177.824154 
L 264.616136 124.688855 
L 265.599142 111.483328 
L 266.367344 103.897297 
L 266.978992 99.844193 
L 267.452291 98.00808 
L 267.798164 97.408713 
L 268.031173 97.363275 
L 268.245978 97.577973 
L 268.526316 98.227973 
L 268.894034 99.710723 
L 269.363692 102.624644 
L 269.946214 107.765059 
L 270.663445 116.239527 
L 271.555432 129.624614 
L 272.760525 151.384175 
L 276.353958 218.473431 
L 277.26779 230.478343 
L 277.988661 237.277204 
L 278.55662 240.763068 
L 278.993512 242.254215 
L 279.302977 242.667198 
L 279.5105 242.642314 
L 279.728946 242.353729 
L 280.023848 241.538268 
L 280.409769 239.738832 
L 280.897631 236.302556 
L 281.501998 230.328908 
L 282.244714 220.606765 
L 283.18039 205.202062 
L 284.483784 179.676516 
L 287.494695 119.606788 
L 288.474061 104.958292 
L 289.238621 96.554188 
L 289.846629 92.064546 
L 290.319928 90.01491 
L 290.66216 89.34801 
L 290.887887 89.287632 
L 291.088129 89.487529 
L 291.353905 90.120504 
L 291.707059 91.606112 
L 292.162154 94.586355 
L 292.726473 99.887407 
L 293.421858 108.693065 
L 294.284719 122.662819 
L 295.427919 145.107282 
L 299.465526 227.804034 
L 300.324746 239.454169 
L 301.005569 245.948022 
L 301.540761 249.173902 
L 301.944886 250.458906 
L 302.221584 250.755299 
L 302.410904 250.682817 
L 302.632991 250.312388 
L 302.935174 249.315118 
L 303.332017 247.151015 
L 303.834443 243.054129 
L 304.453372 236.026297 
L 305.217933 224.603857 
L 306.186376 206.520202 
L 307.580788 175.812545 
L 310.205779 117.6812 
L 311.225193 100.227441 
L 312.015239 90.188453 
L 312.64145 84.768729 
L 313.132953 82.214865 
L 313.493389 81.328169 
L 313.726397 81.205772 
L 313.912076 81.362848 
L 314.156008 81.912278 
L 314.487317 83.27918 
L 314.916927 86.100826 
L 315.45576 91.261623 
L 316.118379 99.930756 
L 316.937551 113.793102 
L 317.997013 135.808156 
L 319.784628 178.467607 
L 321.579525 219.392554 
L 322.613502 238.180374 
L 323.410829 248.981824 
L 324.047963 254.89117 
L 324.543106 257.672802 
L 324.907183 258.668071 
L 325.147473 258.82972 
L 325.329511 258.68873 
L 325.566161 258.16596 
L 325.890189 256.830667 
L 326.312518 254.030023 
L 326.840428 248.892397 
L 327.492125 240.18788 
L 328.296734 226.224579 
L 329.330711 204.090349 
L 330.976336 163.320463 
L 332.971474 115.267337 
L 334.016373 95.243659 
L 334.820982 83.718806 
L 335.461757 77.411231 
L 335.964182 74.399835 
L 336.33554 73.310858 
L 336.579471 73.130002 
L 336.757869 73.267369 
L 336.990877 73.789818 
L 337.307624 75.120294 
L 337.722671 77.931471 
L 338.2433 83.120933 
L 338.887715 91.962958 
L 339.681402 106.150336 
L 340.700816 128.695418 
L 342.273625 169.139443 
L 344.403472 222.873352 
L 345.448371 243.777409 
L 346.25298 255.814815 
L 346.893755 262.408567 
L 347.39618 265.562133 
L 347.767538 266.707879 
L 348.011469 266.903314 
L 348.186226 266.770348 
L 348.415594 266.250028 
L 348.7287 264.908898 
L 349.140106 262.053672 
L 349.657094 256.755245 
L 350.297869 247.69059 
L 351.087914 233.095014 
L 352.096406 210.001313 
L 353.632808 168.98858 
L 355.842752 110.820046 
L 356.887651 89.071378 
L 357.69226 76.556233 
L 358.333034 69.707352 
L 358.835459 66.437355 
L 359.203177 65.260779 
L 359.443467 65.056443 
L 359.614583 65.184282 
L 359.836669 65.68927 
L 360.146134 67.028987 
L 360.550259 69.880036 
L 361.059966 75.206794 
L 361.689818 84.314243 
L 362.468942 99.063886 
L 363.459229 122.374238 
L 364.930098 162.922782 
L 367.303876 228.01 
L 368.341493 250.347154 
L 369.142461 263.213401 
L 369.779595 270.233753 
L 370.27838 273.573977 
L 370.646097 274.776622 
L 370.882747 274.97618 
L 371.050222 274.844298 
L 371.272308 274.320336 
L 371.581773 272.929321 
L 371.985898 269.968313 
L 372.495605 264.435512 
L 373.125457 254.975504 
L 373.90458 239.655184 
L 374.894868 215.444306 
L 376.365737 173.333504 
L 378.739515 105.749247 
L 379.777132 82.557865 
L 380.5781 69.199823 
L 381.215234 61.910696 
L 381.714018 58.441855 
L 382.081736 57.19206 
L 382.318385 56.983848 
L 382.48222 57.114447 
L 382.700665 57.63822 
L 383.00649 59.04005 
L 383.406974 62.041219 
L 383.91304 67.67335 
L 384.539251 77.336956 
L 385.311093 92.953637 
L 386.294099 117.723404 
L 387.739482 160.48283 
L 390.193357 232.952286 
L 391.227334 256.818748 
L 392.024661 270.534284 
L 392.661795 278.037547 
L 393.156939 281.571551 
L 393.521015 282.839039 
L 393.754024 283.049198 
L 393.914218 282.92034 
L 394.129023 282.39803 
L 394.431206 280.988087 
L 394.828049 277.951497 
L 395.330475 272.227425 
L 395.953045 262.370769 
L 396.721246 246.391685 
L 397.696971 221.069473 
L 399.116869 177.716029 
L 401.65084 100.214047 
L 402.677536 75.781407 
L 403.474863 61.66311 
L 404.108356 54.002413 
L 404.599859 50.406616 
L 404.960295 49.122759 
L 405.193303 48.911211 
L 405.349856 49.043019 
L 405.564661 49.582125 
L 405.866845 51.039327 
L 406.263688 54.179397 
L 406.766113 60.100059 
L 407.388684 70.296527 
L 408.156885 86.82739 
L 409.13261 113.024211 
L 410.552508 157.873696 
L 413.086479 238.044758 
L 414.113174 263.31821 
L 414.910502 277.923191 
L 415.543995 285.84923 
L 416.039138 289.590415 
L 416.399574 290.908625 
L 416.628942 291.121904 
L 416.785495 290.986897 
L 416.996659 290.444258 
L 417.295202 288.973329 
L 417.692045 285.756466 
L 418.194471 279.67179 
L 418.8134 269.243561 
L 419.577961 252.311936 
L 420.546404 225.539451 
L 421.951739 179.778455 
L 424.536681 95.278652 
L 425.559735 69.338289 
L 426.353422 54.371659 
L 426.983274 46.256829 
L 427.474777 42.425082 
L 427.835213 41.060359 
L 428.064581 40.837995 
L 428.217493 40.970115 
L 428.428657 41.52123 
L 428.723559 43.003767 
L 429.116762 46.258322 
L 429.615546 52.434488 
L 430.230835 63.049554 
L 430.991755 80.330859 
L 431.796364 102.825061 
L 431.796364 102.825061 
" clip-path="url(#pe424d80919)" style="fill: none; stroke: #ff7f0e; stroke-width: 1.5; stroke-linecap: square"/>
   </g>
   <g id="patch_3">
    <path d="M 49.52 303.64 
L 49.52 28.32 
" style="fill: none; stroke: #000000; stroke-width: 0.8; stroke-linejoin: miter; stroke-linecap: square"/>
   </g>
   <g id="patch_4">
    <path d="M 450 303.64 
L 450 28.32 
" style="fill: none; stroke: #000000; stroke-width: 0.8; stroke-linejoin: miter; stroke-linecap: square"/>
   </g>
   <g id="patch_5">
    <path d="M 49.52 303.64 
L 450 303.64 
" style="fill: none; stroke: #000000; stroke-width: 0.8; stroke-linejoin: miter; stroke-linecap: square"/>
   </g>
   <g id="patch_6">
    <path d="M 49.52 28.32 
L 450 28.32 
" style="fill: none; stroke: #000000; stroke-width: 0.8; stroke-linejoin: miter; stroke-linecap: square"/>
   </g>
   <g id="text_19">
    <!-- $p(t) - p_{exact}(t)$, $\omega$=1,  $\Delta t$=0.001, steps=100000 -->
    <g transform="translate(109 22.32) scale(0.12 -0.12)">
     <defs>
      <path id="DejaVuSans-2c" d="M 750 794 
L 1409 794 
L 1409 256 
L 897 -744 
L 494 -744 
L 750 256 
L 750 794 
z
" transform="scale(0.015625)"/>
      <path id="DejaVuSans-20" transform="scale(0.015625)"/>
      <path id="DejaVuSans-Oblique-3c9" d="M 1369 -91 
Q 72 -91 434 1766 
Q 575 2500 1256 3500 
L 1875 3500 
Q 1231 2500 1088 1750 
Q 819 397 1519 397 
Q 2166 397 2478 2078 
L 3009 2078 
Q 2669 388 3316 397 
Q 4013 403 4275 1750 
Q 4419 2500 4169 3500 
L 4788 3500 
Q 5075 2500 4934 1766 
Q 4578 -94 3278 -91 
Q 2428 -88 2503 844 
Q 2194 -91 1369 -91 
z
" transform="scale(0.015625)"/>
      <path id="DejaVuSans-3d" d="M 678 2906 
L 4684 2906 
L 4684 2381 
L 678 2381 
L 678 2906 
z
M 678 1631 
L 4684 1631 
L 4684 1100 
L 678 1100 
L 678 1631 
z
" transform="scale(0.015625)"/>
      <path id="DejaVuSans-394" d="M 2188 4044 
L 906 525 
L 3472 525 
L 2188 4044 
z
M 50 0 
L 1831 4666 
L 2547 4666 
L 4325 0 
L 50 0 
z
" transform="scale(0.015625)"/>
      <path id="DejaVuSans-2e" d="M 684 794 
L 1344 794 
L 1344 0 
L 684 0 
L 684 794 
z
" transform="scale(0.015625)"/>
      <path id="DejaVuSans-73" d="M 2834 3397 
L 2834 2853 
Q 2591 2978 2328 3040 
Q 2066 3103 1784 3103 
Q 1356 3103 1142 2972 
Q 928 2841 928 2578 
Q 928 2378 1081 2264 
Q 1234 2150 1697 2047 
L 1894 2003 
Q 2506 1872 2764 1633 
Q 3022 1394 3022 966 
Q 3022 478 2636 193 
Q 2250 -91 1575 -91 
Q 1294 -91 989 -36 
Q 684 19 347 128 
L 347 722 
Q 666 556 975 473 
Q 1284 391 1588 391 
Q 1994 391 2212 530 
Q 2431 669 2431 922 
Q 2431 1156 2273 1281 
Q 2116 1406 1581 1522 
L 1381 1569 
Q 847 1681 609 1914 
Q 372 2147 372 2553 
Q 372 3047 722 3315 
Q 1072 3584 1716 3584 
Q 2034 3584 2315 3537 
Q 2597 3491 2834 3397 
z
" transform="scale(0.015625)"/>
      <path id="DejaVuSans-70" d="M 1159 525 
L 1159 -1331 
L 581 -1331 
L 581 3500 
L 1159 3500 
L 1159 2969 
Q 1341 3281 1617 3432 
Q 1894 3584 2278 3584 
Q 2916 3584 3314 3078 
Q 3713 2572 3713 1747 
Q 3713 922 3314 415 
Q 2916 -91 2278 -91 
Q 1894 -91 1617 61 
Q 1341 213 1159 525 
z
M 3116 1747 
Q 3116 2381 2855 2742 
Q 2594 3103 2138 3103 
Q 1681 3103 1420 2742 
Q 1159 2381 1159 1747 
Q 1159 1113 1420 752 
Q 1681 391 2138 391 
Q 2594 391 2855 752 
Q 3116 1113 3116 1747 
z
" transform="scale(0.015625)"/>
     </defs>
     <use xlink:href="#DejaVuSans-Oblique-70" transform="translate(0 0.125)"/>
     <use xlink:href="#DejaVuSans-28" transform="translate(63.476562 0.125)"/>
     <use xlink:href="#DejaVuSans-Oblique-74" transform="translate(102.490234 0.125)"/>
     <use xlink:href="#DejaVuSans-29" transform="translate(141.699219 0.125)"/>
     <use xlink:href="#DejaVuSans-2212" transform="translate(200.195312 0.125)"/>
     <use xlink:href="#DejaVuSans-Oblique-70" transform="translate(303.466797 0.125)"/>
     <use xlink:href="#DejaVuSans-Oblique-65" transform="translate(366.943359 -16.28125) scale(0.7)"/>
     <use xlink:href="#DejaVuSans-Oblique-78" transform="translate(410.009766 -16.28125) scale(0.7)"/>
     <use xlink:href="#DejaVuSans-Oblique-61" transform="translate(451.435547 -16.28125) scale(0.7)"/>
     <use xlink:href="#DejaVuSans-Oblique-63" transform="translate(494.331055 -16.28125) scale(0.7)"/>
     <use xlink:href="#DejaVuSans-Oblique-74" transform="translate(532.817383 -16.28125) scale(0.7)"/>
     <use xlink:href="#DejaVuSans-28" transform="translate(562.998047 0.125)"/>
     <use xlink:href="#DejaVuSans-Oblique-74" transform="translate(602.011719 0.125)"/>
     <use xlink:href="#DejaVuSans-29" transform="translate(641.220703 0.125)"/>
     <use xlink:href="#DejaVuSans-2c" transform="translate(680.234375 0.125)"/>
     <use xlink:href="#DejaVuSans-20" transform="translate(712.021484 0.125)"/>
     <use xlink:href="#DejaVuSans-Oblique-3c9" transform="translate(743.808594 0.125)"/>
     <use xlink:href="#DejaVuSans-3d" transform="translate(827.548828 0.125)"/>
     <use xlink:href="#DejaVuSans-31" transform="translate(911.337891 0.125)"/>
     <use xlink:href="#DejaVuSans-2c" transform="translate(974.960938 0.125)"/>
     <use xlink:href="#DejaVuSans-20" transform="translate(1006.748047 0.125)"/>
     <use xlink:href="#DejaVuSans-20" transform="translate(1038.535156 0.125)"/>
     <use xlink:href="#DejaVuSans-394" transform="translate(1070.322266 0.125)"/>
     <use xlink:href="#DejaVuSans-Oblique-74" transform="translate(1138.730469 0.125)"/>
     <use xlink:href="#DejaVuSans-3d" transform="translate(1177.939453 0.125)"/>
     <use xlink:href="#DejaVuSans-30" transform="translate(1261.728516 0.125)"/>
     <use xlink:href="#DejaVuSans-2e" transform="translate(1325.351562 0.125)"/>
     <use xlink:href="#DejaVuSans-30" transform="translate(1357.138672 0.125)"/>
     <use xlink:href="#DejaVuSans-30" transform="translate(1420.761719 0.125)"/>
     <use xlink:href="#DejaVuSans-31" transform="translate(1484.384766 0.125)"/>
     <use xlink:href="#DejaVuSans-2c" transform="translate(1548.007812 0.125)"/>
     <use xlink:href="#DejaVuSans-20" transform="translate(1579.794922 0.125)"/>
     <use xlink:href="#DejaVuSans-73" transform="translate(1611.582031 0.125)"/>
     <use xlink:href="#DejaVuSans-74" transform="translate(1663.681641 0.125)"/>
     <use xlink:href="#DejaVuSans-65" transform="translate(1702.890625 0.125)"/>
     <use xlink:href="#DejaVuSans-70" transform="translate(1764.414062 0.125)"/>
     <use xlink:href="#DejaVuSans-73" transform="translate(1827.890625 0.125)"/>
     <use xlink:href="#DejaVuSans-3d" transform="translate(1879.990234 0.125)"/>
     <use xlink:href="#DejaVuSans-31" transform="translate(1963.779297 0.125)"/>
     <use xlink:href="#DejaVuSans-30" transform="translate(2027.402344 0.125)"/>
     <use xlink:href="#DejaVuSans-30" transform="translate(2091.025391 0.125)"/>
     <use xlink:href="#DejaVuSans-30" transform="translate(2154.648438 0.125)"/>
     <use xlink:href="#DejaVuSans-30" transform="translate(2218.271484 0.125)"/>
     <use xlink:href="#DejaVuSans-30" transform="translate(2281.894531 0.125)"/>
    </g>
   </g>
   <g id="legend_1">
    <g id="patch_7">
     <path d="M 56.52 65.67625 
L 160.110625 65.67625 
Q 162.110625 65.67625 162.110625 63.67625 
L 162.110625 35.32 
Q 162.110625 33.32 160.110625 33.32 
L 56.52 33.32 
Q 54.52 33.32 54.52 35.32 
L 54.52 63.67625 
Q 54.52 65.67625 56.52 65.67625 
z
" style="fill: #ffffff; opacity: 0.8; stroke: #cccccc; stroke-linejoin: miter"/>
    </g>
    <g id="line2d_18">
     <path d="M 58.52 41.418438 
L 68.52 41.418438 
L 78.52 41.418438 
" style="fill: none; stroke: #1f77b4; stroke-width: 1.5; stroke-linecap: square"/>
    </g>
    <g id="text_20">
     <!-- Velocity Verlet -->
     <g transform="translate(86.52 44.918438) scale(0.1 -0.1)">
      <defs>
       <path id="DejaVuSans-56" d="M 1831 0 
L 50 4666 
L 709 4666 
L 2188 738 
L 3669 4666 
L 4325 4666 
L 2547 0 
L 1831 0 
z
" transform="scale(0.015625)"/>
       <path id="DejaVuSans-6c" d="M 603 4863 
L 1178 4863 
L 1178 0 
L 603 0 
L 603 4863 
z
" transform="scale(0.015625)"/>
       <path id="DejaVuSans-6f" d="M 1959 3097 
Q 1497 3097 1228 2736 
Q 959 2375 959 1747 
Q 959 1119 1226 758 
Q 1494 397 1959 397 
Q 2419 397 2687 759 
Q 2956 1122 2956 1747 
Q 2956 2369 2687 2733 
Q 2419 3097 1959 3097 
z
M 1959 3584 
Q 2709 3584 3137 3096 
Q 3566 2609 3566 1747 
Q 3566 888 3137 398 
Q 2709 -91 1959 -91 
Q 1206 -91 779 398 
Q 353 888 353 1747 
Q 353 2609 779 3096 
Q 1206 3584 1959 3584 
z
" transform="scale(0.015625)"/>
       <path id="DejaVuSans-63" d="M 3122 3366 
L 3122 2828 
Q 2878 2963 2633 3030 
Q 2388 3097 2138 3097 
Q 1578 3097 1268 2742 
Q 959 2388 959 1747 
Q 959 1106 1268 751 
Q 1578 397 2138 397 
Q 2388 397 2633 464 
Q 2878 531 3122 666 
L 3122 134 
Q 2881 22 2623 -34 
Q 2366 -91 2075 -91 
Q 1284 -91 818 406 
Q 353 903 353 1747 
Q 353 2603 823 3093 
Q 1294 3584 2113 3584 
Q 2378 3584 2631 3529 
Q 2884 3475 3122 3366 
z
" transform="scale(0.015625)"/>
       <path id="DejaVuSans-79" d="M 2059 -325 
Q 1816 -950 1584 -1140 
Q 1353 -1331 966 -1331 
L 506 -1331 
L 506 -850 
L 844 -850 
Q 1081 -850 1212 -737 
Q 1344 -625 1503 -206 
L 1606 56 
L 191 3500 
L 800 3500 
L 1894 763 
L 2988 3500 
L 3597 3500 
L 2059 -325 
z
" transform="scale(0.015625)"/>
       <path id="DejaVuSans-72" d="M 2631 2963 
Q 2534 3019 2420 3045 
Q 2306 3072 2169 3072 
Q 1681 3072 1420 2755 
Q 1159 2438 1159 1844 
L 1159 0 
L 581 0 
L 581 3500 
L 1159 3500 
L 1159 2956 
Q 1341 3275 1631 3429 
Q 1922 3584 2338 3584 
Q 2397 3584 2469 3576 
Q 2541 3569 2628 3553 
L 2631 2963 
z
" transform="scale(0.015625)"/>
      </defs>
      <use xlink:href="#DejaVuSans-56"/>
      <use xlink:href="#DejaVuSans-65" transform="translate(60.658203 0)"/>
      <use xlink:href="#DejaVuSans-6c" transform="translate(122.181641 0)"/>
      <use xlink:href="#DejaVuSans-6f" transform="translate(149.964844 0)"/>
      <use xlink:href="#DejaVuSans-63" transform="translate(211.146484 0)"/>
      <use xlink:href="#DejaVuSans-69" transform="translate(266.126953 0)"/>
      <use xlink:href="#DejaVuSans-74" transform="translate(293.910156 0)"/>
      <use xlink:href="#DejaVuSans-79" transform="translate(333.119141 0)"/>
      <use xlink:href="#DejaVuSans-20" transform="translate(392.298828 0)"/>
      <use xlink:href="#DejaVuSans-56" transform="translate(424.085938 0)"/>
      <use xlink:href="#DejaVuSans-65" transform="translate(484.744141 0)"/>
      <use xlink:href="#DejaVuSans-72" transform="translate(546.267578 0)"/>
      <use xlink:href="#DejaVuSans-6c" transform="translate(587.380859 0)"/>
      <use xlink:href="#DejaVuSans-65" transform="translate(615.164062 0)"/>
      <use xlink:href="#DejaVuSans-74" transform="translate(676.6875 0)"/>
     </g>
    </g>
    <g id="line2d_19">
     <path d="M 58.52 56.096563 
L 68.52 56.096563 
L 78.52 56.096563 
" style="fill: none; stroke: #ff7f0e; stroke-width: 1.5; stroke-linecap: square"/>
    </g>
    <g id="text_21">
     <!-- Beeman's Alg -->
     <g transform="translate(86.52 59.596563) scale(0.1 -0.1)">
      <defs>
       <path id="DejaVuSans-42" d="M 1259 2228 
L 1259 519 
L 2272 519 
Q 2781 519 3026 730 
Q 3272 941 3272 1375 
Q 3272 1813 3026 2020 
Q 2781 2228 2272 2228 
L 1259 2228 
z
M 1259 4147 
L 1259 2741 
L 2194 2741 
Q 2656 2741 2882 2914 
Q 3109 3088 3109 3444 
Q 3109 3797 2882 3972 
Q 2656 4147 2194 4147 
L 1259 4147 
z
M 628 4666 
L 2241 4666 
Q 2963 4666 3353 4366 
Q 3744 4066 3744 3513 
Q 3744 3084 3544 2831 
Q 3344 2578 2956 2516 
Q 3422 2416 3680 2098 
Q 3938 1781 3938 1306 
Q 3938 681 3513 340 
Q 3088 0 2303 0 
L 628 0 
L 628 4666 
z
" transform="scale(0.015625)"/>
       <path id="DejaVuSans-61" d="M 2194 1759 
Q 1497 1759 1228 1600 
Q 959 1441 959 1056 
Q 959 750 1161 570 
Q 1363 391 1709 391 
Q 2188 391 2477 730 
Q 2766 1069 2766 1631 
L 2766 1759 
L 2194 1759 
z
M 3341 1997 
L 3341 0 
L 2766 0 
L 2766 531 
Q 2569 213 2275 61 
Q 1981 -91 1556 -91 
Q 1019 -91 701 211 
Q 384 513 384 1019 
Q 384 1609 779 1909 
Q 1175 2209 1959 2209 
L 2766 2209 
L 2766 2266 
Q 2766 2663 2505 2880 
Q 2244 3097 1772 3097 
Q 1472 3097 1187 3025 
Q 903 2953 641 2809 
L 641 3341 
Q 956 3463 1253 3523 
Q 1550 3584 1831 3584 
Q 2591 3584 2966 3190 
Q 3341 2797 3341 1997 
z
" transform="scale(0.015625)"/>
       <path id="DejaVuSans-6e" d="M 3513 2113 
L 3513 0 
L 2938 0 
L 2938 2094 
Q 2938 2591 2744 2837 
Q 2550 3084 2163 3084 
Q 1697 3084 1428 2787 
Q 1159 2491 1159 1978 
L 1159 0 
L 581 0 
L 581 3500 
L 1159 3500 
L 1159 2956 
Q 1366 3272 1645 3428 
Q 1925 3584 2291 3584 
Q 2894 3584 3203 3211 
Q 3513 2838 3513 2113 
z
" transform="scale(0.015625)"/>
       <path id="DejaVuSans-27" d="M 1147 4666 
L 1147 2931 
L 616 2931 
L 616 4666 
L 1147 4666 
z
" transform="scale(0.015625)"/>
       <path id="DejaVuSans-41" d="M 2188 4044 
L 1331 1722 
L 3047 1722 
L 2188 4044 
z
M 1831 4666 
L 2547 4666 
L 4325 0 
L 3669 0 
L 3244 1197 
L 1141 1197 
L 716 0 
L 50 0 
L 1831 4666 
z
" transform="scale(0.015625)"/>
       <path id="DejaVuSans-67" d="M 2906 1791 
Q 2906 2416 2648 2759 
Q 2391 3103 1925 3103 
Q 1463 3103 1205 2759 
Q 947 2416 947 1791 
Q 947 1169 1205 825 
Q 1463 481 1925 481 
Q 2391 481 2648 825 
Q 2906 1169 2906 1791 
z
M 3481 434 
Q 3481 -459 3084 -895 
Q 2688 -1331 1869 -1331 
Q 1566 -1331 1297 -1286 
Q 1028 -1241 775 -1147 
L 775 -588 
Q 1028 -725 1275 -790 
Q 1522 -856 1778 -856 
Q 2344 -856 2625 -561 
Q 2906 -266 2906 331 
L 2906 616 
Q 2728 306 2450 153 
Q 2172 0 1784 0 
Q 1141 0 747 490 
Q 353 981 353 1791 
Q 353 2603 747 3093 
Q 1141 3584 1784 3584 
Q 2172 3584 2450 3431 
Q 2728 3278 2906 2969 
L 2906 3500 
L 3481 3500 
L 3481 434 
z
" transform="scale(0.015625)"/>
      </defs>
      <use xlink:href="#DejaVuSans-42"/>
      <use xlink:href="#DejaVuSans-65" transform="translate(68.603516 0)"/>
      <use xlink:href="#DejaVuSans-65" transform="translate(130.126953 0)"/>
      <use xlink:href="#DejaVuSans-6d" transform="translate(191.650391 0)"/>
      <use xlink:href="#DejaVuSans-61" transform="translate(289.0625 0)"/>
      <use xlink:href="#DejaVuSans-6e" transform="translate(350.341797 0)"/>
      <use xlink:href="#DejaVuSans-27" transform="translate(413.720703 0)"/>
      <use xlink:href="#DejaVuSans-73" transform="translate(441.210938 0)"/>
      <use xlink:href="#DejaVuSans-20" transform="translate(493.310547 0)"/>
      <use xlink:href="#DejaVuSans-41" transform="translate(525.097656 0)"/>
      <use xlink:href="#DejaVuSans-6c" transform="translate(593.505859 0)"/>
      <use xlink:href="#DejaVuSans-67" transform="translate(621.289062 0)"/>
     </g>
    </g>
   </g>
  </g>
 </g>
 <defs>
  <clipPath id="pe424d80919">
   <rect x="49.52" y="28.32" width="400.48" height="275.32"/>
  </clipPath>
 </defs>
</svg>
