<?xml version="1.0" encoding="utf-8" standalone="no"?>
<!DOCTYPE svg PUBLIC "-//W3C//DTD SVG 1.1//EN"
  "http://www.w3.org/Graphics/SVG/1.1/DTD/svg11.dtd">
<svg xmlns:xlink="http://www.w3.org/1999/xlink" width="396pt" height="396pt" viewBox="0 0 396 396" xmlns="http://www.w3.org/2000/svg" version="1.1">
 <metadata>
  <rdf:RDF xmlns:dc="http://purl.org/dc/elements/1.1/" xmlns:cc="http://creativecommons.org/ns#" xmlns:rdf="http://www.w3.org/1999/02/22-rdf-syntax-ns#">
   <cc:Work>
    <dc:type rdf:resource="http://purl.org/dc/dcmitype/StillImage"/>
    <dc:date>2025-05-13T23:17:16.310441</dc:date>
    <dc:format>image/svg+xml</dc:format>
    <dc:creator>
     <cc:Agent>
      <dc:title>Matplotlib v3.10.1, https://matplotlib.org/</dc:title>
     </cc:Agent>
    </dc:creator>
   </cc:Work>
  </rdf:RDF>
 </metadata>
 <defs>
  <style type="text/css">*{stroke-linejoin: round; stroke-linecap: butt}</style>
 </defs>
 <g id="figure_1">
  <g id="patch_1">
   <path d="M 0 396 
L 396 396 
L 396 0 
L 0 0 
z
" style="fill: #ffffff"/>
  </g>
  <g id="axes_1">
   <g id="patch_2">
    <path d="M 65.27 351.16 
L 385.2 351.16 
L 385.2 28.32 
L 65.27 28.32 
z
" style="fill: #ffffff"/>
   </g>
   <g id="matplotlib.axis_1">
    <g id="xtick_1">
     <g id="line2d_1">
      <defs>
       <path id="me53b9cf0be" d="M 0 0 
L 0 3.5 
" style="stroke: #000000; stroke-width: 0.8"/>
      </defs>
      <g>
       <use xlink:href="#me53b9cf0be" x="79.814088" y="351.16" style="stroke: #000000; stroke-width: 0.8"/>
      </g>
     </g>
     <g id="text_1">
      <!-- −1.00 -->
      <g transform="translate(64.491432 365.758438) scale(0.1 -0.1)">
       <defs>
        <path id="DejaVuSans-2212" d="M 678 2272 
L 4684 2272 
L 4684 1741 
L 678 1741 
L 678 2272 
z
" transform="scale(0.015625)"/>
        <path id="DejaVuSans-31" d="M 794 531 
L 1825 531 
L 1825 4091 
L 703 3866 
L 703 4441 
L 1819 4666 
L 2450 4666 
L 2450 531 
L 3481 531 
L 3481 0 
L 794 0 
L 794 531 
z
" transform="scale(0.015625)"/>
        <path id="DejaVuSans-2e" d="M 684 794 
L 1344 794 
L 1344 0 
L 684 0 
L 684 794 
z
" transform="scale(0.015625)"/>
        <path id="DejaVuSans-30" d="M 2034 4250 
Q 1547 4250 1301 3770 
Q 1056 3291 1056 2328 
Q 1056 1369 1301 889 
Q 1547 409 2034 409 
Q 2525 409 2770 889 
Q 3016 1369 3016 2328 
Q 3016 3291 2770 3770 
Q 2525 4250 2034 4250 
z
M 2034 4750 
Q 2819 4750 3233 4129 
Q 3647 3509 3647 2328 
Q 3647 1150 3233 529 
Q 2819 -91 2034 -91 
Q 1250 -91 836 529 
Q 422 1150 422 2328 
Q 422 3509 836 4129 
Q 1250 4750 2034 4750 
z
" transform="scale(0.015625)"/>
       </defs>
       <use xlink:href="#DejaVuSans-2212"/>
       <use xlink:href="#DejaVuSans-31" transform="translate(83.789062 0)"/>
       <use xlink:href="#DejaVuSans-2e" transform="translate(147.412109 0)"/>
       <use xlink:href="#DejaVuSans-30" transform="translate(179.199219 0)"/>
       <use xlink:href="#DejaVuSans-30" transform="translate(242.822266 0)"/>
      </g>
     </g>
    </g>
    <g id="xtick_2">
     <g id="line2d_2">
      <g>
       <use xlink:href="#me53b9cf0be" x="116.169317" y="351.16" style="stroke: #000000; stroke-width: 0.8"/>
      </g>
     </g>
     <g id="text_2">
      <!-- −0.75 -->
      <g transform="translate(100.846661 365.758438) scale(0.1 -0.1)">
       <defs>
        <path id="DejaVuSans-37" d="M 525 4666 
L 3525 4666 
L 3525 4397 
L 1831 0 
L 1172 0 
L 2766 4134 
L 525 4134 
L 525 4666 
z
" transform="scale(0.015625)"/>
        <path id="DejaVuSans-35" d="M 691 4666 
L 3169 4666 
L 3169 4134 
L 1269 4134 
L 1269 2991 
Q 1406 3038 1543 3061 
Q 1681 3084 1819 3084 
Q 2600 3084 3056 2656 
Q 3513 2228 3513 1497 
Q 3513 744 3044 326 
Q 2575 -91 1722 -91 
Q 1428 -91 1123 -41 
Q 819 9 494 109 
L 494 744 
Q 775 591 1075 516 
Q 1375 441 1709 441 
Q 2250 441 2565 725 
Q 2881 1009 2881 1497 
Q 2881 1984 2565 2268 
Q 2250 2553 1709 2553 
Q 1456 2553 1204 2497 
Q 953 2441 691 2322 
L 691 4666 
z
" transform="scale(0.015625)"/>
       </defs>
       <use xlink:href="#DejaVuSans-2212"/>
       <use xlink:href="#DejaVuSans-30" transform="translate(83.789062 0)"/>
       <use xlink:href="#DejaVuSans-2e" transform="translate(147.412109 0)"/>
       <use xlink:href="#DejaVuSans-37" transform="translate(179.199219 0)"/>
       <use xlink:href="#DejaVuSans-35" transform="translate(242.822266 0)"/>
      </g>
     </g>
    </g>
    <g id="xtick_3">
     <g id="line2d_3">
      <g>
       <use xlink:href="#me53b9cf0be" x="152.524546" y="351.16" style="stroke: #000000; stroke-width: 0.8"/>
      </g>
     </g>
     <g id="text_3">
      <!-- −0.50 -->
      <g transform="translate(137.20189 365.758438) scale(0.1 -0.1)">
       <use xlink:href="#DejaVuSans-2212"/>
       <use xlink:href="#DejaVuSans-30" transform="translate(83.789062 0)"/>
       <use xlink:href="#DejaVuSans-2e" transform="translate(147.412109 0)"/>
       <use xlink:href="#DejaVuSans-35" transform="translate(179.199219 0)"/>
       <use xlink:href="#DejaVuSans-30" transform="translate(242.822266 0)"/>
      </g>
     </g>
    </g>
    <g id="xtick_4">
     <g id="line2d_4">
      <g>
       <use xlink:href="#me53b9cf0be" x="188.879775" y="351.16" style="stroke: #000000; stroke-width: 0.8"/>
      </g>
     </g>
     <g id="text_4">
      <!-- −0.25 -->
      <g transform="translate(173.557119 365.758438) scale(0.1 -0.1)">
       <defs>
        <path id="DejaVuSans-32" d="M 1228 531 
L 3431 531 
L 3431 0 
L 469 0 
L 469 531 
Q 828 903 1448 1529 
Q 2069 2156 2228 2338 
Q 2531 2678 2651 2914 
Q 2772 3150 2772 3378 
Q 2772 3750 2511 3984 
Q 2250 4219 1831 4219 
Q 1534 4219 1204 4116 
Q 875 4013 500 3803 
L 500 4441 
Q 881 4594 1212 4672 
Q 1544 4750 1819 4750 
Q 2544 4750 2975 4387 
Q 3406 4025 3406 3419 
Q 3406 3131 3298 2873 
Q 3191 2616 2906 2266 
Q 2828 2175 2409 1742 
Q 1991 1309 1228 531 
z
" transform="scale(0.015625)"/>
       </defs>
       <use xlink:href="#DejaVuSans-2212"/>
       <use xlink:href="#DejaVuSans-30" transform="translate(83.789062 0)"/>
       <use xlink:href="#DejaVuSans-2e" transform="translate(147.412109 0)"/>
       <use xlink:href="#DejaVuSans-32" transform="translate(179.199219 0)"/>
       <use xlink:href="#DejaVuSans-35" transform="translate(242.822266 0)"/>
      </g>
     </g>
    </g>
    <g id="xtick_5">
     <g id="line2d_5">
      <g>
       <use xlink:href="#me53b9cf0be" x="225.235004" y="351.16" style="stroke: #000000; stroke-width: 0.8"/>
      </g>
     </g>
     <g id="text_5">
      <!-- 0.00 -->
      <g transform="translate(214.102191 365.758438) scale(0.1 -0.1)">
       <use xlink:href="#DejaVuSans-30"/>
       <use xlink:href="#DejaVuSans-2e" transform="translate(63.623047 0)"/>
       <use xlink:href="#DejaVuSans-30" transform="translate(95.410156 0)"/>
       <use xlink:href="#DejaVuSans-30" transform="translate(159.033203 0)"/>
      </g>
     </g>
    </g>
    <g id="xtick_6">
     <g id="line2d_6">
      <g>
       <use xlink:href="#me53b9cf0be" x="261.590232" y="351.16" style="stroke: #000000; stroke-width: 0.8"/>
      </g>
     </g>
     <g id="text_6">
      <!-- 0.25 -->
      <g transform="translate(250.45742 365.758438) scale(0.1 -0.1)">
       <use xlink:href="#DejaVuSans-30"/>
       <use xlink:href="#DejaVuSans-2e" transform="translate(63.623047 0)"/>
       <use xlink:href="#DejaVuSans-32" transform="translate(95.410156 0)"/>
       <use xlink:href="#DejaVuSans-35" transform="translate(159.033203 0)"/>
      </g>
     </g>
    </g>
    <g id="xtick_7">
     <g id="line2d_7">
      <g>
       <use xlink:href="#me53b9cf0be" x="297.945461" y="351.16" style="stroke: #000000; stroke-width: 0.8"/>
      </g>
     </g>
     <g id="text_7">
      <!-- 0.50 -->
      <g transform="translate(286.812649 365.758438) scale(0.1 -0.1)">
       <use xlink:href="#DejaVuSans-30"/>
       <use xlink:href="#DejaVuSans-2e" transform="translate(63.623047 0)"/>
       <use xlink:href="#DejaVuSans-35" transform="translate(95.410156 0)"/>
       <use xlink:href="#DejaVuSans-30" transform="translate(159.033203 0)"/>
      </g>
     </g>
    </g>
    <g id="xtick_8">
     <g id="line2d_8">
      <g>
       <use xlink:href="#me53b9cf0be" x="334.30069" y="351.16" style="stroke: #000000; stroke-width: 0.8"/>
      </g>
     </g>
     <g id="text_8">
      <!-- 0.75 -->
      <g transform="translate(323.167878 365.758438) scale(0.1 -0.1)">
       <use xlink:href="#DejaVuSans-30"/>
       <use xlink:href="#DejaVuSans-2e" transform="translate(63.623047 0)"/>
       <use xlink:href="#DejaVuSans-37" transform="translate(95.410156 0)"/>
       <use xlink:href="#DejaVuSans-35" transform="translate(159.033203 0)"/>
      </g>
     </g>
    </g>
    <g id="xtick_9">
     <g id="line2d_9">
      <g>
       <use xlink:href="#me53b9cf0be" x="370.655919" y="351.16" style="stroke: #000000; stroke-width: 0.8"/>
      </g>
     </g>
     <g id="text_9">
      <!-- 1.00 -->
      <g transform="translate(359.523106 365.758438) scale(0.1 -0.1)">
       <use xlink:href="#DejaVuSans-31"/>
       <use xlink:href="#DejaVuSans-2e" transform="translate(63.623047 0)"/>
       <use xlink:href="#DejaVuSans-30" transform="translate(95.410156 0)"/>
       <use xlink:href="#DejaVuSans-30" transform="translate(159.033203 0)"/>
      </g>
     </g>
    </g>
    <g id="text_10">
     <!-- $q(t)$ -->
     <g transform="translate(216.185 379.438125) scale(0.1 -0.1)">
      <defs>
       <path id="DejaVuSans-Oblique-71" d="M 2669 525 
Q 2438 222 2123 65 
Q 1809 -91 1428 -91 
Q 897 -91 595 267 
Q 294 625 294 1253 
Q 294 1759 480 2231 
Q 666 2703 1013 3078 
Q 1238 3322 1530 3453 
Q 1822 3584 2144 3584 
Q 2531 3584 2781 3431 
Q 3031 3278 3144 2969 
L 3244 3494 
L 3822 3494 
L 2888 -1319 
L 2309 -1319 
L 2669 525 
z
M 891 1338 
Q 891 875 1084 633 
Q 1278 391 1644 391 
Q 2188 391 2572 911 
Q 2956 1431 2956 2175 
Q 2956 2625 2757 2864 
Q 2559 3103 2188 3103 
Q 1916 3103 1684 2976 
Q 1453 2850 1281 2606 
Q 1100 2350 995 2006 
Q 891 1663 891 1338 
z
" transform="scale(0.015625)"/>
       <path id="DejaVuSans-28" d="M 1984 4856 
Q 1566 4138 1362 3434 
Q 1159 2731 1159 2009 
Q 1159 1288 1364 580 
Q 1569 -128 1984 -844 
L 1484 -844 
Q 1016 -109 783 600 
Q 550 1309 550 2009 
Q 550 2706 781 3412 
Q 1013 4119 1484 4856 
L 1984 4856 
z
" transform="scale(0.015625)"/>
       <path id="DejaVuSans-Oblique-74" d="M 2706 3500 
L 2619 3053 
L 1472 3053 
L 1100 1153 
Q 1081 1047 1072 975 
Q 1063 903 1063 863 
Q 1063 663 1183 572 
Q 1303 481 1569 481 
L 2150 481 
L 2053 0 
L 1503 0 
Q 991 0 739 200 
Q 488 400 488 806 
Q 488 878 497 964 
Q 506 1050 525 1153 
L 897 3053 
L 409 3053 
L 500 3500 
L 978 3500 
L 1172 4494 
L 1747 4494 
L 1556 3500 
L 2706 3500 
z
" transform="scale(0.015625)"/>
       <path id="DejaVuSans-29" d="M 513 4856 
L 1013 4856 
Q 1481 4119 1714 3412 
Q 1947 2706 1947 2009 
Q 1947 1309 1714 600 
Q 1481 -109 1013 -844 
L 513 -844 
Q 928 -128 1133 580 
Q 1338 1288 1338 2009 
Q 1338 2731 1133 3434 
Q 928 4138 513 4856 
z
" transform="scale(0.015625)"/>
      </defs>
      <use xlink:href="#DejaVuSans-Oblique-71" transform="translate(0 0.125)"/>
      <use xlink:href="#DejaVuSans-28" transform="translate(63.476562 0.125)"/>
      <use xlink:href="#DejaVuSans-Oblique-74" transform="translate(102.490234 0.125)"/>
      <use xlink:href="#DejaVuSans-29" transform="translate(141.699219 0.125)"/>
     </g>
    </g>
   </g>
   <g id="matplotlib.axis_2">
    <g id="ytick_1">
     <g id="line2d_10">
      <defs>
       <path id="mbfa218e9d6" d="M 0 0 
L -3.5 0 
" style="stroke: #000000; stroke-width: 0.8"/>
      </defs>
      <g>
       <use xlink:href="#mbfa218e9d6" x="65.27" y="336.485462" style="stroke: #000000; stroke-width: 0.8"/>
      </g>
     </g>
     <g id="text_11">
      <!-- −1.00 -->
      <g transform="translate(27.624687 340.284681) scale(0.1 -0.1)">
       <use xlink:href="#DejaVuSans-2212"/>
       <use xlink:href="#DejaVuSans-31" transform="translate(83.789062 0)"/>
       <use xlink:href="#DejaVuSans-2e" transform="translate(147.412109 0)"/>
       <use xlink:href="#DejaVuSans-30" transform="translate(179.199219 0)"/>
       <use xlink:href="#DejaVuSans-30" transform="translate(242.822266 0)"/>
      </g>
     </g>
    </g>
    <g id="ytick_2">
     <g id="line2d_11">
      <g>
       <use xlink:href="#mbfa218e9d6" x="65.27" y="299.799097" style="stroke: #000000; stroke-width: 0.8"/>
      </g>
     </g>
     <g id="text_12">
      <!-- −0.75 -->
      <g transform="translate(27.624687 303.598316) scale(0.1 -0.1)">
       <use xlink:href="#DejaVuSans-2212"/>
       <use xlink:href="#DejaVuSans-30" transform="translate(83.789062 0)"/>
       <use xlink:href="#DejaVuSans-2e" transform="translate(147.412109 0)"/>
       <use xlink:href="#DejaVuSans-37" transform="translate(179.199219 0)"/>
       <use xlink:href="#DejaVuSans-35" transform="translate(242.822266 0)"/>
      </g>
     </g>
    </g>
    <g id="ytick_3">
     <g id="line2d_12">
      <g>
       <use xlink:href="#mbfa218e9d6" x="65.27" y="263.112733" style="stroke: #000000; stroke-width: 0.8"/>
      </g>
     </g>
     <g id="text_13">
      <!-- −0.50 -->
      <g transform="translate(27.624687 266.911951) scale(0.1 -0.1)">
       <use xlink:href="#DejaVuSans-2212"/>
       <use xlink:href="#DejaVuSans-30" transform="translate(83.789062 0)"/>
       <use xlink:href="#DejaVuSans-2e" transform="translate(147.412109 0)"/>
       <use xlink:href="#DejaVuSans-35" transform="translate(179.199219 0)"/>
       <use xlink:href="#DejaVuSans-30" transform="translate(242.822266 0)"/>
      </g>
     </g>
    </g>
    <g id="ytick_4">
     <g id="line2d_13">
      <g>
       <use xlink:href="#mbfa218e9d6" x="65.27" y="226.426368" style="stroke: #000000; stroke-width: 0.8"/>
      </g>
     </g>
     <g id="text_14">
      <!-- −0.25 -->
      <g transform="translate(27.624687 230.225587) scale(0.1 -0.1)">
       <use xlink:href="#DejaVuSans-2212"/>
       <use xlink:href="#DejaVuSans-30" transform="translate(83.789062 0)"/>
       <use xlink:href="#DejaVuSans-2e" transform="translate(147.412109 0)"/>
       <use xlink:href="#DejaVuSans-32" transform="translate(179.199219 0)"/>
       <use xlink:href="#DejaVuSans-35" transform="translate(242.822266 0)"/>
      </g>
     </g>
    </g>
    <g id="ytick_5">
     <g id="line2d_14">
      <g>
       <use xlink:href="#mbfa218e9d6" x="65.27" y="189.740004" style="stroke: #000000; stroke-width: 0.8"/>
      </g>
     </g>
     <g id="text_15">
      <!-- 0.00 -->
      <g transform="translate(36.004375 193.539222) scale(0.1 -0.1)">
       <use xlink:href="#DejaVuSans-30"/>
       <use xlink:href="#DejaVuSans-2e" transform="translate(63.623047 0)"/>
       <use xlink:href="#DejaVuSans-30" transform="translate(95.410156 0)"/>
       <use xlink:href="#DejaVuSans-30" transform="translate(159.033203 0)"/>
      </g>
     </g>
    </g>
    <g id="ytick_6">
     <g id="line2d_15">
      <g>
       <use xlink:href="#mbfa218e9d6" x="65.27" y="153.053639" style="stroke: #000000; stroke-width: 0.8"/>
      </g>
     </g>
     <g id="text_16">
      <!-- 0.25 -->
      <g transform="translate(36.004375 156.852858) scale(0.1 -0.1)">
       <use xlink:href="#DejaVuSans-30"/>
       <use xlink:href="#DejaVuSans-2e" transform="translate(63.623047 0)"/>
       <use xlink:href="#DejaVuSans-32" transform="translate(95.410156 0)"/>
       <use xlink:href="#DejaVuSans-35" transform="translate(159.033203 0)"/>
      </g>
     </g>
    </g>
    <g id="ytick_7">
     <g id="line2d_16">
      <g>
       <use xlink:href="#mbfa218e9d6" x="65.27" y="116.367275" style="stroke: #000000; stroke-width: 0.8"/>
      </g>
     </g>
     <g id="text_17">
      <!-- 0.50 -->
      <g transform="translate(36.004375 120.166493) scale(0.1 -0.1)">
       <use xlink:href="#DejaVuSans-30"/>
       <use xlink:href="#DejaVuSans-2e" transform="translate(63.623047 0)"/>
       <use xlink:href="#DejaVuSans-35" transform="translate(95.410156 0)"/>
       <use xlink:href="#DejaVuSans-30" transform="translate(159.033203 0)"/>
      </g>
     </g>
    </g>
    <g id="ytick_8">
     <g id="line2d_17">
      <g>
       <use xlink:href="#mbfa218e9d6" x="65.27" y="79.68091" style="stroke: #000000; stroke-width: 0.8"/>
      </g>
     </g>
     <g id="text_18">
      <!-- 0.75 -->
      <g transform="translate(36.004375 83.480129) scale(0.1 -0.1)">
       <use xlink:href="#DejaVuSans-30"/>
       <use xlink:href="#DejaVuSans-2e" transform="translate(63.623047 0)"/>
       <use xlink:href="#DejaVuSans-37" transform="translate(95.410156 0)"/>
       <use xlink:href="#DejaVuSans-35" transform="translate(159.033203 0)"/>
      </g>
     </g>
    </g>
    <g id="ytick_9">
     <g id="line2d_18">
      <g>
       <use xlink:href="#mbfa218e9d6" x="65.27" y="42.994545" style="stroke: #000000; stroke-width: 0.8"/>
      </g>
     </g>
     <g id="text_19">
      <!-- 1.00 -->
      <g transform="translate(36.004375 46.793764) scale(0.1 -0.1)">
       <use xlink:href="#DejaVuSans-31"/>
       <use xlink:href="#DejaVuSans-2e" transform="translate(63.623047 0)"/>
       <use xlink:href="#DejaVuSans-30" transform="translate(95.410156 0)"/>
       <use xlink:href="#DejaVuSans-30" transform="translate(159.033203 0)"/>
      </g>
     </g>
    </g>
    <g id="text_20">
     <!-- $p(t)$ -->
     <g transform="translate(21.524687 198.79) rotate(-90) scale(0.1 -0.1)">
      <defs>
       <path id="DejaVuSans-Oblique-70" d="M 3175 2156 
Q 3175 2616 2975 2859 
Q 2775 3103 2400 3103 
Q 2144 3103 1911 2972 
Q 1678 2841 1497 2591 
Q 1319 2344 1212 1994 
Q 1106 1644 1106 1300 
Q 1106 863 1306 627 
Q 1506 391 1875 391 
Q 2147 391 2380 519 
Q 2613 647 2778 891 
Q 2956 1147 3065 1494 
Q 3175 1841 3175 2156 
z
M 1394 2969 
Q 1625 3272 1939 3428 
Q 2253 3584 2638 3584 
Q 3175 3584 3472 3232 
Q 3769 2881 3769 2247 
Q 3769 1728 3584 1258 
Q 3400 788 3053 416 
Q 2822 169 2531 39 
Q 2241 -91 1919 -91 
Q 1547 -91 1294 64 
Q 1041 219 916 525 
L 556 -1331 
L -19 -1331 
L 922 3500 
L 1497 3500 
L 1394 2969 
z
" transform="scale(0.015625)"/>
      </defs>
      <use xlink:href="#DejaVuSans-Oblique-70" transform="translate(0 0.125)"/>
      <use xlink:href="#DejaVuSans-28" transform="translate(63.476562 0.125)"/>
      <use xlink:href="#DejaVuSans-Oblique-74" transform="translate(102.490234 0.125)"/>
      <use xlink:href="#DejaVuSans-29" transform="translate(141.699219 0.125)"/>
     </g>
    </g>
   </g>
   <g id="line2d_19">
    <path d="M 158.024721 319.87247 
L 152.921457 317.056225 
L 147.93388 314.036299 
L 143.069969 310.817524 
L 138.337507 307.405049 
L 133.744062 303.804334 
L 129.296985 300.021139 
L 125.00339 296.061515 
L 120.870145 291.931799 
L 116.903863 287.638596 
L 113.11089 283.188775 
L 109.497292 278.589455 
L 106.068852 273.847993 
L 102.831053 268.971976 
L 99.789077 263.969203 
L 96.947789 258.847678 
L 94.311734 253.615595 
L 91.885131 248.281323 
L 89.671861 242.853397 
L 87.675465 237.340501 
L 85.899137 231.751453 
L 84.345718 226.095195 
L 83.017694 220.380776 
L 81.917189 214.617338 
L 81.045963 208.814101 
L 80.405412 202.98035 
L 79.996559 197.125417 
L 79.820058 191.258668 
L 79.876192 185.38949 
L 80.164872 179.527272 
L 80.685634 173.681392 
L 81.437647 167.861203 
L 82.419706 162.076015 
L 83.630242 156.335084 
L 85.067316 150.647595 
L 86.728631 145.022645 
L 88.611529 139.469235 
L 90.712996 133.996247 
L 93.029672 128.612438 
L 95.557851 123.326422 
L 98.293486 118.146653 
L 101.232203 113.08142 
L 104.369299 108.138825 
L 107.699757 103.326776 
L 111.218247 98.652971 
L 114.919141 94.124886 
L 118.796519 89.749767 
L 122.844176 85.534612 
L 127.055639 81.486165 
L 131.424169 77.610902 
L 135.942778 73.915024 
L 140.604236 70.404442 
L 145.401087 67.084773 
L 150.325655 63.961329 
L 155.370064 61.039104 
L 160.526243 58.322776 
L 165.785943 55.816689 
L 171.140749 53.524852 
L 176.582096 51.450933 
L 182.101277 49.598248 
L 187.689464 47.969762 
L 193.337716 46.56808 
L 199.036997 45.395445 
L 204.77819 44.453731 
L 210.55211 43.744447 
L 216.34952 43.268727 
L 222.161144 43.027331 
L 227.977686 43.020647 
L 233.78984 43.248684 
L 239.588309 43.711077 
L 245.363814 44.407088 
L 251.107118 45.335602 
L 256.809032 46.495135 
L 262.460433 47.883831 
L 268.052281 49.499468 
L 273.57563 51.339462 
L 279.021644 53.400869 
L 284.38161 55.680392 
L 289.646953 58.174383 
L 294.80925 60.878853 
L 299.860242 63.789475 
L 304.791848 66.901592 
L 309.59618 70.210227 
L 314.26555 73.710085 
L 318.79249 77.395568 
L 323.169756 81.260779 
L 327.390346 85.299536 
L 331.447508 89.505376 
L 335.334752 93.871572 
L 339.045857 98.391138 
L 342.574888 103.056844 
L 345.916199 107.861226 
L 349.064444 112.796597 
L 352.014587 117.855062 
L 354.761907 123.028529 
L 357.302011 128.308721 
L 359.630833 133.687191 
L 361.74465 139.155334 
L 363.640078 144.704403 
L 365.314086 150.325519 
L 366.763995 156.009691 
L 367.987486 161.747824 
L 368.982601 167.530739 
L 369.74775 173.349185 
L 370.281706 179.193853 
L 370.583618 185.055392 
L 370.653 190.924426 
L 370.489742 196.791565 
L 370.094107 202.647423 
L 369.466725 208.482632 
L 368.608602 214.287856 
L 367.521109 220.053808 
L 366.205987 225.771265 
L 364.66534 231.431079 
L 362.901632 237.024195 
L 360.917685 242.541666 
L 358.716673 247.974665 
L 356.302117 253.3145 
L 353.67788 258.552629 
L 350.84816 263.680671 
L 347.817484 268.690423 
L 344.5907 273.57387 
L 341.172972 278.3232 
L 337.569765 282.930814 
L 333.786846 287.389342 
L 329.830265 291.69165 
L 325.706353 295.830856 
L 321.421707 299.800338 
L 316.983181 303.593745 
L 312.397876 307.205009 
L 307.673129 310.628353 
L 302.816496 313.858299 
L 297.835749 316.889681 
L 292.738856 319.717649 
L 287.533969 322.337678 
L 282.229417 324.745578 
L 276.833685 326.937496 
L 271.355406 328.909926 
L 265.803343 330.659711 
L 260.186378 332.184053 
L 254.513499 333.480513 
L 248.79378 334.547017 
L 243.036372 335.381859 
L 237.250485 335.983702 
L 231.445375 336.351586 
L 225.63033 336.48492 
L 219.814653 336.383491 
L 214.007647 336.047462 
L 208.218603 335.477371 
L 202.456782 334.674129 
L 196.731401 333.639021 
L 191.05162 332.373704 
L 185.426526 330.880201 
L 179.865118 329.160902 
L 174.376292 327.218557 
L 168.96883 325.056275 
L 163.651382 322.677513 
L 158.432456 320.086078 
L 153.320401 317.286116 
L 148.323395 314.282105 
L 143.449432 311.078851 
L 138.706309 307.68148 
L 134.101616 304.095426 
L 129.642717 300.326426 
L 125.336747 296.38051 
L 121.190594 292.263991 
L 117.210891 287.983453 
L 113.404005 283.545746 
L 109.776027 278.957968 
L 106.33276 274.22746 
L 103.079712 269.361788 
L 100.022089 264.368738 
L 97.164781 259.256296 
L 94.51236 254.032642 
L 92.06907 248.706133 
L 89.838818 243.28529 
L 87.825172 237.778785 
L 86.031355 232.195428 
L 84.460236 226.54415 
L 83.114329 220.833994 
L 81.995786 215.074093 
L 81.106397 209.273662 
L 80.447586 203.441982 
L 80.020405 197.588381 
L 79.825538 191.722224 
L 79.863298 185.852897 
L 80.133623 179.989787 
L 80.636081 174.142277 
L 81.369869 168.319719 
L 82.333812 162.53143 
L 83.526369 156.786669 
L 84.945631 151.094626 
L 86.589328 145.464409 
L 88.45483 139.905023 
L 90.539153 134.425364 
L 92.838963 129.034197 
L 95.350579 123.740147 
L 98.069985 118.551684 
L 100.99283 113.477107 
L 104.114437 108.524537 
L 107.429813 103.701894 
L 110.933653 99.016896 
L 114.620353 94.477036 
L 118.484014 90.089578 
L 122.518456 85.861541 
L 126.717223 81.799688 
L 131.073599 77.910518 
L 135.580615 74.200254 
L 140.231059 70.674829 
L 145.017493 67.339886 
L 149.932259 64.200757 
L 154.967494 61.262467 
L 160.115143 58.529715 
L 165.366971 56.006873 
L 170.714576 53.697977 
L 176.149403 51.606722 
L 181.662756 49.736452 
L 187.245817 48.09016 
L 192.889653 46.670479 
L 198.585235 45.479681 
L 204.323451 44.51967 
L 210.095121 43.791983 
L 215.891012 43.297784 
L 221.701852 43.037862 
L 227.518344 43.012635 
L 233.331183 43.222143 
L 239.13107 43.666049 
L 244.908726 44.343645 
L 250.654908 45.253846 
L 256.360423 46.395196 
L 262.016144 47.765869 
L 267.613022 49.363672 
L 273.142104 51.186049 
L 278.594544 53.230085 
L 283.96162 55.492509 
L 289.234744 57.969703 
L 294.405482 60.657702 
L 299.465561 63.552208 
L 304.406886 66.648588 
L 309.221552 69.941891 
L 313.901856 73.426846 
L 318.440311 77.097879 
L 322.829656 80.949117 
L 327.062869 84.974399 
L 331.133178 89.167285 
L 335.034071 93.521067 
L 338.759307 98.02878 
L 342.302927 102.683212 
L 345.659262 107.476918 
L 348.822943 112.402229 
L 351.788907 117.451264 
L 354.55241 122.615947 
L 357.109031 127.888015 
L 359.454681 133.259034 
L 361.585605 138.720412 
L 363.498396 144.26341 
L 365.189993 149.879162 
L 366.65769 155.558683 
L 367.899139 161.292887 
L 368.912355 167.072601 
L 369.695715 172.888579 
L 370.247966 178.731515 
L 370.568226 184.592063 
L 370.655982 190.460846 
L 370.511094 196.328477 
L 370.133792 202.185567 
L 369.524682 208.022746 
L 368.684737 213.830677 
L 367.615301 219.600067 
L 366.318085 225.321688 
L 364.795165 230.986385 
L 363.048976 236.585096 
L 361.082312 242.108864 
L 358.89832 247.548852 
L 356.500493 252.896358 
L 353.892668 258.142826 
L 351.079016 263.279864 
L 348.064039 268.299252 
L 344.85256 273.192961 
L 341.449717 277.953163 
L 337.860953 282.57224 
L 334.092011 287.042805 
L 330.148919 291.357705 
L 326.037986 295.510037 
L 321.765788 299.493158 
L 317.33916 303.300696 
L 312.765184 306.926559 
L 308.051177 310.364947 
L 303.204681 313.61036 
L 298.233449 316.657605 
L 293.145435 319.501807 
L 287.948777 322.138416 
L 282.651789 324.563214 
L 277.262946 326.772322 
L 271.790869 328.762205 
L 266.244312 330.529681 
L 260.632148 332.071922 
L 254.963356 333.38646 
L 249.247004 334.471192 
L 243.492238 335.324383 
L 237.708264 335.944669 
L 231.904335 336.331056 
L 226.089737 336.482927 
L 220.273771 336.400039 
L 214.465742 336.082523 
L 208.674942 335.53089 
L 202.910635 334.746019 
L 197.182042 333.729169 
L 191.498328 332.481964 
L 185.868587 331.006401 
L 180.301823 329.304839 
L 174.806944 327.380002 
L 169.39274 325.234969 
L 164.067872 322.87317 
L 158.840859 320.298386 
L 153.720063 317.514734 
L 148.713678 314.526667 
L 143.829711 311.338968 
L 139.075976 307.956734 
L 134.460078 304.385377 
L 129.989402 300.63061 
L 125.6711 296.698441 
L 121.512081 292.595159 
L 117.518997 288.32733 
L 113.698237 283.901781 
L 110.055914 279.325591 
L 106.597855 274.606083 
L 103.329591 269.750806 
L 100.256351 264.767528 
L 97.383052 259.66422 
L 94.714291 254.449048 
L 92.254337 249.130355 
L 90.007125 243.716648 
L 87.976251 238.21659 
L 86.164964 232.638979 
L 84.57616 226.992738 
L 83.212383 221.286901 
L 82.075813 215.530594 
L 81.16827 209.733028 
L 80.491204 203.903477 
L 80.0457 198.051267 
L 79.83247 192.185761 
L 79.851854 186.316342 
L 80.103822 180.4524 
L 80.587972 174.603317 
L 81.303527 168.778449 
L 82.249345 162.987116 
L 83.42391 157.238582 
L 84.825345 151.542043 
L 86.451408 145.906614 
L 88.299496 140.341309 
L 90.366654 134.855033 
L 92.649574 129.456561 
L 95.144604 124.154531 
L 97.847753 118.957424 
L 100.754697 113.873556 
L 103.860783 108.911058 
L 107.161045 104.077871 
L 110.650201 99.381726 
L 114.322669 94.830136 
L 118.172575 90.430383 
L 122.19376 86.189506 
L 126.37979 82.114289 
L 130.723969 78.211251 
L 135.219346 74.486637 
L 139.858731 70.946405 
L 144.6347 67.596219 
L 149.539614 64.441439 
L 154.565625 61.487112 
L 159.704694 58.737963 
L 164.948597 56.198392 
L 170.288947 53.87246 
L 175.717199 51.76389 
L 181.22467 49.876053 
L 186.802549 48.211971 
L 192.441912 46.774306 
L 198.133738 45.565356 
L 203.86892 44.587058 
L 209.638283 43.840975 
L 215.432598 43.328302 
L 221.242595 43.049858 
L 227.058979 43.006089 
L 232.872445 43.197064 
L 238.673693 43.62248 
L 244.453441 44.281654 
L 250.202444 45.173532 
L 255.911504 46.296688 
L 261.571488 47.649324 
L 267.17334 49.229277 
L 272.7081 51.034019 
L 278.166912 53.060663 
L 283.541044 55.305966 
L 288.821897 57.766337 
L 294.001024 60.43784 
L 299.07014 63.3162 
L 304.021134 66.396813 
L 308.846086 69.67475 
L 313.537277 73.144768 
L 318.087202 76.801315 
L 322.488582 80.638541 
L 326.734375 84.650308 
L 330.81779 88.830197 
L 334.732294 93.171522 
L 338.471624 97.667337 
L 342.029798 102.310449 
L 345.401124 107.093432 
L 348.580208 112.008632 
L 351.561964 117.048188 
L 354.341622 122.204035 
L 356.914736 127.467927 
L 359.277188 132.831441 
L 361.4252 138.285998 
L 363.355334 143.822871 
L 365.064504 149.433202 
L 366.549975 155.108016 
L 367.809369 160.838235 
L 368.840674 166.61469 
L 369.642238 172.428141 
L 370.212779 178.269288 
L 370.551385 184.128785 
L 370.657513 189.99726 
L 370.530995 195.865322 
L 370.172032 201.723586 
L 369.581199 207.562678 
L 368.759441 213.373258 
L 367.708073 219.146029 
L 366.428776 224.871756 
L 364.923597 230.541279 
L 363.194944 236.145529 
L 361.245583 241.675539 
L 359.078633 247.122462 
L 356.697559 252.477586 
L 354.106172 257.732341 
L 351.308616 262.878322 
L 348.309368 267.907297 
L 345.113226 272.81122 
L 341.725302 277.582245 
L 338.151017 282.21274 
L 334.39609 286.695298 
L 330.466526 291.022746 
L 326.368613 295.188162 
L 322.108906 299.184883 
L 317.69422 303.006513 
L 313.131619 306.646939 
L 308.4284 310.100338 
L 303.592088 313.361185 
L 298.630421 316.424262 
L 293.551336 319.284669 
L 288.362958 321.937832 
L 283.073588 324.379504 
L 277.691688 326.60578 
L 272.225868 328.613097 
L 266.684872 330.398246 
L 261.077564 331.95837 
L 255.412915 333.290973 
L 249.699988 334.393923 
L 243.947922 335.265455 
L 238.165919 335.904176 
L 232.363228 336.309064 
L 226.549135 336.47947 
L 220.732938 336.415123 
L 214.923944 336.116124 
L 209.131446 335.582953 
L 203.364711 334.816463 
L 197.632963 333.817879 
L 191.945373 332.5888 
L 186.31104 331.131191 
L 180.738977 329.447384 
L 175.2381 327.540074 
L 169.817207 325.412311 
L 164.484971 323.067499 
L 159.249924 320.50939 
L 154.120439 317.742076 
L 149.104724 314.769985 
L 144.210802 311.59787 
L 139.446502 308.230807 
L 134.819447 304.674183 
L 130.337038 300.933687 
L 126.006448 297.015304 
L 121.834603 292.925301 
L 117.828178 288.670222 
L 113.993582 284.256875 
L 110.336951 279.69232 
L 106.864133 274.983859 
L 103.580686 270.139025 
L 100.49186 265.165569 
L 97.602599 260.071447 
L 94.917524 254.864808 
L 92.440932 249.553983 
L 90.176783 244.147468 
L 88.1287 238.653911 
L 86.29996 233.082102 
L 84.693488 227.440954 
L 83.311854 221.739493 
L 82.157269 215.986838 
L 81.23158 210.192194 
L 80.536268 204.36483 
L 80.072444 198.51407 
L 79.840852 192.649273 
L 79.841861 186.779822 
L 80.07547 180.915106 
L 80.541306 175.064508 
L 81.238622 169.237389 
L 82.166304 163.443069 
L 83.322867 157.690819 
L 84.706461 151.989842 
L 86.314873 146.349257 
L 88.145529 140.778088 
L 90.195501 135.285249 
L 92.461509 129.879527 
L 94.939928 124.569569 
L 97.626793 119.363872 
L 100.517806 114.270761 
L 103.608341 109.298387 
L 106.893455 104.454703 
L 110.367891 99.747459 
L 114.026092 95.184184 
L 117.862205 90.77218 
L 121.870093 86.518505 
L 126.043344 82.429963 
L 130.375282 78.513096 
L 134.858977 74.77417 
L 139.487255 71.219166 
L 144.252712 67.853772 
L 149.147725 64.683371 
L 154.164462 61.713036 
L 159.294898 58.947519 
L 164.530825 56.391243 
L 169.863866 54.048299 
L 175.28549 51.922434 
L 180.787024 50.01705 
L 186.359665 48.335195 
L 191.994499 46.879559 
L 197.682511 45.652471 
L 203.414602 44.655895 
L 209.181601 43.891424 
L 214.974282 43.360281 
L 220.783378 43.063317 
L 226.599596 43.001006 
L 232.413631 43.173448 
L 238.216182 43.580368 
L 243.997965 44.221114 
L 249.749731 45.09466 
L 255.462279 46.199611 
L 261.126469 47.534197 
L 266.73324 49.096284 
L 272.273622 50.883373 
L 277.738751 52.892605 
L 283.119885 55.120765 
L 288.408415 57.564289 
L 293.59588 60.219268 
L 298.673982 63.081454 
L 303.634595 66.146269 
L 308.469785 69.408808 
L 313.171816 72.863854 
L 317.733166 76.505878 
L 322.146537 80.329054 
L 326.404869 84.327265 
L 330.501349 88.494116 
L 334.429425 92.82294 
L 338.182811 97.306812 
L 341.755503 101.938559 
L 345.141786 106.71077 
L 348.336242 111.615812 
L 351.33376 116.645837 
L 354.129546 121.792797 
L 356.719126 127.04846 
L 359.098358 132.404416 
L 361.263435 137.852098 
L 363.210894 143.382791 
L 364.937619 148.987645 
L 366.440848 154.657695 
L 367.718176 160.38387 
L 368.76756 166.157009 
L 369.587319 171.967876 
L 370.176144 177.807175 
L 370.533093 183.665564 
L 370.657593 189.53367 
L 370.549446 195.402107 
L 370.208825 201.261486 
L 369.636276 207.102432 
L 368.832712 212.915603 
L 367.799422 218.691696 
L 366.538057 224.421473 
L 365.050635 230.095767 
L 363.339536 235.705499 
L 361.407497 241.241696 
L 359.25761 246.6955 
L 356.893313 252.058187 
L 354.31839 257.321177 
L 351.536958 262.476051 
L 348.553469 267.514562 
L 345.372695 272.428649 
L 341.999725 277.210451 
L 338.439955 281.852317 
L 334.699079 286.346823 
L 330.783083 290.686776 
L 326.69823 294.865235 
L 322.451057 298.875515 
L 318.048358 302.7112 
L 313.497176 306.366153 
L 308.804792 309.834528 
L 303.978713 313.110776 
L 299.02666 316.189655 
L 293.956555 319.066239 
L 288.776509 321.735928 
L 283.49481 324.19445 
L 278.119906 326.437872 
L 272.660398 328.462604 
L 267.125018 330.265408 
L 261.522622 331.843399 
L 255.862174 333.194053 
L 250.152728 334.31521 
L 244.403419 335.205075 
L 238.623444 335.862225 
L 232.822051 336.285608 
L 227.008519 336.474548 
L 221.192151 336.428743 
L 215.38225 336.148264 
L 209.588111 335.633562 
L 203.819005 334.885459 
L 198.084159 333.905152 
L 192.39275 332.69421 
L 186.753882 331.25457 
L 181.176576 329.588534 
L 175.669754 327.69877 
L 170.242227 325.588298 
L 164.902678 323.260497 
L 159.659648 320.719089 
L 154.521525 317.968141 
L 149.49653 315.012054 
L 144.592702 311.855557 
L 139.817884 308.503699 
L 135.179718 304.961843 
L 130.685621 301.235655 
L 126.342785 297.331096 
L 122.158157 293.254413 
L 118.138431 289.012128 
L 114.290038 284.611027 
L 110.619134 280.058151 
L 107.131594 275.360785 
L 103.832995 270.526442 
L 100.728615 265.562857 
L 97.82342 260.477971 
L 95.122058 255.279918 
L 92.628851 249.977015 
L 90.347788 244.577744 
L 88.282517 239.090744 
L 86.436342 233.524793 
L 84.812218 227.888794 
L 83.412742 222.191766 
L 82.240153 216.44282 
L 81.296328 210.651156 
L 80.582775 204.826038 
L 80.100637 198.976786 
L 79.850685 193.112756 
L 79.833319 187.243331 
L 80.048567 181.3779 
L 80.496084 175.525846 
L 81.175154 169.696533 
L 82.084691 163.899284 
L 83.22324 158.143376 
L 84.588979 152.438017 
L 86.179724 146.792332 
L 87.99293 141.215356 
L 90.025695 135.716009 
L 92.274769 130.30309 
L 94.736552 124.985258 
L 97.407106 119.771021 
L 100.28216 114.66872 
L 103.357113 109.686518 
L 106.627046 104.832386 
L 110.086728 100.114089 
L 113.730625 95.539175 
L 117.552906 91.114964 
L 121.547457 86.848534 
L 125.707888 82.746709 
L 130.027542 78.816052 
L 134.499509 75.062851 
L 139.116634 71.49311 
L 143.871532 68.112541 
L 148.756595 64.926552 
L 153.764008 61.940239 
L 158.88576 59.15838 
L 164.113658 56.585426 
L 169.439338 54.225492 
L 174.85428 52.082355 
L 180.349821 50.159442 
L 185.917169 48.45983 
L 191.547417 46.986238 
L 197.23156 45.741024 
L 202.960502 44.726179 
L 208.725079 43.943328 
L 214.516068 43.393721 
L 220.324206 43.07824 
L 226.1402 42.997388 
L 231.954745 43.151295 
L 237.758541 43.539715 
L 243.542301 44.162026 
L 249.296774 45.017232 
L 255.012752 46.103966 
L 260.681092 47.420489 
L 266.292725 48.964695 
L 271.838674 50.734113 
L 277.310067 52.725913 
L 282.69815 54.936907 
L 287.994303 57.36356 
L 293.190054 60.001989 
L 298.27709 62.847972 
L 303.247274 65.896958 
L 308.092654 69.144067 
L 312.805478 72.584106 
L 317.378207 76.211571 
L 321.803525 80.020658 
L 326.074353 84.005275 
L 330.183858 88.159046 
L 334.125465 92.475326 
L 337.89287 96.947211 
L 341.480045 101.567545 
L 344.881251 106.328938 
L 348.091047 111.223771 
L 351.104298 116.244215 
L 353.916183 121.382237 
L 356.522204 126.629618 
L 358.918192 131.977964 
L 361.100313 137.418716 
L 363.065077 142.943173 
L 364.809341 148.542495 
L 366.330313 154.207725 
L 367.625561 159.929799 
L 368.693013 165.699564 
L 369.530961 171.507788 
L 370.138064 177.345181 
L 370.513351 183.202403 
L 370.656221 189.070083 
L 370.566447 194.938835 
L 370.244172 200.799271 
L 369.689911 206.642013 
L 368.904551 212.457716 
L 367.889348 218.237075 
L 366.645927 223.970844 
L 365.176277 229.649851 
L 363.482749 235.26501 
L 361.568052 240.807339 
L 359.435249 246.267969 
L 357.087753 251.638167 
L 354.529319 256.909339 
L 351.76404 262.073054 
L 348.79634 267.121051 
L 345.630966 272.045253 
L 342.272983 276.837784 
L 338.727762 281.490975 
L 335.000976 285.997383 
L 331.098586 290.349799 
L 327.026835 294.541259 
L 322.792238 298.565058 
L 318.401569 302.414759 
L 313.861852 306.084203 
L 309.18035 309.567519 
L 304.364552 312.859135 
L 299.422162 315.953785 
L 294.361088 318.846519 
L 289.189426 321.532708 
L 283.91545 324.008054 
L 278.547597 326.268599 
L 273.094454 328.310726 
L 267.564746 330.131166 
L 261.967319 331.72701 
L 256.311127 333.095702 
L 250.60522 334.235054 
L 244.858725 335.143242 
L 239.080836 335.818815 
L 233.280797 336.260691 
L 227.467886 336.468163 
L 221.651403 336.440899 
L 215.840653 336.178943 
L 210.044932 335.682714 
L 204.273513 334.953006 
L 198.535627 333.990986 
L 192.840455 332.798193 
L 187.197108 331.376536 
L 181.614614 329.728289 
L 176.101903 327.856089 
L 170.667796 325.76293 
L 165.320986 323.452162 
L 160.070026 320.927481 
L 154.923317 318.192927 
L 149.889092 315.252873 
L 144.975406 312.112024 
L 140.190119 308.775405 
L 135.540887 305.248352 
L 131.035148 301.536509 
L 126.68011 297.645815 
L 122.482739 293.582492 
L 118.449752 289.353042 
L 114.5876 284.964231 
L 110.902462 280.423081 
L 107.400232 275.736856 
L 104.086515 270.913053 
L 100.966611 265.959389 
L 98.045512 260.88379 
L 95.327891 255.694374 
L 92.818095 250.399445 
L 90.520139 245.007473 
L 88.4377 239.527084 
L 86.57411 233.967046 
L 84.932349 228.336253 
L 83.515045 222.643714 
L 82.324464 216.898536 
L 81.362512 211.10991 
L 80.630726 205.287095 
L 80.130279 199.439409 
L 79.86197 193.576205 
L 79.826229 187.706865 
L 80.023113 181.840777 
L 80.452306 175.987326 
L 81.113124 170.155877 
L 82.004507 164.355758 
L 83.12503 158.596249 
L 84.472901 152.886564 
L 86.045964 147.235837 
L 87.841701 141.653108 
L 89.857239 136.147309 
L 92.089355 130.727247 
L 94.534478 125.401594 
L 97.188695 120.178869 
L 100.047761 115.067428 
L 103.107101 110.075449 
L 106.361821 105.210916 
L 109.806715 100.481614 
L 113.436271 95.895107 
L 117.244682 91.458733 
L 121.225857 87.179589 
L 125.373425 83.064522 
L 129.680752 79.120114 
L 134.140946 75.352676 
L 138.746873 71.768234 
L 143.491164 68.372524 
L 148.366228 65.170978 
L 153.364267 62.168717 
L 158.477285 59.370545 
L 163.697101 56.780937 
L 169.015367 54.404038 
L 174.423572 52.243649 
L 179.913065 50.303227 
L 185.475065 48.585875 
L 191.100672 47.094342 
L 196.780888 45.831014 
L 202.506624 44.797911 
L 208.268721 43.996687 
L 214.057961 43.428622 
L 219.865082 43.094627 
L 225.680794 42.995235 
L 231.495793 43.130605 
L 237.300775 43.500521 
L 243.086455 44.104391 
L 248.843576 44.941249 
L 254.562928 46.009755 
L 260.235361 47.308202 
L 265.851801 48.834511 
L 271.403262 50.58624 
L 276.880862 52.560588 
L 282.27584 54.754395 
L 287.579564 57.164152 
L 292.783549 59.786004 
L 297.87947 62.615757 
L 302.859174 65.648883 
L 307.714696 68.880529 
L 312.438266 72.305527 
L 317.022328 75.918397 
L 321.459549 79.713358 
L 325.74283 83.68434 
L 329.865319 87.82499 
L 333.82042 92.128683 
L 337.601806 96.588535 
L 341.203427 101.197411 
L 344.619522 105.947937 
L 347.844626 110.832514 
L 350.87358 115.843327 
L 353.701536 120.97236 
L 356.323972 126.211407 
L 358.736691 131.552087 
L 360.935835 136.985857 
L 362.917884 142.504022 
L 364.679669 148.097756 
L 366.21837 153.758109 
L 367.531525 159.476025 
L 368.617035 165.242358 
L 369.473162 171.047883 
L 370.098537 176.883311 
L 370.492159 182.739307 
L 370.653398 188.606503 
L 370.581998 194.475512 
L 370.278071 200.336945 
L 369.742104 206.181426 
L 368.974955 211.999603 
L 367.977851 217.782169 
L 366.752387 223.519874 
L 365.300523 229.203538 
L 363.624582 234.824067 
L 361.727246 240.372472 
L 359.61155 245.839874 
L 357.280877 251.217528 
L 354.738958 256.49683 
L 351.989859 261.669335 
L 349.037977 266.726767 
L 345.888035 271.661036 
L 342.545072 276.464247 
L 339.014437 281.128717 
L 335.301777 285.646983 
L 331.413032 290.011818 
L 327.354424 294.216237 
L 323.132446 298.253516 
L 318.75385 302.117194 
L 314.225644 305.801091 
L 309.55507 309.299314 
L 304.749601 312.606266 
L 299.816925 315.716657 
L 294.764932 318.62551 
L 289.601705 321.328172 
L 284.335505 323.820319 
L 278.974755 326.097964 
L 273.528033 328.157464 
L 268.004052 329.995524 
L 262.411648 331.609203 
L 256.75977 332.99592 
L 251.057458 334.153456 
L 245.313835 335.079959 
L 239.53809 335.773947 
L 233.739463 336.234311 
L 227.927231 336.460312 
L 222.110692 336.451591 
L 216.299151 336.20816 
L 210.501905 335.73041 
L 204.72823 335.019104 
L 198.987361 334.07538 
L 193.288483 332.900749 
L 187.640713 331.497089 
L 182.053087 329.866647 
L 176.534543 328.012029 
L 171.09391 325.936205 
L 165.739892 323.642493 
L 160.481054 321.134564 
L 155.32581 318.41643 
L 150.282406 315.49244 
L 145.358912 312.367271 
L 140.563203 309.045923 
L 135.902952 305.533709 
L 131.385615 301.836248 
L 127.018418 297.959456 
L 122.808348 293.909535 
L 118.76214 289.692963 
L 114.886267 285.316486 
L 111.18693 280.787106 
L 107.670047 276.112069 
L 104.341245 271.298853 
L 101.205848 266.35516 
L 98.268874 261.288898 
L 95.53502 256.108172 
L 93.008659 250.821271 
L 90.693835 245.436651 
L 88.594249 239.962928 
L 86.713262 234.408858 
L 85.053881 228.783327 
L 83.618763 223.095335 
L 82.410201 217.353981 
L 81.430131 211.56845 
L 80.68012 205.747997 
L 80.161368 199.901936 
L 79.874705 194.039617 
L 79.820589 188.170419 
L 79.999107 182.303733 
L 80.409974 176.448943 
L 81.052531 170.615416 
L 81.925752 164.812485 
L 83.028239 159.049432 
L 84.358228 153.335479 
L 85.913592 147.679765 
L 87.691842 142.09134 
L 89.690134 136.579143 
L 91.905271 131.151992 
L 94.333708 125.818571 
L 96.971562 120.587411 
L 99.814611 115.466881 
L 102.858308 110.465174 
L 106.097783 105.59029 
L 109.527853 100.85003 
L 113.143032 96.251975 
L 116.937536 91.803482 
L 120.905294 87.511669 
L 125.039959 83.3834 
L 129.334915 79.425281 
L 133.783293 75.643643 
L 138.377975 72.044536 
L 143.111611 68.633719 
L 147.976628 65.416647 
L 152.965243 62.398468 
L 158.069475 59.58401 
L 163.281159 56.977775 
L 168.591956 54.583934 
L 173.993371 52.406315 
L 179.476762 50.448403 
L 185.033358 48.713329 
L 190.654268 47.20387 
L 196.3305 45.92244 
L 202.052973 44.871089 
L 207.812533 44.0515 
L 213.599966 43.464983 
L 219.406012 43.112477 
L 225.221384 42.994546 
L 231.036777 43.111378 
L 236.842889 43.462787 
L 242.63043 44.04821 
L 248.390142 44.86671 
L 254.112811 45.916979 
L 259.789281 47.197336 
L 265.410471 48.705733 
L 270.967388 50.439756 
L 276.451143 52.396632 
L 281.852962 54.57323 
L 287.164203 56.966067 
L 292.37637 59.571317 
L 297.481125 62.38481 
L 302.4703 65.402046 
L 307.335914 68.618198 
L 312.070183 72.028121 
L 316.665533 75.626359 
L 321.114613 79.407156 
L 325.410304 83.364463 
L 329.545735 87.491951 
L 333.51429 91.783014 
L 337.309619 96.230789 
L 340.925652 100.828161 
L 344.356602 105.567773 
L 347.596982 110.442044 
L 350.641607 115.443176 
L 353.485607 120.563168 
L 356.124431 125.793829 
L 358.553859 131.126792 
L 360.770003 136.553523 
L 362.769318 142.065343 
L 364.548605 147.653432 
L 366.105019 153.308852 
L 367.436069 159.022554 
L 368.539625 164.785397 
L 369.413923 170.588163 
L 370.057564 176.421569 
L 370.469517 182.276281 
L 370.649124 188.142933 
L 370.596098 194.012141 
L 370.310523 199.874514 
L 369.792856 205.720674 
L 369.043925 211.541268 
L 368.064929 217.326984 
L 366.857434 223.068567 
L 365.423371 228.75683 
L 363.765035 234.382675 
L 361.885078 239.9371 
L 359.786509 245.411219 
L 357.472684 250.796276 
L 354.947305 256.083656 
L 352.214412 261.264898 
L 349.278378 266.331715 
L 346.1439 271.276001 
L 342.815991 276.089845 
L 339.299976 280.765547 
L 335.60148 285.295626 
L 331.72642 289.672836 
L 327.680994 293.890172 
L 323.471676 297.94089 
L 319.105199 301.818507 
L 314.588548 305.516822 
L 309.928949 309.029916 
L 305.133857 312.352171 
L 300.210942 315.478271 
L 295.168082 318.403214 
L 290.013342 321.122322 
L 284.75497 323.631245 
L 279.401378 325.925969 
L 273.96113 328.002822 
L 268.442931 329.858482 
L 262.855607 331.489981 
L 257.208098 332.894708 
L 251.509438 334.070416 
L 245.768745 335.015225 
L 239.995201 335.727622 
L 234.198045 336.206468 
L 228.386549 336.450998 
L 222.570011 336.460819 
L 216.757737 336.235915 
L 210.959025 335.776648 
L 205.183151 335.083752 
L 199.439357 334.158334 
L 193.73683 333.001876 
L 188.084694 331.616228 
L 182.491991 330.003606 
L 176.967669 328.16659 
L 171.520564 326.10812 
L 166.159392 323.831487 
L 160.892729 321.340336 
L 155.729001 318.63865 
L 150.676468 315.730752 
L 145.743215 312.621294 
L 140.937132 309.31525 
L 136.265909 305.81791 
L 131.737018 302.134869 
L 127.357706 298.272018 
L 123.134978 294.235538 
L 119.07559 290.031885 
L 115.186035 285.667786 
L 111.472537 281.150222 
L 107.941035 276.486419 
L 104.597181 271.68384 
L 101.446323 266.750167 
L 98.493503 261.693293 
L 95.743443 256.521308 
L 93.200544 251.242486 
L 90.868874 245.865273 
L 88.752162 240.39827 
L 86.853796 234.850225 
L 85.176812 229.230012 
L 83.723893 223.546623 
L 82.497364 217.80915 
L 81.499186 212.026772 
L 80.730957 206.20874 
L 80.193906 200.364361 
L 79.888891 194.502985 
L 79.816401 188.633989 
L 79.976552 182.766763 
L 80.369087 176.910693 
L 80.993378 171.075146 
L 81.848428 165.26946 
L 82.932867 159.502922 
L 84.244961 153.784757 
L 85.782611 148.124114 
L 87.543357 142.530047 
L 89.524382 137.011507 
L 91.722517 131.577322 
L 94.134245 126.236186 
L 96.755708 120.996643 
L 99.582713 115.867076 
L 102.610736 110.855691 
L 105.834933 105.970504 
L 109.250146 101.219333 
L 112.850912 96.609776 
L 116.631471 92.149209 
L 120.585773 87.844768 
L 124.707492 83.70334 
L 128.990036 79.731548 
L 133.426553 75.935748 
L 138.009944 72.322012 
L 142.732879 68.896122 
L 147.5878 65.663557 
L 152.566941 62.62949 
L 157.662337 59.798774 
L 162.865835 57.175939 
L 168.169111 54.765179 
L 173.563682 52.570352 
L 179.040916 50.594969 
L 184.592052 48.84219 
L 190.208208 47.31482 
L 195.8804 46.015301 
L 201.599554 44.945714 
L 207.356519 44.107768 
L 213.142087 43.502804 
L 218.947001 43.131791 
L 224.761974 42.995322 
L 230.577704 43.093615 
L 236.384887 43.426512 
L 242.174232 43.993482 
L 247.936478 44.793618 
L 253.662406 45.825638 
L 259.342856 47.087893 
L 264.96874 48.578362 
L 270.531058 50.294662 
L 276.020912 52.234047 
L 281.429518 54.393414 
L 286.748224 56.769308 
L 291.968522 59.357928 
L 297.082059 62.155134 
L 302.080655 65.156451 
L 306.956313 68.357075 
L 311.701234 71.751889 
L 316.307826 75.33546 
L 320.76872 79.102055 
L 325.076779 83.045648 
L 329.225111 87.159932 
L 333.20708 91.438323 
L 337.016315 95.873977 
L 340.646722 100.459798 
L 344.092493 105.188449 
L 347.348117 110.052366 
L 350.408383 115.043767 
L 353.268398 120.154667 
L 355.923584 125.37689 
L 358.369695 130.702081 
L 360.602818 136.121721 
L 362.619378 141.627139 
L 364.416151 147.209529 
L 365.990262 152.859958 
L 367.339193 158.569388 
L 368.460786 164.328685 
L 369.353246 170.128635 
L 370.015146 175.95996 
L 370.445426 181.813329 
L 370.643399 187.67938 
L 370.608747 193.548727 
L 370.341526 199.411982 
L 369.842164 205.259762 
L 369.11146 211.082715 
L 368.150582 216.871523 
L 366.961068 222.616926 
L 365.54482 228.309733 
L 363.904104 233.940836 
L 362.041546 239.501227 
L 359.960125 244.982009 
L 357.66317 250.374415 
L 355.154357 255.669819 
L 352.437699 260.859748 
L 349.517542 265.935899 
L 346.398558 270.890152 
L 343.085736 275.714582 
L 339.584377 280.401469 
L 335.900081 284.943316 
L 332.038744 289.332856 
L 328.006542 293.563068 
L 323.809926 297.627184 
L 319.45561 301.518702 
L 314.950559 305.231396 
L 310.301982 308.759328 
L 305.517315 312.096852 
L 300.604212 315.23863 
L 295.570533 318.179635 
L 290.424332 320.915162 
L 285.173841 323.440835 
L 279.827459 325.752614 
L 274.393741 327.846799 
L 268.881378 329.720042 
L 263.29919 331.369344 
L 257.656107 332.792068 
L 251.961156 333.985937 
L 246.223449 334.949041 
L 240.452165 335.67984 
L 234.656537 336.177165 
L 228.845835 336.440219 
L 223.029357 336.468582 
L 217.216408 336.262209 
L 211.416287 335.821429 
L 205.638273 335.146949 
L 199.89161 334.239847 
L 194.185491 333.101573 
L 188.529046 331.73395 
L 182.931322 330.139165 
L 177.401276 328.319769 
L 171.947754 326.278674 
L 166.579482 324.019144 
L 161.305046 321.544794 
L 156.132885 318.859583 
L 151.071274 315.967806 
L 146.128311 312.87409 
L 141.311902 309.583384 
L 136.629753 306.100953 
L 132.089355 302.432367 
L 127.697971 298.583496 
L 123.462627 294.560498 
L 119.390099 290.369807 
L 115.486901 286.018129 
L 111.759279 281.512426 
L 108.213194 276.859904 
L 104.854321 272.068009 
L 101.688034 267.144405 
L 98.719396 262.096969 
L 95.953159 256.933777 
L 93.393746 251.663088 
L 91.045253 246.293334 
L 88.911437 240.833107 
L 86.995711 235.291141 
L 85.301141 229.676302 
L 83.830437 223.997573 
L 82.585951 218.264039 
L 81.569676 212.484872 
L 80.783236 206.669317 
L 80.227891 200.82668 
L 79.904528 194.966305 
L 79.813664 189.09757 
L 79.955446 183.229863 
L 80.329645 177.37257 
L 80.935665 171.535063 
L 81.772534 165.72668 
L 82.838915 159.956714 
L 84.133101 154.234395 
L 85.653022 148.568878 
L 87.396246 142.969226 
L 89.359984 137.444398 
L 91.541096 132.003233 
L 93.936091 126.654435 
L 96.541138 121.406561 
L 99.352069 116.268008 
L 102.364388 111.246994 
L 105.573275 106.351554 
L 108.973597 101.589519 
L 112.559914 96.968507 
L 116.326489 92.49591 
L 120.267296 88.178885 
L 124.376029 84.024337 
L 128.646117 80.038913 
L 133.070728 76.228989 
L 137.642784 72.60066 
L 142.354969 69.159731 
L 147.199746 65.911705 
L 152.169364 62.861781 
L 157.255872 60.014836 
L 162.451133 57.375425 
L 167.746836 54.947771 
L 173.134508 52.735758 
L 178.605531 50.742924 
L 184.151152 48.972458 
L 189.762498 47.427192 
L 195.430593 46.109597 
L 201.14637 45.021783 
L 206.900683 44.165489 
L 212.684328 43.542085 
L 218.488052 43.152568 
L 224.302569 42.997562 
L 230.118577 43.077315 
L 235.926773 43.391698 
L 241.717865 43.94021 
L 247.482587 44.721972 
L 253.211717 45.735733 
L 258.896091 46.979873 
L 264.526613 48.452401 
L 270.094276 50.15096 
L 275.590174 52.072834 
L 281.005513 54.214948 
L 286.331631 56.573875 
L 291.560007 59.145841 
L 296.682275 61.926732 
L 301.690243 64.912098 
L 306.575897 68.097164 
L 311.331422 71.476835 
L 315.94921 75.045702 
L 320.421873 78.798058 
L 324.742257 82.727898 
L 328.903449 86.828937 
L 332.898792 91.094612 
L 336.721894 95.518101 
L 340.36664 100.092326 
L 343.827198 104.809969 
L 347.098032 109.663483 
L 350.17391 114.645103 
L 353.049911 119.746861 
L 355.721433 124.960593 
L 358.184203 130.27796 
L 360.434281 135.690453 
L 362.468068 141.189416 
L 364.282308 146.766049 
L 365.874101 152.411433 
L 367.2409 158.116534 
L 368.380517 163.872227 
L 369.29113 169.669303 
L 369.971282 175.498488 
L 370.419886 181.350457 
L 370.636222 187.215847 
L 370.619945 193.085276 
L 370.371082 198.949353 
L 369.89003 204.798696 
L 369.177559 210.623949 
L 368.234808 216.415791 
L 367.063287 222.164958 
L 365.664868 227.862251 
L 364.04179 233.498557 
L 362.196649 239.064857 
L 360.132396 244.552247 
L 357.852335 249.951949 
L 355.360113 255.255324 
L 352.659716 260.453887 
L 349.755465 265.539322 
L 346.652006 270.503494 
L 343.354305 275.33846 
L 339.867636 280.036485 
L 336.197578 284.590055 
L 332.350002 288.991883 
L 328.331064 293.234928 
L 324.147192 297.312402 
L 319.805081 301.217781 
L 315.311676 304.944819 
L 310.674167 308.487551 
L 305.899972 311.840312 
L 300.996729 314.997736 
L 295.972283 317.954773 
L 290.834671 320.706692 
L 285.592113 323.249091 
L 280.252996 325.577901 
L 274.825861 327.689398 
L 269.31939 329.580204 
L 263.742393 331.247294 
L 258.103792 332.688 
L 252.412608 333.900018 
L 246.677945 334.881408 
L 240.908977 335.630602 
L 235.114934 336.146399 
L 229.305086 336.427976 
L 223.488726 336.474881 
L 217.675159 336.28704 
L 211.873687 335.864753 
L 206.093591 335.208695 
L 200.344116 334.319917 
L 194.634462 333.19984 
L 188.973763 331.850255 
L 183.371075 330.273323 
L 177.835361 328.471566 
L 172.375476 326.447865 
L 167.000157 324.20546 
L 161.718001 321.747936 
L 156.53746 319.079227 
L 151.466821 316.2036 
L 146.514196 313.125657 
L 141.687509 309.850322 
L 136.994482 306.382834 
L 132.442621 302.728741 
L 128.03921 298.893889 
L 123.791293 294.884412 
L 119.705665 290.706725 
L 115.788863 286.367512 
L 112.047153 281.873713 
L 108.486521 277.23252 
L 105.112663 272.451356 
L 101.930977 267.53787 
L 98.946553 262.499923 
L 96.164165 257.345575 
L 93.588264 252.083072 
L 91.222972 246.720832 
L 89.072072 241.267434 
L 87.139006 235.731602 
L 85.426866 230.122194 
L 83.938391 224.448181 
L 82.675962 218.718643 
L 81.641599 212.942745 
L 80.836957 207.129726 
L 80.263323 201.288888 
L 79.921615 195.429574 
L 79.812379 189.561158 
L 79.93579 183.693028 
L 80.29165 177.834571 
L 80.879391 171.995161 
L 81.698073 166.18414 
L 82.746384 160.410803 
L 84.022649 154.684386 
L 85.524826 149.014052 
L 87.25051 143.408871 
L 89.196943 137.877811 
L 91.361009 132.42972 
L 93.739246 127.073314 
L 96.327851 121.817162 
L 99.122681 116.669673 
L 102.119266 111.639082 
L 105.312811 106.733436 
L 108.698208 101.960585 
L 112.270041 97.328163 
L 116.022594 92.843582 
L 119.949866 88.514015 
L 124.045573 84.34639 
L 128.303163 80.347374 
L 132.715824 76.523364 
L 137.276498 72.880477 
L 141.977887 69.424543 
L 146.812471 66.16109 
L 151.772516 63.095338 
L 156.850086 60.232192 
L 162.037058 57.576232 
L 167.325134 55.131709 
L 172.705855 52.902531 
L 178.170611 50.892267 
L 183.710661 49.10413 
L 189.317142 47.540983 
L 194.981084 46.205327 
L 200.693427 45.099296 
L 206.445031 44.224663 
L 212.226695 43.582824 
L 218.02917 43.174808 
L 223.843173 43.001267 
L 229.659402 43.062478 
L 235.468553 43.358344 
L 241.261333 43.888392 
L 247.028474 44.651773 
L 252.760749 45.647266 
L 258.448989 46.873279 
L 264.084093 48.327849 
L 269.657047 50.008651 
L 275.158934 51.912996 
L 280.580952 54.037835 
L 285.914429 56.379772 
L 291.15083 58.935058 
L 296.281779 61.699605 
L 301.299068 64.668992 
L 306.194669 67.838467 
L 310.960751 71.202961 
L 315.589689 74.757089 
L 320.074077 78.495168 
L 324.406742 82.411216 
L 328.580752 86.498969 
L 332.589429 90.751886 
L 336.426361 95.163165 
L 340.085409 99.725748 
L 343.560719 104.432336 
L 346.846732 109.275399 
L 349.93819 114.247189 
L 352.830148 119.339753 
L 355.51798 124.544943 
L 357.997385 129.854432 
L 360.264396 135.259726 
L 362.315387 140.752177 
L 364.147078 146.322999 
L 365.756536 151.96328 
L 367.141189 157.663996 
L 368.29882 163.416027 
L 369.227577 169.210171 
L 369.925975 175.037159 
L 370.392896 180.887668 
L 370.627594 186.75234 
L 370.629693 192.621791 
L 370.399189 198.486632 
L 369.936452 204.33748 
L 369.242221 210.164975 
L 368.317608 215.959794 
L 367.164091 221.712666 
L 365.783515 227.414389 
L 364.178091 233.05584 
L 362.350385 238.627995 
L 360.303322 244.121938 
L 358.040176 249.528882 
L 355.564569 254.840175 
L 352.880461 260.047321 
L 349.992146 265.141989 
L 346.904244 270.116029 
L 343.621695 274.961484 
L 340.149752 279.670601 
L 336.493968 284.235847 
L 332.660191 288.649919 
L 328.654556 292.905755 
L 324.483471 296.996546 
L 320.153608 300.915748 
L 315.671894 304.657091 
L 311.045499 308.21459 
L 306.281824 311.582553 
L 301.388491 314.755593 
L 296.373327 317.728632 
L 291.244356 320.496915 
L 286.009784 323.056014 
L 280.677984 325.401833 
L 275.257486 327.530621 
L 269.756962 329.438971 
L 264.185212 331.123831 
L 258.55115 332.582505 
L 252.863788 333.812659 
L 247.132226 334.812327 
L 241.365633 335.579907 
L 235.573234 336.114173 
L 229.764295 336.414269 
L 223.948111 336.479716 
L 218.133986 336.310408 
L 212.331221 335.906618 
L 206.549099 335.26899 
L 200.796871 334.398544 
L 195.083739 333.296674 
L 189.418843 331.965142 
L 183.811246 330.406079 
L 178.269919 328.621977 
L 172.803726 326.615692 
L 167.421413 324.390434 
L 162.13159 321.949762 
L 158.230016 319.980228 
L 158.230016 319.980228 
" clip-path="url(#p7822912146)" style="fill: none; stroke: #1f77b4; stroke-width: 1.5; stroke-linecap: square"/>
   </g>
   <g id="patch_3">
    <path d="M 65.27 351.16 
L 65.27 28.32 
" style="fill: none; stroke: #000000; stroke-width: 0.8; stroke-linejoin: miter; stroke-linecap: square"/>
   </g>
   <g id="patch_4">
    <path d="M 385.2 351.16 
L 385.2 28.32 
" style="fill: none; stroke: #000000; stroke-width: 0.8; stroke-linejoin: miter; stroke-linecap: square"/>
   </g>
   <g id="patch_5">
    <path d="M 65.27 351.16 
L 385.2 351.16 
" style="fill: none; stroke: #000000; stroke-width: 0.8; stroke-linejoin: miter; stroke-linecap: square"/>
   </g>
   <g id="patch_6">
    <path d="M 65.27 28.32 
L 385.2 28.32 
" style="fill: none; stroke: #000000; stroke-width: 0.8; stroke-linejoin: miter; stroke-linecap: square"/>
   </g>
   <g id="text_21">
    <!-- Velocity Verlet Stability, $\omega$=1,  $\Delta t$=0.01, $N_{10rev}$=6284 -->
    <g transform="translate(65.695 22.32) scale(0.12 -0.12)">
     <defs>
      <path id="DejaVuSans-56" d="M 1831 0 
L 50 4666 
L 709 4666 
L 2188 738 
L 3669 4666 
L 4325 4666 
L 2547 0 
L 1831 0 
z
" transform="scale(0.015625)"/>
      <path id="DejaVuSans-65" d="M 3597 1894 
L 3597 1613 
L 953 1613 
Q 991 1019 1311 708 
Q 1631 397 2203 397 
Q 2534 397 2845 478 
Q 3156 559 3463 722 
L 3463 178 
Q 3153 47 2828 -22 
Q 2503 -91 2169 -91 
Q 1331 -91 842 396 
Q 353 884 353 1716 
Q 353 2575 817 3079 
Q 1281 3584 2069 3584 
Q 2775 3584 3186 3129 
Q 3597 2675 3597 1894 
z
M 3022 2063 
Q 3016 2534 2758 2815 
Q 2500 3097 2075 3097 
Q 1594 3097 1305 2825 
Q 1016 2553 972 2059 
L 3022 2063 
z
" transform="scale(0.015625)"/>
      <path id="DejaVuSans-6c" d="M 603 4863 
L 1178 4863 
L 1178 0 
L 603 0 
L 603 4863 
z
" transform="scale(0.015625)"/>
      <path id="DejaVuSans-6f" d="M 1959 3097 
Q 1497 3097 1228 2736 
Q 959 2375 959 1747 
Q 959 1119 1226 758 
Q 1494 397 1959 397 
Q 2419 397 2687 759 
Q 2956 1122 2956 1747 
Q 2956 2369 2687 2733 
Q 2419 3097 1959 3097 
z
M 1959 3584 
Q 2709 3584 3137 3096 
Q 3566 2609 3566 1747 
Q 3566 888 3137 398 
Q 2709 -91 1959 -91 
Q 1206 -91 779 398 
Q 353 888 353 1747 
Q 353 2609 779 3096 
Q 1206 3584 1959 3584 
z
" transform="scale(0.015625)"/>
      <path id="DejaVuSans-63" d="M 3122 3366 
L 3122 2828 
Q 2878 2963 2633 3030 
Q 2388 3097 2138 3097 
Q 1578 3097 1268 2742 
Q 959 2388 959 1747 
Q 959 1106 1268 751 
Q 1578 397 2138 397 
Q 2388 397 2633 464 
Q 2878 531 3122 666 
L 3122 134 
Q 2881 22 2623 -34 
Q 2366 -91 2075 -91 
Q 1284 -91 818 406 
Q 353 903 353 1747 
Q 353 2603 823 3093 
Q 1294 3584 2113 3584 
Q 2378 3584 2631 3529 
Q 2884 3475 3122 3366 
z
" transform="scale(0.015625)"/>
      <path id="DejaVuSans-69" d="M 603 3500 
L 1178 3500 
L 1178 0 
L 603 0 
L 603 3500 
z
M 603 4863 
L 1178 4863 
L 1178 4134 
L 603 4134 
L 603 4863 
z
" transform="scale(0.015625)"/>
      <path id="DejaVuSans-74" d="M 1172 4494 
L 1172 3500 
L 2356 3500 
L 2356 3053 
L 1172 3053 
L 1172 1153 
Q 1172 725 1289 603 
Q 1406 481 1766 481 
L 2356 481 
L 2356 0 
L 1766 0 
Q 1100 0 847 248 
Q 594 497 594 1153 
L 594 3053 
L 172 3053 
L 172 3500 
L 594 3500 
L 594 4494 
L 1172 4494 
z
" transform="scale(0.015625)"/>
      <path id="DejaVuSans-79" d="M 2059 -325 
Q 1816 -950 1584 -1140 
Q 1353 -1331 966 -1331 
L 506 -1331 
L 506 -850 
L 844 -850 
Q 1081 -850 1212 -737 
Q 1344 -625 1503 -206 
L 1606 56 
L 191 3500 
L 800 3500 
L 1894 763 
L 2988 3500 
L 3597 3500 
L 2059 -325 
z
" transform="scale(0.015625)"/>
      <path id="DejaVuSans-20" transform="scale(0.015625)"/>
      <path id="DejaVuSans-72" d="M 2631 2963 
Q 2534 3019 2420 3045 
Q 2306 3072 2169 3072 
Q 1681 3072 1420 2755 
Q 1159 2438 1159 1844 
L 1159 0 
L 581 0 
L 581 3500 
L 1159 3500 
L 1159 2956 
Q 1341 3275 1631 3429 
Q 1922 3584 2338 3584 
Q 2397 3584 2469 3576 
Q 2541 3569 2628 3553 
L 2631 2963 
z
" transform="scale(0.015625)"/>
      <path id="DejaVuSans-53" d="M 3425 4513 
L 3425 3897 
Q 3066 4069 2747 4153 
Q 2428 4238 2131 4238 
Q 1616 4238 1336 4038 
Q 1056 3838 1056 3469 
Q 1056 3159 1242 3001 
Q 1428 2844 1947 2747 
L 2328 2669 
Q 3034 2534 3370 2195 
Q 3706 1856 3706 1288 
Q 3706 609 3251 259 
Q 2797 -91 1919 -91 
Q 1588 -91 1214 -16 
Q 841 59 441 206 
L 441 856 
Q 825 641 1194 531 
Q 1563 422 1919 422 
Q 2459 422 2753 634 
Q 3047 847 3047 1241 
Q 3047 1584 2836 1778 
Q 2625 1972 2144 2069 
L 1759 2144 
Q 1053 2284 737 2584 
Q 422 2884 422 3419 
Q 422 4038 858 4394 
Q 1294 4750 2059 4750 
Q 2388 4750 2728 4690 
Q 3069 4631 3425 4513 
z
" transform="scale(0.015625)"/>
      <path id="DejaVuSans-61" d="M 2194 1759 
Q 1497 1759 1228 1600 
Q 959 1441 959 1056 
Q 959 750 1161 570 
Q 1363 391 1709 391 
Q 2188 391 2477 730 
Q 2766 1069 2766 1631 
L 2766 1759 
L 2194 1759 
z
M 3341 1997 
L 3341 0 
L 2766 0 
L 2766 531 
Q 2569 213 2275 61 
Q 1981 -91 1556 -91 
Q 1019 -91 701 211 
Q 384 513 384 1019 
Q 384 1609 779 1909 
Q 1175 2209 1959 2209 
L 2766 2209 
L 2766 2266 
Q 2766 2663 2505 2880 
Q 2244 3097 1772 3097 
Q 1472 3097 1187 3025 
Q 903 2953 641 2809 
L 641 3341 
Q 956 3463 1253 3523 
Q 1550 3584 1831 3584 
Q 2591 3584 2966 3190 
Q 3341 2797 3341 1997 
z
" transform="scale(0.015625)"/>
      <path id="DejaVuSans-62" d="M 3116 1747 
Q 3116 2381 2855 2742 
Q 2594 3103 2138 3103 
Q 1681 3103 1420 2742 
Q 1159 2381 1159 1747 
Q 1159 1113 1420 752 
Q 1681 391 2138 391 
Q 2594 391 2855 752 
Q 3116 1113 3116 1747 
z
M 1159 2969 
Q 1341 3281 1617 3432 
Q 1894 3584 2278 3584 
Q 2916 3584 3314 3078 
Q 3713 2572 3713 1747 
Q 3713 922 3314 415 
Q 2916 -91 2278 -91 
Q 1894 -91 1617 61 
Q 1341 213 1159 525 
L 1159 0 
L 581 0 
L 581 4863 
L 1159 4863 
L 1159 2969 
z
" transform="scale(0.015625)"/>
      <path id="DejaVuSans-2c" d="M 750 794 
L 1409 794 
L 1409 256 
L 897 -744 
L 494 -744 
L 750 256 
L 750 794 
z
" transform="scale(0.015625)"/>
      <path id="DejaVuSans-Oblique-3c9" d="M 1369 -91 
Q 72 -91 434 1766 
Q 575 2500 1256 3500 
L 1875 3500 
Q 1231 2500 1088 1750 
Q 819 397 1519 397 
Q 2166 397 2478 2078 
L 3009 2078 
Q 2669 388 3316 397 
Q 4013 403 4275 1750 
Q 4419 2500 4169 3500 
L 4788 3500 
Q 5075 2500 4934 1766 
Q 4578 -94 3278 -91 
Q 2428 -88 2503 844 
Q 2194 -91 1369 -91 
z
" transform="scale(0.015625)"/>
      <path id="DejaVuSans-3d" d="M 678 2906 
L 4684 2906 
L 4684 2381 
L 678 2381 
L 678 2906 
z
M 678 1631 
L 4684 1631 
L 4684 1100 
L 678 1100 
L 678 1631 
z
" transform="scale(0.015625)"/>
      <path id="DejaVuSans-394" d="M 2188 4044 
L 906 525 
L 3472 525 
L 2188 4044 
z
M 50 0 
L 1831 4666 
L 2547 4666 
L 4325 0 
L 50 0 
z
" transform="scale(0.015625)"/>
      <path id="DejaVuSans-Oblique-4e" d="M 1081 4666 
L 1931 4666 
L 3219 666 
L 4000 4666 
L 4616 4666 
L 3706 0 
L 2853 0 
L 1569 4025 
L 788 0 
L 172 0 
L 1081 4666 
z
" transform="scale(0.015625)"/>
      <path id="DejaVuSans-Oblique-72" d="M 2853 2969 
Q 2766 3016 2653 3041 
Q 2541 3066 2413 3066 
Q 1953 3066 1609 2717 
Q 1266 2369 1153 1784 
L 800 0 
L 225 0 
L 909 3500 
L 1484 3500 
L 1375 2956 
Q 1603 3259 1920 3421 
Q 2238 3584 2597 3584 
Q 2691 3584 2781 3573 
Q 2872 3563 2963 3538 
L 2853 2969 
z
" transform="scale(0.015625)"/>
      <path id="DejaVuSans-Oblique-65" d="M 3078 2063 
Q 3088 2113 3092 2166 
Q 3097 2219 3097 2272 
Q 3097 2653 2873 2875 
Q 2650 3097 2266 3097 
Q 1838 3097 1509 2826 
Q 1181 2556 1013 2059 
L 3078 2063 
z
M 3578 1613 
L 903 1613 
Q 884 1494 878 1425 
Q 872 1356 872 1306 
Q 872 872 1139 634 
Q 1406 397 1894 397 
Q 2269 397 2603 481 
Q 2938 566 3225 728 
L 3116 159 
Q 2806 34 2476 -28 
Q 2147 -91 1806 -91 
Q 1078 -91 686 257 
Q 294 606 294 1247 
Q 294 1794 489 2264 
Q 684 2734 1063 3103 
Q 1306 3334 1642 3459 
Q 1978 3584 2356 3584 
Q 2950 3584 3301 3228 
Q 3653 2872 3653 2272 
Q 3653 2128 3634 1964 
Q 3616 1800 3578 1613 
z
" transform="scale(0.015625)"/>
      <path id="DejaVuSans-Oblique-76" d="M 459 3500 
L 1069 3500 
L 1581 525 
L 3256 3500 
L 3866 3500 
L 1875 0 
L 1100 0 
L 459 3500 
z
" transform="scale(0.015625)"/>
      <path id="DejaVuSans-36" d="M 2113 2584 
Q 1688 2584 1439 2293 
Q 1191 2003 1191 1497 
Q 1191 994 1439 701 
Q 1688 409 2113 409 
Q 2538 409 2786 701 
Q 3034 994 3034 1497 
Q 3034 2003 2786 2293 
Q 2538 2584 2113 2584 
z
M 3366 4563 
L 3366 3988 
Q 3128 4100 2886 4159 
Q 2644 4219 2406 4219 
Q 1781 4219 1451 3797 
Q 1122 3375 1075 2522 
Q 1259 2794 1537 2939 
Q 1816 3084 2150 3084 
Q 2853 3084 3261 2657 
Q 3669 2231 3669 1497 
Q 3669 778 3244 343 
Q 2819 -91 2113 -91 
Q 1303 -91 875 529 
Q 447 1150 447 2328 
Q 447 3434 972 4092 
Q 1497 4750 2381 4750 
Q 2619 4750 2861 4703 
Q 3103 4656 3366 4563 
z
" transform="scale(0.015625)"/>
      <path id="DejaVuSans-38" d="M 2034 2216 
Q 1584 2216 1326 1975 
Q 1069 1734 1069 1313 
Q 1069 891 1326 650 
Q 1584 409 2034 409 
Q 2484 409 2743 651 
Q 3003 894 3003 1313 
Q 3003 1734 2745 1975 
Q 2488 2216 2034 2216 
z
M 1403 2484 
Q 997 2584 770 2862 
Q 544 3141 544 3541 
Q 544 4100 942 4425 
Q 1341 4750 2034 4750 
Q 2731 4750 3128 4425 
Q 3525 4100 3525 3541 
Q 3525 3141 3298 2862 
Q 3072 2584 2669 2484 
Q 3125 2378 3379 2068 
Q 3634 1759 3634 1313 
Q 3634 634 3220 271 
Q 2806 -91 2034 -91 
Q 1263 -91 848 271 
Q 434 634 434 1313 
Q 434 1759 690 2068 
Q 947 2378 1403 2484 
z
M 1172 3481 
Q 1172 3119 1398 2916 
Q 1625 2713 2034 2713 
Q 2441 2713 2670 2916 
Q 2900 3119 2900 3481 
Q 2900 3844 2670 4047 
Q 2441 4250 2034 4250 
Q 1625 4250 1398 4047 
Q 1172 3844 1172 3481 
z
" transform="scale(0.015625)"/>
      <path id="DejaVuSans-34" d="M 2419 4116 
L 825 1625 
L 2419 1625 
L 2419 4116 
z
M 2253 4666 
L 3047 4666 
L 3047 1625 
L 3713 1625 
L 3713 1100 
L 3047 1100 
L 3047 0 
L 2419 0 
L 2419 1100 
L 313 1100 
L 313 1709 
L 2253 4666 
z
" transform="scale(0.015625)"/>
     </defs>
     <use xlink:href="#DejaVuSans-56" transform="translate(0 0.015625)"/>
     <use xlink:href="#DejaVuSans-65" transform="translate(68.408203 0.015625)"/>
     <use xlink:href="#DejaVuSans-6c" transform="translate(129.931641 0.015625)"/>
     <use xlink:href="#DejaVuSans-6f" transform="translate(157.714844 0.015625)"/>
     <use xlink:href="#DejaVuSans-63" transform="translate(218.896484 0.015625)"/>
     <use xlink:href="#DejaVuSans-69" transform="translate(273.876953 0.015625)"/>
     <use xlink:href="#DejaVuSans-74" transform="translate(301.660156 0.015625)"/>
     <use xlink:href="#DejaVuSans-79" transform="translate(340.869141 0.015625)"/>
     <use xlink:href="#DejaVuSans-20" transform="translate(400.048828 0.015625)"/>
     <use xlink:href="#DejaVuSans-56" transform="translate(431.835938 0.015625)"/>
     <use xlink:href="#DejaVuSans-65" transform="translate(500.244141 0.015625)"/>
     <use xlink:href="#DejaVuSans-72" transform="translate(561.767578 0.015625)"/>
     <use xlink:href="#DejaVuSans-6c" transform="translate(602.880859 0.015625)"/>
     <use xlink:href="#DejaVuSans-65" transform="translate(630.664062 0.015625)"/>
     <use xlink:href="#DejaVuSans-74" transform="translate(692.1875 0.015625)"/>
     <use xlink:href="#DejaVuSans-20" transform="translate(731.396484 0.015625)"/>
     <use xlink:href="#DejaVuSans-53" transform="translate(763.183594 0.015625)"/>
     <use xlink:href="#DejaVuSans-74" transform="translate(826.660156 0.015625)"/>
     <use xlink:href="#DejaVuSans-61" transform="translate(865.869141 0.015625)"/>
     <use xlink:href="#DejaVuSans-62" transform="translate(927.148438 0.015625)"/>
     <use xlink:href="#DejaVuSans-69" transform="translate(990.625 0.015625)"/>
     <use xlink:href="#DejaVuSans-6c" transform="translate(1018.408203 0.015625)"/>
     <use xlink:href="#DejaVuSans-69" transform="translate(1046.191406 0.015625)"/>
     <use xlink:href="#DejaVuSans-74" transform="translate(1073.974609 0.015625)"/>
     <use xlink:href="#DejaVuSans-79" transform="translate(1113.183594 0.015625)"/>
     <use xlink:href="#DejaVuSans-2c" transform="translate(1172.363281 0.015625)"/>
     <use xlink:href="#DejaVuSans-20" transform="translate(1204.150391 0.015625)"/>
     <use xlink:href="#DejaVuSans-Oblique-3c9" transform="translate(1235.9375 0.015625)"/>
     <use xlink:href="#DejaVuSans-3d" transform="translate(1319.677734 0.015625)"/>
     <use xlink:href="#DejaVuSans-31" transform="translate(1403.466797 0.015625)"/>
     <use xlink:href="#DejaVuSans-2c" transform="translate(1467.089844 0.015625)"/>
     <use xlink:href="#DejaVuSans-20" transform="translate(1498.876953 0.015625)"/>
     <use xlink:href="#DejaVuSans-20" transform="translate(1530.664062 0.015625)"/>
     <use xlink:href="#DejaVuSans-394" transform="translate(1562.451172 0.015625)"/>
     <use xlink:href="#DejaVuSans-Oblique-74" transform="translate(1630.859375 0.015625)"/>
     <use xlink:href="#DejaVuSans-3d" transform="translate(1670.068359 0.015625)"/>
     <use xlink:href="#DejaVuSans-30" transform="translate(1753.857422 0.015625)"/>
     <use xlink:href="#DejaVuSans-2e" transform="translate(1817.480469 0.015625)"/>
     <use xlink:href="#DejaVuSans-30" transform="translate(1849.267578 0.015625)"/>
     <use xlink:href="#DejaVuSans-31" transform="translate(1912.890625 0.015625)"/>
     <use xlink:href="#DejaVuSans-2c" transform="translate(1976.513672 0.015625)"/>
     <use xlink:href="#DejaVuSans-20" transform="translate(2008.300781 0.015625)"/>
     <use xlink:href="#DejaVuSans-Oblique-4e" transform="translate(2040.087891 0.015625)"/>
     <use xlink:href="#DejaVuSans-31" transform="translate(2114.892578 -16.390625) scale(0.7)"/>
     <use xlink:href="#DejaVuSans-30" transform="translate(2159.428711 -16.390625) scale(0.7)"/>
     <use xlink:href="#DejaVuSans-Oblique-72" transform="translate(2203.964844 -16.390625) scale(0.7)"/>
     <use xlink:href="#DejaVuSans-Oblique-65" transform="translate(2232.744141 -16.390625) scale(0.7)"/>
     <use xlink:href="#DejaVuSans-Oblique-76" transform="translate(2275.810547 -16.390625) scale(0.7)"/>
     <use xlink:href="#DejaVuSans-3d" transform="translate(2319.970703 0.015625)"/>
     <use xlink:href="#DejaVuSans-36" transform="translate(2403.759766 0.015625)"/>
     <use xlink:href="#DejaVuSans-32" transform="translate(2467.382812 0.015625)"/>
     <use xlink:href="#DejaVuSans-38" transform="translate(2531.005859 0.015625)"/>
     <use xlink:href="#DejaVuSans-34" transform="translate(2594.628906 0.015625)"/>
    </g>
   </g>
   <g id="legend_1">
    <g id="patch_7">
     <path d="M 173.385 205.918125 
L 277.085 205.918125 
Q 279.085 205.918125 279.085 203.918125 
L 279.085 175.561875 
Q 279.085 173.561875 277.085 173.561875 
L 173.385 173.561875 
Q 171.385 173.561875 171.385 175.561875 
L 171.385 203.918125 
Q 171.385 205.918125 173.385 205.918125 
z
" style="fill: #ffffff; opacity: 0.8; stroke: #cccccc; stroke-linejoin: miter"/>
    </g>
    <g id="line2d_20">
     <path d="M 175.385 181.660312 
L 185.385 181.660312 
L 195.385 181.660312 
" style="fill: none; stroke-dasharray: 1.5,2.475; stroke-dashoffset: 0; stroke: #ff0000; stroke-width: 1.5"/>
    </g>
    <g id="text_22">
     <!-- Exact Solution -->
     <g transform="translate(203.385 185.160312) scale(0.1 -0.1)">
      <defs>
       <path id="DejaVuSans-45" d="M 628 4666 
L 3578 4666 
L 3578 4134 
L 1259 4134 
L 1259 2753 
L 3481 2753 
L 3481 2222 
L 1259 2222 
L 1259 531 
L 3634 531 
L 3634 0 
L 628 0 
L 628 4666 
z
" transform="scale(0.015625)"/>
       <path id="DejaVuSans-78" d="M 3513 3500 
L 2247 1797 
L 3578 0 
L 2900 0 
L 1881 1375 
L 863 0 
L 184 0 
L 1544 1831 
L 300 3500 
L 978 3500 
L 1906 2253 
L 2834 3500 
L 3513 3500 
z
" transform="scale(0.015625)"/>
       <path id="DejaVuSans-75" d="M 544 1381 
L 544 3500 
L 1119 3500 
L 1119 1403 
Q 1119 906 1312 657 
Q 1506 409 1894 409 
Q 2359 409 2629 706 
Q 2900 1003 2900 1516 
L 2900 3500 
L 3475 3500 
L 3475 0 
L 2900 0 
L 2900 538 
Q 2691 219 2414 64 
Q 2138 -91 1772 -91 
Q 1169 -91 856 284 
Q 544 659 544 1381 
z
M 1991 3584 
L 1991 3584 
z
" transform="scale(0.015625)"/>
       <path id="DejaVuSans-6e" d="M 3513 2113 
L 3513 0 
L 2938 0 
L 2938 2094 
Q 2938 2591 2744 2837 
Q 2550 3084 2163 3084 
Q 1697 3084 1428 2787 
Q 1159 2491 1159 1978 
L 1159 0 
L 581 0 
L 581 3500 
L 1159 3500 
L 1159 2956 
Q 1366 3272 1645 3428 
Q 1925 3584 2291 3584 
Q 2894 3584 3203 3211 
Q 3513 2838 3513 2113 
z
" transform="scale(0.015625)"/>
      </defs>
      <use xlink:href="#DejaVuSans-45"/>
      <use xlink:href="#DejaVuSans-78" transform="translate(63.183594 0)"/>
      <use xlink:href="#DejaVuSans-61" transform="translate(122.363281 0)"/>
      <use xlink:href="#DejaVuSans-63" transform="translate(183.642578 0)"/>
      <use xlink:href="#DejaVuSans-74" transform="translate(238.623047 0)"/>
      <use xlink:href="#DejaVuSans-20" transform="translate(277.832031 0)"/>
      <use xlink:href="#DejaVuSans-53" transform="translate(309.619141 0)"/>
      <use xlink:href="#DejaVuSans-6f" transform="translate(373.095703 0)"/>
      <use xlink:href="#DejaVuSans-6c" transform="translate(434.277344 0)"/>
      <use xlink:href="#DejaVuSans-75" transform="translate(462.060547 0)"/>
      <use xlink:href="#DejaVuSans-74" transform="translate(525.439453 0)"/>
      <use xlink:href="#DejaVuSans-69" transform="translate(564.648438 0)"/>
      <use xlink:href="#DejaVuSans-6f" transform="translate(592.431641 0)"/>
      <use xlink:href="#DejaVuSans-6e" transform="translate(653.613281 0)"/>
     </g>
    </g>
    <g id="line2d_21">
     <path d="M 175.385 196.338437 
L 185.385 196.338437 
L 195.385 196.338437 
" style="fill: none; stroke: #1f77b4; stroke-width: 1.5; stroke-linecap: square"/>
    </g>
    <g id="text_23">
     <!-- Velocity Verlet -->
     <g transform="translate(203.385 199.838437) scale(0.1 -0.1)">
      <use xlink:href="#DejaVuSans-56"/>
      <use xlink:href="#DejaVuSans-65" transform="translate(60.658203 0)"/>
      <use xlink:href="#DejaVuSans-6c" transform="translate(122.181641 0)"/>
      <use xlink:href="#DejaVuSans-6f" transform="translate(149.964844 0)"/>
      <use xlink:href="#DejaVuSans-63" transform="translate(211.146484 0)"/>
      <use xlink:href="#DejaVuSans-69" transform="translate(266.126953 0)"/>
      <use xlink:href="#DejaVuSans-74" transform="translate(293.910156 0)"/>
      <use xlink:href="#DejaVuSans-79" transform="translate(333.119141 0)"/>
      <use xlink:href="#DejaVuSans-20" transform="translate(392.298828 0)"/>
      <use xlink:href="#DejaVuSans-56" transform="translate(424.085938 0)"/>
      <use xlink:href="#DejaVuSans-65" transform="translate(484.744141 0)"/>
      <use xlink:href="#DejaVuSans-72" transform="translate(546.267578 0)"/>
      <use xlink:href="#DejaVuSans-6c" transform="translate(587.380859 0)"/>
      <use xlink:href="#DejaVuSans-65" transform="translate(615.164062 0)"/>
      <use xlink:href="#DejaVuSans-74" transform="translate(676.6875 0)"/>
     </g>
    </g>
   </g>
   <g id="line2d_22">
    <path d="M 225.235004 42.994545 
L 230.899118 43.1059 
L 236.554636 43.439796 
L 242.192974 43.995727 
L 247.805576 44.772848 
L 253.383924 45.769979 
L 258.919551 46.985609 
L 264.404056 48.417892 
L 269.829116 50.064654 
L 275.186497 51.923396 
L 280.468068 53.991296 
L 285.665815 56.265218 
L 290.771848 58.741709 
L 295.778418 61.417011 
L 300.677927 64.287064 
L 305.462939 67.347513 
L 310.126193 70.593711 
L 314.66061 74.020734 
L 319.059309 77.623379 
L 323.315615 81.39618 
L 327.423068 85.333409 
L 331.375433 89.429093 
L 335.166714 93.677015 
L 338.791155 98.070727 
L 342.243256 102.603563 
L 345.517778 107.268643 
L 348.609752 112.058886 
L 351.514485 116.967022 
L 354.227568 121.985604 
L 356.744884 127.107014 
L 359.062612 132.323479 
L 361.177236 137.627084 
L 363.085545 143.009778 
L 364.784643 148.463393 
L 366.271952 153.979652 
L 367.545215 159.550182 
L 368.602499 165.166531 
L 369.4422 170.820174 
L 370.063043 176.502531 
L 370.464086 182.204979 
L 370.64472 187.918861 
L 370.604672 193.635508 
L 370.344001 199.346242 
L 369.863104 205.042398 
L 369.162711 210.715329 
L 368.243883 216.356427 
L 367.108017 221.957131 
L 365.756836 227.508939 
L 364.19239 233.003428 
L 362.417053 238.432257 
L 360.433521 243.787187 
L 358.244802 249.060092 
L 355.85422 254.24297 
L 353.265403 259.327953 
L 350.482278 264.307326 
L 347.50907 269.173531 
L 344.350292 273.919182 
L 341.010736 278.537078 
L 337.495473 283.02021 
L 333.809836 287.361774 
L 329.959419 291.555182 
L 325.950066 295.594068 
L 321.787861 299.472304 
L 317.479122 303.184003 
L 313.030387 306.723532 
L 308.448409 310.08552 
L 303.740141 313.264864 
L 298.912729 316.25674 
L 293.973498 319.056605 
L 288.929946 321.660212 
L 283.789727 324.063608 
L 278.560641 326.263147 
L 273.250625 328.255489 
L 267.867737 330.037612 
L 262.420148 331.606811 
L 256.916124 332.960704 
L 251.364019 334.097236 
L 245.772258 335.014682 
L 240.149329 335.711651 
L 234.503766 336.187084 
L 228.844135 336.44026 
L 223.179027 336.470795 
L 217.517039 336.278642 
L 211.866764 335.864092 
L 206.236778 335.227776 
L 200.635625 334.370659 
L 195.071805 333.294041 
L 189.553763 331.999556 
L 184.089873 330.48917 
L 178.688428 328.765174 
L 173.357624 326.830185 
L 168.105552 324.687139 
L 162.940184 322.339289 
L 157.869359 319.790199 
L 152.900771 317.043736 
L 148.041963 314.104069 
L 143.300307 310.975659 
L 138.683001 307.663255 
L 134.197051 304.171883 
L 129.849266 300.506842 
L 125.646244 296.673694 
L 121.594365 292.678257 
L 117.699777 288.526595 
L 113.968391 284.225008 
L 110.40587 279.780025 
L 107.017621 275.198392 
L 103.808786 270.487061 
L 100.784235 265.653184 
L 97.948558 260.704097 
L 95.306059 255.647309 
L 92.860748 250.490497 
L 90.616337 245.241486 
L 88.576231 239.908243 
L 86.743527 234.498861 
L 85.121006 229.02155 
L 83.711131 223.484624 
L 82.516041 217.896484 
L 81.537551 212.265612 
L 80.777144 206.600554 
L 80.235976 200.909908 
L 79.914867 195.202309 
L 79.814305 189.48642 
L 79.934443 183.770917 
L 80.275098 178.064472 
L 80.835753 172.375747 
L 81.615557 166.713375 
L 82.613327 161.085949 
L 83.827548 155.502011 
L 85.256378 149.970034 
L 86.897648 144.498415 
L 88.748868 139.095457 
L 90.807227 133.76936 
L 93.069603 128.528208 
L 95.532561 123.379955 
L 98.192363 118.332414 
L 101.044973 113.393246 
L 104.086061 108.569946 
L 107.311013 103.869834 
L 110.714934 99.300045 
L 114.292657 94.867513 
L 118.038753 90.578965 
L 121.947537 86.440911 
L 126.013076 82.459629 
L 130.229201 78.641163 
L 134.589512 74.991307 
L 139.087392 71.515601 
L 143.716016 68.219319 
L 148.468358 65.107465 
L 153.337205 62.184761 
L 158.315169 59.455643 
L 163.394695 56.924252 
L 168.568073 54.594431 
L 173.827453 52.469715 
L 179.164852 50.553329 
L 184.57217 48.848181 
L 190.0412 47.35686 
L 195.563643 46.081627 
L 201.131117 45.02442 
L 206.735172 44.186842 
L 212.367304 43.570165 
L 218.018965 43.175324 
L 223.681577 43.002918 
L 225.235004 42.994545 
L 225.235004 42.994545 
" clip-path="url(#p7822912146)" style="fill: none; stroke-dasharray: 1.5,2.475; stroke-dashoffset: 0; stroke: #ff0000; stroke-width: 1.5"/>
   </g>
  </g>
 </g>
 <defs>
  <clipPath id="p7822912146">
   <rect x="65.27" y="28.32" width="319.93" height="322.84"/>
  </clipPath>
 </defs>
</svg>
