<?xml version="1.0" encoding="utf-8" standalone="no"?>
<!DOCTYPE svg PUBLIC "-//W3C//DTD SVG 1.1//EN"
  "http://www.w3.org/Graphics/SVG/1.1/DTD/svg11.dtd">
<svg xmlns:xlink="http://www.w3.org/1999/xlink" width="396pt" height="396pt" viewBox="0 0 396 396" xmlns="http://www.w3.org/2000/svg" version="1.1">
 <metadata>
  <rdf:RDF xmlns:dc="http://purl.org/dc/elements/1.1/" xmlns:cc="http://creativecommons.org/ns#" xmlns:rdf="http://www.w3.org/1999/02/22-rdf-syntax-ns#">
   <cc:Work>
    <dc:type rdf:resource="http://purl.org/dc/dcmitype/StillImage"/>
    <dc:date>2025-05-13T23:17:27.210235</dc:date>
    <dc:format>image/svg+xml</dc:format>
    <dc:creator>
     <cc:Agent>
      <dc:title>Matplotlib v3.10.1, https://matplotlib.org/</dc:title>
     </cc:Agent>
    </dc:creator>
   </cc:Work>
  </rdf:RDF>
 </metadata>
 <defs>
  <style type="text/css">*{stroke-linejoin: round; stroke-linecap: butt}</style>
 </defs>
 <g id="figure_1">
  <g id="patch_1">
   <path d="M 0 396 
L 396 396 
L 396 0 
L 0 0 
z
" style="fill: #ffffff"/>
  </g>
  <g id="axes_1">
   <g id="patch_2">
    <path d="M 65.27 351.16 
L 385.104019 351.16 
L 385.104019 28.32 
L 65.27 28.32 
z
" style="fill: #ffffff"/>
   </g>
   <g id="matplotlib.axis_1">
    <g id="xtick_1">
     <g id="line2d_1">
      <defs>
       <path id="m1a47d7b86e" d="M 0 0 
L 0 3.5 
" style="stroke: #000000; stroke-width: 0.8"/>
      </defs>
      <g>
       <use xlink:href="#m1a47d7b86e" x="79.989649" y="351.16" style="stroke: #000000; stroke-width: 0.8"/>
      </g>
     </g>
     <g id="text_1">
      <!-- −0.100 -->
      <g transform="translate(61.485742 365.758438) scale(0.1 -0.1)">
       <defs>
        <path id="DejaVuSans-2212" d="M 678 2272 
L 4684 2272 
L 4684 1741 
L 678 1741 
L 678 2272 
z
" transform="scale(0.015625)"/>
        <path id="DejaVuSans-30" d="M 2034 4250 
Q 1547 4250 1301 3770 
Q 1056 3291 1056 2328 
Q 1056 1369 1301 889 
Q 1547 409 2034 409 
Q 2525 409 2770 889 
Q 3016 1369 3016 2328 
Q 3016 3291 2770 3770 
Q 2525 4250 2034 4250 
z
M 2034 4750 
Q 2819 4750 3233 4129 
Q 3647 3509 3647 2328 
Q 3647 1150 3233 529 
Q 2819 -91 2034 -91 
Q 1250 -91 836 529 
Q 422 1150 422 2328 
Q 422 3509 836 4129 
Q 1250 4750 2034 4750 
z
" transform="scale(0.015625)"/>
        <path id="DejaVuSans-2e" d="M 684 794 
L 1344 794 
L 1344 0 
L 684 0 
L 684 794 
z
" transform="scale(0.015625)"/>
        <path id="DejaVuSans-31" d="M 794 531 
L 1825 531 
L 1825 4091 
L 703 3866 
L 703 4441 
L 1819 4666 
L 2450 4666 
L 2450 531 
L 3481 531 
L 3481 0 
L 794 0 
L 794 531 
z
" transform="scale(0.015625)"/>
       </defs>
       <use xlink:href="#DejaVuSans-2212"/>
       <use xlink:href="#DejaVuSans-30" transform="translate(83.789062 0)"/>
       <use xlink:href="#DejaVuSans-2e" transform="translate(147.412109 0)"/>
       <use xlink:href="#DejaVuSans-31" transform="translate(179.199219 0)"/>
       <use xlink:href="#DejaVuSans-30" transform="translate(242.822266 0)"/>
       <use xlink:href="#DejaVuSans-30" transform="translate(306.445312 0)"/>
      </g>
     </g>
    </g>
    <g id="xtick_2">
     <g id="line2d_2">
      <g>
       <use xlink:href="#m1a47d7b86e" x="116.289037" y="351.16" style="stroke: #000000; stroke-width: 0.8"/>
      </g>
     </g>
     <g id="text_2">
      <!-- −0.075 -->
      <g transform="translate(97.785131 365.758438) scale(0.1 -0.1)">
       <defs>
        <path id="DejaVuSans-37" d="M 525 4666 
L 3525 4666 
L 3525 4397 
L 1831 0 
L 1172 0 
L 2766 4134 
L 525 4134 
L 525 4666 
z
" transform="scale(0.015625)"/>
        <path id="DejaVuSans-35" d="M 691 4666 
L 3169 4666 
L 3169 4134 
L 1269 4134 
L 1269 2991 
Q 1406 3038 1543 3061 
Q 1681 3084 1819 3084 
Q 2600 3084 3056 2656 
Q 3513 2228 3513 1497 
Q 3513 744 3044 326 
Q 2575 -91 1722 -91 
Q 1428 -91 1123 -41 
Q 819 9 494 109 
L 494 744 
Q 775 591 1075 516 
Q 1375 441 1709 441 
Q 2250 441 2565 725 
Q 2881 1009 2881 1497 
Q 2881 1984 2565 2268 
Q 2250 2553 1709 2553 
Q 1456 2553 1204 2497 
Q 953 2441 691 2322 
L 691 4666 
z
" transform="scale(0.015625)"/>
       </defs>
       <use xlink:href="#DejaVuSans-2212"/>
       <use xlink:href="#DejaVuSans-30" transform="translate(83.789062 0)"/>
       <use xlink:href="#DejaVuSans-2e" transform="translate(147.412109 0)"/>
       <use xlink:href="#DejaVuSans-30" transform="translate(179.199219 0)"/>
       <use xlink:href="#DejaVuSans-37" transform="translate(242.822266 0)"/>
       <use xlink:href="#DejaVuSans-35" transform="translate(306.445312 0)"/>
      </g>
     </g>
    </g>
    <g id="xtick_3">
     <g id="line2d_3">
      <g>
       <use xlink:href="#m1a47d7b86e" x="152.588425" y="351.16" style="stroke: #000000; stroke-width: 0.8"/>
      </g>
     </g>
     <g id="text_3">
      <!-- −0.050 -->
      <g transform="translate(134.084519 365.758438) scale(0.1 -0.1)">
       <use xlink:href="#DejaVuSans-2212"/>
       <use xlink:href="#DejaVuSans-30" transform="translate(83.789062 0)"/>
       <use xlink:href="#DejaVuSans-2e" transform="translate(147.412109 0)"/>
       <use xlink:href="#DejaVuSans-30" transform="translate(179.199219 0)"/>
       <use xlink:href="#DejaVuSans-35" transform="translate(242.822266 0)"/>
       <use xlink:href="#DejaVuSans-30" transform="translate(306.445312 0)"/>
      </g>
     </g>
    </g>
    <g id="xtick_4">
     <g id="line2d_4">
      <g>
       <use xlink:href="#m1a47d7b86e" x="188.887814" y="351.16" style="stroke: #000000; stroke-width: 0.8"/>
      </g>
     </g>
     <g id="text_4">
      <!-- −0.025 -->
      <g transform="translate(170.383908 365.758438) scale(0.1 -0.1)">
       <defs>
        <path id="DejaVuSans-32" d="M 1228 531 
L 3431 531 
L 3431 0 
L 469 0 
L 469 531 
Q 828 903 1448 1529 
Q 2069 2156 2228 2338 
Q 2531 2678 2651 2914 
Q 2772 3150 2772 3378 
Q 2772 3750 2511 3984 
Q 2250 4219 1831 4219 
Q 1534 4219 1204 4116 
Q 875 4013 500 3803 
L 500 4441 
Q 881 4594 1212 4672 
Q 1544 4750 1819 4750 
Q 2544 4750 2975 4387 
Q 3406 4025 3406 3419 
Q 3406 3131 3298 2873 
Q 3191 2616 2906 2266 
Q 2828 2175 2409 1742 
Q 1991 1309 1228 531 
z
" transform="scale(0.015625)"/>
       </defs>
       <use xlink:href="#DejaVuSans-2212"/>
       <use xlink:href="#DejaVuSans-30" transform="translate(83.789062 0)"/>
       <use xlink:href="#DejaVuSans-2e" transform="translate(147.412109 0)"/>
       <use xlink:href="#DejaVuSans-30" transform="translate(179.199219 0)"/>
       <use xlink:href="#DejaVuSans-32" transform="translate(242.822266 0)"/>
       <use xlink:href="#DejaVuSans-35" transform="translate(306.445312 0)"/>
      </g>
     </g>
    </g>
    <g id="xtick_5">
     <g id="line2d_5">
      <g>
       <use xlink:href="#m1a47d7b86e" x="225.187202" y="351.16" style="stroke: #000000; stroke-width: 0.8"/>
      </g>
     </g>
     <g id="text_5">
      <!-- 0.000 -->
      <g transform="translate(210.87314 365.758438) scale(0.1 -0.1)">
       <use xlink:href="#DejaVuSans-30"/>
       <use xlink:href="#DejaVuSans-2e" transform="translate(63.623047 0)"/>
       <use xlink:href="#DejaVuSans-30" transform="translate(95.410156 0)"/>
       <use xlink:href="#DejaVuSans-30" transform="translate(159.033203 0)"/>
       <use xlink:href="#DejaVuSans-30" transform="translate(222.65625 0)"/>
      </g>
     </g>
    </g>
    <g id="xtick_6">
     <g id="line2d_6">
      <g>
       <use xlink:href="#m1a47d7b86e" x="261.486591" y="351.16" style="stroke: #000000; stroke-width: 0.8"/>
      </g>
     </g>
     <g id="text_6">
      <!-- 0.025 -->
      <g transform="translate(247.172528 365.758438) scale(0.1 -0.1)">
       <use xlink:href="#DejaVuSans-30"/>
       <use xlink:href="#DejaVuSans-2e" transform="translate(63.623047 0)"/>
       <use xlink:href="#DejaVuSans-30" transform="translate(95.410156 0)"/>
       <use xlink:href="#DejaVuSans-32" transform="translate(159.033203 0)"/>
       <use xlink:href="#DejaVuSans-35" transform="translate(222.65625 0)"/>
      </g>
     </g>
    </g>
    <g id="xtick_7">
     <g id="line2d_7">
      <g>
       <use xlink:href="#m1a47d7b86e" x="297.785979" y="351.16" style="stroke: #000000; stroke-width: 0.8"/>
      </g>
     </g>
     <g id="text_7">
      <!-- 0.050 -->
      <g transform="translate(283.471917 365.758438) scale(0.1 -0.1)">
       <use xlink:href="#DejaVuSans-30"/>
       <use xlink:href="#DejaVuSans-2e" transform="translate(63.623047 0)"/>
       <use xlink:href="#DejaVuSans-30" transform="translate(95.410156 0)"/>
       <use xlink:href="#DejaVuSans-35" transform="translate(159.033203 0)"/>
       <use xlink:href="#DejaVuSans-30" transform="translate(222.65625 0)"/>
      </g>
     </g>
    </g>
    <g id="xtick_8">
     <g id="line2d_8">
      <g>
       <use xlink:href="#m1a47d7b86e" x="334.085368" y="351.16" style="stroke: #000000; stroke-width: 0.8"/>
      </g>
     </g>
     <g id="text_8">
      <!-- 0.075 -->
      <g transform="translate(319.771305 365.758438) scale(0.1 -0.1)">
       <use xlink:href="#DejaVuSans-30"/>
       <use xlink:href="#DejaVuSans-2e" transform="translate(63.623047 0)"/>
       <use xlink:href="#DejaVuSans-30" transform="translate(95.410156 0)"/>
       <use xlink:href="#DejaVuSans-37" transform="translate(159.033203 0)"/>
       <use xlink:href="#DejaVuSans-35" transform="translate(222.65625 0)"/>
      </g>
     </g>
    </g>
    <g id="xtick_9">
     <g id="line2d_9">
      <g>
       <use xlink:href="#m1a47d7b86e" x="370.384756" y="351.16" style="stroke: #000000; stroke-width: 0.8"/>
      </g>
     </g>
     <g id="text_9">
      <!-- 0.100 -->
      <g transform="translate(356.070694 365.758438) scale(0.1 -0.1)">
       <use xlink:href="#DejaVuSans-30"/>
       <use xlink:href="#DejaVuSans-2e" transform="translate(63.623047 0)"/>
       <use xlink:href="#DejaVuSans-31" transform="translate(95.410156 0)"/>
       <use xlink:href="#DejaVuSans-30" transform="translate(159.033203 0)"/>
       <use xlink:href="#DejaVuSans-30" transform="translate(222.65625 0)"/>
      </g>
     </g>
    </g>
    <g id="text_10">
     <!-- $q(t)$ -->
     <g transform="translate(216.137009 379.438125) scale(0.1 -0.1)">
      <defs>
       <path id="DejaVuSans-Oblique-71" d="M 2669 525 
Q 2438 222 2123 65 
Q 1809 -91 1428 -91 
Q 897 -91 595 267 
Q 294 625 294 1253 
Q 294 1759 480 2231 
Q 666 2703 1013 3078 
Q 1238 3322 1530 3453 
Q 1822 3584 2144 3584 
Q 2531 3584 2781 3431 
Q 3031 3278 3144 2969 
L 3244 3494 
L 3822 3494 
L 2888 -1319 
L 2309 -1319 
L 2669 525 
z
M 891 1338 
Q 891 875 1084 633 
Q 1278 391 1644 391 
Q 2188 391 2572 911 
Q 2956 1431 2956 2175 
Q 2956 2625 2757 2864 
Q 2559 3103 2188 3103 
Q 1916 3103 1684 2976 
Q 1453 2850 1281 2606 
Q 1100 2350 995 2006 
Q 891 1663 891 1338 
z
" transform="scale(0.015625)"/>
       <path id="DejaVuSans-28" d="M 1984 4856 
Q 1566 4138 1362 3434 
Q 1159 2731 1159 2009 
Q 1159 1288 1364 580 
Q 1569 -128 1984 -844 
L 1484 -844 
Q 1016 -109 783 600 
Q 550 1309 550 2009 
Q 550 2706 781 3412 
Q 1013 4119 1484 4856 
L 1984 4856 
z
" transform="scale(0.015625)"/>
       <path id="DejaVuSans-Oblique-74" d="M 2706 3500 
L 2619 3053 
L 1472 3053 
L 1100 1153 
Q 1081 1047 1072 975 
Q 1063 903 1063 863 
Q 1063 663 1183 572 
Q 1303 481 1569 481 
L 2150 481 
L 2053 0 
L 1503 0 
Q 991 0 739 200 
Q 488 400 488 806 
Q 488 878 497 964 
Q 506 1050 525 1153 
L 897 3053 
L 409 3053 
L 500 3500 
L 978 3500 
L 1172 4494 
L 1747 4494 
L 1556 3500 
L 2706 3500 
z
" transform="scale(0.015625)"/>
       <path id="DejaVuSans-29" d="M 513 4856 
L 1013 4856 
Q 1481 4119 1714 3412 
Q 1947 2706 1947 2009 
Q 1947 1309 1714 600 
Q 1481 -109 1013 -844 
L 513 -844 
Q 928 -128 1133 580 
Q 1338 1288 1338 2009 
Q 1338 2731 1133 3434 
Q 928 4138 513 4856 
z
" transform="scale(0.015625)"/>
      </defs>
      <use xlink:href="#DejaVuSans-Oblique-71" transform="translate(0 0.125)"/>
      <use xlink:href="#DejaVuSans-28" transform="translate(63.476562 0.125)"/>
      <use xlink:href="#DejaVuSans-Oblique-74" transform="translate(102.490234 0.125)"/>
      <use xlink:href="#DejaVuSans-29" transform="translate(141.699219 0.125)"/>
     </g>
    </g>
   </g>
   <g id="matplotlib.axis_2">
    <g id="ytick_1">
     <g id="line2d_10">
      <defs>
       <path id="mdc14ec2a53" d="M 0 0 
L -3.5 0 
" style="stroke: #000000; stroke-width: 0.8"/>
      </defs>
      <g>
       <use xlink:href="#mdc14ec2a53" x="65.27" y="336.485462" style="stroke: #000000; stroke-width: 0.8"/>
      </g>
     </g>
     <g id="text_11">
      <!-- −1.00 -->
      <g transform="translate(27.624687 340.284681) scale(0.1 -0.1)">
       <use xlink:href="#DejaVuSans-2212"/>
       <use xlink:href="#DejaVuSans-31" transform="translate(83.789062 0)"/>
       <use xlink:href="#DejaVuSans-2e" transform="translate(147.412109 0)"/>
       <use xlink:href="#DejaVuSans-30" transform="translate(179.199219 0)"/>
       <use xlink:href="#DejaVuSans-30" transform="translate(242.822266 0)"/>
      </g>
     </g>
    </g>
    <g id="ytick_2">
     <g id="line2d_11">
      <g>
       <use xlink:href="#mdc14ec2a53" x="65.27" y="299.799097" style="stroke: #000000; stroke-width: 0.8"/>
      </g>
     </g>
     <g id="text_12">
      <!-- −0.75 -->
      <g transform="translate(27.624687 303.598316) scale(0.1 -0.1)">
       <use xlink:href="#DejaVuSans-2212"/>
       <use xlink:href="#DejaVuSans-30" transform="translate(83.789062 0)"/>
       <use xlink:href="#DejaVuSans-2e" transform="translate(147.412109 0)"/>
       <use xlink:href="#DejaVuSans-37" transform="translate(179.199219 0)"/>
       <use xlink:href="#DejaVuSans-35" transform="translate(242.822266 0)"/>
      </g>
     </g>
    </g>
    <g id="ytick_3">
     <g id="line2d_12">
      <g>
       <use xlink:href="#mdc14ec2a53" x="65.27" y="263.112733" style="stroke: #000000; stroke-width: 0.8"/>
      </g>
     </g>
     <g id="text_13">
      <!-- −0.50 -->
      <g transform="translate(27.624687 266.911951) scale(0.1 -0.1)">
       <use xlink:href="#DejaVuSans-2212"/>
       <use xlink:href="#DejaVuSans-30" transform="translate(83.789062 0)"/>
       <use xlink:href="#DejaVuSans-2e" transform="translate(147.412109 0)"/>
       <use xlink:href="#DejaVuSans-35" transform="translate(179.199219 0)"/>
       <use xlink:href="#DejaVuSans-30" transform="translate(242.822266 0)"/>
      </g>
     </g>
    </g>
    <g id="ytick_4">
     <g id="line2d_13">
      <g>
       <use xlink:href="#mdc14ec2a53" x="65.27" y="226.426368" style="stroke: #000000; stroke-width: 0.8"/>
      </g>
     </g>
     <g id="text_14">
      <!-- −0.25 -->
      <g transform="translate(27.624687 230.225587) scale(0.1 -0.1)">
       <use xlink:href="#DejaVuSans-2212"/>
       <use xlink:href="#DejaVuSans-30" transform="translate(83.789062 0)"/>
       <use xlink:href="#DejaVuSans-2e" transform="translate(147.412109 0)"/>
       <use xlink:href="#DejaVuSans-32" transform="translate(179.199219 0)"/>
       <use xlink:href="#DejaVuSans-35" transform="translate(242.822266 0)"/>
      </g>
     </g>
    </g>
    <g id="ytick_5">
     <g id="line2d_14">
      <g>
       <use xlink:href="#mdc14ec2a53" x="65.27" y="189.740004" style="stroke: #000000; stroke-width: 0.8"/>
      </g>
     </g>
     <g id="text_15">
      <!-- 0.00 -->
      <g transform="translate(36.004375 193.539222) scale(0.1 -0.1)">
       <use xlink:href="#DejaVuSans-30"/>
       <use xlink:href="#DejaVuSans-2e" transform="translate(63.623047 0)"/>
       <use xlink:href="#DejaVuSans-30" transform="translate(95.410156 0)"/>
       <use xlink:href="#DejaVuSans-30" transform="translate(159.033203 0)"/>
      </g>
     </g>
    </g>
    <g id="ytick_6">
     <g id="line2d_15">
      <g>
       <use xlink:href="#mdc14ec2a53" x="65.27" y="153.053639" style="stroke: #000000; stroke-width: 0.8"/>
      </g>
     </g>
     <g id="text_16">
      <!-- 0.25 -->
      <g transform="translate(36.004375 156.852858) scale(0.1 -0.1)">
       <use xlink:href="#DejaVuSans-30"/>
       <use xlink:href="#DejaVuSans-2e" transform="translate(63.623047 0)"/>
       <use xlink:href="#DejaVuSans-32" transform="translate(95.410156 0)"/>
       <use xlink:href="#DejaVuSans-35" transform="translate(159.033203 0)"/>
      </g>
     </g>
    </g>
    <g id="ytick_7">
     <g id="line2d_16">
      <g>
       <use xlink:href="#mdc14ec2a53" x="65.27" y="116.367275" style="stroke: #000000; stroke-width: 0.8"/>
      </g>
     </g>
     <g id="text_17">
      <!-- 0.50 -->
      <g transform="translate(36.004375 120.166493) scale(0.1 -0.1)">
       <use xlink:href="#DejaVuSans-30"/>
       <use xlink:href="#DejaVuSans-2e" transform="translate(63.623047 0)"/>
       <use xlink:href="#DejaVuSans-35" transform="translate(95.410156 0)"/>
       <use xlink:href="#DejaVuSans-30" transform="translate(159.033203 0)"/>
      </g>
     </g>
    </g>
    <g id="ytick_8">
     <g id="line2d_17">
      <g>
       <use xlink:href="#mdc14ec2a53" x="65.27" y="79.68091" style="stroke: #000000; stroke-width: 0.8"/>
      </g>
     </g>
     <g id="text_18">
      <!-- 0.75 -->
      <g transform="translate(36.004375 83.480129) scale(0.1 -0.1)">
       <use xlink:href="#DejaVuSans-30"/>
       <use xlink:href="#DejaVuSans-2e" transform="translate(63.623047 0)"/>
       <use xlink:href="#DejaVuSans-37" transform="translate(95.410156 0)"/>
       <use xlink:href="#DejaVuSans-35" transform="translate(159.033203 0)"/>
      </g>
     </g>
    </g>
    <g id="ytick_9">
     <g id="line2d_18">
      <g>
       <use xlink:href="#mdc14ec2a53" x="65.27" y="42.994545" style="stroke: #000000; stroke-width: 0.8"/>
      </g>
     </g>
     <g id="text_19">
      <!-- 1.00 -->
      <g transform="translate(36.004375 46.793764) scale(0.1 -0.1)">
       <use xlink:href="#DejaVuSans-31"/>
       <use xlink:href="#DejaVuSans-2e" transform="translate(63.623047 0)"/>
       <use xlink:href="#DejaVuSans-30" transform="translate(95.410156 0)"/>
       <use xlink:href="#DejaVuSans-30" transform="translate(159.033203 0)"/>
      </g>
     </g>
    </g>
    <g id="text_20">
     <!-- $p(t)$ -->
     <g transform="translate(21.524687 198.79) rotate(-90) scale(0.1 -0.1)">
      <defs>
       <path id="DejaVuSans-Oblique-70" d="M 3175 2156 
Q 3175 2616 2975 2859 
Q 2775 3103 2400 3103 
Q 2144 3103 1911 2972 
Q 1678 2841 1497 2591 
Q 1319 2344 1212 1994 
Q 1106 1644 1106 1300 
Q 1106 863 1306 627 
Q 1506 391 1875 391 
Q 2147 391 2380 519 
Q 2613 647 2778 891 
Q 2956 1147 3065 1494 
Q 3175 1841 3175 2156 
z
M 1394 2969 
Q 1625 3272 1939 3428 
Q 2253 3584 2638 3584 
Q 3175 3584 3472 3232 
Q 3769 2881 3769 2247 
Q 3769 1728 3584 1258 
Q 3400 788 3053 416 
Q 2822 169 2531 39 
Q 2241 -91 1919 -91 
Q 1547 -91 1294 64 
Q 1041 219 916 525 
L 556 -1331 
L -19 -1331 
L 922 3500 
L 1497 3500 
L 1394 2969 
z
" transform="scale(0.015625)"/>
      </defs>
      <use xlink:href="#DejaVuSans-Oblique-70" transform="translate(0 0.125)"/>
      <use xlink:href="#DejaVuSans-28" transform="translate(63.476562 0.125)"/>
      <use xlink:href="#DejaVuSans-Oblique-74" transform="translate(102.490234 0.125)"/>
      <use xlink:href="#DejaVuSans-29" transform="translate(141.699219 0.125)"/>
     </g>
    </g>
   </g>
   <g id="line2d_19">
    <path d="M 304.346085 66.655531 
L 316.128905 75.25123 
L 327.002309 84.991816 
L 336.857561 95.779884 
L 345.59611 107.507554 
L 353.13057 120.057548 
L 359.385596 133.304366 
L 364.298638 147.115541 
L 367.820566 161.352961 
L 369.91616 175.874251 
L 370.564465 190.534198 
L 369.758997 205.186204 
L 367.507811 219.683747 
L 363.833419 233.881853 
L 358.772565 247.638541 
L 352.375857 260.816243 
L 344.707262 273.283183 
L 335.843467 284.914691 
L 325.87311 295.594452 
L 314.895893 305.215669 
L 303.021589 313.682129 
L 290.368942 320.909168 
L 277.064477 326.824515 
L 263.241239 331.369017 
L 249.037461 334.497229 
L 234.595181 336.177868 
L 220.05882 336.394129 
L 205.573744 335.143849 
L 191.284802 332.43953 
L 177.334884 328.308216 
L 163.863489 322.79122 
L 151.005331 315.943712 
L 138.888992 307.834167 
L 127.635636 298.54368 
L 117.357794 288.165156 
L 108.158247 276.802381 
L 100.12899 264.568982 
L 93.350314 251.587293 
L 87.890008 237.987131 
L 83.802673 223.904498 
L 81.129184 209.48022 
L 79.896275 194.85854 
L 80.116275 180.185675 
L 81.786984 165.608352 
L 84.891696 151.272347 
L 89.399363 137.321018 
L 95.264908 123.893878 
L 102.429676 111.1252 
L 110.822019 99.14267 
L 120.358014 88.066114 
L 130.942301 78.006296 
L 142.469037 69.063815 
L 154.822955 61.328097 
L 167.880515 54.876497 
L 181.511142 49.773532 
L 195.578529 46.070232 
L 209.942004 43.80363 
L 224.45793 42.996392 
L 238.981149 43.656589 
L 253.366429 45.777621 
L 267.469916 49.338277 
L 281.150576 54.30295 
L 294.271603 60.621993 
L 306.701785 68.232217 
L 318.316822 77.057518 
L 329.000562 87.009644 
L 338.646169 97.989074 
L 347.157186 109.886013 
L 354.448504 122.581492 
L 360.447208 135.948557 
L 365.093312 149.853535 
L 368.340355 164.157378 
L 370.155867 178.717048 
L 370.521692 193.386947 
L 369.434172 208.020377 
L 366.904182 222.471003 
L 362.957023 236.594319 
L 357.632165 250.249092 
L 350.982858 263.298773 
L 343.075594 275.612868 
L 333.989446 287.068233 
L 323.815276 297.550317 
L 312.654825 306.954297 
L 300.619698 315.186134 
L 287.830246 322.16351 
L 274.414364 327.816651 
L 260.50621 332.089025 
L 246.244865 334.937909 
L 231.772944 336.334814 
L 217.235166 336.265771 
L 202.776908 334.731471 
L 188.542753 331.747255 
L 174.675043 327.342968 
L 161.312454 321.56265 
L 148.588613 314.464106 
L 136.630757 306.118321 
L 125.558466 296.608753 
L 115.482462 286.030497 
L 106.503506 274.489337 
L 98.711387 262.100683 
L 92.184026 248.988422 
L 86.986696 235.283677 
L 83.171372 221.123496 
L 80.776206 206.649479 
L 79.82515 192.006368 
L 80.327714 177.340593 
L 82.278874 162.798812 
L 85.659116 148.526443 
L 90.43464 134.66621 
L 96.557689 121.356714 
L 103.967033 108.731052 
L 112.588579 96.915479 
L 122.336111 86.028151 
L 133.112154 76.177942 
L 144.808948 67.463353 
L 157.309524 59.971531 
L 170.488877 53.777394 
L 184.215213 48.942883 
L 198.351269 45.516343 
L 212.755684 43.532039 
L 227.284415 43.009815 
L 241.792173 43.954893 
L 256.133882 46.357823 
L 270.166124 50.194574 
L 283.748577 55.426779 
L 296.745416 62.002116 
L 309.026673 69.854833 
L 320.469535 78.906401 
L 330.959574 89.066305 
L 340.391889 100.232946 
L 348.672157 112.294658 
L 355.717576 125.130823 
L 361.457691 138.61308 
L 365.835101 152.606606 
L 368.806032 166.971467 
L 370.340774 181.564012 
L 370.423982 196.238318 
L 369.054821 210.84764 
L 366.246984 225.245886 
L 362.028549 239.289073 
L 356.441701 252.836769 
L 349.542308 265.753498 
L 341.399364 277.910092 
L 332.094298 289.184985 
L 321.720161 299.465428 
L 310.380695 308.648617 
L 298.189293 316.64272 
L 285.267871 323.367795 
L 271.745642 328.756593 
L 257.757829 332.755225 
L 243.444309 335.323704 
L 228.948219 336.436347 
L 214.414518 336.082026 
L 199.988544 334.264285 
L 185.814557 331.001301 
L 172.034296 326.325704 
L 158.785564 320.28425 
L 146.200848 312.937354 
L 134.405996 304.358484 
L 123.518957 294.63343 
L 113.648599 283.859441 
L 104.893628 272.144257 
L 97.341592 259.605031 
L 91.068013 246.367155 
L 86.135625 232.563008 
L 82.593753 218.33063 
L 80.477816 203.812346 
L 79.808972 189.153339 
L 80.593911 174.500198 
L 82.824783 159.999455 
L 86.479279 145.796118 
L 91.520854 132.03222 
L 97.899093 118.845399 
L 105.550212 106.367525 
L 114.397702 94.723375 
L 124.353087 84.029392 
L 135.316812 74.392515 
L 147.179242 65.909112 
L 159.821751 58.664019 
L 173.117915 52.729685 
L 186.934772 48.165455 
L 201.134153 45.01697 
L 215.574064 43.315715 
L 230.110107 43.078704 
L 244.596921 44.308305 
L 258.889638 46.992223 
L 272.84533 51.103619 
L 286.324441 56.601379 
L 299.192179 63.430525 
L 311.319868 71.522766 
L 322.586231 80.79718 
L 332.878602 91.161021 
L 342.09406 102.510653 
L 350.14045 114.732577 
L 356.937306 127.704577 
L 362.416662 141.29693 
L 366.523723 155.373714 
L 369.217419 169.794161 
L 370.470813 184.414067 
L 370.271371 199.087232 
L 368.621087 213.666924 
L 365.536464 228.007348 
L 361.048349 241.965097 
L 355.201622 255.400596 
L 348.054751 268.179489 
L 339.679204 280.173988 
L 330.158738 291.264146 
L 319.588556 301.339063 
L 308.07436 310.297989 
L 295.731293 318.051336 
L 282.682785 324.521569 
L 269.059321 329.643986 
L 254.997136 333.367364 
L 240.636852 335.654468 
L 226.122071 336.482428 
L 211.597942 335.842963 
L 197.209705 333.742468 
L 183.101243 330.201949 
L 169.41364 325.256811 
L 156.283774 318.956504 
L 143.842941 311.364033 
L 132.215552 302.555321 
L 121.517878 292.618456 
L 111.856898 281.652806 
L 103.329221 269.768029 
L 96.020124 257.082971 
L 90.002697 243.724483 
L 85.337116 229.826151 
L 82.070036 215.526957 
L 80.234127 200.969894 
L 79.847749 186.300532 
L 80.914765 171.665564 
L 83.424506 157.211341 
L 87.351874 143.082404 
L 92.657595 129.420044 
L 99.288612 116.360883 
L 107.178615 104.035513 
L 116.248704 92.567189 
L 126.408178 82.070592 
L 137.555442 72.650689 
L 149.579024 64.40168 
L 162.358687 57.406054 
L 175.766636 51.733767 
L 189.66879 47.441543 
L 203.926129 44.572303 
L 218.396078 43.154741 
L 232.933938 43.203031 
L 247.394332 44.71669 
L 261.632653 47.680583 
L 275.506521 52.06507 
L 288.877195 57.826306 
L 301.610969 64.90668 
L 313.580505 73.235386 
L 324.666109 82.729139 
L 334.756923 93.293001 
L 343.752041 104.821332 
L 351.561509 117.19885 
L 358.107235 130.30178 
L 363.323761 143.999092 
L 367.158921 158.153813 
L 369.574363 172.624396 
L 370.545934 187.266135 
L 370.063918 201.932612 
L 368.133135 216.477164 
L 364.772892 230.754344 
L 360.016792 244.621381 
L 353.912397 257.939603 
L 346.520749 270.57583 
L 337.915766 282.403699 
L 328.183498 293.30493 
L 317.421266 303.170513 
L 305.736694 311.90179 
L 293.246627 319.41145 
L 280.075966 325.624394 
L 266.356417 330.478495 
L 252.225176 333.925212 
L 237.823555 335.930076 
L 223.29557 336.473039 
L 208.786502 335.548672 
L 194.441441 333.166218 
L 180.403838 329.349502 
L 166.814068 324.136691 
L 153.80803 317.579914 
L 141.515783 309.744737 
L 130.06025 300.709513 
L 119.555987 290.564593 
L 110.108036 279.411428 
L 101.810877 267.361549 
L 94.747481 254.535454 
L 88.988483 241.061405 
L 84.591471 227.074141 
L 81.600417 212.713537 
L 80.04523 198.123197 
L 79.941464 183.449025 
L 81.290155 168.837762 
L 84.077816 154.435522 
L 88.276571 140.386327 
L 93.844432 126.830669 
L 100.725721 113.904104 
L 108.851625 101.735898 
L 118.140885 90.447734 
L 128.500608 80.152491 
L 139.827197 70.953124 
L 152.007385 62.941626 
L 164.919372 56.198112 
L 178.434038 50.790016 
L 192.416235 46.771421 
L 206.726141 44.182511 
L 221.220659 43.049176 
L 235.754841 43.382749 
L 250.183348 45.179895 
L 264.361892 48.422642 
L 278.14869 53.078563 
L 291.405873 59.101098 
L 304.00087 66.430022 
L 315.80773 74.992046 
L 326.708384 84.701549 
L 336.593827 95.461437 
L 345.365203 107.164111 
L 352.934799 119.692544 
L 359.22692 132.921451 
L 364.178643 146.718544 
L 367.740452 160.945851 
L 369.876728 175.4611 
L 370.566109 190.119138 
L 369.801701 204.773384 
L 367.591148 219.277297 
L 363.956555 233.485837 
L 358.934269 247.256918 
L 352.574513 260.452831 
L 344.940883 272.941615 
L 336.109716 284.598383 
L 326.169325 295.306567 
L 315.219112 304.959085 
L 303.36858 313.459413 
L 290.736234 320.722547 
L 277.448398 326.675855 
L 263.63795 331.259805 
L 249.442994 334.428556 
L 235.005481 336.150423 
L 220.469785 336.408184 
L 205.981262 335.199265 
L 191.6848 332.535752 
L 177.723361 328.444282 
L 164.236561 322.965769 
L 151.359267 316.154999 
L 139.220253 308.080079 
L 127.940908 298.821758 
L 117.634026 288.472619 
L 108.402675 277.136154 
L 100.33917 264.925728 
L 93.524146 251.963444 
L 88.025752 238.378926 
L 83.898972 224.308019 
L 81.185075 209.891432 
L 79.911199 195.27333 
L 80.090083 180.599895 
L 81.719938 166.017862 
L 84.784466 151.673049 
L 89.253021 137.708906 
L 95.080918 124.265075 
L 102.209878 111.475992 
L 110.568611 99.46955 
L 120.07353 88.365812 
L 130.629586 78.275816 
L 142.131218 69.300462 
L 154.46341 61.529503 
L 167.502839 55.040649 
L 181.119113 49.898789 
L 195.176067 46.155341 
L 209.533132 43.84774 
L 224.046739 42.999061 
L 238.57175 43.617792 
L 252.962915 45.697744 
L 267.076323 49.21812 
L 280.770841 54.143714 
L 293.909521 60.425271 
L 306.360979 67.999976 
L 318.000699 76.79208 
L 328.712283 86.713664 
L 338.388617 97.665512 
L 346.932937 109.538104 
L 354.2598 122.212715 
L 360.295936 135.5626 
L 364.980985 149.454258 
L 368.268097 163.748773 
L 370.124399 178.303201 
L 370.53133 192.971997 
L 369.484819 207.608473 
L 366.995332 222.066265 
L 363.087764 236.200794 
L 357.80119 249.870714 
L 351.188476 262.939328 
L 343.315749 275.275949 
L 334.261737 286.75721 
L 324.11698 297.268299 
L 312.982925 306.704105 
L 300.970913 314.97027 
L 288.201063 321.984132 
L 274.801075 327.675553 
L 260.904948 331.987619 
L 246.651644 334.877208 
L 232.183695 336.315426 
L 217.645782 336.287889 
L 203.183283 334.794873 
L 188.940822 331.851309 
L 175.060826 327.486631 
L 161.682093 321.744488 
L 148.938412 314.682299 
L 136.957218 306.370688 
L 125.858324 296.892769 
L 115.752719 286.343323 
L 106.741459 274.827844 
L 98.914656 262.461486 
L 92.350579 249.367914 
L 87.114868 235.678062 
L 83.25988 221.52883 
L 80.824166 207.06171 
L 79.832082 192.421373 
L 80.293549 177.754221 
L 82.203953 163.206928 
L 85.544189 148.924966 
L 90.280855 135.051153 
L 96.366585 121.72423 
L 103.740521 109.077464 
L 112.328923 97.237323 
L 122.045909 86.32221 
L 132.794307 76.441274 
L 144.466635 67.693325 
L 156.946168 60.165844 
L 170.108111 53.934103 
L 183.820845 49.060422 
L 197.947243 45.593537 
L 212.346041 43.568116 
L 226.87325 43.004415 
L 241.383599 43.908069 
L 255.731983 46.270042 
L 269.77492 50.066715 
L 283.37198 55.260121 
L 296.387192 61.798326 
L 308.690404 69.615948 
L 320.158584 78.63481 
L 330.67705 88.764724 
L 340.140618 99.904391 
L 348.454651 111.942414 
L 355.53601 124.758413 
L 361.313881 138.224228 
L 365.730485 152.2052 
L 368.741657 166.561521 
L 370.317284 181.149626 
L 370.44161 195.823635 
L 369.113392 210.436808 
L 366.345912 224.843013 
L 362.166845 238.898188 
L 356.617981 252.461781 
L 349.75481 265.398156 
L 341.645963 277.577949 
L 332.372528 288.879364 
L 322.027239 299.189384 
L 310.713551 308.404911 
L 298.544599 316.433789 
L 285.642073 323.195728 
L 272.134998 328.623111 
L 258.158445 332.661662 
L 243.85218 335.270997 
L 229.359265 336.425022 
L 214.82463 336.112197 
L 200.39362 334.33565 
L 186.210546 331.113146 
L 172.417239 326.476911 
L 159.151631 320.473307 
L 146.546379 313.16237 
L 134.727535 304.617209 
L 123.813288 294.923276 
L 113.91278 284.177511 
L 105.125016 272.48737 
L 97.537874 259.969756 
L 91.227226 246.749844 
L 86.256177 232.959834 
L 82.674438 218.737625 
L 80.517827 204.22544 
L 79.80791 189.568401 
L 80.551786 174.913078 
L 82.742016 160.406024 
L 86.356697 146.19231 
L 91.359684 132.414073 
L 97.700946 119.209095 
L 105.317071 106.709426 
L 114.131896 95.040063 
L 124.057275 84.3177 
L 134.993953 74.649559 
L 146.832564 66.132323 
L 159.454721 58.851164 
L 172.734203 52.878893 
L 186.538215 48.275233 
L 200.728717 45.086221 
L 215.163803 43.343747 
L 229.699124 43.065235 
L 244.189325 44.253471 
L 258.489505 46.896573 
L 272.456662 50.968108 
L 285.951125 56.427363 
L 298.837948 63.219744 
L 310.988264 71.277327 
L 322.280569 80.519538 
L 332.601941 90.853953 
L 341.849165 102.177228 
L 349.929769 114.376132 
L 356.762948 127.328673 
L 362.28037 140.905329 
L 366.426859 154.970331 
L 369.160953 169.38303 
L 370.455308 183.999298 
L 370.296983 198.672974 
L 368.68756 213.25732 
L 365.643133 227.606492 
L 361.194147 241.577 
L 355.385091 255.029138 
L 348.274057 267.828384 
L 339.932154 279.846747 
L 330.442801 290.964042 
L 319.900893 301.069097 
L 308.411847 310.060861 
L 296.090556 317.849417 
L 283.06023 324.356878 
L 269.451175 329.51817 
L 255.399479 333.281681 
L 241.045661 335.609775 
L 226.533258 336.479172 
L 212.007395 335.881176 
L 197.61333 333.821769 
L 183.495003 330.321544 
L 169.793599 325.415504 
L 156.646131 319.152709 
L 144.184073 311.595787 
L 132.532046 302.820307 
L 121.806571 292.914024 
L 112.114903 281.976001 
L 103.553957 270.115617 
L 96.209344 257.451478 
L 90.15451 244.110224 
L 85.450002 230.225268 
L 82.142866 215.935459 
L 80.266174 201.383695 
L 79.838692 186.715495 
L 80.864695 172.077539 
L 83.333923 157.616209 
L 87.221684 143.476116 
L 92.489101 129.798662 
L 99.083498 116.720622 
L 106.938932 104.372775 
L 115.976849 92.878601 
L 126.106869 82.35304 
L 137.227693 72.90135 
L 149.228112 64.618045 
L 161.988122 57.585961 
L 175.380122 51.875417 
L 189.270194 47.543519 
L 203.519435 44.633585 
L 217.985354 43.174716 
L 232.523292 43.1815 
L 246.987869 44.653868 
L 261.234439 47.577098 
L 275.120537 51.921957 
L 288.507301 57.644997 
L 301.260864 64.688987 
L 313.253691 72.983486 
L 324.365853 82.445551 
L 334.486228 92.980561 
L 343.513613 104.483165 
L 351.357734 116.838337 
L 357.94015 129.922526 
L 363.195036 143.60489 
L 367.069844 157.748605 
L 369.525826 172.212234 
L 370.538421 186.85114 
L 370.097504 201.518935 
L 368.207484 216.068941 
L 364.887261 230.355658 
L 360.170038 244.236218 
L 354.102986 257.571816 
L 346.746776 270.229095 
L 338.174971 282.081484 
L 328.473288 293.010458 
L 317.738744 302.906728 
L 306.078685 311.67133 
L 293.609711 319.216619 
L 280.456511 325.467142 
L 266.750619 330.360393 
L 252.629093 333.84744 
L 238.233147 335.893414 
L 223.706743 336.477853 
L 209.195142 335.594913 
L 194.843463 333.253425 
L 180.795221 329.476802 
L 167.190898 324.302811 
L 154.166539 317.783192 
L 141.852386 309.983142 
L 130.371582 300.98066 
L 119.838933 290.865771 
L 110.359768 279.739625 
L 102.028876 267.713482 
L 94.929568 254.907605 
L 89.132837 241.450052 
L 84.696649 227.475398 
L 81.665366 213.12339 
L 80.069302 198.537549 
L 79.924417 183.863731 
L 81.232159 169.248677 
L 83.979453 154.838536 
L 88.138823 140.77741 
L 93.668678 127.205909 
L 100.513717 114.25975 
L 108.605492 102.068393 
L 117.863084 90.753752 
L 128.193916 80.428974 
L 139.494682 71.197306 
L 151.652373 63.151064 
L 164.545412 56.370713 
L 178.044869 50.924054 
L 192.01575 46.865555 
L 206.318345 44.2358 
L 220.809628 43.061087 
L 235.344687 43.353164 
L 249.778172 45.109108 
L 263.965746 48.311362 
L 277.765536 52.927902 
L 291.039542 58.912564 
L 303.655024 66.205499 
L 303.655024 66.205499 
" clip-path="url(#p1f2bc1d9d0)" style="fill: none; stroke: #1f77b4; stroke-width: 1.5; stroke-linecap: square"/>
   </g>
   <g id="patch_3">
    <path d="M 65.27 351.16 
L 65.27 28.32 
" style="fill: none; stroke: #000000; stroke-width: 0.8; stroke-linejoin: miter; stroke-linecap: square"/>
   </g>
   <g id="patch_4">
    <path d="M 385.104019 351.16 
L 385.104019 28.32 
" style="fill: none; stroke: #000000; stroke-width: 0.8; stroke-linejoin: miter; stroke-linecap: square"/>
   </g>
   <g id="patch_5">
    <path d="M 65.27 351.16 
L 385.104019 351.16 
" style="fill: none; stroke: #000000; stroke-width: 0.8; stroke-linejoin: miter; stroke-linecap: square"/>
   </g>
   <g id="patch_6">
    <path d="M 65.27 28.32 
L 385.104019 28.32 
" style="fill: none; stroke: #000000; stroke-width: 0.8; stroke-linejoin: miter; stroke-linecap: square"/>
   </g>
   <g id="text_21">
    <!-- Velocity Verlet Stability, $\omega$=10,  $\Delta t$=0.01, $N_{10rev}$=629 -->
    <g transform="translate(65.767009 22.32) scale(0.12 -0.12)">
     <defs>
      <path id="DejaVuSans-56" d="M 1831 0 
L 50 4666 
L 709 4666 
L 2188 738 
L 3669 4666 
L 4325 4666 
L 2547 0 
L 1831 0 
z
" transform="scale(0.015625)"/>
      <path id="DejaVuSans-65" d="M 3597 1894 
L 3597 1613 
L 953 1613 
Q 991 1019 1311 708 
Q 1631 397 2203 397 
Q 2534 397 2845 478 
Q 3156 559 3463 722 
L 3463 178 
Q 3153 47 2828 -22 
Q 2503 -91 2169 -91 
Q 1331 -91 842 396 
Q 353 884 353 1716 
Q 353 2575 817 3079 
Q 1281 3584 2069 3584 
Q 2775 3584 3186 3129 
Q 3597 2675 3597 1894 
z
M 3022 2063 
Q 3016 2534 2758 2815 
Q 2500 3097 2075 3097 
Q 1594 3097 1305 2825 
Q 1016 2553 972 2059 
L 3022 2063 
z
" transform="scale(0.015625)"/>
      <path id="DejaVuSans-6c" d="M 603 4863 
L 1178 4863 
L 1178 0 
L 603 0 
L 603 4863 
z
" transform="scale(0.015625)"/>
      <path id="DejaVuSans-6f" d="M 1959 3097 
Q 1497 3097 1228 2736 
Q 959 2375 959 1747 
Q 959 1119 1226 758 
Q 1494 397 1959 397 
Q 2419 397 2687 759 
Q 2956 1122 2956 1747 
Q 2956 2369 2687 2733 
Q 2419 3097 1959 3097 
z
M 1959 3584 
Q 2709 3584 3137 3096 
Q 3566 2609 3566 1747 
Q 3566 888 3137 398 
Q 2709 -91 1959 -91 
Q 1206 -91 779 398 
Q 353 888 353 1747 
Q 353 2609 779 3096 
Q 1206 3584 1959 3584 
z
" transform="scale(0.015625)"/>
      <path id="DejaVuSans-63" d="M 3122 3366 
L 3122 2828 
Q 2878 2963 2633 3030 
Q 2388 3097 2138 3097 
Q 1578 3097 1268 2742 
Q 959 2388 959 1747 
Q 959 1106 1268 751 
Q 1578 397 2138 397 
Q 2388 397 2633 464 
Q 2878 531 3122 666 
L 3122 134 
Q 2881 22 2623 -34 
Q 2366 -91 2075 -91 
Q 1284 -91 818 406 
Q 353 903 353 1747 
Q 353 2603 823 3093 
Q 1294 3584 2113 3584 
Q 2378 3584 2631 3529 
Q 2884 3475 3122 3366 
z
" transform="scale(0.015625)"/>
      <path id="DejaVuSans-69" d="M 603 3500 
L 1178 3500 
L 1178 0 
L 603 0 
L 603 3500 
z
M 603 4863 
L 1178 4863 
L 1178 4134 
L 603 4134 
L 603 4863 
z
" transform="scale(0.015625)"/>
      <path id="DejaVuSans-74" d="M 1172 4494 
L 1172 3500 
L 2356 3500 
L 2356 3053 
L 1172 3053 
L 1172 1153 
Q 1172 725 1289 603 
Q 1406 481 1766 481 
L 2356 481 
L 2356 0 
L 1766 0 
Q 1100 0 847 248 
Q 594 497 594 1153 
L 594 3053 
L 172 3053 
L 172 3500 
L 594 3500 
L 594 4494 
L 1172 4494 
z
" transform="scale(0.015625)"/>
      <path id="DejaVuSans-79" d="M 2059 -325 
Q 1816 -950 1584 -1140 
Q 1353 -1331 966 -1331 
L 506 -1331 
L 506 -850 
L 844 -850 
Q 1081 -850 1212 -737 
Q 1344 -625 1503 -206 
L 1606 56 
L 191 3500 
L 800 3500 
L 1894 763 
L 2988 3500 
L 3597 3500 
L 2059 -325 
z
" transform="scale(0.015625)"/>
      <path id="DejaVuSans-20" transform="scale(0.015625)"/>
      <path id="DejaVuSans-72" d="M 2631 2963 
Q 2534 3019 2420 3045 
Q 2306 3072 2169 3072 
Q 1681 3072 1420 2755 
Q 1159 2438 1159 1844 
L 1159 0 
L 581 0 
L 581 3500 
L 1159 3500 
L 1159 2956 
Q 1341 3275 1631 3429 
Q 1922 3584 2338 3584 
Q 2397 3584 2469 3576 
Q 2541 3569 2628 3553 
L 2631 2963 
z
" transform="scale(0.015625)"/>
      <path id="DejaVuSans-53" d="M 3425 4513 
L 3425 3897 
Q 3066 4069 2747 4153 
Q 2428 4238 2131 4238 
Q 1616 4238 1336 4038 
Q 1056 3838 1056 3469 
Q 1056 3159 1242 3001 
Q 1428 2844 1947 2747 
L 2328 2669 
Q 3034 2534 3370 2195 
Q 3706 1856 3706 1288 
Q 3706 609 3251 259 
Q 2797 -91 1919 -91 
Q 1588 -91 1214 -16 
Q 841 59 441 206 
L 441 856 
Q 825 641 1194 531 
Q 1563 422 1919 422 
Q 2459 422 2753 634 
Q 3047 847 3047 1241 
Q 3047 1584 2836 1778 
Q 2625 1972 2144 2069 
L 1759 2144 
Q 1053 2284 737 2584 
Q 422 2884 422 3419 
Q 422 4038 858 4394 
Q 1294 4750 2059 4750 
Q 2388 4750 2728 4690 
Q 3069 4631 3425 4513 
z
" transform="scale(0.015625)"/>
      <path id="DejaVuSans-61" d="M 2194 1759 
Q 1497 1759 1228 1600 
Q 959 1441 959 1056 
Q 959 750 1161 570 
Q 1363 391 1709 391 
Q 2188 391 2477 730 
Q 2766 1069 2766 1631 
L 2766 1759 
L 2194 1759 
z
M 3341 1997 
L 3341 0 
L 2766 0 
L 2766 531 
Q 2569 213 2275 61 
Q 1981 -91 1556 -91 
Q 1019 -91 701 211 
Q 384 513 384 1019 
Q 384 1609 779 1909 
Q 1175 2209 1959 2209 
L 2766 2209 
L 2766 2266 
Q 2766 2663 2505 2880 
Q 2244 3097 1772 3097 
Q 1472 3097 1187 3025 
Q 903 2953 641 2809 
L 641 3341 
Q 956 3463 1253 3523 
Q 1550 3584 1831 3584 
Q 2591 3584 2966 3190 
Q 3341 2797 3341 1997 
z
" transform="scale(0.015625)"/>
      <path id="DejaVuSans-62" d="M 3116 1747 
Q 3116 2381 2855 2742 
Q 2594 3103 2138 3103 
Q 1681 3103 1420 2742 
Q 1159 2381 1159 1747 
Q 1159 1113 1420 752 
Q 1681 391 2138 391 
Q 2594 391 2855 752 
Q 3116 1113 3116 1747 
z
M 1159 2969 
Q 1341 3281 1617 3432 
Q 1894 3584 2278 3584 
Q 2916 3584 3314 3078 
Q 3713 2572 3713 1747 
Q 3713 922 3314 415 
Q 2916 -91 2278 -91 
Q 1894 -91 1617 61 
Q 1341 213 1159 525 
L 1159 0 
L 581 0 
L 581 4863 
L 1159 4863 
L 1159 2969 
z
" transform="scale(0.015625)"/>
      <path id="DejaVuSans-2c" d="M 750 794 
L 1409 794 
L 1409 256 
L 897 -744 
L 494 -744 
L 750 256 
L 750 794 
z
" transform="scale(0.015625)"/>
      <path id="DejaVuSans-Oblique-3c9" d="M 1369 -91 
Q 72 -91 434 1766 
Q 575 2500 1256 3500 
L 1875 3500 
Q 1231 2500 1088 1750 
Q 819 397 1519 397 
Q 2166 397 2478 2078 
L 3009 2078 
Q 2669 388 3316 397 
Q 4013 403 4275 1750 
Q 4419 2500 4169 3500 
L 4788 3500 
Q 5075 2500 4934 1766 
Q 4578 -94 3278 -91 
Q 2428 -88 2503 844 
Q 2194 -91 1369 -91 
z
" transform="scale(0.015625)"/>
      <path id="DejaVuSans-3d" d="M 678 2906 
L 4684 2906 
L 4684 2381 
L 678 2381 
L 678 2906 
z
M 678 1631 
L 4684 1631 
L 4684 1100 
L 678 1100 
L 678 1631 
z
" transform="scale(0.015625)"/>
      <path id="DejaVuSans-394" d="M 2188 4044 
L 906 525 
L 3472 525 
L 2188 4044 
z
M 50 0 
L 1831 4666 
L 2547 4666 
L 4325 0 
L 50 0 
z
" transform="scale(0.015625)"/>
      <path id="DejaVuSans-Oblique-4e" d="M 1081 4666 
L 1931 4666 
L 3219 666 
L 4000 4666 
L 4616 4666 
L 3706 0 
L 2853 0 
L 1569 4025 
L 788 0 
L 172 0 
L 1081 4666 
z
" transform="scale(0.015625)"/>
      <path id="DejaVuSans-Oblique-72" d="M 2853 2969 
Q 2766 3016 2653 3041 
Q 2541 3066 2413 3066 
Q 1953 3066 1609 2717 
Q 1266 2369 1153 1784 
L 800 0 
L 225 0 
L 909 3500 
L 1484 3500 
L 1375 2956 
Q 1603 3259 1920 3421 
Q 2238 3584 2597 3584 
Q 2691 3584 2781 3573 
Q 2872 3563 2963 3538 
L 2853 2969 
z
" transform="scale(0.015625)"/>
      <path id="DejaVuSans-Oblique-65" d="M 3078 2063 
Q 3088 2113 3092 2166 
Q 3097 2219 3097 2272 
Q 3097 2653 2873 2875 
Q 2650 3097 2266 3097 
Q 1838 3097 1509 2826 
Q 1181 2556 1013 2059 
L 3078 2063 
z
M 3578 1613 
L 903 1613 
Q 884 1494 878 1425 
Q 872 1356 872 1306 
Q 872 872 1139 634 
Q 1406 397 1894 397 
Q 2269 397 2603 481 
Q 2938 566 3225 728 
L 3116 159 
Q 2806 34 2476 -28 
Q 2147 -91 1806 -91 
Q 1078 -91 686 257 
Q 294 606 294 1247 
Q 294 1794 489 2264 
Q 684 2734 1063 3103 
Q 1306 3334 1642 3459 
Q 1978 3584 2356 3584 
Q 2950 3584 3301 3228 
Q 3653 2872 3653 2272 
Q 3653 2128 3634 1964 
Q 3616 1800 3578 1613 
z
" transform="scale(0.015625)"/>
      <path id="DejaVuSans-Oblique-76" d="M 459 3500 
L 1069 3500 
L 1581 525 
L 3256 3500 
L 3866 3500 
L 1875 0 
L 1100 0 
L 459 3500 
z
" transform="scale(0.015625)"/>
      <path id="DejaVuSans-36" d="M 2113 2584 
Q 1688 2584 1439 2293 
Q 1191 2003 1191 1497 
Q 1191 994 1439 701 
Q 1688 409 2113 409 
Q 2538 409 2786 701 
Q 3034 994 3034 1497 
Q 3034 2003 2786 2293 
Q 2538 2584 2113 2584 
z
M 3366 4563 
L 3366 3988 
Q 3128 4100 2886 4159 
Q 2644 4219 2406 4219 
Q 1781 4219 1451 3797 
Q 1122 3375 1075 2522 
Q 1259 2794 1537 2939 
Q 1816 3084 2150 3084 
Q 2853 3084 3261 2657 
Q 3669 2231 3669 1497 
Q 3669 778 3244 343 
Q 2819 -91 2113 -91 
Q 1303 -91 875 529 
Q 447 1150 447 2328 
Q 447 3434 972 4092 
Q 1497 4750 2381 4750 
Q 2619 4750 2861 4703 
Q 3103 4656 3366 4563 
z
" transform="scale(0.015625)"/>
      <path id="DejaVuSans-39" d="M 703 97 
L 703 672 
Q 941 559 1184 500 
Q 1428 441 1663 441 
Q 2288 441 2617 861 
Q 2947 1281 2994 2138 
Q 2813 1869 2534 1725 
Q 2256 1581 1919 1581 
Q 1219 1581 811 2004 
Q 403 2428 403 3163 
Q 403 3881 828 4315 
Q 1253 4750 1959 4750 
Q 2769 4750 3195 4129 
Q 3622 3509 3622 2328 
Q 3622 1225 3098 567 
Q 2575 -91 1691 -91 
Q 1453 -91 1209 -44 
Q 966 3 703 97 
z
M 1959 2075 
Q 2384 2075 2632 2365 
Q 2881 2656 2881 3163 
Q 2881 3666 2632 3958 
Q 2384 4250 1959 4250 
Q 1534 4250 1286 3958 
Q 1038 3666 1038 3163 
Q 1038 2656 1286 2365 
Q 1534 2075 1959 2075 
z
" transform="scale(0.015625)"/>
     </defs>
     <use xlink:href="#DejaVuSans-56" transform="translate(0 0.015625)"/>
     <use xlink:href="#DejaVuSans-65" transform="translate(68.408203 0.015625)"/>
     <use xlink:href="#DejaVuSans-6c" transform="translate(129.931641 0.015625)"/>
     <use xlink:href="#DejaVuSans-6f" transform="translate(157.714844 0.015625)"/>
     <use xlink:href="#DejaVuSans-63" transform="translate(218.896484 0.015625)"/>
     <use xlink:href="#DejaVuSans-69" transform="translate(273.876953 0.015625)"/>
     <use xlink:href="#DejaVuSans-74" transform="translate(301.660156 0.015625)"/>
     <use xlink:href="#DejaVuSans-79" transform="translate(340.869141 0.015625)"/>
     <use xlink:href="#DejaVuSans-20" transform="translate(400.048828 0.015625)"/>
     <use xlink:href="#DejaVuSans-56" transform="translate(431.835938 0.015625)"/>
     <use xlink:href="#DejaVuSans-65" transform="translate(500.244141 0.015625)"/>
     <use xlink:href="#DejaVuSans-72" transform="translate(561.767578 0.015625)"/>
     <use xlink:href="#DejaVuSans-6c" transform="translate(602.880859 0.015625)"/>
     <use xlink:href="#DejaVuSans-65" transform="translate(630.664062 0.015625)"/>
     <use xlink:href="#DejaVuSans-74" transform="translate(692.1875 0.015625)"/>
     <use xlink:href="#DejaVuSans-20" transform="translate(731.396484 0.015625)"/>
     <use xlink:href="#DejaVuSans-53" transform="translate(763.183594 0.015625)"/>
     <use xlink:href="#DejaVuSans-74" transform="translate(826.660156 0.015625)"/>
     <use xlink:href="#DejaVuSans-61" transform="translate(865.869141 0.015625)"/>
     <use xlink:href="#DejaVuSans-62" transform="translate(927.148438 0.015625)"/>
     <use xlink:href="#DejaVuSans-69" transform="translate(990.625 0.015625)"/>
     <use xlink:href="#DejaVuSans-6c" transform="translate(1018.408203 0.015625)"/>
     <use xlink:href="#DejaVuSans-69" transform="translate(1046.191406 0.015625)"/>
     <use xlink:href="#DejaVuSans-74" transform="translate(1073.974609 0.015625)"/>
     <use xlink:href="#DejaVuSans-79" transform="translate(1113.183594 0.015625)"/>
     <use xlink:href="#DejaVuSans-2c" transform="translate(1172.363281 0.015625)"/>
     <use xlink:href="#DejaVuSans-20" transform="translate(1204.150391 0.015625)"/>
     <use xlink:href="#DejaVuSans-Oblique-3c9" transform="translate(1235.9375 0.015625)"/>
     <use xlink:href="#DejaVuSans-3d" transform="translate(1319.677734 0.015625)"/>
     <use xlink:href="#DejaVuSans-31" transform="translate(1403.466797 0.015625)"/>
     <use xlink:href="#DejaVuSans-30" transform="translate(1467.089844 0.015625)"/>
     <use xlink:href="#DejaVuSans-2c" transform="translate(1530.712891 0.015625)"/>
     <use xlink:href="#DejaVuSans-20" transform="translate(1562.5 0.015625)"/>
     <use xlink:href="#DejaVuSans-20" transform="translate(1594.287109 0.015625)"/>
     <use xlink:href="#DejaVuSans-394" transform="translate(1626.074219 0.015625)"/>
     <use xlink:href="#DejaVuSans-Oblique-74" transform="translate(1694.482422 0.015625)"/>
     <use xlink:href="#DejaVuSans-3d" transform="translate(1733.691406 0.015625)"/>
     <use xlink:href="#DejaVuSans-30" transform="translate(1817.480469 0.015625)"/>
     <use xlink:href="#DejaVuSans-2e" transform="translate(1881.103516 0.015625)"/>
     <use xlink:href="#DejaVuSans-30" transform="translate(1912.890625 0.015625)"/>
     <use xlink:href="#DejaVuSans-31" transform="translate(1976.513672 0.015625)"/>
     <use xlink:href="#DejaVuSans-2c" transform="translate(2040.136719 0.015625)"/>
     <use xlink:href="#DejaVuSans-20" transform="translate(2071.923828 0.015625)"/>
     <use xlink:href="#DejaVuSans-Oblique-4e" transform="translate(2103.710938 0.015625)"/>
     <use xlink:href="#DejaVuSans-31" transform="translate(2178.515625 -16.390625) scale(0.7)"/>
     <use xlink:href="#DejaVuSans-30" transform="translate(2223.051758 -16.390625) scale(0.7)"/>
     <use xlink:href="#DejaVuSans-Oblique-72" transform="translate(2267.587891 -16.390625) scale(0.7)"/>
     <use xlink:href="#DejaVuSans-Oblique-65" transform="translate(2296.367188 -16.390625) scale(0.7)"/>
     <use xlink:href="#DejaVuSans-Oblique-76" transform="translate(2339.433594 -16.390625) scale(0.7)"/>
     <use xlink:href="#DejaVuSans-3d" transform="translate(2383.59375 0.015625)"/>
     <use xlink:href="#DejaVuSans-36" transform="translate(2467.382812 0.015625)"/>
     <use xlink:href="#DejaVuSans-32" transform="translate(2531.005859 0.015625)"/>
     <use xlink:href="#DejaVuSans-39" transform="translate(2592.878906 0.015625)"/>
    </g>
   </g>
   <g id="legend_1">
    <g id="patch_7">
     <path d="M 173.337009 205.918125 
L 277.037009 205.918125 
Q 279.037009 205.918125 279.037009 203.918125 
L 279.037009 175.561875 
Q 279.037009 173.561875 277.037009 173.561875 
L 173.337009 173.561875 
Q 171.337009 173.561875 171.337009 175.561875 
L 171.337009 203.918125 
Q 171.337009 205.918125 173.337009 205.918125 
z
" style="fill: #ffffff; opacity: 0.8; stroke: #cccccc; stroke-linejoin: miter"/>
    </g>
    <g id="line2d_20">
     <path d="M 175.337009 181.660312 
L 185.337009 181.660312 
L 195.337009 181.660312 
" style="fill: none; stroke-dasharray: 1.5,2.475; stroke-dashoffset: 0; stroke: #ff0000; stroke-width: 1.5"/>
    </g>
    <g id="text_22">
     <!-- Exact Solution -->
     <g transform="translate(203.337009 185.160312) scale(0.1 -0.1)">
      <defs>
       <path id="DejaVuSans-45" d="M 628 4666 
L 3578 4666 
L 3578 4134 
L 1259 4134 
L 1259 2753 
L 3481 2753 
L 3481 2222 
L 1259 2222 
L 1259 531 
L 3634 531 
L 3634 0 
L 628 0 
L 628 4666 
z
" transform="scale(0.015625)"/>
       <path id="DejaVuSans-78" d="M 3513 3500 
L 2247 1797 
L 3578 0 
L 2900 0 
L 1881 1375 
L 863 0 
L 184 0 
L 1544 1831 
L 300 3500 
L 978 3500 
L 1906 2253 
L 2834 3500 
L 3513 3500 
z
" transform="scale(0.015625)"/>
       <path id="DejaVuSans-75" d="M 544 1381 
L 544 3500 
L 1119 3500 
L 1119 1403 
Q 1119 906 1312 657 
Q 1506 409 1894 409 
Q 2359 409 2629 706 
Q 2900 1003 2900 1516 
L 2900 3500 
L 3475 3500 
L 3475 0 
L 2900 0 
L 2900 538 
Q 2691 219 2414 64 
Q 2138 -91 1772 -91 
Q 1169 -91 856 284 
Q 544 659 544 1381 
z
M 1991 3584 
L 1991 3584 
z
" transform="scale(0.015625)"/>
       <path id="DejaVuSans-6e" d="M 3513 2113 
L 3513 0 
L 2938 0 
L 2938 2094 
Q 2938 2591 2744 2837 
Q 2550 3084 2163 3084 
Q 1697 3084 1428 2787 
Q 1159 2491 1159 1978 
L 1159 0 
L 581 0 
L 581 3500 
L 1159 3500 
L 1159 2956 
Q 1366 3272 1645 3428 
Q 1925 3584 2291 3584 
Q 2894 3584 3203 3211 
Q 3513 2838 3513 2113 
z
" transform="scale(0.015625)"/>
      </defs>
      <use xlink:href="#DejaVuSans-45"/>
      <use xlink:href="#DejaVuSans-78" transform="translate(63.183594 0)"/>
      <use xlink:href="#DejaVuSans-61" transform="translate(122.363281 0)"/>
      <use xlink:href="#DejaVuSans-63" transform="translate(183.642578 0)"/>
      <use xlink:href="#DejaVuSans-74" transform="translate(238.623047 0)"/>
      <use xlink:href="#DejaVuSans-20" transform="translate(277.832031 0)"/>
      <use xlink:href="#DejaVuSans-53" transform="translate(309.619141 0)"/>
      <use xlink:href="#DejaVuSans-6f" transform="translate(373.095703 0)"/>
      <use xlink:href="#DejaVuSans-6c" transform="translate(434.277344 0)"/>
      <use xlink:href="#DejaVuSans-75" transform="translate(462.060547 0)"/>
      <use xlink:href="#DejaVuSans-74" transform="translate(525.439453 0)"/>
      <use xlink:href="#DejaVuSans-69" transform="translate(564.648438 0)"/>
      <use xlink:href="#DejaVuSans-6f" transform="translate(592.431641 0)"/>
      <use xlink:href="#DejaVuSans-6e" transform="translate(653.613281 0)"/>
     </g>
    </g>
    <g id="line2d_21">
     <path d="M 175.337009 196.338437 
L 185.337009 196.338437 
L 195.337009 196.338437 
" style="fill: none; stroke: #1f77b4; stroke-width: 1.5; stroke-linecap: square"/>
    </g>
    <g id="text_23">
     <!-- Velocity Verlet -->
     <g transform="translate(203.337009 199.838437) scale(0.1 -0.1)">
      <use xlink:href="#DejaVuSans-56"/>
      <use xlink:href="#DejaVuSans-65" transform="translate(60.658203 0)"/>
      <use xlink:href="#DejaVuSans-6c" transform="translate(122.181641 0)"/>
      <use xlink:href="#DejaVuSans-6f" transform="translate(149.964844 0)"/>
      <use xlink:href="#DejaVuSans-63" transform="translate(211.146484 0)"/>
      <use xlink:href="#DejaVuSans-69" transform="translate(266.126953 0)"/>
      <use xlink:href="#DejaVuSans-74" transform="translate(293.910156 0)"/>
      <use xlink:href="#DejaVuSans-79" transform="translate(333.119141 0)"/>
      <use xlink:href="#DejaVuSans-20" transform="translate(392.298828 0)"/>
      <use xlink:href="#DejaVuSans-56" transform="translate(424.085938 0)"/>
      <use xlink:href="#DejaVuSans-65" transform="translate(484.744141 0)"/>
      <use xlink:href="#DejaVuSans-72" transform="translate(546.267578 0)"/>
      <use xlink:href="#DejaVuSans-6c" transform="translate(587.380859 0)"/>
      <use xlink:href="#DejaVuSans-65" transform="translate(615.164062 0)"/>
      <use xlink:href="#DejaVuSans-74" transform="translate(676.6875 0)"/>
     </g>
    </g>
   </g>
   <g id="line2d_22">
    <path d="M 225.187202 42.994545 
L 230.842617 43.1059 
L 236.489448 43.439796 
L 242.119126 43.995727 
L 247.723107 44.772848 
L 253.292887 45.769979 
L 258.820011 46.985609 
L 264.296092 48.417892 
L 269.712819 50.064654 
L 275.061972 51.923396 
L 280.335431 53.991296 
L 285.525194 56.265218 
L 290.623384 58.741709 
L 295.622264 61.417011 
L 300.514248 64.287064 
L 305.291911 67.347513 
L 309.948001 70.593711 
L 314.475454 74.020734 
L 318.867397 77.623379 
L 323.117165 81.39618 
L 327.218309 85.333409 
L 331.164604 89.429093 
L 334.950061 93.677015 
L 338.568935 98.070727 
L 342.015734 102.603563 
L 345.285227 107.268643 
L 348.372452 112.058886 
L 351.272723 116.967022 
L 353.981639 121.985604 
L 356.495088 127.107014 
L 358.809256 132.323479 
L 360.920632 137.627084 
L 362.82601 143.009778 
L 364.522498 148.463393 
L 366.007523 153.979652 
L 367.27883 159.550182 
L 368.334491 165.166531 
L 369.172902 170.820174 
L 369.792791 176.502531 
L 370.193218 182.204979 
L 370.373575 187.918861 
L 370.333588 193.635508 
L 370.073317 199.346242 
L 369.593159 205.042398 
L 368.893841 210.715329 
L 367.976426 216.356427 
L 366.842304 221.957131 
L 365.493198 227.508939 
L 363.931155 233.003428 
L 362.158545 238.432257 
L 360.178059 243.787187 
L 357.992703 249.060092 
L 355.605793 254.24297 
L 353.020951 259.327953 
L 350.242101 264.307326 
L 347.27346 269.173531 
L 344.119533 273.919182 
L 340.785108 278.537078 
L 337.275243 283.02021 
L 333.595267 287.361774 
L 329.750765 291.555182 
L 325.74757 295.594068 
L 321.591758 299.472304 
L 317.289637 303.184003 
L 312.847735 306.723532 
L 308.272795 310.08552 
L 303.571758 313.264864 
L 298.751761 316.25674 
L 293.820117 319.056605 
L 288.784312 321.660212 
L 283.651987 324.063608 
L 278.430933 326.263147 
L 273.129073 328.255489 
L 267.754454 330.037612 
L 262.315232 331.606811 
L 256.819661 332.960704 
L 251.276084 334.097236 
L 245.692912 335.014682 
L 240.07862 335.711651 
L 234.441728 336.187084 
L 228.79079 336.44026 
L 223.134383 336.470795 
L 217.481092 336.278642 
L 211.839496 335.864092 
L 206.218158 335.227776 
L 200.625608 334.370659 
L 195.070334 333.294041 
L 189.560767 331.999556 
L 184.105269 330.48917 
L 178.71212 328.765174 
L 173.389504 326.830185 
L 168.1455 324.687139 
L 162.988066 322.339289 
L 157.925029 319.790199 
L 152.964073 317.043736 
L 148.112727 314.104069 
L 143.378355 310.975659 
L 138.76814 307.663255 
L 134.289081 304.171883 
L 129.947974 300.506842 
L 125.751408 296.673694 
L 121.705752 292.678257 
L 117.817146 288.526595 
L 114.091491 284.225008 
L 110.534442 279.780025 
L 107.151398 275.198392 
L 103.947491 270.487061 
L 100.927586 265.653184 
L 98.096264 260.704097 
L 95.457824 255.647309 
L 93.016269 250.490497 
L 90.775305 245.241486 
L 88.738333 239.908243 
L 86.908444 234.498861 
L 85.288415 229.02155 
L 83.880705 223.484624 
L 82.687451 217.896484 
L 81.710464 212.265612 
L 80.951225 206.600554 
L 80.410888 200.909908 
L 80.090273 195.202309 
L 79.989865 189.48642 
L 80.109818 183.770917 
L 80.44995 178.064472 
L 81.009744 172.375747 
L 81.78835 166.713375 
L 82.784587 161.085949 
L 83.996944 155.502011 
L 85.423579 149.970034 
L 87.062328 144.498415 
L 88.910705 139.095457 
L 90.965903 133.76936 
L 93.224803 128.528208 
L 95.683978 123.379955 
L 98.339695 118.332414 
L 101.187923 113.393246 
L 104.224341 108.569946 
L 107.444339 103.869834 
L 110.843031 99.300045 
L 114.415259 94.867513 
L 118.155601 90.578965 
L 122.058381 86.440911 
L 126.117676 82.459629 
L 130.327325 78.641163 
L 134.680939 74.991307 
L 139.171911 71.515601 
L 143.793425 68.219319 
L 148.538467 65.107465 
L 153.399836 62.184761 
L 158.370154 59.455643 
L 163.441878 56.924252 
L 168.607311 54.594431 
L 173.858612 52.469715 
L 179.187813 50.553329 
L 184.586826 48.848181 
L 190.047456 47.35686 
L 195.561416 46.081627 
L 201.120338 45.02442 
L 206.715786 44.186842 
L 212.339267 43.570165 
L 217.982247 43.175324 
L 223.636161 43.002918 
L 225.187202 42.994545 
L 225.187202 42.994545 
" clip-path="url(#p1f2bc1d9d0)" style="fill: none; stroke-dasharray: 1.5,2.475; stroke-dashoffset: 0; stroke: #ff0000; stroke-width: 1.5"/>
   </g>
  </g>
 </g>
 <defs>
  <clipPath id="p1f2bc1d9d0">
   <rect x="65.27" y="28.32" width="319.834019" height="322.84"/>
  </clipPath>
 </defs>
</svg>
