<?xml version="1.0" encoding="utf-8" standalone="no"?>
<!DOCTYPE svg PUBLIC "-//W3C//DTD SVG 1.1//EN"
  "http://www.w3.org/Graphics/SVG/1.1/DTD/svg11.dtd">
<svg xmlns:xlink="http://www.w3.org/1999/xlink" width="460.8pt" height="345.6pt" viewBox="0 0 460.8 345.6" xmlns="http://www.w3.org/2000/svg" version="1.1">
 <metadata>
  <rdf:RDF xmlns:dc="http://purl.org/dc/elements/1.1/" xmlns:cc="http://creativecommons.org/ns#" xmlns:rdf="http://www.w3.org/1999/02/22-rdf-syntax-ns#">
   <cc:Work>
    <dc:type rdf:resource="http://purl.org/dc/dcmitype/StillImage"/>
    <dc:date>2025-05-13T22:13:11.987929</dc:date>
    <dc:format>image/svg+xml</dc:format>
    <dc:creator>
     <cc:Agent>
      <dc:title>Matplotlib v3.10.1, https://matplotlib.org/</dc:title>
     </cc:Agent>
    </dc:creator>
   </cc:Work>
  </rdf:RDF>
 </metadata>
 <defs>
  <style type="text/css">*{stroke-linejoin: round; stroke-linecap: butt}</style>
 </defs>
 <g id="figure_1">
  <g id="patch_1">
   <path d="M 0 345.6 
L 460.8 345.6 
L 460.8 0 
L 0 0 
z
" style="fill: #ffffff"/>
  </g>
  <g id="axes_1">
   <g id="patch_2">
    <path d="M 49.52 303.64 
L 450 303.64 
L 450 28.32 
L 49.52 28.32 
z
" style="fill: #ffffff"/>
   </g>
   <g id="matplotlib.axis_1">
    <g id="xtick_1">
     <g id="line2d_1">
      <defs>
       <path id="mcceda9f72b" d="M 0 0 
L 0 3.5 
" style="stroke: #000000; stroke-width: 0.8"/>
      </defs>
      <g>
       <use xlink:href="#mcceda9f72b" x="67.723636" y="303.64" style="stroke: #000000; stroke-width: 0.8"/>
      </g>
     </g>
     <g id="text_1">
      <!-- 0 -->
      <g transform="translate(64.542386 318.238437) scale(0.1 -0.1)">
       <defs>
        <path id="DejaVuSans-30" d="M 2034 4250 
Q 1547 4250 1301 3770 
Q 1056 3291 1056 2328 
Q 1056 1369 1301 889 
Q 1547 409 2034 409 
Q 2525 409 2770 889 
Q 3016 1369 3016 2328 
Q 3016 3291 2770 3770 
Q 2525 4250 2034 4250 
z
M 2034 4750 
Q 2819 4750 3233 4129 
Q 3647 3509 3647 2328 
Q 3647 1150 3233 529 
Q 2819 -91 2034 -91 
Q 1250 -91 836 529 
Q 422 1150 422 2328 
Q 422 3509 836 4129 
Q 1250 4750 2034 4750 
z
" transform="scale(0.015625)"/>
       </defs>
       <use xlink:href="#DejaVuSans-30"/>
      </g>
     </g>
    </g>
    <g id="xtick_2">
     <g id="line2d_2">
      <g>
       <use xlink:href="#mcceda9f72b" x="140.53891" y="303.64" style="stroke: #000000; stroke-width: 0.8"/>
      </g>
     </g>
     <g id="text_2">
      <!-- 20 -->
      <g transform="translate(134.17641 318.238437) scale(0.1 -0.1)">
       <defs>
        <path id="DejaVuSans-32" d="M 1228 531 
L 3431 531 
L 3431 0 
L 469 0 
L 469 531 
Q 828 903 1448 1529 
Q 2069 2156 2228 2338 
Q 2531 2678 2651 2914 
Q 2772 3150 2772 3378 
Q 2772 3750 2511 3984 
Q 2250 4219 1831 4219 
Q 1534 4219 1204 4116 
Q 875 4013 500 3803 
L 500 4441 
Q 881 4594 1212 4672 
Q 1544 4750 1819 4750 
Q 2544 4750 2975 4387 
Q 3406 4025 3406 3419 
Q 3406 3131 3298 2873 
Q 3191 2616 2906 2266 
Q 2828 2175 2409 1742 
Q 1991 1309 1228 531 
z
" transform="scale(0.015625)"/>
       </defs>
       <use xlink:href="#DejaVuSans-32"/>
       <use xlink:href="#DejaVuSans-30" transform="translate(63.623047 0)"/>
      </g>
     </g>
    </g>
    <g id="xtick_3">
     <g id="line2d_3">
      <g>
       <use xlink:href="#mcceda9f72b" x="213.354184" y="303.64" style="stroke: #000000; stroke-width: 0.8"/>
      </g>
     </g>
     <g id="text_3">
      <!-- 40 -->
      <g transform="translate(206.991684 318.238437) scale(0.1 -0.1)">
       <defs>
        <path id="DejaVuSans-34" d="M 2419 4116 
L 825 1625 
L 2419 1625 
L 2419 4116 
z
M 2253 4666 
L 3047 4666 
L 3047 1625 
L 3713 1625 
L 3713 1100 
L 3047 1100 
L 3047 0 
L 2419 0 
L 2419 1100 
L 313 1100 
L 313 1709 
L 2253 4666 
z
" transform="scale(0.015625)"/>
       </defs>
       <use xlink:href="#DejaVuSans-34"/>
       <use xlink:href="#DejaVuSans-30" transform="translate(63.623047 0)"/>
      </g>
     </g>
    </g>
    <g id="xtick_4">
     <g id="line2d_4">
      <g>
       <use xlink:href="#mcceda9f72b" x="286.169457" y="303.64" style="stroke: #000000; stroke-width: 0.8"/>
      </g>
     </g>
     <g id="text_4">
      <!-- 60 -->
      <g transform="translate(279.806957 318.238437) scale(0.1 -0.1)">
       <defs>
        <path id="DejaVuSans-36" d="M 2113 2584 
Q 1688 2584 1439 2293 
Q 1191 2003 1191 1497 
Q 1191 994 1439 701 
Q 1688 409 2113 409 
Q 2538 409 2786 701 
Q 3034 994 3034 1497 
Q 3034 2003 2786 2293 
Q 2538 2584 2113 2584 
z
M 3366 4563 
L 3366 3988 
Q 3128 4100 2886 4159 
Q 2644 4219 2406 4219 
Q 1781 4219 1451 3797 
Q 1122 3375 1075 2522 
Q 1259 2794 1537 2939 
Q 1816 3084 2150 3084 
Q 2853 3084 3261 2657 
Q 3669 2231 3669 1497 
Q 3669 778 3244 343 
Q 2819 -91 2113 -91 
Q 1303 -91 875 529 
Q 447 1150 447 2328 
Q 447 3434 972 4092 
Q 1497 4750 2381 4750 
Q 2619 4750 2861 4703 
Q 3103 4656 3366 4563 
z
" transform="scale(0.015625)"/>
       </defs>
       <use xlink:href="#DejaVuSans-36"/>
       <use xlink:href="#DejaVuSans-30" transform="translate(63.623047 0)"/>
      </g>
     </g>
    </g>
    <g id="xtick_5">
     <g id="line2d_5">
      <g>
       <use xlink:href="#mcceda9f72b" x="358.984731" y="303.64" style="stroke: #000000; stroke-width: 0.8"/>
      </g>
     </g>
     <g id="text_5">
      <!-- 80 -->
      <g transform="translate(352.622231 318.238437) scale(0.1 -0.1)">
       <defs>
        <path id="DejaVuSans-38" d="M 2034 2216 
Q 1584 2216 1326 1975 
Q 1069 1734 1069 1313 
Q 1069 891 1326 650 
Q 1584 409 2034 409 
Q 2484 409 2743 651 
Q 3003 894 3003 1313 
Q 3003 1734 2745 1975 
Q 2488 2216 2034 2216 
z
M 1403 2484 
Q 997 2584 770 2862 
Q 544 3141 544 3541 
Q 544 4100 942 4425 
Q 1341 4750 2034 4750 
Q 2731 4750 3128 4425 
Q 3525 4100 3525 3541 
Q 3525 3141 3298 2862 
Q 3072 2584 2669 2484 
Q 3125 2378 3379 2068 
Q 3634 1759 3634 1313 
Q 3634 634 3220 271 
Q 2806 -91 2034 -91 
Q 1263 -91 848 271 
Q 434 634 434 1313 
Q 434 1759 690 2068 
Q 947 2378 1403 2484 
z
M 1172 3481 
Q 1172 3119 1398 2916 
Q 1625 2713 2034 2713 
Q 2441 2713 2670 2916 
Q 2900 3119 2900 3481 
Q 2900 3844 2670 4047 
Q 2441 4250 2034 4250 
Q 1625 4250 1398 4047 
Q 1172 3844 1172 3481 
z
" transform="scale(0.015625)"/>
       </defs>
       <use xlink:href="#DejaVuSans-38"/>
       <use xlink:href="#DejaVuSans-30" transform="translate(63.623047 0)"/>
      </g>
     </g>
    </g>
    <g id="xtick_6">
     <g id="line2d_6">
      <g>
       <use xlink:href="#mcceda9f72b" x="431.800004" y="303.64" style="stroke: #000000; stroke-width: 0.8"/>
      </g>
     </g>
     <g id="text_6">
      <!-- 100 -->
      <g transform="translate(422.256254 318.238437) scale(0.1 -0.1)">
       <defs>
        <path id="DejaVuSans-31" d="M 794 531 
L 1825 531 
L 1825 4091 
L 703 3866 
L 703 4441 
L 1819 4666 
L 2450 4666 
L 2450 531 
L 3481 531 
L 3481 0 
L 794 0 
L 794 531 
z
" transform="scale(0.015625)"/>
       </defs>
       <use xlink:href="#DejaVuSans-31"/>
       <use xlink:href="#DejaVuSans-30" transform="translate(63.623047 0)"/>
       <use xlink:href="#DejaVuSans-30" transform="translate(127.246094 0)"/>
      </g>
     </g>
    </g>
    <g id="text_7">
     <!-- time -->
     <g transform="translate(238.463906 331.916562) scale(0.1 -0.1)">
      <defs>
       <path id="DejaVuSans-74" d="M 1172 4494 
L 1172 3500 
L 2356 3500 
L 2356 3053 
L 1172 3053 
L 1172 1153 
Q 1172 725 1289 603 
Q 1406 481 1766 481 
L 2356 481 
L 2356 0 
L 1766 0 
Q 1100 0 847 248 
Q 594 497 594 1153 
L 594 3053 
L 172 3053 
L 172 3500 
L 594 3500 
L 594 4494 
L 1172 4494 
z
" transform="scale(0.015625)"/>
       <path id="DejaVuSans-69" d="M 603 3500 
L 1178 3500 
L 1178 0 
L 603 0 
L 603 3500 
z
M 603 4863 
L 1178 4863 
L 1178 4134 
L 603 4134 
L 603 4863 
z
" transform="scale(0.015625)"/>
       <path id="DejaVuSans-6d" d="M 3328 2828 
Q 3544 3216 3844 3400 
Q 4144 3584 4550 3584 
Q 5097 3584 5394 3201 
Q 5691 2819 5691 2113 
L 5691 0 
L 5113 0 
L 5113 2094 
Q 5113 2597 4934 2840 
Q 4756 3084 4391 3084 
Q 3944 3084 3684 2787 
Q 3425 2491 3425 1978 
L 3425 0 
L 2847 0 
L 2847 2094 
Q 2847 2600 2669 2842 
Q 2491 3084 2119 3084 
Q 1678 3084 1418 2786 
Q 1159 2488 1159 1978 
L 1159 0 
L 581 0 
L 581 3500 
L 1159 3500 
L 1159 2956 
Q 1356 3278 1631 3431 
Q 1906 3584 2284 3584 
Q 2666 3584 2933 3390 
Q 3200 3197 3328 2828 
z
" transform="scale(0.015625)"/>
       <path id="DejaVuSans-65" d="M 3597 1894 
L 3597 1613 
L 953 1613 
Q 991 1019 1311 708 
Q 1631 397 2203 397 
Q 2534 397 2845 478 
Q 3156 559 3463 722 
L 3463 178 
Q 3153 47 2828 -22 
Q 2503 -91 2169 -91 
Q 1331 -91 842 396 
Q 353 884 353 1716 
Q 353 2575 817 3079 
Q 1281 3584 2069 3584 
Q 2775 3584 3186 3129 
Q 3597 2675 3597 1894 
z
M 3022 2063 
Q 3016 2534 2758 2815 
Q 2500 3097 2075 3097 
Q 1594 3097 1305 2825 
Q 1016 2553 972 2059 
L 3022 2063 
z
" transform="scale(0.015625)"/>
      </defs>
      <use xlink:href="#DejaVuSans-74"/>
      <use xlink:href="#DejaVuSans-69" transform="translate(39.208984 0)"/>
      <use xlink:href="#DejaVuSans-6d" transform="translate(66.992188 0)"/>
      <use xlink:href="#DejaVuSans-65" transform="translate(164.404297 0)"/>
     </g>
    </g>
   </g>
   <g id="matplotlib.axis_2">
    <g id="ytick_1">
     <g id="line2d_7">
      <defs>
       <path id="mc4825537da" d="M 0 0 
L -3.5 0 
" style="stroke: #000000; stroke-width: 0.8"/>
      </defs>
      <g>
       <use xlink:href="#mc4825537da" x="49.52" y="289.205294" style="stroke: #000000; stroke-width: 0.8"/>
      </g>
     </g>
     <g id="text_8">
      <!-- −4 -->
      <g transform="translate(27.777813 293.004513) scale(0.1 -0.1)">
       <defs>
        <path id="DejaVuSans-2212" d="M 678 2272 
L 4684 2272 
L 4684 1741 
L 678 1741 
L 678 2272 
z
" transform="scale(0.015625)"/>
       </defs>
       <use xlink:href="#DejaVuSans-2212"/>
       <use xlink:href="#DejaVuSans-34" transform="translate(83.789062 0)"/>
      </g>
     </g>
    </g>
    <g id="ytick_2">
     <g id="line2d_8">
      <g>
       <use xlink:href="#mc4825537da" x="49.52" y="257.886972" style="stroke: #000000; stroke-width: 0.8"/>
      </g>
     </g>
     <g id="text_9">
      <!-- −3 -->
      <g transform="translate(27.777813 261.686191) scale(0.1 -0.1)">
       <defs>
        <path id="DejaVuSans-33" d="M 2597 2516 
Q 3050 2419 3304 2112 
Q 3559 1806 3559 1356 
Q 3559 666 3084 287 
Q 2609 -91 1734 -91 
Q 1441 -91 1130 -33 
Q 819 25 488 141 
L 488 750 
Q 750 597 1062 519 
Q 1375 441 1716 441 
Q 2309 441 2620 675 
Q 2931 909 2931 1356 
Q 2931 1769 2642 2001 
Q 2353 2234 1838 2234 
L 1294 2234 
L 1294 2753 
L 1863 2753 
Q 2328 2753 2575 2939 
Q 2822 3125 2822 3475 
Q 2822 3834 2567 4026 
Q 2313 4219 1838 4219 
Q 1578 4219 1281 4162 
Q 984 4106 628 3988 
L 628 4550 
Q 988 4650 1302 4700 
Q 1616 4750 1894 4750 
Q 2613 4750 3031 4423 
Q 3450 4097 3450 3541 
Q 3450 3153 3228 2886 
Q 3006 2619 2597 2516 
z
" transform="scale(0.015625)"/>
       </defs>
       <use xlink:href="#DejaVuSans-2212"/>
       <use xlink:href="#DejaVuSans-33" transform="translate(83.789062 0)"/>
      </g>
     </g>
    </g>
    <g id="ytick_3">
     <g id="line2d_9">
      <g>
       <use xlink:href="#mc4825537da" x="49.52" y="226.568651" style="stroke: #000000; stroke-width: 0.8"/>
      </g>
     </g>
     <g id="text_10">
      <!-- −2 -->
      <g transform="translate(27.777813 230.367869) scale(0.1 -0.1)">
       <use xlink:href="#DejaVuSans-2212"/>
       <use xlink:href="#DejaVuSans-32" transform="translate(83.789062 0)"/>
      </g>
     </g>
    </g>
    <g id="ytick_4">
     <g id="line2d_10">
      <g>
       <use xlink:href="#mc4825537da" x="49.52" y="195.250329" style="stroke: #000000; stroke-width: 0.8"/>
      </g>
     </g>
     <g id="text_11">
      <!-- −1 -->
      <g transform="translate(27.777813 199.049548) scale(0.1 -0.1)">
       <use xlink:href="#DejaVuSans-2212"/>
       <use xlink:href="#DejaVuSans-31" transform="translate(83.789062 0)"/>
      </g>
     </g>
    </g>
    <g id="ytick_5">
     <g id="line2d_11">
      <g>
       <use xlink:href="#mc4825537da" x="49.52" y="163.932007" style="stroke: #000000; stroke-width: 0.8"/>
      </g>
     </g>
     <g id="text_12">
      <!-- 0 -->
      <g transform="translate(36.1575 167.731226) scale(0.1 -0.1)">
       <use xlink:href="#DejaVuSans-30"/>
      </g>
     </g>
    </g>
    <g id="ytick_6">
     <g id="line2d_12">
      <g>
       <use xlink:href="#mc4825537da" x="49.52" y="132.613685" style="stroke: #000000; stroke-width: 0.8"/>
      </g>
     </g>
     <g id="text_13">
      <!-- 1 -->
      <g transform="translate(36.1575 136.412904) scale(0.1 -0.1)">
       <use xlink:href="#DejaVuSans-31"/>
      </g>
     </g>
    </g>
    <g id="ytick_7">
     <g id="line2d_13">
      <g>
       <use xlink:href="#mc4825537da" x="49.52" y="101.295364" style="stroke: #000000; stroke-width: 0.8"/>
      </g>
     </g>
     <g id="text_14">
      <!-- 2 -->
      <g transform="translate(36.1575 105.094583) scale(0.1 -0.1)">
       <use xlink:href="#DejaVuSans-32"/>
      </g>
     </g>
    </g>
    <g id="ytick_8">
     <g id="line2d_14">
      <g>
       <use xlink:href="#mc4825537da" x="49.52" y="69.977042" style="stroke: #000000; stroke-width: 0.8"/>
      </g>
     </g>
     <g id="text_15">
      <!-- 3 -->
      <g transform="translate(36.1575 73.776261) scale(0.1 -0.1)">
       <use xlink:href="#DejaVuSans-33"/>
      </g>
     </g>
    </g>
    <g id="ytick_9">
     <g id="line2d_15">
      <g>
       <use xlink:href="#mc4825537da" x="49.52" y="38.65872" style="stroke: #000000; stroke-width: 0.8"/>
      </g>
     </g>
     <g id="text_16">
      <!-- 4 -->
      <g transform="translate(36.1575 42.457939) scale(0.1 -0.1)">
       <use xlink:href="#DejaVuSans-34"/>
      </g>
     </g>
    </g>
    <g id="text_17">
     <!-- $q(t) - q_{exact}(t)$ -->
     <g transform="translate(21.677813 200.03) rotate(-90) scale(0.1 -0.1)">
      <defs>
       <path id="DejaVuSans-Oblique-71" d="M 2669 525 
Q 2438 222 2123 65 
Q 1809 -91 1428 -91 
Q 897 -91 595 267 
Q 294 625 294 1253 
Q 294 1759 480 2231 
Q 666 2703 1013 3078 
Q 1238 3322 1530 3453 
Q 1822 3584 2144 3584 
Q 2531 3584 2781 3431 
Q 3031 3278 3144 2969 
L 3244 3494 
L 3822 3494 
L 2888 -1319 
L 2309 -1319 
L 2669 525 
z
M 891 1338 
Q 891 875 1084 633 
Q 1278 391 1644 391 
Q 2188 391 2572 911 
Q 2956 1431 2956 2175 
Q 2956 2625 2757 2864 
Q 2559 3103 2188 3103 
Q 1916 3103 1684 2976 
Q 1453 2850 1281 2606 
Q 1100 2350 995 2006 
Q 891 1663 891 1338 
z
" transform="scale(0.015625)"/>
       <path id="DejaVuSans-28" d="M 1984 4856 
Q 1566 4138 1362 3434 
Q 1159 2731 1159 2009 
Q 1159 1288 1364 580 
Q 1569 -128 1984 -844 
L 1484 -844 
Q 1016 -109 783 600 
Q 550 1309 550 2009 
Q 550 2706 781 3412 
Q 1013 4119 1484 4856 
L 1984 4856 
z
" transform="scale(0.015625)"/>
       <path id="DejaVuSans-Oblique-74" d="M 2706 3500 
L 2619 3053 
L 1472 3053 
L 1100 1153 
Q 1081 1047 1072 975 
Q 1063 903 1063 863 
Q 1063 663 1183 572 
Q 1303 481 1569 481 
L 2150 481 
L 2053 0 
L 1503 0 
Q 991 0 739 200 
Q 488 400 488 806 
Q 488 878 497 964 
Q 506 1050 525 1153 
L 897 3053 
L 409 3053 
L 500 3500 
L 978 3500 
L 1172 4494 
L 1747 4494 
L 1556 3500 
L 2706 3500 
z
" transform="scale(0.015625)"/>
       <path id="DejaVuSans-29" d="M 513 4856 
L 1013 4856 
Q 1481 4119 1714 3412 
Q 1947 2706 1947 2009 
Q 1947 1309 1714 600 
Q 1481 -109 1013 -844 
L 513 -844 
Q 928 -128 1133 580 
Q 1338 1288 1338 2009 
Q 1338 2731 1133 3434 
Q 928 4138 513 4856 
z
" transform="scale(0.015625)"/>
       <path id="DejaVuSans-Oblique-65" d="M 3078 2063 
Q 3088 2113 3092 2166 
Q 3097 2219 3097 2272 
Q 3097 2653 2873 2875 
Q 2650 3097 2266 3097 
Q 1838 3097 1509 2826 
Q 1181 2556 1013 2059 
L 3078 2063 
z
M 3578 1613 
L 903 1613 
Q 884 1494 878 1425 
Q 872 1356 872 1306 
Q 872 872 1139 634 
Q 1406 397 1894 397 
Q 2269 397 2603 481 
Q 2938 566 3225 728 
L 3116 159 
Q 2806 34 2476 -28 
Q 2147 -91 1806 -91 
Q 1078 -91 686 257 
Q 294 606 294 1247 
Q 294 1794 489 2264 
Q 684 2734 1063 3103 
Q 1306 3334 1642 3459 
Q 1978 3584 2356 3584 
Q 2950 3584 3301 3228 
Q 3653 2872 3653 2272 
Q 3653 2128 3634 1964 
Q 3616 1800 3578 1613 
z
" transform="scale(0.015625)"/>
       <path id="DejaVuSans-Oblique-78" d="M 3841 3500 
L 2234 1784 
L 3219 0 
L 2559 0 
L 1819 1388 
L 531 0 
L -166 0 
L 1556 1844 
L 641 3500 
L 1300 3500 
L 1972 2234 
L 3144 3500 
L 3841 3500 
z
" transform="scale(0.015625)"/>
       <path id="DejaVuSans-Oblique-61" d="M 3438 1997 
L 3047 0 
L 2472 0 
L 2578 531 
Q 2325 219 2001 64 
Q 1678 -91 1281 -91 
Q 834 -91 548 182 
Q 263 456 263 884 
Q 263 1497 752 1853 
Q 1241 2209 2100 2209 
L 2900 2209 
L 2931 2363 
Q 2938 2388 2941 2417 
Q 2944 2447 2944 2509 
Q 2944 2788 2717 2942 
Q 2491 3097 2081 3097 
Q 1800 3097 1504 3025 
Q 1209 2953 897 2809 
L 997 3341 
Q 1322 3463 1633 3523 
Q 1944 3584 2234 3584 
Q 2853 3584 3176 3315 
Q 3500 3047 3500 2534 
Q 3500 2431 3484 2292 
Q 3469 2153 3438 1997 
z
M 2816 1759 
L 2241 1759 
Q 1534 1759 1195 1570 
Q 856 1381 856 984 
Q 856 709 1029 553 
Q 1203 397 1509 397 
Q 1978 397 2328 733 
Q 2678 1069 2791 1631 
L 2816 1759 
z
" transform="scale(0.015625)"/>
       <path id="DejaVuSans-Oblique-63" d="M 3431 3366 
L 3316 2797 
Q 3109 2947 2876 3022 
Q 2644 3097 2394 3097 
Q 2119 3097 1870 3000 
Q 1622 2903 1453 2725 
Q 1184 2453 1037 2087 
Q 891 1722 891 1331 
Q 891 859 1127 628 
Q 1363 397 1844 397 
Q 2081 397 2348 469 
Q 2616 541 2906 684 
L 2797 116 
Q 2547 13 2283 -39 
Q 2019 -91 1741 -91 
Q 1044 -91 669 257 
Q 294 606 294 1253 
Q 294 1797 489 2255 
Q 684 2713 1069 3078 
Q 1331 3328 1684 3456 
Q 2038 3584 2456 3584 
Q 2700 3584 2940 3529 
Q 3181 3475 3431 3366 
z
" transform="scale(0.015625)"/>
      </defs>
      <use xlink:href="#DejaVuSans-Oblique-71" transform="translate(0 0.125)"/>
      <use xlink:href="#DejaVuSans-28" transform="translate(63.476562 0.125)"/>
      <use xlink:href="#DejaVuSans-Oblique-74" transform="translate(102.490234 0.125)"/>
      <use xlink:href="#DejaVuSans-29" transform="translate(141.699219 0.125)"/>
      <use xlink:href="#DejaVuSans-2212" transform="translate(200.195312 0.125)"/>
      <use xlink:href="#DejaVuSans-Oblique-71" transform="translate(303.466797 0.125)"/>
      <use xlink:href="#DejaVuSans-Oblique-65" transform="translate(366.943359 -16.28125) scale(0.7)"/>
      <use xlink:href="#DejaVuSans-Oblique-78" transform="translate(410.009766 -16.28125) scale(0.7)"/>
      <use xlink:href="#DejaVuSans-Oblique-61" transform="translate(451.435547 -16.28125) scale(0.7)"/>
      <use xlink:href="#DejaVuSans-Oblique-63" transform="translate(494.331055 -16.28125) scale(0.7)"/>
      <use xlink:href="#DejaVuSans-Oblique-74" transform="translate(532.817383 -16.28125) scale(0.7)"/>
      <use xlink:href="#DejaVuSans-28" transform="translate(562.998047 0.125)"/>
      <use xlink:href="#DejaVuSans-Oblique-74" transform="translate(602.011719 0.125)"/>
      <use xlink:href="#DejaVuSans-29" transform="translate(641.220703 0.125)"/>
     </g>
    </g>
    <g id="text_18">
     <!-- 1e−6 -->
     <g transform="translate(49.52 25.32) scale(0.1 -0.1)">
      <use xlink:href="#DejaVuSans-31"/>
      <use xlink:href="#DejaVuSans-65" transform="translate(63.623047 0)"/>
      <use xlink:href="#DejaVuSans-2212" transform="translate(125.146484 0)"/>
      <use xlink:href="#DejaVuSans-36" transform="translate(208.935547 0)"/>
     </g>
    </g>
   </g>
   <g id="line2d_16">
    <path d="M 67.723636 163.932007 
L 69.664163 161.343777 
L 70.661733 160.376304 
L 71.466341 159.886987 
L 72.17265 159.707956 
L 72.835269 159.767371 
L 73.50881 160.055609 
L 74.247885 160.625666 
L 75.107105 161.587531 
L 76.195693 163.167797 
L 80.189611 169.314025 
L 80.99422 169.986955 
L 81.671402 170.279616 
L 82.27941 170.307628 
L 82.876495 170.109244 
L 83.506347 169.65584 
L 84.216296 168.854058 
L 85.04639 167.559632 
L 86.084008 165.498535 
L 87.725992 161.660429 
L 89.582782 157.479376 
L 90.57671 155.76533 
L 91.348552 154.842981 
L 91.985686 154.403881 
L 92.535441 154.281965 
L 93.052429 154.395 
L 93.587622 154.74873 
L 94.184707 155.425376 
L 94.880093 156.573286 
L 95.710187 158.404449 
L 96.755086 161.291236 
L 98.411633 166.628734 
L 100.30119 172.509768 
L 101.309681 174.953666 
L 102.085164 176.298624 
L 102.711375 176.978856 
L 103.232005 177.241561 
L 103.690741 177.233925 
L 104.149477 176.997256 
L 104.655543 176.469668 
L 105.245347 175.508458 
L 105.944373 173.910645 
L 106.789031 171.384538 
L 107.873978 167.378188 
L 109.785379 159.278992 
L 111.405519 152.844161 
L 112.395807 149.761886 
L 113.164008 148.038287 
L 113.779297 147.15532 
L 114.278082 146.79361 
L 114.70041 146.74644 
L 115.108176 146.931037 
L 115.55599 147.395491 
L 116.0839 148.2908 
L 116.713752 149.833859 
L 117.471031 152.321816 
L 118.410348 156.228597 
L 119.70646 162.671288 
L 122.724653 177.978035 
L 123.682174 181.556203 
L 124.428531 183.557913 
L 125.021975 184.577308 
L 125.495274 184.99788 
L 125.884836 185.072428 
L 126.252553 184.91376 
L 126.660319 184.476612 
L 127.14454 183.603936 
L 127.730703 182.048708 
L 128.437011 179.493616 
L 129.303513 175.462717 
L 130.439432 169.026761 
L 134.528009 144.804164 
L 135.361744 141.627466 
L 136.020722 139.907141 
L 136.544992 139.091005 
L 136.960039 138.810774 
L 137.305912 138.830491 
L 137.655425 139.086573 
L 138.066831 139.691812 
L 138.565616 140.859787 
L 139.169983 142.889509 
L 139.905417 146.201219 
L 140.819249 151.425921 
L 142.053468 159.901315 
L 145.435737 183.813525 
L 146.360491 188.481533 
L 147.085003 191.096498 
L 147.660244 192.427792 
L 148.111698 192.978588 
L 148.464853 193.096476 
L 148.781599 192.965152 
L 149.134753 192.553567 
L 149.564363 191.678516 
L 150.092274 190.052886 
L 150.736689 187.285372 
L 151.523094 182.849325 
L 152.517022 175.866325 
L 153.98425 163.772877 
L 156.361669 144.269412 
L 157.388364 137.69489 
L 158.17841 133.954888 
L 158.804621 131.957069 
L 159.296124 131.041096 
L 159.674764 130.743415 
L 159.976947 130.765493 
L 160.286412 131.028589 
L 160.661411 131.672857 
L 161.127429 132.963972 
L 161.699028 135.266116 
L 162.394414 139.06557 
L 163.253635 145.092215 
L 164.378631 154.69786 
L 168.561868 192.08004 
L 169.391962 196.831318 
L 170.05094 199.43409 
L 170.567929 200.677821 
L 170.964772 201.132804 
L 171.266955 201.181696 
L 171.550935 200.991195 
L 171.889526 200.464622 
L 172.315495 199.343699 
L 172.839765 197.279773 
L 173.484181 193.760656 
L 174.274226 188.10972 
L 175.275436 179.211117 
L 176.77179 163.655351 
L 179.072753 139.948423 
L 180.10673 131.587508 
L 180.900416 126.823052 
L 181.530268 124.254227 
L 182.025412 123.054605 
L 182.39677 122.648583 
L 182.677109 122.627578 
L 182.950166 122.844776 
L 183.285116 123.431189 
L 183.707445 124.668201 
L 184.231715 126.956685 
L 184.87613 130.853312 
L 185.666176 137.103175 
L 186.671027 146.972922 
L 188.178303 164.272289 
L 190.450139 190.07493 
L 191.484116 199.31367 
L 192.281443 204.611926 
L 192.914936 207.47676 
L 193.41008 208.81338 
L 193.781438 209.274173 
L 194.054495 209.311381 
L 194.31663 209.105122 
L 194.637017 208.531369 
L 195.044783 207.293935 
L 195.55449 204.966676 
L 196.180701 200.97705 
L 196.948902 194.534046 
L 197.917346 184.385446 
L 199.311758 167.153785 
L 201.929467 134.6297 
L 202.941599 124.923359 
L 203.728004 119.343373 
L 204.350575 116.355858 
L 204.838437 114.971874 
L 205.198873 114.510932 
L 205.461008 114.480448 
L 205.712221 114.693367 
L 206.025326 115.290148 
L 206.42581 116.584803 
L 206.928236 119.033472 
L 207.547166 123.252518 
L 208.308085 130.098641 
L 209.265606 140.891553 
L 210.627252 159.049543 
L 213.376028 196.081091 
L 214.377238 206.396811 
L 215.156362 212.322252 
L 215.775291 215.495688 
L 216.255872 216.947379 
L 216.612667 217.430943 
L 216.867521 217.46141 
L 217.111452 217.243516 
L 217.417276 216.629347 
L 217.814119 215.271711 
L 218.312904 212.686915 
L 218.924552 208.242772 
L 219.67819 201.002598 
L 220.624789 189.586285 
L 221.957308 170.522257 
L 224.829871 128.831457 
L 225.820158 117.944664 
L 226.592 111.699098 
L 227.203649 108.3713 
L 227.680589 106.849093 
L 228.030102 106.352164 
L 228.277674 106.32149 
L 228.514324 106.542406 
L 228.812866 107.169572 
L 229.202428 108.567689 
L 229.693931 111.24822 
L 230.298298 115.883902 
L 231.041014 123.435347 
L 231.973049 135.361604 
L 233.269161 155.106085 
L 236.312839 202.392517 
L 237.284923 213.666343 
L 238.045843 220.133529 
L 238.65021 223.565636 
L 239.119868 225.113199 
L 239.4621 225.60294 
L 239.69875 225.622701 
L 239.928118 225.392029 
L 240.22302 224.734634 
L 240.60894 223.266312 
L 241.096803 220.444591 
L 241.697529 215.553983 
L 242.436604 207.570112 
L 243.364999 194.932392 
L 244.650188 174.075655 
L 247.752119 122.647735 
L 248.720562 110.72737 
L 249.477841 103.910888 
L 250.078567 100.305259 
L 250.544585 98.685949 
L 250.883176 98.176504 
L 251.112544 98.154635 
L 251.33463 98.383187 
L 251.625891 99.054785 
L 252.004531 100.553583 
L 252.485112 103.453592 
L 253.082197 108.544929 
L 253.81399 116.852965 
L 254.731463 130.011695 
L 255.987526 151.550056 
L 259.242369 208.78886 
L 260.192608 221.007779 
L 260.938965 227.992835 
L 261.532409 231.669528 
L 261.987505 233.284616 
L 262.318814 233.782019 
L 262.540901 233.791512 
L 262.759347 233.546365 
L 263.046967 232.839337 
L 263.425606 231.248112 
L 263.906187 228.169865 
L 264.499632 222.804691 
L 265.231425 214.00101 
L 266.148898 200.054194 
L 267.404961 177.223463 
L 270.659804 116.541717 
L 271.610043 103.58119 
L 272.3564 96.166588 
L 272.949844 92.258003 
L 273.40858 90.526101 
L 273.736249 89.999053 
L 273.954695 89.980406 
L 274.165859 90.216227 
L 274.446198 90.914247 
L 274.817556 92.509748 
L 275.290855 95.629491 
L 275.877018 101.11116 
L 276.597889 110.116768 
L 277.497158 124.355922 
L 278.716814 147.540695 
L 282.193743 215.698777 
L 283.118497 228.637352 
L 283.84665 235.997017 
L 284.425531 239.83338 
L 284.869705 241.490126 
L 285.186451 241.969489 
L 285.393975 241.963213 
L 285.605139 241.695824 
L 285.889118 240.921962 
L 286.264117 239.17813 
L 286.741057 235.797802 
L 287.334502 229.852171 
L 288.062654 220.133166 
L 288.976486 204.711471 
L 290.225268 179.489923 
L 293.5238 111.078743 
L 294.470398 96.777605 
L 295.213114 88.61271 
L 295.802918 84.314509 
L 296.258013 82.409913 
L 296.585682 81.823535 
L 296.796846 81.797951 
L 296.997088 82.029557 
L 297.266505 82.733595 
L 297.62694 84.374439 
L 298.089317 87.628983 
L 298.664558 93.411391 
L 299.370866 102.946365 
L 300.251931 118.09694 
L 301.431539 142.588791 
L 305.192447 223.635195 
L 306.084435 236.877013 
L 306.790743 244.356902 
L 307.34778 248.159764 
L 307.773749 249.749982 
L 308.068651 250.165246 
L 308.261611 250.130633 
L 308.472775 249.814562 
L 308.760396 248.917552 
L 309.142676 246.900221 
L 309.626898 243.022928 
L 310.227624 236.251538 
L 310.966699 225.191125 
L 311.895093 207.684224 
L 313.180283 178.805663 
L 316.274932 107.802624 
L 317.247016 91.218296 
L 318.007936 81.712296 
L 318.612302 76.666519 
L 319.07832 74.398617 
L 319.41327 73.669875 
L 319.628075 73.604256 
L 319.817395 73.807598 
L 320.072249 74.467348 
L 320.418121 76.06682 
L 320.862294 79.29047 
L 321.41569 85.082237 
L 322.096513 94.729323 
L 322.944811 110.167059 
L 324.055244 134.794067 
L 328.354986 234.74512 
L 329.181439 246.93631 
L 329.836777 253.64141 
L 330.350124 256.892755 
L 330.732405 258.12204 
L 330.987258 258.365997 
L 331.162015 258.265594 
L 331.384101 257.823616 
L 331.689925 256.641245 
L 332.090409 254.099162 
L 332.596476 249.317183 
L 333.222687 241.099137 
L 333.994529 227.802048 
L 334.973894 206.773457 
L 336.408355 170.582327 
L 338.894997 107.863952 
L 339.925333 87.600499 
L 340.72266 75.933843 
L 341.356153 69.603692 
L 341.851297 66.618998 
L 342.211733 65.571182 
L 342.448382 65.406577 
L 342.623139 65.552541 
L 342.856148 66.100606 
L 343.176535 67.510644 
L 343.595223 70.483712 
L 344.119493 75.95917 
L 344.767549 85.266155 
L 345.568517 100.239018 
L 346.595212 123.952167 
L 348.20807 167.156993 
L 350.25782 220.763913 
L 351.302719 242.489572 
L 352.110969 255.051991 
L 352.751743 261.895026 
L 353.254169 265.165738 
L 353.625527 266.352171 
L 353.865817 266.553196 
L 354.036933 266.423582 
L 354.26266 265.905526 
L 354.572125 264.556298 
L 354.979891 261.664045 
L 355.493238 256.270747 
L 356.126731 247.068664 
L 356.909495 232.198553 
L 357.907065 208.662729 
L 359.403419 167.387916 
L 361.708022 104.372236 
L 362.74928 81.946598 
L 363.553889 69.013435 
L 364.191023 61.985884 
L 364.689807 58.635496 
L 365.057525 57.423023 
L 365.297815 57.216512 
L 365.46529 57.347716 
L 365.687377 57.870248 
L 365.993201 59.237503 
L 366.397326 62.181372 
L 366.907033 67.690499 
L 367.536885 77.11873 
L 368.316008 92.3971 
L 369.306296 116.552762 
L 370.777164 158.583411 
L 373.154583 226.150521 
L 374.192201 249.286447 
L 374.993169 262.603539 
L 375.630302 269.862049 
L 376.129087 273.308523 
L 376.493163 274.536191 
L 376.729813 274.742224 
L 376.893647 274.61039 
L 377.112093 274.085315 
L 377.417917 272.682325 
L 377.818401 269.680795 
L 378.324467 264.050068 
L 378.950679 254.391033 
L 379.722521 238.784217 
L 380.705527 214.033591 
L 382.15091 171.315051 
L 384.601144 99.039265 
L 385.635121 75.201757 
L 386.432448 61.50615 
L 387.065941 54.05073 
L 387.561085 50.511713 
L 387.925161 49.239682 
L 388.161811 49.026685 
L 388.322005 49.158242 
L 388.53681 49.684002 
L 388.838993 51.09846 
L 389.239477 54.174404 
L 389.745543 59.968101 
L 390.371754 69.930739 
L 391.143596 86.053987 
L 392.122962 111.550916 
L 393.557423 155.421384 
L 396.040424 231.319888 
L 397.07076 255.894698 
L 397.868087 270.059933 
L 398.50158 277.763273 
L 398.996724 281.413295 
L 399.3608 282.719181 
L 399.593809 282.932789 
L 399.750362 282.802365 
L 399.965167 282.26515 
L 400.263709 280.832929 
L 400.660553 277.708841 
L 401.162978 271.80756 
L 401.785549 261.633256 
L 402.55375 245.1261 
L 403.525834 219.058984 
L 404.93845 174.48287 
L 407.490625 93.744872 
L 408.517321 68.50722 
L 409.311007 53.993415 
L 409.9445 46.080781 
L 410.436003 42.370896 
L 410.796439 41.050104 
L 411.025807 40.835445 
L 411.18236 40.969638 
L 411.393524 41.511353 
L 411.692067 42.981329 
L 412.08891 46.197599 
L 412.591335 52.282664 
L 413.210265 62.713125 
L 413.974825 79.65001 
L 414.943269 106.432397 
L 416.348603 152.211059 
L 418.933546 236.732943 
L 419.9566 262.670746 
L 420.750287 277.629006 
L 421.380139 285.732899 
L 421.871642 289.553449 
L 422.232077 290.908514 
L 422.461446 291.124119 
L 422.614358 290.987238 
L 422.825522 290.429224 
L 423.124065 288.912856 
L 423.517267 285.630246 
L 424.016052 279.417673 
L 424.634981 268.684934 
L 425.399542 251.235476 
L 426.367985 223.617127 
L 427.766038 176.627593 
L 430.369184 88.721799 
L 431.392239 61.959611 
L 431.796364 53.458208 
L 431.796364 53.458208 
" clip-path="url(#p59babdca46)" style="fill: none; stroke: #1f77b4; stroke-width: 1.5; stroke-linecap: square"/>
   </g>
   <g id="line2d_17">
    <path d="M 67.723636 163.932007 
L 70.064647 164.042933 
L 71.422652 164.34281 
L 72.733327 164.864691 
L 74.266089 165.72962 
L 77.60831 167.697325 
L 78.631364 167.989533 
L 79.505148 168.012945 
L 80.320679 167.811603 
L 81.13621 167.375758 
L 82.002712 166.650843 
L 82.978436 165.529215 
L 84.165325 163.802069 
L 86.207794 160.350432 
L 87.827933 157.81474 
L 88.832784 156.63064 
L 89.626471 156.015574 
L 90.300012 155.760322 
L 90.908019 155.762627 
L 91.501464 155.989945 
L 92.131316 156.480054 
L 92.830343 157.321259 
L 93.638592 158.66368 
L 94.610676 160.740371 
L 95.895866 164.059664 
L 99.263572 173.012811 
L 100.191967 174.740072 
L 100.927401 175.676083 
L 101.531768 176.113603 
L 102.052397 176.230575 
L 102.540259 176.112239 
L 103.049966 175.748446 
L 103.621566 175.048973 
L 104.284185 173.863011 
L 105.07059 171.96822 
L 106.035393 169.020527 
L 107.349708 164.216577 
L 110.447998 152.648736 
L 111.405519 150.034599 
L 112.155516 148.578259 
L 112.759883 147.845644 
L 113.255027 147.563549 
L 113.688278 147.562035 
L 114.117888 147.791292 
L 114.594828 148.316147 
L 115.151865 149.284531 
L 115.814484 150.915589 
L 116.611811 153.511578 
L 117.60938 157.577732 
L 119.03656 164.44206 
L 121.606939 176.844907 
L 122.619071 180.599727 
L 123.401835 182.720729 
L 124.028047 183.833971 
L 124.526831 184.315351 
L 124.938238 184.429295 
L 125.316877 184.302976 
L 125.728283 183.912665 
L 126.212505 183.117593 
L 126.791386 181.702413 
L 127.486772 179.370082 
L 128.33507 175.690359 
L 129.427299 169.880215 
L 131.342341 158.228152 
L 133.009811 148.674076 
L 134.021943 144.086845 
L 134.804707 141.485669 
L 135.427278 140.114068 
L 135.922422 139.503711 
L 136.315624 139.335776 
L 136.661497 139.424659 
L 137.032855 139.768363 
L 137.473387 140.50812 
L 138.008579 141.882216 
L 138.656635 144.212886 
L 139.44304 147.935763 
L 140.433328 153.787074 
L 141.864148 163.738187 
L 144.394479 181.36117 
L 145.413893 186.855385 
L 146.200297 189.977882 
L 146.826509 191.641536 
L 147.318012 192.390867 
L 147.700292 192.62056 
L 148.02432 192.568477 
L 148.362911 192.270432 
L 148.767036 191.589635 
L 149.26218 190.28069 
L 149.866547 188.000456 
L 150.601981 184.287717 
L 151.515812 178.436986 
L 152.746391 168.976609 
L 156.208757 141.537014 
L 157.12987 136.342386 
L 157.854382 133.412666 
L 158.429623 131.912496 
L 158.877437 131.28535 
L 159.223309 131.135544 
L 159.521852 131.243987 
L 159.856802 131.628815 
L 160.268208 132.480247 
L 160.774275 134.089509 
L 161.393204 136.864961 
L 162.146842 141.34617 
L 163.0898 148.398432 
L 164.400475 160.060039 
L 167.407746 187.317315 
L 168.383471 193.92726 
L 169.14439 197.692434 
L 169.748757 199.67569 
L 170.222056 200.55756 
L 170.578851 200.818 
L 170.866471 200.770812 
L 171.168655 200.472722 
L 171.540013 199.75864 
L 172.00239 198.340896 
L 172.57399 195.804078 
L 173.269375 191.624396 
L 174.128596 185.001724 
L 175.253592 174.451387 
L 179.480518 132.955239 
L 180.310612 127.746938 
L 180.969591 124.889178 
L 181.486579 123.517861 
L 181.879782 123.012382 
L 182.174683 122.94468 
L 182.447741 123.121932 
L 182.771769 123.631694 
L 183.179534 124.731354 
L 183.689241 126.808301 
L 184.311812 130.35526 
L 185.076372 136.098173 
L 186.037534 145.136445 
L 187.40282 160.318062 
L 190.151597 191.193713 
L 191.156447 199.824663 
L 191.935571 204.758421 
L 192.554501 207.395705 
L 193.038722 208.602552 
L 193.399158 208.993732 
L 193.668574 208.998754 
L 193.93435 208.761517 
L 194.26566 208.129456 
L 194.687988 206.788057 
L 195.212258 204.308691 
L 195.856673 200.089488 
L 196.646719 193.324682 
L 197.65157 182.643075 
L 199.155205 163.961274 
L 201.452527 135.686757 
L 202.490145 125.643672 
L 203.287472 119.898569 
L 203.920965 116.782511 
L 204.41975 115.311252 
L 204.791107 114.801484 
L 205.060524 114.75019 
L 205.311737 114.94518 
L 205.621202 115.507338 
L 206.018045 116.744127 
L 206.516829 119.103313 
L 207.128478 123.165114 
L 207.878475 129.754555 
L 208.821433 140.163061 
L 210.139389 157.446941 
L 213.095689 196.872438 
L 214.078696 206.735103 
L 214.846897 212.393139 
L 215.454904 215.391877 
L 215.928204 216.751659 
L 216.277717 217.188421 
L 216.52893 217.200163 
L 216.776501 216.963331 
L 217.089607 216.311209 
L 217.493732 214.892731 
L 217.999798 212.221122 
L 218.622369 207.633896 
L 219.386929 200.21335 
L 220.351731 188.501901 
L 221.731581 168.722212 
L 224.418464 129.90115 
L 225.430597 118.655828 
L 226.213361 112.220385 
L 226.835931 108.752807 
L 227.320153 107.149916 
L 227.680589 106.602316 
L 227.931801 106.551703 
L 228.16481 106.749108 
L 228.459712 107.335837 
L 228.841992 108.652331 
L 229.326214 111.20287 
L 229.923299 115.649431 
L 230.655093 122.90338 
L 231.572565 134.394662 
L 232.828629 153.215884 
L 236.108957 203.670213 
L 237.059196 214.32939 
L 237.801912 220.385314 
L 238.391715 223.567262 
L 238.846811 224.969944 
L 239.17812 225.396071 
L 239.411129 225.39167 
L 239.644138 225.135263 
L 239.949962 224.417041 
L 240.346806 222.84518 
L 240.84559 219.867932 
L 241.460879 214.730424 
L 242.218158 206.381275 
L 243.172038 193.196468 
L 244.519121 171.147763 
L 247.32979 124.577677 
L 248.331 111.934189 
L 249.110124 104.675035 
L 249.729054 100.785549 
L 250.209634 99.002482 
L 250.562788 98.406852 
L 250.803079 98.352874 
L 251.021525 98.551803 
L 251.305504 99.163181 
L 251.676862 100.560036 
L 252.150161 103.302952 
L 252.736324 108.135317 
L 253.453555 116.0446 
L 254.349183 128.576991 
L 255.557916 148.915524 
L 259.122224 210.889428 
L 260.039696 222.154849 
L 260.760567 228.519421 
L 261.332167 231.80914 
L 261.769059 233.210914 
L 262.082165 233.605964 
L 262.29697 233.57952 
L 262.522697 233.290211 
L 262.82488 232.484386 
L 263.218083 230.725383 
L 263.713227 227.393928 
L 264.324875 221.641119 
L 265.078513 212.28222 
L 266.028753 197.483153 
L 267.368554 172.758002 
L 270.21199 119.593093 
L 271.209559 105.412978 
L 271.985042 97.278425 
L 272.600331 92.916997 
L 273.080912 90.898886 
L 273.430425 90.223714 
L 273.667075 90.151032 
L 273.874598 90.343897 
L 274.144015 90.95169 
L 274.50081 92.373966 
L 274.959546 95.218245 
L 275.527505 100.263988 
L 276.226532 108.625237 
L 277.096674 121.920336 
L 278.250796 143.281024 
L 282.208306 219.594378 
L 283.074808 230.796555 
L 283.762912 237.086201 
L 284.305386 240.239411 
L 284.716792 241.513854 
L 285.000772 241.818692 
L 285.197373 241.75246 
L 285.423101 241.396259 
L 285.728925 240.437458 
L 286.129409 238.362147 
L 286.635475 234.443563 
L 287.258046 227.737323 
L 288.026247 216.862195 
L 288.998331 199.685572 
L 290.407306 170.367522 
L 292.984967 116.548104 
L 294.008021 99.988838 
L 294.798067 90.489191 
L 295.427919 85.327196 
L 295.919422 82.907715 
L 296.279858 82.064068 
L 296.516508 81.945049 
L 296.709468 82.10436 
L 296.960681 82.6567 
L 297.299272 84.01514 
L 297.736163 86.793904 
L 298.282278 91.83963 
L 298.952178 100.264088 
L 299.782273 113.724639 
L 300.863579 135.194021 
L 302.796825 179.004639 
L 304.44245 214.042658 
L 305.458223 231.247756 
L 306.248269 241.174228 
L 306.87448 246.525081 
L 307.362343 249.025876 
L 307.719137 249.895254 
L 307.955787 250.01795 
L 308.145107 249.854249 
L 308.392679 249.289123 
L 308.727629 247.89468 
L 309.16088 245.032562 
L 309.703354 239.820047 
L 310.369613 231.094293 
L 311.196067 217.116732 
L 312.266451 194.923138 
L 314.126881 150.773441 
L 315.841681 112.223158 
L 316.868377 93.842793 
L 317.662063 83.276662 
L 318.291915 77.549677 
L 318.783418 74.849819 
L 319.147495 73.888293 
L 319.384144 73.744569 
L 319.566182 73.893258 
L 319.806473 74.434619 
L 320.134142 75.802551 
L 320.560111 78.651948 
L 321.091662 83.85369 
L 321.747 92.632861 
L 322.55889 106.738651 
L 323.603789 129.093661 
L 325.304026 171.062171 
L 327.215427 216.62169 
L 328.256685 236.393228 
L 329.061294 247.801879 
L 329.702069 254.032461 
L 330.200853 256.97957 
L 330.56857 258.042957 
L 330.808861 258.220964 
L 330.987258 258.087542 
L 331.220267 257.572447 
L 331.537013 256.255896 
L 331.95206 253.469598 
L 332.47269 248.321406 
L 333.117105 239.544546 
L 333.910791 225.455527 
L 334.926564 203.144901 
L 336.492093 163.149778 
L 338.636503 109.339325 
L 339.681402 88.551569 
L 340.489651 76.533963 
L 341.130426 69.989953 
L 341.632851 66.864418 
L 342.004209 65.732886 
L 342.244499 65.543293 
L 342.419256 65.67451 
L 342.648624 66.190626 
L 342.96173 67.522569 
L 343.373136 70.359829 
L 343.890125 75.626625 
L 344.527258 84.580653 
L 345.313663 99.004461 
L 346.318514 121.853112 
L 347.840353 162.222952 
L 350.083064 220.98674 
L 351.127963 242.604726 
L 351.932572 255.035587 
L 352.573346 261.83049 
L 353.072131 265.050803 
L 353.439848 266.218962 
L 353.680138 266.420463 
L 353.851254 266.291892 
L 354.073341 265.787545 
L 354.382806 264.451697 
L 354.78693 261.610824 
L 355.300278 256.260276 
L 355.933771 247.114476 
L 356.712894 232.393247 
L 357.706823 209.055996 
L 359.188614 168.331262 
L 361.536906 104.224016 
L 362.574524 81.954771 
L 363.375492 69.117773 
L 364.012625 62.105243 
L 364.51141 58.761477 
L 364.879127 57.550863 
L 365.119418 57.344161 
L 365.286893 57.474573 
L 365.508979 57.995225 
L 365.814803 59.358364 
L 366.218928 62.294145 
L 366.728635 67.788996 
L 367.358487 77.193902 
L 368.13397 92.356627 
L 369.124258 116.441923 
L 370.587845 158.161118 
L 372.983467 226.14079 
L 374.021085 249.225942 
L 374.822053 262.512184 
L 375.459186 269.753004 
L 375.957971 273.190436 
L 376.322047 274.414329 
L 376.558697 274.619215 
L 376.722531 274.487195 
L 376.940977 273.962645 
L 377.246801 272.561864 
L 377.647285 269.565781 
L 378.153352 263.945913 
L 378.779563 254.305971 
L 379.551405 238.730018 
L 380.534411 214.027107 
L 381.979794 171.384866 
L 384.433669 99.112446 
L 385.467646 75.309249 
L 386.264973 61.629278 
L 386.902107 54.144972 
L 387.397251 50.619563 
L 387.761327 49.354912 
L 387.994336 49.145021 
L 388.154529 49.273368 
L 388.369334 49.79411 
L 388.671518 51.200167 
L 389.068361 54.228749 
L 389.570786 59.938182 
L 390.193357 69.770305 
L 390.961558 85.71073 
L 391.937283 110.973763 
L 393.357181 154.230963 
L 395.894793 231.675747 
L 396.921488 256.045356 
L 397.715175 270.069289 
L 398.348668 277.722656 
L 398.843812 281.336607 
L 399.204247 282.611147 
L 399.437256 282.817841 
L 399.59745 282.677548 
L 399.815895 282.1155 
L 400.118079 280.635751 
L 400.518563 277.433496 
L 401.024629 271.417566 
L 401.65084 261.089177 
L 402.422682 244.392037 
L 403.405688 217.902177 
L 404.847431 172.285306 
L 407.308587 94.527249 
L 408.342564 69.003208 
L 409.139891 54.335423 
L 409.777025 46.310482 
L 410.272169 42.529583 
L 410.636245 41.172221 
L 410.869254 40.945875 
L 411.025807 41.076637 
L 411.236971 41.613084 
L 411.535514 43.074395 
L 411.928716 46.241214 
L 412.427501 52.238233 
L 413.046431 62.602763 
L 413.80735 79.36915 
L 414.772153 105.928013 
L 416.162924 151.074941 
L 418.798837 237.130905 
L 419.818251 262.852032 
L 420.608297 277.659589 
L 421.238149 285.708801 
L 421.729652 289.489121 
L 422.086447 290.809334 
L 422.312174 291.016975 
L 422.465086 290.880154 
L 422.676251 290.322842 
L 422.974793 288.808685 
L 423.367996 285.531123 
L 423.86678 279.328301 
L 424.48571 268.612454 
L 425.250271 251.190101 
L 426.218714 223.613199 
L 427.616767 176.688683 
L 430.227194 88.659446 
L 431.246608 62.038078 
L 431.796364 50.81064 
L 431.796364 50.81064 
" clip-path="url(#p59babdca46)" style="fill: none; stroke: #ff7f0e; stroke-width: 1.5; stroke-linecap: square"/>
   </g>
   <g id="patch_3">
    <path d="M 49.52 303.64 
L 49.52 28.32 
" style="fill: none; stroke: #000000; stroke-width: 0.8; stroke-linejoin: miter; stroke-linecap: square"/>
   </g>
   <g id="patch_4">
    <path d="M 450 303.64 
L 450 28.32 
" style="fill: none; stroke: #000000; stroke-width: 0.8; stroke-linejoin: miter; stroke-linecap: square"/>
   </g>
   <g id="patch_5">
    <path d="M 49.52 303.64 
L 450 303.64 
" style="fill: none; stroke: #000000; stroke-width: 0.8; stroke-linejoin: miter; stroke-linecap: square"/>
   </g>
   <g id="patch_6">
    <path d="M 49.52 28.32 
L 450 28.32 
" style="fill: none; stroke: #000000; stroke-width: 0.8; stroke-linejoin: miter; stroke-linecap: square"/>
   </g>
   <g id="text_19">
    <!-- $q(t) - q_{exact}(t)$, $\omega$=1,  $\Delta t$=0.001, steps=100000 -->
    <g transform="translate(109 22.32) scale(0.12 -0.12)">
     <defs>
      <path id="DejaVuSans-2c" d="M 750 794 
L 1409 794 
L 1409 256 
L 897 -744 
L 494 -744 
L 750 256 
L 750 794 
z
" transform="scale(0.015625)"/>
      <path id="DejaVuSans-20" transform="scale(0.015625)"/>
      <path id="DejaVuSans-Oblique-3c9" d="M 1369 -91 
Q 72 -91 434 1766 
Q 575 2500 1256 3500 
L 1875 3500 
Q 1231 2500 1088 1750 
Q 819 397 1519 397 
Q 2166 397 2478 2078 
L 3009 2078 
Q 2669 388 3316 397 
Q 4013 403 4275 1750 
Q 4419 2500 4169 3500 
L 4788 3500 
Q 5075 2500 4934 1766 
Q 4578 -94 3278 -91 
Q 2428 -88 2503 844 
Q 2194 -91 1369 -91 
z
" transform="scale(0.015625)"/>
      <path id="DejaVuSans-3d" d="M 678 2906 
L 4684 2906 
L 4684 2381 
L 678 2381 
L 678 2906 
z
M 678 1631 
L 4684 1631 
L 4684 1100 
L 678 1100 
L 678 1631 
z
" transform="scale(0.015625)"/>
      <path id="DejaVuSans-394" d="M 2188 4044 
L 906 525 
L 3472 525 
L 2188 4044 
z
M 50 0 
L 1831 4666 
L 2547 4666 
L 4325 0 
L 50 0 
z
" transform="scale(0.015625)"/>
      <path id="DejaVuSans-2e" d="M 684 794 
L 1344 794 
L 1344 0 
L 684 0 
L 684 794 
z
" transform="scale(0.015625)"/>
      <path id="DejaVuSans-73" d="M 2834 3397 
L 2834 2853 
Q 2591 2978 2328 3040 
Q 2066 3103 1784 3103 
Q 1356 3103 1142 2972 
Q 928 2841 928 2578 
Q 928 2378 1081 2264 
Q 1234 2150 1697 2047 
L 1894 2003 
Q 2506 1872 2764 1633 
Q 3022 1394 3022 966 
Q 3022 478 2636 193 
Q 2250 -91 1575 -91 
Q 1294 -91 989 -36 
Q 684 19 347 128 
L 347 722 
Q 666 556 975 473 
Q 1284 391 1588 391 
Q 1994 391 2212 530 
Q 2431 669 2431 922 
Q 2431 1156 2273 1281 
Q 2116 1406 1581 1522 
L 1381 1569 
Q 847 1681 609 1914 
Q 372 2147 372 2553 
Q 372 3047 722 3315 
Q 1072 3584 1716 3584 
Q 2034 3584 2315 3537 
Q 2597 3491 2834 3397 
z
" transform="scale(0.015625)"/>
      <path id="DejaVuSans-70" d="M 1159 525 
L 1159 -1331 
L 581 -1331 
L 581 3500 
L 1159 3500 
L 1159 2969 
Q 1341 3281 1617 3432 
Q 1894 3584 2278 3584 
Q 2916 3584 3314 3078 
Q 3713 2572 3713 1747 
Q 3713 922 3314 415 
Q 2916 -91 2278 -91 
Q 1894 -91 1617 61 
Q 1341 213 1159 525 
z
M 3116 1747 
Q 3116 2381 2855 2742 
Q 2594 3103 2138 3103 
Q 1681 3103 1420 2742 
Q 1159 2381 1159 1747 
Q 1159 1113 1420 752 
Q 1681 391 2138 391 
Q 2594 391 2855 752 
Q 3116 1113 3116 1747 
z
" transform="scale(0.015625)"/>
     </defs>
     <use xlink:href="#DejaVuSans-Oblique-71" transform="translate(0 0.125)"/>
     <use xlink:href="#DejaVuSans-28" transform="translate(63.476562 0.125)"/>
     <use xlink:href="#DejaVuSans-Oblique-74" transform="translate(102.490234 0.125)"/>
     <use xlink:href="#DejaVuSans-29" transform="translate(141.699219 0.125)"/>
     <use xlink:href="#DejaVuSans-2212" transform="translate(200.195312 0.125)"/>
     <use xlink:href="#DejaVuSans-Oblique-71" transform="translate(303.466797 0.125)"/>
     <use xlink:href="#DejaVuSans-Oblique-65" transform="translate(366.943359 -16.28125) scale(0.7)"/>
     <use xlink:href="#DejaVuSans-Oblique-78" transform="translate(410.009766 -16.28125) scale(0.7)"/>
     <use xlink:href="#DejaVuSans-Oblique-61" transform="translate(451.435547 -16.28125) scale(0.7)"/>
     <use xlink:href="#DejaVuSans-Oblique-63" transform="translate(494.331055 -16.28125) scale(0.7)"/>
     <use xlink:href="#DejaVuSans-Oblique-74" transform="translate(532.817383 -16.28125) scale(0.7)"/>
     <use xlink:href="#DejaVuSans-28" transform="translate(562.998047 0.125)"/>
     <use xlink:href="#DejaVuSans-Oblique-74" transform="translate(602.011719 0.125)"/>
     <use xlink:href="#DejaVuSans-29" transform="translate(641.220703 0.125)"/>
     <use xlink:href="#DejaVuSans-2c" transform="translate(680.234375 0.125)"/>
     <use xlink:href="#DejaVuSans-20" transform="translate(712.021484 0.125)"/>
     <use xlink:href="#DejaVuSans-Oblique-3c9" transform="translate(743.808594 0.125)"/>
     <use xlink:href="#DejaVuSans-3d" transform="translate(827.548828 0.125)"/>
     <use xlink:href="#DejaVuSans-31" transform="translate(911.337891 0.125)"/>
     <use xlink:href="#DejaVuSans-2c" transform="translate(974.960938 0.125)"/>
     <use xlink:href="#DejaVuSans-20" transform="translate(1006.748047 0.125)"/>
     <use xlink:href="#DejaVuSans-20" transform="translate(1038.535156 0.125)"/>
     <use xlink:href="#DejaVuSans-394" transform="translate(1070.322266 0.125)"/>
     <use xlink:href="#DejaVuSans-Oblique-74" transform="translate(1138.730469 0.125)"/>
     <use xlink:href="#DejaVuSans-3d" transform="translate(1177.939453 0.125)"/>
     <use xlink:href="#DejaVuSans-30" transform="translate(1261.728516 0.125)"/>
     <use xlink:href="#DejaVuSans-2e" transform="translate(1325.351562 0.125)"/>
     <use xlink:href="#DejaVuSans-30" transform="translate(1357.138672 0.125)"/>
     <use xlink:href="#DejaVuSans-30" transform="translate(1420.761719 0.125)"/>
     <use xlink:href="#DejaVuSans-31" transform="translate(1484.384766 0.125)"/>
     <use xlink:href="#DejaVuSans-2c" transform="translate(1548.007812 0.125)"/>
     <use xlink:href="#DejaVuSans-20" transform="translate(1579.794922 0.125)"/>
     <use xlink:href="#DejaVuSans-73" transform="translate(1611.582031 0.125)"/>
     <use xlink:href="#DejaVuSans-74" transform="translate(1663.681641 0.125)"/>
     <use xlink:href="#DejaVuSans-65" transform="translate(1702.890625 0.125)"/>
     <use xlink:href="#DejaVuSans-70" transform="translate(1764.414062 0.125)"/>
     <use xlink:href="#DejaVuSans-73" transform="translate(1827.890625 0.125)"/>
     <use xlink:href="#DejaVuSans-3d" transform="translate(1879.990234 0.125)"/>
     <use xlink:href="#DejaVuSans-31" transform="translate(1963.779297 0.125)"/>
     <use xlink:href="#DejaVuSans-30" transform="translate(2027.402344 0.125)"/>
     <use xlink:href="#DejaVuSans-30" transform="translate(2091.025391 0.125)"/>
     <use xlink:href="#DejaVuSans-30" transform="translate(2154.648438 0.125)"/>
     <use xlink:href="#DejaVuSans-30" transform="translate(2218.271484 0.125)"/>
     <use xlink:href="#DejaVuSans-30" transform="translate(2281.894531 0.125)"/>
    </g>
   </g>
   <g id="legend_1">
    <g id="patch_7">
     <path d="M 56.52 65.67625 
L 160.110625 65.67625 
Q 162.110625 65.67625 162.110625 63.67625 
L 162.110625 35.32 
Q 162.110625 33.32 160.110625 33.32 
L 56.52 33.32 
Q 54.52 33.32 54.52 35.32 
L 54.52 63.67625 
Q 54.52 65.67625 56.52 65.67625 
z
" style="fill: #ffffff; opacity: 0.8; stroke: #cccccc; stroke-linejoin: miter"/>
    </g>
    <g id="line2d_18">
     <path d="M 58.52 41.418438 
L 68.52 41.418438 
L 78.52 41.418438 
" style="fill: none; stroke: #1f77b4; stroke-width: 1.5; stroke-linecap: square"/>
    </g>
    <g id="text_20">
     <!-- Velocity Verlet -->
     <g transform="translate(86.52 44.918438) scale(0.1 -0.1)">
      <defs>
       <path id="DejaVuSans-56" d="M 1831 0 
L 50 4666 
L 709 4666 
L 2188 738 
L 3669 4666 
L 4325 4666 
L 2547 0 
L 1831 0 
z
" transform="scale(0.015625)"/>
       <path id="DejaVuSans-6c" d="M 603 4863 
L 1178 4863 
L 1178 0 
L 603 0 
L 603 4863 
z
" transform="scale(0.015625)"/>
       <path id="DejaVuSans-6f" d="M 1959 3097 
Q 1497 3097 1228 2736 
Q 959 2375 959 1747 
Q 959 1119 1226 758 
Q 1494 397 1959 397 
Q 2419 397 2687 759 
Q 2956 1122 2956 1747 
Q 2956 2369 2687 2733 
Q 2419 3097 1959 3097 
z
M 1959 3584 
Q 2709 3584 3137 3096 
Q 3566 2609 3566 1747 
Q 3566 888 3137 398 
Q 2709 -91 1959 -91 
Q 1206 -91 779 398 
Q 353 888 353 1747 
Q 353 2609 779 3096 
Q 1206 3584 1959 3584 
z
" transform="scale(0.015625)"/>
       <path id="DejaVuSans-63" d="M 3122 3366 
L 3122 2828 
Q 2878 2963 2633 3030 
Q 2388 3097 2138 3097 
Q 1578 3097 1268 2742 
Q 959 2388 959 1747 
Q 959 1106 1268 751 
Q 1578 397 2138 397 
Q 2388 397 2633 464 
Q 2878 531 3122 666 
L 3122 134 
Q 2881 22 2623 -34 
Q 2366 -91 2075 -91 
Q 1284 -91 818 406 
Q 353 903 353 1747 
Q 353 2603 823 3093 
Q 1294 3584 2113 3584 
Q 2378 3584 2631 3529 
Q 2884 3475 3122 3366 
z
" transform="scale(0.015625)"/>
       <path id="DejaVuSans-79" d="M 2059 -325 
Q 1816 -950 1584 -1140 
Q 1353 -1331 966 -1331 
L 506 -1331 
L 506 -850 
L 844 -850 
Q 1081 -850 1212 -737 
Q 1344 -625 1503 -206 
L 1606 56 
L 191 3500 
L 800 3500 
L 1894 763 
L 2988 3500 
L 3597 3500 
L 2059 -325 
z
" transform="scale(0.015625)"/>
       <path id="DejaVuSans-72" d="M 2631 2963 
Q 2534 3019 2420 3045 
Q 2306 3072 2169 3072 
Q 1681 3072 1420 2755 
Q 1159 2438 1159 1844 
L 1159 0 
L 581 0 
L 581 3500 
L 1159 3500 
L 1159 2956 
Q 1341 3275 1631 3429 
Q 1922 3584 2338 3584 
Q 2397 3584 2469 3576 
Q 2541 3569 2628 3553 
L 2631 2963 
z
" transform="scale(0.015625)"/>
      </defs>
      <use xlink:href="#DejaVuSans-56"/>
      <use xlink:href="#DejaVuSans-65" transform="translate(60.658203 0)"/>
      <use xlink:href="#DejaVuSans-6c" transform="translate(122.181641 0)"/>
      <use xlink:href="#DejaVuSans-6f" transform="translate(149.964844 0)"/>
      <use xlink:href="#DejaVuSans-63" transform="translate(211.146484 0)"/>
      <use xlink:href="#DejaVuSans-69" transform="translate(266.126953 0)"/>
      <use xlink:href="#DejaVuSans-74" transform="translate(293.910156 0)"/>
      <use xlink:href="#DejaVuSans-79" transform="translate(333.119141 0)"/>
      <use xlink:href="#DejaVuSans-20" transform="translate(392.298828 0)"/>
      <use xlink:href="#DejaVuSans-56" transform="translate(424.085938 0)"/>
      <use xlink:href="#DejaVuSans-65" transform="translate(484.744141 0)"/>
      <use xlink:href="#DejaVuSans-72" transform="translate(546.267578 0)"/>
      <use xlink:href="#DejaVuSans-6c" transform="translate(587.380859 0)"/>
      <use xlink:href="#DejaVuSans-65" transform="translate(615.164062 0)"/>
      <use xlink:href="#DejaVuSans-74" transform="translate(676.6875 0)"/>
     </g>
    </g>
    <g id="line2d_19">
     <path d="M 58.52 56.096563 
L 68.52 56.096563 
L 78.52 56.096563 
" style="fill: none; stroke: #ff7f0e; stroke-width: 1.5; stroke-linecap: square"/>
    </g>
    <g id="text_21">
     <!-- Beeman's Alg -->
     <g transform="translate(86.52 59.596563) scale(0.1 -0.1)">
      <defs>
       <path id="DejaVuSans-42" d="M 1259 2228 
L 1259 519 
L 2272 519 
Q 2781 519 3026 730 
Q 3272 941 3272 1375 
Q 3272 1813 3026 2020 
Q 2781 2228 2272 2228 
L 1259 2228 
z
M 1259 4147 
L 1259 2741 
L 2194 2741 
Q 2656 2741 2882 2914 
Q 3109 3088 3109 3444 
Q 3109 3797 2882 3972 
Q 2656 4147 2194 4147 
L 1259 4147 
z
M 628 4666 
L 2241 4666 
Q 2963 4666 3353 4366 
Q 3744 4066 3744 3513 
Q 3744 3084 3544 2831 
Q 3344 2578 2956 2516 
Q 3422 2416 3680 2098 
Q 3938 1781 3938 1306 
Q 3938 681 3513 340 
Q 3088 0 2303 0 
L 628 0 
L 628 4666 
z
" transform="scale(0.015625)"/>
       <path id="DejaVuSans-61" d="M 2194 1759 
Q 1497 1759 1228 1600 
Q 959 1441 959 1056 
Q 959 750 1161 570 
Q 1363 391 1709 391 
Q 2188 391 2477 730 
Q 2766 1069 2766 1631 
L 2766 1759 
L 2194 1759 
z
M 3341 1997 
L 3341 0 
L 2766 0 
L 2766 531 
Q 2569 213 2275 61 
Q 1981 -91 1556 -91 
Q 1019 -91 701 211 
Q 384 513 384 1019 
Q 384 1609 779 1909 
Q 1175 2209 1959 2209 
L 2766 2209 
L 2766 2266 
Q 2766 2663 2505 2880 
Q 2244 3097 1772 3097 
Q 1472 3097 1187 3025 
Q 903 2953 641 2809 
L 641 3341 
Q 956 3463 1253 3523 
Q 1550 3584 1831 3584 
Q 2591 3584 2966 3190 
Q 3341 2797 3341 1997 
z
" transform="scale(0.015625)"/>
       <path id="DejaVuSans-6e" d="M 3513 2113 
L 3513 0 
L 2938 0 
L 2938 2094 
Q 2938 2591 2744 2837 
Q 2550 3084 2163 3084 
Q 1697 3084 1428 2787 
Q 1159 2491 1159 1978 
L 1159 0 
L 581 0 
L 581 3500 
L 1159 3500 
L 1159 2956 
Q 1366 3272 1645 3428 
Q 1925 3584 2291 3584 
Q 2894 3584 3203 3211 
Q 3513 2838 3513 2113 
z
" transform="scale(0.015625)"/>
       <path id="DejaVuSans-27" d="M 1147 4666 
L 1147 2931 
L 616 2931 
L 616 4666 
L 1147 4666 
z
" transform="scale(0.015625)"/>
       <path id="DejaVuSans-41" d="M 2188 4044 
L 1331 1722 
L 3047 1722 
L 2188 4044 
z
M 1831 4666 
L 2547 4666 
L 4325 0 
L 3669 0 
L 3244 1197 
L 1141 1197 
L 716 0 
L 50 0 
L 1831 4666 
z
" transform="scale(0.015625)"/>
       <path id="DejaVuSans-67" d="M 2906 1791 
Q 2906 2416 2648 2759 
Q 2391 3103 1925 3103 
Q 1463 3103 1205 2759 
Q 947 2416 947 1791 
Q 947 1169 1205 825 
Q 1463 481 1925 481 
Q 2391 481 2648 825 
Q 2906 1169 2906 1791 
z
M 3481 434 
Q 3481 -459 3084 -895 
Q 2688 -1331 1869 -1331 
Q 1566 -1331 1297 -1286 
Q 1028 -1241 775 -1147 
L 775 -588 
Q 1028 -725 1275 -790 
Q 1522 -856 1778 -856 
Q 2344 -856 2625 -561 
Q 2906 -266 2906 331 
L 2906 616 
Q 2728 306 2450 153 
Q 2172 0 1784 0 
Q 1141 0 747 490 
Q 353 981 353 1791 
Q 353 2603 747 3093 
Q 1141 3584 1784 3584 
Q 2172 3584 2450 3431 
Q 2728 3278 2906 2969 
L 2906 3500 
L 3481 3500 
L 3481 434 
z
" transform="scale(0.015625)"/>
      </defs>
      <use xlink:href="#DejaVuSans-42"/>
      <use xlink:href="#DejaVuSans-65" transform="translate(68.603516 0)"/>
      <use xlink:href="#DejaVuSans-65" transform="translate(130.126953 0)"/>
      <use xlink:href="#DejaVuSans-6d" transform="translate(191.650391 0)"/>
      <use xlink:href="#DejaVuSans-61" transform="translate(289.0625 0)"/>
      <use xlink:href="#DejaVuSans-6e" transform="translate(350.341797 0)"/>
      <use xlink:href="#DejaVuSans-27" transform="translate(413.720703 0)"/>
      <use xlink:href="#DejaVuSans-73" transform="translate(441.210938 0)"/>
      <use xlink:href="#DejaVuSans-20" transform="translate(493.310547 0)"/>
      <use xlink:href="#DejaVuSans-41" transform="translate(525.097656 0)"/>
      <use xlink:href="#DejaVuSans-6c" transform="translate(593.505859 0)"/>
      <use xlink:href="#DejaVuSans-67" transform="translate(621.289062 0)"/>
     </g>
    </g>
   </g>
  </g>
 </g>
 <defs>
  <clipPath id="p59babdca46">
   <rect x="49.52" y="28.32" width="400.48" height="275.32"/>
  </clipPath>
 </defs>
</svg>
