<?xml version="1.0" encoding="utf-8" standalone="no"?>
<!DOCTYPE svg PUBLIC "-//W3C//DTD SVG 1.1//EN"
  "http://www.w3.org/Graphics/SVG/1.1/DTD/svg11.dtd">
<svg xmlns:xlink="http://www.w3.org/1999/xlink" width="396pt" height="396pt" viewBox="0 0 396 396" xmlns="http://www.w3.org/2000/svg" version="1.1">
 <metadata>
  <rdf:RDF xmlns:dc="http://purl.org/dc/elements/1.1/" xmlns:cc="http://creativecommons.org/ns#" xmlns:rdf="http://www.w3.org/1999/02/22-rdf-syntax-ns#">
   <cc:Work>
    <dc:type rdf:resource="http://purl.org/dc/dcmitype/StillImage"/>
    <dc:date>2025-05-13T23:16:49.673056</dc:date>
    <dc:format>image/svg+xml</dc:format>
    <dc:creator>
     <cc:Agent>
      <dc:title>Matplotlib v3.10.1, https://matplotlib.org/</dc:title>
     </cc:Agent>
    </dc:creator>
   </cc:Work>
  </rdf:RDF>
 </metadata>
 <defs>
  <style type="text/css">*{stroke-linejoin: round; stroke-linecap: butt}</style>
 </defs>
 <g id="figure_1">
  <g id="patch_1">
   <path d="M 0 396 
L 396 396 
L 396 0 
L 0 0 
z
" style="fill: #ffffff"/>
  </g>
  <g id="axes_1">
   <g id="patch_2">
    <path d="M 65.27 351.16 
L 385.2 351.16 
L 385.2 28.32 
L 65.27 28.32 
z
" style="fill: #ffffff"/>
   </g>
   <g id="matplotlib.axis_1">
    <g id="xtick_1">
     <g id="line2d_1">
      <defs>
       <path id="mbf59b1691b" d="M 0 0 
L 0 3.5 
" style="stroke: #000000; stroke-width: 0.8"/>
      </defs>
      <g>
       <use xlink:href="#mbf59b1691b" x="79.812291" y="351.16" style="stroke: #000000; stroke-width: 0.8"/>
      </g>
     </g>
     <g id="text_1">
      <!-- −10.0 -->
      <g transform="translate(64.489634 365.758438) scale(0.1 -0.1)">
       <defs>
        <path id="DejaVuSans-2212" d="M 678 2272 
L 4684 2272 
L 4684 1741 
L 678 1741 
L 678 2272 
z
" transform="scale(0.015625)"/>
        <path id="DejaVuSans-31" d="M 794 531 
L 1825 531 
L 1825 4091 
L 703 3866 
L 703 4441 
L 1819 4666 
L 2450 4666 
L 2450 531 
L 3481 531 
L 3481 0 
L 794 0 
L 794 531 
z
" transform="scale(0.015625)"/>
        <path id="DejaVuSans-30" d="M 2034 4250 
Q 1547 4250 1301 3770 
Q 1056 3291 1056 2328 
Q 1056 1369 1301 889 
Q 1547 409 2034 409 
Q 2525 409 2770 889 
Q 3016 1369 3016 2328 
Q 3016 3291 2770 3770 
Q 2525 4250 2034 4250 
z
M 2034 4750 
Q 2819 4750 3233 4129 
Q 3647 3509 3647 2328 
Q 3647 1150 3233 529 
Q 2819 -91 2034 -91 
Q 1250 -91 836 529 
Q 422 1150 422 2328 
Q 422 3509 836 4129 
Q 1250 4750 2034 4750 
z
" transform="scale(0.015625)"/>
        <path id="DejaVuSans-2e" d="M 684 794 
L 1344 794 
L 1344 0 
L 684 0 
L 684 794 
z
" transform="scale(0.015625)"/>
       </defs>
       <use xlink:href="#DejaVuSans-2212"/>
       <use xlink:href="#DejaVuSans-31" transform="translate(83.789062 0)"/>
       <use xlink:href="#DejaVuSans-30" transform="translate(147.412109 0)"/>
       <use xlink:href="#DejaVuSans-2e" transform="translate(211.035156 0)"/>
       <use xlink:href="#DejaVuSans-30" transform="translate(242.822266 0)"/>
      </g>
     </g>
    </g>
    <g id="xtick_2">
     <g id="line2d_2">
      <g>
       <use xlink:href="#mbf59b1691b" x="116.167968" y="351.16" style="stroke: #000000; stroke-width: 0.8"/>
      </g>
     </g>
     <g id="text_2">
      <!-- −7.5 -->
      <g transform="translate(104.026562 365.758438) scale(0.1 -0.1)">
       <defs>
        <path id="DejaVuSans-37" d="M 525 4666 
L 3525 4666 
L 3525 4397 
L 1831 0 
L 1172 0 
L 2766 4134 
L 525 4134 
L 525 4666 
z
" transform="scale(0.015625)"/>
        <path id="DejaVuSans-35" d="M 691 4666 
L 3169 4666 
L 3169 4134 
L 1269 4134 
L 1269 2991 
Q 1406 3038 1543 3061 
Q 1681 3084 1819 3084 
Q 2600 3084 3056 2656 
Q 3513 2228 3513 1497 
Q 3513 744 3044 326 
Q 2575 -91 1722 -91 
Q 1428 -91 1123 -41 
Q 819 9 494 109 
L 494 744 
Q 775 591 1075 516 
Q 1375 441 1709 441 
Q 2250 441 2565 725 
Q 2881 1009 2881 1497 
Q 2881 1984 2565 2268 
Q 2250 2553 1709 2553 
Q 1456 2553 1204 2497 
Q 953 2441 691 2322 
L 691 4666 
z
" transform="scale(0.015625)"/>
       </defs>
       <use xlink:href="#DejaVuSans-2212"/>
       <use xlink:href="#DejaVuSans-37" transform="translate(83.789062 0)"/>
       <use xlink:href="#DejaVuSans-2e" transform="translate(147.412109 0)"/>
       <use xlink:href="#DejaVuSans-35" transform="translate(179.199219 0)"/>
      </g>
     </g>
    </g>
    <g id="xtick_3">
     <g id="line2d_3">
      <g>
       <use xlink:href="#mbf59b1691b" x="152.523645" y="351.16" style="stroke: #000000; stroke-width: 0.8"/>
      </g>
     </g>
     <g id="text_3">
      <!-- −5.0 -->
      <g transform="translate(140.382239 365.758438) scale(0.1 -0.1)">
       <use xlink:href="#DejaVuSans-2212"/>
       <use xlink:href="#DejaVuSans-35" transform="translate(83.789062 0)"/>
       <use xlink:href="#DejaVuSans-2e" transform="translate(147.412109 0)"/>
       <use xlink:href="#DejaVuSans-30" transform="translate(179.199219 0)"/>
      </g>
     </g>
    </g>
    <g id="xtick_4">
     <g id="line2d_4">
      <g>
       <use xlink:href="#mbf59b1691b" x="188.879323" y="351.16" style="stroke: #000000; stroke-width: 0.8"/>
      </g>
     </g>
     <g id="text_4">
      <!-- −2.5 -->
      <g transform="translate(176.737916 365.758438) scale(0.1 -0.1)">
       <defs>
        <path id="DejaVuSans-32" d="M 1228 531 
L 3431 531 
L 3431 0 
L 469 0 
L 469 531 
Q 828 903 1448 1529 
Q 2069 2156 2228 2338 
Q 2531 2678 2651 2914 
Q 2772 3150 2772 3378 
Q 2772 3750 2511 3984 
Q 2250 4219 1831 4219 
Q 1534 4219 1204 4116 
Q 875 4013 500 3803 
L 500 4441 
Q 881 4594 1212 4672 
Q 1544 4750 1819 4750 
Q 2544 4750 2975 4387 
Q 3406 4025 3406 3419 
Q 3406 3131 3298 2873 
Q 3191 2616 2906 2266 
Q 2828 2175 2409 1742 
Q 1991 1309 1228 531 
z
" transform="scale(0.015625)"/>
       </defs>
       <use xlink:href="#DejaVuSans-2212"/>
       <use xlink:href="#DejaVuSans-32" transform="translate(83.789062 0)"/>
       <use xlink:href="#DejaVuSans-2e" transform="translate(147.412109 0)"/>
       <use xlink:href="#DejaVuSans-35" transform="translate(179.199219 0)"/>
      </g>
     </g>
    </g>
    <g id="xtick_5">
     <g id="line2d_5">
      <g>
       <use xlink:href="#mbf59b1691b" x="225.235" y="351.16" style="stroke: #000000; stroke-width: 0.8"/>
      </g>
     </g>
     <g id="text_5">
      <!-- 0.0 -->
      <g transform="translate(217.283437 365.758438) scale(0.1 -0.1)">
       <use xlink:href="#DejaVuSans-30"/>
       <use xlink:href="#DejaVuSans-2e" transform="translate(63.623047 0)"/>
       <use xlink:href="#DejaVuSans-30" transform="translate(95.410156 0)"/>
      </g>
     </g>
    </g>
    <g id="xtick_6">
     <g id="line2d_6">
      <g>
       <use xlink:href="#mbf59b1691b" x="261.590677" y="351.16" style="stroke: #000000; stroke-width: 0.8"/>
      </g>
     </g>
     <g id="text_6">
      <!-- 2.5 -->
      <g transform="translate(253.639115 365.758438) scale(0.1 -0.1)">
       <use xlink:href="#DejaVuSans-32"/>
       <use xlink:href="#DejaVuSans-2e" transform="translate(63.623047 0)"/>
       <use xlink:href="#DejaVuSans-35" transform="translate(95.410156 0)"/>
      </g>
     </g>
    </g>
    <g id="xtick_7">
     <g id="line2d_7">
      <g>
       <use xlink:href="#mbf59b1691b" x="297.946355" y="351.16" style="stroke: #000000; stroke-width: 0.8"/>
      </g>
     </g>
     <g id="text_7">
      <!-- 5.0 -->
      <g transform="translate(289.994792 365.758438) scale(0.1 -0.1)">
       <use xlink:href="#DejaVuSans-35"/>
       <use xlink:href="#DejaVuSans-2e" transform="translate(63.623047 0)"/>
       <use xlink:href="#DejaVuSans-30" transform="translate(95.410156 0)"/>
      </g>
     </g>
    </g>
    <g id="xtick_8">
     <g id="line2d_8">
      <g>
       <use xlink:href="#mbf59b1691b" x="334.302032" y="351.16" style="stroke: #000000; stroke-width: 0.8"/>
      </g>
     </g>
     <g id="text_8">
      <!-- 7.5 -->
      <g transform="translate(326.350469 365.758438) scale(0.1 -0.1)">
       <use xlink:href="#DejaVuSans-37"/>
       <use xlink:href="#DejaVuSans-2e" transform="translate(63.623047 0)"/>
       <use xlink:href="#DejaVuSans-35" transform="translate(95.410156 0)"/>
      </g>
     </g>
    </g>
    <g id="xtick_9">
     <g id="line2d_9">
      <g>
       <use xlink:href="#mbf59b1691b" x="370.657709" y="351.16" style="stroke: #000000; stroke-width: 0.8"/>
      </g>
     </g>
     <g id="text_9">
      <!-- 10.0 -->
      <g transform="translate(359.524897 365.758438) scale(0.1 -0.1)">
       <use xlink:href="#DejaVuSans-31"/>
       <use xlink:href="#DejaVuSans-30" transform="translate(63.623047 0)"/>
       <use xlink:href="#DejaVuSans-2e" transform="translate(127.246094 0)"/>
       <use xlink:href="#DejaVuSans-30" transform="translate(159.033203 0)"/>
      </g>
     </g>
    </g>
    <g id="text_10">
     <!-- $q(t)$ -->
     <g transform="translate(216.185 379.438125) scale(0.1 -0.1)">
      <defs>
       <path id="DejaVuSans-Oblique-71" d="M 2669 525 
Q 2438 222 2123 65 
Q 1809 -91 1428 -91 
Q 897 -91 595 267 
Q 294 625 294 1253 
Q 294 1759 480 2231 
Q 666 2703 1013 3078 
Q 1238 3322 1530 3453 
Q 1822 3584 2144 3584 
Q 2531 3584 2781 3431 
Q 3031 3278 3144 2969 
L 3244 3494 
L 3822 3494 
L 2888 -1319 
L 2309 -1319 
L 2669 525 
z
M 891 1338 
Q 891 875 1084 633 
Q 1278 391 1644 391 
Q 2188 391 2572 911 
Q 2956 1431 2956 2175 
Q 2956 2625 2757 2864 
Q 2559 3103 2188 3103 
Q 1916 3103 1684 2976 
Q 1453 2850 1281 2606 
Q 1100 2350 995 2006 
Q 891 1663 891 1338 
z
" transform="scale(0.015625)"/>
       <path id="DejaVuSans-28" d="M 1984 4856 
Q 1566 4138 1362 3434 
Q 1159 2731 1159 2009 
Q 1159 1288 1364 580 
Q 1569 -128 1984 -844 
L 1484 -844 
Q 1016 -109 783 600 
Q 550 1309 550 2009 
Q 550 2706 781 3412 
Q 1013 4119 1484 4856 
L 1984 4856 
z
" transform="scale(0.015625)"/>
       <path id="DejaVuSans-Oblique-74" d="M 2706 3500 
L 2619 3053 
L 1472 3053 
L 1100 1153 
Q 1081 1047 1072 975 
Q 1063 903 1063 863 
Q 1063 663 1183 572 
Q 1303 481 1569 481 
L 2150 481 
L 2053 0 
L 1503 0 
Q 991 0 739 200 
Q 488 400 488 806 
Q 488 878 497 964 
Q 506 1050 525 1153 
L 897 3053 
L 409 3053 
L 500 3500 
L 978 3500 
L 1172 4494 
L 1747 4494 
L 1556 3500 
L 2706 3500 
z
" transform="scale(0.015625)"/>
       <path id="DejaVuSans-29" d="M 513 4856 
L 1013 4856 
Q 1481 4119 1714 3412 
Q 1947 2706 1947 2009 
Q 1947 1309 1714 600 
Q 1481 -109 1013 -844 
L 513 -844 
Q 928 -128 1133 580 
Q 1338 1288 1338 2009 
Q 1338 2731 1133 3434 
Q 928 4138 513 4856 
z
" transform="scale(0.015625)"/>
      </defs>
      <use xlink:href="#DejaVuSans-Oblique-71" transform="translate(0 0.125)"/>
      <use xlink:href="#DejaVuSans-28" transform="translate(63.476562 0.125)"/>
      <use xlink:href="#DejaVuSans-Oblique-74" transform="translate(102.490234 0.125)"/>
      <use xlink:href="#DejaVuSans-29" transform="translate(141.699219 0.125)"/>
     </g>
    </g>
   </g>
   <g id="matplotlib.axis_2">
    <g id="ytick_1">
     <g id="line2d_10">
      <defs>
       <path id="m2af1a7977b" d="M 0 0 
L -3.5 0 
" style="stroke: #000000; stroke-width: 0.8"/>
      </defs>
      <g>
       <use xlink:href="#m2af1a7977b" x="65.27" y="336.485455" style="stroke: #000000; stroke-width: 0.8"/>
      </g>
     </g>
     <g id="text_11">
      <!-- −1.00 -->
      <g transform="translate(27.624687 340.284673) scale(0.1 -0.1)">
       <use xlink:href="#DejaVuSans-2212"/>
       <use xlink:href="#DejaVuSans-31" transform="translate(83.789062 0)"/>
       <use xlink:href="#DejaVuSans-2e" transform="translate(147.412109 0)"/>
       <use xlink:href="#DejaVuSans-30" transform="translate(179.199219 0)"/>
       <use xlink:href="#DejaVuSans-30" transform="translate(242.822266 0)"/>
      </g>
     </g>
    </g>
    <g id="ytick_2">
     <g id="line2d_11">
      <g>
       <use xlink:href="#m2af1a7977b" x="65.27" y="299.799091" style="stroke: #000000; stroke-width: 0.8"/>
      </g>
     </g>
     <g id="text_12">
      <!-- −0.75 -->
      <g transform="translate(27.624687 303.59831) scale(0.1 -0.1)">
       <use xlink:href="#DejaVuSans-2212"/>
       <use xlink:href="#DejaVuSans-30" transform="translate(83.789062 0)"/>
       <use xlink:href="#DejaVuSans-2e" transform="translate(147.412109 0)"/>
       <use xlink:href="#DejaVuSans-37" transform="translate(179.199219 0)"/>
       <use xlink:href="#DejaVuSans-35" transform="translate(242.822266 0)"/>
      </g>
     </g>
    </g>
    <g id="ytick_3">
     <g id="line2d_12">
      <g>
       <use xlink:href="#m2af1a7977b" x="65.27" y="263.112727" style="stroke: #000000; stroke-width: 0.8"/>
      </g>
     </g>
     <g id="text_13">
      <!-- −0.50 -->
      <g transform="translate(27.624687 266.911946) scale(0.1 -0.1)">
       <use xlink:href="#DejaVuSans-2212"/>
       <use xlink:href="#DejaVuSans-30" transform="translate(83.789062 0)"/>
       <use xlink:href="#DejaVuSans-2e" transform="translate(147.412109 0)"/>
       <use xlink:href="#DejaVuSans-35" transform="translate(179.199219 0)"/>
       <use xlink:href="#DejaVuSans-30" transform="translate(242.822266 0)"/>
      </g>
     </g>
    </g>
    <g id="ytick_4">
     <g id="line2d_13">
      <g>
       <use xlink:href="#m2af1a7977b" x="65.27" y="226.426364" style="stroke: #000000; stroke-width: 0.8"/>
      </g>
     </g>
     <g id="text_14">
      <!-- −0.25 -->
      <g transform="translate(27.624687 230.225582) scale(0.1 -0.1)">
       <use xlink:href="#DejaVuSans-2212"/>
       <use xlink:href="#DejaVuSans-30" transform="translate(83.789062 0)"/>
       <use xlink:href="#DejaVuSans-2e" transform="translate(147.412109 0)"/>
       <use xlink:href="#DejaVuSans-32" transform="translate(179.199219 0)"/>
       <use xlink:href="#DejaVuSans-35" transform="translate(242.822266 0)"/>
      </g>
     </g>
    </g>
    <g id="ytick_5">
     <g id="line2d_14">
      <g>
       <use xlink:href="#m2af1a7977b" x="65.27" y="189.74" style="stroke: #000000; stroke-width: 0.8"/>
      </g>
     </g>
     <g id="text_15">
      <!-- 0.00 -->
      <g transform="translate(36.004375 193.539219) scale(0.1 -0.1)">
       <use xlink:href="#DejaVuSans-30"/>
       <use xlink:href="#DejaVuSans-2e" transform="translate(63.623047 0)"/>
       <use xlink:href="#DejaVuSans-30" transform="translate(95.410156 0)"/>
       <use xlink:href="#DejaVuSans-30" transform="translate(159.033203 0)"/>
      </g>
     </g>
    </g>
    <g id="ytick_6">
     <g id="line2d_15">
      <g>
       <use xlink:href="#m2af1a7977b" x="65.27" y="153.053636" style="stroke: #000000; stroke-width: 0.8"/>
      </g>
     </g>
     <g id="text_16">
      <!-- 0.25 -->
      <g transform="translate(36.004375 156.852855) scale(0.1 -0.1)">
       <use xlink:href="#DejaVuSans-30"/>
       <use xlink:href="#DejaVuSans-2e" transform="translate(63.623047 0)"/>
       <use xlink:href="#DejaVuSans-32" transform="translate(95.410156 0)"/>
       <use xlink:href="#DejaVuSans-35" transform="translate(159.033203 0)"/>
      </g>
     </g>
    </g>
    <g id="ytick_7">
     <g id="line2d_16">
      <g>
       <use xlink:href="#m2af1a7977b" x="65.27" y="116.367273" style="stroke: #000000; stroke-width: 0.8"/>
      </g>
     </g>
     <g id="text_17">
      <!-- 0.50 -->
      <g transform="translate(36.004375 120.166492) scale(0.1 -0.1)">
       <use xlink:href="#DejaVuSans-30"/>
       <use xlink:href="#DejaVuSans-2e" transform="translate(63.623047 0)"/>
       <use xlink:href="#DejaVuSans-35" transform="translate(95.410156 0)"/>
       <use xlink:href="#DejaVuSans-30" transform="translate(159.033203 0)"/>
      </g>
     </g>
    </g>
    <g id="ytick_8">
     <g id="line2d_17">
      <g>
       <use xlink:href="#m2af1a7977b" x="65.27" y="79.680909" style="stroke: #000000; stroke-width: 0.8"/>
      </g>
     </g>
     <g id="text_18">
      <!-- 0.75 -->
      <g transform="translate(36.004375 83.480128) scale(0.1 -0.1)">
       <use xlink:href="#DejaVuSans-30"/>
       <use xlink:href="#DejaVuSans-2e" transform="translate(63.623047 0)"/>
       <use xlink:href="#DejaVuSans-37" transform="translate(95.410156 0)"/>
       <use xlink:href="#DejaVuSans-35" transform="translate(159.033203 0)"/>
      </g>
     </g>
    </g>
    <g id="ytick_9">
     <g id="line2d_18">
      <g>
       <use xlink:href="#m2af1a7977b" x="65.27" y="42.994545" style="stroke: #000000; stroke-width: 0.8"/>
      </g>
     </g>
     <g id="text_19">
      <!-- 1.00 -->
      <g transform="translate(36.004375 46.793764) scale(0.1 -0.1)">
       <use xlink:href="#DejaVuSans-31"/>
       <use xlink:href="#DejaVuSans-2e" transform="translate(63.623047 0)"/>
       <use xlink:href="#DejaVuSans-30" transform="translate(95.410156 0)"/>
       <use xlink:href="#DejaVuSans-30" transform="translate(159.033203 0)"/>
      </g>
     </g>
    </g>
    <g id="text_20">
     <!-- $p(t)$ -->
     <g transform="translate(21.524687 198.79) rotate(-90) scale(0.1 -0.1)">
      <defs>
       <path id="DejaVuSans-Oblique-70" d="M 3175 2156 
Q 3175 2616 2975 2859 
Q 2775 3103 2400 3103 
Q 2144 3103 1911 2972 
Q 1678 2841 1497 2591 
Q 1319 2344 1212 1994 
Q 1106 1644 1106 1300 
Q 1106 863 1306 627 
Q 1506 391 1875 391 
Q 2147 391 2380 519 
Q 2613 647 2778 891 
Q 2956 1147 3065 1494 
Q 3175 1841 3175 2156 
z
M 1394 2969 
Q 1625 3272 1939 3428 
Q 2253 3584 2638 3584 
Q 3175 3584 3472 3232 
Q 3769 2881 3769 2247 
Q 3769 1728 3584 1258 
Q 3400 788 3053 416 
Q 2822 169 2531 39 
Q 2241 -91 1919 -91 
Q 1547 -91 1294 64 
Q 1041 219 916 525 
L 556 -1331 
L -19 -1331 
L 922 3500 
L 1497 3500 
L 1394 2969 
z
" transform="scale(0.015625)"/>
      </defs>
      <use xlink:href="#DejaVuSans-Oblique-70" transform="translate(0 0.125)"/>
      <use xlink:href="#DejaVuSans-28" transform="translate(63.476562 0.125)"/>
      <use xlink:href="#DejaVuSans-Oblique-74" transform="translate(102.490234 0.125)"/>
      <use xlink:href="#DejaVuSans-29" transform="translate(141.699219 0.125)"/>
     </g>
    </g>
   </g>
   <g id="line2d_19">
    <path d="M 225.235 42.994545 
L 230.905049 43.106131 
L 236.566475 43.440719 
L 242.210668 43.9978 
L 247.829044 44.776526 
L 253.413059 45.775714 
L 258.954221 46.993844 
L 264.444102 48.429063 
L 269.874354 50.079189 
L 275.236717 51.941713 
L 280.523038 54.013801 
L 285.725277 56.292302 
L 290.835521 58.773751 
L 295.846 61.454375 
L 300.749093 64.330097 
L 305.537343 67.396543 
L 310.203469 70.64905 
L 314.740375 74.082671 
L 319.14116 77.692185 
L 323.399131 81.472102 
L 327.507815 85.416673 
L 331.46096 89.5199 
L 335.252557 93.775543 
L 338.876838 98.177129 
L 342.328292 102.717965 
L 345.601669 107.391144 
L 348.691992 112.18956 
L 351.594561 117.105915 
L 354.304961 122.132733 
L 356.81907 127.262368 
L 359.133066 132.48702 
L 361.243428 137.798743 
L 363.146948 143.189458 
L 364.84073 148.650968 
L 366.322199 154.174966 
L 367.589101 159.753052 
L 368.63951 165.376742 
L 369.471829 171.037484 
L 370.084791 176.726669 
L 370.477465 182.435644 
L 370.649252 188.155728 
L 370.599893 193.878222 
L 370.329461 199.594422 
L 369.838369 205.295635 
L 369.127363 210.973192 
L 368.197525 216.618456 
L 367.050268 222.222844 
L 365.687337 227.777832 
L 364.110805 233.274971 
L 362.32307 238.705902 
L 360.326851 244.062366 
L 358.125183 249.336215 
L 355.721414 254.51943 
L 353.119201 259.604128 
L 350.3225 264.582576 
L 347.335566 269.447204 
L 344.16294 274.190611 
L 340.809447 278.805586 
L 337.280189 283.285109 
L 333.580531 287.622368 
L 329.7161 291.810767 
L 325.692773 295.843936 
L 321.51667 299.715741 
L 317.194141 303.420294 
L 312.73176 306.951961 
L 308.136313 310.305372 
L 303.414789 313.475426 
L 298.574369 316.457302 
L 293.622413 319.246466 
L 288.566454 321.838675 
L 283.414179 324.229987 
L 278.173426 326.416766 
L 272.852163 328.395687 
L 267.458483 330.163738 
L 262.00059 331.718232 
L 256.486784 333.056805 
L 250.925449 334.17742 
L 245.325044 335.078374 
L 239.694087 335.758296 
L 234.041139 336.216152 
L 228.3748 336.451247 
L 222.703685 336.463222 
L 217.03642 336.252059 
L 211.381623 335.818079 
L 205.747895 335.161943 
L 200.143802 334.284648 
L 194.577869 333.187529 
L 189.058559 331.872254 
L 183.594267 330.340822 
L 178.193302 328.595564 
L 172.863879 326.639134 
L 167.614102 324.474506 
L 162.451955 322.104973 
L 157.385289 319.534138 
L 152.42181 316.765912 
L 147.569065 313.804503 
L 142.834435 310.654417 
L 138.225121 307.320442 
L 133.748132 303.807651 
L 129.410276 300.121385 
L 125.218152 296.26725 
L 121.178134 292.251107 
L 117.296367 288.079065 
L 113.578753 283.757468 
L 110.030947 279.292888 
L 106.658344 274.692116 
L 103.466074 269.962148 
L 100.45899 265.110178 
L 97.641667 260.143584 
L 95.018389 255.06992 
L 92.593145 249.896902 
L 90.369624 244.632396 
L 88.351207 239.28441 
L 86.540964 233.861076 
L 84.941647 228.370643 
L 83.55569 222.82146 
L 82.3852 217.221966 
L 81.431957 211.580678 
L 80.697411 205.906174 
L 80.182678 200.207084 
L 79.888542 194.492076 
L 79.815451 188.769841 
L 79.963514 183.049082 
L 80.332507 177.338498 
L 80.921869 171.646774 
L 81.730703 165.982567 
L 82.75778 160.35449 
L 84.001537 154.771103 
L 85.460083 149.240897 
L 87.1312 143.772282 
L 89.012346 138.373575 
L 91.100661 133.052987 
L 93.392968 127.818608 
L 95.885781 122.6784 
L 98.575309 117.64018 
L 101.457463 112.71161 
L 104.527858 107.900185 
L 107.781826 103.213223 
L 111.214417 98.657852 
L 114.820412 94.240998 
L 118.594326 89.969381 
L 122.53042 85.849495 
L 126.622707 81.887607 
L 130.864965 78.089741 
L 135.250742 74.461674 
L 139.773368 71.008923 
L 144.425964 67.736739 
L 149.201455 64.650099 
L 154.092578 61.753696 
L 159.091895 59.051936 
L 164.191804 56.548927 
L 169.384547 54.248476 
L 174.662228 52.154082 
L 180.01682 50.268929 
L 185.440181 48.595885 
L 190.924062 47.137494 
L 196.460123 45.895974 
L 202.039945 44.873212 
L 207.655043 44.070766 
L 213.296876 43.489854 
L 218.956864 43.131361 
L 224.626401 42.995831 
L 230.296863 43.08347 
L 235.959627 43.394146 
L 241.606081 43.927386 
L 247.227638 44.682379 
L 252.815748 45.657976 
L 258.361913 46.852694 
L 263.857698 48.264717 
L 269.294746 49.891896 
L 274.664787 51.731757 
L 279.959655 53.781502 
L 285.171298 56.038014 
L 290.291789 58.497861 
L 295.313341 61.157301 
L 300.228318 64.012292 
L 305.029244 67.05849 
L 309.708818 70.291262 
L 314.259924 73.705694 
L 318.67564 77.296591 
L 322.949251 81.058493 
L 327.074258 84.985678 
L 331.044386 89.072175 
L 334.853599 93.311768 
L 338.496103 97.69801 
L 341.966359 102.22423 
L 345.259089 106.883545 
L 348.369285 111.668868 
L 351.292218 116.572922 
L 354.023442 121.58825 
L 356.558804 126.707223 
L 358.894447 131.922057 
L 361.026821 137.224821 
L 362.952681 142.60745 
L 364.669099 148.061759 
L 366.173464 153.579452 
L 367.463489 159.152139 
L 368.537213 164.771344 
L 369.393001 170.428521 
L 370.029552 176.115068 
L 370.445899 181.822335 
L 370.641408 187.541644 
L 370.615782 193.264295 
L 370.36906 198.981587 
L 369.901617 204.684825 
L 369.214164 210.365334 
L 368.307746 216.014476 
L 367.183742 221.62366 
L 365.843862 227.184354 
L 364.290142 232.688104 
L 362.524947 238.126537 
L 360.55096 243.491383 
L 358.371183 248.774485 
L 355.988932 253.967806 
L 353.407829 259.063449 
L 350.6318 264.053664 
L 347.665067 268.930863 
L 344.512141 273.687627 
L 341.177818 278.316724 
L 337.667168 282.811112 
L 333.98553 287.163957 
L 330.138504 291.368639 
L 326.13194 295.418763 
L 321.971931 299.308171 
L 317.664803 303.030946 
L 313.217108 306.581427 
L 308.635609 309.954216 
L 303.927273 313.144181 
L 299.099262 316.146473 
L 294.158918 318.956525 
L 289.113753 321.570063 
L 283.971442 323.983113 
L 278.739803 326.192005 
L 273.426794 328.19338 
L 268.040494 329.984194 
L 262.589096 331.561724 
L 257.080889 332.92357 
L 251.524251 334.067662 
L 245.927632 334.992259 
L 240.299543 335.695955 
L 234.648544 336.177681 
L 228.983229 336.436702 
L 223.312214 336.472627 
L 217.644122 336.285399 
L 211.987575 335.875304 
L 206.351175 335.242966 
L 200.743494 334.389345 
L 195.173059 333.315741 
L 189.648343 332.023786 
L 184.177747 330.515444 
L 178.769591 328.79301 
L 173.432101 326.859103 
L 168.173392 324.716665 
L 163.001463 322.368953 
L 157.92418 319.819538 
L 152.949263 317.072297 
L 148.084279 314.131408 
L 143.336626 311.001344 
L 138.713525 307.686864 
L 134.222007 304.19301 
L 129.868901 300.525095 
L 125.66083 296.688698 
L 121.604191 292.689652 
L 117.705155 288.534039 
L 113.969651 284.22818 
L 110.40336 279.778622 
L 107.011706 275.192133 
L 103.799846 270.475688 
L 100.772667 265.636459 
L 97.93477 260.681807 
L 95.290473 255.619266 
L 92.843796 250.456534 
L 90.59846 245.201465 
L 88.557881 239.86205 
L 86.725162 234.446408 
L 85.103089 228.962777 
L 83.69413 223.419496 
L 82.500427 217.824994 
L 81.523797 212.187781 
L 80.765723 206.516429 
L 80.227359 200.819563 
L 79.909524 195.105847 
L 79.8127 189.383971 
L 79.937037 183.662636 
L 80.282343 177.950544 
L 80.848094 172.256381 
L 81.633431 166.588808 
L 82.637157 160.956443 
L 83.857747 155.367852 
L 85.293345 149.831535 
L 86.941767 144.35591 
L 88.800507 138.949307 
L 90.866737 133.619946 
L 93.137315 128.375932 
L 95.608788 123.225242 
L 98.277398 118.175708 
L 101.139086 113.23501 
L 104.1895 108.41066 
L 107.424001 103.709997 
L 110.83767 99.140169 
L 114.425315 94.708126 
L 118.18148 90.420609 
L 122.100453 86.284136 
L 126.176274 82.305001 
L 130.402744 78.489253 
L 134.773435 74.842696 
L 139.281701 71.370876 
L 143.920686 68.079072 
L 148.683334 64.972291 
L 153.562402 62.055258 
L 158.550471 59.332409 
L 163.639954 56.807885 
L 168.823111 54.485525 
L 174.092059 52.36886 
L 179.438787 50.461111 
L 184.855161 48.765178 
L 190.332945 47.283641 
L 195.863809 46.018752 
L 201.439341 44.972436 
L 207.051061 44.146283 
L 212.690435 43.541551 
L 218.348888 43.159158 
L 224.017813 42.999686 
L 229.688589 43.063378 
L 235.352591 43.350137 
L 241.001207 43.859526 
L 246.625846 44.590772 
L 252.217953 45.542762 
L 257.769025 46.714047 
L 263.270618 48.102848 
L 268.714367 49.707052 
L 274.091991 51.524219 
L 279.395314 53.551585 
L 284.616269 55.786068 
L 289.746917 58.224269 
L 294.779455 60.86248 
L 299.706229 63.696689 
L 304.519746 66.722585 
L 309.212687 69.935567 
L 313.777914 73.330749 
L 318.208484 76.902967 
L 322.49766 80.646788 
L 326.638917 84.556518 
L 330.625959 88.626213 
L 334.452721 92.849682 
L 338.113385 97.220503 
L 341.602382 101.732028 
L 344.914406 106.377397 
L 348.044422 111.149543 
L 350.987668 116.041211 
L 353.739668 121.04496 
L 356.296237 126.153182 
L 358.653488 131.358106 
L 360.807835 136.651818 
L 362.756001 142.026267 
L 364.495025 147.47328 
L 366.022261 152.984572 
L 367.335386 158.551762 
L 368.432405 164.166383 
L 369.311648 169.819897 
L 369.971777 175.503705 
L 370.41179 181.209164 
L 370.631018 186.927597 
L 370.629126 192.650307 
L 370.406117 198.368591 
L 369.962331 204.073752 
L 369.298443 209.757115 
L 368.415462 215.410036 
L 367.314731 221.023917 
L 365.997924 226.590221 
L 364.467044 232.100484 
L 362.724418 237.546324 
L 360.772698 242.91946 
L 358.614851 248.21172 
L 356.254159 253.415056 
L 353.694213 258.521555 
L 350.938904 263.52345 
L 347.992424 268.413135 
L 344.859254 273.183173 
L 341.544158 277.82631 
L 338.052178 282.335485 
L 334.388625 286.70384 
L 330.559071 290.924731 
L 326.569339 294.99174 
L 322.425497 298.898681 
L 318.133846 302.639614 
L 313.700915 306.208847 
L 309.133444 309.600954 
L 304.43838 312.810775 
L 299.622862 315.83343 
L 294.694215 318.664321 
L 289.659934 321.299142 
L 284.527675 323.733888 
L 279.305243 325.964854 
L 274.000581 327.988649 
L 268.621756 329.802194 
L 263.176948 331.402732 
L 257.674437 332.787828 
L 252.122592 333.955376 
L 246.529857 334.9036 
L 240.904736 335.631058 
L 235.255784 336.136644 
L 229.591593 336.419589 
L 223.920776 336.479462 
L 218.251958 336.316173 
L 212.59376 335.92997 
L 206.954787 335.32144 
L 201.343614 334.491509 
L 195.768775 333.441438 
L 190.238749 332.172826 
L 184.761946 330.6876 
L 179.346694 328.98802 
L 174.00123 327.076671 
L 168.733682 324.95646 
L 163.552062 322.63061 
L 158.46425 320.102659 
L 153.477983 317.376452 
L 148.600844 314.456134 
L 143.840252 311.346147 
L 139.203445 308.05122 
L 134.697476 304.576365 
L 130.329197 300.926866 
L 126.105251 297.108273 
L 122.032062 293.126393 
L 118.115826 288.987283 
L 114.362497 284.697237 
L 110.777783 280.262779 
L 107.367137 275.690654 
L 104.135746 270.987814 
L 101.088523 266.161412 
L 98.230103 261.218787 
L 95.564832 256.167457 
L 93.096765 251.015104 
L 90.829655 245.769563 
L 88.76695 240.438812 
L 86.911786 235.030958 
L 85.266985 229.554225 
L 83.835049 224.016942 
L 82.618155 218.427531 
L 81.618153 212.794491 
L 80.836565 207.12639 
L 80.274579 201.431847 
L 79.93305 195.719524 
L 79.812497 189.998107 
L 79.913104 184.276297 
L 80.234718 178.562797 
L 80.776849 172.866295 
L 81.538673 167.195454 
L 82.519031 161.5589 
L 83.716433 155.965203 
L 85.129058 150.422872 
L 86.754756 144.940334 
L 88.591057 139.525928 
L 90.635166 134.187888 
L 92.883976 128.934332 
L 95.334066 123.773249 
L 97.981711 118.712489 
L 100.822883 113.759749 
L 103.853262 108.92256 
L 107.06824 104.208278 
L 110.462926 99.624074 
L 114.032159 95.176919 
L 117.770509 90.873576 
L 121.672293 86.72059 
L 125.731575 82.724276 
L 129.942183 78.890713 
L 134.297713 75.22573 
L 138.791541 71.734902 
L 143.416832 68.423536 
L 148.166554 65.296669 
L 153.033482 62.359057 
L 158.010214 59.615167 
L 163.089182 57.069171 
L 168.262662 54.724942 
L 173.522786 52.586045 
L 178.861555 50.655733 
L 184.270848 48.936941 
L 189.74244 47.432283 
L 195.26801 46.144048 
L 200.839153 45.074195 
L 206.447398 44.224351 
L 212.084215 43.595808 
L 217.741032 43.189522 
L 223.409246 43.006111 
L 229.080236 43.045854 
L 234.745379 43.308691 
L 240.396058 43.794221 
L 246.02368 44.501707 
L 251.619686 45.430073 
L 257.175567 46.577906 
L 262.682872 47.943461 
L 268.133226 49.524661 
L 273.51834 51.319101 
L 278.830024 53.324053 
L 284.060201 55.536468 
L 289.200916 57.95298 
L 294.244351 60.569915 
L 299.182836 63.383293 
L 304.008861 66.388835 
L 308.715086 69.58197 
L 313.294353 72.957843 
L 317.7397 76.511318 
L 322.044364 80.236993 
L 326.201801 84.129201 
L 330.205686 88.182022 
L 334.049931 92.389294 
L 337.728689 96.744617 
L 341.236366 101.241368 
L 344.567628 105.872709 
L 347.717407 110.631595 
L 350.680915 115.51079 
L 353.453643 120.502874 
L 356.031375 125.600254 
L 358.410192 130.795178 
L 360.586474 136.079746 
L 362.556913 141.44592 
L 364.318512 146.885541 
L 365.868592 152.390335 
L 367.204795 157.951931 
L 368.325089 163.56187 
L 369.227771 169.211621 
L 369.911468 174.892592 
L 370.375139 180.596143 
L 370.61808 186.3136 
L 370.639922 192.036268 
L 370.440631 197.755443 
L 370.02051 203.462429 
L 369.380198 209.148546 
L 368.520669 214.805145 
L 367.443231 220.423626 
L 366.14952 225.995443 
L 364.641506 231.512122 
L 362.921482 236.965274 
L 360.992063 242.346605 
L 358.856184 247.647932 
L 356.517092 252.861192 
L 353.978346 257.978457 
L 351.243806 262.991944 
L 348.317631 267.894029 
L 345.204271 272.677257 
L 341.908461 277.334353 
L 338.435212 281.858236 
L 334.789809 286.242024 
L 330.977793 290.479051 
L 327.004963 294.562873 
L 322.87736 298.48728 
L 318.601263 302.246304 
L 314.183173 305.834227 
L 309.62981 309.245593 
L 304.948099 312.475214 
L 300.145159 315.518178 
L 295.228296 318.369858 
L 290.204987 321.025917 
L 285.08287 323.482315 
L 279.869737 325.735317 
L 274.573514 327.781497 
L 269.202257 329.617741 
L 263.764135 331.241259 
L 258.267417 332.64958 
L 252.720463 333.840564 
L 247.131709 334.812398 
L 241.509654 335.563605 
L 235.862849 336.093043 
L 230.199881 336.399906 
L 224.529362 336.483727 
L 218.859916 336.344379 
L 213.200166 335.982075 
L 207.558718 335.397364 
L 201.944153 334.591137 
L 196.365008 333.564619 
L 190.829769 332.319371 
L 185.346854 330.857287 
L 179.924601 329.180592 
L 174.571256 327.291834 
L 169.294961 325.193886 
L 164.103741 322.889939 
L 159.005489 320.383497 
L 154.007959 317.678371 
L 149.118752 314.778675 
L 144.345303 311.68882 
L 139.694872 308.413504 
L 135.174531 304.957708 
L 130.791154 301.326689 
L 126.551409 297.525967 
L 122.461742 293.561324 
L 118.528373 289.438789 
L 114.757285 285.164631 
L 111.154212 280.745351 
L 107.724634 276.187669 
L 104.473766 271.498516 
L 101.406553 266.685025 
L 98.527659 261.754515 
L 95.841463 256.714486 
L 93.35205 251.5726 
L 91.063204 246.336679 
L 88.978409 241.014686 
L 87.100833 235.614714 
L 85.433333 230.144975 
L 83.978444 224.613788 
L 82.73838 219.029564 
L 81.715025 213.400797 
L 80.909936 207.736047 
L 80.324338 202.043927 
L 79.959122 196.333096 
L 79.814841 190.612238 
L 79.891717 184.890054 
L 80.189632 179.175245 
L 80.708133 173.476503 
L 81.446432 167.802495 
L 82.403405 162.16185 
L 83.577598 156.563146 
L 84.967224 151.014897 
L 86.570171 145.525542 
L 88.384 140.103428 
L 90.405953 134.756803 
L 92.632955 129.493796 
L 95.061619 124.322411 
L 97.688252 119.250515 
L 100.508859 114.285819 
L 103.51915 109.435875 
L 106.714548 104.708057 
L 110.090192 100.109557 
L 113.64095 95.647368 
L 117.36142 91.328275 
L 121.245946 87.158848 
L 125.288619 83.145426 
L 129.483291 79.294115 
L 133.823583 75.61077 
L 138.302894 72.100994 
L 142.914412 68.770125 
L 147.651124 65.623227 
L 152.505826 62.665087 
L 157.471135 59.900203 
L 162.539499 57.332781 
L 167.703212 54.966724 
L 172.954419 52.805632 
L 178.285135 50.85279 
L 183.687253 49.11117 
L 189.152557 47.583418 
L 194.672735 46.27186 
L 200.239393 45.178488 
L 205.844064 44.304967 
L 211.478225 43.652625 
L 217.133307 43.222453 
L 222.800711 43.015106 
L 228.471816 43.0309 
L 234.137999 43.26981 
L 239.790642 43.731473 
L 245.421149 44.415187 
L 251.020957 45.319911 
L 256.581549 46.444271 
L 262.094469 47.786556 
L 267.551333 49.344725 
L 272.943843 51.116408 
L 278.263796 53.098911 
L 283.503102 55.289219 
L 288.653794 57.684 
L 293.708038 60.279613 
L 298.658148 63.07211 
L 303.496595 66.057245 
L 308.216022 69.230478 
L 312.80925 72.586982 
L 317.269295 76.121653 
L 321.589374 79.829117 
L 325.762916 83.703733 
L 329.783574 87.73961 
L 333.645234 91.93061 
L 337.342023 96.270359 
L 340.868319 100.752258 
L 344.218759 105.369489 
L 347.388247 110.115033 
L 350.371964 114.98167 
L 353.165372 119.962 
L 355.764222 125.048449 
L 358.164563 130.233282 
L 360.362743 135.508613 
L 362.35542 140.866419 
L 364.139563 146.298553 
L 365.71246 151.796753 
L 367.071717 157.352657 
L 368.215267 162.957816 
L 369.141372 168.603705 
L 369.848624 174.281739 
L 370.335946 179.983282 
L 370.602597 185.699663 
L 370.648172 191.422188 
L 370.472602 197.142155 
L 370.076153 202.850865 
L 369.459429 208.539636 
L 368.623368 214.199816 
L 367.56924 219.822798 
L 366.298649 225.400029 
L 364.813528 230.923029 
L 363.116134 236.383397 
L 361.20905 241.772829 
L 359.095176 247.083129 
L 356.777726 252.306222 
L 354.260225 257.434163 
L 351.546501 262.459155 
L 348.640682 267.373555 
L 345.547187 272.169889 
L 342.27072 276.840863 
L 338.816264 281.379373 
L 335.189073 285.778518 
L 331.394663 290.031606 
L 327.438805 294.132171 
L 323.327514 298.073975 
L 319.067044 301.851024 
L 314.663873 305.457573 
L 310.124698 308.888139 
L 305.456422 312.137503 
L 300.666145 315.200724 
L 295.761151 318.073143 
L 290.748901 320.750393 
L 285.637017 323.228401 
L 280.433273 325.503398 
L 275.145583 327.571926 
L 269.781989 329.430838 
L 264.350647 331.077307 
L 258.859818 332.50883 
L 253.317852 333.723228 
L 247.733177 334.718656 
L 242.114287 335.493599 
L 236.469727 336.046879 
L 230.808081 336.377654 
L 225.13796 336.485422 
L 219.467986 336.370018 
L 213.806783 336.031618 
L 208.162959 335.470737 
L 202.545099 334.688228 
L 196.961746 333.68528 
L 191.421391 332.463419 
L 185.93246 331.024503 
L 180.503301 329.370721 
L 175.14217 327.504587 
L 169.857221 325.42894 
L 164.65649 323.146937 
L 159.547888 320.662046 
L 154.539183 317.978049 
L 149.637993 315.099027 
L 144.851771 312.029357 
L 140.187797 308.773709 
L 135.653163 305.337034 
L 131.254766 301.724557 
L 126.999295 297.941774 
L 122.893221 293.994437 
L 118.942789 289.888549 
L 115.154008 285.630354 
L 111.532638 281.226328 
L 108.084188 276.68317 
L 104.813902 272.007787 
L 101.726752 267.207291 
L 98.827436 262.288983 
L 96.12036 257.260341 
L 93.609643 252.129014 
L 91.299103 246.902805 
L 89.192254 241.589662 
L 87.2923 236.197666 
L 85.602129 230.735017 
L 84.124314 225.210023 
L 82.8611 219.631085 
L 81.81441 214.006689 
L 80.985835 208.345388 
L 80.376636 202.655792 
L 79.987737 196.946553 
L 79.819732 191.226354 
L 79.872876 185.503895 
L 80.147087 179.787879 
L 80.641949 174.086997 
L 81.35671 168.409921 
L 82.290281 162.765284 
L 83.441244 157.16167 
L 84.807848 151.607601 
L 86.388014 146.111525 
L 88.17934 140.681799 
L 90.179101 135.326681 
L 92.384257 130.054315 
L 94.791452 124.872719 
L 97.397027 119.789775 
L 100.197019 114.813211 
L 103.18717 109.950596 
L 106.362932 105.209326 
L 109.719475 100.59661 
L 113.251696 96.119464 
L 116.954221 91.784698 
L 120.821421 87.598902 
L 124.847413 83.568443 
L 129.026076 79.699451 
L 133.351054 75.997809 
L 137.81577 72.469147 
L 142.413433 69.118832 
L 147.137052 65.951958 
L 151.979443 62.973342 
L 156.933242 60.187514 
L 161.990915 57.59871 
L 167.144769 55.210867 
L 172.386968 53.027617 
L 177.709538 51.052281 
L 183.104385 49.287861 
L 188.563305 47.737043 
L 194.077996 46.402183 
L 199.64007 45.285313 
L 205.241069 44.388131 
L 210.872476 43.712 
L 216.525724 43.257951 
L 222.192218 43.026672 
L 227.86334 43.018515 
L 233.530464 43.233494 
L 239.184972 43.671282 
L 244.818266 44.331211 
L 250.421776 45.212279 
L 255.986983 46.313146 
L 261.505422 47.632138 
L 266.9687 49.167248 
L 272.36851 50.916143 
L 277.696638 52.876162 
L 282.944983 55.044324 
L 288.105561 57.417333 
L 293.170526 59.991578 
L 298.132174 62.763146 
L 302.982959 65.727822 
L 307.715505 68.881096 
L 312.322613 72.218173 
L 316.797279 75.733978 
L 321.132695 79.423165 
L 325.32227 83.280122 
L 329.359631 87.298984 
L 333.238639 91.473639 
L 336.953394 95.797739 
L 340.498247 100.264706 
L 343.867806 104.867748 
L 347.056948 109.599865 
L 350.060823 114.453859 
L 352.874861 119.422349 
L 355.494783 124.497778 
L 357.916606 129.672428 
L 360.136645 134.93843 
L 362.151525 140.287774 
L 363.958182 145.712326 
L 365.553867 151.203835 
L 366.936154 156.75395 
L 368.102941 162.35423 
L 369.052453 167.996159 
L 369.783247 173.671157 
L 370.294211 179.370592 
L 370.584567 185.085796 
L 370.653875 190.808079 
L 370.502029 196.528738 
L 370.12926 202.239072 
L 369.536134 207.930397 
L 368.723554 213.594059 
L 367.692756 219.221443 
L 366.445307 224.803991 
L 364.983104 230.333214 
L 363.308371 235.800702 
L 361.423656 241.198141 
L 359.331823 246.517322 
L 357.036055 251.750156 
L 354.539844 256.888684 
L 351.846984 261.925092 
L 348.961572 266.85172 
L 345.887995 271.661076 
L 342.630929 276.345847 
L 339.195326 280.898906 
L 335.586412 285.31333 
L 331.809674 289.582405 
L 327.870856 293.69964 
L 323.77595 297.658772 
L 319.531181 301.45378 
L 315.143006 305.078893 
L 310.618099 308.528598 
L 305.96334 311.797648 
L 301.185809 314.881072 
L 296.292771 317.77418 
L 291.291668 320.472574 
L 286.190106 322.972148 
L 280.995842 325.269102 
L 275.716778 327.359942 
L 270.36094 329.241489 
L 264.936474 330.91088 
L 259.45163 332.365578 
L 253.914749 333.603371 
L 248.334252 334.622374 
L 242.718625 335.42104 
L 237.076409 335.998152 
L 231.416185 336.352834 
L 225.74656 336.484547 
L 220.076157 336.393089 
L 214.413599 336.0786 
L 208.767499 335.541558 
L 203.146443 334.78278 
L 197.55898 333.80342 
L 192.013606 332.604967 
L 186.518755 331.189245 
L 181.082785 329.558405 
L 175.713961 327.714928 
L 170.42045 325.661618 
L 165.210301 323.401597 
L 160.091437 320.938303 
L 155.071645 318.275482 
L 150.158558 315.417182 
L 145.359647 312.367753 
L 140.682211 309.131829 
L 136.133364 305.714334 
L 131.720024 302.120464 
L 127.448901 298.355686 
L 123.326493 294.425723 
L 119.359067 290.336554 
L 115.552659 286.094397 
L 111.913056 281.705703 
L 108.445794 277.177148 
L 105.156146 272.515617 
L 102.049115 267.7282 
L 99.129426 262.822179 
L 96.401519 257.805013 
L 93.869543 252.684334 
L 91.537348 247.467929 
L 89.408482 242.16373 
L 87.486182 236.779805 
L 85.773371 231.324342 
L 84.272655 225.805637 
L 82.986315 220.232083 
L 81.916308 214.612156 
L 81.064261 208.954404 
L 80.43147 203.26743 
L 80.018897 197.559883 
L 79.82717 191.840444 
L 79.85658 186.117811 
L 80.107083 180.400686 
L 80.578298 174.697765 
L 81.269507 169.01772 
L 82.17966 163.36919 
L 83.307373 157.760764 
L 84.650931 152.200973 
L 86.208289 146.698271 
L 87.977081 141.261028 
L 89.954615 135.897512 
L 92.137885 130.615879 
L 94.52357 125.424163 
L 97.108041 120.33026 
L 99.88737 115.341915 
L 102.857327 110.466715 
L 106.013398 105.712074 
L 109.350782 101.085224 
L 112.864403 96.593201 
L 116.548918 92.242836 
L 120.398724 88.040745 
L 124.407966 83.99332 
L 128.570546 80.106715 
L 132.880134 76.38684 
L 137.330176 72.839355 
L 141.913905 69.469652 
L 146.624349 66.282858 
L 151.454344 63.283818 
L 156.396546 60.477093 
L 161.443437 57.866953 
L 166.587344 55.457366 
L 171.820442 53.251997 
L 177.134773 51.2542 
L 182.522256 49.467013 
L 187.974696 47.893155 
L 193.483802 46.535018 
L 199.041196 45.394668 
L 204.638425 44.47384 
L 210.266978 43.773934 
L 215.918294 43.296013 
L 221.583779 43.040806 
L 227.254817 43.008701 
L 232.922783 43.199745 
L 238.579058 43.613649 
L 244.215039 44.249782 
L 249.822154 45.107179 
L 255.391878 46.184534 
L 260.915739 47.480209 
L 266.385336 48.992234 
L 271.792351 50.718309 
L 277.128562 52.65581 
L 282.385852 54.801789 
L 287.556228 57.152983 
L 292.631824 59.705816 
L 297.604923 62.456406 
L 302.467961 65.400571 
L 307.213543 68.533831 
L 311.834451 71.851423 
L 316.323658 75.3483 
L 320.674337 79.019146 
L 324.879871 82.858376 
L 328.933865 86.860153 
L 332.830152 91.01839 
L 336.562808 95.326763 
L 340.126155 99.778721 
L 343.514776 104.367493 
L 346.723515 109.0861 
L 349.747494 113.927366 
L 352.582114 118.883929 
L 355.223063 123.948249 
L 357.666325 129.112627 
L 359.908185 134.369207 
L 361.945233 139.709995 
L 363.774371 145.126869 
L 365.392817 150.611592 
L 366.79811 156.155821 
L 367.988113 161.751125 
L 368.961015 167.388994 
L 369.715339 173.060856 
L 370.249935 178.758083 
L 370.563992 184.472011 
L 370.657031 190.193951 
L 370.528912 195.915201 
L 370.179828 201.62706 
L 369.610312 207.32084 
L 368.821228 212.987884 
L 367.813777 218.619571 
L 366.589492 224.207339 
L 365.150233 229.742688 
L 363.49819 235.217201 
L 361.635876 240.622552 
L 359.566122 245.950521 
L 357.292077 251.193004 
L 354.817198 256.342029 
L 352.145249 261.389765 
L 349.280295 266.328535 
L 346.226691 271.150829 
L 342.989082 275.849313 
L 339.572393 280.416842 
L 335.981818 284.846468 
L 332.222818 289.131456 
L 328.301111 293.265288 
L 324.222659 297.241678 
L 319.993667 301.054579 
L 315.620565 304.698192 
L 311.110004 308.166976 
L 306.468844 311.455655 
L 301.704142 314.559228 
L 296.823146 317.472975 
L 291.833278 320.192465 
L 286.742127 322.713562 
L 281.557435 325.032431 
L 276.287088 327.145547 
L 270.939101 329.049696 
L 265.521606 330.741981 
L 260.042843 332.219829 
L 254.511144 333.480993 
L 248.934922 334.523555 
L 243.322656 335.345929 
L 237.682883 335.946864 
L 232.024179 336.325447 
L 226.35515 336.481101 
L 220.684418 336.413591 
L 215.020606 336.123018 
L 209.372328 335.609825 
L 203.748174 334.874792 
L 198.156698 333.919037 
L 192.606402 332.744013 
L 187.105728 331.351508 
L 181.663042 329.743639 
L 176.28662 327.922852 
L 170.984639 325.891915 
L 165.765162 323.653917 
L 160.636128 321.212262 
L 155.605336 318.570663 
L 150.680437 315.733137 
L 145.868922 312.704 
L 141.178107 309.487859 
L 136.615126 306.089604 
L 132.186919 302.514403 
L 127.900221 298.767695 
L 123.761549 294.855176 
L 119.7772 290.782798 
L 115.953231 286.556753 
L 112.295459 282.183468 
L 108.809446 277.669594 
L 105.500494 273.021997 
L 102.373635 268.247744 
L 99.433625 263.354095 
L 96.684934 258.348494 
L 94.131743 253.238552 
L 91.777935 248.032042 
L 89.627089 242.73688 
L 87.682477 237.36112 
L 85.947056 231.912938 
L 84.423465 226.400619 
L 83.114021 220.832546 
L 82.020715 215.217187 
L 81.145212 209.563083 
L 80.48884 203.878831 
L 80.0526 198.173077 
L 79.837155 192.454498 
L 79.842831 186.73179 
L 80.069621 181.013658 
L 80.51718 175.308796 
L 81.184826 169.625882 
L 82.071545 163.973557 
L 83.175988 158.360419 
L 84.496476 152.795002 
L 86.030999 147.285772 
L 87.777225 141.841106 
L 89.732498 136.469286 
L 91.893844 131.178479 
L 94.257977 125.976734 
L 96.8213 120.87196 
L 99.579915 115.871922 
L 102.529628 110.984222 
L 105.665952 106.216295 
L 108.984118 101.575391 
L 112.479078 97.068569 
L 116.145519 92.702682 
L 119.977864 88.48437 
L 123.970285 84.420048 
L 128.116709 80.515898 
L 132.410832 76.777857 
L 136.846123 73.211609 
L 141.415836 69.822579 
L 146.113022 66.615919 
L 150.930537 63.596508 
L 155.861055 60.768937 
L 160.897078 58.137506 
L 166.030946 55.706217 
L 171.254851 53.478767 
L 176.560851 51.458545 
L 181.940874 49.648622 
L 187.386739 48.051751 
L 192.890165 46.67036 
L 198.44278 45.506551 
L 204.036142 44.562093 
L 209.661742 43.838423 
L 215.311027 43.336641 
L 220.975404 43.057511 
L 226.646259 43.001456 
L 232.314968 43.168562 
L 237.97291 43.558575 
L 243.611479 44.170902 
L 249.222102 45.004611 
L 254.796245 46.058435 
L 260.325431 47.330771 
L 265.801251 48.819685 
L 271.215377 50.52291 
L 276.559577 52.437858 
L 281.825721 54.561617 
L 287.005802 56.890955 
L 292.091942 59.422331 
L 297.076405 62.151896 
L 301.951611 65.075497 
L 306.710146 68.188689 
L 311.344772 71.486737 
L 315.848443 74.964626 
L 320.214308 78.617065 
L 324.435727 82.438502 
L 328.506282 86.423123 
L 332.419781 90.564869 
L 336.170272 94.857442 
L 339.752052 99.294312 
L 343.159674 103.868734 
L 346.387955 108.573748 
L 349.431986 113.402201 
L 352.287137 118.34675 
L 354.949066 123.399873 
L 357.413725 128.553887 
L 359.677366 133.800953 
L 361.736546 139.133092 
L 363.588133 144.542194 
L 365.229312 150.020034 
L 366.657586 155.55828 
L 367.870784 161.148509 
L 368.86706 166.782221 
L 369.6449 172.450847 
L 370.20312 178.145767 
L 370.540871 183.858319 
L 370.657641 189.579816 
L 370.55325 195.301556 
L 370.227858 201.014839 
L 369.681961 206.710975 
L 368.916387 212.381301 
L 367.932301 218.017194 
L 366.7312 223.610083 
L 365.314911 229.151462 
L 363.685588 234.632904 
L 361.845707 240.046072 
L 359.798068 245.382735 
L 357.545785 250.634776 
L 355.092282 255.794207 
L 352.441292 260.853183 
L 349.596845 265.804009 
L 346.563267 270.639157 
L 343.345173 275.351272 
L 339.947456 279.933189 
L 336.375284 284.37794 
L 332.634088 288.678765 
L 328.729559 292.829123 
L 324.667635 296.822702 
L 320.454493 300.653429 
L 316.096541 304.315478 
L 311.600406 307.80328 
L 306.972925 311.111531 
L 302.221137 314.235198 
L 297.352268 317.169533 
L 292.373722 319.910071 
L 287.293071 322.452647 
L 282.118042 324.793391 
L 276.856505 326.928746 
L 271.516461 328.855463 
L 266.106032 330.570612 
L 260.633446 332.071585 
L 255.107026 333.356098 
L 249.535177 334.4222 
L 243.926371 335.268268 
L 238.28914 335.893015 
L 232.632055 336.295492 
L 226.963721 336.475086 
L 221.292759 336.431524 
L 215.627791 336.164873 
L 209.977434 335.675537 
L 204.350281 334.964262 
L 198.75489 334.032129 
L 193.19977 332.880555 
L 187.693369 331.511292 
L 182.244062 329.926422 
L 176.860136 328.128356 
L 171.549778 326.119827 
L 166.321066 323.903891 
L 161.18195 321.483918 
L 156.140247 318.863588 
L 151.203623 316.046885 
L 146.379587 313.038094 
L 141.675475 309.841791 
L 137.09844 306.462835 
L 132.655445 302.906367 
L 128.353245 299.177795 
L 124.198383 295.282788 
L 120.197179 291.227272 
L 116.355717 287.017413 
L 112.67984 282.659613 
L 109.175137 278.160501 
L 105.846939 273.526918 
L 102.700307 268.765912 
L 99.740027 263.884722 
L 96.9706 258.890773 
L 94.396239 253.791658 
L 92.020859 248.595134 
L 89.848071 243.309102 
L 87.881181 237.941601 
L 86.12318 232.500795 
L 84.576741 226.994959 
L 83.244216 221.432465 
L 82.127631 215.821772 
L 81.228686 210.171415 
L 80.548746 204.489985 
L 80.088846 198.786123 
L 79.849686 193.068504 
L 79.831628 187.345822 
L 80.034702 181.626782 
L 80.458596 175.920081 
L 81.102668 170.234396 
L 81.965937 164.578377 
L 83.047091 158.960623 
L 84.344486 153.389678 
L 85.856147 147.874016 
L 87.579778 142.422023 
L 89.512755 137.041993 
L 91.652139 131.742105 
L 93.994678 126.530421 
L 96.536807 121.414867 
L 99.274662 116.403222 
L 102.204078 111.503109 
L 105.320601 106.721978 
L 108.61949 102.067102 
L 112.095729 97.54556 
L 115.744031 93.164227 
L 119.558847 88.929768 
L 123.534377 84.848622 
L 127.664574 80.926995 
L 131.943156 77.170852 
L 136.363618 73.585905 
L 140.919235 70.177605 
L 145.603081 66.951138 
L 150.408032 63.911408 
L 155.32678 61.063039 
L 160.351845 58.410364 
L 165.475584 55.957415 
L 170.690207 53.707924 
L 175.987781 51.665311 
L 181.360251 49.832684 
L 186.799446 48.212829 
L 186.939716 48.174114 
L 186.939716 48.174114 
" clip-path="url(#p268800ec73)" style="fill: none; stroke: #1f77b4; stroke-width: 1.5; stroke-linecap: square"/>
   </g>
   <g id="patch_3">
    <path d="M 65.27 351.16 
L 65.27 28.32 
" style="fill: none; stroke: #000000; stroke-width: 0.8; stroke-linejoin: miter; stroke-linecap: square"/>
   </g>
   <g id="patch_4">
    <path d="M 385.2 351.16 
L 385.2 28.32 
" style="fill: none; stroke: #000000; stroke-width: 0.8; stroke-linejoin: miter; stroke-linecap: square"/>
   </g>
   <g id="patch_5">
    <path d="M 65.27 351.16 
L 385.2 351.16 
" style="fill: none; stroke: #000000; stroke-width: 0.8; stroke-linejoin: miter; stroke-linecap: square"/>
   </g>
   <g id="patch_6">
    <path d="M 65.27 28.32 
L 385.2 28.32 
" style="fill: none; stroke: #000000; stroke-width: 0.8; stroke-linejoin: miter; stroke-linecap: square"/>
   </g>
   <g id="text_21">
    <!-- Velocity Verlet Stability, $\omega$=0.1,  $\Delta t$=0.01, $N_{10rev}$=62833 -->
    <g transform="translate(56.155 22.32) scale(0.12 -0.12)">
     <defs>
      <path id="DejaVuSans-56" d="M 1831 0 
L 50 4666 
L 709 4666 
L 2188 738 
L 3669 4666 
L 4325 4666 
L 2547 0 
L 1831 0 
z
" transform="scale(0.015625)"/>
      <path id="DejaVuSans-65" d="M 3597 1894 
L 3597 1613 
L 953 1613 
Q 991 1019 1311 708 
Q 1631 397 2203 397 
Q 2534 397 2845 478 
Q 3156 559 3463 722 
L 3463 178 
Q 3153 47 2828 -22 
Q 2503 -91 2169 -91 
Q 1331 -91 842 396 
Q 353 884 353 1716 
Q 353 2575 817 3079 
Q 1281 3584 2069 3584 
Q 2775 3584 3186 3129 
Q 3597 2675 3597 1894 
z
M 3022 2063 
Q 3016 2534 2758 2815 
Q 2500 3097 2075 3097 
Q 1594 3097 1305 2825 
Q 1016 2553 972 2059 
L 3022 2063 
z
" transform="scale(0.015625)"/>
      <path id="DejaVuSans-6c" d="M 603 4863 
L 1178 4863 
L 1178 0 
L 603 0 
L 603 4863 
z
" transform="scale(0.015625)"/>
      <path id="DejaVuSans-6f" d="M 1959 3097 
Q 1497 3097 1228 2736 
Q 959 2375 959 1747 
Q 959 1119 1226 758 
Q 1494 397 1959 397 
Q 2419 397 2687 759 
Q 2956 1122 2956 1747 
Q 2956 2369 2687 2733 
Q 2419 3097 1959 3097 
z
M 1959 3584 
Q 2709 3584 3137 3096 
Q 3566 2609 3566 1747 
Q 3566 888 3137 398 
Q 2709 -91 1959 -91 
Q 1206 -91 779 398 
Q 353 888 353 1747 
Q 353 2609 779 3096 
Q 1206 3584 1959 3584 
z
" transform="scale(0.015625)"/>
      <path id="DejaVuSans-63" d="M 3122 3366 
L 3122 2828 
Q 2878 2963 2633 3030 
Q 2388 3097 2138 3097 
Q 1578 3097 1268 2742 
Q 959 2388 959 1747 
Q 959 1106 1268 751 
Q 1578 397 2138 397 
Q 2388 397 2633 464 
Q 2878 531 3122 666 
L 3122 134 
Q 2881 22 2623 -34 
Q 2366 -91 2075 -91 
Q 1284 -91 818 406 
Q 353 903 353 1747 
Q 353 2603 823 3093 
Q 1294 3584 2113 3584 
Q 2378 3584 2631 3529 
Q 2884 3475 3122 3366 
z
" transform="scale(0.015625)"/>
      <path id="DejaVuSans-69" d="M 603 3500 
L 1178 3500 
L 1178 0 
L 603 0 
L 603 3500 
z
M 603 4863 
L 1178 4863 
L 1178 4134 
L 603 4134 
L 603 4863 
z
" transform="scale(0.015625)"/>
      <path id="DejaVuSans-74" d="M 1172 4494 
L 1172 3500 
L 2356 3500 
L 2356 3053 
L 1172 3053 
L 1172 1153 
Q 1172 725 1289 603 
Q 1406 481 1766 481 
L 2356 481 
L 2356 0 
L 1766 0 
Q 1100 0 847 248 
Q 594 497 594 1153 
L 594 3053 
L 172 3053 
L 172 3500 
L 594 3500 
L 594 4494 
L 1172 4494 
z
" transform="scale(0.015625)"/>
      <path id="DejaVuSans-79" d="M 2059 -325 
Q 1816 -950 1584 -1140 
Q 1353 -1331 966 -1331 
L 506 -1331 
L 506 -850 
L 844 -850 
Q 1081 -850 1212 -737 
Q 1344 -625 1503 -206 
L 1606 56 
L 191 3500 
L 800 3500 
L 1894 763 
L 2988 3500 
L 3597 3500 
L 2059 -325 
z
" transform="scale(0.015625)"/>
      <path id="DejaVuSans-20" transform="scale(0.015625)"/>
      <path id="DejaVuSans-72" d="M 2631 2963 
Q 2534 3019 2420 3045 
Q 2306 3072 2169 3072 
Q 1681 3072 1420 2755 
Q 1159 2438 1159 1844 
L 1159 0 
L 581 0 
L 581 3500 
L 1159 3500 
L 1159 2956 
Q 1341 3275 1631 3429 
Q 1922 3584 2338 3584 
Q 2397 3584 2469 3576 
Q 2541 3569 2628 3553 
L 2631 2963 
z
" transform="scale(0.015625)"/>
      <path id="DejaVuSans-53" d="M 3425 4513 
L 3425 3897 
Q 3066 4069 2747 4153 
Q 2428 4238 2131 4238 
Q 1616 4238 1336 4038 
Q 1056 3838 1056 3469 
Q 1056 3159 1242 3001 
Q 1428 2844 1947 2747 
L 2328 2669 
Q 3034 2534 3370 2195 
Q 3706 1856 3706 1288 
Q 3706 609 3251 259 
Q 2797 -91 1919 -91 
Q 1588 -91 1214 -16 
Q 841 59 441 206 
L 441 856 
Q 825 641 1194 531 
Q 1563 422 1919 422 
Q 2459 422 2753 634 
Q 3047 847 3047 1241 
Q 3047 1584 2836 1778 
Q 2625 1972 2144 2069 
L 1759 2144 
Q 1053 2284 737 2584 
Q 422 2884 422 3419 
Q 422 4038 858 4394 
Q 1294 4750 2059 4750 
Q 2388 4750 2728 4690 
Q 3069 4631 3425 4513 
z
" transform="scale(0.015625)"/>
      <path id="DejaVuSans-61" d="M 2194 1759 
Q 1497 1759 1228 1600 
Q 959 1441 959 1056 
Q 959 750 1161 570 
Q 1363 391 1709 391 
Q 2188 391 2477 730 
Q 2766 1069 2766 1631 
L 2766 1759 
L 2194 1759 
z
M 3341 1997 
L 3341 0 
L 2766 0 
L 2766 531 
Q 2569 213 2275 61 
Q 1981 -91 1556 -91 
Q 1019 -91 701 211 
Q 384 513 384 1019 
Q 384 1609 779 1909 
Q 1175 2209 1959 2209 
L 2766 2209 
L 2766 2266 
Q 2766 2663 2505 2880 
Q 2244 3097 1772 3097 
Q 1472 3097 1187 3025 
Q 903 2953 641 2809 
L 641 3341 
Q 956 3463 1253 3523 
Q 1550 3584 1831 3584 
Q 2591 3584 2966 3190 
Q 3341 2797 3341 1997 
z
" transform="scale(0.015625)"/>
      <path id="DejaVuSans-62" d="M 3116 1747 
Q 3116 2381 2855 2742 
Q 2594 3103 2138 3103 
Q 1681 3103 1420 2742 
Q 1159 2381 1159 1747 
Q 1159 1113 1420 752 
Q 1681 391 2138 391 
Q 2594 391 2855 752 
Q 3116 1113 3116 1747 
z
M 1159 2969 
Q 1341 3281 1617 3432 
Q 1894 3584 2278 3584 
Q 2916 3584 3314 3078 
Q 3713 2572 3713 1747 
Q 3713 922 3314 415 
Q 2916 -91 2278 -91 
Q 1894 -91 1617 61 
Q 1341 213 1159 525 
L 1159 0 
L 581 0 
L 581 4863 
L 1159 4863 
L 1159 2969 
z
" transform="scale(0.015625)"/>
      <path id="DejaVuSans-2c" d="M 750 794 
L 1409 794 
L 1409 256 
L 897 -744 
L 494 -744 
L 750 256 
L 750 794 
z
" transform="scale(0.015625)"/>
      <path id="DejaVuSans-Oblique-3c9" d="M 1369 -91 
Q 72 -91 434 1766 
Q 575 2500 1256 3500 
L 1875 3500 
Q 1231 2500 1088 1750 
Q 819 397 1519 397 
Q 2166 397 2478 2078 
L 3009 2078 
Q 2669 388 3316 397 
Q 4013 403 4275 1750 
Q 4419 2500 4169 3500 
L 4788 3500 
Q 5075 2500 4934 1766 
Q 4578 -94 3278 -91 
Q 2428 -88 2503 844 
Q 2194 -91 1369 -91 
z
" transform="scale(0.015625)"/>
      <path id="DejaVuSans-3d" d="M 678 2906 
L 4684 2906 
L 4684 2381 
L 678 2381 
L 678 2906 
z
M 678 1631 
L 4684 1631 
L 4684 1100 
L 678 1100 
L 678 1631 
z
" transform="scale(0.015625)"/>
      <path id="DejaVuSans-394" d="M 2188 4044 
L 906 525 
L 3472 525 
L 2188 4044 
z
M 50 0 
L 1831 4666 
L 2547 4666 
L 4325 0 
L 50 0 
z
" transform="scale(0.015625)"/>
      <path id="DejaVuSans-Oblique-4e" d="M 1081 4666 
L 1931 4666 
L 3219 666 
L 4000 4666 
L 4616 4666 
L 3706 0 
L 2853 0 
L 1569 4025 
L 788 0 
L 172 0 
L 1081 4666 
z
" transform="scale(0.015625)"/>
      <path id="DejaVuSans-Oblique-72" d="M 2853 2969 
Q 2766 3016 2653 3041 
Q 2541 3066 2413 3066 
Q 1953 3066 1609 2717 
Q 1266 2369 1153 1784 
L 800 0 
L 225 0 
L 909 3500 
L 1484 3500 
L 1375 2956 
Q 1603 3259 1920 3421 
Q 2238 3584 2597 3584 
Q 2691 3584 2781 3573 
Q 2872 3563 2963 3538 
L 2853 2969 
z
" transform="scale(0.015625)"/>
      <path id="DejaVuSans-Oblique-65" d="M 3078 2063 
Q 3088 2113 3092 2166 
Q 3097 2219 3097 2272 
Q 3097 2653 2873 2875 
Q 2650 3097 2266 3097 
Q 1838 3097 1509 2826 
Q 1181 2556 1013 2059 
L 3078 2063 
z
M 3578 1613 
L 903 1613 
Q 884 1494 878 1425 
Q 872 1356 872 1306 
Q 872 872 1139 634 
Q 1406 397 1894 397 
Q 2269 397 2603 481 
Q 2938 566 3225 728 
L 3116 159 
Q 2806 34 2476 -28 
Q 2147 -91 1806 -91 
Q 1078 -91 686 257 
Q 294 606 294 1247 
Q 294 1794 489 2264 
Q 684 2734 1063 3103 
Q 1306 3334 1642 3459 
Q 1978 3584 2356 3584 
Q 2950 3584 3301 3228 
Q 3653 2872 3653 2272 
Q 3653 2128 3634 1964 
Q 3616 1800 3578 1613 
z
" transform="scale(0.015625)"/>
      <path id="DejaVuSans-Oblique-76" d="M 459 3500 
L 1069 3500 
L 1581 525 
L 3256 3500 
L 3866 3500 
L 1875 0 
L 1100 0 
L 459 3500 
z
" transform="scale(0.015625)"/>
      <path id="DejaVuSans-36" d="M 2113 2584 
Q 1688 2584 1439 2293 
Q 1191 2003 1191 1497 
Q 1191 994 1439 701 
Q 1688 409 2113 409 
Q 2538 409 2786 701 
Q 3034 994 3034 1497 
Q 3034 2003 2786 2293 
Q 2538 2584 2113 2584 
z
M 3366 4563 
L 3366 3988 
Q 3128 4100 2886 4159 
Q 2644 4219 2406 4219 
Q 1781 4219 1451 3797 
Q 1122 3375 1075 2522 
Q 1259 2794 1537 2939 
Q 1816 3084 2150 3084 
Q 2853 3084 3261 2657 
Q 3669 2231 3669 1497 
Q 3669 778 3244 343 
Q 2819 -91 2113 -91 
Q 1303 -91 875 529 
Q 447 1150 447 2328 
Q 447 3434 972 4092 
Q 1497 4750 2381 4750 
Q 2619 4750 2861 4703 
Q 3103 4656 3366 4563 
z
" transform="scale(0.015625)"/>
      <path id="DejaVuSans-38" d="M 2034 2216 
Q 1584 2216 1326 1975 
Q 1069 1734 1069 1313 
Q 1069 891 1326 650 
Q 1584 409 2034 409 
Q 2484 409 2743 651 
Q 3003 894 3003 1313 
Q 3003 1734 2745 1975 
Q 2488 2216 2034 2216 
z
M 1403 2484 
Q 997 2584 770 2862 
Q 544 3141 544 3541 
Q 544 4100 942 4425 
Q 1341 4750 2034 4750 
Q 2731 4750 3128 4425 
Q 3525 4100 3525 3541 
Q 3525 3141 3298 2862 
Q 3072 2584 2669 2484 
Q 3125 2378 3379 2068 
Q 3634 1759 3634 1313 
Q 3634 634 3220 271 
Q 2806 -91 2034 -91 
Q 1263 -91 848 271 
Q 434 634 434 1313 
Q 434 1759 690 2068 
Q 947 2378 1403 2484 
z
M 1172 3481 
Q 1172 3119 1398 2916 
Q 1625 2713 2034 2713 
Q 2441 2713 2670 2916 
Q 2900 3119 2900 3481 
Q 2900 3844 2670 4047 
Q 2441 4250 2034 4250 
Q 1625 4250 1398 4047 
Q 1172 3844 1172 3481 
z
" transform="scale(0.015625)"/>
      <path id="DejaVuSans-33" d="M 2597 2516 
Q 3050 2419 3304 2112 
Q 3559 1806 3559 1356 
Q 3559 666 3084 287 
Q 2609 -91 1734 -91 
Q 1441 -91 1130 -33 
Q 819 25 488 141 
L 488 750 
Q 750 597 1062 519 
Q 1375 441 1716 441 
Q 2309 441 2620 675 
Q 2931 909 2931 1356 
Q 2931 1769 2642 2001 
Q 2353 2234 1838 2234 
L 1294 2234 
L 1294 2753 
L 1863 2753 
Q 2328 2753 2575 2939 
Q 2822 3125 2822 3475 
Q 2822 3834 2567 4026 
Q 2313 4219 1838 4219 
Q 1578 4219 1281 4162 
Q 984 4106 628 3988 
L 628 4550 
Q 988 4650 1302 4700 
Q 1616 4750 1894 4750 
Q 2613 4750 3031 4423 
Q 3450 4097 3450 3541 
Q 3450 3153 3228 2886 
Q 3006 2619 2597 2516 
z
" transform="scale(0.015625)"/>
     </defs>
     <use xlink:href="#DejaVuSans-56" transform="translate(0 0.015625)"/>
     <use xlink:href="#DejaVuSans-65" transform="translate(68.408203 0.015625)"/>
     <use xlink:href="#DejaVuSans-6c" transform="translate(129.931641 0.015625)"/>
     <use xlink:href="#DejaVuSans-6f" transform="translate(157.714844 0.015625)"/>
     <use xlink:href="#DejaVuSans-63" transform="translate(218.896484 0.015625)"/>
     <use xlink:href="#DejaVuSans-69" transform="translate(273.876953 0.015625)"/>
     <use xlink:href="#DejaVuSans-74" transform="translate(301.660156 0.015625)"/>
     <use xlink:href="#DejaVuSans-79" transform="translate(340.869141 0.015625)"/>
     <use xlink:href="#DejaVuSans-20" transform="translate(400.048828 0.015625)"/>
     <use xlink:href="#DejaVuSans-56" transform="translate(431.835938 0.015625)"/>
     <use xlink:href="#DejaVuSans-65" transform="translate(500.244141 0.015625)"/>
     <use xlink:href="#DejaVuSans-72" transform="translate(561.767578 0.015625)"/>
     <use xlink:href="#DejaVuSans-6c" transform="translate(602.880859 0.015625)"/>
     <use xlink:href="#DejaVuSans-65" transform="translate(630.664062 0.015625)"/>
     <use xlink:href="#DejaVuSans-74" transform="translate(692.1875 0.015625)"/>
     <use xlink:href="#DejaVuSans-20" transform="translate(731.396484 0.015625)"/>
     <use xlink:href="#DejaVuSans-53" transform="translate(763.183594 0.015625)"/>
     <use xlink:href="#DejaVuSans-74" transform="translate(826.660156 0.015625)"/>
     <use xlink:href="#DejaVuSans-61" transform="translate(865.869141 0.015625)"/>
     <use xlink:href="#DejaVuSans-62" transform="translate(927.148438 0.015625)"/>
     <use xlink:href="#DejaVuSans-69" transform="translate(990.625 0.015625)"/>
     <use xlink:href="#DejaVuSans-6c" transform="translate(1018.408203 0.015625)"/>
     <use xlink:href="#DejaVuSans-69" transform="translate(1046.191406 0.015625)"/>
     <use xlink:href="#DejaVuSans-74" transform="translate(1073.974609 0.015625)"/>
     <use xlink:href="#DejaVuSans-79" transform="translate(1113.183594 0.015625)"/>
     <use xlink:href="#DejaVuSans-2c" transform="translate(1172.363281 0.015625)"/>
     <use xlink:href="#DejaVuSans-20" transform="translate(1204.150391 0.015625)"/>
     <use xlink:href="#DejaVuSans-Oblique-3c9" transform="translate(1235.9375 0.015625)"/>
     <use xlink:href="#DejaVuSans-3d" transform="translate(1319.677734 0.015625)"/>
     <use xlink:href="#DejaVuSans-30" transform="translate(1403.466797 0.015625)"/>
     <use xlink:href="#DejaVuSans-2e" transform="translate(1467.089844 0.015625)"/>
     <use xlink:href="#DejaVuSans-31" transform="translate(1498.876953 0.015625)"/>
     <use xlink:href="#DejaVuSans-2c" transform="translate(1562.5 0.015625)"/>
     <use xlink:href="#DejaVuSans-20" transform="translate(1594.287109 0.015625)"/>
     <use xlink:href="#DejaVuSans-20" transform="translate(1626.074219 0.015625)"/>
     <use xlink:href="#DejaVuSans-394" transform="translate(1657.861328 0.015625)"/>
     <use xlink:href="#DejaVuSans-Oblique-74" transform="translate(1726.269531 0.015625)"/>
     <use xlink:href="#DejaVuSans-3d" transform="translate(1765.478516 0.015625)"/>
     <use xlink:href="#DejaVuSans-30" transform="translate(1849.267578 0.015625)"/>
     <use xlink:href="#DejaVuSans-2e" transform="translate(1912.890625 0.015625)"/>
     <use xlink:href="#DejaVuSans-30" transform="translate(1944.677734 0.015625)"/>
     <use xlink:href="#DejaVuSans-31" transform="translate(2008.300781 0.015625)"/>
     <use xlink:href="#DejaVuSans-2c" transform="translate(2071.923828 0.015625)"/>
     <use xlink:href="#DejaVuSans-20" transform="translate(2103.710938 0.015625)"/>
     <use xlink:href="#DejaVuSans-Oblique-4e" transform="translate(2135.498047 0.015625)"/>
     <use xlink:href="#DejaVuSans-31" transform="translate(2210.302734 -16.390625) scale(0.7)"/>
     <use xlink:href="#DejaVuSans-30" transform="translate(2254.838867 -16.390625) scale(0.7)"/>
     <use xlink:href="#DejaVuSans-Oblique-72" transform="translate(2299.375 -16.390625) scale(0.7)"/>
     <use xlink:href="#DejaVuSans-Oblique-65" transform="translate(2328.154297 -16.390625) scale(0.7)"/>
     <use xlink:href="#DejaVuSans-Oblique-76" transform="translate(2371.220703 -16.390625) scale(0.7)"/>
     <use xlink:href="#DejaVuSans-3d" transform="translate(2415.380859 0.015625)"/>
     <use xlink:href="#DejaVuSans-36" transform="translate(2499.169922 0.015625)"/>
     <use xlink:href="#DejaVuSans-32" transform="translate(2562.792969 0.015625)"/>
     <use xlink:href="#DejaVuSans-38" transform="translate(2626.416016 0.015625)"/>
     <use xlink:href="#DejaVuSans-33" transform="translate(2690.039062 0.015625)"/>
     <use xlink:href="#DejaVuSans-33" transform="translate(2753.662109 0.015625)"/>
    </g>
   </g>
   <g id="legend_1">
    <g id="patch_7">
     <path d="M 173.385 205.918125 
L 277.085 205.918125 
Q 279.085 205.918125 279.085 203.918125 
L 279.085 175.561875 
Q 279.085 173.561875 277.085 173.561875 
L 173.385 173.561875 
Q 171.385 173.561875 171.385 175.561875 
L 171.385 203.918125 
Q 171.385 205.918125 173.385 205.918125 
z
" style="fill: #ffffff; opacity: 0.8; stroke: #cccccc; stroke-linejoin: miter"/>
    </g>
    <g id="line2d_20">
     <path d="M 175.385 181.660312 
L 185.385 181.660312 
L 195.385 181.660312 
" style="fill: none; stroke-dasharray: 1.5,2.475; stroke-dashoffset: 0; stroke: #ff0000; stroke-width: 1.5"/>
    </g>
    <g id="text_22">
     <!-- Exact Solution -->
     <g transform="translate(203.385 185.160312) scale(0.1 -0.1)">
      <defs>
       <path id="DejaVuSans-45" d="M 628 4666 
L 3578 4666 
L 3578 4134 
L 1259 4134 
L 1259 2753 
L 3481 2753 
L 3481 2222 
L 1259 2222 
L 1259 531 
L 3634 531 
L 3634 0 
L 628 0 
L 628 4666 
z
" transform="scale(0.015625)"/>
       <path id="DejaVuSans-78" d="M 3513 3500 
L 2247 1797 
L 3578 0 
L 2900 0 
L 1881 1375 
L 863 0 
L 184 0 
L 1544 1831 
L 300 3500 
L 978 3500 
L 1906 2253 
L 2834 3500 
L 3513 3500 
z
" transform="scale(0.015625)"/>
       <path id="DejaVuSans-75" d="M 544 1381 
L 544 3500 
L 1119 3500 
L 1119 1403 
Q 1119 906 1312 657 
Q 1506 409 1894 409 
Q 2359 409 2629 706 
Q 2900 1003 2900 1516 
L 2900 3500 
L 3475 3500 
L 3475 0 
L 2900 0 
L 2900 538 
Q 2691 219 2414 64 
Q 2138 -91 1772 -91 
Q 1169 -91 856 284 
Q 544 659 544 1381 
z
M 1991 3584 
L 1991 3584 
z
" transform="scale(0.015625)"/>
       <path id="DejaVuSans-6e" d="M 3513 2113 
L 3513 0 
L 2938 0 
L 2938 2094 
Q 2938 2591 2744 2837 
Q 2550 3084 2163 3084 
Q 1697 3084 1428 2787 
Q 1159 2491 1159 1978 
L 1159 0 
L 581 0 
L 581 3500 
L 1159 3500 
L 1159 2956 
Q 1366 3272 1645 3428 
Q 1925 3584 2291 3584 
Q 2894 3584 3203 3211 
Q 3513 2838 3513 2113 
z
" transform="scale(0.015625)"/>
      </defs>
      <use xlink:href="#DejaVuSans-45"/>
      <use xlink:href="#DejaVuSans-78" transform="translate(63.183594 0)"/>
      <use xlink:href="#DejaVuSans-61" transform="translate(122.363281 0)"/>
      <use xlink:href="#DejaVuSans-63" transform="translate(183.642578 0)"/>
      <use xlink:href="#DejaVuSans-74" transform="translate(238.623047 0)"/>
      <use xlink:href="#DejaVuSans-20" transform="translate(277.832031 0)"/>
      <use xlink:href="#DejaVuSans-53" transform="translate(309.619141 0)"/>
      <use xlink:href="#DejaVuSans-6f" transform="translate(373.095703 0)"/>
      <use xlink:href="#DejaVuSans-6c" transform="translate(434.277344 0)"/>
      <use xlink:href="#DejaVuSans-75" transform="translate(462.060547 0)"/>
      <use xlink:href="#DejaVuSans-74" transform="translate(525.439453 0)"/>
      <use xlink:href="#DejaVuSans-69" transform="translate(564.648438 0)"/>
      <use xlink:href="#DejaVuSans-6f" transform="translate(592.431641 0)"/>
      <use xlink:href="#DejaVuSans-6e" transform="translate(653.613281 0)"/>
     </g>
    </g>
    <g id="line2d_21">
     <path d="M 175.385 196.338437 
L 185.385 196.338437 
L 195.385 196.338437 
" style="fill: none; stroke: #1f77b4; stroke-width: 1.5; stroke-linecap: square"/>
    </g>
    <g id="text_23">
     <!-- Velocity Verlet -->
     <g transform="translate(203.385 199.838437) scale(0.1 -0.1)">
      <use xlink:href="#DejaVuSans-56"/>
      <use xlink:href="#DejaVuSans-65" transform="translate(60.658203 0)"/>
      <use xlink:href="#DejaVuSans-6c" transform="translate(122.181641 0)"/>
      <use xlink:href="#DejaVuSans-6f" transform="translate(149.964844 0)"/>
      <use xlink:href="#DejaVuSans-63" transform="translate(211.146484 0)"/>
      <use xlink:href="#DejaVuSans-69" transform="translate(266.126953 0)"/>
      <use xlink:href="#DejaVuSans-74" transform="translate(293.910156 0)"/>
      <use xlink:href="#DejaVuSans-79" transform="translate(333.119141 0)"/>
      <use xlink:href="#DejaVuSans-20" transform="translate(392.298828 0)"/>
      <use xlink:href="#DejaVuSans-56" transform="translate(424.085938 0)"/>
      <use xlink:href="#DejaVuSans-65" transform="translate(484.744141 0)"/>
      <use xlink:href="#DejaVuSans-72" transform="translate(546.267578 0)"/>
      <use xlink:href="#DejaVuSans-6c" transform="translate(587.380859 0)"/>
      <use xlink:href="#DejaVuSans-65" transform="translate(615.164062 0)"/>
      <use xlink:href="#DejaVuSans-74" transform="translate(676.6875 0)"/>
     </g>
    </g>
   </g>
   <g id="line2d_22">
    <path d="M 225.235 42.994545 
L 230.899184 43.1059 
L 236.554771 43.439796 
L 242.19318 43.995727 
L 247.805851 44.772847 
L 253.384267 45.769979 
L 258.919962 46.985609 
L 264.404535 48.417892 
L 269.829662 50.064654 
L 275.187109 51.923395 
L 280.468746 53.991296 
L 285.666557 56.265218 
L 290.772652 58.741709 
L 295.779284 61.417011 
L 300.678854 64.287064 
L 305.463925 67.347512 
L 310.127236 70.593711 
L 314.661709 74.020733 
L 319.060463 77.623378 
L 323.316821 81.396179 
L 327.424324 85.333408 
L 331.376739 89.429092 
L 335.168066 93.677013 
L 338.792552 98.070726 
L 342.244696 102.603562 
L 345.519259 107.268641 
L 348.61127 112.058884 
L 351.516039 116.967021 
L 354.229155 121.985602 
L 356.746502 127.107012 
L 359.064259 132.323477 
L 361.178909 137.627081 
L 363.087241 143.009775 
L 364.786361 148.46339 
L 366.273688 153.979649 
L 367.546967 159.55018 
L 368.604264 165.166528 
L 369.443975 170.820171 
L 370.064826 176.502528 
L 370.465874 182.204975 
L 370.64651 187.918858 
L 370.606461 193.635504 
L 370.345787 199.346238 
L 369.864884 205.042394 
L 369.164482 210.715325 
L 368.245644 216.356423 
L 367.109764 221.957126 
L 365.758565 227.508935 
L 364.1941 233.003423 
L 362.418742 238.432252 
L 360.435185 243.787182 
L 358.246439 249.060087 
L 355.855828 254.242965 
L 353.266978 259.327948 
L 350.483819 264.307321 
L 347.510575 269.173525 
L 344.351757 273.919177 
L 341.012161 278.537072 
L 337.496854 283.020204 
L 333.811171 287.361768 
L 329.960707 291.555176 
L 325.951304 295.594062 
L 321.789048 299.472297 
L 317.480256 303.183996 
L 313.031467 306.723526 
L 308.449432 310.085514 
L 303.741106 313.264858 
L 298.913634 316.256733 
L 293.974342 319.056598 
L 288.930728 321.660205 
L 283.790445 324.063601 
L 278.561295 326.26314 
L 273.251214 328.255482 
L 267.86826 330.037605 
L 262.420603 331.606804 
L 256.916511 332.960697 
L 251.364337 334.097229 
L 245.772508 335.014675 
L 240.14951 335.711644 
L 234.503876 336.187077 
L 228.844176 336.440253 
L 223.178998 336.470788 
L 217.51694 336.278635 
L 211.866596 335.864085 
L 206.23654 335.227769 
L 200.635318 334.370652 
L 195.07143 333.294034 
L 189.553319 331.999549 
L 184.089362 330.489163 
L 178.68785 328.765167 
L 173.35698 326.830178 
L 168.104844 324.687132 
L 162.939412 322.339283 
L 157.868524 319.790192 
L 152.899875 317.043729 
L 148.041007 314.104062 
L 143.299293 310.975652 
L 138.681929 307.663248 
L 134.195924 304.171876 
L 129.848086 300.506835 
L 125.645012 296.673688 
L 121.593083 292.678251 
L 117.698447 288.526589 
L 113.967015 284.225003 
L 110.40445 279.780019 
L 107.016159 275.198386 
L 103.807284 270.487056 
L 100.782696 265.653179 
L 97.946984 260.704091 
L 95.304453 255.647304 
L 92.859111 250.490492 
L 90.614672 245.241481 
L 88.574541 239.908238 
L 86.741815 234.498856 
L 85.119274 229.021546 
L 83.709381 223.484619 
L 82.514277 217.89648 
L 81.535774 212.265608 
L 80.775358 206.60055 
L 80.234184 200.909904 
L 79.913071 195.202305 
L 79.812508 189.486417 
L 79.932647 183.770913 
L 80.273306 178.064469 
L 80.833968 172.375744 
L 81.613781 166.713372 
L 82.611563 161.085946 
L 83.8258 155.502008 
L 85.254648 149.970031 
L 86.895938 144.498412 
L 88.747181 139.095455 
L 90.805565 133.769358 
L 93.067969 128.528206 
L 95.530957 123.379953 
L 98.190792 118.332412 
L 101.043437 113.393244 
L 104.084563 108.569944 
L 107.309555 103.869833 
L 110.713517 99.300044 
L 114.291284 94.867512 
L 118.037427 90.578964 
L 121.946259 86.44091 
L 126.011848 82.459628 
L 130.228025 78.641162 
L 134.58839 74.991306 
L 139.086326 71.5156 
L 143.715006 68.219319 
L 148.467407 65.107465 
L 153.336314 62.184761 
L 158.31434 59.455643 
L 163.393928 56.924252 
L 168.567371 54.594431 
L 173.826815 52.469715 
L 179.16428 50.553329 
L 184.571665 48.848181 
L 190.040763 47.356859 
L 195.563273 46.081627 
L 201.130816 45.02442 
L 206.73494 44.186842 
L 212.367141 43.570165 
L 218.018872 43.175324 
L 223.681554 43.002918 
L 225.235 42.994545 
L 225.235 42.994545 
" clip-path="url(#p268800ec73)" style="fill: none; stroke-dasharray: 1.5,2.475; stroke-dashoffset: 0; stroke: #ff0000; stroke-width: 1.5"/>
   </g>
  </g>
 </g>
 <defs>
  <clipPath id="p268800ec73">
   <rect x="65.27" y="28.32" width="319.93" height="322.84"/>
  </clipPath>
 </defs>
</svg>
