<?xml version="1.0" encoding="utf-8" standalone="no"?>
<!DOCTYPE svg PUBLIC "-//W3C//DTD SVG 1.1//EN"
  "http://www.w3.org/Graphics/SVG/1.1/DTD/svg11.dtd">
<svg xmlns:xlink="http://www.w3.org/1999/xlink" width="396pt" height="396pt" viewBox="0 0 396 396" xmlns="http://www.w3.org/2000/svg" version="1.1">
 <metadata>
  <rdf:RDF xmlns:dc="http://purl.org/dc/elements/1.1/" xmlns:cc="http://creativecommons.org/ns#" xmlns:rdf="http://www.w3.org/1999/02/22-rdf-syntax-ns#">
   <cc:Work>
    <dc:type rdf:resource="http://purl.org/dc/dcmitype/StillImage"/>
    <dc:date>2025-05-14T21:42:39.301484</dc:date>
    <dc:format>image/svg+xml</dc:format>
    <dc:creator>
     <cc:Agent>
      <dc:title>Matplotlib v3.10.1, https://matplotlib.org/</dc:title>
     </cc:Agent>
    </dc:creator>
   </cc:Work>
  </rdf:RDF>
 </metadata>
 <defs>
  <style type="text/css">*{stroke-linejoin: round; stroke-linecap: butt}</style>
 </defs>
 <g id="figure_1">
  <g id="patch_1">
   <path d="M 0 396 
L 396 396 
L 396 0 
L 0 0 
z
" style="fill: #ffffff"/>
  </g>
  <g id="axes_1">
   <g id="patch_2">
    <path d="M 65.27 351.16 
L 385.2 351.16 
L 385.2 28.32 
L 65.27 28.32 
z
" style="fill: #ffffff"/>
   </g>
   <g id="matplotlib.axis_1">
    <g id="xtick_1">
     <g id="line2d_1">
      <defs>
       <path id="m2ead2e80fd" d="M 0 0 
L 0 3.5 
" style="stroke: #000000; stroke-width: 0.8"/>
      </defs>
      <g>
       <use xlink:href="#m2ead2e80fd" x="109.480277" y="351.16" style="stroke: #000000; stroke-width: 0.8"/>
      </g>
     </g>
     <g id="text_1">
      <!-- −0.04 -->
      <g transform="translate(94.157621 365.758438) scale(0.1 -0.1)">
       <defs>
        <path id="DejaVuSans-2212" d="M 678 2272 
L 4684 2272 
L 4684 1741 
L 678 1741 
L 678 2272 
z
" transform="scale(0.015625)"/>
        <path id="DejaVuSans-30" d="M 2034 4250 
Q 1547 4250 1301 3770 
Q 1056 3291 1056 2328 
Q 1056 1369 1301 889 
Q 1547 409 2034 409 
Q 2525 409 2770 889 
Q 3016 1369 3016 2328 
Q 3016 3291 2770 3770 
Q 2525 4250 2034 4250 
z
M 2034 4750 
Q 2819 4750 3233 4129 
Q 3647 3509 3647 2328 
Q 3647 1150 3233 529 
Q 2819 -91 2034 -91 
Q 1250 -91 836 529 
Q 422 1150 422 2328 
Q 422 3509 836 4129 
Q 1250 4750 2034 4750 
z
" transform="scale(0.015625)"/>
        <path id="DejaVuSans-2e" d="M 684 794 
L 1344 794 
L 1344 0 
L 684 0 
L 684 794 
z
" transform="scale(0.015625)"/>
        <path id="DejaVuSans-34" d="M 2419 4116 
L 825 1625 
L 2419 1625 
L 2419 4116 
z
M 2253 4666 
L 3047 4666 
L 3047 1625 
L 3713 1625 
L 3713 1100 
L 3047 1100 
L 3047 0 
L 2419 0 
L 2419 1100 
L 313 1100 
L 313 1709 
L 2253 4666 
z
" transform="scale(0.015625)"/>
       </defs>
       <use xlink:href="#DejaVuSans-2212"/>
       <use xlink:href="#DejaVuSans-30" transform="translate(83.789062 0)"/>
       <use xlink:href="#DejaVuSans-2e" transform="translate(147.412109 0)"/>
       <use xlink:href="#DejaVuSans-30" transform="translate(179.199219 0)"/>
       <use xlink:href="#DejaVuSans-34" transform="translate(242.822266 0)"/>
      </g>
     </g>
    </g>
    <g id="xtick_2">
     <g id="line2d_2">
      <g>
       <use xlink:href="#m2ead2e80fd" x="167.358665" y="351.16" style="stroke: #000000; stroke-width: 0.8"/>
      </g>
     </g>
     <g id="text_2">
      <!-- −0.02 -->
      <g transform="translate(152.036009 365.758438) scale(0.1 -0.1)">
       <defs>
        <path id="DejaVuSans-32" d="M 1228 531 
L 3431 531 
L 3431 0 
L 469 0 
L 469 531 
Q 828 903 1448 1529 
Q 2069 2156 2228 2338 
Q 2531 2678 2651 2914 
Q 2772 3150 2772 3378 
Q 2772 3750 2511 3984 
Q 2250 4219 1831 4219 
Q 1534 4219 1204 4116 
Q 875 4013 500 3803 
L 500 4441 
Q 881 4594 1212 4672 
Q 1544 4750 1819 4750 
Q 2544 4750 2975 4387 
Q 3406 4025 3406 3419 
Q 3406 3131 3298 2873 
Q 3191 2616 2906 2266 
Q 2828 2175 2409 1742 
Q 1991 1309 1228 531 
z
" transform="scale(0.015625)"/>
       </defs>
       <use xlink:href="#DejaVuSans-2212"/>
       <use xlink:href="#DejaVuSans-30" transform="translate(83.789062 0)"/>
       <use xlink:href="#DejaVuSans-2e" transform="translate(147.412109 0)"/>
       <use xlink:href="#DejaVuSans-30" transform="translate(179.199219 0)"/>
       <use xlink:href="#DejaVuSans-32" transform="translate(242.822266 0)"/>
      </g>
     </g>
    </g>
    <g id="xtick_3">
     <g id="line2d_3">
      <g>
       <use xlink:href="#m2ead2e80fd" x="225.237054" y="351.16" style="stroke: #000000; stroke-width: 0.8"/>
      </g>
     </g>
     <g id="text_3">
      <!-- 0.00 -->
      <g transform="translate(214.104241 365.758438) scale(0.1 -0.1)">
       <use xlink:href="#DejaVuSans-30"/>
       <use xlink:href="#DejaVuSans-2e" transform="translate(63.623047 0)"/>
       <use xlink:href="#DejaVuSans-30" transform="translate(95.410156 0)"/>
       <use xlink:href="#DejaVuSans-30" transform="translate(159.033203 0)"/>
      </g>
     </g>
    </g>
    <g id="xtick_4">
     <g id="line2d_4">
      <g>
       <use xlink:href="#m2ead2e80fd" x="283.115442" y="351.16" style="stroke: #000000; stroke-width: 0.8"/>
      </g>
     </g>
     <g id="text_4">
      <!-- 0.02 -->
      <g transform="translate(271.982629 365.758438) scale(0.1 -0.1)">
       <use xlink:href="#DejaVuSans-30"/>
       <use xlink:href="#DejaVuSans-2e" transform="translate(63.623047 0)"/>
       <use xlink:href="#DejaVuSans-30" transform="translate(95.410156 0)"/>
       <use xlink:href="#DejaVuSans-32" transform="translate(159.033203 0)"/>
      </g>
     </g>
    </g>
    <g id="xtick_5">
     <g id="line2d_5">
      <g>
       <use xlink:href="#m2ead2e80fd" x="340.99383" y="351.16" style="stroke: #000000; stroke-width: 0.8"/>
      </g>
     </g>
     <g id="text_5">
      <!-- 0.04 -->
      <g transform="translate(329.861018 365.758438) scale(0.1 -0.1)">
       <use xlink:href="#DejaVuSans-30"/>
       <use xlink:href="#DejaVuSans-2e" transform="translate(63.623047 0)"/>
       <use xlink:href="#DejaVuSans-30" transform="translate(95.410156 0)"/>
       <use xlink:href="#DejaVuSans-34" transform="translate(159.033203 0)"/>
      </g>
     </g>
    </g>
    <g id="text_6">
     <!-- $q(t)$ -->
     <g transform="translate(216.185 379.438125) scale(0.1 -0.1)">
      <defs>
       <path id="DejaVuSans-Oblique-71" d="M 2669 525 
Q 2438 222 2123 65 
Q 1809 -91 1428 -91 
Q 897 -91 595 267 
Q 294 625 294 1253 
Q 294 1759 480 2231 
Q 666 2703 1013 3078 
Q 1238 3322 1530 3453 
Q 1822 3584 2144 3584 
Q 2531 3584 2781 3431 
Q 3031 3278 3144 2969 
L 3244 3494 
L 3822 3494 
L 2888 -1319 
L 2309 -1319 
L 2669 525 
z
M 891 1338 
Q 891 875 1084 633 
Q 1278 391 1644 391 
Q 2188 391 2572 911 
Q 2956 1431 2956 2175 
Q 2956 2625 2757 2864 
Q 2559 3103 2188 3103 
Q 1916 3103 1684 2976 
Q 1453 2850 1281 2606 
Q 1100 2350 995 2006 
Q 891 1663 891 1338 
z
" transform="scale(0.015625)"/>
       <path id="DejaVuSans-28" d="M 1984 4856 
Q 1566 4138 1362 3434 
Q 1159 2731 1159 2009 
Q 1159 1288 1364 580 
Q 1569 -128 1984 -844 
L 1484 -844 
Q 1016 -109 783 600 
Q 550 1309 550 2009 
Q 550 2706 781 3412 
Q 1013 4119 1484 4856 
L 1984 4856 
z
" transform="scale(0.015625)"/>
       <path id="DejaVuSans-Oblique-74" d="M 2706 3500 
L 2619 3053 
L 1472 3053 
L 1100 1153 
Q 1081 1047 1072 975 
Q 1063 903 1063 863 
Q 1063 663 1183 572 
Q 1303 481 1569 481 
L 2150 481 
L 2053 0 
L 1503 0 
Q 991 0 739 200 
Q 488 400 488 806 
Q 488 878 497 964 
Q 506 1050 525 1153 
L 897 3053 
L 409 3053 
L 500 3500 
L 978 3500 
L 1172 4494 
L 1747 4494 
L 1556 3500 
L 2706 3500 
z
" transform="scale(0.015625)"/>
       <path id="DejaVuSans-29" d="M 513 4856 
L 1013 4856 
Q 1481 4119 1714 3412 
Q 1947 2706 1947 2009 
Q 1947 1309 1714 600 
Q 1481 -109 1013 -844 
L 513 -844 
Q 928 -128 1133 580 
Q 1338 1288 1338 2009 
Q 1338 2731 1133 3434 
Q 928 4138 513 4856 
z
" transform="scale(0.015625)"/>
      </defs>
      <use xlink:href="#DejaVuSans-Oblique-71" transform="translate(0 0.125)"/>
      <use xlink:href="#DejaVuSans-28" transform="translate(63.476562 0.125)"/>
      <use xlink:href="#DejaVuSans-Oblique-74" transform="translate(102.490234 0.125)"/>
      <use xlink:href="#DejaVuSans-29" transform="translate(141.699219 0.125)"/>
     </g>
    </g>
   </g>
   <g id="matplotlib.axis_2">
    <g id="ytick_1">
     <g id="line2d_6">
      <defs>
       <path id="m37e4c332e1" d="M 0 0 
L -3.5 0 
" style="stroke: #000000; stroke-width: 0.8"/>
      </defs>
      <g>
       <use xlink:href="#m37e4c332e1" x="65.27" y="336.485462" style="stroke: #000000; stroke-width: 0.8"/>
      </g>
     </g>
     <g id="text_7">
      <!-- −1.00 -->
      <g transform="translate(27.624687 340.284681) scale(0.1 -0.1)">
       <defs>
        <path id="DejaVuSans-31" d="M 794 531 
L 1825 531 
L 1825 4091 
L 703 3866 
L 703 4441 
L 1819 4666 
L 2450 4666 
L 2450 531 
L 3481 531 
L 3481 0 
L 794 0 
L 794 531 
z
" transform="scale(0.015625)"/>
       </defs>
       <use xlink:href="#DejaVuSans-2212"/>
       <use xlink:href="#DejaVuSans-31" transform="translate(83.789062 0)"/>
       <use xlink:href="#DejaVuSans-2e" transform="translate(147.412109 0)"/>
       <use xlink:href="#DejaVuSans-30" transform="translate(179.199219 0)"/>
       <use xlink:href="#DejaVuSans-30" transform="translate(242.822266 0)"/>
      </g>
     </g>
    </g>
    <g id="ytick_2">
     <g id="line2d_7">
      <g>
       <use xlink:href="#m37e4c332e1" x="65.27" y="299.799097" style="stroke: #000000; stroke-width: 0.8"/>
      </g>
     </g>
     <g id="text_8">
      <!-- −0.75 -->
      <g transform="translate(27.624687 303.598316) scale(0.1 -0.1)">
       <defs>
        <path id="DejaVuSans-37" d="M 525 4666 
L 3525 4666 
L 3525 4397 
L 1831 0 
L 1172 0 
L 2766 4134 
L 525 4134 
L 525 4666 
z
" transform="scale(0.015625)"/>
        <path id="DejaVuSans-35" d="M 691 4666 
L 3169 4666 
L 3169 4134 
L 1269 4134 
L 1269 2991 
Q 1406 3038 1543 3061 
Q 1681 3084 1819 3084 
Q 2600 3084 3056 2656 
Q 3513 2228 3513 1497 
Q 3513 744 3044 326 
Q 2575 -91 1722 -91 
Q 1428 -91 1123 -41 
Q 819 9 494 109 
L 494 744 
Q 775 591 1075 516 
Q 1375 441 1709 441 
Q 2250 441 2565 725 
Q 2881 1009 2881 1497 
Q 2881 1984 2565 2268 
Q 2250 2553 1709 2553 
Q 1456 2553 1204 2497 
Q 953 2441 691 2322 
L 691 4666 
z
" transform="scale(0.015625)"/>
       </defs>
       <use xlink:href="#DejaVuSans-2212"/>
       <use xlink:href="#DejaVuSans-30" transform="translate(83.789062 0)"/>
       <use xlink:href="#DejaVuSans-2e" transform="translate(147.412109 0)"/>
       <use xlink:href="#DejaVuSans-37" transform="translate(179.199219 0)"/>
       <use xlink:href="#DejaVuSans-35" transform="translate(242.822266 0)"/>
      </g>
     </g>
    </g>
    <g id="ytick_3">
     <g id="line2d_8">
      <g>
       <use xlink:href="#m37e4c332e1" x="65.27" y="263.112733" style="stroke: #000000; stroke-width: 0.8"/>
      </g>
     </g>
     <g id="text_9">
      <!-- −0.50 -->
      <g transform="translate(27.624687 266.911951) scale(0.1 -0.1)">
       <use xlink:href="#DejaVuSans-2212"/>
       <use xlink:href="#DejaVuSans-30" transform="translate(83.789062 0)"/>
       <use xlink:href="#DejaVuSans-2e" transform="translate(147.412109 0)"/>
       <use xlink:href="#DejaVuSans-35" transform="translate(179.199219 0)"/>
       <use xlink:href="#DejaVuSans-30" transform="translate(242.822266 0)"/>
      </g>
     </g>
    </g>
    <g id="ytick_4">
     <g id="line2d_9">
      <g>
       <use xlink:href="#m37e4c332e1" x="65.27" y="226.426368" style="stroke: #000000; stroke-width: 0.8"/>
      </g>
     </g>
     <g id="text_10">
      <!-- −0.25 -->
      <g transform="translate(27.624687 230.225587) scale(0.1 -0.1)">
       <use xlink:href="#DejaVuSans-2212"/>
       <use xlink:href="#DejaVuSans-30" transform="translate(83.789062 0)"/>
       <use xlink:href="#DejaVuSans-2e" transform="translate(147.412109 0)"/>
       <use xlink:href="#DejaVuSans-32" transform="translate(179.199219 0)"/>
       <use xlink:href="#DejaVuSans-35" transform="translate(242.822266 0)"/>
      </g>
     </g>
    </g>
    <g id="ytick_5">
     <g id="line2d_10">
      <g>
       <use xlink:href="#m37e4c332e1" x="65.27" y="189.740004" style="stroke: #000000; stroke-width: 0.8"/>
      </g>
     </g>
     <g id="text_11">
      <!-- 0.00 -->
      <g transform="translate(36.004375 193.539222) scale(0.1 -0.1)">
       <use xlink:href="#DejaVuSans-30"/>
       <use xlink:href="#DejaVuSans-2e" transform="translate(63.623047 0)"/>
       <use xlink:href="#DejaVuSans-30" transform="translate(95.410156 0)"/>
       <use xlink:href="#DejaVuSans-30" transform="translate(159.033203 0)"/>
      </g>
     </g>
    </g>
    <g id="ytick_6">
     <g id="line2d_11">
      <g>
       <use xlink:href="#m37e4c332e1" x="65.27" y="153.053639" style="stroke: #000000; stroke-width: 0.8"/>
      </g>
     </g>
     <g id="text_12">
      <!-- 0.25 -->
      <g transform="translate(36.004375 156.852858) scale(0.1 -0.1)">
       <use xlink:href="#DejaVuSans-30"/>
       <use xlink:href="#DejaVuSans-2e" transform="translate(63.623047 0)"/>
       <use xlink:href="#DejaVuSans-32" transform="translate(95.410156 0)"/>
       <use xlink:href="#DejaVuSans-35" transform="translate(159.033203 0)"/>
      </g>
     </g>
    </g>
    <g id="ytick_7">
     <g id="line2d_12">
      <g>
       <use xlink:href="#m37e4c332e1" x="65.27" y="116.367275" style="stroke: #000000; stroke-width: 0.8"/>
      </g>
     </g>
     <g id="text_13">
      <!-- 0.50 -->
      <g transform="translate(36.004375 120.166493) scale(0.1 -0.1)">
       <use xlink:href="#DejaVuSans-30"/>
       <use xlink:href="#DejaVuSans-2e" transform="translate(63.623047 0)"/>
       <use xlink:href="#DejaVuSans-35" transform="translate(95.410156 0)"/>
       <use xlink:href="#DejaVuSans-30" transform="translate(159.033203 0)"/>
      </g>
     </g>
    </g>
    <g id="ytick_8">
     <g id="line2d_13">
      <g>
       <use xlink:href="#m37e4c332e1" x="65.27" y="79.68091" style="stroke: #000000; stroke-width: 0.8"/>
      </g>
     </g>
     <g id="text_14">
      <!-- 0.75 -->
      <g transform="translate(36.004375 83.480129) scale(0.1 -0.1)">
       <use xlink:href="#DejaVuSans-30"/>
       <use xlink:href="#DejaVuSans-2e" transform="translate(63.623047 0)"/>
       <use xlink:href="#DejaVuSans-37" transform="translate(95.410156 0)"/>
       <use xlink:href="#DejaVuSans-35" transform="translate(159.033203 0)"/>
      </g>
     </g>
    </g>
    <g id="ytick_9">
     <g id="line2d_14">
      <g>
       <use xlink:href="#m37e4c332e1" x="65.27" y="42.994545" style="stroke: #000000; stroke-width: 0.8"/>
      </g>
     </g>
     <g id="text_15">
      <!-- 1.00 -->
      <g transform="translate(36.004375 46.793764) scale(0.1 -0.1)">
       <use xlink:href="#DejaVuSans-31"/>
       <use xlink:href="#DejaVuSans-2e" transform="translate(63.623047 0)"/>
       <use xlink:href="#DejaVuSans-30" transform="translate(95.410156 0)"/>
       <use xlink:href="#DejaVuSans-30" transform="translate(159.033203 0)"/>
      </g>
     </g>
    </g>
    <g id="text_16">
     <!-- $p(t)$ -->
     <g transform="translate(21.524687 198.79) rotate(-90) scale(0.1 -0.1)">
      <defs>
       <path id="DejaVuSans-Oblique-70" d="M 3175 2156 
Q 3175 2616 2975 2859 
Q 2775 3103 2400 3103 
Q 2144 3103 1911 2972 
Q 1678 2841 1497 2591 
Q 1319 2344 1212 1994 
Q 1106 1644 1106 1300 
Q 1106 863 1306 627 
Q 1506 391 1875 391 
Q 2147 391 2380 519 
Q 2613 647 2778 891 
Q 2956 1147 3065 1494 
Q 3175 1841 3175 2156 
z
M 1394 2969 
Q 1625 3272 1939 3428 
Q 2253 3584 2638 3584 
Q 3175 3584 3472 3232 
Q 3769 2881 3769 2247 
Q 3769 1728 3584 1258 
Q 3400 788 3053 416 
Q 2822 169 2531 39 
Q 2241 -91 1919 -91 
Q 1547 -91 1294 64 
Q 1041 219 916 525 
L 556 -1331 
L -19 -1331 
L 922 3500 
L 1497 3500 
L 1394 2969 
z
" transform="scale(0.015625)"/>
      </defs>
      <use xlink:href="#DejaVuSans-Oblique-70" transform="translate(0 0.125)"/>
      <use xlink:href="#DejaVuSans-28" transform="translate(63.476562 0.125)"/>
      <use xlink:href="#DejaVuSans-Oblique-74" transform="translate(102.490234 0.125)"/>
      <use xlink:href="#DejaVuSans-29" transform="translate(141.699219 0.125)"/>
     </g>
    </g>
   </g>
   <g id="line2d_15">
    <path d="M 352.881589 119.42743 
L 364.194812 146.465277 
L 369.949725 175.234113 
L 369.916131 204.583186 
L 364.095374 233.33853 
L 352.720284 260.349934 
L 336.245865 284.536941 
L 315.331093 304.93207 
L 290.81256 320.719516 
L 263.671006 331.267782 
L 234.992095 336.154937 
L 205.922982 335.185494 
L 177.626431 328.398232 
L 151.234306 316.064641 
L 127.80229 298.678064 
L 108.267665 276.933965 
L 93.411816 251.702107 
L 83.828976 223.991765 
L 79.902459 194.911353 
L 81.789326 165.624087 
L 89.414102 137.301457 
L 102.471796 111.07637 
L 120.4401 87.997827 
L 142.600283 68.988972 
L 168.065936 54.810158 
L 195.818434 46.028538 
L 224.747677 42.995376 
L 253.696495 45.832 
L 281.506935 54.424944 
L 307.06658 68.43049 
L 329.353044 87.288416 
L 347.474868 110.244406 
L 360.70718 136.380221 
L 368.520687 164.650426 
L 370.602848 193.924214 
L 366.870377 223.030634 
L 357.472574 250.805429 
L 342.78535 276.137607 
L 323.396194 298.013881 
L 300.080672 315.559199 
L 273.771406 328.07175 
L 245.520765 335.051031 
L 216.458776 336.217871 
L 187.747918 331.525596 
L 160.536626 321.161897 
L 135.91335 305.541323 
L 114.863023 285.288696 
L 98.227657 261.214121 
L 86.672667 234.280582 
L 80.660252 205.565419 
L 80.43091 176.21724 
L 85.993813 147.409971 
L 97.126446 120.295904 
L 113.383503 95.9596 
L 134.114702 75.374513 
L 158.490795 59.364046 
L 185.536738 48.568616 
L 214.170695 43.420043 
L 243.247305 44.124267 
L 271.603505 50.653121 
L 298.105048 62.745451 
L 321.69187 79.917562 
L 341.4205 101.482571 
L 356.501792 126.577878 
L 366.332495 154.199669 
L 370.51938 183.243074 
L 368.894971 212.546356 
L 361.524247 240.937384 
L 348.702034 267.280517 
L 330.941222 290.522029 
L 308.952243 309.73226 
L 283.614657 324.142801 
L 255.941967 333.17723 
L 227.04108 336.47417 
L 198.068032 333.901743 
L 170.181745 325.562847 
L 144.49767 311.791037 
L 122.043171 293.137186 
L 103.716427 270.347447 
L 90.250508 244.333411 
L 82.184051 216.135638 
L 79.839714 186.88204 
L 83.31127 157.74276 
L 92.459858 129.883371 
L 106.919534 104.418246 
L 126.11191 82.365992 
L 149.269292 64.608698 
L 175.465385 51.856657 
L 203.652344 44.619949 
L 232.702692 43.188044 
L 261.454414 47.618217 
L 288.757442 57.733261 
L 313.519655 73.128575 
L 334.750563 93.188347 
L 351.600931 117.110184 
L 363.396743 143.937214 
L 369.666169 172.596356 
L 370.158429 201.941244 
L 364.853835 230.798082 
L 353.964569 258.012597 
L 337.926203 282.496209 
L 317.38027 303.269572 
L 293.148609 319.501752 
L 266.200486 330.543462 
L 237.613826 335.953034 
L 208.532094 335.514085 
L 180.118561 329.244173 
L 153.509768 317.394094 
L 129.770066 300.437851 
L 109.849044 279.053694 
L 94.543542 254.09699 
L 84.46578 226.566006 
L 80.01887 197.561982 
L 81.380686 168.245079 
L 88.496758 139.787973 
L 101.082441 113.328948 
L 118.634309 89.926366 
L 140.450286 70.516329 
L 165.657735 55.875239 
L 193.248356 46.588739 
L 222.118525 43.02829 
L 251.113435 45.33631 
L 279.073289 53.420477 
L 304.879695 66.957426 
L 327.500395 85.405677 
L 346.030561 108.027302 
L 359.728987 133.917435 
L 368.047735 162.04047 
L 370.654056 191.271487 
L 367.443697 220.441244 
L 358.545073 248.382952 
L 344.314127 273.978942 
L 325.320099 296.205374 
L 302.322749 314.173192 
L 276.241971 327.163682 
L 248.120996 334.657225 
L 219.084664 336.354079 
L 190.294427 332.18637 
L 162.901895 322.320806 
L 138.00277 307.15201 
L 116.593016 287.286734 
L 99.529023 263.519589 
L 87.493352 236.801261 
L 80.967429 208.200482 
L 80.21229 178.861284 
L 85.258143 149.957234 
L 95.903151 122.644496 
L 111.721516 98.015578 
L 132.080502 77.055637 
L 156.165751 60.60307 
L 183.013851 49.315981 
L 211.55088 43.645853 
L 240.635355 43.819491 
L 269.103899 49.829949 
L 295.817768 61.436809 
L 319.708409 78.175798 
L 339.820196 99.377354 
L 355.348657 124.193417 
L 365.672654 151.631343 
L 370.379227 180.593615 
L 369.280113 209.921743 
L 362.419277 238.442602 
L 350.071151 265.015356 
L 332.729662 288.577096 
L 311.088469 308.185353 
L 286.013219 323.055796 
L 258.506922 332.593607 
L 229.66983 336.417274 
L 200.655428 334.37385 
L 172.62429 326.545072 
L 146.697663 313.244091 
L 123.912612 295.002947 
L 105.180538 272.551286 
L 91.250725 246.787173 
L 82.680365 218.741173 
L 79.812273 189.535126 
L 82.761172 160.337275 
L 91.409106 132.315532 
L 105.410158 106.590769 
L 124.204286 84.191975 
L 147.039724 66.015102 
L 173.003056 52.787225 
L 201.055748 45.037459 
L 230.075691 43.075795 
L 258.90209 46.9807 
L 286.381887 56.595976 
L 311.41589 71.537014 
L 333.002741 91.206171 
L 350.278963 114.816682 
L 362.553509 141.424125 
L 369.335398 169.964204 
L 370.353352 199.295314 
L 365.566654 228.244212 
L 355.166772 255.652942 
L 339.569702 280.425154 
L 319.399326 301.56996 
L 295.462458 318.241568 
L 268.716575 329.773114 
L 240.231511 335.703335 
L 211.146668 335.795022 
L 182.625441 330.044509 
L 155.808678 318.681816 
L 131.769051 302.16145 
L 111.468143 281.144227 
L 95.717992 256.470834 
L 85.148603 229.128208 
L 80.182753 200.210054 
L 81.019074 170.873098 
L 87.624115 142.290819 
L 99.733673 115.606506 
L 116.863366 91.887534 
L 138.328007 72.08266 
L 163.26901 56.98408 
L 190.688734 47.195737 
L 219.490391 43.109165 
L 248.521915 44.887826 
L 276.622044 52.460574 
L 302.666774 65.5245 
L 325.614315 83.557045 
L 344.546765 105.836909 
L 358.706827 131.472897 
L 367.528098 159.439569 
L 370.657727 188.618259 
L 367.970529 217.841818 
L 359.573993 245.941304 
L 345.803978 271.792739 
L 327.211287 294.362064 
L 304.539626 312.746507 
L 278.695863 326.210689 
L 250.713747 334.216045 
L 221.712563 336.442358 
L 192.852359 332.800578 
L 165.287543 323.436374 
L 140.120707 308.724316 
L 118.358525 289.252885 
L 100.871484 265.800939 
L 88.359066 239.306555 
L 81.321767 210.829509 
L 80.04108 181.508884 
L 84.568232 152.517503 
L 94.722137 125.015022 
L 110.096638 100.10154 
L 130.076756 78.773597 
L 153.863286 61.88431 
L 180.504767 50.109251 
L 208.935539 43.919422 
L 238.018371 43.562416 
L 266.589951 49.052514 
L 293.507415 60.170111 
L 317.694065 76.470504 
L 338.182434 97.301677 
L 354.152988 121.830383 
L 364.966904 149.075474 
L 370.191627 177.947146 
L 369.618166 207.290533 
L 363.269461 235.931898 
L 351.39946 262.725587 
L 334.482963 286.599853 
L 313.196629 306.599725 
L 288.391912 321.925209 
L 261.061001 331.963284 
L 232.297131 336.312428 
L 203.250859 334.798674 
L 175.084035 327.482574 
L 148.923331 314.656772 
L 125.815176 296.834298 
L 106.683896 274.728053 
L 92.294743 249.222285 
L 83.223282 221.337227 
L 79.832372 192.188279 
L 82.257649 162.941401 
L 90.402102 134.766467 
L 103.939954 108.790474 
L 122.329689 86.052462 
L 144.835719 67.461952 
L 170.557802 53.762564 
L 198.467056 45.502273 
L 227.447109 43.011492 
L 256.33876 46.389852 
L 283.986343 55.502217 
L 309.283954 69.984094 
L 331.219689 89.256207 
L 348.916119 112.547672 
L 361.665386 138.92683 
L 368.95752 167.338516 
L 370.500835 196.64626 
L 366.233599 225.677755 
L 356.326501 253.271739 
L 341.175826 278.324454 
L 321.387599 299.833791 
L 297.75335 316.939377 
L 271.21845 328.956988 
L 242.844294 335.405919 
L 213.765848 336.028213 
L 185.14625 330.79898 
L 158.130285 319.927387 
L 133.79859 303.848299 
L 113.124434 283.204879 
L 96.934783 258.822864 
L 85.877222 231.677534 
L 80.394055 202.854704 
L 80.704607 173.507285 
L 86.796458 144.809175 
L 98.425932 117.908299 
L 115.127851 93.88069 
L 136.234139 73.687454 
L 160.900542 58.13632 
L 188.140407 47.849333 
L 216.864137 43.237974 
L 245.922784 44.486695 
L 274.154001 51.545549 
L 300.428541 64.132181 
L 323.695421 81.743125 
L 343.023967 103.673945 
L 357.641036 129.047408 
L 357.641036 129.047408 
" clip-path="url(#p97e0bfe1dc)" style="fill: none; stroke: #1f77b4; stroke-width: 1.5; stroke-linecap: square"/>
   </g>
   <g id="patch_3">
    <path d="M 65.27 351.16 
L 65.27 28.32 
" style="fill: none; stroke: #000000; stroke-width: 0.8; stroke-linejoin: miter; stroke-linecap: square"/>
   </g>
   <g id="patch_4">
    <path d="M 385.2 351.16 
L 385.2 28.32 
" style="fill: none; stroke: #000000; stroke-width: 0.8; stroke-linejoin: miter; stroke-linecap: square"/>
   </g>
   <g id="patch_5">
    <path d="M 65.27 351.16 
L 385.2 351.16 
" style="fill: none; stroke: #000000; stroke-width: 0.8; stroke-linejoin: miter; stroke-linecap: square"/>
   </g>
   <g id="patch_6">
    <path d="M 65.27 28.32 
L 385.2 28.32 
" style="fill: none; stroke: #000000; stroke-width: 0.8; stroke-linejoin: miter; stroke-linecap: square"/>
   </g>
   <g id="text_17">
    <!-- Velocity Verlet Stability, $\omega$=20,  $\Delta t$=0.01, $N_{10rev}$=315 -->
    <g transform="translate(65.695 22.32) scale(0.12 -0.12)">
     <defs>
      <path id="DejaVuSans-56" d="M 1831 0 
L 50 4666 
L 709 4666 
L 2188 738 
L 3669 4666 
L 4325 4666 
L 2547 0 
L 1831 0 
z
" transform="scale(0.015625)"/>
      <path id="DejaVuSans-65" d="M 3597 1894 
L 3597 1613 
L 953 1613 
Q 991 1019 1311 708 
Q 1631 397 2203 397 
Q 2534 397 2845 478 
Q 3156 559 3463 722 
L 3463 178 
Q 3153 47 2828 -22 
Q 2503 -91 2169 -91 
Q 1331 -91 842 396 
Q 353 884 353 1716 
Q 353 2575 817 3079 
Q 1281 3584 2069 3584 
Q 2775 3584 3186 3129 
Q 3597 2675 3597 1894 
z
M 3022 2063 
Q 3016 2534 2758 2815 
Q 2500 3097 2075 3097 
Q 1594 3097 1305 2825 
Q 1016 2553 972 2059 
L 3022 2063 
z
" transform="scale(0.015625)"/>
      <path id="DejaVuSans-6c" d="M 603 4863 
L 1178 4863 
L 1178 0 
L 603 0 
L 603 4863 
z
" transform="scale(0.015625)"/>
      <path id="DejaVuSans-6f" d="M 1959 3097 
Q 1497 3097 1228 2736 
Q 959 2375 959 1747 
Q 959 1119 1226 758 
Q 1494 397 1959 397 
Q 2419 397 2687 759 
Q 2956 1122 2956 1747 
Q 2956 2369 2687 2733 
Q 2419 3097 1959 3097 
z
M 1959 3584 
Q 2709 3584 3137 3096 
Q 3566 2609 3566 1747 
Q 3566 888 3137 398 
Q 2709 -91 1959 -91 
Q 1206 -91 779 398 
Q 353 888 353 1747 
Q 353 2609 779 3096 
Q 1206 3584 1959 3584 
z
" transform="scale(0.015625)"/>
      <path id="DejaVuSans-63" d="M 3122 3366 
L 3122 2828 
Q 2878 2963 2633 3030 
Q 2388 3097 2138 3097 
Q 1578 3097 1268 2742 
Q 959 2388 959 1747 
Q 959 1106 1268 751 
Q 1578 397 2138 397 
Q 2388 397 2633 464 
Q 2878 531 3122 666 
L 3122 134 
Q 2881 22 2623 -34 
Q 2366 -91 2075 -91 
Q 1284 -91 818 406 
Q 353 903 353 1747 
Q 353 2603 823 3093 
Q 1294 3584 2113 3584 
Q 2378 3584 2631 3529 
Q 2884 3475 3122 3366 
z
" transform="scale(0.015625)"/>
      <path id="DejaVuSans-69" d="M 603 3500 
L 1178 3500 
L 1178 0 
L 603 0 
L 603 3500 
z
M 603 4863 
L 1178 4863 
L 1178 4134 
L 603 4134 
L 603 4863 
z
" transform="scale(0.015625)"/>
      <path id="DejaVuSans-74" d="M 1172 4494 
L 1172 3500 
L 2356 3500 
L 2356 3053 
L 1172 3053 
L 1172 1153 
Q 1172 725 1289 603 
Q 1406 481 1766 481 
L 2356 481 
L 2356 0 
L 1766 0 
Q 1100 0 847 248 
Q 594 497 594 1153 
L 594 3053 
L 172 3053 
L 172 3500 
L 594 3500 
L 594 4494 
L 1172 4494 
z
" transform="scale(0.015625)"/>
      <path id="DejaVuSans-79" d="M 2059 -325 
Q 1816 -950 1584 -1140 
Q 1353 -1331 966 -1331 
L 506 -1331 
L 506 -850 
L 844 -850 
Q 1081 -850 1212 -737 
Q 1344 -625 1503 -206 
L 1606 56 
L 191 3500 
L 800 3500 
L 1894 763 
L 2988 3500 
L 3597 3500 
L 2059 -325 
z
" transform="scale(0.015625)"/>
      <path id="DejaVuSans-20" transform="scale(0.015625)"/>
      <path id="DejaVuSans-72" d="M 2631 2963 
Q 2534 3019 2420 3045 
Q 2306 3072 2169 3072 
Q 1681 3072 1420 2755 
Q 1159 2438 1159 1844 
L 1159 0 
L 581 0 
L 581 3500 
L 1159 3500 
L 1159 2956 
Q 1341 3275 1631 3429 
Q 1922 3584 2338 3584 
Q 2397 3584 2469 3576 
Q 2541 3569 2628 3553 
L 2631 2963 
z
" transform="scale(0.015625)"/>
      <path id="DejaVuSans-53" d="M 3425 4513 
L 3425 3897 
Q 3066 4069 2747 4153 
Q 2428 4238 2131 4238 
Q 1616 4238 1336 4038 
Q 1056 3838 1056 3469 
Q 1056 3159 1242 3001 
Q 1428 2844 1947 2747 
L 2328 2669 
Q 3034 2534 3370 2195 
Q 3706 1856 3706 1288 
Q 3706 609 3251 259 
Q 2797 -91 1919 -91 
Q 1588 -91 1214 -16 
Q 841 59 441 206 
L 441 856 
Q 825 641 1194 531 
Q 1563 422 1919 422 
Q 2459 422 2753 634 
Q 3047 847 3047 1241 
Q 3047 1584 2836 1778 
Q 2625 1972 2144 2069 
L 1759 2144 
Q 1053 2284 737 2584 
Q 422 2884 422 3419 
Q 422 4038 858 4394 
Q 1294 4750 2059 4750 
Q 2388 4750 2728 4690 
Q 3069 4631 3425 4513 
z
" transform="scale(0.015625)"/>
      <path id="DejaVuSans-61" d="M 2194 1759 
Q 1497 1759 1228 1600 
Q 959 1441 959 1056 
Q 959 750 1161 570 
Q 1363 391 1709 391 
Q 2188 391 2477 730 
Q 2766 1069 2766 1631 
L 2766 1759 
L 2194 1759 
z
M 3341 1997 
L 3341 0 
L 2766 0 
L 2766 531 
Q 2569 213 2275 61 
Q 1981 -91 1556 -91 
Q 1019 -91 701 211 
Q 384 513 384 1019 
Q 384 1609 779 1909 
Q 1175 2209 1959 2209 
L 2766 2209 
L 2766 2266 
Q 2766 2663 2505 2880 
Q 2244 3097 1772 3097 
Q 1472 3097 1187 3025 
Q 903 2953 641 2809 
L 641 3341 
Q 956 3463 1253 3523 
Q 1550 3584 1831 3584 
Q 2591 3584 2966 3190 
Q 3341 2797 3341 1997 
z
" transform="scale(0.015625)"/>
      <path id="DejaVuSans-62" d="M 3116 1747 
Q 3116 2381 2855 2742 
Q 2594 3103 2138 3103 
Q 1681 3103 1420 2742 
Q 1159 2381 1159 1747 
Q 1159 1113 1420 752 
Q 1681 391 2138 391 
Q 2594 391 2855 752 
Q 3116 1113 3116 1747 
z
M 1159 2969 
Q 1341 3281 1617 3432 
Q 1894 3584 2278 3584 
Q 2916 3584 3314 3078 
Q 3713 2572 3713 1747 
Q 3713 922 3314 415 
Q 2916 -91 2278 -91 
Q 1894 -91 1617 61 
Q 1341 213 1159 525 
L 1159 0 
L 581 0 
L 581 4863 
L 1159 4863 
L 1159 2969 
z
" transform="scale(0.015625)"/>
      <path id="DejaVuSans-2c" d="M 750 794 
L 1409 794 
L 1409 256 
L 897 -744 
L 494 -744 
L 750 256 
L 750 794 
z
" transform="scale(0.015625)"/>
      <path id="DejaVuSans-Oblique-3c9" d="M 1369 -91 
Q 72 -91 434 1766 
Q 575 2500 1256 3500 
L 1875 3500 
Q 1231 2500 1088 1750 
Q 819 397 1519 397 
Q 2166 397 2478 2078 
L 3009 2078 
Q 2669 388 3316 397 
Q 4013 403 4275 1750 
Q 4419 2500 4169 3500 
L 4788 3500 
Q 5075 2500 4934 1766 
Q 4578 -94 3278 -91 
Q 2428 -88 2503 844 
Q 2194 -91 1369 -91 
z
" transform="scale(0.015625)"/>
      <path id="DejaVuSans-3d" d="M 678 2906 
L 4684 2906 
L 4684 2381 
L 678 2381 
L 678 2906 
z
M 678 1631 
L 4684 1631 
L 4684 1100 
L 678 1100 
L 678 1631 
z
" transform="scale(0.015625)"/>
      <path id="DejaVuSans-394" d="M 2188 4044 
L 906 525 
L 3472 525 
L 2188 4044 
z
M 50 0 
L 1831 4666 
L 2547 4666 
L 4325 0 
L 50 0 
z
" transform="scale(0.015625)"/>
      <path id="DejaVuSans-Oblique-4e" d="M 1081 4666 
L 1931 4666 
L 3219 666 
L 4000 4666 
L 4616 4666 
L 3706 0 
L 2853 0 
L 1569 4025 
L 788 0 
L 172 0 
L 1081 4666 
z
" transform="scale(0.015625)"/>
      <path id="DejaVuSans-Oblique-72" d="M 2853 2969 
Q 2766 3016 2653 3041 
Q 2541 3066 2413 3066 
Q 1953 3066 1609 2717 
Q 1266 2369 1153 1784 
L 800 0 
L 225 0 
L 909 3500 
L 1484 3500 
L 1375 2956 
Q 1603 3259 1920 3421 
Q 2238 3584 2597 3584 
Q 2691 3584 2781 3573 
Q 2872 3563 2963 3538 
L 2853 2969 
z
" transform="scale(0.015625)"/>
      <path id="DejaVuSans-Oblique-65" d="M 3078 2063 
Q 3088 2113 3092 2166 
Q 3097 2219 3097 2272 
Q 3097 2653 2873 2875 
Q 2650 3097 2266 3097 
Q 1838 3097 1509 2826 
Q 1181 2556 1013 2059 
L 3078 2063 
z
M 3578 1613 
L 903 1613 
Q 884 1494 878 1425 
Q 872 1356 872 1306 
Q 872 872 1139 634 
Q 1406 397 1894 397 
Q 2269 397 2603 481 
Q 2938 566 3225 728 
L 3116 159 
Q 2806 34 2476 -28 
Q 2147 -91 1806 -91 
Q 1078 -91 686 257 
Q 294 606 294 1247 
Q 294 1794 489 2264 
Q 684 2734 1063 3103 
Q 1306 3334 1642 3459 
Q 1978 3584 2356 3584 
Q 2950 3584 3301 3228 
Q 3653 2872 3653 2272 
Q 3653 2128 3634 1964 
Q 3616 1800 3578 1613 
z
" transform="scale(0.015625)"/>
      <path id="DejaVuSans-Oblique-76" d="M 459 3500 
L 1069 3500 
L 1581 525 
L 3256 3500 
L 3866 3500 
L 1875 0 
L 1100 0 
L 459 3500 
z
" transform="scale(0.015625)"/>
      <path id="DejaVuSans-33" d="M 2597 2516 
Q 3050 2419 3304 2112 
Q 3559 1806 3559 1356 
Q 3559 666 3084 287 
Q 2609 -91 1734 -91 
Q 1441 -91 1130 -33 
Q 819 25 488 141 
L 488 750 
Q 750 597 1062 519 
Q 1375 441 1716 441 
Q 2309 441 2620 675 
Q 2931 909 2931 1356 
Q 2931 1769 2642 2001 
Q 2353 2234 1838 2234 
L 1294 2234 
L 1294 2753 
L 1863 2753 
Q 2328 2753 2575 2939 
Q 2822 3125 2822 3475 
Q 2822 3834 2567 4026 
Q 2313 4219 1838 4219 
Q 1578 4219 1281 4162 
Q 984 4106 628 3988 
L 628 4550 
Q 988 4650 1302 4700 
Q 1616 4750 1894 4750 
Q 2613 4750 3031 4423 
Q 3450 4097 3450 3541 
Q 3450 3153 3228 2886 
Q 3006 2619 2597 2516 
z
" transform="scale(0.015625)"/>
     </defs>
     <use xlink:href="#DejaVuSans-56" transform="translate(0 0.015625)"/>
     <use xlink:href="#DejaVuSans-65" transform="translate(68.408203 0.015625)"/>
     <use xlink:href="#DejaVuSans-6c" transform="translate(129.931641 0.015625)"/>
     <use xlink:href="#DejaVuSans-6f" transform="translate(157.714844 0.015625)"/>
     <use xlink:href="#DejaVuSans-63" transform="translate(218.896484 0.015625)"/>
     <use xlink:href="#DejaVuSans-69" transform="translate(273.876953 0.015625)"/>
     <use xlink:href="#DejaVuSans-74" transform="translate(301.660156 0.015625)"/>
     <use xlink:href="#DejaVuSans-79" transform="translate(340.869141 0.015625)"/>
     <use xlink:href="#DejaVuSans-20" transform="translate(400.048828 0.015625)"/>
     <use xlink:href="#DejaVuSans-56" transform="translate(431.835938 0.015625)"/>
     <use xlink:href="#DejaVuSans-65" transform="translate(500.244141 0.015625)"/>
     <use xlink:href="#DejaVuSans-72" transform="translate(561.767578 0.015625)"/>
     <use xlink:href="#DejaVuSans-6c" transform="translate(602.880859 0.015625)"/>
     <use xlink:href="#DejaVuSans-65" transform="translate(630.664062 0.015625)"/>
     <use xlink:href="#DejaVuSans-74" transform="translate(692.1875 0.015625)"/>
     <use xlink:href="#DejaVuSans-20" transform="translate(731.396484 0.015625)"/>
     <use xlink:href="#DejaVuSans-53" transform="translate(763.183594 0.015625)"/>
     <use xlink:href="#DejaVuSans-74" transform="translate(826.660156 0.015625)"/>
     <use xlink:href="#DejaVuSans-61" transform="translate(865.869141 0.015625)"/>
     <use xlink:href="#DejaVuSans-62" transform="translate(927.148438 0.015625)"/>
     <use xlink:href="#DejaVuSans-69" transform="translate(990.625 0.015625)"/>
     <use xlink:href="#DejaVuSans-6c" transform="translate(1018.408203 0.015625)"/>
     <use xlink:href="#DejaVuSans-69" transform="translate(1046.191406 0.015625)"/>
     <use xlink:href="#DejaVuSans-74" transform="translate(1073.974609 0.015625)"/>
     <use xlink:href="#DejaVuSans-79" transform="translate(1113.183594 0.015625)"/>
     <use xlink:href="#DejaVuSans-2c" transform="translate(1172.363281 0.015625)"/>
     <use xlink:href="#DejaVuSans-20" transform="translate(1204.150391 0.015625)"/>
     <use xlink:href="#DejaVuSans-Oblique-3c9" transform="translate(1235.9375 0.015625)"/>
     <use xlink:href="#DejaVuSans-3d" transform="translate(1319.677734 0.015625)"/>
     <use xlink:href="#DejaVuSans-32" transform="translate(1403.466797 0.015625)"/>
     <use xlink:href="#DejaVuSans-30" transform="translate(1467.089844 0.015625)"/>
     <use xlink:href="#DejaVuSans-2c" transform="translate(1530.712891 0.015625)"/>
     <use xlink:href="#DejaVuSans-20" transform="translate(1562.5 0.015625)"/>
     <use xlink:href="#DejaVuSans-20" transform="translate(1594.287109 0.015625)"/>
     <use xlink:href="#DejaVuSans-394" transform="translate(1626.074219 0.015625)"/>
     <use xlink:href="#DejaVuSans-Oblique-74" transform="translate(1694.482422 0.015625)"/>
     <use xlink:href="#DejaVuSans-3d" transform="translate(1733.691406 0.015625)"/>
     <use xlink:href="#DejaVuSans-30" transform="translate(1817.480469 0.015625)"/>
     <use xlink:href="#DejaVuSans-2e" transform="translate(1881.103516 0.015625)"/>
     <use xlink:href="#DejaVuSans-30" transform="translate(1912.890625 0.015625)"/>
     <use xlink:href="#DejaVuSans-31" transform="translate(1976.513672 0.015625)"/>
     <use xlink:href="#DejaVuSans-2c" transform="translate(2040.136719 0.015625)"/>
     <use xlink:href="#DejaVuSans-20" transform="translate(2071.923828 0.015625)"/>
     <use xlink:href="#DejaVuSans-Oblique-4e" transform="translate(2103.710938 0.015625)"/>
     <use xlink:href="#DejaVuSans-31" transform="translate(2178.515625 -16.390625) scale(0.7)"/>
     <use xlink:href="#DejaVuSans-30" transform="translate(2223.051758 -16.390625) scale(0.7)"/>
     <use xlink:href="#DejaVuSans-Oblique-72" transform="translate(2267.587891 -16.390625) scale(0.7)"/>
     <use xlink:href="#DejaVuSans-Oblique-65" transform="translate(2296.367188 -16.390625) scale(0.7)"/>
     <use xlink:href="#DejaVuSans-Oblique-76" transform="translate(2339.433594 -16.390625) scale(0.7)"/>
     <use xlink:href="#DejaVuSans-3d" transform="translate(2383.59375 0.015625)"/>
     <use xlink:href="#DejaVuSans-33" transform="translate(2467.382812 0.015625)"/>
     <use xlink:href="#DejaVuSans-31" transform="translate(2531.005859 0.015625)"/>
     <use xlink:href="#DejaVuSans-35" transform="translate(2594.628906 0.015625)"/>
    </g>
   </g>
   <g id="legend_1">
    <g id="patch_7">
     <path d="M 173.385 205.918125 
L 277.085 205.918125 
Q 279.085 205.918125 279.085 203.918125 
L 279.085 175.561875 
Q 279.085 173.561875 277.085 173.561875 
L 173.385 173.561875 
Q 171.385 173.561875 171.385 175.561875 
L 171.385 203.918125 
Q 171.385 205.918125 173.385 205.918125 
z
" style="fill: #ffffff; opacity: 0.8; stroke: #cccccc; stroke-linejoin: miter"/>
    </g>
    <g id="line2d_16">
     <path d="M 175.385 181.660312 
L 185.385 181.660312 
L 195.385 181.660312 
" style="fill: none; stroke-dasharray: 1.5,2.475; stroke-dashoffset: 0; stroke: #ff0000; stroke-width: 1.5"/>
    </g>
    <g id="text_18">
     <!-- Exact Solution -->
     <g transform="translate(203.385 185.160312) scale(0.1 -0.1)">
      <defs>
       <path id="DejaVuSans-45" d="M 628 4666 
L 3578 4666 
L 3578 4134 
L 1259 4134 
L 1259 2753 
L 3481 2753 
L 3481 2222 
L 1259 2222 
L 1259 531 
L 3634 531 
L 3634 0 
L 628 0 
L 628 4666 
z
" transform="scale(0.015625)"/>
       <path id="DejaVuSans-78" d="M 3513 3500 
L 2247 1797 
L 3578 0 
L 2900 0 
L 1881 1375 
L 863 0 
L 184 0 
L 1544 1831 
L 300 3500 
L 978 3500 
L 1906 2253 
L 2834 3500 
L 3513 3500 
z
" transform="scale(0.015625)"/>
       <path id="DejaVuSans-75" d="M 544 1381 
L 544 3500 
L 1119 3500 
L 1119 1403 
Q 1119 906 1312 657 
Q 1506 409 1894 409 
Q 2359 409 2629 706 
Q 2900 1003 2900 1516 
L 2900 3500 
L 3475 3500 
L 3475 0 
L 2900 0 
L 2900 538 
Q 2691 219 2414 64 
Q 2138 -91 1772 -91 
Q 1169 -91 856 284 
Q 544 659 544 1381 
z
M 1991 3584 
L 1991 3584 
z
" transform="scale(0.015625)"/>
       <path id="DejaVuSans-6e" d="M 3513 2113 
L 3513 0 
L 2938 0 
L 2938 2094 
Q 2938 2591 2744 2837 
Q 2550 3084 2163 3084 
Q 1697 3084 1428 2787 
Q 1159 2491 1159 1978 
L 1159 0 
L 581 0 
L 581 3500 
L 1159 3500 
L 1159 2956 
Q 1366 3272 1645 3428 
Q 1925 3584 2291 3584 
Q 2894 3584 3203 3211 
Q 3513 2838 3513 2113 
z
" transform="scale(0.015625)"/>
      </defs>
      <use xlink:href="#DejaVuSans-45"/>
      <use xlink:href="#DejaVuSans-78" transform="translate(63.183594 0)"/>
      <use xlink:href="#DejaVuSans-61" transform="translate(122.363281 0)"/>
      <use xlink:href="#DejaVuSans-63" transform="translate(183.642578 0)"/>
      <use xlink:href="#DejaVuSans-74" transform="translate(238.623047 0)"/>
      <use xlink:href="#DejaVuSans-20" transform="translate(277.832031 0)"/>
      <use xlink:href="#DejaVuSans-53" transform="translate(309.619141 0)"/>
      <use xlink:href="#DejaVuSans-6f" transform="translate(373.095703 0)"/>
      <use xlink:href="#DejaVuSans-6c" transform="translate(434.277344 0)"/>
      <use xlink:href="#DejaVuSans-75" transform="translate(462.060547 0)"/>
      <use xlink:href="#DejaVuSans-74" transform="translate(525.439453 0)"/>
      <use xlink:href="#DejaVuSans-69" transform="translate(564.648438 0)"/>
      <use xlink:href="#DejaVuSans-6f" transform="translate(592.431641 0)"/>
      <use xlink:href="#DejaVuSans-6e" transform="translate(653.613281 0)"/>
     </g>
    </g>
    <g id="line2d_17">
     <path d="M 175.385 196.338437 
L 185.385 196.338437 
L 195.385 196.338437 
" style="fill: none; stroke: #1f77b4; stroke-width: 1.5; stroke-linecap: square"/>
    </g>
    <g id="text_19">
     <!-- Velocity Verlet -->
     <g transform="translate(203.385 199.838437) scale(0.1 -0.1)">
      <use xlink:href="#DejaVuSans-56"/>
      <use xlink:href="#DejaVuSans-65" transform="translate(60.658203 0)"/>
      <use xlink:href="#DejaVuSans-6c" transform="translate(122.181641 0)"/>
      <use xlink:href="#DejaVuSans-6f" transform="translate(149.964844 0)"/>
      <use xlink:href="#DejaVuSans-63" transform="translate(211.146484 0)"/>
      <use xlink:href="#DejaVuSans-69" transform="translate(266.126953 0)"/>
      <use xlink:href="#DejaVuSans-74" transform="translate(293.910156 0)"/>
      <use xlink:href="#DejaVuSans-79" transform="translate(333.119141 0)"/>
      <use xlink:href="#DejaVuSans-20" transform="translate(392.298828 0)"/>
      <use xlink:href="#DejaVuSans-56" transform="translate(424.085938 0)"/>
      <use xlink:href="#DejaVuSans-65" transform="translate(484.744141 0)"/>
      <use xlink:href="#DejaVuSans-72" transform="translate(546.267578 0)"/>
      <use xlink:href="#DejaVuSans-6c" transform="translate(587.380859 0)"/>
      <use xlink:href="#DejaVuSans-65" transform="translate(615.164062 0)"/>
      <use xlink:href="#DejaVuSans-74" transform="translate(676.6875 0)"/>
     </g>
    </g>
   </g>
   <g id="line2d_18">
    <path d="M 225.237054 42.994545 
L 230.872931 43.1059 
L 236.500256 43.439796 
L 242.110486 43.995727 
L 247.695108 44.772848 
L 253.245647 45.769979 
L 258.753678 46.985609 
L 264.210842 48.417892 
L 269.608858 50.064654 
L 274.939531 51.923396 
L 280.194773 53.991296 
L 285.366608 56.265218 
L 290.447187 58.741709 
L 295.428799 61.417011 
L 300.303883 64.287064 
L 305.065041 67.347513 
L 309.705048 70.593711 
L 314.21686 74.020734 
L 318.593631 77.623379 
L 322.828719 81.39618 
L 326.915695 85.333409 
L 330.848358 89.429093 
L 334.620738 93.677015 
L 338.227111 98.070727 
L 341.662003 102.603563 
L 344.920201 107.268643 
L 347.996761 112.058886 
L 350.887013 116.967022 
L 353.586571 121.985604 
L 356.091338 127.107014 
L 358.397512 132.323479 
L 360.501594 137.627084 
L 362.40039 143.009778 
L 364.091018 148.463393 
L 365.570913 153.979652 
L 366.837828 159.550182 
L 367.889842 165.166531 
L 368.725356 170.820174 
L 369.343104 176.502531 
L 369.742148 182.204979 
L 369.921882 187.918861 
L 369.882033 193.635508 
L 369.622662 199.346242 
L 369.144162 205.042398 
L 368.44726 210.715329 
L 367.533013 216.356427 
L 366.40281 221.957131 
L 365.058364 227.508939 
L 363.501717 233.003428 
L 361.735231 238.432257 
L 359.761586 243.787187 
L 357.583779 249.060092 
L 355.205115 254.24297 
L 352.629202 259.327953 
L 349.859952 264.307326 
L 346.901566 269.173531 
L 343.758535 273.919182 
L 340.435628 278.537078 
L 336.937888 283.02021 
L 333.270625 287.361774 
L 329.439403 291.555182 
L 325.450037 295.594068 
L 321.308581 299.472304 
L 317.021322 303.184003 
L 312.594765 306.723532 
L 308.035628 310.08552 
L 303.350831 313.264864 
L 298.547484 316.25674 
L 293.632877 319.056605 
L 288.614468 321.660212 
L 283.499873 324.063608 
L 278.296855 326.263147 
L 273.01331 328.255489 
L 267.657257 330.037612 
L 262.236825 331.606811 
L 256.760239 332.960704 
L 251.235812 334.097236 
L 245.671927 335.014682 
L 240.077029 335.711651 
L 234.459609 336.187084 
L 228.828193 336.44026 
L 223.191326 336.470795 
L 217.557564 336.278642 
L 211.935457 335.864092 
L 206.333537 335.227776 
L 200.760306 334.370659 
L 195.224223 333.294041 
L 189.733689 331.999556 
L 184.297038 330.48917 
L 178.922519 328.765174 
L 173.61829 326.830185 
L 168.392401 324.687139 
L 163.252783 322.339289 
L 158.207236 319.790199 
L 153.263418 317.043736 
L 148.428831 314.104069 
L 143.710813 310.975659 
L 139.116525 307.663255 
L 134.652938 304.171883 
L 130.326828 300.506842 
L 126.144759 296.673694 
L 122.113078 292.678257 
L 118.237905 288.526595 
L 114.525121 284.225008 
L 110.98036 279.780025 
L 107.609002 275.198392 
L 104.416163 270.487061 
L 101.40669 265.653184 
L 98.585149 260.704097 
L 95.955824 255.647309 
L 93.522703 250.490497 
L 91.28948 245.241486 
L 89.259545 239.908243 
L 87.435977 234.498861 
L 85.821545 229.02155 
L 84.418698 223.484624 
L 83.229566 217.896484 
L 82.255953 212.265612 
L 81.499338 206.600554 
L 80.960867 200.909908 
L 80.641359 195.202309 
L 80.541299 189.48642 
L 80.660837 183.770917 
L 80.999794 178.064472 
L 81.557654 172.375747 
L 82.33357 166.713375 
L 83.326366 161.085949 
L 84.534535 155.502011 
L 85.956242 149.970034 
L 87.58933 144.498415 
L 89.431321 139.095457 
L 91.479419 133.76936 
L 93.730516 128.528208 
L 96.181196 123.379955 
L 98.827739 118.332414 
L 101.666128 113.393246 
L 104.692056 108.569946 
L 107.900931 103.869834 
L 111.287883 99.300045 
L 114.84777 94.867513 
L 118.575192 90.578965 
L 122.46449 86.440911 
L 126.509762 82.459629 
L 130.704868 78.641163 
L 135.043443 74.991307 
L 139.518901 71.515601 
L 144.12445 68.219319 
L 148.8531 65.107465 
L 153.697676 62.184761 
L 158.650824 59.455643 
L 163.705028 56.924252 
L 168.852616 54.594431 
L 174.085777 52.469715 
L 179.396569 50.553329 
L 184.77693 48.848181 
L 190.218697 47.35686 
L 195.713609 46.081627 
L 201.253328 45.02442 
L 206.829446 44.186842 
L 212.433501 43.570165 
L 218.056988 43.175324 
L 223.691371 43.002918 
L 225.237054 42.994545 
L 225.237054 42.994545 
" clip-path="url(#p97e0bfe1dc)" style="fill: none; stroke-dasharray: 1.5,2.475; stroke-dashoffset: 0; stroke: #ff0000; stroke-width: 1.5"/>
   </g>
  </g>
 </g>
 <defs>
  <clipPath id="p97e0bfe1dc">
   <rect x="65.27" y="28.32" width="319.93" height="322.84"/>
  </clipPath>
 </defs>
</svg>
