<?xml version="1.0" encoding="utf-8" standalone="no"?>
<!DOCTYPE svg PUBLIC "-//W3C//DTD SVG 1.1//EN"
  "http://www.w3.org/Graphics/SVG/1.1/DTD/svg11.dtd">
<svg xmlns:xlink="http://www.w3.org/1999/xlink" width="460.8pt" height="345.6pt" viewBox="0 0 460.8 345.6" xmlns="http://www.w3.org/2000/svg" version="1.1">
 <metadata>
  <rdf:RDF xmlns:dc="http://purl.org/dc/elements/1.1/" xmlns:cc="http://creativecommons.org/ns#" xmlns:rdf="http://www.w3.org/1999/02/22-rdf-syntax-ns#">
   <cc:Work>
    <dc:type rdf:resource="http://purl.org/dc/dcmitype/StillImage"/>
    <dc:date>2025-05-13T22:12:02.536820</dc:date>
    <dc:format>image/svg+xml</dc:format>
    <dc:creator>
     <cc:Agent>
      <dc:title>Matplotlib v3.10.1, https://matplotlib.org/</dc:title>
     </cc:Agent>
    </dc:creator>
   </cc:Work>
  </rdf:RDF>
 </metadata>
 <defs>
  <style type="text/css">*{stroke-linejoin: round; stroke-linecap: butt}</style>
 </defs>
 <g id="figure_1">
  <g id="patch_1">
   <path d="M 0 345.6 
L 460.8 345.6 
L 460.8 0 
L 0 0 
z
" style="fill: #ffffff"/>
  </g>
  <g id="axes_1">
   <g id="patch_2">
    <path d="M 56.09 303.64 
L 450 303.64 
L 450 28.32 
L 56.09 28.32 
z
" style="fill: #ffffff"/>
   </g>
   <g id="matplotlib.axis_1">
    <g id="xtick_1">
     <g id="line2d_1">
      <defs>
       <path id="m23da2c6a7a" d="M 0 0 
L 0 3.5 
" style="stroke: #000000; stroke-width: 0.8"/>
      </defs>
      <g>
       <use xlink:href="#m23da2c6a7a" x="73.995" y="303.64" style="stroke: #000000; stroke-width: 0.8"/>
      </g>
     </g>
     <g id="text_1">
      <!-- 0 -->
      <g transform="translate(70.81375 318.238437) scale(0.1 -0.1)">
       <defs>
        <path id="DejaVuSans-30" d="M 2034 4250 
Q 1547 4250 1301 3770 
Q 1056 3291 1056 2328 
Q 1056 1369 1301 889 
Q 1547 409 2034 409 
Q 2525 409 2770 889 
Q 3016 1369 3016 2328 
Q 3016 3291 2770 3770 
Q 2525 4250 2034 4250 
z
M 2034 4750 
Q 2819 4750 3233 4129 
Q 3647 3509 3647 2328 
Q 3647 1150 3233 529 
Q 2819 -91 2034 -91 
Q 1250 -91 836 529 
Q 422 1150 422 2328 
Q 422 3509 836 4129 
Q 1250 4750 2034 4750 
z
" transform="scale(0.015625)"/>
       </defs>
       <use xlink:href="#DejaVuSans-30"/>
      </g>
     </g>
    </g>
    <g id="xtick_2">
     <g id="line2d_2">
      <g>
       <use xlink:href="#m23da2c6a7a" x="145.622163" y="303.64" style="stroke: #000000; stroke-width: 0.8"/>
      </g>
     </g>
     <g id="text_2">
      <!-- 2 -->
      <g transform="translate(142.440913 318.238437) scale(0.1 -0.1)">
       <defs>
        <path id="DejaVuSans-32" d="M 1228 531 
L 3431 531 
L 3431 0 
L 469 0 
L 469 531 
Q 828 903 1448 1529 
Q 2069 2156 2228 2338 
Q 2531 2678 2651 2914 
Q 2772 3150 2772 3378 
Q 2772 3750 2511 3984 
Q 2250 4219 1831 4219 
Q 1534 4219 1204 4116 
Q 875 4013 500 3803 
L 500 4441 
Q 881 4594 1212 4672 
Q 1544 4750 1819 4750 
Q 2544 4750 2975 4387 
Q 3406 4025 3406 3419 
Q 3406 3131 3298 2873 
Q 3191 2616 2906 2266 
Q 2828 2175 2409 1742 
Q 1991 1309 1228 531 
z
" transform="scale(0.015625)"/>
       </defs>
       <use xlink:href="#DejaVuSans-32"/>
      </g>
     </g>
    </g>
    <g id="xtick_3">
     <g id="line2d_3">
      <g>
       <use xlink:href="#m23da2c6a7a" x="217.249325" y="303.64" style="stroke: #000000; stroke-width: 0.8"/>
      </g>
     </g>
     <g id="text_3">
      <!-- 4 -->
      <g transform="translate(214.068075 318.238437) scale(0.1 -0.1)">
       <defs>
        <path id="DejaVuSans-34" d="M 2419 4116 
L 825 1625 
L 2419 1625 
L 2419 4116 
z
M 2253 4666 
L 3047 4666 
L 3047 1625 
L 3713 1625 
L 3713 1100 
L 3047 1100 
L 3047 0 
L 2419 0 
L 2419 1100 
L 313 1100 
L 313 1709 
L 2253 4666 
z
" transform="scale(0.015625)"/>
       </defs>
       <use xlink:href="#DejaVuSans-34"/>
      </g>
     </g>
    </g>
    <g id="xtick_4">
     <g id="line2d_4">
      <g>
       <use xlink:href="#m23da2c6a7a" x="288.876488" y="303.64" style="stroke: #000000; stroke-width: 0.8"/>
      </g>
     </g>
     <g id="text_4">
      <!-- 6 -->
      <g transform="translate(285.695238 318.238437) scale(0.1 -0.1)">
       <defs>
        <path id="DejaVuSans-36" d="M 2113 2584 
Q 1688 2584 1439 2293 
Q 1191 2003 1191 1497 
Q 1191 994 1439 701 
Q 1688 409 2113 409 
Q 2538 409 2786 701 
Q 3034 994 3034 1497 
Q 3034 2003 2786 2293 
Q 2538 2584 2113 2584 
z
M 3366 4563 
L 3366 3988 
Q 3128 4100 2886 4159 
Q 2644 4219 2406 4219 
Q 1781 4219 1451 3797 
Q 1122 3375 1075 2522 
Q 1259 2794 1537 2939 
Q 1816 3084 2150 3084 
Q 2853 3084 3261 2657 
Q 3669 2231 3669 1497 
Q 3669 778 3244 343 
Q 2819 -91 2113 -91 
Q 1303 -91 875 529 
Q 447 1150 447 2328 
Q 447 3434 972 4092 
Q 1497 4750 2381 4750 
Q 2619 4750 2861 4703 
Q 3103 4656 3366 4563 
z
" transform="scale(0.015625)"/>
       </defs>
       <use xlink:href="#DejaVuSans-36"/>
      </g>
     </g>
    </g>
    <g id="xtick_5">
     <g id="line2d_5">
      <g>
       <use xlink:href="#m23da2c6a7a" x="360.503651" y="303.64" style="stroke: #000000; stroke-width: 0.8"/>
      </g>
     </g>
     <g id="text_5">
      <!-- 8 -->
      <g transform="translate(357.322401 318.238437) scale(0.1 -0.1)">
       <defs>
        <path id="DejaVuSans-38" d="M 2034 2216 
Q 1584 2216 1326 1975 
Q 1069 1734 1069 1313 
Q 1069 891 1326 650 
Q 1584 409 2034 409 
Q 2484 409 2743 651 
Q 3003 894 3003 1313 
Q 3003 1734 2745 1975 
Q 2488 2216 2034 2216 
z
M 1403 2484 
Q 997 2584 770 2862 
Q 544 3141 544 3541 
Q 544 4100 942 4425 
Q 1341 4750 2034 4750 
Q 2731 4750 3128 4425 
Q 3525 4100 3525 3541 
Q 3525 3141 3298 2862 
Q 3072 2584 2669 2484 
Q 3125 2378 3379 2068 
Q 3634 1759 3634 1313 
Q 3634 634 3220 271 
Q 2806 -91 2034 -91 
Q 1263 -91 848 271 
Q 434 634 434 1313 
Q 434 1759 690 2068 
Q 947 2378 1403 2484 
z
M 1172 3481 
Q 1172 3119 1398 2916 
Q 1625 2713 2034 2713 
Q 2441 2713 2670 2916 
Q 2900 3119 2900 3481 
Q 2900 3844 2670 4047 
Q 2441 4250 2034 4250 
Q 1625 4250 1398 4047 
Q 1172 3844 1172 3481 
z
" transform="scale(0.015625)"/>
       </defs>
       <use xlink:href="#DejaVuSans-38"/>
      </g>
     </g>
    </g>
    <g id="xtick_6">
     <g id="line2d_6">
      <g>
       <use xlink:href="#m23da2c6a7a" x="432.130814" y="303.64" style="stroke: #000000; stroke-width: 0.8"/>
      </g>
     </g>
     <g id="text_6">
      <!-- 10 -->
      <g transform="translate(425.768314 318.238437) scale(0.1 -0.1)">
       <defs>
        <path id="DejaVuSans-31" d="M 794 531 
L 1825 531 
L 1825 4091 
L 703 3866 
L 703 4441 
L 1819 4666 
L 2450 4666 
L 2450 531 
L 3481 531 
L 3481 0 
L 794 0 
L 794 531 
z
" transform="scale(0.015625)"/>
       </defs>
       <use xlink:href="#DejaVuSans-31"/>
       <use xlink:href="#DejaVuSans-30" transform="translate(63.623047 0)"/>
      </g>
     </g>
    </g>
    <g id="text_7">
     <!-- time -->
     <g transform="translate(241.748906 331.916562) scale(0.1 -0.1)">
      <defs>
       <path id="DejaVuSans-74" d="M 1172 4494 
L 1172 3500 
L 2356 3500 
L 2356 3053 
L 1172 3053 
L 1172 1153 
Q 1172 725 1289 603 
Q 1406 481 1766 481 
L 2356 481 
L 2356 0 
L 1766 0 
Q 1100 0 847 248 
Q 594 497 594 1153 
L 594 3053 
L 172 3053 
L 172 3500 
L 594 3500 
L 594 4494 
L 1172 4494 
z
" transform="scale(0.015625)"/>
       <path id="DejaVuSans-69" d="M 603 3500 
L 1178 3500 
L 1178 0 
L 603 0 
L 603 3500 
z
M 603 4863 
L 1178 4863 
L 1178 4134 
L 603 4134 
L 603 4863 
z
" transform="scale(0.015625)"/>
       <path id="DejaVuSans-6d" d="M 3328 2828 
Q 3544 3216 3844 3400 
Q 4144 3584 4550 3584 
Q 5097 3584 5394 3201 
Q 5691 2819 5691 2113 
L 5691 0 
L 5113 0 
L 5113 2094 
Q 5113 2597 4934 2840 
Q 4756 3084 4391 3084 
Q 3944 3084 3684 2787 
Q 3425 2491 3425 1978 
L 3425 0 
L 2847 0 
L 2847 2094 
Q 2847 2600 2669 2842 
Q 2491 3084 2119 3084 
Q 1678 3084 1418 2786 
Q 1159 2488 1159 1978 
L 1159 0 
L 581 0 
L 581 3500 
L 1159 3500 
L 1159 2956 
Q 1356 3278 1631 3431 
Q 1906 3584 2284 3584 
Q 2666 3584 2933 3390 
Q 3200 3197 3328 2828 
z
" transform="scale(0.015625)"/>
       <path id="DejaVuSans-65" d="M 3597 1894 
L 3597 1613 
L 953 1613 
Q 991 1019 1311 708 
Q 1631 397 2203 397 
Q 2534 397 2845 478 
Q 3156 559 3463 722 
L 3463 178 
Q 3153 47 2828 -22 
Q 2503 -91 2169 -91 
Q 1331 -91 842 396 
Q 353 884 353 1716 
Q 353 2575 817 3079 
Q 1281 3584 2069 3584 
Q 2775 3584 3186 3129 
Q 3597 2675 3597 1894 
z
M 3022 2063 
Q 3016 2534 2758 2815 
Q 2500 3097 2075 3097 
Q 1594 3097 1305 2825 
Q 1016 2553 972 2059 
L 3022 2063 
z
" transform="scale(0.015625)"/>
      </defs>
      <use xlink:href="#DejaVuSans-74"/>
      <use xlink:href="#DejaVuSans-69" transform="translate(39.208984 0)"/>
      <use xlink:href="#DejaVuSans-6d" transform="translate(66.992188 0)"/>
      <use xlink:href="#DejaVuSans-65" transform="translate(164.404297 0)"/>
     </g>
    </g>
   </g>
   <g id="matplotlib.axis_2">
    <g id="ytick_1">
     <g id="line2d_7">
      <defs>
       <path id="mdccfe2c470" d="M 0 0 
L -3.5 0 
" style="stroke: #000000; stroke-width: 0.8"/>
      </defs>
      <g>
       <use xlink:href="#mdccfe2c470" x="56.09" y="303.639985" style="stroke: #000000; stroke-width: 0.8"/>
      </g>
     </g>
     <g id="text_8">
      <!-- −1.0 -->
      <g transform="translate(24.807188 307.439204) scale(0.1 -0.1)">
       <defs>
        <path id="DejaVuSans-2212" d="M 678 2272 
L 4684 2272 
L 4684 1741 
L 678 1741 
L 678 2272 
z
" transform="scale(0.015625)"/>
        <path id="DejaVuSans-2e" d="M 684 794 
L 1344 794 
L 1344 0 
L 684 0 
L 684 794 
z
" transform="scale(0.015625)"/>
       </defs>
       <use xlink:href="#DejaVuSans-2212"/>
       <use xlink:href="#DejaVuSans-31" transform="translate(83.789062 0)"/>
       <use xlink:href="#DejaVuSans-2e" transform="translate(147.412109 0)"/>
       <use xlink:href="#DejaVuSans-30" transform="translate(179.199219 0)"/>
      </g>
     </g>
    </g>
    <g id="ytick_2">
     <g id="line2d_8">
      <g>
       <use xlink:href="#mdccfe2c470" x="56.09" y="266.096358" style="stroke: #000000; stroke-width: 0.8"/>
      </g>
     </g>
     <g id="text_9">
      <!-- −0.5 -->
      <g transform="translate(24.807188 269.895576) scale(0.1 -0.1)">
       <defs>
        <path id="DejaVuSans-35" d="M 691 4666 
L 3169 4666 
L 3169 4134 
L 1269 4134 
L 1269 2991 
Q 1406 3038 1543 3061 
Q 1681 3084 1819 3084 
Q 2600 3084 3056 2656 
Q 3513 2228 3513 1497 
Q 3513 744 3044 326 
Q 2575 -91 1722 -91 
Q 1428 -91 1123 -41 
Q 819 9 494 109 
L 494 744 
Q 775 591 1075 516 
Q 1375 441 1709 441 
Q 2250 441 2565 725 
Q 2881 1009 2881 1497 
Q 2881 1984 2565 2268 
Q 2250 2553 1709 2553 
Q 1456 2553 1204 2497 
Q 953 2441 691 2322 
L 691 4666 
z
" transform="scale(0.015625)"/>
       </defs>
       <use xlink:href="#DejaVuSans-2212"/>
       <use xlink:href="#DejaVuSans-30" transform="translate(83.789062 0)"/>
       <use xlink:href="#DejaVuSans-2e" transform="translate(147.412109 0)"/>
       <use xlink:href="#DejaVuSans-35" transform="translate(179.199219 0)"/>
      </g>
     </g>
    </g>
    <g id="ytick_3">
     <g id="line2d_9">
      <g>
       <use xlink:href="#mdccfe2c470" x="56.09" y="228.55273" style="stroke: #000000; stroke-width: 0.8"/>
      </g>
     </g>
     <g id="text_10">
      <!-- 0.0 -->
      <g transform="translate(33.186875 232.351949) scale(0.1 -0.1)">
       <use xlink:href="#DejaVuSans-30"/>
       <use xlink:href="#DejaVuSans-2e" transform="translate(63.623047 0)"/>
       <use xlink:href="#DejaVuSans-30" transform="translate(95.410156 0)"/>
      </g>
     </g>
    </g>
    <g id="ytick_4">
     <g id="line2d_10">
      <g>
       <use xlink:href="#mdccfe2c470" x="56.09" y="191.009102" style="stroke: #000000; stroke-width: 0.8"/>
      </g>
     </g>
     <g id="text_11">
      <!-- 0.5 -->
      <g transform="translate(33.186875 194.808321) scale(0.1 -0.1)">
       <use xlink:href="#DejaVuSans-30"/>
       <use xlink:href="#DejaVuSans-2e" transform="translate(63.623047 0)"/>
       <use xlink:href="#DejaVuSans-35" transform="translate(95.410156 0)"/>
      </g>
     </g>
    </g>
    <g id="ytick_5">
     <g id="line2d_11">
      <g>
       <use xlink:href="#mdccfe2c470" x="56.09" y="153.465475" style="stroke: #000000; stroke-width: 0.8"/>
      </g>
     </g>
     <g id="text_12">
      <!-- 1.0 -->
      <g transform="translate(33.186875 157.264693) scale(0.1 -0.1)">
       <use xlink:href="#DejaVuSans-31"/>
       <use xlink:href="#DejaVuSans-2e" transform="translate(63.623047 0)"/>
       <use xlink:href="#DejaVuSans-30" transform="translate(95.410156 0)"/>
      </g>
     </g>
    </g>
    <g id="ytick_6">
     <g id="line2d_12">
      <g>
       <use xlink:href="#mdccfe2c470" x="56.09" y="115.921847" style="stroke: #000000; stroke-width: 0.8"/>
      </g>
     </g>
     <g id="text_13">
      <!-- 1.5 -->
      <g transform="translate(33.186875 119.721066) scale(0.1 -0.1)">
       <use xlink:href="#DejaVuSans-31"/>
       <use xlink:href="#DejaVuSans-2e" transform="translate(63.623047 0)"/>
       <use xlink:href="#DejaVuSans-35" transform="translate(95.410156 0)"/>
      </g>
     </g>
    </g>
    <g id="ytick_7">
     <g id="line2d_13">
      <g>
       <use xlink:href="#mdccfe2c470" x="56.09" y="78.378219" style="stroke: #000000; stroke-width: 0.8"/>
      </g>
     </g>
     <g id="text_14">
      <!-- 2.0 -->
      <g transform="translate(33.186875 82.177438) scale(0.1 -0.1)">
       <use xlink:href="#DejaVuSans-32"/>
       <use xlink:href="#DejaVuSans-2e" transform="translate(63.623047 0)"/>
       <use xlink:href="#DejaVuSans-30" transform="translate(95.410156 0)"/>
      </g>
     </g>
    </g>
    <g id="ytick_8">
     <g id="line2d_14">
      <g>
       <use xlink:href="#mdccfe2c470" x="56.09" y="40.834592" style="stroke: #000000; stroke-width: 0.8"/>
      </g>
     </g>
     <g id="text_15">
      <!-- 2.5 -->
      <g transform="translate(33.186875 44.633811) scale(0.1 -0.1)">
       <use xlink:href="#DejaVuSans-32"/>
       <use xlink:href="#DejaVuSans-2e" transform="translate(63.623047 0)"/>
       <use xlink:href="#DejaVuSans-35" transform="translate(95.410156 0)"/>
      </g>
     </g>
    </g>
    <g id="text_16">
     <!-- Energy difference -->
     <g transform="translate(18.7275 210.249531) rotate(-90) scale(0.1 -0.1)">
      <defs>
       <path id="DejaVuSans-45" d="M 628 4666 
L 3578 4666 
L 3578 4134 
L 1259 4134 
L 1259 2753 
L 3481 2753 
L 3481 2222 
L 1259 2222 
L 1259 531 
L 3634 531 
L 3634 0 
L 628 0 
L 628 4666 
z
" transform="scale(0.015625)"/>
       <path id="DejaVuSans-6e" d="M 3513 2113 
L 3513 0 
L 2938 0 
L 2938 2094 
Q 2938 2591 2744 2837 
Q 2550 3084 2163 3084 
Q 1697 3084 1428 2787 
Q 1159 2491 1159 1978 
L 1159 0 
L 581 0 
L 581 3500 
L 1159 3500 
L 1159 2956 
Q 1366 3272 1645 3428 
Q 1925 3584 2291 3584 
Q 2894 3584 3203 3211 
Q 3513 2838 3513 2113 
z
" transform="scale(0.015625)"/>
       <path id="DejaVuSans-72" d="M 2631 2963 
Q 2534 3019 2420 3045 
Q 2306 3072 2169 3072 
Q 1681 3072 1420 2755 
Q 1159 2438 1159 1844 
L 1159 0 
L 581 0 
L 581 3500 
L 1159 3500 
L 1159 2956 
Q 1341 3275 1631 3429 
Q 1922 3584 2338 3584 
Q 2397 3584 2469 3576 
Q 2541 3569 2628 3553 
L 2631 2963 
z
" transform="scale(0.015625)"/>
       <path id="DejaVuSans-67" d="M 2906 1791 
Q 2906 2416 2648 2759 
Q 2391 3103 1925 3103 
Q 1463 3103 1205 2759 
Q 947 2416 947 1791 
Q 947 1169 1205 825 
Q 1463 481 1925 481 
Q 2391 481 2648 825 
Q 2906 1169 2906 1791 
z
M 3481 434 
Q 3481 -459 3084 -895 
Q 2688 -1331 1869 -1331 
Q 1566 -1331 1297 -1286 
Q 1028 -1241 775 -1147 
L 775 -588 
Q 1028 -725 1275 -790 
Q 1522 -856 1778 -856 
Q 2344 -856 2625 -561 
Q 2906 -266 2906 331 
L 2906 616 
Q 2728 306 2450 153 
Q 2172 0 1784 0 
Q 1141 0 747 490 
Q 353 981 353 1791 
Q 353 2603 747 3093 
Q 1141 3584 1784 3584 
Q 2172 3584 2450 3431 
Q 2728 3278 2906 2969 
L 2906 3500 
L 3481 3500 
L 3481 434 
z
" transform="scale(0.015625)"/>
       <path id="DejaVuSans-79" d="M 2059 -325 
Q 1816 -950 1584 -1140 
Q 1353 -1331 966 -1331 
L 506 -1331 
L 506 -850 
L 844 -850 
Q 1081 -850 1212 -737 
Q 1344 -625 1503 -206 
L 1606 56 
L 191 3500 
L 800 3500 
L 1894 763 
L 2988 3500 
L 3597 3500 
L 2059 -325 
z
" transform="scale(0.015625)"/>
       <path id="DejaVuSans-20" transform="scale(0.015625)"/>
       <path id="DejaVuSans-64" d="M 2906 2969 
L 2906 4863 
L 3481 4863 
L 3481 0 
L 2906 0 
L 2906 525 
Q 2725 213 2448 61 
Q 2172 -91 1784 -91 
Q 1150 -91 751 415 
Q 353 922 353 1747 
Q 353 2572 751 3078 
Q 1150 3584 1784 3584 
Q 2172 3584 2448 3432 
Q 2725 3281 2906 2969 
z
M 947 1747 
Q 947 1113 1208 752 
Q 1469 391 1925 391 
Q 2381 391 2643 752 
Q 2906 1113 2906 1747 
Q 2906 2381 2643 2742 
Q 2381 3103 1925 3103 
Q 1469 3103 1208 2742 
Q 947 2381 947 1747 
z
" transform="scale(0.015625)"/>
       <path id="DejaVuSans-66" d="M 2375 4863 
L 2375 4384 
L 1825 4384 
Q 1516 4384 1395 4259 
Q 1275 4134 1275 3809 
L 1275 3500 
L 2222 3500 
L 2222 3053 
L 1275 3053 
L 1275 0 
L 697 0 
L 697 3053 
L 147 3053 
L 147 3500 
L 697 3500 
L 697 3744 
Q 697 4328 969 4595 
Q 1241 4863 1831 4863 
L 2375 4863 
z
" transform="scale(0.015625)"/>
       <path id="DejaVuSans-63" d="M 3122 3366 
L 3122 2828 
Q 2878 2963 2633 3030 
Q 2388 3097 2138 3097 
Q 1578 3097 1268 2742 
Q 959 2388 959 1747 
Q 959 1106 1268 751 
Q 1578 397 2138 397 
Q 2388 397 2633 464 
Q 2878 531 3122 666 
L 3122 134 
Q 2881 22 2623 -34 
Q 2366 -91 2075 -91 
Q 1284 -91 818 406 
Q 353 903 353 1747 
Q 353 2603 823 3093 
Q 1294 3584 2113 3584 
Q 2378 3584 2631 3529 
Q 2884 3475 3122 3366 
z
" transform="scale(0.015625)"/>
      </defs>
      <use xlink:href="#DejaVuSans-45"/>
      <use xlink:href="#DejaVuSans-6e" transform="translate(63.183594 0)"/>
      <use xlink:href="#DejaVuSans-65" transform="translate(126.5625 0)"/>
      <use xlink:href="#DejaVuSans-72" transform="translate(188.085938 0)"/>
      <use xlink:href="#DejaVuSans-67" transform="translate(227.449219 0)"/>
      <use xlink:href="#DejaVuSans-79" transform="translate(290.925781 0)"/>
      <use xlink:href="#DejaVuSans-20" transform="translate(350.105469 0)"/>
      <use xlink:href="#DejaVuSans-64" transform="translate(381.892578 0)"/>
      <use xlink:href="#DejaVuSans-69" transform="translate(445.369141 0)"/>
      <use xlink:href="#DejaVuSans-66" transform="translate(473.152344 0)"/>
      <use xlink:href="#DejaVuSans-66" transform="translate(508.357422 0)"/>
      <use xlink:href="#DejaVuSans-65" transform="translate(543.5625 0)"/>
      <use xlink:href="#DejaVuSans-72" transform="translate(605.085938 0)"/>
      <use xlink:href="#DejaVuSans-65" transform="translate(643.949219 0)"/>
      <use xlink:href="#DejaVuSans-6e" transform="translate(705.472656 0)"/>
      <use xlink:href="#DejaVuSans-63" transform="translate(768.851562 0)"/>
      <use xlink:href="#DejaVuSans-65" transform="translate(823.832031 0)"/>
     </g>
    </g>
    <g id="text_17">
     <!-- 1e−7 -->
     <g transform="translate(56.09 25.32) scale(0.1 -0.1)">
      <defs>
       <path id="DejaVuSans-37" d="M 525 4666 
L 3525 4666 
L 3525 4397 
L 1831 0 
L 1172 0 
L 2766 4134 
L 525 4134 
L 525 4666 
z
" transform="scale(0.015625)"/>
      </defs>
      <use xlink:href="#DejaVuSans-31"/>
      <use xlink:href="#DejaVuSans-65" transform="translate(63.623047 0)"/>
      <use xlink:href="#DejaVuSans-2212" transform="translate(125.146484 0)"/>
      <use xlink:href="#DejaVuSans-37" transform="translate(208.935547 0)"/>
     </g>
    </g>
   </g>
   <g id="line2d_15">
    <path d="M 73.995 228.55273 
L 74.854526 228.444625 
L 75.749865 228.102379 
L 76.681019 227.498793 
L 77.683799 226.56826 
L 78.758206 225.251716 
L 79.904241 223.488314 
L 81.157716 221.143586 
L 82.518632 218.118878 
L 84.022803 214.216233 
L 85.670228 209.299586 
L 87.49672 203.112829 
L 89.502281 195.502943 
L 91.758536 186.036128 
L 94.372928 174.059165 
L 97.560337 158.350661 
L 102.502611 132.703625 
L 108.161157 103.640394 
L 111.312752 88.611565 
L 113.89133 77.354607 
L 116.147585 68.471036 
L 118.153146 61.451961 
L 119.943825 55.958071 
L 121.59125 51.597347 
L 123.09542 48.228805 
L 124.456336 45.705909 
L 125.709811 43.836408 
L 126.855846 42.516398 
L 127.89444 41.646034 
L 128.861407 41.116948 
L 129.756746 40.870273 
L 130.616272 40.854089 
L 131.475798 41.05407 
L 132.371138 41.491745 
L 133.338104 42.226043 
L 134.376698 43.31492 
L 135.486919 44.818612 
L 136.704581 46.864692 
L 138.029683 49.552218 
L 139.462227 52.981376 
L 141.038024 57.356199 
L 142.757076 62.810043 
L 144.655196 69.598771 
L 146.768197 78.011851 
L 149.167707 88.514696 
L 151.99698 101.946926 
L 155.649965 120.445855 
L 165.856836 172.76083 
L 168.721923 185.942977 
L 171.157246 196.130807 
L 173.270248 204.057175 
L 175.168367 210.357855 
L 176.887419 215.332912 
L 178.463217 219.242024 
L 179.89576 222.228664 
L 181.220863 224.493164 
L 182.402711 226.098487 
L 183.512932 227.244059 
L 184.515712 227.973176 
L 185.446865 228.388387 
L 186.342205 228.548768 
L 187.201731 228.482031 
L 188.09707 228.182785 
L 189.028223 227.623704 
L 189.99519 226.777242 
L 191.033784 225.569149 
L 192.179818 223.881595 
L 193.433294 221.617974 
L 194.79421 218.67868 
L 196.262567 214.964108 
L 197.874178 210.267234 
L 199.664857 204.332841 
L 201.634604 197.003839 
L 203.855046 187.843846 
L 206.39781 176.360631 
L 209.441965 161.531171 
L 213.775408 139.195389 
L 220.759056 103.214276 
L 223.874838 88.381571 
L 226.453416 77.145655 
L 228.673858 68.416848 
L 230.679418 61.404146 
L 232.470098 55.916456 
L 234.117522 51.561803 
L 235.621693 48.199069 
L 236.982609 45.68161 
L 238.236084 43.817242 
L 239.382119 42.502007 
L 240.420713 41.636023 
L 241.387679 41.111044 
L 242.283019 40.868187 
L 243.142545 40.855675 
L 244.002071 41.059324 
L 244.89741 41.500805 
L 245.864377 42.23919 
L 246.902971 43.332413 
L 248.013192 44.840685 
L 249.230854 46.89169 
L 250.555956 49.584435 
L 251.988499 53.019034 
L 253.564297 57.399563 
L 255.283349 62.859246 
L 257.181469 69.653894 
L 259.29447 78.072835 
L 261.69398 88.581302 
L 264.523253 102.018621 
L 268.212052 120.707057 
L 278.311482 172.487382 
L 281.176568 185.692267 
L 283.611892 195.904489 
L 285.760707 203.982191 
L 287.658826 210.291984 
L 289.377878 215.275935 
L 290.953676 219.193663 
L 292.386219 222.188461 
L 293.711322 224.460739 
L 294.89317 226.07315 
L 296.003391 227.225483 
L 297.006171 227.960766 
L 297.937324 228.381739 
L 298.832664 228.547678 
L 299.69219 228.48628 
L 300.587529 228.192583 
L 301.518682 227.639248 
L 302.485649 226.798707 
L 303.524243 225.596903 
L 304.670278 223.916182 
L 305.923753 221.65987 
L 307.284669 218.728278 
L 308.753026 215.021692 
L 310.364637 210.333138 
L 312.155316 204.40736 
L 314.125063 197.086972 
L 316.345505 187.93548 
L 318.888269 176.460266 
L 321.932424 161.637734 
L 326.265867 139.306484 
L 333.285329 103.142225 
L 336.401111 88.315056 
L 338.979688 77.085249 
L 341.200131 68.36271 
L 343.205691 61.356387 
L 344.99637 55.874901 
L 346.643795 51.526324 
L 348.147965 48.169401 
L 349.508881 45.657381 
L 350.762357 43.798147 
L 351.908391 42.487688 
L 352.946985 41.626083 
L 353.913952 41.105213 
L 354.809291 40.866176 
L 355.668817 40.857336 
L 356.528343 41.064652 
L 357.423683 41.50994 
L 358.39065 42.25241 
L 359.429243 43.349979 
L 360.539464 44.862831 
L 361.757126 46.91876 
L 363.082229 49.616718 
L 364.514772 53.056755 
L 366.09057 57.442988 
L 367.809621 62.908507 
L 369.707741 69.709071 
L 371.820743 78.133865 
L 374.220253 88.647946 
L 377.049525 102.090345 
L 380.738324 120.782706 
L 390.837754 172.557392 
L 393.702841 185.756473 
L 396.138164 195.962465 
L 398.286979 204.033776 
L 400.185099 210.337303 
L 401.904151 215.315138 
L 403.479948 219.226941 
L 404.912492 222.216129 
L 406.237594 224.483058 
L 407.419442 226.090594 
L 408.529663 227.238278 
L 409.532444 227.969321 
L 410.463597 228.386331 
L 411.358936 228.548448 
L 412.218462 228.483379 
L 413.113802 228.185866 
L 414.044955 227.628579 
L 415.011922 226.783966 
L 416.050516 225.577836 
L 417.19655 223.892417 
L 418.450026 221.631078 
L 419.810942 218.694188 
L 421.279298 214.98211 
L 422.89091 210.287833 
L 424.681589 204.35613 
L 426.651336 197.029817 
L 428.871778 187.872478 
L 431.414542 176.391761 
L 432.095 173.167082 
L 432.095 173.167082 
" clip-path="url(#p2b05adba68)" style="fill: none; stroke: #1f77b4; stroke-width: 1.5; stroke-linecap: square"/>
   </g>
   <g id="line2d_16">
    <path d="M 73.995 228.55273 
L 75.49917 228.657793 
L 77.003341 228.982743 
L 78.543325 229.540827 
L 80.154936 230.364594 
L 81.838174 231.479567 
L 83.628853 232.940323 
L 85.526973 234.781797 
L 87.604161 237.118495 
L 89.860417 240.001515 
L 92.403181 243.62508 
L 95.375708 248.269281 
L 99.171948 254.644774 
L 110.130904 273.312294 
L 113.103431 277.792878 
L 115.646195 281.238314 
L 117.902451 283.936825 
L 119.979638 286.084278 
L 121.877758 287.738792 
L 123.668437 289.012832 
L 125.351676 289.944838 
L 126.963287 290.588179 
L 128.503271 290.970426 
L 130.043255 291.122567 
L 131.547425 291.047943 
L 133.051596 290.753238 
L 134.59158 290.225693 
L 136.203191 289.433183 
L 137.886429 288.349818 
L 139.641295 286.952491 
L 141.539414 285.14865 
L 143.580789 282.892224 
L 145.801231 280.099136 
L 148.308181 276.574138 
L 151.209081 272.091359 
L 154.826253 266.066628 
L 167.181939 245.125606 
L 170.011212 240.964509 
L 172.482349 237.711525 
L 174.702791 235.1458 
L 176.744165 233.120713 
L 178.606471 231.575229 
L 180.361337 230.398159 
L 182.044575 229.534476 
L 183.656186 228.958205 
L 185.19617 228.64105 
L 186.700341 228.55388 
L 188.204511 228.687328 
L 189.744495 229.051521 
L 191.320293 229.659716 
L 192.931904 230.523266 
L 194.615142 231.678414 
L 196.405821 233.179975 
L 198.339754 235.100335 
L 200.416942 237.483349 
L 202.709011 240.460188 
L 205.287589 244.185496 
L 208.331744 248.994098 
L 212.307051 255.721816 
L 221.976718 272.253233 
L 225.056686 276.985242 
L 227.671078 280.610022 
L 229.99896 283.467765 
L 232.111962 285.717626 
L 234.045895 287.46205 
L 235.872388 288.814307 
L 237.59144 289.812088 
L 239.203051 290.496964 
L 240.778848 290.9267 
L 242.318832 291.114234 
L 243.823003 291.074243 
L 245.327173 290.813985 
L 246.867157 290.321261 
L 248.442955 289.58389 
L 250.09038 288.566989 
L 251.845245 287.216741 
L 253.707551 285.496815 
L 255.713112 283.335108 
L 257.89774 280.646377 
L 260.333064 277.286478 
L 263.126523 273.039745 
L 266.564627 267.384471 
L 272.330614 257.387894 
L 277.451956 248.688167 
L 280.710992 243.581479 
L 283.39701 239.76945 
L 285.760707 236.785099 
L 287.909521 234.418887 
L 289.879268 232.5703 
L 291.705761 231.150267 
L 293.424813 230.085963 
L 295.072238 229.323009 
L 296.648035 228.834678 
L 298.188019 228.589253 
L 299.69219 228.572517 
L 301.19636 228.776268 
L 302.736344 229.211784 
L 304.312142 229.891731 
L 305.959566 230.85028 
L 307.678618 232.111766 
L 309.505111 233.731563 
L 311.474858 235.781996 
L 313.623673 238.349531 
L 315.987369 241.529248 
L 318.673388 245.525953 
L 321.89661 250.737873 
L 326.552376 258.739053 
L 333.500211 270.650328 
L 336.79506 275.839468 
L 339.516892 279.725852 
L 341.916402 282.774363 
L 344.065217 285.156823 
L 346.034964 287.021604 
L 347.861457 288.457589 
L 349.580509 289.537577 
L 351.227933 290.316035 
L 352.803731 290.819507 
L 354.343715 291.079909 
L 355.847885 291.111337 
L 357.352056 290.922238 
L 358.89204 290.501572 
L 360.467837 289.836552 
L 362.115262 288.89319 
L 363.834314 287.64696 
L 365.660807 286.042555 
L 367.630554 284.0076 
L 369.779368 281.455405 
L 372.143065 278.290449 
L 374.829083 274.307516 
L 378.052306 269.107496 
L 382.600631 261.301438 
L 389.834974 248.898488 
L 393.129823 243.7203 
L 395.851656 239.845999 
L 398.215352 236.852585 
L 400.364167 234.477109 
L 402.333914 232.619292 
L 404.160407 231.190168 
L 405.879458 230.116928 
L 407.526883 229.345141 
L 409.102681 228.848185 
L 410.642665 228.594228 
L 412.146835 228.569124 
L 413.651006 228.764532 
L 415.19099 229.191592 
L 416.766787 229.863041 
L 418.414212 230.812945 
L 420.133264 232.065747 
L 421.959756 233.676785 
L 423.929503 235.71841 
L 426.078318 238.277217 
L 428.442015 241.44854 
L 431.128033 245.437418 
L 432.095 246.957513 
L 432.095 246.957513 
" clip-path="url(#p2b05adba68)" style="fill: none; stroke: #ff7f0e; stroke-width: 1.5; stroke-linecap: square"/>
   </g>
   <g id="patch_3">
    <path d="M 56.09 303.64 
L 56.09 28.32 
" style="fill: none; stroke: #000000; stroke-width: 0.8; stroke-linejoin: miter; stroke-linecap: square"/>
   </g>
   <g id="patch_4">
    <path d="M 450 303.64 
L 450 28.32 
" style="fill: none; stroke: #000000; stroke-width: 0.8; stroke-linejoin: miter; stroke-linecap: square"/>
   </g>
   <g id="patch_5">
    <path d="M 56.09 303.64 
L 450 303.64 
" style="fill: none; stroke: #000000; stroke-width: 0.8; stroke-linejoin: miter; stroke-linecap: square"/>
   </g>
   <g id="patch_6">
    <path d="M 56.09 28.32 
L 450 28.32 
" style="fill: none; stroke: #000000; stroke-width: 0.8; stroke-linejoin: miter; stroke-linecap: square"/>
   </g>
   <g id="text_18">
    <!-- $(E(t)-E_0)/E_0$, $\omega$=1,  $\Delta t$=0.001, steps=10000 -->
    <g transform="translate(118.765 22.32) scale(0.12 -0.12)">
     <defs>
      <path id="DejaVuSans-28" d="M 1984 4856 
Q 1566 4138 1362 3434 
Q 1159 2731 1159 2009 
Q 1159 1288 1364 580 
Q 1569 -128 1984 -844 
L 1484 -844 
Q 1016 -109 783 600 
Q 550 1309 550 2009 
Q 550 2706 781 3412 
Q 1013 4119 1484 4856 
L 1984 4856 
z
" transform="scale(0.015625)"/>
      <path id="DejaVuSans-Oblique-45" d="M 1081 4666 
L 4031 4666 
L 3928 4134 
L 1606 4134 
L 1338 2753 
L 3566 2753 
L 3463 2222 
L 1234 2222 
L 909 531 
L 3284 531 
L 3181 0 
L 172 0 
L 1081 4666 
z
" transform="scale(0.015625)"/>
      <path id="DejaVuSans-Oblique-74" d="M 2706 3500 
L 2619 3053 
L 1472 3053 
L 1100 1153 
Q 1081 1047 1072 975 
Q 1063 903 1063 863 
Q 1063 663 1183 572 
Q 1303 481 1569 481 
L 2150 481 
L 2053 0 
L 1503 0 
Q 991 0 739 200 
Q 488 400 488 806 
Q 488 878 497 964 
Q 506 1050 525 1153 
L 897 3053 
L 409 3053 
L 500 3500 
L 978 3500 
L 1172 4494 
L 1747 4494 
L 1556 3500 
L 2706 3500 
z
" transform="scale(0.015625)"/>
      <path id="DejaVuSans-29" d="M 513 4856 
L 1013 4856 
Q 1481 4119 1714 3412 
Q 1947 2706 1947 2009 
Q 1947 1309 1714 600 
Q 1481 -109 1013 -844 
L 513 -844 
Q 928 -128 1133 580 
Q 1338 1288 1338 2009 
Q 1338 2731 1133 3434 
Q 928 4138 513 4856 
z
" transform="scale(0.015625)"/>
      <path id="DejaVuSans-2f" d="M 1625 4666 
L 2156 4666 
L 531 -594 
L 0 -594 
L 1625 4666 
z
" transform="scale(0.015625)"/>
      <path id="DejaVuSans-2c" d="M 750 794 
L 1409 794 
L 1409 256 
L 897 -744 
L 494 -744 
L 750 256 
L 750 794 
z
" transform="scale(0.015625)"/>
      <path id="DejaVuSans-Oblique-3c9" d="M 1369 -91 
Q 72 -91 434 1766 
Q 575 2500 1256 3500 
L 1875 3500 
Q 1231 2500 1088 1750 
Q 819 397 1519 397 
Q 2166 397 2478 2078 
L 3009 2078 
Q 2669 388 3316 397 
Q 4013 403 4275 1750 
Q 4419 2500 4169 3500 
L 4788 3500 
Q 5075 2500 4934 1766 
Q 4578 -94 3278 -91 
Q 2428 -88 2503 844 
Q 2194 -91 1369 -91 
z
" transform="scale(0.015625)"/>
      <path id="DejaVuSans-3d" d="M 678 2906 
L 4684 2906 
L 4684 2381 
L 678 2381 
L 678 2906 
z
M 678 1631 
L 4684 1631 
L 4684 1100 
L 678 1100 
L 678 1631 
z
" transform="scale(0.015625)"/>
      <path id="DejaVuSans-394" d="M 2188 4044 
L 906 525 
L 3472 525 
L 2188 4044 
z
M 50 0 
L 1831 4666 
L 2547 4666 
L 4325 0 
L 50 0 
z
" transform="scale(0.015625)"/>
      <path id="DejaVuSans-73" d="M 2834 3397 
L 2834 2853 
Q 2591 2978 2328 3040 
Q 2066 3103 1784 3103 
Q 1356 3103 1142 2972 
Q 928 2841 928 2578 
Q 928 2378 1081 2264 
Q 1234 2150 1697 2047 
L 1894 2003 
Q 2506 1872 2764 1633 
Q 3022 1394 3022 966 
Q 3022 478 2636 193 
Q 2250 -91 1575 -91 
Q 1294 -91 989 -36 
Q 684 19 347 128 
L 347 722 
Q 666 556 975 473 
Q 1284 391 1588 391 
Q 1994 391 2212 530 
Q 2431 669 2431 922 
Q 2431 1156 2273 1281 
Q 2116 1406 1581 1522 
L 1381 1569 
Q 847 1681 609 1914 
Q 372 2147 372 2553 
Q 372 3047 722 3315 
Q 1072 3584 1716 3584 
Q 2034 3584 2315 3537 
Q 2597 3491 2834 3397 
z
" transform="scale(0.015625)"/>
      <path id="DejaVuSans-70" d="M 1159 525 
L 1159 -1331 
L 581 -1331 
L 581 3500 
L 1159 3500 
L 1159 2969 
Q 1341 3281 1617 3432 
Q 1894 3584 2278 3584 
Q 2916 3584 3314 3078 
Q 3713 2572 3713 1747 
Q 3713 922 3314 415 
Q 2916 -91 2278 -91 
Q 1894 -91 1617 61 
Q 1341 213 1159 525 
z
M 3116 1747 
Q 3116 2381 2855 2742 
Q 2594 3103 2138 3103 
Q 1681 3103 1420 2742 
Q 1159 2381 1159 1747 
Q 1159 1113 1420 752 
Q 1681 391 2138 391 
Q 2594 391 2855 752 
Q 3116 1113 3116 1747 
z
" transform="scale(0.015625)"/>
     </defs>
     <use xlink:href="#DejaVuSans-28" transform="translate(0 0.125)"/>
     <use xlink:href="#DejaVuSans-Oblique-45" transform="translate(39.013672 0.125)"/>
     <use xlink:href="#DejaVuSans-28" transform="translate(102.197266 0.125)"/>
     <use xlink:href="#DejaVuSans-Oblique-74" transform="translate(141.210938 0.125)"/>
     <use xlink:href="#DejaVuSans-29" transform="translate(180.419922 0.125)"/>
     <use xlink:href="#DejaVuSans-2212" transform="translate(238.916016 0.125)"/>
     <use xlink:href="#DejaVuSans-Oblique-45" transform="translate(342.1875 0.125)"/>
     <use xlink:href="#DejaVuSans-30" transform="translate(405.371094 -16.28125) scale(0.7)"/>
     <use xlink:href="#DejaVuSans-29" transform="translate(452.641602 0.125)"/>
     <use xlink:href="#DejaVuSans-2f" transform="translate(491.655273 0.125)"/>
     <use xlink:href="#DejaVuSans-Oblique-45" transform="translate(525.34668 0.125)"/>
     <use xlink:href="#DejaVuSans-30" transform="translate(588.530273 -16.28125) scale(0.7)"/>
     <use xlink:href="#DejaVuSans-2c" transform="translate(635.800781 0.125)"/>
     <use xlink:href="#DejaVuSans-20" transform="translate(667.587891 0.125)"/>
     <use xlink:href="#DejaVuSans-Oblique-3c9" transform="translate(699.375 0.125)"/>
     <use xlink:href="#DejaVuSans-3d" transform="translate(783.115234 0.125)"/>
     <use xlink:href="#DejaVuSans-31" transform="translate(866.904297 0.125)"/>
     <use xlink:href="#DejaVuSans-2c" transform="translate(930.527344 0.125)"/>
     <use xlink:href="#DejaVuSans-20" transform="translate(962.314453 0.125)"/>
     <use xlink:href="#DejaVuSans-20" transform="translate(994.101562 0.125)"/>
     <use xlink:href="#DejaVuSans-394" transform="translate(1025.888672 0.125)"/>
     <use xlink:href="#DejaVuSans-Oblique-74" transform="translate(1094.296875 0.125)"/>
     <use xlink:href="#DejaVuSans-3d" transform="translate(1133.505859 0.125)"/>
     <use xlink:href="#DejaVuSans-30" transform="translate(1217.294922 0.125)"/>
     <use xlink:href="#DejaVuSans-2e" transform="translate(1280.917969 0.125)"/>
     <use xlink:href="#DejaVuSans-30" transform="translate(1312.705078 0.125)"/>
     <use xlink:href="#DejaVuSans-30" transform="translate(1376.328125 0.125)"/>
     <use xlink:href="#DejaVuSans-31" transform="translate(1439.951172 0.125)"/>
     <use xlink:href="#DejaVuSans-2c" transform="translate(1503.574219 0.125)"/>
     <use xlink:href="#DejaVuSans-20" transform="translate(1535.361328 0.125)"/>
     <use xlink:href="#DejaVuSans-73" transform="translate(1567.148438 0.125)"/>
     <use xlink:href="#DejaVuSans-74" transform="translate(1619.248047 0.125)"/>
     <use xlink:href="#DejaVuSans-65" transform="translate(1658.457031 0.125)"/>
     <use xlink:href="#DejaVuSans-70" transform="translate(1719.980469 0.125)"/>
     <use xlink:href="#DejaVuSans-73" transform="translate(1783.457031 0.125)"/>
     <use xlink:href="#DejaVuSans-3d" transform="translate(1835.556641 0.125)"/>
     <use xlink:href="#DejaVuSans-31" transform="translate(1919.345703 0.125)"/>
     <use xlink:href="#DejaVuSans-30" transform="translate(1982.96875 0.125)"/>
     <use xlink:href="#DejaVuSans-30" transform="translate(2046.591797 0.125)"/>
     <use xlink:href="#DejaVuSans-30" transform="translate(2110.214844 0.125)"/>
     <use xlink:href="#DejaVuSans-30" transform="translate(2173.837891 0.125)"/>
    </g>
   </g>
   <g id="legend_1">
    <g id="patch_7">
     <path d="M 339.345312 182.158125 
L 443 182.158125 
Q 445 182.158125 445 180.158125 
L 445 151.801875 
Q 445 149.801875 443 149.801875 
L 339.345312 149.801875 
Q 337.345312 149.801875 337.345312 151.801875 
L 337.345312 180.158125 
Q 337.345312 182.158125 339.345312 182.158125 
z
" style="fill: #ffffff; opacity: 0.8; stroke: #cccccc; stroke-linejoin: miter"/>
    </g>
    <g id="line2d_17">
     <path d="M 341.345312 157.900312 
L 351.345312 157.900312 
L 361.345312 157.900312 
" style="fill: none; stroke: #1f77b4; stroke-width: 1.5; stroke-linecap: square"/>
    </g>
    <g id="text_19">
     <!-- Velocity Verlet -->
     <g transform="translate(369.345312 161.400312) scale(0.1 -0.1)">
      <defs>
       <path id="DejaVuSans-56" d="M 1831 0 
L 50 4666 
L 709 4666 
L 2188 738 
L 3669 4666 
L 4325 4666 
L 2547 0 
L 1831 0 
z
" transform="scale(0.015625)"/>
       <path id="DejaVuSans-6c" d="M 603 4863 
L 1178 4863 
L 1178 0 
L 603 0 
L 603 4863 
z
" transform="scale(0.015625)"/>
       <path id="DejaVuSans-6f" d="M 1959 3097 
Q 1497 3097 1228 2736 
Q 959 2375 959 1747 
Q 959 1119 1226 758 
Q 1494 397 1959 397 
Q 2419 397 2687 759 
Q 2956 1122 2956 1747 
Q 2956 2369 2687 2733 
Q 2419 3097 1959 3097 
z
M 1959 3584 
Q 2709 3584 3137 3096 
Q 3566 2609 3566 1747 
Q 3566 888 3137 398 
Q 2709 -91 1959 -91 
Q 1206 -91 779 398 
Q 353 888 353 1747 
Q 353 2609 779 3096 
Q 1206 3584 1959 3584 
z
" transform="scale(0.015625)"/>
      </defs>
      <use xlink:href="#DejaVuSans-56"/>
      <use xlink:href="#DejaVuSans-65" transform="translate(60.658203 0)"/>
      <use xlink:href="#DejaVuSans-6c" transform="translate(122.181641 0)"/>
      <use xlink:href="#DejaVuSans-6f" transform="translate(149.964844 0)"/>
      <use xlink:href="#DejaVuSans-63" transform="translate(211.146484 0)"/>
      <use xlink:href="#DejaVuSans-69" transform="translate(266.126953 0)"/>
      <use xlink:href="#DejaVuSans-74" transform="translate(293.910156 0)"/>
      <use xlink:href="#DejaVuSans-79" transform="translate(333.119141 0)"/>
      <use xlink:href="#DejaVuSans-20" transform="translate(392.298828 0)"/>
      <use xlink:href="#DejaVuSans-56" transform="translate(424.085938 0)"/>
      <use xlink:href="#DejaVuSans-65" transform="translate(484.744141 0)"/>
      <use xlink:href="#DejaVuSans-72" transform="translate(546.267578 0)"/>
      <use xlink:href="#DejaVuSans-6c" transform="translate(587.380859 0)"/>
      <use xlink:href="#DejaVuSans-65" transform="translate(615.164062 0)"/>
      <use xlink:href="#DejaVuSans-74" transform="translate(676.6875 0)"/>
     </g>
    </g>
    <g id="line2d_18">
     <path d="M 341.345312 172.578437 
L 351.345312 172.578437 
L 361.345312 172.578437 
" style="fill: none; stroke: #ff7f0e; stroke-width: 1.5; stroke-linecap: square"/>
    </g>
    <g id="text_20">
     <!-- Beeman's Alg. -->
     <g transform="translate(369.345312 176.078437) scale(0.1 -0.1)">
      <defs>
       <path id="DejaVuSans-42" d="M 1259 2228 
L 1259 519 
L 2272 519 
Q 2781 519 3026 730 
Q 3272 941 3272 1375 
Q 3272 1813 3026 2020 
Q 2781 2228 2272 2228 
L 1259 2228 
z
M 1259 4147 
L 1259 2741 
L 2194 2741 
Q 2656 2741 2882 2914 
Q 3109 3088 3109 3444 
Q 3109 3797 2882 3972 
Q 2656 4147 2194 4147 
L 1259 4147 
z
M 628 4666 
L 2241 4666 
Q 2963 4666 3353 4366 
Q 3744 4066 3744 3513 
Q 3744 3084 3544 2831 
Q 3344 2578 2956 2516 
Q 3422 2416 3680 2098 
Q 3938 1781 3938 1306 
Q 3938 681 3513 340 
Q 3088 0 2303 0 
L 628 0 
L 628 4666 
z
" transform="scale(0.015625)"/>
       <path id="DejaVuSans-61" d="M 2194 1759 
Q 1497 1759 1228 1600 
Q 959 1441 959 1056 
Q 959 750 1161 570 
Q 1363 391 1709 391 
Q 2188 391 2477 730 
Q 2766 1069 2766 1631 
L 2766 1759 
L 2194 1759 
z
M 3341 1997 
L 3341 0 
L 2766 0 
L 2766 531 
Q 2569 213 2275 61 
Q 1981 -91 1556 -91 
Q 1019 -91 701 211 
Q 384 513 384 1019 
Q 384 1609 779 1909 
Q 1175 2209 1959 2209 
L 2766 2209 
L 2766 2266 
Q 2766 2663 2505 2880 
Q 2244 3097 1772 3097 
Q 1472 3097 1187 3025 
Q 903 2953 641 2809 
L 641 3341 
Q 956 3463 1253 3523 
Q 1550 3584 1831 3584 
Q 2591 3584 2966 3190 
Q 3341 2797 3341 1997 
z
" transform="scale(0.015625)"/>
       <path id="DejaVuSans-27" d="M 1147 4666 
L 1147 2931 
L 616 2931 
L 616 4666 
L 1147 4666 
z
" transform="scale(0.015625)"/>
       <path id="DejaVuSans-41" d="M 2188 4044 
L 1331 1722 
L 3047 1722 
L 2188 4044 
z
M 1831 4666 
L 2547 4666 
L 4325 0 
L 3669 0 
L 3244 1197 
L 1141 1197 
L 716 0 
L 50 0 
L 1831 4666 
z
" transform="scale(0.015625)"/>
      </defs>
      <use xlink:href="#DejaVuSans-42"/>
      <use xlink:href="#DejaVuSans-65" transform="translate(68.603516 0)"/>
      <use xlink:href="#DejaVuSans-65" transform="translate(130.126953 0)"/>
      <use xlink:href="#DejaVuSans-6d" transform="translate(191.650391 0)"/>
      <use xlink:href="#DejaVuSans-61" transform="translate(289.0625 0)"/>
      <use xlink:href="#DejaVuSans-6e" transform="translate(350.341797 0)"/>
      <use xlink:href="#DejaVuSans-27" transform="translate(413.720703 0)"/>
      <use xlink:href="#DejaVuSans-73" transform="translate(441.210938 0)"/>
      <use xlink:href="#DejaVuSans-20" transform="translate(493.310547 0)"/>
      <use xlink:href="#DejaVuSans-41" transform="translate(525.097656 0)"/>
      <use xlink:href="#DejaVuSans-6c" transform="translate(593.505859 0)"/>
      <use xlink:href="#DejaVuSans-67" transform="translate(621.289062 0)"/>
      <use xlink:href="#DejaVuSans-2e" transform="translate(684.765625 0)"/>
     </g>
    </g>
   </g>
  </g>
 </g>
 <defs>
  <clipPath id="p2b05adba68">
   <rect x="56.09" y="28.32" width="393.91" height="275.32"/>
  </clipPath>
 </defs>
</svg>
