<?xml version="1.0" encoding="utf-8" standalone="no"?>
<!DOCTYPE svg PUBLIC "-//W3C//DTD SVG 1.1//EN"
  "http://www.w3.org/Graphics/SVG/1.1/DTD/svg11.dtd">
<svg xmlns:xlink="http://www.w3.org/1999/xlink" width="460.8pt" height="345.6pt" viewBox="0 0 460.8 345.6" xmlns="http://www.w3.org/2000/svg" version="1.1">
 <metadata>
  <rdf:RDF xmlns:dc="http://purl.org/dc/elements/1.1/" xmlns:cc="http://creativecommons.org/ns#" xmlns:rdf="http://www.w3.org/1999/02/22-rdf-syntax-ns#">
   <cc:Work>
    <dc:type rdf:resource="http://purl.org/dc/dcmitype/StillImage"/>
    <dc:date>2025-05-09T00:02:27.541354</dc:date>
    <dc:format>image/svg+xml</dc:format>
    <dc:creator>
     <cc:Agent>
      <dc:title>Matplotlib v3.10.1, https://matplotlib.org/</dc:title>
     </cc:Agent>
    </dc:creator>
   </cc:Work>
  </rdf:RDF>
 </metadata>
 <defs>
  <style type="text/css">*{stroke-linejoin: round; stroke-linecap: butt}</style>
 </defs>
 <g id="figure_1">
  <g id="patch_1">
   <path d="M 0 345.6 
L 460.8 345.6 
L 460.8 0 
L 0 0 
z
" style="fill: #ffffff"/>
  </g>
  <g id="axes_1">
   <g id="patch_2">
    <path d="M 36.79 303.64 
L 450 303.64 
L 450 27.744 
L 36.79 27.744 
z
" style="fill: #ffffff"/>
   </g>
   <g id="matplotlib.axis_1">
    <g id="xtick_1">
     <g id="line2d_1">
      <defs>
       <path id="m7dca674d78" d="M 0 0 
L 0 3.5 
" style="stroke: #000000; stroke-width: 0.8"/>
      </defs>
      <g>
       <use xlink:href="#m7dca674d78" x="55.434558" y="303.64" style="stroke: #000000; stroke-width: 0.8"/>
      </g>
     </g>
     <g id="text_1">
      <!-- 0 -->
      <g transform="translate(52.253308 318.238437) scale(0.1 -0.1)">
       <defs>
        <path id="DejaVuSans-30" d="M 2034 4250 
Q 1547 4250 1301 3770 
Q 1056 3291 1056 2328 
Q 1056 1369 1301 889 
Q 1547 409 2034 409 
Q 2525 409 2770 889 
Q 3016 1369 3016 2328 
Q 3016 3291 2770 3770 
Q 2525 4250 2034 4250 
z
M 2034 4750 
Q 2819 4750 3233 4129 
Q 3647 3509 3647 2328 
Q 3647 1150 3233 529 
Q 2819 -91 2034 -91 
Q 1250 -91 836 529 
Q 422 1150 422 2328 
Q 422 3509 836 4129 
Q 1250 4750 2034 4750 
z
" transform="scale(0.015625)"/>
       </defs>
       <use xlink:href="#DejaVuSans-30"/>
      </g>
     </g>
    </g>
    <g id="xtick_2">
     <g id="line2d_2">
      <g>
       <use xlink:href="#m7dca674d78" x="146.238692" y="303.64" style="stroke: #000000; stroke-width: 0.8"/>
      </g>
     </g>
     <g id="text_2">
      <!-- 20 -->
      <g transform="translate(139.876192 318.238437) scale(0.1 -0.1)">
       <defs>
        <path id="DejaVuSans-32" d="M 1228 531 
L 3431 531 
L 3431 0 
L 469 0 
L 469 531 
Q 828 903 1448 1529 
Q 2069 2156 2228 2338 
Q 2531 2678 2651 2914 
Q 2772 3150 2772 3378 
Q 2772 3750 2511 3984 
Q 2250 4219 1831 4219 
Q 1534 4219 1204 4116 
Q 875 4013 500 3803 
L 500 4441 
Q 881 4594 1212 4672 
Q 1544 4750 1819 4750 
Q 2544 4750 2975 4387 
Q 3406 4025 3406 3419 
Q 3406 3131 3298 2873 
Q 3191 2616 2906 2266 
Q 2828 2175 2409 1742 
Q 1991 1309 1228 531 
z
" transform="scale(0.015625)"/>
       </defs>
       <use xlink:href="#DejaVuSans-32"/>
       <use xlink:href="#DejaVuSans-30" transform="translate(63.623047 0)"/>
      </g>
     </g>
    </g>
    <g id="xtick_3">
     <g id="line2d_3">
      <g>
       <use xlink:href="#m7dca674d78" x="237.042827" y="303.64" style="stroke: #000000; stroke-width: 0.8"/>
      </g>
     </g>
     <g id="text_3">
      <!-- 40 -->
      <g transform="translate(230.680327 318.238437) scale(0.1 -0.1)">
       <defs>
        <path id="DejaVuSans-34" d="M 2419 4116 
L 825 1625 
L 2419 1625 
L 2419 4116 
z
M 2253 4666 
L 3047 4666 
L 3047 1625 
L 3713 1625 
L 3713 1100 
L 3047 1100 
L 3047 0 
L 2419 0 
L 2419 1100 
L 313 1100 
L 313 1709 
L 2253 4666 
z
" transform="scale(0.015625)"/>
       </defs>
       <use xlink:href="#DejaVuSans-34"/>
       <use xlink:href="#DejaVuSans-30" transform="translate(63.623047 0)"/>
      </g>
     </g>
    </g>
    <g id="xtick_4">
     <g id="line2d_4">
      <g>
       <use xlink:href="#m7dca674d78" x="327.846961" y="303.64" style="stroke: #000000; stroke-width: 0.8"/>
      </g>
     </g>
     <g id="text_4">
      <!-- 60 -->
      <g transform="translate(321.484461 318.238437) scale(0.1 -0.1)">
       <defs>
        <path id="DejaVuSans-36" d="M 2113 2584 
Q 1688 2584 1439 2293 
Q 1191 2003 1191 1497 
Q 1191 994 1439 701 
Q 1688 409 2113 409 
Q 2538 409 2786 701 
Q 3034 994 3034 1497 
Q 3034 2003 2786 2293 
Q 2538 2584 2113 2584 
z
M 3366 4563 
L 3366 3988 
Q 3128 4100 2886 4159 
Q 2644 4219 2406 4219 
Q 1781 4219 1451 3797 
Q 1122 3375 1075 2522 
Q 1259 2794 1537 2939 
Q 1816 3084 2150 3084 
Q 2853 3084 3261 2657 
Q 3669 2231 3669 1497 
Q 3669 778 3244 343 
Q 2819 -91 2113 -91 
Q 1303 -91 875 529 
Q 447 1150 447 2328 
Q 447 3434 972 4092 
Q 1497 4750 2381 4750 
Q 2619 4750 2861 4703 
Q 3103 4656 3366 4563 
z
" transform="scale(0.015625)"/>
       </defs>
       <use xlink:href="#DejaVuSans-36"/>
       <use xlink:href="#DejaVuSans-30" transform="translate(63.623047 0)"/>
      </g>
     </g>
    </g>
    <g id="xtick_5">
     <g id="line2d_5">
      <g>
       <use xlink:href="#m7dca674d78" x="418.651095" y="303.64" style="stroke: #000000; stroke-width: 0.8"/>
      </g>
     </g>
     <g id="text_5">
      <!-- 80 -->
      <g transform="translate(412.288595 318.238437) scale(0.1 -0.1)">
       <defs>
        <path id="DejaVuSans-38" d="M 2034 2216 
Q 1584 2216 1326 1975 
Q 1069 1734 1069 1313 
Q 1069 891 1326 650 
Q 1584 409 2034 409 
Q 2484 409 2743 651 
Q 3003 894 3003 1313 
Q 3003 1734 2745 1975 
Q 2488 2216 2034 2216 
z
M 1403 2484 
Q 997 2584 770 2862 
Q 544 3141 544 3541 
Q 544 4100 942 4425 
Q 1341 4750 2034 4750 
Q 2731 4750 3128 4425 
Q 3525 4100 3525 3541 
Q 3525 3141 3298 2862 
Q 3072 2584 2669 2484 
Q 3125 2378 3379 2068 
Q 3634 1759 3634 1313 
Q 3634 634 3220 271 
Q 2806 -91 2034 -91 
Q 1263 -91 848 271 
Q 434 634 434 1313 
Q 434 1759 690 2068 
Q 947 2378 1403 2484 
z
M 1172 3481 
Q 1172 3119 1398 2916 
Q 1625 2713 2034 2713 
Q 2441 2713 2670 2916 
Q 2900 3119 2900 3481 
Q 2900 3844 2670 4047 
Q 2441 4250 2034 4250 
Q 1625 4250 1398 4047 
Q 1172 3844 1172 3481 
z
" transform="scale(0.015625)"/>
       </defs>
       <use xlink:href="#DejaVuSans-38"/>
       <use xlink:href="#DejaVuSans-30" transform="translate(63.623047 0)"/>
      </g>
     </g>
    </g>
    <g id="text_6">
     <!-- time -->
     <g transform="translate(232.098906 331.916562) scale(0.1 -0.1)">
      <defs>
       <path id="DejaVuSans-74" d="M 1172 4494 
L 1172 3500 
L 2356 3500 
L 2356 3053 
L 1172 3053 
L 1172 1153 
Q 1172 725 1289 603 
Q 1406 481 1766 481 
L 2356 481 
L 2356 0 
L 1766 0 
Q 1100 0 847 248 
Q 594 497 594 1153 
L 594 3053 
L 172 3053 
L 172 3500 
L 594 3500 
L 594 4494 
L 1172 4494 
z
" transform="scale(0.015625)"/>
       <path id="DejaVuSans-69" d="M 603 3500 
L 1178 3500 
L 1178 0 
L 603 0 
L 603 3500 
z
M 603 4863 
L 1178 4863 
L 1178 4134 
L 603 4134 
L 603 4863 
z
" transform="scale(0.015625)"/>
       <path id="DejaVuSans-6d" d="M 3328 2828 
Q 3544 3216 3844 3400 
Q 4144 3584 4550 3584 
Q 5097 3584 5394 3201 
Q 5691 2819 5691 2113 
L 5691 0 
L 5113 0 
L 5113 2094 
Q 5113 2597 4934 2840 
Q 4756 3084 4391 3084 
Q 3944 3084 3684 2787 
Q 3425 2491 3425 1978 
L 3425 0 
L 2847 0 
L 2847 2094 
Q 2847 2600 2669 2842 
Q 2491 3084 2119 3084 
Q 1678 3084 1418 2786 
Q 1159 2488 1159 1978 
L 1159 0 
L 581 0 
L 581 3500 
L 1159 3500 
L 1159 2956 
Q 1356 3278 1631 3431 
Q 1906 3584 2284 3584 
Q 2666 3584 2933 3390 
Q 3200 3197 3328 2828 
z
" transform="scale(0.015625)"/>
       <path id="DejaVuSans-65" d="M 3597 1894 
L 3597 1613 
L 953 1613 
Q 991 1019 1311 708 
Q 1631 397 2203 397 
Q 2534 397 2845 478 
Q 3156 559 3463 722 
L 3463 178 
Q 3153 47 2828 -22 
Q 2503 -91 2169 -91 
Q 1331 -91 842 396 
Q 353 884 353 1716 
Q 353 2575 817 3079 
Q 1281 3584 2069 3584 
Q 2775 3584 3186 3129 
Q 3597 2675 3597 1894 
z
M 3022 2063 
Q 3016 2534 2758 2815 
Q 2500 3097 2075 3097 
Q 1594 3097 1305 2825 
Q 1016 2553 972 2059 
L 3022 2063 
z
" transform="scale(0.015625)"/>
      </defs>
      <use xlink:href="#DejaVuSans-74"/>
      <use xlink:href="#DejaVuSans-69" transform="translate(39.208984 0)"/>
      <use xlink:href="#DejaVuSans-6d" transform="translate(66.992188 0)"/>
      <use xlink:href="#DejaVuSans-65" transform="translate(164.404297 0)"/>
     </g>
    </g>
   </g>
   <g id="matplotlib.axis_2">
    <g id="ytick_1">
     <g id="line2d_6">
      <defs>
       <path id="m94d8cb741f" d="M 0 0 
L -3.5 0 
" style="stroke: #000000; stroke-width: 0.8"/>
      </defs>
      <g>
       <use xlink:href="#m94d8cb741f" x="36.79" y="267.554037" style="stroke: #000000; stroke-width: 0.8"/>
      </g>
     </g>
     <g id="text_7">
      <!-- 100 -->
      <g transform="translate(10.7025 271.353256) scale(0.1 -0.1)">
       <defs>
        <path id="DejaVuSans-31" d="M 794 531 
L 1825 531 
L 1825 4091 
L 703 3866 
L 703 4441 
L 1819 4666 
L 2450 4666 
L 2450 531 
L 3481 531 
L 3481 0 
L 794 0 
L 794 531 
z
" transform="scale(0.015625)"/>
       </defs>
       <use xlink:href="#DejaVuSans-31"/>
       <use xlink:href="#DejaVuSans-30" transform="translate(63.623047 0)"/>
       <use xlink:href="#DejaVuSans-30" transform="translate(127.246094 0)"/>
      </g>
     </g>
    </g>
    <g id="ytick_2">
     <g id="line2d_7">
      <g>
       <use xlink:href="#m94d8cb741f" x="36.79" y="225.373393" style="stroke: #000000; stroke-width: 0.8"/>
      </g>
     </g>
     <g id="text_8">
      <!-- 200 -->
      <g transform="translate(10.7025 229.172612) scale(0.1 -0.1)">
       <use xlink:href="#DejaVuSans-32"/>
       <use xlink:href="#DejaVuSans-30" transform="translate(63.623047 0)"/>
       <use xlink:href="#DejaVuSans-30" transform="translate(127.246094 0)"/>
      </g>
     </g>
    </g>
    <g id="ytick_3">
     <g id="line2d_8">
      <g>
       <use xlink:href="#m94d8cb741f" x="36.79" y="183.192749" style="stroke: #000000; stroke-width: 0.8"/>
      </g>
     </g>
     <g id="text_9">
      <!-- 300 -->
      <g transform="translate(10.7025 186.991968) scale(0.1 -0.1)">
       <defs>
        <path id="DejaVuSans-33" d="M 2597 2516 
Q 3050 2419 3304 2112 
Q 3559 1806 3559 1356 
Q 3559 666 3084 287 
Q 2609 -91 1734 -91 
Q 1441 -91 1130 -33 
Q 819 25 488 141 
L 488 750 
Q 750 597 1062 519 
Q 1375 441 1716 441 
Q 2309 441 2620 675 
Q 2931 909 2931 1356 
Q 2931 1769 2642 2001 
Q 2353 2234 1838 2234 
L 1294 2234 
L 1294 2753 
L 1863 2753 
Q 2328 2753 2575 2939 
Q 2822 3125 2822 3475 
Q 2822 3834 2567 4026 
Q 2313 4219 1838 4219 
Q 1578 4219 1281 4162 
Q 984 4106 628 3988 
L 628 4550 
Q 988 4650 1302 4700 
Q 1616 4750 1894 4750 
Q 2613 4750 3031 4423 
Q 3450 4097 3450 3541 
Q 3450 3153 3228 2886 
Q 3006 2619 2597 2516 
z
" transform="scale(0.015625)"/>
       </defs>
       <use xlink:href="#DejaVuSans-33"/>
       <use xlink:href="#DejaVuSans-30" transform="translate(63.623047 0)"/>
       <use xlink:href="#DejaVuSans-30" transform="translate(127.246094 0)"/>
      </g>
     </g>
    </g>
    <g id="ytick_4">
     <g id="line2d_9">
      <g>
       <use xlink:href="#m94d8cb741f" x="36.79" y="141.012105" style="stroke: #000000; stroke-width: 0.8"/>
      </g>
     </g>
     <g id="text_10">
      <!-- 400 -->
      <g transform="translate(10.7025 144.811324) scale(0.1 -0.1)">
       <use xlink:href="#DejaVuSans-34"/>
       <use xlink:href="#DejaVuSans-30" transform="translate(63.623047 0)"/>
       <use xlink:href="#DejaVuSans-30" transform="translate(127.246094 0)"/>
      </g>
     </g>
    </g>
    <g id="ytick_5">
     <g id="line2d_10">
      <g>
       <use xlink:href="#m94d8cb741f" x="36.79" y="98.831461" style="stroke: #000000; stroke-width: 0.8"/>
      </g>
     </g>
     <g id="text_11">
      <!-- 500 -->
      <g transform="translate(10.7025 102.63068) scale(0.1 -0.1)">
       <defs>
        <path id="DejaVuSans-35" d="M 691 4666 
L 3169 4666 
L 3169 4134 
L 1269 4134 
L 1269 2991 
Q 1406 3038 1543 3061 
Q 1681 3084 1819 3084 
Q 2600 3084 3056 2656 
Q 3513 2228 3513 1497 
Q 3513 744 3044 326 
Q 2575 -91 1722 -91 
Q 1428 -91 1123 -41 
Q 819 9 494 109 
L 494 744 
Q 775 591 1075 516 
Q 1375 441 1709 441 
Q 2250 441 2565 725 
Q 2881 1009 2881 1497 
Q 2881 1984 2565 2268 
Q 2250 2553 1709 2553 
Q 1456 2553 1204 2497 
Q 953 2441 691 2322 
L 691 4666 
z
" transform="scale(0.015625)"/>
       </defs>
       <use xlink:href="#DejaVuSans-35"/>
       <use xlink:href="#DejaVuSans-30" transform="translate(63.623047 0)"/>
       <use xlink:href="#DejaVuSans-30" transform="translate(127.246094 0)"/>
      </g>
     </g>
    </g>
    <g id="ytick_6">
     <g id="line2d_11">
      <g>
       <use xlink:href="#m94d8cb741f" x="36.79" y="56.650817" style="stroke: #000000; stroke-width: 0.8"/>
      </g>
     </g>
     <g id="text_12">
      <!-- 600 -->
      <g transform="translate(10.7025 60.450036) scale(0.1 -0.1)">
       <use xlink:href="#DejaVuSans-36"/>
       <use xlink:href="#DejaVuSans-30" transform="translate(63.623047 0)"/>
       <use xlink:href="#DejaVuSans-30" transform="translate(127.246094 0)"/>
      </g>
     </g>
    </g>
   </g>
   <g id="line2d_12">
    <path d="M 55.572273 204.156529 
L 55.853527 199.305755 
L 56.122142 198.938784 
L 56.388673 203.52382 
L 56.652322 195.353429 
L 57.187613 189.477665 
L 57.447693 196.441689 
L 57.725436 197.643838 
L 58.288193 207.746102 
L 58.638091 216.085215 
L 59.040918 217.051152 
L 59.427741 215.228948 
L 59.785029 219.835075 
L 60.16284 229.393209 
L 60.656114 245.34171 
L 61.215971 249.294036 
L 61.793558 248.661327 
L 62.363063 253.014369 
L 62.976092 256.696739 
L 63.597043 261.530641 
L 64.250832 264.799641 
L 64.979052 267.039433 
L 65.710621 268.68026 
L 66.497844 270.122838 
L 68.199195 249.492285 
L 68.624567 240.946487 
L 69.033635 239.465946 
L 69.420748 243.865388 
L 69.83498 246.691491 
L 70.514689 216.869775 
L 70.954007 174.537281 
L 71.339837 149.481979 
L 71.532104 134.954965 
L 71.719221 134.976055 
L 72.098888 127.526953 
L 72.298906 131.964357 
L 72.707732 151.945328 
L 72.923073 155.370396 
L 73.385713 170.251728 
L 73.628866 170.11675 
L 73.860421 177.122955 
L 74.092704 176.815036 
L 74.352309 177.835807 
L 74.631022 173.373095 
L 74.883491 165.388299 
L 75.131266 169.555747 
L 75.369354 168.669953 
L 75.642776 175.115156 
L 75.908561 178.607713 
L 76.161137 189.064295 
L 76.457342 194.193461 
L 76.764386 204.456012 
L 77.12236 208.53488 
L 77.45409 205.367114 
L 77.772949 199.187649 
L 78.082826 198.432616 
L 78.400037 205.696123 
L 79.077381 205.379768 
L 79.387642 208.522226 
L 79.705172 207.72923 
L 80.031235 209.260387 
L 80.36294 206.278216 
L 80.677718 209.69063 
L 80.98618 205.000142 
L 81.30647 208.741565 
L 81.61498 207.433965 
L 81.941977 214.667946 
L 82.301941 229.895158 
L 82.804216 243.603868 
L 84.173601 272.856144 
L 85.350462 286.476274 
L 86.804058 288.458764 
L 88.311913 291.099273 
L 89.874656 290.462345 
L 91.381104 288.462982 
L 92.702239 289.892906 
L 93.992542 280.988572 
L 94.770268 266.440468 
L 95.25269 240.410793 
L 95.687903 171.605726 
L 96.013308 68.815715 
L 96.236533 47.885679 
L 96.629897 58.211501 
L 96.763873 60.181337 
L 97.167789 85.029954 
L 97.31069 83.832024 
L 97.605184 92.757448 
L 97.919995 112.565479 
L 98.089946 113.889951 
L 98.44414 123.178129 
L 98.611212 120.339372 
L 98.787899 125.953615 
L 98.990022 124.751467 
L 99.358398 129.792054 
L 99.548849 139.063359 
L 100.019305 151.83144 
L 100.270154 172.618062 
L 100.55193 174.8452 
L 100.794835 181.842969 
L 101.069695 182.964974 
L 101.338686 193.354066 
L 101.657075 193.792745 
L 101.947703 190.603888 
L 102.243631 191.489682 
L 102.551098 193.69573 
L 102.87933 199.967991 
L 103.564804 202.174039 
L 103.869139 202.743478 
L 104.214957 214.300974 
L 104.558413 216.667308 
L 104.901179 215.760424 
L 105.284608 221.982069 
L 105.695181 224.664758 
L 106.075398 231.46006 
L 106.532898 242.587314 
L 107.034209 242.452336 
L 107.507206 237.744976 
L 107.984645 246.122052 
L 108.537506 250.011107 
L 109.135743 252.824556 
L 109.802549 264.521249 
L 110.546258 271.303896 
L 111.537065 273.564779 
L 112.403179 273.91066 
L 113.220258 276.293867 
L 114.110692 275.446036 
L 115.070388 272.016749 
L 115.775538 263.011182 
L 117.593686 172.862709 
L 117.947372 152.236375 
L 118.313002 145.044575 
L 118.508568 134.61752 
L 118.951056 146.993321 
L 119.378196 154.189338 
L 119.58806 155.252291 
L 119.813055 153.413215 
L 120.047169 154.982334 
L 120.244261 157.669242 
L 120.477949 158.964187 
L 120.709692 162.385038 
L 120.953567 168.990526 
L 121.197135 170.673534 
L 121.697994 187.250527 
L 121.963425 184.45395 
L 122.283138 188.866046 
L 122.568503 188.186937 
L 122.844008 190.080848 
L 123.724058 203.945626 
L 124.028874 201.769105 
L 124.355856 205.721431 
L 124.675762 212.58844 
L 125.028904 216.823377 
L 125.380859 223.007059 
L 125.79154 227.545696 
L 126.20158 230.63332 
L 126.59522 224.863007 
L 127.007442 221.707895 
L 127.664367 210.323339 
L 128.001833 209.386929 
L 128.316297 203.663016 
L 128.644305 206.632533 
L 128.94527 202.325889 
L 129.601806 214.996955 
L 129.948046 217.257837 
L 130.287255 216.591383 
L 130.64607 223.019713 
L 131.039524 224.512908 
L 131.412478 225.137182 
L 131.795858 224.820827 
L 132.209849 225.803636 
L 132.635139 228.494761 
L 133.088708 237.183974 
L 133.527718 241.844935 
L 134.010152 242.743382 
L 134.509356 249.357307 
L 135.093224 260.092281 
L 135.765051 262.365818 
L 136.511747 265.419697 
L 137.35438 271.029722 
L 138.203619 273.581651 
L 139.226968 284.451603 
L 140.368481 277.728009 
L 142.119994 247.096425 
L 142.442192 229.131689 
L 142.933285 185.833258 
L 143.26309 134.917002 
L 143.39485 116.762453 
L 143.53175 113.215061 
L 143.875576 113.940568 
L 144.05727 113.236151 
L 144.233387 110.726403 
L 144.57749 128.387438 
L 144.775628 125.481192 
L 144.991092 129.572715 
L 145.409496 158.280861 
L 145.819063 160.815918 
L 146.035641 163.270831 
L 146.253711 161.92105 
L 146.473046 164.194587 
L 146.697552 164.245204 
L 146.932151 173.436366 
L 147.388964 178.485389 
L 147.622939 181.893585 
L 147.896207 187.879019 
L 148.437571 192.662304 
L 149.012123 185.744678 
L 149.308443 191.055221 
L 149.593028 198.512759 
L 149.866047 201.047816 
L 150.138989 200.815822 
L 150.435059 204.363214 
L 150.798366 210.492062 
L 151.144343 212.626403 
L 151.481691 219.944744 
L 152.279078 232.282583 
L 153.414262 252.449149 
L 154.033909 259.054637 
L 154.728316 264.947273 
L 155.475458 269.962552 
L 156.248104 269.975206 
L 157.165272 270.173455 
L 158.048907 268.874291 
L 158.893889 268.874291 
L 159.600559 262.108516 
L 160.295345 264.183804 
L 160.936793 252.51242 
L 161.38625 236.171638 
L 162.573963 172.845837 
L 162.912474 147.035501 
L 163.09122 140.501719 
L 163.251373 139.624362 
L 163.408927 139.839483 
L 163.607141 142.100366 
L 163.810057 142.066621 
L 164.206512 150.397298 
L 164.393743 153.042025 
L 164.808464 164.359092 
L 165.24402 170.81273 
L 165.466012 172.677115 
L 165.680058 175.78161 
L 165.932519 185.111969 
L 166.206292 188.380968 
L 166.488797 194.315785 
L 166.77195 202.692861 
L 167.068668 195.382955 
L 167.957923 201.440096 
L 168.233361 205.329151 
L 168.864255 207.298987 
L 169.175502 200.410888 
L 169.480305 197.94332 
L 169.778688 201.326208 
L 170.096767 207.754538 
L 170.457923 206.210727 
L 170.788796 207.501454 
L 171.120505 204.076386 
L 172.181251 232.497704 
L 172.624551 232.700171 
L 173.0248 242.33423 
L 173.502014 242.637931 
L 173.942646 237.335824 
L 174.440022 248.673981 
L 175.041404 258.413492 
L 175.669017 259.11369 
L 176.244991 261.539077 
L 176.938358 260.387546 
L 177.578399 256.785319 
L 178.13335 252.38166 
L 178.645635 243.658702 
L 179.112143 241.317677 
L 179.546128 235.593763 
L 179.888535 224.765992 
L 180.158048 211.736391 
L 180.410655 208.248052 
L 181.190686 184.491913 
L 181.663111 178.797526 
L 181.908054 177.308549 
L 182.148733 178.536006 
L 182.421635 179.088573 
L 182.999063 194.315785 
L 183.580128 208.370376 
L 183.927309 214.950556 
L 184.285238 215.587484 
L 184.627297 223.095638 
L 185.007622 228.747845 
L 185.468465 231.805941 
L 185.897937 228.849078 
L 186.751221 239.54609 
L 187.73536 251.344016 
L 188.311111 248.260611 
L 188.884779 255.384921 
L 189.479301 251.057187 
L 189.995749 245.666501 
L 190.465072 243.367656 
L 190.877386 238.268016 
L 191.348164 245.383891 
L 191.840887 246.084089 
L 192.296336 242.043184 
L 193.643291 204.354778 
L 193.943014 210.293813 
L 194.631681 175.1489 
L 194.857473 176.793946 
L 195.10181 176.342613 
L 195.368486 172.626498 
L 196.168042 192.286896 
L 196.463617 194.838825 
L 196.752264 196.20126 
L 197.050069 200.938146 
L 198.434958 239.271915 
L 198.914891 243.544815 
L 199.858951 247.429652 
L 200.373942 253.406649 
L 200.919552 255.068567 
L 201.481336 243.24955 
L 201.906831 239.145373 
L 202.359127 245.645411 
L 202.901389 258.240551 
L 203.570056 266.313926 
L 204.328859 269.456384 
L 205.068405 258.303822 
L 205.657443 256.097774 
L 206.715254 247.551976 
L 207.784552 216.410006 
L 208.290556 193.037712 
L 208.889907 150.570239 
L 209.063069 147.86646 
L 209.276051 147.90864 
L 209.489351 149.186714 
L 209.910801 162.878551 
L 210.123329 166.932111 
L 210.628373 179.219333 
L 210.872074 182.370227 
L 211.141264 183.293983 
L 211.393199 180.299157 
L 211.670829 192.662304 
L 211.964306 197.230468 
L 212.256827 198.365127 
L 212.927586 223.458392 
L 213.338055 232.590501 
L 213.771103 233.53113 
L 214.210298 237.399095 
L 214.669974 235.589545 
L 215.078188 240.326432 
L 215.573348 251.112022 
L 216.571425 240.680749 
L 217.002112 239.073666 
L 217.554596 245.286875 
L 218.081214 244.709 
L 218.57333 247.986436 
L 219.043683 243.186279 
L 219.462426 236.171638 
L 219.851703 234.986362 
L 220.253128 233.337099 
L 220.655097 229.709563 
L 221.031129 224.930496 
L 221.399153 233.332881 
L 221.769848 231.738452 
L 222.146391 227.170289 
L 222.523701 228.022338 
L 223.313328 224.698503 
L 223.683342 225.192016 
L 224.005001 222.766629 
L 224.621643 206.79282 
L 224.91745 200.971891 
L 225.180463 190.823228 
L 225.457003 190.051322 
L 225.749363 191.898834 
L 226.033577 196.732736 
L 226.31688 205.535836 
L 227.205932 191.662623 
L 227.5099 195.222669 
L 227.831166 204.06795 
L 228.926296 222.471365 
L 229.339873 225.415574 
L 229.721845 234.733278 
L 230.15941 242.123327 
L 230.622009 238.677168 
L 231.053272 241.305022 
L 231.567854 251.626626 
L 232.154625 254.937807 
L 232.776446 259.864506 
L 233.49431 266.832748 
L 234.261649 265.833067 
L 234.99503 266.95929 
L 235.845376 271.029722 
L 236.681103 266.107241 
L 237.414479 268.262672 
L 238.143192 266.933982 
L 238.723249 257.164945 
L 239.28922 252.9047 
L 239.802568 242.207688 
L 240.16012 232.307891 
L 240.490194 218.64558 
L 240.789219 211.415818 
L 241.644904 165.704654 
L 241.849865 163.05571 
L 242.022333 154.594273 
L 242.230641 151.860967 
L 242.431515 152.299646 
L 242.635719 153.265582 
L 242.830669 151.666936 
L 243.033416 154.573182 
L 243.235928 150.519622 
L 243.442959 156.686433 
L 243.659038 158.694231 
L 244.42342 181.100589 
L 244.695878 191.586697 
L 244.998059 196.968948 
L 245.585869 202.182475 
L 245.862421 200.090315 
L 246.14628 204.396959 
L 246.446952 207.066994 
L 247.027486 193.248615 
L 247.286331 194.066919 
L 247.572733 199.335282 
L 247.89147 193.143163 
L 248.850655 217.342199 
L 249.216893 221.589789 
L 250.045829 238.980869 
L 250.537499 239.529217 
L 251.048635 248.661327 
L 251.629005 250.053288 
L 252.20569 250.129213 
L 252.753883 250.319026 
L 253.305039 247.206095 
L 253.803117 236.585008 
L 254.187664 236.576572 
L 254.606983 233.699852 
L 254.995447 224.896752 
L 255.358235 225.200453 
L 255.752236 222.100175 
L 256.116252 220.19361 
L 256.464352 219.792894 
L 256.834531 224.593051 
L 257.18795 225.744583 
L 257.553833 227.440245 
L 257.904984 227.301049 
L 258.291821 231.122615 
L 258.725282 233.273828 
L 259.638334 242.806653 
L 260.106733 231.017163 
L 260.738163 202.6085 
L 261.05991 196.35311 
L 261.359394 197.648056 
L 261.674515 191.409539 
L 261.965193 192.615905 
L 262.271291 194.695411 
L 262.565406 206.940452 
L 263.197658 220.155648 
L 263.54392 221.602444 
L 263.88532 208.264924 
L 264.193494 201.760669 
L 264.511886 208.674076 
L 264.857445 205.881718 
L 265.166106 216.717925 
L 265.505823 217.017408 
L 265.857497 212.170852 
L 266.190342 216.325645 
L 266.547228 219.38796 
L 266.909305 219.565119 
L 267.878398 207.012159 
L 268.219702 211.107899 
L 268.554027 208.703603 
L 268.88411 203.148412 
L 269.197157 202.701297 
L 269.538242 200.697716 
L 269.875114 202.929073 
L 270.203926 207.113392 
L 270.881978 221.994724 
L 271.646138 225.70662 
L 272.001778 223.500573 
L 272.969052 210.584859 
L 273.279936 208.214307 
L 273.601173 214.473915 
L 273.96349 216.88243 
L 274.333961 222.104393 
L 274.696475 217.57841 
L 275.066613 217.641681 
L 275.440493 230.886403 
L 275.926933 238.702477 
L 276.415558 249.661008 
L 276.982056 250.98548 
L 277.512835 241.254406 
L 277.934315 240.971795 
L 278.392216 239.520781 
L 278.887221 243.911786 
L 279.434829 254.305097 
L 279.95964 249.576647 
L 280.421144 249.661008 
L 280.932197 256.86968 
L 281.530633 256.21588 
L 282.052836 250.639599 
L 282.53996 247.931602 
L 283.043168 250.356989 
L 283.623034 249.669444 
L 284.095694 232.24462 
L 284.455962 228.752063 
L 284.801694 220.142993 
L 285.573722 181.125898 
L 286.015396 174.988614 
L 286.242088 164.266294 
L 286.436044 160.647195 
L 286.856852 164.413926 
L 287.075715 163.22865 
L 287.286241 166.23613 
L 287.498643 163.190688 
L 287.701426 162.115081 
L 289.308892 206.68315 
L 289.661408 213.364564 
L 290.024043 217.903201 
L 290.396814 224.040485 
L 291.118744 230.338055 
L 291.525667 233.484731 
L 291.987918 240.233634 
L 292.55096 245.033791 
L 293.105793 246.906612 
L 293.638532 244.755399 
L 294.154976 250.023762 
L 294.678918 245.73399 
L 295.161949 243.726191 
L 295.634629 233.535348 
L 295.959017 222.80881 
L 296.263491 221.885054 
L 296.579351 212.69811 
L 296.852327 213.24224 
L 297.170656 205.502092 
L 297.439593 194.817735 
L 297.704483 191.721675 
L 297.982404 185.149931 
L 298.250202 186.550328 
L 298.515523 183.989963 
L 298.791794 189.157092 
L 299.077806 188.174283 
L 299.662006 202.393378 
L 299.992637 215.047572 
L 300.347985 221.669933 
L 300.757638 221.63197 
L 301.148132 222.028468 
L 301.510754 225.491499 
L 301.883022 224.837699 
L 302.22195 224.635232 
L 302.573346 230.004828 
L 302.998417 232.172913 
L 303.42877 232.13495 
L 303.854898 230.097625 
L 304.233371 230.877967 
L 304.638521 232.236184 
L 305.554403 240.284251 
L 306.096068 254.47382 
L 306.710832 258.573778 
L 307.364966 257.637368 
L 308.059798 264.179586 
L 308.784193 264.622482 
L 309.483548 265.415479 
L 310.179179 260.90215 
L 311.530279 220.961298 
L 311.820387 216.194885 
L 312.312569 186.145394 
L 312.728847 158.647832 
L 312.92806 152.932355 
L 313.129056 152.122487 
L 313.336443 144.200962 
L 313.50967 144.673385 
L 313.702038 154.573182 
L 313.923084 155.901873 
L 314.148791 159.837327 
L 314.397027 161.052129 
L 314.63517 160.950896 
L 314.881423 167.134578 
L 315.417111 190.865408 
L 315.693478 196.838188 
L 316.024087 200.40667 
L 316.324257 201.836594 
L 316.976734 206.885617 
L 317.295666 207.746102 
L 317.644984 210.677657 
L 317.967271 210.584859 
L 318.290423 213.862295 
L 318.960295 211.044628 
L 320.10558 236.395196 
L 320.596777 233.375061 
L 321.064022 235.058069 
L 322.068959 255.266816 
L 322.818766 260.041665 
L 323.56452 257.873579 
L 324.232627 259.33303 
L 324.953049 259.632512 
L 325.571578 256.713612 
L 326.169828 262.159133 
L 326.872257 265.466095 
L 327.605331 266.98038 
L 328.42927 279.959365 
L 329.642884 283.392869 
L 330.796018 277.335729 
L 331.627273 274.273414 
L 332.493145 266.976162 
L 333.091173 256.549107 
L 333.551376 238.508446 
L 334.079521 183.192749 
L 334.377496 142.045531 
L 334.674391 117.808533 
L 334.84311 111.662813 
L 334.996794 112.898706 
L 335.309612 127.843308 
L 335.49364 124.447766 
L 335.839681 136.161331 
L 336.005414 136.152895 
L 336.178686 128.184971 
L 336.395289 131.947485 
L 336.821034 143.42062 
L 337.252433 144.091292 
L 337.460974 143.458583 
L 337.656802 154.758777 
L 337.879443 156.505056 
L 338.306664 170.099877 
L 338.554223 174.781929 
L 338.811711 176.836126 
L 339.059351 183.601901 
L 339.664359 205.240572 
L 340.380869 220.421386 
L 340.747699 223.774747 
L 341.144072 228.798462 
L 341.606172 237.268335 
L 342.130367 237.441275 
L 342.621766 241.760573 
L 343.710188 259.548151 
L 344.478216 276.082963 
L 345.819599 285.847783 
L 347.378592 286.670305 
L 348.615071 276.597567 
L 349.564935 277.015156 
L 350.578873 276.104054 
L 351.37273 272.101111 
L 352.110586 267.625744 
L 352.696881 252.491329 
L 353.598522 203.494293 
L 353.790468 177.789409 
L 354.187394 93.326887 
L 354.445379 95.132219 
L 354.591982 92.905081 
L 355.073269 114.164125 
L 355.2508 106.795167 
L 355.438101 112.34614 
L 355.610545 113.93635 
L 355.945998 130.509125 
L 356.132175 127.122019 
L 356.321786 135.916683 
L 356.758661 143.639959 
L 356.972092 142.285961 
L 357.186264 148.009874 
L 357.395312 149.152969 
L 357.614543 154.450858 
L 357.834454 164.696537 
L 358.042479 166.767606 
L 358.246049 164.139752 
L 358.709801 168.294546 
L 358.946789 168.302982 
L 359.200194 173.617743 
L 359.449471 181.640502 
L 359.714324 177.608032 
L 360.005923 186.288808 
L 360.282096 185.322872 
L 360.570409 189.330033 
L 361.225752 203.363533 
L 361.56203 203.106231 
L 361.915764 207.298987 
L 362.272218 223.061894 
L 362.702158 229.620984 
L 363.128453 231.434752 
L 363.612078 237.015251 
L 364.074682 238.563281 
L 364.555554 243.827425 
L 365.059688 243.624958 
L 365.632479 248.965027 
L 366.18689 259.518625 
L 366.801717 252.626307 
L 367.406559 249.542902 
L 367.936563 255.646441 
L 368.553466 265.318463 
L 369.357896 271.476837 
L 370.194271 268.751968 
L 370.893143 265.272064 
L 371.4794 254.562399 
L 372.298341 225.221543 
L 372.86041 202.013753 
L 373.856119 139.552655 
L 374.409298 147.381382 
L 374.598946 154.96968 
L 374.79539 155.817511 
L 375.006712 154.712378 
L 375.492988 180.155743 
L 375.741867 182.543167 
L 376.004654 183.142132 
L 376.266762 183.14635 
L 376.527402 180.383518 
L 376.777555 184.19243 
L 377.636522 206.611443 
L 377.968674 208.408338 
L 378.29214 201.710052 
L 378.609811 211.095245 
L 378.941668 211.660466 
L 379.267446 215.566393 
L 379.64051 211.95573 
L 379.980293 214.992737 
L 380.68774 223.555407 
L 381.071505 225.386047 
L 381.462214 222.753975 
L 381.836093 226.398383 
L 382.214815 220.290626 
L 382.508387 211.614067 
L 383.124754 206.527081 
L 383.411231 200.14515 
L 383.686374 199.60102 
L 383.980164 199.516658 
L 384.513844 193.813835 
L 384.789944 202.853147 
L 385.407477 207.530981 
L 386.368971 231.995754 
L 386.82721 232.666427 
L 387.286654 232.852021 
L 387.730586 240.87478 
L 388.31353 257.219779 
L 389.01344 260.092281 
L 389.739915 261.669837 
L 391.407593 275.108591 
L 392.479329 286.653433 
L 393.768244 287.134292 
L 395.125035 282.798122 
L 396.027947 275.083282 
L 396.740109 261.079308 
L 397.25151 245.982856 
L 397.634108 230.536304 
L 397.924258 213.233804 
L 398.156255 189.190837 
L 398.463987 138.148039 
L 398.775973 109.030741 
L 398.934827 109.49051 
L 399.237506 118.833523 
L 399.404611 117.804315 
L 399.579143 112.071965 
L 399.947419 124.595399 
L 400.125305 122.144703 
L 400.315456 129.884851 
L 400.511422 128.783936 
L 400.928907 149.19515 
L 401.153876 158.141665 
L 401.369269 158.538163 
L 401.819557 178.873451 
L 402.356527 194.269386 
L 402.66369 196.930985 
L 402.995013 196.935203 
L 403.280543 186.149612 
L 403.563359 185.976672 
L 404.391769 213.271766 
L 404.742813 217.401252 
L 405.103849 213.706227 
L 405.79768 222.382786 
L 406.149285 230.890621 
L 406.621882 239.018832 
L 407.096977 239.423766 
L 407.615313 255.110747 
L 408.243276 258.881697 
L 408.924995 260.927458 
L 409.589294 264.47485 
L 410.261392 264.099442 
L 410.885192 260.982293 
L 411.47407 253.782057 
L 411.959402 249.268728 
L 412.442554 243.355002 
L 413.393736 196.564013 
L 413.620792 188.254426 
L 413.847381 189.026332 
L 414.320404 173.465893 
L 414.569092 179.44289 
L 415.244832 166.995382 
L 415.492923 167.661836 
L 415.747246 168.880857 
L 416.002305 178.586623 
L 416.260911 180.252758 
L 416.535811 190.401421 
L 416.837517 207.919043 
L 417.176079 210.854816 
L 417.500506 206.345705 
L 418.285383 225.483063 
L 419.079912 231.071998 
L 419.539861 239.035704 
L 420.068023 250.196702 
L 420.668826 253.073422 
L 421.227928 251.289181 
L 421.821922 252.921572 
L 422.400147 258.662357 
L 423.09815 270.215636 
L 424.334052 287.092112 
L 425.875406 290.268314 
L 427.253147 286.961352 
L 429.698745 263.395026 
L 430.254685 248.252175 
L 430.625455 230.376018 
L 431.068858 175.941896 
L 431.217727 155.260727 
L 431.217727 155.260727 
" clip-path="url(#p9dcd009ddd)" style="fill: none; stroke: #1f77b4; stroke-width: 1.5; stroke-linecap: square"/>
   </g>
   <g id="line2d_13">
    <path d="M 55.572273 205.546381 
L 55.853527 210.536352 
L 56.122142 213.084063 
L 56.388673 209.066356 
L 57.187613 225.961813 
L 57.447693 224.597269 
L 57.725436 226.246533 
L 57.980991 225.615932 
L 58.638091 217.565756 
L 59.040918 218.858593 
L 59.427741 221.446375 
L 59.785029 220.824211 
L 60.16284 214.210286 
L 60.656114 195.85116 
L 61.215971 189.38065 
L 61.793558 187.982361 
L 62.976092 172.685551 
L 63.597043 160.818027 
L 64.250832 153.37947 
L 64.979052 138.884092 
L 66.497844 118.401171 
L 67.212737 120.276101 
L 68.199195 127.725202 
L 68.624567 137.061888 
L 69.033635 140.737931 
L 69.420748 137.684052 
L 69.83498 132.063482 
L 70.216787 142.442029 
L 70.514689 155.098331 
L 71.140467 211.565559 
L 71.532104 247.077444 
L 71.719221 250.736614 
L 72.098888 264.675208 
L 72.298906 263.409789 
L 72.707732 254.575053 
L 73.144743 248.163595 
L 73.385713 244.392646 
L 73.628866 247.254602 
L 73.860421 243.156753 
L 74.092704 242.785563 
L 74.352309 240.908524 
L 74.631022 243.310712 
L 74.883491 250.11445 
L 75.131266 249.777005 
L 75.369354 252.788703 
L 75.642776 249.144295 
L 75.908561 248.498931 
L 76.161137 240.857908 
L 76.457342 237.926353 
L 76.764386 231.959901 
L 77.12236 229.926794 
L 77.45409 230.401326 
L 77.772949 238.295434 
L 78.082826 237.449712 
L 78.400037 231.514895 
L 78.752078 231.274465 
L 79.387642 225.099219 
L 79.705172 226.68732 
L 80.031235 227.545696 
L 80.36294 229.051545 
L 80.677718 226.978367 
L 80.98618 234.48863 
L 81.30647 233.974027 
L 81.61498 235.716087 
L 81.941977 233.035507 
L 82.301941 221.577135 
L 85.350462 151.707007 
L 88.311913 106.506229 
L 89.874656 83.979656 
L 92.702239 47.094792 
L 93.992542 40.284727 
L 94.770268 44.930925 
L 95.25269 64.945641 
L 95.687903 133.463879 
L 96.126306 254.998969 
L 96.354862 268.870073 
L 96.629897 272.432229 
L 96.763873 273.248424 
L 97.026068 267.326262 
L 97.167789 265.97859 
L 97.456058 273.528925 
L 97.919995 260.22515 
L 98.089946 264.708953 
L 98.44414 260.720773 
L 98.611212 263.203104 
L 98.787899 260.005811 
L 98.990022 262.074772 
L 99.174833 262.760207 
L 99.358398 265.906883 
L 99.548849 260.071191 
L 99.769867 261.92503 
L 100.019305 261.404099 
L 100.270154 247.364272 
L 100.55193 247.537213 
L 100.794835 242.663239 
L 101.069695 240.402357 
L 101.338686 231.576057 
L 101.657075 232.084334 
L 102.243631 236.835983 
L 102.551098 238.204745 
L 102.87933 230.188314 
L 103.209291 231.097307 
L 103.869139 233.784214 
L 104.214957 224.285133 
L 104.558413 220.358115 
L 104.901179 221.127911 
L 105.284608 215.789951 
L 105.695181 214.442279 
L 106.075398 212.248886 
L 106.532898 201.393697 
L 107.034209 202.228874 
L 107.507206 202.678098 
L 107.984645 193.545988 
L 108.537506 187.174602 
L 109.135743 183.71368 
L 109.802549 171.253518 
L 110.546258 161.539316 
L 112.403179 142.840636 
L 113.220258 129.967104 
L 114.110692 119.310164 
L 115.070388 113.495562 
L 115.775538 115.615139 
L 116.633305 151.932674 
L 117.385483 191.947342 
L 117.947372 234.056279 
L 118.313002 246.417317 
L 118.508568 259.453245 
L 118.727436 257.418028 
L 119.160056 251.698333 
L 119.378196 249.289818 
L 119.58806 248.768887 
L 119.813055 253.609116 
L 120.047169 255.055912 
L 120.244261 254.650978 
L 120.709692 258.478872 
L 120.953567 253.75464 
L 121.197135 254.927261 
L 121.436573 251.576009 
L 121.697994 243.818989 
L 121.963425 245.546286 
L 122.283138 243.160971 
L 122.568503 243.498416 
L 122.844008 244.105817 
L 123.404984 234.136422 
L 123.724058 230.614338 
L 124.028874 231.751107 
L 124.355856 231.379917 
L 124.675762 224.380039 
L 125.380859 216.011399 
L 126.20158 202.38916 
L 126.59522 203.814866 
L 127.007442 206.179091 
L 127.664367 218.040288 
L 128.001833 221.062531 
L 128.316297 226.250751 
L 128.644305 222.465038 
L 128.94527 229.821342 
L 129.260827 226.358311 
L 129.601806 220.343351 
L 129.948046 218.628708 
L 130.287255 221.509646 
L 130.64607 217.9496 
L 131.412478 214.50555 
L 131.795858 215.216294 
L 132.635139 212.094926 
L 133.088708 200.505795 
L 133.527718 194.910532 
L 134.010152 193.529116 
L 135.093224 171.217664 
L 135.765051 160.455273 
L 138.203619 128.564597 
L 139.226968 107.368824 
L 140.368481 99.246941 
L 141.108927 103.789796 
L 141.663118 105.930464 
L 142.119994 108.75024 
L 142.442192 125.225999 
L 142.933285 168.522321 
L 143.26309 222.062213 
L 143.53175 254.745885 
L 143.875576 264.654118 
L 144.05727 266.372979 
L 144.233387 270.318978 
L 144.398185 261.477915 
L 144.57749 259.120017 
L 144.775628 265.628491 
L 144.991092 264.835495 
L 145.409496 244.763835 
L 145.629847 244.565586 
L 145.819063 244.234468 
L 146.035641 244.101599 
L 146.253711 246.49746 
L 146.697552 247.509795 
L 146.932151 240.733475 
L 147.16379 239.274024 
L 147.388964 236.850746 
L 147.622939 238.111948 
L 147.896207 234.509721 
L 148.181985 233.140959 
L 148.437571 232.769769 
L 149.012123 238.095075 
L 149.308443 233.488949 
L 149.593028 231.278683 
L 149.866047 230.257912 
L 150.138989 233.577528 
L 150.435059 233.659781 
L 150.798366 227.84307 
L 151.144343 226.581869 
L 151.481691 221.028787 
L 151.875304 216.523894 
L 152.279078 214.433843 
L 152.802092 207.590034 
L 153.414262 192.554743 
L 154.033909 185.272255 
L 155.475458 163.005093 
L 156.248104 155.42734 
L 157.165272 144.047003 
L 158.048907 138.029934 
L 158.893889 130.973112 
L 159.600559 130.675738 
L 160.295345 122.633999 
L 160.936793 126.088593 
L 161.38625 136.682262 
L 161.716309 148.161724 
L 162.197988 176.180217 
L 163.09122 242.557788 
L 163.408927 251.373542 
L 163.810057 253.180983 
L 164.011658 251.441031 
L 164.206512 251.272309 
L 164.393743 253.79682 
L 164.808464 248.21843 
L 165.016995 245.913258 
L 165.466012 244.160652 
L 165.680058 241.574979 
L 165.932519 233.318118 
L 166.206292 230.6755 
L 166.77195 217.205112 
L 167.068668 224.238734 
L 167.373728 224.962132 
L 167.689852 224.884098 
L 167.957923 223.097747 
L 168.233361 222.057995 
L 168.534935 223.319196 
L 168.864255 220.187283 
L 169.175502 227.708092 
L 169.480305 230.831569 
L 169.778688 227.600531 
L 170.096767 222.302642 
L 170.457923 223.09142 
L 170.788796 225.854253 
L 171.120505 231.949356 
L 172.181251 209.176026 
L 172.624551 206.505991 
L 173.0248 198.79326 
L 173.502014 196.521833 
L 173.942646 197.215704 
L 175.041404 172.474648 
L 176.938358 152.227938 
L 177.578399 146.482935 
L 178.13335 143.688467 
L 178.645635 151.061644 
L 179.112143 152.080306 
L 179.546128 155.115204 
L 179.888535 165.915557 
L 180.158048 180.61973 
L 180.687529 199.541967 
L 181.190686 221.408413 
L 181.420411 225.210998 
L 181.663111 231.854449 
L 181.908054 234.20602 
L 182.421635 242.914214 
L 182.709258 238.092966 
L 182.999063 236.369887 
L 183.580128 227.381192 
L 183.927309 224.709048 
L 184.285238 224.164918 
L 184.627297 217.363289 
L 185.468465 208.598151 
L 185.897937 212.185615 
L 186.751221 200.379253 
L 187.251428 193.725256 
L 187.73536 183.726334 
L 188.311111 181.583558 
L 188.884779 172.850055 
L 189.479301 172.305925 
L 190.465072 177.272696 
L 190.877386 180.111453 
L 191.348164 174.678586 
L 191.840887 171.20501 
L 192.296336 169.882647 
L 193.045483 189.443921 
L 193.355621 202.186693 
L 193.643291 208.62135 
L 193.943014 203.98148 
L 194.631681 242.068492 
L 194.857473 243.460453 
L 195.10181 246.162124 
L 195.368486 250.707088 
L 195.879623 248.460969 
L 196.168042 241.467418 
L 196.463617 237.137575 
L 196.752264 235.956517 
L 197.360583 222.178209 
L 197.678221 215.621228 
L 198.006292 202.34698 
L 198.434958 190.319169 
L 198.914891 184.795614 
L 199.365342 178.185907 
L 200.919552 163.59984 
L 201.481336 170.083005 
L 201.906831 171.496057 
L 203.570056 141.347441 
L 204.328859 132.384054 
L 205.657443 139.006416 
L 206.203674 139.947044 
L 206.715254 138.782858 
L 207.453709 152.156231 
L 207.784552 162.897532 
L 208.501014 207.653305 
L 208.889907 239.368931 
L 209.276051 249.422687 
L 209.489351 252.906809 
L 209.700296 250.650144 
L 209.910801 249.992126 
L 210.123329 248.467296 
L 210.368988 242.277286 
L 210.628373 239.394239 
L 210.872074 239.900407 
L 211.141264 239.940479 
L 211.393199 244.630966 
L 211.670829 232.691735 
L 211.964306 230.772516 
L 212.256827 230.335946 
L 212.927586 207.921152 
L 213.338055 200.771533 
L 213.771103 199.967991 
L 214.210298 195.686656 
L 214.669974 195.207906 
L 215.078188 191.997959 
L 215.573348 182.570585 
L 216.103566 183.232821 
L 216.571425 186.158048 
L 217.002112 184.93481 
L 217.554596 177.255824 
L 218.081214 174.651169 
L 218.57333 169.370152 
L 219.043683 169.87632 
L 219.462426 176.707475 
L 219.851703 180.305484 
L 220.253128 180.830633 
L 220.655097 180.780016 
L 221.031129 183.102061 
L 221.399153 177.529998 
L 221.769848 180.210578 
L 222.146391 184.234611 
L 222.931392 186.89621 
L 223.313328 188.975715 
L 223.683342 188.522274 
L 224.005001 191.485464 
L 224.91745 215.851113 
L 225.180463 223.544862 
L 225.457003 228.245895 
L 225.749363 228.724645 
L 226.033577 226.377293 
L 226.31688 220.522619 
L 227.205932 234.528702 
L 227.5099 235.359661 
L 228.165503 232.198221 
L 229.339873 216.458514 
L 229.721845 208.560189 
L 230.15941 203.882355 
L 230.622009 204.367432 
L 231.053272 198.367236 
L 231.567854 184.186103 
L 232.776446 167.526858 
L 233.49431 154.722924 
L 234.99503 141.212463 
L 235.845376 131.688074 
L 236.681103 126.348004 
L 237.414479 118.879921 
L 238.143192 118.766034 
L 238.723249 124.344424 
L 239.28922 126.417602 
L 239.802568 134.619629 
L 240.16012 144.915924 
L 241.269056 199.170777 
L 241.644904 222.985969 
L 241.849865 226.662012 
L 242.230641 244.51286 
L 242.431515 248.041271 
L 242.635719 249.007208 
L 242.830669 254.395785 
L 243.033416 255.399685 
L 243.235928 259.569241 
L 243.442959 259.067292 
L 243.659038 259.248668 
L 243.88436 258.126663 
L 244.142194 258.527379 
L 244.695878 240.824163 
L 245.585869 228.461016 
L 245.862421 226.828625 
L 246.14628 224.318877 
L 246.446952 219.590427 
L 247.027486 233.035507 
L 247.286331 234.855602 
L 247.572733 236.051423 
L 247.89147 242.694875 
L 248.484495 235.505184 
L 248.850655 224.436983 
L 249.216893 224.171245 
L 249.613801 218.027634 
L 250.045829 207.254698 
L 250.537499 204.299943 
L 251.048635 190.770502 
L 251.629005 183.652518 
L 252.753883 173.797011 
L 253.305039 178.354629 
L 253.803117 186.43855 
L 254.187664 185.240619 
L 254.606983 185.284909 
L 254.995447 194.338984 
L 255.358235 195.674002 
L 255.752236 198.805915 
L 256.116252 197.905358 
L 256.464352 200.678735 
L 256.834531 197.567913 
L 257.18795 197.603766 
L 257.553833 198.381999 
L 257.904984 195.777344 
L 258.291821 193.807508 
L 259.172504 186.236083 
L 259.638334 180.442571 
L 260.106733 187.415032 
L 260.44329 205.5506 
L 261.05991 223.705149 
L 261.359394 227.627949 
L 261.674515 235.701324 
L 261.965193 236.665152 
L 262.271291 234.83873 
L 262.565406 223.975105 
L 262.881978 221.222818 
L 263.197658 213.929784 
L 263.54392 210.555333 
L 264.193494 227.005784 
L 264.511886 222.079085 
L 264.857445 225.179362 
L 265.166106 214.161778 
L 265.505823 213.796915 
L 265.857497 220.547928 
L 266.190342 218.289154 
L 266.547228 214.037345 
L 266.909305 211.668902 
L 267.878398 223.021822 
L 268.219702 221.271326 
L 268.88411 226.769573 
L 269.197157 227.376974 
L 269.538242 229.736981 
L 269.875114 227.750273 
L 270.203926 227.206142 
L 270.523521 223.939251 
L 270.881978 219.090586 
L 271.286103 218.21112 
L 271.646138 214.079526 
L 272.001778 211.951512 
L 272.641905 220.301171 
L 272.969052 221.250235 
L 273.279936 225.546334 
L 273.601173 222.724449 
L 273.96349 221.667824 
L 274.333961 218.812194 
L 275.066613 224.101647 
L 275.440493 213.332928 
L 276.415558 194.499271 
L 276.982056 193.7822 
L 277.512835 198.856531 
L 277.934315 197.184069 
L 278.392216 196.211805 
L 278.887221 189.796129 
L 279.434829 174.748184 
L 279.95964 173.065177 
L 280.421144 170.236964 
L 280.932197 160.499563 
L 281.530633 155.532792 
L 282.052836 159.609551 
L 282.53996 161.081656 
L 283.043168 158.234462 
L 283.623034 153.740115 
L 284.095694 167.617546 
L 284.455962 169.317426 
L 284.801694 176.439628 
L 285.573722 213.754735 
L 286.242088 233.914974 
L 286.645131 246.027146 
L 286.856852 244.611985 
L 287.075715 247.005737 
L 287.286241 245.862641 
L 287.701426 255.34485 
L 288.141202 250.9201 
L 288.432702 249.445887 
L 290.758744 205.124575 
L 291.118744 202.610609 
L 291.987918 193.204325 
L 292.55096 184.620564 
L 293.105793 179.742373 
L 293.638532 176.821363 
L 294.154976 170.50903 
L 295.161949 163.281376 
L 295.634629 170.234855 
L 295.959017 179.514597 
L 296.263491 182.157214 
L 296.579351 195.005439 
L 296.852327 198.909257 
L 297.982404 231.401007 
L 298.250202 232.691735 
L 298.515523 237.407531 
L 298.791794 235.595872 
L 299.077806 238.82691 
L 299.662006 227.925322 
L 299.992637 215.59592 
L 300.347985 207.792501 
L 300.757638 205.624416 
L 301.148132 205.080285 
L 301.510754 202.47774 
L 301.883022 201.961027 
L 302.22195 205.278534 
L 302.573346 203.251754 
L 302.998417 201.914628 
L 303.42877 197.970738 
L 303.854898 200.841131 
L 304.233371 198.753189 
L 304.638521 198.341928 
L 305.554403 191.181763 
L 306.096068 176.551407 
L 306.710832 168.096297 
L 307.364966 163.03251 
L 308.059798 150.93932 
L 308.784193 144.042784 
L 309.483548 134.334909 
L 310.179179 131.266267 
L 311.530279 163.209669 
L 311.820387 167.088179 
L 312.090376 178.500153 
L 312.728847 230.095516 
L 313.50967 253.434067 
L 313.702038 249.087351 
L 313.923084 251.122567 
L 314.148791 251.907127 
L 314.63517 259.586114 
L 314.881423 258.989257 
L 315.693478 234.490739 
L 316.024087 233.166267 
L 316.651692 233.904428 
L 317.295666 231.957792 
L 317.644984 229.336265 
L 317.967271 228.336583 
L 318.290423 224.839808 
L 318.622482 227.824089 
L 318.960295 228.925003 
L 319.293662 219.993252 
L 320.10558 210.766236 
L 320.596777 213.571249 
L 321.064022 214.060544 
L 321.481908 206.463811 
L 322.068959 191.900943 
L 322.818766 179.972257 
L 323.56452 175.404093 
L 324.232627 168.347272 
L 324.953049 164.707082 
L 325.571578 160.872861 
L 326.169828 148.165942 
L 326.872257 139.719268 
L 327.605331 134.550031 
L 328.42927 116.842596 
L 329.642884 101.471969 
L 331.627273 85.141733 
L 332.493145 85.774443 
L 333.091173 95.389521 
L 333.551376 111.009013 
L 334.079521 167.554275 
L 334.520748 233.079797 
L 334.84311 255.907961 
L 334.996794 258.421928 
L 335.14728 256.306569 
L 335.309612 250.81254 
L 335.49364 256.989895 
L 335.839681 253.256908 
L 336.005414 257.173381 
L 336.178686 266.17473 
L 336.395289 264.38838 
L 336.591893 261.456825 
L 336.821034 260.779826 
L 337.044497 259.060965 
L 337.460974 262.380581 
L 337.656802 254.815483 
L 337.879443 256.901316 
L 338.306664 250.082814 
L 338.554223 248.576965 
L 338.811711 250.333789 
L 339.059351 248.096106 
L 339.664359 233.265392 
L 340.013783 231.128942 
L 340.747699 216.045144 
L 341.144072 210.873797 
L 341.606172 202.547338 
L 342.130367 204.179729 
L 342.621766 200.575393 
L 343.710188 178.476953 
L 344.478216 155.359851 
L 345.819599 130.384692 
L 347.378592 112.746856 
L 348.615071 104.688244 
L 350.578873 84.584949 
L 351.37273 82.515988 
L 352.110586 81.318058 
L 352.696881 92.036159 
L 353.598522 138.768095 
L 353.790468 163.871905 
L 354.187394 247.994873 
L 354.445379 257.827181 
L 354.74404 265.360644 
L 355.073269 260.107045 
L 355.2508 269.8571 
L 355.438101 269.608235 
L 355.610545 270.742894 
L 355.945998 257.69853 
L 356.132175 263.780979 
L 356.321786 258.346003 
L 356.549816 258.609632 
L 356.758661 256.977241 
L 356.972092 260.85786 
L 357.186264 257.331558 
L 357.395312 257.34843 
L 357.614543 254.40844 
L 357.834454 246.953011 
L 358.042479 246.891849 
L 358.246049 252.398532 
L 358.472621 252.03156 
L 358.709801 249.975254 
L 358.946789 250.732396 
L 359.449471 245.527305 
L 359.714324 253.294871 
L 360.005923 248.172031 
L 360.282096 250.392842 
L 360.897613 244.398973 
L 361.225752 235.945972 
L 361.56203 237.601562 
L 361.915764 235.73085 
L 362.272218 222.621106 
L 362.702158 214.134361 
L 363.128453 211.329348 
L 363.612078 202.446104 
L 364.074682 199.084307 
L 364.555554 192.930151 
L 365.059688 192.092865 
L 365.632479 181.07739 
L 366.18689 167.111379 
L 366.801717 170.787422 
L 367.406559 168.975763 
L 369.357896 135.165868 
L 370.194271 129.56006 
L 370.893143 129.551624 
L 371.4794 133.162287 
L 372.589019 167.43617 
L 373.306293 208.800618 
L 373.856119 246.784288 
L 374.223948 252.499765 
L 374.409298 253.952889 
L 374.598946 249.485958 
L 374.79539 251.630844 
L 375.006712 256.184245 
L 375.492988 235.990261 
L 375.741867 236.926672 
L 376.004654 238.65186 
L 376.266762 238.816364 
L 376.527402 241.338767 
L 376.777555 241.100446 
L 377.028802 237.238808 
L 377.636522 224.432765 
L 377.968674 221.931453 
L 378.29214 228.901804 
L 378.609811 221.866073 
L 378.941668 222.813028 
L 379.267446 220.155648 
L 379.64051 223.669295 
L 380.31391 215.996636 
L 381.071505 204.825092 
L 381.462214 206.00826 
L 381.836093 202.374397 
L 382.214815 204.034205 
L 382.508387 210.049165 
L 382.791043 209.557761 
L 383.124754 210.702965 
L 383.411231 217.974908 
L 383.686374 217.460304 
L 383.980164 215.161459 
L 384.243085 218.352425 
L 384.513844 223.468937 
L 384.789944 217.399142 
L 385.106401 215.209967 
L 385.407477 214.248248 
L 385.692943 212.535714 
L 386.368971 198.687809 
L 386.82721 198.945111 
L 387.286654 200.649209 
L 387.730586 193.777982 
L 388.31353 176.758092 
L 389.01344 165.177396 
L 389.739915 157.768366 
L 390.575051 146.55886 
L 391.407593 133.409044 
L 392.479329 112.961977 
L 393.768244 97.24336 
L 395.125035 86.989245 
L 396.027947 86.354427 
L 396.740109 92.097321 
L 397.25151 105.774395 
L 397.634108 122.180557 
L 397.924258 140.370959 
L 398.156255 164.437126 
L 398.463987 223.338177 
L 398.775973 256.842263 
L 398.934827 258.331239 
L 399.085888 257.519262 
L 399.237506 257.563552 
L 399.579143 270.995978 
L 399.947419 263.6692 
L 400.125305 269.26868 
L 400.315456 266.168403 
L 400.511422 271.900753 
L 400.928907 260.752408 
L 401.153876 255.772983 
L 401.369269 257.898888 
L 402.356527 233.2907 
L 402.66369 231.194322 
L 402.995013 231.647764 
L 403.280543 241.496944 
L 403.563359 244.367337 
L 404.391769 226.748482 
L 404.742813 221.250235 
L 405.103849 221.644624 
L 405.79768 212.495643 
L 406.149285 203.673561 
L 406.621882 195.355538 
L 407.096977 190.156774 
L 407.615313 175.427293 
L 408.243276 167.56693 
L 408.924995 162.473617 
L 409.589294 154.064905 
L 410.261392 149.058063 
L 410.885192 147.010193 
L 411.959402 151.582575 
L 412.442554 156.384841 
L 413.393736 205.569581 
L 413.620792 213.077735 
L 413.847381 213.465797 
L 414.320404 232.529339 
L 414.569092 230.618556 
L 414.80794 234.674225 
L 415.492923 252.873064 
L 415.747246 256.091447 
L 416.002305 250.808322 
L 416.260911 251.18162 
L 416.535811 244.445371 
L 416.837517 230.13137 
L 417.176079 227.047965 
L 417.500506 232.392252 
L 418.696049 210.150399 
L 419.079912 205.917571 
L 419.539861 197.521514 
L 420.068023 182.568476 
L 420.668826 175.574925 
L 421.227928 175.408311 
L 421.821922 172.759367 
L 422.400147 162.927059 
L 423.09815 144.846326 
L 424.334052 121.91271 
L 427.253147 81.790481 
L 428.229516 75.743886 
L 429.061188 74.676715 
L 429.698745 74.145239 
L 430.254685 84.106198 
L 430.625455 101.900103 
L 431.068858 158.384203 
L 431.217727 180.039746 
L 431.217727 180.039746 
" clip-path="url(#p9dcd009ddd)" style="fill: none; stroke: #ff7f0e; stroke-width: 1.5; stroke-linecap: square"/>
   </g>
   <g id="patch_3">
    <path d="M 36.79 303.64 
L 36.79 27.744 
" style="fill: none; stroke: #000000; stroke-width: 0.8; stroke-linejoin: miter; stroke-linecap: square"/>
   </g>
   <g id="patch_4">
    <path d="M 450 303.64 
L 450 27.744 
" style="fill: none; stroke: #000000; stroke-width: 0.8; stroke-linejoin: miter; stroke-linecap: square"/>
   </g>
   <g id="patch_5">
    <path d="M 36.79 303.64 
L 450 303.64 
" style="fill: none; stroke: #000000; stroke-width: 0.8; stroke-linejoin: miter; stroke-linecap: square"/>
   </g>
   <g id="patch_6">
    <path d="M 36.79 27.744 
L 450 27.744 
" style="fill: none; stroke: #000000; stroke-width: 0.8; stroke-linejoin: miter; stroke-linecap: square"/>
   </g>
   <g id="text_13">
    <!-- $\Omega$=100, $X_0=250$, $Y_0=250$, n=200000, $n_{avg}=$200 -->
    <g transform="translate(93.695 21.744) scale(0.12 -0.12)">
     <defs>
      <path id="DejaVuSans-3a9" d="M 4647 556 
L 4647 0 
L 2772 0 
L 2772 556 
Q 3325 859 3634 1378 
Q 3944 1897 3944 2528 
Q 3944 3278 3531 3731 
Q 3119 4184 2444 4184 
Q 1769 4184 1355 3729 
Q 941 3275 941 2528 
Q 941 1897 1250 1378 
Q 1563 859 2119 556 
L 2119 0 
L 244 0 
L 244 556 
L 1241 556 
Q 747 991 519 1456 
Q 294 1922 294 2497 
Q 294 3491 894 4106 
Q 1491 4722 2444 4722 
Q 3391 4722 3994 4106 
Q 4594 3494 4594 2528 
Q 4594 1922 4372 1459 
Q 4150 997 3647 556 
L 4647 556 
z
" transform="scale(0.015625)"/>
      <path id="DejaVuSans-3d" d="M 678 2906 
L 4684 2906 
L 4684 2381 
L 678 2381 
L 678 2906 
z
M 678 1631 
L 4684 1631 
L 4684 1100 
L 678 1100 
L 678 1631 
z
" transform="scale(0.015625)"/>
      <path id="DejaVuSans-2c" d="M 750 794 
L 1409 794 
L 1409 256 
L 897 -744 
L 494 -744 
L 750 256 
L 750 794 
z
" transform="scale(0.015625)"/>
      <path id="DejaVuSans-20" transform="scale(0.015625)"/>
      <path id="DejaVuSans-Oblique-58" d="M 878 4666 
L 1516 4666 
L 2316 2981 
L 3763 4666 
L 4500 4666 
L 2578 2438 
L 3738 0 
L 3103 0 
L 2163 1966 
L 459 0 
L -275 0 
L 1906 2509 
L 878 4666 
z
" transform="scale(0.015625)"/>
      <path id="DejaVuSans-Oblique-59" d="M 403 4666 
L 1081 4666 
L 1953 2747 
L 3616 4666 
L 4325 4666 
L 2209 2222 
L 1778 0 
L 1147 0 
L 1575 2222 
L 403 4666 
z
" transform="scale(0.015625)"/>
      <path id="DejaVuSans-6e" d="M 3513 2113 
L 3513 0 
L 2938 0 
L 2938 2094 
Q 2938 2591 2744 2837 
Q 2550 3084 2163 3084 
Q 1697 3084 1428 2787 
Q 1159 2491 1159 1978 
L 1159 0 
L 581 0 
L 581 3500 
L 1159 3500 
L 1159 2956 
Q 1366 3272 1645 3428 
Q 1925 3584 2291 3584 
Q 2894 3584 3203 3211 
Q 3513 2838 3513 2113 
z
" transform="scale(0.015625)"/>
      <path id="DejaVuSans-Oblique-6e" d="M 3566 2113 
L 3156 0 
L 2578 0 
L 2988 2091 
Q 3016 2238 3031 2350 
Q 3047 2463 3047 2528 
Q 3047 2791 2881 2937 
Q 2716 3084 2419 3084 
Q 1956 3084 1622 2776 
Q 1288 2469 1184 1941 
L 800 0 
L 225 0 
L 903 3500 
L 1478 3500 
L 1363 2950 
Q 1603 3253 1940 3418 
Q 2278 3584 2650 3584 
Q 3113 3584 3367 3334 
Q 3622 3084 3622 2631 
Q 3622 2519 3608 2391 
Q 3594 2263 3566 2113 
z
" transform="scale(0.015625)"/>
      <path id="DejaVuSans-Oblique-61" d="M 3438 1997 
L 3047 0 
L 2472 0 
L 2578 531 
Q 2325 219 2001 64 
Q 1678 -91 1281 -91 
Q 834 -91 548 182 
Q 263 456 263 884 
Q 263 1497 752 1853 
Q 1241 2209 2100 2209 
L 2900 2209 
L 2931 2363 
Q 2938 2388 2941 2417 
Q 2944 2447 2944 2509 
Q 2944 2788 2717 2942 
Q 2491 3097 2081 3097 
Q 1800 3097 1504 3025 
Q 1209 2953 897 2809 
L 997 3341 
Q 1322 3463 1633 3523 
Q 1944 3584 2234 3584 
Q 2853 3584 3176 3315 
Q 3500 3047 3500 2534 
Q 3500 2431 3484 2292 
Q 3469 2153 3438 1997 
z
M 2816 1759 
L 2241 1759 
Q 1534 1759 1195 1570 
Q 856 1381 856 984 
Q 856 709 1029 553 
Q 1203 397 1509 397 
Q 1978 397 2328 733 
Q 2678 1069 2791 1631 
L 2816 1759 
z
" transform="scale(0.015625)"/>
      <path id="DejaVuSans-Oblique-76" d="M 459 3500 
L 1069 3500 
L 1581 525 
L 3256 3500 
L 3866 3500 
L 1875 0 
L 1100 0 
L 459 3500 
z
" transform="scale(0.015625)"/>
      <path id="DejaVuSans-Oblique-67" d="M 3816 3500 
L 3219 434 
Q 3047 -456 2561 -893 
Q 2075 -1331 1253 -1331 
Q 950 -1331 690 -1286 
Q 431 -1241 206 -1147 
L 313 -588 
Q 525 -725 762 -790 
Q 1000 -856 1269 -856 
Q 1816 -856 2167 -557 
Q 2519 -259 2631 300 
L 2681 563 
Q 2441 288 2122 144 
Q 1803 0 1434 0 
Q 903 0 598 351 
Q 294 703 294 1319 
Q 294 1803 478 2267 
Q 663 2731 997 3091 
Q 1219 3328 1514 3456 
Q 1809 3584 2131 3584 
Q 2484 3584 2746 3420 
Q 3009 3256 3138 2956 
L 3238 3500 
L 3816 3500 
z
M 2950 2216 
Q 2950 2641 2750 2872 
Q 2550 3103 2181 3103 
Q 1953 3103 1747 3012 
Q 1541 2922 1394 2759 
Q 1156 2491 1023 2127 
Q 891 1763 891 1375 
Q 891 944 1092 712 
Q 1294 481 1672 481 
Q 2219 481 2584 976 
Q 2950 1472 2950 2216 
z
" transform="scale(0.015625)"/>
     </defs>
     <use xlink:href="#DejaVuSans-3a9" transform="translate(0 0.78125)"/>
     <use xlink:href="#DejaVuSans-3d" transform="translate(76.416016 0.78125)"/>
     <use xlink:href="#DejaVuSans-31" transform="translate(160.205078 0.78125)"/>
     <use xlink:href="#DejaVuSans-30" transform="translate(223.828125 0.78125)"/>
     <use xlink:href="#DejaVuSans-30" transform="translate(287.451172 0.78125)"/>
     <use xlink:href="#DejaVuSans-2c" transform="translate(351.074219 0.78125)"/>
     <use xlink:href="#DejaVuSans-20" transform="translate(382.861328 0.78125)"/>
     <use xlink:href="#DejaVuSans-Oblique-58" transform="translate(414.648438 0.78125)"/>
     <use xlink:href="#DejaVuSans-30" transform="translate(483.154297 -15.625) scale(0.7)"/>
     <use xlink:href="#DejaVuSans-3d" transform="translate(549.907227 0.78125)"/>
     <use xlink:href="#DejaVuSans-32" transform="translate(653.178711 0.78125)"/>
     <use xlink:href="#DejaVuSans-35" transform="translate(716.801758 0.78125)"/>
     <use xlink:href="#DejaVuSans-30" transform="translate(780.424805 0.78125)"/>
     <use xlink:href="#DejaVuSans-2c" transform="translate(844.047852 0.78125)"/>
     <use xlink:href="#DejaVuSans-20" transform="translate(875.834961 0.78125)"/>
     <use xlink:href="#DejaVuSans-Oblique-59" transform="translate(907.62207 0.78125)"/>
     <use xlink:href="#DejaVuSans-30" transform="translate(968.706055 -15.625) scale(0.7)"/>
     <use xlink:href="#DejaVuSans-3d" transform="translate(1035.458984 0.78125)"/>
     <use xlink:href="#DejaVuSans-32" transform="translate(1138.730469 0.78125)"/>
     <use xlink:href="#DejaVuSans-35" transform="translate(1202.353516 0.78125)"/>
     <use xlink:href="#DejaVuSans-30" transform="translate(1265.976562 0.78125)"/>
     <use xlink:href="#DejaVuSans-2c" transform="translate(1329.599609 0.78125)"/>
     <use xlink:href="#DejaVuSans-20" transform="translate(1361.386719 0.78125)"/>
     <use xlink:href="#DejaVuSans-6e" transform="translate(1393.173828 0.78125)"/>
     <use xlink:href="#DejaVuSans-3d" transform="translate(1456.552734 0.78125)"/>
     <use xlink:href="#DejaVuSans-32" transform="translate(1540.341797 0.78125)"/>
     <use xlink:href="#DejaVuSans-30" transform="translate(1603.964844 0.78125)"/>
     <use xlink:href="#DejaVuSans-30" transform="translate(1667.587891 0.78125)"/>
     <use xlink:href="#DejaVuSans-30" transform="translate(1731.210938 0.78125)"/>
     <use xlink:href="#DejaVuSans-30" transform="translate(1794.833984 0.78125)"/>
     <use xlink:href="#DejaVuSans-30" transform="translate(1858.457031 0.78125)"/>
     <use xlink:href="#DejaVuSans-2c" transform="translate(1922.080078 0.78125)"/>
     <use xlink:href="#DejaVuSans-20" transform="translate(1953.867188 0.78125)"/>
     <use xlink:href="#DejaVuSans-Oblique-6e" transform="translate(1985.654297 0.78125)"/>
     <use xlink:href="#DejaVuSans-Oblique-61" transform="translate(2049.033203 -15.625) scale(0.7)"/>
     <use xlink:href="#DejaVuSans-Oblique-76" transform="translate(2091.928711 -15.625) scale(0.7)"/>
     <use xlink:href="#DejaVuSans-Oblique-67" transform="translate(2133.354492 -15.625) scale(0.7)"/>
     <use xlink:href="#DejaVuSans-3d" transform="translate(2200.004883 0.78125)"/>
     <use xlink:href="#DejaVuSans-32" transform="translate(2303.276367 0.78125)"/>
     <use xlink:href="#DejaVuSans-30" transform="translate(2366.899414 0.78125)"/>
     <use xlink:href="#DejaVuSans-30" transform="translate(2430.522461 0.78125)"/>
    </g>
   </g>
   <g id="legend_1">
    <g id="patch_7">
     <path d="M 404.15 65.10025 
L 443 65.10025 
Q 445 65.10025 445 63.10025 
L 445 34.744 
Q 445 32.744 443 32.744 
L 404.15 32.744 
Q 402.15 32.744 402.15 34.744 
L 402.15 63.10025 
Q 402.15 65.10025 404.15 65.10025 
z
" style="fill: #ffffff; opacity: 0.8; stroke: #cccccc; stroke-linejoin: miter"/>
    </g>
    <g id="line2d_14">
     <path d="M 406.15 40.842438 
L 416.15 40.842438 
L 426.15 40.842438 
" style="fill: none; stroke: #1f77b4; stroke-width: 1.5; stroke-linecap: square"/>
    </g>
    <g id="text_14">
     <!-- X -->
     <g transform="translate(434.15 44.342438) scale(0.1 -0.1)">
      <defs>
       <path id="DejaVuSans-58" d="M 403 4666 
L 1081 4666 
L 2241 2931 
L 3406 4666 
L 4084 4666 
L 2584 2425 
L 4184 0 
L 3506 0 
L 2194 1984 
L 872 0 
L 191 0 
L 1856 2491 
L 403 4666 
z
" transform="scale(0.015625)"/>
      </defs>
      <use xlink:href="#DejaVuSans-58"/>
     </g>
    </g>
    <g id="line2d_15">
     <path d="M 406.15 55.520563 
L 416.15 55.520563 
L 426.15 55.520563 
" style="fill: none; stroke: #ff7f0e; stroke-width: 1.5; stroke-linecap: square"/>
    </g>
    <g id="text_15">
     <!-- Y -->
     <g transform="translate(434.15 59.020563) scale(0.1 -0.1)">
      <defs>
       <path id="DejaVuSans-59" d="M -13 4666 
L 666 4666 
L 1959 2747 
L 3244 4666 
L 3922 4666 
L 2272 2222 
L 2272 0 
L 1638 0 
L 1638 2222 
L -13 4666 
z
" transform="scale(0.015625)"/>
      </defs>
      <use xlink:href="#DejaVuSans-59"/>
     </g>
    </g>
   </g>
  </g>
 </g>
 <defs>
  <clipPath id="p9dcd009ddd">
   <rect x="36.79" y="27.744" width="413.21" height="275.896"/>
  </clipPath>
 </defs>
</svg>
