<?xml version="1.0" encoding="utf-8" standalone="no"?>
<!DOCTYPE svg PUBLIC "-//W3C//DTD SVG 1.1//EN"
  "http://www.w3.org/Graphics/SVG/1.1/DTD/svg11.dtd">
<svg xmlns:xlink="http://www.w3.org/1999/xlink" width="460.8pt" height="345.6pt" viewBox="0 0 460.8 345.6" xmlns="http://www.w3.org/2000/svg" version="1.1">
 <metadata>
  <rdf:RDF xmlns:dc="http://purl.org/dc/elements/1.1/" xmlns:cc="http://creativecommons.org/ns#" xmlns:rdf="http://www.w3.org/1999/02/22-rdf-syntax-ns#">
   <cc:Work>
    <dc:type rdf:resource="http://purl.org/dc/dcmitype/StillImage"/>
    <dc:date>2025-05-12T18:14:14.988506</dc:date>
    <dc:format>image/svg+xml</dc:format>
    <dc:creator>
     <cc:Agent>
      <dc:title>Matplotlib v3.10.1, https://matplotlib.org/</dc:title>
     </cc:Agent>
    </dc:creator>
   </cc:Work>
  </rdf:RDF>
 </metadata>
 <defs>
  <style type="text/css">*{stroke-linejoin: round; stroke-linecap: butt}</style>
 </defs>
 <g id="figure_1">
  <g id="patch_1">
   <path d="M 0 345.6 
L 460.8 345.6 
L 460.8 0 
L 0 0 
z
" style="fill: #ffffff"/>
  </g>
  <g id="axes_1">
   <g id="patch_2">
    <path d="M 38.27 300.76 
L 450 300.76 
L 450 29.832 
L 38.27 29.832 
z
" style="fill: #ffffff"/>
   </g>
   <g id="matplotlib.axis_1">
    <g id="xtick_1">
     <g id="line2d_1">
      <defs>
       <path id="m55bbb802c7" d="M 0 0 
L 0 3.5 
" style="stroke: #000000; stroke-width: 0.8"/>
      </defs>
      <g>
       <use xlink:href="#m55bbb802c7" x="57.328473" y="300.76" style="stroke: #000000; stroke-width: 0.8"/>
      </g>
     </g>
     <g id="text_1">
      <!-- 0.1 -->
      <g transform="translate(49.376911 315.358437) scale(0.1 -0.1)">
       <defs>
        <path id="DejaVuSans-30" d="M 2034 4250 
Q 1547 4250 1301 3770 
Q 1056 3291 1056 2328 
Q 1056 1369 1301 889 
Q 1547 409 2034 409 
Q 2525 409 2770 889 
Q 3016 1369 3016 2328 
Q 3016 3291 2770 3770 
Q 2525 4250 2034 4250 
z
M 2034 4750 
Q 2819 4750 3233 4129 
Q 3647 3509 3647 2328 
Q 3647 1150 3233 529 
Q 2819 -91 2034 -91 
Q 1250 -91 836 529 
Q 422 1150 422 2328 
Q 422 3509 836 4129 
Q 1250 4750 2034 4750 
z
" transform="scale(0.015625)"/>
        <path id="DejaVuSans-2e" d="M 684 794 
L 1344 794 
L 1344 0 
L 684 0 
L 684 794 
z
" transform="scale(0.015625)"/>
        <path id="DejaVuSans-31" d="M 794 531 
L 1825 531 
L 1825 4091 
L 703 3866 
L 703 4441 
L 1819 4666 
L 2450 4666 
L 2450 531 
L 3481 531 
L 3481 0 
L 794 0 
L 794 531 
z
" transform="scale(0.015625)"/>
       </defs>
       <use xlink:href="#DejaVuSans-30"/>
       <use xlink:href="#DejaVuSans-2e" transform="translate(63.623047 0)"/>
       <use xlink:href="#DejaVuSans-31" transform="translate(95.410156 0)"/>
      </g>
     </g>
    </g>
    <g id="xtick_2">
     <g id="line2d_2">
      <g>
       <use xlink:href="#m55bbb802c7" x="103.976685" y="300.76" style="stroke: #000000; stroke-width: 0.8"/>
      </g>
     </g>
     <g id="text_2">
      <!-- 0.2 -->
      <g transform="translate(96.025123 315.358437) scale(0.1 -0.1)">
       <defs>
        <path id="DejaVuSans-32" d="M 1228 531 
L 3431 531 
L 3431 0 
L 469 0 
L 469 531 
Q 828 903 1448 1529 
Q 2069 2156 2228 2338 
Q 2531 2678 2651 2914 
Q 2772 3150 2772 3378 
Q 2772 3750 2511 3984 
Q 2250 4219 1831 4219 
Q 1534 4219 1204 4116 
Q 875 4013 500 3803 
L 500 4441 
Q 881 4594 1212 4672 
Q 1544 4750 1819 4750 
Q 2544 4750 2975 4387 
Q 3406 4025 3406 3419 
Q 3406 3131 3298 2873 
Q 3191 2616 2906 2266 
Q 2828 2175 2409 1742 
Q 1991 1309 1228 531 
z
" transform="scale(0.015625)"/>
       </defs>
       <use xlink:href="#DejaVuSans-30"/>
       <use xlink:href="#DejaVuSans-2e" transform="translate(63.623047 0)"/>
       <use xlink:href="#DejaVuSans-32" transform="translate(95.410156 0)"/>
      </g>
     </g>
    </g>
    <g id="xtick_3">
     <g id="line2d_3">
      <g>
       <use xlink:href="#m55bbb802c7" x="150.624897" y="300.76" style="stroke: #000000; stroke-width: 0.8"/>
      </g>
     </g>
     <g id="text_3">
      <!-- 0.3 -->
      <g transform="translate(142.673335 315.358437) scale(0.1 -0.1)">
       <defs>
        <path id="DejaVuSans-33" d="M 2597 2516 
Q 3050 2419 3304 2112 
Q 3559 1806 3559 1356 
Q 3559 666 3084 287 
Q 2609 -91 1734 -91 
Q 1441 -91 1130 -33 
Q 819 25 488 141 
L 488 750 
Q 750 597 1062 519 
Q 1375 441 1716 441 
Q 2309 441 2620 675 
Q 2931 909 2931 1356 
Q 2931 1769 2642 2001 
Q 2353 2234 1838 2234 
L 1294 2234 
L 1294 2753 
L 1863 2753 
Q 2328 2753 2575 2939 
Q 2822 3125 2822 3475 
Q 2822 3834 2567 4026 
Q 2313 4219 1838 4219 
Q 1578 4219 1281 4162 
Q 984 4106 628 3988 
L 628 4550 
Q 988 4650 1302 4700 
Q 1616 4750 1894 4750 
Q 2613 4750 3031 4423 
Q 3450 4097 3450 3541 
Q 3450 3153 3228 2886 
Q 3006 2619 2597 2516 
z
" transform="scale(0.015625)"/>
       </defs>
       <use xlink:href="#DejaVuSans-30"/>
       <use xlink:href="#DejaVuSans-2e" transform="translate(63.623047 0)"/>
       <use xlink:href="#DejaVuSans-33" transform="translate(95.410156 0)"/>
      </g>
     </g>
    </g>
    <g id="xtick_4">
     <g id="line2d_4">
      <g>
       <use xlink:href="#m55bbb802c7" x="197.273109" y="300.76" style="stroke: #000000; stroke-width: 0.8"/>
      </g>
     </g>
     <g id="text_4">
      <!-- 0.4 -->
      <g transform="translate(189.321547 315.358437) scale(0.1 -0.1)">
       <defs>
        <path id="DejaVuSans-34" d="M 2419 4116 
L 825 1625 
L 2419 1625 
L 2419 4116 
z
M 2253 4666 
L 3047 4666 
L 3047 1625 
L 3713 1625 
L 3713 1100 
L 3047 1100 
L 3047 0 
L 2419 0 
L 2419 1100 
L 313 1100 
L 313 1709 
L 2253 4666 
z
" transform="scale(0.015625)"/>
       </defs>
       <use xlink:href="#DejaVuSans-30"/>
       <use xlink:href="#DejaVuSans-2e" transform="translate(63.623047 0)"/>
       <use xlink:href="#DejaVuSans-34" transform="translate(95.410156 0)"/>
      </g>
     </g>
    </g>
    <g id="xtick_5">
     <g id="line2d_5">
      <g>
       <use xlink:href="#m55bbb802c7" x="243.921321" y="300.76" style="stroke: #000000; stroke-width: 0.8"/>
      </g>
     </g>
     <g id="text_5">
      <!-- 0.5 -->
      <g transform="translate(235.969759 315.358437) scale(0.1 -0.1)">
       <defs>
        <path id="DejaVuSans-35" d="M 691 4666 
L 3169 4666 
L 3169 4134 
L 1269 4134 
L 1269 2991 
Q 1406 3038 1543 3061 
Q 1681 3084 1819 3084 
Q 2600 3084 3056 2656 
Q 3513 2228 3513 1497 
Q 3513 744 3044 326 
Q 2575 -91 1722 -91 
Q 1428 -91 1123 -41 
Q 819 9 494 109 
L 494 744 
Q 775 591 1075 516 
Q 1375 441 1709 441 
Q 2250 441 2565 725 
Q 2881 1009 2881 1497 
Q 2881 1984 2565 2268 
Q 2250 2553 1709 2553 
Q 1456 2553 1204 2497 
Q 953 2441 691 2322 
L 691 4666 
z
" transform="scale(0.015625)"/>
       </defs>
       <use xlink:href="#DejaVuSans-30"/>
       <use xlink:href="#DejaVuSans-2e" transform="translate(63.623047 0)"/>
       <use xlink:href="#DejaVuSans-35" transform="translate(95.410156 0)"/>
      </g>
     </g>
    </g>
    <g id="xtick_6">
     <g id="line2d_6">
      <g>
       <use xlink:href="#m55bbb802c7" x="290.569533" y="300.76" style="stroke: #000000; stroke-width: 0.8"/>
      </g>
     </g>
     <g id="text_6">
      <!-- 0.6 -->
      <g transform="translate(282.617971 315.358437) scale(0.1 -0.1)">
       <defs>
        <path id="DejaVuSans-36" d="M 2113 2584 
Q 1688 2584 1439 2293 
Q 1191 2003 1191 1497 
Q 1191 994 1439 701 
Q 1688 409 2113 409 
Q 2538 409 2786 701 
Q 3034 994 3034 1497 
Q 3034 2003 2786 2293 
Q 2538 2584 2113 2584 
z
M 3366 4563 
L 3366 3988 
Q 3128 4100 2886 4159 
Q 2644 4219 2406 4219 
Q 1781 4219 1451 3797 
Q 1122 3375 1075 2522 
Q 1259 2794 1537 2939 
Q 1816 3084 2150 3084 
Q 2853 3084 3261 2657 
Q 3669 2231 3669 1497 
Q 3669 778 3244 343 
Q 2819 -91 2113 -91 
Q 1303 -91 875 529 
Q 447 1150 447 2328 
Q 447 3434 972 4092 
Q 1497 4750 2381 4750 
Q 2619 4750 2861 4703 
Q 3103 4656 3366 4563 
z
" transform="scale(0.015625)"/>
       </defs>
       <use xlink:href="#DejaVuSans-30"/>
       <use xlink:href="#DejaVuSans-2e" transform="translate(63.623047 0)"/>
       <use xlink:href="#DejaVuSans-36" transform="translate(95.410156 0)"/>
      </g>
     </g>
    </g>
    <g id="xtick_7">
     <g id="line2d_7">
      <g>
       <use xlink:href="#m55bbb802c7" x="337.217745" y="300.76" style="stroke: #000000; stroke-width: 0.8"/>
      </g>
     </g>
     <g id="text_7">
      <!-- 0.7 -->
      <g transform="translate(329.266183 315.358437) scale(0.1 -0.1)">
       <defs>
        <path id="DejaVuSans-37" d="M 525 4666 
L 3525 4666 
L 3525 4397 
L 1831 0 
L 1172 0 
L 2766 4134 
L 525 4134 
L 525 4666 
z
" transform="scale(0.015625)"/>
       </defs>
       <use xlink:href="#DejaVuSans-30"/>
       <use xlink:href="#DejaVuSans-2e" transform="translate(63.623047 0)"/>
       <use xlink:href="#DejaVuSans-37" transform="translate(95.410156 0)"/>
      </g>
     </g>
    </g>
    <g id="xtick_8">
     <g id="line2d_8">
      <g>
       <use xlink:href="#m55bbb802c7" x="383.865957" y="300.76" style="stroke: #000000; stroke-width: 0.8"/>
      </g>
     </g>
     <g id="text_8">
      <!-- 0.8 -->
      <g transform="translate(375.914395 315.358437) scale(0.1 -0.1)">
       <defs>
        <path id="DejaVuSans-38" d="M 2034 2216 
Q 1584 2216 1326 1975 
Q 1069 1734 1069 1313 
Q 1069 891 1326 650 
Q 1584 409 2034 409 
Q 2484 409 2743 651 
Q 3003 894 3003 1313 
Q 3003 1734 2745 1975 
Q 2488 2216 2034 2216 
z
M 1403 2484 
Q 997 2584 770 2862 
Q 544 3141 544 3541 
Q 544 4100 942 4425 
Q 1341 4750 2034 4750 
Q 2731 4750 3128 4425 
Q 3525 4100 3525 3541 
Q 3525 3141 3298 2862 
Q 3072 2584 2669 2484 
Q 3125 2378 3379 2068 
Q 3634 1759 3634 1313 
Q 3634 634 3220 271 
Q 2806 -91 2034 -91 
Q 1263 -91 848 271 
Q 434 634 434 1313 
Q 434 1759 690 2068 
Q 947 2378 1403 2484 
z
M 1172 3481 
Q 1172 3119 1398 2916 
Q 1625 2713 2034 2713 
Q 2441 2713 2670 2916 
Q 2900 3119 2900 3481 
Q 2900 3844 2670 4047 
Q 2441 4250 2034 4250 
Q 1625 4250 1398 4047 
Q 1172 3844 1172 3481 
z
" transform="scale(0.015625)"/>
       </defs>
       <use xlink:href="#DejaVuSans-30"/>
       <use xlink:href="#DejaVuSans-2e" transform="translate(63.623047 0)"/>
       <use xlink:href="#DejaVuSans-38" transform="translate(95.410156 0)"/>
      </g>
     </g>
    </g>
    <g id="xtick_9">
     <g id="line2d_9">
      <g>
       <use xlink:href="#m55bbb802c7" x="430.514169" y="300.76" style="stroke: #000000; stroke-width: 0.8"/>
      </g>
     </g>
     <g id="text_9">
      <!-- 0.9 -->
      <g transform="translate(422.562607 315.358437) scale(0.1 -0.1)">
       <defs>
        <path id="DejaVuSans-39" d="M 703 97 
L 703 672 
Q 941 559 1184 500 
Q 1428 441 1663 441 
Q 2288 441 2617 861 
Q 2947 1281 2994 2138 
Q 2813 1869 2534 1725 
Q 2256 1581 1919 1581 
Q 1219 1581 811 2004 
Q 403 2428 403 3163 
Q 403 3881 828 4315 
Q 1253 4750 1959 4750 
Q 2769 4750 3195 4129 
Q 3622 3509 3622 2328 
Q 3622 1225 3098 567 
Q 2575 -91 1691 -91 
Q 1453 -91 1209 -44 
Q 966 3 703 97 
z
M 1959 2075 
Q 2384 2075 2632 2365 
Q 2881 2656 2881 3163 
Q 2881 3666 2632 3958 
Q 2384 4250 1959 4250 
Q 1534 4250 1286 3958 
Q 1038 3666 1038 3163 
Q 1038 2656 1286 2365 
Q 1534 2075 1959 2075 
z
" transform="scale(0.015625)"/>
       </defs>
       <use xlink:href="#DejaVuSans-30"/>
       <use xlink:href="#DejaVuSans-2e" transform="translate(63.623047 0)"/>
       <use xlink:href="#DejaVuSans-39" transform="translate(95.410156 0)"/>
      </g>
     </g>
    </g>
    <g id="text_10">
     <!-- density $\rho$ -->
     <g transform="translate(221.035 329.038125) scale(0.1 -0.1)">
      <defs>
       <path id="DejaVuSans-64" d="M 2906 2969 
L 2906 4863 
L 3481 4863 
L 3481 0 
L 2906 0 
L 2906 525 
Q 2725 213 2448 61 
Q 2172 -91 1784 -91 
Q 1150 -91 751 415 
Q 353 922 353 1747 
Q 353 2572 751 3078 
Q 1150 3584 1784 3584 
Q 2172 3584 2448 3432 
Q 2725 3281 2906 2969 
z
M 947 1747 
Q 947 1113 1208 752 
Q 1469 391 1925 391 
Q 2381 391 2643 752 
Q 2906 1113 2906 1747 
Q 2906 2381 2643 2742 
Q 2381 3103 1925 3103 
Q 1469 3103 1208 2742 
Q 947 2381 947 1747 
z
" transform="scale(0.015625)"/>
       <path id="DejaVuSans-65" d="M 3597 1894 
L 3597 1613 
L 953 1613 
Q 991 1019 1311 708 
Q 1631 397 2203 397 
Q 2534 397 2845 478 
Q 3156 559 3463 722 
L 3463 178 
Q 3153 47 2828 -22 
Q 2503 -91 2169 -91 
Q 1331 -91 842 396 
Q 353 884 353 1716 
Q 353 2575 817 3079 
Q 1281 3584 2069 3584 
Q 2775 3584 3186 3129 
Q 3597 2675 3597 1894 
z
M 3022 2063 
Q 3016 2534 2758 2815 
Q 2500 3097 2075 3097 
Q 1594 3097 1305 2825 
Q 1016 2553 972 2059 
L 3022 2063 
z
" transform="scale(0.015625)"/>
       <path id="DejaVuSans-6e" d="M 3513 2113 
L 3513 0 
L 2938 0 
L 2938 2094 
Q 2938 2591 2744 2837 
Q 2550 3084 2163 3084 
Q 1697 3084 1428 2787 
Q 1159 2491 1159 1978 
L 1159 0 
L 581 0 
L 581 3500 
L 1159 3500 
L 1159 2956 
Q 1366 3272 1645 3428 
Q 1925 3584 2291 3584 
Q 2894 3584 3203 3211 
Q 3513 2838 3513 2113 
z
" transform="scale(0.015625)"/>
       <path id="DejaVuSans-73" d="M 2834 3397 
L 2834 2853 
Q 2591 2978 2328 3040 
Q 2066 3103 1784 3103 
Q 1356 3103 1142 2972 
Q 928 2841 928 2578 
Q 928 2378 1081 2264 
Q 1234 2150 1697 2047 
L 1894 2003 
Q 2506 1872 2764 1633 
Q 3022 1394 3022 966 
Q 3022 478 2636 193 
Q 2250 -91 1575 -91 
Q 1294 -91 989 -36 
Q 684 19 347 128 
L 347 722 
Q 666 556 975 473 
Q 1284 391 1588 391 
Q 1994 391 2212 530 
Q 2431 669 2431 922 
Q 2431 1156 2273 1281 
Q 2116 1406 1581 1522 
L 1381 1569 
Q 847 1681 609 1914 
Q 372 2147 372 2553 
Q 372 3047 722 3315 
Q 1072 3584 1716 3584 
Q 2034 3584 2315 3537 
Q 2597 3491 2834 3397 
z
" transform="scale(0.015625)"/>
       <path id="DejaVuSans-69" d="M 603 3500 
L 1178 3500 
L 1178 0 
L 603 0 
L 603 3500 
z
M 603 4863 
L 1178 4863 
L 1178 4134 
L 603 4134 
L 603 4863 
z
" transform="scale(0.015625)"/>
       <path id="DejaVuSans-74" d="M 1172 4494 
L 1172 3500 
L 2356 3500 
L 2356 3053 
L 1172 3053 
L 1172 1153 
Q 1172 725 1289 603 
Q 1406 481 1766 481 
L 2356 481 
L 2356 0 
L 1766 0 
Q 1100 0 847 248 
Q 594 497 594 1153 
L 594 3053 
L 172 3053 
L 172 3500 
L 594 3500 
L 594 4494 
L 1172 4494 
z
" transform="scale(0.015625)"/>
       <path id="DejaVuSans-79" d="M 2059 -325 
Q 1816 -950 1584 -1140 
Q 1353 -1331 966 -1331 
L 506 -1331 
L 506 -850 
L 844 -850 
Q 1081 -850 1212 -737 
Q 1344 -625 1503 -206 
L 1606 56 
L 191 3500 
L 800 3500 
L 1894 763 
L 2988 3500 
L 3597 3500 
L 2059 -325 
z
" transform="scale(0.015625)"/>
       <path id="DejaVuSans-20" transform="scale(0.015625)"/>
       <path id="DejaVuSans-Oblique-3c1" d="M 1203 2875 
Q 1453 3194 1981 3475 
Q 2188 3584 2756 3584 
Q 3394 3584 3694 3078 
Q 3994 2572 3834 1747 
Q 3672 922 3175 415 
Q 2678 -91 2041 -91 
Q 1656 -91 1409 63 
Q 1163 213 1044 525 
L 681 -1331 
L 103 -1331 
L 697 1716 
Q 838 2438 1203 2875 
z
M 3238 1747 
Q 3359 2381 3169 2744 
Q 2978 3103 2522 3103 
Q 2066 3103 1734 2744 
Q 1403 2381 1281 1747 
Q 1156 1113 1347 750 
Q 1538 391 1994 391 
Q 2450 391 2781 750 
Q 3113 1113 3238 1747 
z
" transform="scale(0.015625)"/>
      </defs>
      <use xlink:href="#DejaVuSans-64" transform="translate(0 0.015625)"/>
      <use xlink:href="#DejaVuSans-65" transform="translate(63.476562 0.015625)"/>
      <use xlink:href="#DejaVuSans-6e" transform="translate(125 0.015625)"/>
      <use xlink:href="#DejaVuSans-73" transform="translate(188.378906 0.015625)"/>
      <use xlink:href="#DejaVuSans-69" transform="translate(240.478516 0.015625)"/>
      <use xlink:href="#DejaVuSans-74" transform="translate(268.261719 0.015625)"/>
      <use xlink:href="#DejaVuSans-79" transform="translate(307.470703 0.015625)"/>
      <use xlink:href="#DejaVuSans-20" transform="translate(366.650391 0.015625)"/>
      <use xlink:href="#DejaVuSans-Oblique-3c1" transform="translate(398.4375 0.015625)"/>
     </g>
    </g>
   </g>
   <g id="matplotlib.axis_2">
    <g id="ytick_1">
     <g id="line2d_10">
      <defs>
       <path id="m9c78db30ad" d="M 0 0 
L -3.5 0 
" style="stroke: #000000; stroke-width: 0.8"/>
      </defs>
      <g>
       <use xlink:href="#m9c78db30ad" x="38.27" y="293.100882" style="stroke: #000000; stroke-width: 0.8"/>
      </g>
     </g>
     <g id="text_11">
      <!-- 0 -->
      <g transform="translate(24.9075 296.9001) scale(0.1 -0.1)">
       <use xlink:href="#DejaVuSans-30"/>
      </g>
     </g>
    </g>
    <g id="ytick_2">
     <g id="line2d_11">
      <g>
       <use xlink:href="#m9c78db30ad" x="38.27" y="240.424297" style="stroke: #000000; stroke-width: 0.8"/>
      </g>
     </g>
     <g id="text_12">
      <!-- 2 -->
      <g transform="translate(24.9075 244.223516) scale(0.1 -0.1)">
       <use xlink:href="#DejaVuSans-32"/>
      </g>
     </g>
    </g>
    <g id="ytick_3">
     <g id="line2d_12">
      <g>
       <use xlink:href="#m9c78db30ad" x="38.27" y="187.747713" style="stroke: #000000; stroke-width: 0.8"/>
      </g>
     </g>
     <g id="text_13">
      <!-- 4 -->
      <g transform="translate(24.9075 191.546931) scale(0.1 -0.1)">
       <use xlink:href="#DejaVuSans-34"/>
      </g>
     </g>
    </g>
    <g id="ytick_4">
     <g id="line2d_13">
      <g>
       <use xlink:href="#m9c78db30ad" x="38.27" y="135.071128" style="stroke: #000000; stroke-width: 0.8"/>
      </g>
     </g>
     <g id="text_14">
      <!-- 6 -->
      <g transform="translate(24.9075 138.870347) scale(0.1 -0.1)">
       <use xlink:href="#DejaVuSans-36"/>
      </g>
     </g>
    </g>
    <g id="ytick_5">
     <g id="line2d_14">
      <g>
       <use xlink:href="#m9c78db30ad" x="38.27" y="82.394544" style="stroke: #000000; stroke-width: 0.8"/>
      </g>
     </g>
     <g id="text_15">
      <!-- 8 -->
      <g transform="translate(24.9075 86.193763) scale(0.1 -0.1)">
       <use xlink:href="#DejaVuSans-38"/>
      </g>
     </g>
    </g>
    <g id="text_16">
     <!-- pressure P -->
     <g transform="translate(18.827813 191.491312) rotate(-90) scale(0.1 -0.1)">
      <defs>
       <path id="DejaVuSans-70" d="M 1159 525 
L 1159 -1331 
L 581 -1331 
L 581 3500 
L 1159 3500 
L 1159 2969 
Q 1341 3281 1617 3432 
Q 1894 3584 2278 3584 
Q 2916 3584 3314 3078 
Q 3713 2572 3713 1747 
Q 3713 922 3314 415 
Q 2916 -91 2278 -91 
Q 1894 -91 1617 61 
Q 1341 213 1159 525 
z
M 3116 1747 
Q 3116 2381 2855 2742 
Q 2594 3103 2138 3103 
Q 1681 3103 1420 2742 
Q 1159 2381 1159 1747 
Q 1159 1113 1420 752 
Q 1681 391 2138 391 
Q 2594 391 2855 752 
Q 3116 1113 3116 1747 
z
" transform="scale(0.015625)"/>
       <path id="DejaVuSans-72" d="M 2631 2963 
Q 2534 3019 2420 3045 
Q 2306 3072 2169 3072 
Q 1681 3072 1420 2755 
Q 1159 2438 1159 1844 
L 1159 0 
L 581 0 
L 581 3500 
L 1159 3500 
L 1159 2956 
Q 1341 3275 1631 3429 
Q 1922 3584 2338 3584 
Q 2397 3584 2469 3576 
Q 2541 3569 2628 3553 
L 2631 2963 
z
" transform="scale(0.015625)"/>
       <path id="DejaVuSans-75" d="M 544 1381 
L 544 3500 
L 1119 3500 
L 1119 1403 
Q 1119 906 1312 657 
Q 1506 409 1894 409 
Q 2359 409 2629 706 
Q 2900 1003 2900 1516 
L 2900 3500 
L 3475 3500 
L 3475 0 
L 2900 0 
L 2900 538 
Q 2691 219 2414 64 
Q 2138 -91 1772 -91 
Q 1169 -91 856 284 
Q 544 659 544 1381 
z
M 1991 3584 
L 1991 3584 
z
" transform="scale(0.015625)"/>
       <path id="DejaVuSans-50" d="M 1259 4147 
L 1259 2394 
L 2053 2394 
Q 2494 2394 2734 2622 
Q 2975 2850 2975 3272 
Q 2975 3691 2734 3919 
Q 2494 4147 2053 4147 
L 1259 4147 
z
M 628 4666 
L 2053 4666 
Q 2838 4666 3239 4311 
Q 3641 3956 3641 3272 
Q 3641 2581 3239 2228 
Q 2838 1875 2053 1875 
L 1259 1875 
L 1259 0 
L 628 0 
L 628 4666 
z
" transform="scale(0.015625)"/>
      </defs>
      <use xlink:href="#DejaVuSans-70"/>
      <use xlink:href="#DejaVuSans-72" transform="translate(63.476562 0)"/>
      <use xlink:href="#DejaVuSans-65" transform="translate(102.339844 0)"/>
      <use xlink:href="#DejaVuSans-73" transform="translate(163.863281 0)"/>
      <use xlink:href="#DejaVuSans-73" transform="translate(215.962891 0)"/>
      <use xlink:href="#DejaVuSans-75" transform="translate(268.0625 0)"/>
      <use xlink:href="#DejaVuSans-72" transform="translate(331.441406 0)"/>
      <use xlink:href="#DejaVuSans-65" transform="translate(370.304688 0)"/>
      <use xlink:href="#DejaVuSans-20" transform="translate(431.828125 0)"/>
      <use xlink:href="#DejaVuSans-50" transform="translate(463.615234 0)"/>
     </g>
    </g>
   </g>
   <g id="line2d_15">
    <path d="M 56.985 287.223302 
L 77.212003 284.873329 
L 89.346881 283.635056 
L 103.820252 282.387862 
L 114.090657 281.454697 
L 129.960802 279.90418 
L 143.031078 278.662339 
L 150.981951 278.632006 
L 169.639326 276.176872 
L 188.290382 273.423767 
L 200.41894 271.887524 
L 213.002556 269.753556 
L 226.502608 266.722107 
L 244.192985 262.780689 
L 257.200058 258.559143 
L 276.236648 251.930637 
L 292.403846 242.333132 
L 305.366677 236.025792 
L 316.87585 227.340041 
L 327.885724 217.166222 
L 342.592944 204.892335 
L 353.084557 192.336535 
L 359.48065 185.160264 
L 365.390083 177.091865 
L 371.255274 166.937672 
L 378.574122 159.161891 
L 384.382431 146.325963 
L 390.746922 137.659839 
L 396.144415 127.507431 
L 405.599508 110.187672 
L 409.132527 100.340371 
L 411.319333 93.180158 
L 415.345332 84.522955 
L 419.36501 75.567781 
L 422.436651 66.020235 
L 425.097476 59.156208 
L 428.219679 51.992426 
L 431.285 42.146909 
" clip-path="url(#pbdac62b849)" style="fill: none; stroke: #1f77b4; stroke-width: 0.5; stroke-linecap: square"/>
    <defs>
     <path id="mbf421ee442" d="M 0 1.5 
C 0.397805 1.5 0.77937 1.341951 1.06066 1.06066 
C 1.341951 0.77937 1.5 0.397805 1.5 0 
C 1.5 -0.397805 1.341951 -0.77937 1.06066 -1.06066 
C 0.77937 -1.341951 0.397805 -1.5 0 -1.5 
C -0.397805 -1.5 -0.77937 -1.341951 -1.06066 -1.06066 
C -1.341951 -0.77937 -1.5 -0.397805 -1.5 0 
C -1.5 0.397805 -1.341951 0.77937 -1.06066 1.06066 
C -0.77937 1.341951 -0.397805 1.5 0 1.5 
z
" style="stroke: #1f77b4"/>
    </defs>
    <g clip-path="url(#pbdac62b849)">
     <use xlink:href="#mbf421ee442" x="56.985" y="287.223302" style="fill: #1f77b4; stroke: #1f77b4"/>
     <use xlink:href="#mbf421ee442" x="77.212003" y="284.873329" style="fill: #1f77b4; stroke: #1f77b4"/>
     <use xlink:href="#mbf421ee442" x="89.346881" y="283.635056" style="fill: #1f77b4; stroke: #1f77b4"/>
     <use xlink:href="#mbf421ee442" x="103.820252" y="282.387862" style="fill: #1f77b4; stroke: #1f77b4"/>
     <use xlink:href="#mbf421ee442" x="114.090657" y="281.454697" style="fill: #1f77b4; stroke: #1f77b4"/>
     <use xlink:href="#mbf421ee442" x="129.960802" y="279.90418" style="fill: #1f77b4; stroke: #1f77b4"/>
     <use xlink:href="#mbf421ee442" x="143.031078" y="278.662339" style="fill: #1f77b4; stroke: #1f77b4"/>
     <use xlink:href="#mbf421ee442" x="150.981951" y="278.632006" style="fill: #1f77b4; stroke: #1f77b4"/>
     <use xlink:href="#mbf421ee442" x="169.639326" y="276.176872" style="fill: #1f77b4; stroke: #1f77b4"/>
     <use xlink:href="#mbf421ee442" x="188.290382" y="273.423767" style="fill: #1f77b4; stroke: #1f77b4"/>
     <use xlink:href="#mbf421ee442" x="200.41894" y="271.887524" style="fill: #1f77b4; stroke: #1f77b4"/>
     <use xlink:href="#mbf421ee442" x="213.002556" y="269.753556" style="fill: #1f77b4; stroke: #1f77b4"/>
     <use xlink:href="#mbf421ee442" x="226.502608" y="266.722107" style="fill: #1f77b4; stroke: #1f77b4"/>
     <use xlink:href="#mbf421ee442" x="244.192985" y="262.780689" style="fill: #1f77b4; stroke: #1f77b4"/>
     <use xlink:href="#mbf421ee442" x="257.200058" y="258.559143" style="fill: #1f77b4; stroke: #1f77b4"/>
     <use xlink:href="#mbf421ee442" x="276.236648" y="251.930637" style="fill: #1f77b4; stroke: #1f77b4"/>
     <use xlink:href="#mbf421ee442" x="292.403846" y="242.333132" style="fill: #1f77b4; stroke: #1f77b4"/>
     <use xlink:href="#mbf421ee442" x="305.366677" y="236.025792" style="fill: #1f77b4; stroke: #1f77b4"/>
     <use xlink:href="#mbf421ee442" x="316.87585" y="227.340041" style="fill: #1f77b4; stroke: #1f77b4"/>
     <use xlink:href="#mbf421ee442" x="327.885724" y="217.166222" style="fill: #1f77b4; stroke: #1f77b4"/>
     <use xlink:href="#mbf421ee442" x="342.592944" y="204.892335" style="fill: #1f77b4; stroke: #1f77b4"/>
     <use xlink:href="#mbf421ee442" x="353.084557" y="192.336535" style="fill: #1f77b4; stroke: #1f77b4"/>
     <use xlink:href="#mbf421ee442" x="359.48065" y="185.160264" style="fill: #1f77b4; stroke: #1f77b4"/>
     <use xlink:href="#mbf421ee442" x="365.390083" y="177.091865" style="fill: #1f77b4; stroke: #1f77b4"/>
     <use xlink:href="#mbf421ee442" x="371.255274" y="166.937672" style="fill: #1f77b4; stroke: #1f77b4"/>
     <use xlink:href="#mbf421ee442" x="378.574122" y="159.161891" style="fill: #1f77b4; stroke: #1f77b4"/>
     <use xlink:href="#mbf421ee442" x="384.382431" y="146.325963" style="fill: #1f77b4; stroke: #1f77b4"/>
     <use xlink:href="#mbf421ee442" x="390.746922" y="137.659839" style="fill: #1f77b4; stroke: #1f77b4"/>
     <use xlink:href="#mbf421ee442" x="396.144415" y="127.507431" style="fill: #1f77b4; stroke: #1f77b4"/>
     <use xlink:href="#mbf421ee442" x="405.599508" y="110.187672" style="fill: #1f77b4; stroke: #1f77b4"/>
     <use xlink:href="#mbf421ee442" x="409.132527" y="100.340371" style="fill: #1f77b4; stroke: #1f77b4"/>
     <use xlink:href="#mbf421ee442" x="411.319333" y="93.180158" style="fill: #1f77b4; stroke: #1f77b4"/>
     <use xlink:href="#mbf421ee442" x="415.345332" y="84.522955" style="fill: #1f77b4; stroke: #1f77b4"/>
     <use xlink:href="#mbf421ee442" x="419.36501" y="75.567781" style="fill: #1f77b4; stroke: #1f77b4"/>
     <use xlink:href="#mbf421ee442" x="422.436651" y="66.020235" style="fill: #1f77b4; stroke: #1f77b4"/>
     <use xlink:href="#mbf421ee442" x="425.097476" y="59.156208" style="fill: #1f77b4; stroke: #1f77b4"/>
     <use xlink:href="#mbf421ee442" x="428.219679" y="51.992426" style="fill: #1f77b4; stroke: #1f77b4"/>
     <use xlink:href="#mbf421ee442" x="431.285" y="42.146909" style="fill: #1f77b4; stroke: #1f77b4"/>
    </g>
   </g>
   <g id="LineCollection_1">
    <path d="M 56.985 288.445091 
L 56.985 288.436267 
" clip-path="url(#pbdac62b849)" style="fill: none; stroke: #ff7f0e; stroke-width: 0.5"/>
    <path d="M 77.212003 286.646914 
L 77.212003 286.631299 
" clip-path="url(#pbdac62b849)" style="fill: none; stroke: #ff7f0e; stroke-width: 0.5"/>
    <path d="M 89.346881 285.632286 
L 89.346881 285.61273 
" clip-path="url(#pbdac62b849)" style="fill: none; stroke: #ff7f0e; stroke-width: 0.5"/>
    <path d="M 103.820252 284.382367 
L 103.820252 284.356394 
" clip-path="url(#pbdac62b849)" style="fill: none; stroke: #ff7f0e; stroke-width: 0.5"/>
    <path d="M 114.090657 283.475616 
L 114.090657 283.445722 
" clip-path="url(#pbdac62b849)" style="fill: none; stroke: #ff7f0e; stroke-width: 0.5"/>
    <path d="M 129.960802 282.089596 
L 129.960802 282.052401 
" clip-path="url(#pbdac62b849)" style="fill: none; stroke: #ff7f0e; stroke-width: 0.5"/>
    <path d="M 143.031078 280.823313 
L 143.031078 280.779203 
" clip-path="url(#pbdac62b849)" style="fill: none; stroke: #ff7f0e; stroke-width: 0.5"/>
    <path d="M 150.981951 280.054237 
L 150.981951 280.006892 
" clip-path="url(#pbdac62b849)" style="fill: none; stroke: #ff7f0e; stroke-width: 0.5"/>
    <path d="M 169.639326 277.979162 
L 169.639326 277.921611 
" clip-path="url(#pbdac62b849)" style="fill: none; stroke: #ff7f0e; stroke-width: 0.5"/>
    <path d="M 188.290382 275.523528 
L 188.290382 275.454616 
" clip-path="url(#pbdac62b849)" style="fill: none; stroke: #ff7f0e; stroke-width: 0.5"/>
    <path d="M 200.41894 273.211138 
L 200.41894 273.13502 
" clip-path="url(#pbdac62b849)" style="fill: none; stroke: #ff7f0e; stroke-width: 0.5"/>
    <path d="M 213.002556 271.260816 
L 213.002556 271.175237 
" clip-path="url(#pbdac62b849)" style="fill: none; stroke: #ff7f0e; stroke-width: 0.5"/>
    <path d="M 226.502608 268.473854 
L 226.502608 268.37774 
" clip-path="url(#pbdac62b849)" style="fill: none; stroke: #ff7f0e; stroke-width: 0.5"/>
    <path d="M 244.192985 263.885115 
L 244.192985 263.776319 
" clip-path="url(#pbdac62b849)" style="fill: none; stroke: #ff7f0e; stroke-width: 0.5"/>
    <path d="M 257.200058 259.703931 
L 257.200058 259.58789 
" clip-path="url(#pbdac62b849)" style="fill: none; stroke: #ff7f0e; stroke-width: 0.5"/>
    <path d="M 276.236648 252.216668 
L 276.236648 252.083941 
" clip-path="url(#pbdac62b849)" style="fill: none; stroke: #ff7f0e; stroke-width: 0.5"/>
    <path d="M 292.403846 243.540886 
L 292.403846 243.395518 
" clip-path="url(#pbdac62b849)" style="fill: none; stroke: #ff7f0e; stroke-width: 0.5"/>
    <path d="M 305.366677 235.995815 
L 305.366677 235.842071 
" clip-path="url(#pbdac62b849)" style="fill: none; stroke: #ff7f0e; stroke-width: 0.5"/>
    <path d="M 316.87585 228.902286 
L 316.87585 228.739196 
" clip-path="url(#pbdac62b849)" style="fill: none; stroke: #ff7f0e; stroke-width: 0.5"/>
    <path d="M 327.885724 218.439701 
L 327.885724 218.260522 
" clip-path="url(#pbdac62b849)" style="fill: none; stroke: #ff7f0e; stroke-width: 0.5"/>
    <path d="M 342.592944 205.097496 
L 342.592944 204.901072 
" clip-path="url(#pbdac62b849)" style="fill: none; stroke: #ff7f0e; stroke-width: 0.5"/>
    <path d="M 353.084557 192.453 
L 353.084557 192.253625 
" clip-path="url(#pbdac62b849)" style="fill: none; stroke: #ff7f0e; stroke-width: 0.5"/>
    <path d="M 359.48065 186.264752 
L 359.48065 186.062987 
" clip-path="url(#pbdac62b849)" style="fill: none; stroke: #ff7f0e; stroke-width: 0.5"/>
    <path d="M 365.390083 178.198838 
L 365.390083 177.972337 
" clip-path="url(#pbdac62b849)" style="fill: none; stroke: #ff7f0e; stroke-width: 0.5"/>
    <path d="M 371.255274 167.480878 
L 371.255274 167.253431 
" clip-path="url(#pbdac62b849)" style="fill: none; stroke: #ff7f0e; stroke-width: 0.5"/>
    <path d="M 378.574122 157.307655 
L 378.574122 157.066443 
" clip-path="url(#pbdac62b849)" style="fill: none; stroke: #ff7f0e; stroke-width: 0.5"/>
    <path d="M 384.382431 147.150486 
L 384.382431 146.914521 
" clip-path="url(#pbdac62b849)" style="fill: none; stroke: #ff7f0e; stroke-width: 0.5"/>
    <path d="M 390.746922 135.792664 
L 390.746922 135.535475 
" clip-path="url(#pbdac62b849)" style="fill: none; stroke: #ff7f0e; stroke-width: 0.5"/>
    <path d="M 396.144415 128.591527 
L 396.144415 128.329655 
" clip-path="url(#pbdac62b849)" style="fill: none; stroke: #ff7f0e; stroke-width: 0.5"/>
    <path d="M 405.599508 108.215163 
L 405.599508 107.927192 
" clip-path="url(#pbdac62b849)" style="fill: none; stroke: #ff7f0e; stroke-width: 0.5"/>
    <path d="M 409.132527 99.417964 
L 409.132527 99.120549 
" clip-path="url(#pbdac62b849)" style="fill: none; stroke: #ff7f0e; stroke-width: 0.5"/>
    <path d="M 411.319333 96.8031 
L 411.319333 96.494473 
" clip-path="url(#pbdac62b849)" style="fill: none; stroke: #ff7f0e; stroke-width: 0.5"/>
    <path d="M 415.345332 84.330762 
L 415.345332 84.061212 
" clip-path="url(#pbdac62b849)" style="fill: none; stroke: #ff7f0e; stroke-width: 0.5"/>
    <path d="M 419.36501 75.669281 
L 419.36501 75.338705 
" clip-path="url(#pbdac62b849)" style="fill: none; stroke: #ff7f0e; stroke-width: 0.5"/>
    <path d="M 422.436651 69.279696 
L 422.436651 68.94595 
" clip-path="url(#pbdac62b849)" style="fill: none; stroke: #ff7f0e; stroke-width: 0.5"/>
    <path d="M 425.097476 61.694965 
L 425.097476 61.383835 
" clip-path="url(#pbdac62b849)" style="fill: none; stroke: #ff7f0e; stroke-width: 0.5"/>
    <path d="M 428.219679 48.789345 
L 428.219679 48.400197 
" clip-path="url(#pbdac62b849)" style="fill: none; stroke: #ff7f0e; stroke-width: 0.5"/>
    <path d="M 431.285 45.05622 
L 431.285 44.692806 
" clip-path="url(#pbdac62b849)" style="fill: none; stroke: #ff7f0e; stroke-width: 0.5"/>
   </g>
   <g id="line2d_16">
    <defs>
     <path id="m45118025c1" d="M 3 0 
L -3 -0 
" style="stroke: #ff7f0e"/>
    </defs>
    <g clip-path="url(#pbdac62b849)">
     <use xlink:href="#m45118025c1" x="56.985" y="288.445091" style="fill: #ff7f0e; stroke: #ff7f0e"/>
     <use xlink:href="#m45118025c1" x="77.212003" y="286.646914" style="fill: #ff7f0e; stroke: #ff7f0e"/>
     <use xlink:href="#m45118025c1" x="89.346881" y="285.632286" style="fill: #ff7f0e; stroke: #ff7f0e"/>
     <use xlink:href="#m45118025c1" x="103.820252" y="284.382367" style="fill: #ff7f0e; stroke: #ff7f0e"/>
     <use xlink:href="#m45118025c1" x="114.090657" y="283.475616" style="fill: #ff7f0e; stroke: #ff7f0e"/>
     <use xlink:href="#m45118025c1" x="129.960802" y="282.089596" style="fill: #ff7f0e; stroke: #ff7f0e"/>
     <use xlink:href="#m45118025c1" x="143.031078" y="280.823313" style="fill: #ff7f0e; stroke: #ff7f0e"/>
     <use xlink:href="#m45118025c1" x="150.981951" y="280.054237" style="fill: #ff7f0e; stroke: #ff7f0e"/>
     <use xlink:href="#m45118025c1" x="169.639326" y="277.979162" style="fill: #ff7f0e; stroke: #ff7f0e"/>
     <use xlink:href="#m45118025c1" x="188.290382" y="275.523528" style="fill: #ff7f0e; stroke: #ff7f0e"/>
     <use xlink:href="#m45118025c1" x="200.41894" y="273.211138" style="fill: #ff7f0e; stroke: #ff7f0e"/>
     <use xlink:href="#m45118025c1" x="213.002556" y="271.260816" style="fill: #ff7f0e; stroke: #ff7f0e"/>
     <use xlink:href="#m45118025c1" x="226.502608" y="268.473854" style="fill: #ff7f0e; stroke: #ff7f0e"/>
     <use xlink:href="#m45118025c1" x="244.192985" y="263.885115" style="fill: #ff7f0e; stroke: #ff7f0e"/>
     <use xlink:href="#m45118025c1" x="257.200058" y="259.703931" style="fill: #ff7f0e; stroke: #ff7f0e"/>
     <use xlink:href="#m45118025c1" x="276.236648" y="252.216668" style="fill: #ff7f0e; stroke: #ff7f0e"/>
     <use xlink:href="#m45118025c1" x="292.403846" y="243.540886" style="fill: #ff7f0e; stroke: #ff7f0e"/>
     <use xlink:href="#m45118025c1" x="305.366677" y="235.995815" style="fill: #ff7f0e; stroke: #ff7f0e"/>
     <use xlink:href="#m45118025c1" x="316.87585" y="228.902286" style="fill: #ff7f0e; stroke: #ff7f0e"/>
     <use xlink:href="#m45118025c1" x="327.885724" y="218.439701" style="fill: #ff7f0e; stroke: #ff7f0e"/>
     <use xlink:href="#m45118025c1" x="342.592944" y="205.097496" style="fill: #ff7f0e; stroke: #ff7f0e"/>
     <use xlink:href="#m45118025c1" x="353.084557" y="192.453" style="fill: #ff7f0e; stroke: #ff7f0e"/>
     <use xlink:href="#m45118025c1" x="359.48065" y="186.264752" style="fill: #ff7f0e; stroke: #ff7f0e"/>
     <use xlink:href="#m45118025c1" x="365.390083" y="178.198838" style="fill: #ff7f0e; stroke: #ff7f0e"/>
     <use xlink:href="#m45118025c1" x="371.255274" y="167.480878" style="fill: #ff7f0e; stroke: #ff7f0e"/>
     <use xlink:href="#m45118025c1" x="378.574122" y="157.307655" style="fill: #ff7f0e; stroke: #ff7f0e"/>
     <use xlink:href="#m45118025c1" x="384.382431" y="147.150486" style="fill: #ff7f0e; stroke: #ff7f0e"/>
     <use xlink:href="#m45118025c1" x="390.746922" y="135.792664" style="fill: #ff7f0e; stroke: #ff7f0e"/>
     <use xlink:href="#m45118025c1" x="396.144415" y="128.591527" style="fill: #ff7f0e; stroke: #ff7f0e"/>
     <use xlink:href="#m45118025c1" x="405.599508" y="108.215163" style="fill: #ff7f0e; stroke: #ff7f0e"/>
     <use xlink:href="#m45118025c1" x="409.132527" y="99.417964" style="fill: #ff7f0e; stroke: #ff7f0e"/>
     <use xlink:href="#m45118025c1" x="411.319333" y="96.8031" style="fill: #ff7f0e; stroke: #ff7f0e"/>
     <use xlink:href="#m45118025c1" x="415.345332" y="84.330762" style="fill: #ff7f0e; stroke: #ff7f0e"/>
     <use xlink:href="#m45118025c1" x="419.36501" y="75.669281" style="fill: #ff7f0e; stroke: #ff7f0e"/>
     <use xlink:href="#m45118025c1" x="422.436651" y="69.279696" style="fill: #ff7f0e; stroke: #ff7f0e"/>
     <use xlink:href="#m45118025c1" x="425.097476" y="61.694965" style="fill: #ff7f0e; stroke: #ff7f0e"/>
     <use xlink:href="#m45118025c1" x="428.219679" y="48.789345" style="fill: #ff7f0e; stroke: #ff7f0e"/>
     <use xlink:href="#m45118025c1" x="431.285" y="45.05622" style="fill: #ff7f0e; stroke: #ff7f0e"/>
    </g>
   </g>
   <g id="line2d_17">
    <g clip-path="url(#pbdac62b849)">
     <use xlink:href="#m45118025c1" x="56.985" y="288.436267" style="fill: #ff7f0e; stroke: #ff7f0e"/>
     <use xlink:href="#m45118025c1" x="77.212003" y="286.631299" style="fill: #ff7f0e; stroke: #ff7f0e"/>
     <use xlink:href="#m45118025c1" x="89.346881" y="285.61273" style="fill: #ff7f0e; stroke: #ff7f0e"/>
     <use xlink:href="#m45118025c1" x="103.820252" y="284.356394" style="fill: #ff7f0e; stroke: #ff7f0e"/>
     <use xlink:href="#m45118025c1" x="114.090657" y="283.445722" style="fill: #ff7f0e; stroke: #ff7f0e"/>
     <use xlink:href="#m45118025c1" x="129.960802" y="282.052401" style="fill: #ff7f0e; stroke: #ff7f0e"/>
     <use xlink:href="#m45118025c1" x="143.031078" y="280.779203" style="fill: #ff7f0e; stroke: #ff7f0e"/>
     <use xlink:href="#m45118025c1" x="150.981951" y="280.006892" style="fill: #ff7f0e; stroke: #ff7f0e"/>
     <use xlink:href="#m45118025c1" x="169.639326" y="277.921611" style="fill: #ff7f0e; stroke: #ff7f0e"/>
     <use xlink:href="#m45118025c1" x="188.290382" y="275.454616" style="fill: #ff7f0e; stroke: #ff7f0e"/>
     <use xlink:href="#m45118025c1" x="200.41894" y="273.13502" style="fill: #ff7f0e; stroke: #ff7f0e"/>
     <use xlink:href="#m45118025c1" x="213.002556" y="271.175237" style="fill: #ff7f0e; stroke: #ff7f0e"/>
     <use xlink:href="#m45118025c1" x="226.502608" y="268.37774" style="fill: #ff7f0e; stroke: #ff7f0e"/>
     <use xlink:href="#m45118025c1" x="244.192985" y="263.776319" style="fill: #ff7f0e; stroke: #ff7f0e"/>
     <use xlink:href="#m45118025c1" x="257.200058" y="259.58789" style="fill: #ff7f0e; stroke: #ff7f0e"/>
     <use xlink:href="#m45118025c1" x="276.236648" y="252.083941" style="fill: #ff7f0e; stroke: #ff7f0e"/>
     <use xlink:href="#m45118025c1" x="292.403846" y="243.395518" style="fill: #ff7f0e; stroke: #ff7f0e"/>
     <use xlink:href="#m45118025c1" x="305.366677" y="235.842071" style="fill: #ff7f0e; stroke: #ff7f0e"/>
     <use xlink:href="#m45118025c1" x="316.87585" y="228.739196" style="fill: #ff7f0e; stroke: #ff7f0e"/>
     <use xlink:href="#m45118025c1" x="327.885724" y="218.260522" style="fill: #ff7f0e; stroke: #ff7f0e"/>
     <use xlink:href="#m45118025c1" x="342.592944" y="204.901072" style="fill: #ff7f0e; stroke: #ff7f0e"/>
     <use xlink:href="#m45118025c1" x="353.084557" y="192.253625" style="fill: #ff7f0e; stroke: #ff7f0e"/>
     <use xlink:href="#m45118025c1" x="359.48065" y="186.062987" style="fill: #ff7f0e; stroke: #ff7f0e"/>
     <use xlink:href="#m45118025c1" x="365.390083" y="177.972337" style="fill: #ff7f0e; stroke: #ff7f0e"/>
     <use xlink:href="#m45118025c1" x="371.255274" y="167.253431" style="fill: #ff7f0e; stroke: #ff7f0e"/>
     <use xlink:href="#m45118025c1" x="378.574122" y="157.066443" style="fill: #ff7f0e; stroke: #ff7f0e"/>
     <use xlink:href="#m45118025c1" x="384.382431" y="146.914521" style="fill: #ff7f0e; stroke: #ff7f0e"/>
     <use xlink:href="#m45118025c1" x="390.746922" y="135.535475" style="fill: #ff7f0e; stroke: #ff7f0e"/>
     <use xlink:href="#m45118025c1" x="396.144415" y="128.329655" style="fill: #ff7f0e; stroke: #ff7f0e"/>
     <use xlink:href="#m45118025c1" x="405.599508" y="107.927192" style="fill: #ff7f0e; stroke: #ff7f0e"/>
     <use xlink:href="#m45118025c1" x="409.132527" y="99.120549" style="fill: #ff7f0e; stroke: #ff7f0e"/>
     <use xlink:href="#m45118025c1" x="411.319333" y="96.494473" style="fill: #ff7f0e; stroke: #ff7f0e"/>
     <use xlink:href="#m45118025c1" x="415.345332" y="84.061212" style="fill: #ff7f0e; stroke: #ff7f0e"/>
     <use xlink:href="#m45118025c1" x="419.36501" y="75.338705" style="fill: #ff7f0e; stroke: #ff7f0e"/>
     <use xlink:href="#m45118025c1" x="422.436651" y="68.94595" style="fill: #ff7f0e; stroke: #ff7f0e"/>
     <use xlink:href="#m45118025c1" x="425.097476" y="61.383835" style="fill: #ff7f0e; stroke: #ff7f0e"/>
     <use xlink:href="#m45118025c1" x="428.219679" y="48.400197" style="fill: #ff7f0e; stroke: #ff7f0e"/>
     <use xlink:href="#m45118025c1" x="431.285" y="44.692806" style="fill: #ff7f0e; stroke: #ff7f0e"/>
    </g>
   </g>
   <g id="line2d_18">
    <path d="M 56.985 288.440679 
L 77.212003 286.639107 
L 89.346881 285.622508 
L 103.820252 284.369381 
L 114.090657 283.460669 
L 129.960802 282.070998 
L 143.031078 280.801258 
L 150.981951 280.030564 
L 169.639326 277.950386 
L 188.290382 275.489072 
L 200.41894 273.173079 
L 213.002556 271.218026 
L 226.502608 268.425797 
L 244.192985 263.830717 
L 257.200058 259.64591 
L 276.236648 252.150305 
L 292.403846 243.468202 
L 305.366677 235.918943 
L 316.87585 228.820741 
L 327.885724 218.350111 
L 342.592944 204.999284 
L 353.084557 192.353312 
L 359.48065 186.16387 
L 365.390083 178.085588 
L 371.255274 167.367155 
L 378.574122 157.187049 
L 384.382431 147.032504 
L 390.746922 135.66407 
L 396.144415 128.460591 
L 405.599508 108.071178 
L 409.132527 99.269257 
L 411.319333 96.648787 
L 415.345332 84.195987 
L 419.36501 75.503993 
L 422.436651 69.112823 
L 425.097476 61.5394 
L 428.219679 48.594771 
L 431.285 44.874513 
" clip-path="url(#pbdac62b849)" style="fill: none; stroke: #ff7f0e; stroke-width: 0.5; stroke-linecap: square"/>
    <defs>
     <path id="me5905f783b" d="M 0 1.5 
C 0.397805 1.5 0.77937 1.341951 1.06066 1.06066 
C 1.341951 0.77937 1.5 0.397805 1.5 0 
C 1.5 -0.397805 1.341951 -0.77937 1.06066 -1.06066 
C 0.77937 -1.341951 0.397805 -1.5 0 -1.5 
C -0.397805 -1.5 -0.77937 -1.341951 -1.06066 -1.06066 
C -1.341951 -0.77937 -1.5 -0.397805 -1.5 0 
C -1.5 0.397805 -1.341951 0.77937 -1.06066 1.06066 
C -0.77937 1.341951 -0.397805 1.5 0 1.5 
z
" style="stroke: #ff7f0e"/>
    </defs>
    <g clip-path="url(#pbdac62b849)">
     <use xlink:href="#me5905f783b" x="56.985" y="288.440679" style="fill: #ff7f0e; stroke: #ff7f0e"/>
     <use xlink:href="#me5905f783b" x="77.212003" y="286.639107" style="fill: #ff7f0e; stroke: #ff7f0e"/>
     <use xlink:href="#me5905f783b" x="89.346881" y="285.622508" style="fill: #ff7f0e; stroke: #ff7f0e"/>
     <use xlink:href="#me5905f783b" x="103.820252" y="284.369381" style="fill: #ff7f0e; stroke: #ff7f0e"/>
     <use xlink:href="#me5905f783b" x="114.090657" y="283.460669" style="fill: #ff7f0e; stroke: #ff7f0e"/>
     <use xlink:href="#me5905f783b" x="129.960802" y="282.070998" style="fill: #ff7f0e; stroke: #ff7f0e"/>
     <use xlink:href="#me5905f783b" x="143.031078" y="280.801258" style="fill: #ff7f0e; stroke: #ff7f0e"/>
     <use xlink:href="#me5905f783b" x="150.981951" y="280.030564" style="fill: #ff7f0e; stroke: #ff7f0e"/>
     <use xlink:href="#me5905f783b" x="169.639326" y="277.950386" style="fill: #ff7f0e; stroke: #ff7f0e"/>
     <use xlink:href="#me5905f783b" x="188.290382" y="275.489072" style="fill: #ff7f0e; stroke: #ff7f0e"/>
     <use xlink:href="#me5905f783b" x="200.41894" y="273.173079" style="fill: #ff7f0e; stroke: #ff7f0e"/>
     <use xlink:href="#me5905f783b" x="213.002556" y="271.218026" style="fill: #ff7f0e; stroke: #ff7f0e"/>
     <use xlink:href="#me5905f783b" x="226.502608" y="268.425797" style="fill: #ff7f0e; stroke: #ff7f0e"/>
     <use xlink:href="#me5905f783b" x="244.192985" y="263.830717" style="fill: #ff7f0e; stroke: #ff7f0e"/>
     <use xlink:href="#me5905f783b" x="257.200058" y="259.64591" style="fill: #ff7f0e; stroke: #ff7f0e"/>
     <use xlink:href="#me5905f783b" x="276.236648" y="252.150305" style="fill: #ff7f0e; stroke: #ff7f0e"/>
     <use xlink:href="#me5905f783b" x="292.403846" y="243.468202" style="fill: #ff7f0e; stroke: #ff7f0e"/>
     <use xlink:href="#me5905f783b" x="305.366677" y="235.918943" style="fill: #ff7f0e; stroke: #ff7f0e"/>
     <use xlink:href="#me5905f783b" x="316.87585" y="228.820741" style="fill: #ff7f0e; stroke: #ff7f0e"/>
     <use xlink:href="#me5905f783b" x="327.885724" y="218.350111" style="fill: #ff7f0e; stroke: #ff7f0e"/>
     <use xlink:href="#me5905f783b" x="342.592944" y="204.999284" style="fill: #ff7f0e; stroke: #ff7f0e"/>
     <use xlink:href="#me5905f783b" x="353.084557" y="192.353312" style="fill: #ff7f0e; stroke: #ff7f0e"/>
     <use xlink:href="#me5905f783b" x="359.48065" y="186.16387" style="fill: #ff7f0e; stroke: #ff7f0e"/>
     <use xlink:href="#me5905f783b" x="365.390083" y="178.085588" style="fill: #ff7f0e; stroke: #ff7f0e"/>
     <use xlink:href="#me5905f783b" x="371.255274" y="167.367155" style="fill: #ff7f0e; stroke: #ff7f0e"/>
     <use xlink:href="#me5905f783b" x="378.574122" y="157.187049" style="fill: #ff7f0e; stroke: #ff7f0e"/>
     <use xlink:href="#me5905f783b" x="384.382431" y="147.032504" style="fill: #ff7f0e; stroke: #ff7f0e"/>
     <use xlink:href="#me5905f783b" x="390.746922" y="135.66407" style="fill: #ff7f0e; stroke: #ff7f0e"/>
     <use xlink:href="#me5905f783b" x="396.144415" y="128.460591" style="fill: #ff7f0e; stroke: #ff7f0e"/>
     <use xlink:href="#me5905f783b" x="405.599508" y="108.071178" style="fill: #ff7f0e; stroke: #ff7f0e"/>
     <use xlink:href="#me5905f783b" x="409.132527" y="99.269257" style="fill: #ff7f0e; stroke: #ff7f0e"/>
     <use xlink:href="#me5905f783b" x="411.319333" y="96.648787" style="fill: #ff7f0e; stroke: #ff7f0e"/>
     <use xlink:href="#me5905f783b" x="415.345332" y="84.195987" style="fill: #ff7f0e; stroke: #ff7f0e"/>
     <use xlink:href="#me5905f783b" x="419.36501" y="75.503993" style="fill: #ff7f0e; stroke: #ff7f0e"/>
     <use xlink:href="#me5905f783b" x="422.436651" y="69.112823" style="fill: #ff7f0e; stroke: #ff7f0e"/>
     <use xlink:href="#me5905f783b" x="425.097476" y="61.5394" style="fill: #ff7f0e; stroke: #ff7f0e"/>
     <use xlink:href="#me5905f783b" x="428.219679" y="48.594771" style="fill: #ff7f0e; stroke: #ff7f0e"/>
     <use xlink:href="#me5905f783b" x="431.285" y="44.874513" style="fill: #ff7f0e; stroke: #ff7f0e"/>
    </g>
   </g>
   <g id="patch_3">
    <path d="M 38.27 300.76 
L 38.27 29.832 
" style="fill: none; stroke: #000000; stroke-width: 0.8; stroke-linejoin: miter; stroke-linecap: square"/>
   </g>
   <g id="patch_4">
    <path d="M 450 300.76 
L 450 29.832 
" style="fill: none; stroke: #000000; stroke-width: 0.8; stroke-linejoin: miter; stroke-linecap: square"/>
   </g>
   <g id="patch_5">
    <path d="M 38.27 300.76 
L 450 300.76 
" style="fill: none; stroke: #000000; stroke-width: 0.8; stroke-linejoin: miter; stroke-linecap: square"/>
   </g>
   <g id="patch_6">
    <path d="M 38.27 29.832 
L 450 29.832 
" style="fill: none; stroke: #000000; stroke-width: 0.8; stroke-linejoin: miter; stroke-linecap: square"/>
   </g>
   <g id="text_17">
    <!-- Pressure vs Density, $T^*=2.0$, $n_{iters}$=10000 -->
    <g transform="translate(114.895 23.832) scale(0.12 -0.12)">
     <defs>
      <path id="DejaVuSans-76" d="M 191 3500 
L 800 3500 
L 1894 563 
L 2988 3500 
L 3597 3500 
L 2284 0 
L 1503 0 
L 191 3500 
z
" transform="scale(0.015625)"/>
      <path id="DejaVuSans-44" d="M 1259 4147 
L 1259 519 
L 2022 519 
Q 2988 519 3436 956 
Q 3884 1394 3884 2338 
Q 3884 3275 3436 3711 
Q 2988 4147 2022 4147 
L 1259 4147 
z
M 628 4666 
L 1925 4666 
Q 3281 4666 3915 4102 
Q 4550 3538 4550 2338 
Q 4550 1131 3912 565 
Q 3275 0 1925 0 
L 628 0 
L 628 4666 
z
" transform="scale(0.015625)"/>
      <path id="DejaVuSans-2c" d="M 750 794 
L 1409 794 
L 1409 256 
L 897 -744 
L 494 -744 
L 750 256 
L 750 794 
z
" transform="scale(0.015625)"/>
      <path id="DejaVuSans-Oblique-54" d="M 378 4666 
L 4325 4666 
L 4225 4134 
L 2559 4134 
L 1759 0 
L 1125 0 
L 1925 4134 
L 275 4134 
L 378 4666 
z
" transform="scale(0.015625)"/>
      <path id="DejaVuSans-2a" d="M 3009 3897 
L 1888 3291 
L 3009 2681 
L 2828 2375 
L 1778 3009 
L 1778 1831 
L 1422 1831 
L 1422 3009 
L 372 2375 
L 191 2681 
L 1313 3291 
L 191 3897 
L 372 4206 
L 1422 3572 
L 1422 4750 
L 1778 4750 
L 1778 3572 
L 2828 4206 
L 3009 3897 
z
" transform="scale(0.015625)"/>
      <path id="DejaVuSans-3d" d="M 678 2906 
L 4684 2906 
L 4684 2381 
L 678 2381 
L 678 2906 
z
M 678 1631 
L 4684 1631 
L 4684 1100 
L 678 1100 
L 678 1631 
z
" transform="scale(0.015625)"/>
      <path id="DejaVuSans-Oblique-6e" d="M 3566 2113 
L 3156 0 
L 2578 0 
L 2988 2091 
Q 3016 2238 3031 2350 
Q 3047 2463 3047 2528 
Q 3047 2791 2881 2937 
Q 2716 3084 2419 3084 
Q 1956 3084 1622 2776 
Q 1288 2469 1184 1941 
L 800 0 
L 225 0 
L 903 3500 
L 1478 3500 
L 1363 2950 
Q 1603 3253 1940 3418 
Q 2278 3584 2650 3584 
Q 3113 3584 3367 3334 
Q 3622 3084 3622 2631 
Q 3622 2519 3608 2391 
Q 3594 2263 3566 2113 
z
" transform="scale(0.015625)"/>
      <path id="DejaVuSans-Oblique-69" d="M 1172 4863 
L 1747 4863 
L 1606 4134 
L 1031 4134 
L 1172 4863 
z
M 909 3500 
L 1484 3500 
L 800 0 
L 225 0 
L 909 3500 
z
" transform="scale(0.015625)"/>
      <path id="DejaVuSans-Oblique-74" d="M 2706 3500 
L 2619 3053 
L 1472 3053 
L 1100 1153 
Q 1081 1047 1072 975 
Q 1063 903 1063 863 
Q 1063 663 1183 572 
Q 1303 481 1569 481 
L 2150 481 
L 2053 0 
L 1503 0 
Q 991 0 739 200 
Q 488 400 488 806 
Q 488 878 497 964 
Q 506 1050 525 1153 
L 897 3053 
L 409 3053 
L 500 3500 
L 978 3500 
L 1172 4494 
L 1747 4494 
L 1556 3500 
L 2706 3500 
z
" transform="scale(0.015625)"/>
      <path id="DejaVuSans-Oblique-65" d="M 3078 2063 
Q 3088 2113 3092 2166 
Q 3097 2219 3097 2272 
Q 3097 2653 2873 2875 
Q 2650 3097 2266 3097 
Q 1838 3097 1509 2826 
Q 1181 2556 1013 2059 
L 3078 2063 
z
M 3578 1613 
L 903 1613 
Q 884 1494 878 1425 
Q 872 1356 872 1306 
Q 872 872 1139 634 
Q 1406 397 1894 397 
Q 2269 397 2603 481 
Q 2938 566 3225 728 
L 3116 159 
Q 2806 34 2476 -28 
Q 2147 -91 1806 -91 
Q 1078 -91 686 257 
Q 294 606 294 1247 
Q 294 1794 489 2264 
Q 684 2734 1063 3103 
Q 1306 3334 1642 3459 
Q 1978 3584 2356 3584 
Q 2950 3584 3301 3228 
Q 3653 2872 3653 2272 
Q 3653 2128 3634 1964 
Q 3616 1800 3578 1613 
z
" transform="scale(0.015625)"/>
      <path id="DejaVuSans-Oblique-72" d="M 2853 2969 
Q 2766 3016 2653 3041 
Q 2541 3066 2413 3066 
Q 1953 3066 1609 2717 
Q 1266 2369 1153 1784 
L 800 0 
L 225 0 
L 909 3500 
L 1484 3500 
L 1375 2956 
Q 1603 3259 1920 3421 
Q 2238 3584 2597 3584 
Q 2691 3584 2781 3573 
Q 2872 3563 2963 3538 
L 2853 2969 
z
" transform="scale(0.015625)"/>
      <path id="DejaVuSans-Oblique-73" d="M 3200 3397 
L 3091 2853 
Q 2863 2978 2609 3040 
Q 2356 3103 2088 3103 
Q 1634 3103 1373 2948 
Q 1113 2794 1113 2528 
Q 1113 2219 1719 2053 
Q 1766 2041 1788 2034 
L 1972 1978 
Q 2547 1819 2739 1644 
Q 2931 1469 2931 1166 
Q 2931 609 2489 259 
Q 2047 -91 1331 -91 
Q 1053 -91 747 -37 
Q 441 16 72 128 
L 184 722 
Q 500 559 806 475 
Q 1113 391 1394 391 
Q 1816 391 2080 572 
Q 2344 753 2344 1031 
Q 2344 1331 1650 1516 
L 1591 1531 
L 1394 1581 
Q 956 1697 753 1886 
Q 550 2075 550 2369 
Q 550 2928 970 3256 
Q 1391 3584 2113 3584 
Q 2397 3584 2667 3537 
Q 2938 3491 3200 3397 
z
" transform="scale(0.015625)"/>
     </defs>
     <use xlink:href="#DejaVuSans-50" transform="translate(0 0.765625)"/>
     <use xlink:href="#DejaVuSans-72" transform="translate(60.302734 0.765625)"/>
     <use xlink:href="#DejaVuSans-65" transform="translate(101.416016 0.765625)"/>
     <use xlink:href="#DejaVuSans-73" transform="translate(162.939453 0.765625)"/>
     <use xlink:href="#DejaVuSans-73" transform="translate(215.039062 0.765625)"/>
     <use xlink:href="#DejaVuSans-75" transform="translate(267.138672 0.765625)"/>
     <use xlink:href="#DejaVuSans-72" transform="translate(330.517578 0.765625)"/>
     <use xlink:href="#DejaVuSans-65" transform="translate(371.630859 0.765625)"/>
     <use xlink:href="#DejaVuSans-20" transform="translate(433.154297 0.765625)"/>
     <use xlink:href="#DejaVuSans-76" transform="translate(464.941406 0.765625)"/>
     <use xlink:href="#DejaVuSans-73" transform="translate(524.121094 0.765625)"/>
     <use xlink:href="#DejaVuSans-20" transform="translate(576.220703 0.765625)"/>
     <use xlink:href="#DejaVuSans-44" transform="translate(608.007812 0.765625)"/>
     <use xlink:href="#DejaVuSans-65" transform="translate(685.009766 0.765625)"/>
     <use xlink:href="#DejaVuSans-6e" transform="translate(746.533203 0.765625)"/>
     <use xlink:href="#DejaVuSans-73" transform="translate(809.912109 0.765625)"/>
     <use xlink:href="#DejaVuSans-69" transform="translate(862.011719 0.765625)"/>
     <use xlink:href="#DejaVuSans-74" transform="translate(889.794922 0.765625)"/>
     <use xlink:href="#DejaVuSans-79" transform="translate(929.003906 0.765625)"/>
     <use xlink:href="#DejaVuSans-2c" transform="translate(988.183594 0.765625)"/>
     <use xlink:href="#DejaVuSans-20" transform="translate(1019.970703 0.765625)"/>
     <use xlink:href="#DejaVuSans-Oblique-54" transform="translate(1051.757812 0.765625)"/>
     <use xlink:href="#DejaVuSans-2a" transform="translate(1133.496263 39.046875) scale(0.7)"/>
     <use xlink:href="#DejaVuSans-3d" transform="translate(1204.350755 0.765625)"/>
     <use xlink:href="#DejaVuSans-32" transform="translate(1307.62224 0.765625)"/>
     <use xlink:href="#DejaVuSans-2e" transform="translate(1371.245286 0.765625)"/>
     <use xlink:href="#DejaVuSans-30" transform="translate(1403.032396 0.765625)"/>
     <use xlink:href="#DejaVuSans-2c" transform="translate(1466.655443 0.765625)"/>
     <use xlink:href="#DejaVuSans-20" transform="translate(1498.442552 0.765625)"/>
     <use xlink:href="#DejaVuSans-Oblique-6e" transform="translate(1530.229661 0.765625)"/>
     <use xlink:href="#DejaVuSans-Oblique-69" transform="translate(1593.608568 -15.640625) scale(0.7)"/>
     <use xlink:href="#DejaVuSans-Oblique-74" transform="translate(1613.05681 -15.640625) scale(0.7)"/>
     <use xlink:href="#DejaVuSans-Oblique-65" transform="translate(1640.503099 -15.640625) scale(0.7)"/>
     <use xlink:href="#DejaVuSans-Oblique-72" transform="translate(1683.569505 -15.640625) scale(0.7)"/>
     <use xlink:href="#DejaVuSans-Oblique-73" transform="translate(1712.348802 -15.640625) scale(0.7)"/>
     <use xlink:href="#DejaVuSans-3d" transform="translate(1751.552904 0.765625)"/>
     <use xlink:href="#DejaVuSans-31" transform="translate(1835.341966 0.765625)"/>
     <use xlink:href="#DejaVuSans-30" transform="translate(1898.965013 0.765625)"/>
     <use xlink:href="#DejaVuSans-30" transform="translate(1962.58806 0.765625)"/>
     <use xlink:href="#DejaVuSans-30" transform="translate(2026.211107 0.765625)"/>
     <use xlink:href="#DejaVuSans-30" transform="translate(2089.834154 0.765625)"/>
    </g>
   </g>
   <g id="legend_1">
    <g id="patch_7">
     <path d="M 45.27 67.18825 
L 165.929375 67.18825 
Q 167.929375 67.18825 167.929375 65.18825 
L 167.929375 36.832 
Q 167.929375 34.832 165.929375 34.832 
L 45.27 34.832 
Q 43.27 34.832 43.27 36.832 
L 43.27 65.18825 
Q 43.27 67.18825 45.27 67.18825 
z
" style="fill: #ffffff; opacity: 0.8; stroke: #cccccc; stroke-linejoin: miter"/>
    </g>
    <g id="line2d_19">
     <path d="M 47.27 42.930437 
L 57.27 42.930437 
L 67.27 42.930437 
" style="fill: none; stroke: #1f77b4; stroke-width: 0.5; stroke-linecap: square"/>
     <g>
      <use xlink:href="#mbf421ee442" x="57.27" y="42.930437" style="fill: #1f77b4; stroke: #1f77b4"/>
     </g>
    </g>
    <g id="text_18">
     <!-- Real Data -->
     <g transform="translate(75.27 46.430437) scale(0.1 -0.1)">
      <defs>
       <path id="DejaVuSans-52" d="M 2841 2188 
Q 3044 2119 3236 1894 
Q 3428 1669 3622 1275 
L 4263 0 
L 3584 0 
L 2988 1197 
Q 2756 1666 2539 1819 
Q 2322 1972 1947 1972 
L 1259 1972 
L 1259 0 
L 628 0 
L 628 4666 
L 2053 4666 
Q 2853 4666 3247 4331 
Q 3641 3997 3641 3322 
Q 3641 2881 3436 2590 
Q 3231 2300 2841 2188 
z
M 1259 4147 
L 1259 2491 
L 2053 2491 
Q 2509 2491 2742 2702 
Q 2975 2913 2975 3322 
Q 2975 3731 2742 3939 
Q 2509 4147 2053 4147 
L 1259 4147 
z
" transform="scale(0.015625)"/>
       <path id="DejaVuSans-61" d="M 2194 1759 
Q 1497 1759 1228 1600 
Q 959 1441 959 1056 
Q 959 750 1161 570 
Q 1363 391 1709 391 
Q 2188 391 2477 730 
Q 2766 1069 2766 1631 
L 2766 1759 
L 2194 1759 
z
M 3341 1997 
L 3341 0 
L 2766 0 
L 2766 531 
Q 2569 213 2275 61 
Q 1981 -91 1556 -91 
Q 1019 -91 701 211 
Q 384 513 384 1019 
Q 384 1609 779 1909 
Q 1175 2209 1959 2209 
L 2766 2209 
L 2766 2266 
Q 2766 2663 2505 2880 
Q 2244 3097 1772 3097 
Q 1472 3097 1187 3025 
Q 903 2953 641 2809 
L 641 3341 
Q 956 3463 1253 3523 
Q 1550 3584 1831 3584 
Q 2591 3584 2966 3190 
Q 3341 2797 3341 1997 
z
" transform="scale(0.015625)"/>
       <path id="DejaVuSans-6c" d="M 603 4863 
L 1178 4863 
L 1178 0 
L 603 0 
L 603 4863 
z
" transform="scale(0.015625)"/>
      </defs>
      <use xlink:href="#DejaVuSans-52"/>
      <use xlink:href="#DejaVuSans-65" transform="translate(64.982422 0)"/>
      <use xlink:href="#DejaVuSans-61" transform="translate(126.505859 0)"/>
      <use xlink:href="#DejaVuSans-6c" transform="translate(187.785156 0)"/>
      <use xlink:href="#DejaVuSans-20" transform="translate(215.568359 0)"/>
      <use xlink:href="#DejaVuSans-44" transform="translate(247.355469 0)"/>
      <use xlink:href="#DejaVuSans-61" transform="translate(324.357422 0)"/>
      <use xlink:href="#DejaVuSans-74" transform="translate(385.636719 0)"/>
      <use xlink:href="#DejaVuSans-61" transform="translate(424.845703 0)"/>
     </g>
    </g>
    <g id="LineCollection_2">
     <path d="M 57.27 62.608563 
L 57.27 52.608563 
" style="fill: none; stroke: #ff7f0e; stroke-width: 0.5"/>
    </g>
    <g id="line2d_20">
     <g>
      <use xlink:href="#m45118025c1" x="57.27" y="62.608563" style="fill: #ff7f0e; stroke: #ff7f0e"/>
     </g>
    </g>
    <g id="line2d_21">
     <g>
      <use xlink:href="#m45118025c1" x="57.27" y="52.608563" style="fill: #ff7f0e; stroke: #ff7f0e"/>
     </g>
    </g>
    <g id="line2d_22">
     <path d="M 47.27 57.608563 
L 67.27 57.608563 
" style="fill: none; stroke: #ff7f0e; stroke-width: 0.5; stroke-linecap: square"/>
    </g>
    <g id="line2d_23">
     <g>
      <use xlink:href="#me5905f783b" x="57.27" y="57.608563" style="fill: #ff7f0e; stroke: #ff7f0e"/>
     </g>
    </g>
    <g id="text_19">
     <!-- Simulated N=300 -->
     <g transform="translate(75.27 61.108563) scale(0.1 -0.1)">
      <defs>
       <path id="DejaVuSans-53" d="M 3425 4513 
L 3425 3897 
Q 3066 4069 2747 4153 
Q 2428 4238 2131 4238 
Q 1616 4238 1336 4038 
Q 1056 3838 1056 3469 
Q 1056 3159 1242 3001 
Q 1428 2844 1947 2747 
L 2328 2669 
Q 3034 2534 3370 2195 
Q 3706 1856 3706 1288 
Q 3706 609 3251 259 
Q 2797 -91 1919 -91 
Q 1588 -91 1214 -16 
Q 841 59 441 206 
L 441 856 
Q 825 641 1194 531 
Q 1563 422 1919 422 
Q 2459 422 2753 634 
Q 3047 847 3047 1241 
Q 3047 1584 2836 1778 
Q 2625 1972 2144 2069 
L 1759 2144 
Q 1053 2284 737 2584 
Q 422 2884 422 3419 
Q 422 4038 858 4394 
Q 1294 4750 2059 4750 
Q 2388 4750 2728 4690 
Q 3069 4631 3425 4513 
z
" transform="scale(0.015625)"/>
       <path id="DejaVuSans-6d" d="M 3328 2828 
Q 3544 3216 3844 3400 
Q 4144 3584 4550 3584 
Q 5097 3584 5394 3201 
Q 5691 2819 5691 2113 
L 5691 0 
L 5113 0 
L 5113 2094 
Q 5113 2597 4934 2840 
Q 4756 3084 4391 3084 
Q 3944 3084 3684 2787 
Q 3425 2491 3425 1978 
L 3425 0 
L 2847 0 
L 2847 2094 
Q 2847 2600 2669 2842 
Q 2491 3084 2119 3084 
Q 1678 3084 1418 2786 
Q 1159 2488 1159 1978 
L 1159 0 
L 581 0 
L 581 3500 
L 1159 3500 
L 1159 2956 
Q 1356 3278 1631 3431 
Q 1906 3584 2284 3584 
Q 2666 3584 2933 3390 
Q 3200 3197 3328 2828 
z
" transform="scale(0.015625)"/>
       <path id="DejaVuSans-4e" d="M 628 4666 
L 1478 4666 
L 3547 763 
L 3547 4666 
L 4159 4666 
L 4159 0 
L 3309 0 
L 1241 3903 
L 1241 0 
L 628 0 
L 628 4666 
z
" transform="scale(0.015625)"/>
      </defs>
      <use xlink:href="#DejaVuSans-53"/>
      <use xlink:href="#DejaVuSans-69" transform="translate(63.476562 0)"/>
      <use xlink:href="#DejaVuSans-6d" transform="translate(91.259766 0)"/>
      <use xlink:href="#DejaVuSans-75" transform="translate(188.671875 0)"/>
      <use xlink:href="#DejaVuSans-6c" transform="translate(252.050781 0)"/>
      <use xlink:href="#DejaVuSans-61" transform="translate(279.833984 0)"/>
      <use xlink:href="#DejaVuSans-74" transform="translate(341.113281 0)"/>
      <use xlink:href="#DejaVuSans-65" transform="translate(380.322266 0)"/>
      <use xlink:href="#DejaVuSans-64" transform="translate(441.845703 0)"/>
      <use xlink:href="#DejaVuSans-20" transform="translate(505.322266 0)"/>
      <use xlink:href="#DejaVuSans-4e" transform="translate(537.109375 0)"/>
      <use xlink:href="#DejaVuSans-3d" transform="translate(611.914062 0)"/>
      <use xlink:href="#DejaVuSans-33" transform="translate(695.703125 0)"/>
      <use xlink:href="#DejaVuSans-30" transform="translate(759.326172 0)"/>
      <use xlink:href="#DejaVuSans-30" transform="translate(822.949219 0)"/>
     </g>
    </g>
   </g>
  </g>
 </g>
 <defs>
  <clipPath id="pbdac62b849">
   <rect x="38.27" y="29.832" width="411.73" height="270.928"/>
  </clipPath>
 </defs>
</svg>
