<?xml version="1.0" encoding="utf-8" standalone="no"?>
<!DOCTYPE svg PUBLIC "-//W3C//DTD SVG 1.1//EN"
  "http://www.w3.org/Graphics/SVG/1.1/DTD/svg11.dtd">
<svg xmlns:xlink="http://www.w3.org/1999/xlink" width="460.8pt" height="345.6pt" viewBox="0 0 460.8 345.6" xmlns="http://www.w3.org/2000/svg" version="1.1">
 <metadata>
  <rdf:RDF xmlns:dc="http://purl.org/dc/elements/1.1/" xmlns:cc="http://creativecommons.org/ns#" xmlns:rdf="http://www.w3.org/1999/02/22-rdf-syntax-ns#">
   <cc:Work>
    <dc:type rdf:resource="http://purl.org/dc/dcmitype/StillImage"/>
    <dc:date>2025-05-12T18:11:47.181745</dc:date>
    <dc:format>image/svg+xml</dc:format>
    <dc:creator>
     <cc:Agent>
      <dc:title>Matplotlib v3.10.1, https://matplotlib.org/</dc:title>
     </cc:Agent>
    </dc:creator>
   </cc:Work>
  </rdf:RDF>
 </metadata>
 <defs>
  <style type="text/css">*{stroke-linejoin: round; stroke-linecap: butt}</style>
 </defs>
 <g id="figure_1">
  <g id="patch_1">
   <path d="M 0 345.6 
L 460.8 345.6 
L 460.8 0 
L 0 0 
z
" style="fill: #ffffff"/>
  </g>
  <g id="axes_1">
   <g id="patch_2">
    <path d="M 62.3 300.76 
L 450 300.76 
L 450 29.832 
L 62.3 29.832 
z
" style="fill: #ffffff"/>
   </g>
   <g id="matplotlib.axis_1">
    <g id="xtick_1">
     <g id="line2d_1">
      <defs>
       <path id="m9b61cf9a6f" d="M 0 0 
L 0 3.5 
" style="stroke: #000000; stroke-width: 0.8"/>
      </defs>
      <g>
       <use xlink:href="#m9b61cf9a6f" x="75.363465" y="300.76" style="stroke: #000000; stroke-width: 0.8"/>
      </g>
     </g>
     <g id="text_1">
      <!-- 0.0 -->
      <g transform="translate(67.411902 315.358437) scale(0.1 -0.1)">
       <defs>
        <path id="DejaVuSans-30" d="M 2034 4250 
Q 1547 4250 1301 3770 
Q 1056 3291 1056 2328 
Q 1056 1369 1301 889 
Q 1547 409 2034 409 
Q 2525 409 2770 889 
Q 3016 1369 3016 2328 
Q 3016 3291 2770 3770 
Q 2525 4250 2034 4250 
z
M 2034 4750 
Q 2819 4750 3233 4129 
Q 3647 3509 3647 2328 
Q 3647 1150 3233 529 
Q 2819 -91 2034 -91 
Q 1250 -91 836 529 
Q 422 1150 422 2328 
Q 422 3509 836 4129 
Q 1250 4750 2034 4750 
z
" transform="scale(0.015625)"/>
        <path id="DejaVuSans-2e" d="M 684 794 
L 1344 794 
L 1344 0 
L 684 0 
L 684 794 
z
" transform="scale(0.015625)"/>
       </defs>
       <use xlink:href="#DejaVuSans-30"/>
       <use xlink:href="#DejaVuSans-2e" transform="translate(63.623047 0)"/>
       <use xlink:href="#DejaVuSans-30" transform="translate(95.410156 0)"/>
      </g>
     </g>
    </g>
    <g id="xtick_2">
     <g id="line2d_2">
      <g>
       <use xlink:href="#m9b61cf9a6f" x="118.914391" y="300.76" style="stroke: #000000; stroke-width: 0.8"/>
      </g>
     </g>
     <g id="text_2">
      <!-- 0.1 -->
      <g transform="translate(110.962828 315.358437) scale(0.1 -0.1)">
       <defs>
        <path id="DejaVuSans-31" d="M 794 531 
L 1825 531 
L 1825 4091 
L 703 3866 
L 703 4441 
L 1819 4666 
L 2450 4666 
L 2450 531 
L 3481 531 
L 3481 0 
L 794 0 
L 794 531 
z
" transform="scale(0.015625)"/>
       </defs>
       <use xlink:href="#DejaVuSans-30"/>
       <use xlink:href="#DejaVuSans-2e" transform="translate(63.623047 0)"/>
       <use xlink:href="#DejaVuSans-31" transform="translate(95.410156 0)"/>
      </g>
     </g>
    </g>
    <g id="xtick_3">
     <g id="line2d_3">
      <g>
       <use xlink:href="#m9b61cf9a6f" x="162.465317" y="300.76" style="stroke: #000000; stroke-width: 0.8"/>
      </g>
     </g>
     <g id="text_3">
      <!-- 0.2 -->
      <g transform="translate(154.513754 315.358437) scale(0.1 -0.1)">
       <defs>
        <path id="DejaVuSans-32" d="M 1228 531 
L 3431 531 
L 3431 0 
L 469 0 
L 469 531 
Q 828 903 1448 1529 
Q 2069 2156 2228 2338 
Q 2531 2678 2651 2914 
Q 2772 3150 2772 3378 
Q 2772 3750 2511 3984 
Q 2250 4219 1831 4219 
Q 1534 4219 1204 4116 
Q 875 4013 500 3803 
L 500 4441 
Q 881 4594 1212 4672 
Q 1544 4750 1819 4750 
Q 2544 4750 2975 4387 
Q 3406 4025 3406 3419 
Q 3406 3131 3298 2873 
Q 3191 2616 2906 2266 
Q 2828 2175 2409 1742 
Q 1991 1309 1228 531 
z
" transform="scale(0.015625)"/>
       </defs>
       <use xlink:href="#DejaVuSans-30"/>
       <use xlink:href="#DejaVuSans-2e" transform="translate(63.623047 0)"/>
       <use xlink:href="#DejaVuSans-32" transform="translate(95.410156 0)"/>
      </g>
     </g>
    </g>
    <g id="xtick_4">
     <g id="line2d_4">
      <g>
       <use xlink:href="#m9b61cf9a6f" x="206.016243" y="300.76" style="stroke: #000000; stroke-width: 0.8"/>
      </g>
     </g>
     <g id="text_4">
      <!-- 0.3 -->
      <g transform="translate(198.06468 315.358437) scale(0.1 -0.1)">
       <defs>
        <path id="DejaVuSans-33" d="M 2597 2516 
Q 3050 2419 3304 2112 
Q 3559 1806 3559 1356 
Q 3559 666 3084 287 
Q 2609 -91 1734 -91 
Q 1441 -91 1130 -33 
Q 819 25 488 141 
L 488 750 
Q 750 597 1062 519 
Q 1375 441 1716 441 
Q 2309 441 2620 675 
Q 2931 909 2931 1356 
Q 2931 1769 2642 2001 
Q 2353 2234 1838 2234 
L 1294 2234 
L 1294 2753 
L 1863 2753 
Q 2328 2753 2575 2939 
Q 2822 3125 2822 3475 
Q 2822 3834 2567 4026 
Q 2313 4219 1838 4219 
Q 1578 4219 1281 4162 
Q 984 4106 628 3988 
L 628 4550 
Q 988 4650 1302 4700 
Q 1616 4750 1894 4750 
Q 2613 4750 3031 4423 
Q 3450 4097 3450 3541 
Q 3450 3153 3228 2886 
Q 3006 2619 2597 2516 
z
" transform="scale(0.015625)"/>
       </defs>
       <use xlink:href="#DejaVuSans-30"/>
       <use xlink:href="#DejaVuSans-2e" transform="translate(63.623047 0)"/>
       <use xlink:href="#DejaVuSans-33" transform="translate(95.410156 0)"/>
      </g>
     </g>
    </g>
    <g id="xtick_5">
     <g id="line2d_5">
      <g>
       <use xlink:href="#m9b61cf9a6f" x="249.567168" y="300.76" style="stroke: #000000; stroke-width: 0.8"/>
      </g>
     </g>
     <g id="text_5">
      <!-- 0.4 -->
      <g transform="translate(241.615606 315.358437) scale(0.1 -0.1)">
       <defs>
        <path id="DejaVuSans-34" d="M 2419 4116 
L 825 1625 
L 2419 1625 
L 2419 4116 
z
M 2253 4666 
L 3047 4666 
L 3047 1625 
L 3713 1625 
L 3713 1100 
L 3047 1100 
L 3047 0 
L 2419 0 
L 2419 1100 
L 313 1100 
L 313 1709 
L 2253 4666 
z
" transform="scale(0.015625)"/>
       </defs>
       <use xlink:href="#DejaVuSans-30"/>
       <use xlink:href="#DejaVuSans-2e" transform="translate(63.623047 0)"/>
       <use xlink:href="#DejaVuSans-34" transform="translate(95.410156 0)"/>
      </g>
     </g>
    </g>
    <g id="xtick_6">
     <g id="line2d_6">
      <g>
       <use xlink:href="#m9b61cf9a6f" x="293.118094" y="300.76" style="stroke: #000000; stroke-width: 0.8"/>
      </g>
     </g>
     <g id="text_6">
      <!-- 0.5 -->
      <g transform="translate(285.166532 315.358437) scale(0.1 -0.1)">
       <defs>
        <path id="DejaVuSans-35" d="M 691 4666 
L 3169 4666 
L 3169 4134 
L 1269 4134 
L 1269 2991 
Q 1406 3038 1543 3061 
Q 1681 3084 1819 3084 
Q 2600 3084 3056 2656 
Q 3513 2228 3513 1497 
Q 3513 744 3044 326 
Q 2575 -91 1722 -91 
Q 1428 -91 1123 -41 
Q 819 9 494 109 
L 494 744 
Q 775 591 1075 516 
Q 1375 441 1709 441 
Q 2250 441 2565 725 
Q 2881 1009 2881 1497 
Q 2881 1984 2565 2268 
Q 2250 2553 1709 2553 
Q 1456 2553 1204 2497 
Q 953 2441 691 2322 
L 691 4666 
z
" transform="scale(0.015625)"/>
       </defs>
       <use xlink:href="#DejaVuSans-30"/>
       <use xlink:href="#DejaVuSans-2e" transform="translate(63.623047 0)"/>
       <use xlink:href="#DejaVuSans-35" transform="translate(95.410156 0)"/>
      </g>
     </g>
    </g>
    <g id="xtick_7">
     <g id="line2d_7">
      <g>
       <use xlink:href="#m9b61cf9a6f" x="336.66902" y="300.76" style="stroke: #000000; stroke-width: 0.8"/>
      </g>
     </g>
     <g id="text_7">
      <!-- 0.6 -->
      <g transform="translate(328.717458 315.358437) scale(0.1 -0.1)">
       <defs>
        <path id="DejaVuSans-36" d="M 2113 2584 
Q 1688 2584 1439 2293 
Q 1191 2003 1191 1497 
Q 1191 994 1439 701 
Q 1688 409 2113 409 
Q 2538 409 2786 701 
Q 3034 994 3034 1497 
Q 3034 2003 2786 2293 
Q 2538 2584 2113 2584 
z
M 3366 4563 
L 3366 3988 
Q 3128 4100 2886 4159 
Q 2644 4219 2406 4219 
Q 1781 4219 1451 3797 
Q 1122 3375 1075 2522 
Q 1259 2794 1537 2939 
Q 1816 3084 2150 3084 
Q 2853 3084 3261 2657 
Q 3669 2231 3669 1497 
Q 3669 778 3244 343 
Q 2819 -91 2113 -91 
Q 1303 -91 875 529 
Q 447 1150 447 2328 
Q 447 3434 972 4092 
Q 1497 4750 2381 4750 
Q 2619 4750 2861 4703 
Q 3103 4656 3366 4563 
z
" transform="scale(0.015625)"/>
       </defs>
       <use xlink:href="#DejaVuSans-30"/>
       <use xlink:href="#DejaVuSans-2e" transform="translate(63.623047 0)"/>
       <use xlink:href="#DejaVuSans-36" transform="translate(95.410156 0)"/>
      </g>
     </g>
    </g>
    <g id="xtick_8">
     <g id="line2d_8">
      <g>
       <use xlink:href="#m9b61cf9a6f" x="380.219946" y="300.76" style="stroke: #000000; stroke-width: 0.8"/>
      </g>
     </g>
     <g id="text_8">
      <!-- 0.7 -->
      <g transform="translate(372.268384 315.358437) scale(0.1 -0.1)">
       <defs>
        <path id="DejaVuSans-37" d="M 525 4666 
L 3525 4666 
L 3525 4397 
L 1831 0 
L 1172 0 
L 2766 4134 
L 525 4134 
L 525 4666 
z
" transform="scale(0.015625)"/>
       </defs>
       <use xlink:href="#DejaVuSans-30"/>
       <use xlink:href="#DejaVuSans-2e" transform="translate(63.623047 0)"/>
       <use xlink:href="#DejaVuSans-37" transform="translate(95.410156 0)"/>
      </g>
     </g>
    </g>
    <g id="xtick_9">
     <g id="line2d_9">
      <g>
       <use xlink:href="#m9b61cf9a6f" x="423.770872" y="300.76" style="stroke: #000000; stroke-width: 0.8"/>
      </g>
     </g>
     <g id="text_9">
      <!-- 0.8 -->
      <g transform="translate(415.819309 315.358437) scale(0.1 -0.1)">
       <defs>
        <path id="DejaVuSans-38" d="M 2034 2216 
Q 1584 2216 1326 1975 
Q 1069 1734 1069 1313 
Q 1069 891 1326 650 
Q 1584 409 2034 409 
Q 2484 409 2743 651 
Q 3003 894 3003 1313 
Q 3003 1734 2745 1975 
Q 2488 2216 2034 2216 
z
M 1403 2484 
Q 997 2584 770 2862 
Q 544 3141 544 3541 
Q 544 4100 942 4425 
Q 1341 4750 2034 4750 
Q 2731 4750 3128 4425 
Q 3525 4100 3525 3541 
Q 3525 3141 3298 2862 
Q 3072 2584 2669 2484 
Q 3125 2378 3379 2068 
Q 3634 1759 3634 1313 
Q 3634 634 3220 271 
Q 2806 -91 2034 -91 
Q 1263 -91 848 271 
Q 434 634 434 1313 
Q 434 1759 690 2068 
Q 947 2378 1403 2484 
z
M 1172 3481 
Q 1172 3119 1398 2916 
Q 1625 2713 2034 2713 
Q 2441 2713 2670 2916 
Q 2900 3119 2900 3481 
Q 2900 3844 2670 4047 
Q 2441 4250 2034 4250 
Q 1625 4250 1398 4047 
Q 1172 3844 1172 3481 
z
" transform="scale(0.015625)"/>
       </defs>
       <use xlink:href="#DejaVuSans-30"/>
       <use xlink:href="#DejaVuSans-2e" transform="translate(63.623047 0)"/>
       <use xlink:href="#DejaVuSans-38" transform="translate(95.410156 0)"/>
      </g>
     </g>
    </g>
    <g id="text_10">
     <!-- density $\rho$ -->
     <g transform="translate(233.05 329.038125) scale(0.1 -0.1)">
      <defs>
       <path id="DejaVuSans-64" d="M 2906 2969 
L 2906 4863 
L 3481 4863 
L 3481 0 
L 2906 0 
L 2906 525 
Q 2725 213 2448 61 
Q 2172 -91 1784 -91 
Q 1150 -91 751 415 
Q 353 922 353 1747 
Q 353 2572 751 3078 
Q 1150 3584 1784 3584 
Q 2172 3584 2448 3432 
Q 2725 3281 2906 2969 
z
M 947 1747 
Q 947 1113 1208 752 
Q 1469 391 1925 391 
Q 2381 391 2643 752 
Q 2906 1113 2906 1747 
Q 2906 2381 2643 2742 
Q 2381 3103 1925 3103 
Q 1469 3103 1208 2742 
Q 947 2381 947 1747 
z
" transform="scale(0.015625)"/>
       <path id="DejaVuSans-65" d="M 3597 1894 
L 3597 1613 
L 953 1613 
Q 991 1019 1311 708 
Q 1631 397 2203 397 
Q 2534 397 2845 478 
Q 3156 559 3463 722 
L 3463 178 
Q 3153 47 2828 -22 
Q 2503 -91 2169 -91 
Q 1331 -91 842 396 
Q 353 884 353 1716 
Q 353 2575 817 3079 
Q 1281 3584 2069 3584 
Q 2775 3584 3186 3129 
Q 3597 2675 3597 1894 
z
M 3022 2063 
Q 3016 2534 2758 2815 
Q 2500 3097 2075 3097 
Q 1594 3097 1305 2825 
Q 1016 2553 972 2059 
L 3022 2063 
z
" transform="scale(0.015625)"/>
       <path id="DejaVuSans-6e" d="M 3513 2113 
L 3513 0 
L 2938 0 
L 2938 2094 
Q 2938 2591 2744 2837 
Q 2550 3084 2163 3084 
Q 1697 3084 1428 2787 
Q 1159 2491 1159 1978 
L 1159 0 
L 581 0 
L 581 3500 
L 1159 3500 
L 1159 2956 
Q 1366 3272 1645 3428 
Q 1925 3584 2291 3584 
Q 2894 3584 3203 3211 
Q 3513 2838 3513 2113 
z
" transform="scale(0.015625)"/>
       <path id="DejaVuSans-73" d="M 2834 3397 
L 2834 2853 
Q 2591 2978 2328 3040 
Q 2066 3103 1784 3103 
Q 1356 3103 1142 2972 
Q 928 2841 928 2578 
Q 928 2378 1081 2264 
Q 1234 2150 1697 2047 
L 1894 2003 
Q 2506 1872 2764 1633 
Q 3022 1394 3022 966 
Q 3022 478 2636 193 
Q 2250 -91 1575 -91 
Q 1294 -91 989 -36 
Q 684 19 347 128 
L 347 722 
Q 666 556 975 473 
Q 1284 391 1588 391 
Q 1994 391 2212 530 
Q 2431 669 2431 922 
Q 2431 1156 2273 1281 
Q 2116 1406 1581 1522 
L 1381 1569 
Q 847 1681 609 1914 
Q 372 2147 372 2553 
Q 372 3047 722 3315 
Q 1072 3584 1716 3584 
Q 2034 3584 2315 3537 
Q 2597 3491 2834 3397 
z
" transform="scale(0.015625)"/>
       <path id="DejaVuSans-69" d="M 603 3500 
L 1178 3500 
L 1178 0 
L 603 0 
L 603 3500 
z
M 603 4863 
L 1178 4863 
L 1178 4134 
L 603 4134 
L 603 4863 
z
" transform="scale(0.015625)"/>
       <path id="DejaVuSans-74" d="M 1172 4494 
L 1172 3500 
L 2356 3500 
L 2356 3053 
L 1172 3053 
L 1172 1153 
Q 1172 725 1289 603 
Q 1406 481 1766 481 
L 2356 481 
L 2356 0 
L 1766 0 
Q 1100 0 847 248 
Q 594 497 594 1153 
L 594 3053 
L 172 3053 
L 172 3500 
L 594 3500 
L 594 4494 
L 1172 4494 
z
" transform="scale(0.015625)"/>
       <path id="DejaVuSans-79" d="M 2059 -325 
Q 1816 -950 1584 -1140 
Q 1353 -1331 966 -1331 
L 506 -1331 
L 506 -850 
L 844 -850 
Q 1081 -850 1212 -737 
Q 1344 -625 1503 -206 
L 1606 56 
L 191 3500 
L 800 3500 
L 1894 763 
L 2988 3500 
L 3597 3500 
L 2059 -325 
z
" transform="scale(0.015625)"/>
       <path id="DejaVuSans-20" transform="scale(0.015625)"/>
       <path id="DejaVuSans-Oblique-3c1" d="M 1203 2875 
Q 1453 3194 1981 3475 
Q 2188 3584 2756 3584 
Q 3394 3584 3694 3078 
Q 3994 2572 3834 1747 
Q 3672 922 3175 415 
Q 2678 -91 2041 -91 
Q 1656 -91 1409 63 
Q 1163 213 1044 525 
L 681 -1331 
L 103 -1331 
L 697 1716 
Q 838 2438 1203 2875 
z
M 3238 1747 
Q 3359 2381 3169 2744 
Q 2978 3103 2522 3103 
Q 2066 3103 1734 2744 
Q 1403 2381 1281 1747 
Q 1156 1113 1347 750 
Q 1538 391 1994 391 
Q 2450 391 2781 750 
Q 3113 1113 3238 1747 
z
" transform="scale(0.015625)"/>
      </defs>
      <use xlink:href="#DejaVuSans-64" transform="translate(0 0.015625)"/>
      <use xlink:href="#DejaVuSans-65" transform="translate(63.476562 0.015625)"/>
      <use xlink:href="#DejaVuSans-6e" transform="translate(125 0.015625)"/>
      <use xlink:href="#DejaVuSans-73" transform="translate(188.378906 0.015625)"/>
      <use xlink:href="#DejaVuSans-69" transform="translate(240.478516 0.015625)"/>
      <use xlink:href="#DejaVuSans-74" transform="translate(268.261719 0.015625)"/>
      <use xlink:href="#DejaVuSans-79" transform="translate(307.470703 0.015625)"/>
      <use xlink:href="#DejaVuSans-20" transform="translate(366.650391 0.015625)"/>
      <use xlink:href="#DejaVuSans-Oblique-3c1" transform="translate(398.4375 0.015625)"/>
     </g>
    </g>
   </g>
   <g id="matplotlib.axis_2">
    <g id="ytick_1">
     <g id="line2d_10">
      <defs>
       <path id="m7a995335e6" d="M 0 0 
L -3.5 0 
" style="stroke: #000000; stroke-width: 0.8"/>
      </defs>
      <g>
       <use xlink:href="#m7a995335e6" x="62.3" y="269.08123" style="stroke: #000000; stroke-width: 0.8"/>
      </g>
     </g>
     <g id="text_11">
      <!-- −0.25 -->
      <g transform="translate(24.654688 272.880448) scale(0.1 -0.1)">
       <defs>
        <path id="DejaVuSans-2212" d="M 678 2272 
L 4684 2272 
L 4684 1741 
L 678 1741 
L 678 2272 
z
" transform="scale(0.015625)"/>
       </defs>
       <use xlink:href="#DejaVuSans-2212"/>
       <use xlink:href="#DejaVuSans-30" transform="translate(83.789062 0)"/>
       <use xlink:href="#DejaVuSans-2e" transform="translate(147.412109 0)"/>
       <use xlink:href="#DejaVuSans-32" transform="translate(179.199219 0)"/>
       <use xlink:href="#DejaVuSans-35" transform="translate(242.822266 0)"/>
      </g>
     </g>
    </g>
    <g id="ytick_2">
     <g id="line2d_11">
      <g>
       <use xlink:href="#m7a995335e6" x="62.3" y="231.675783" style="stroke: #000000; stroke-width: 0.8"/>
      </g>
     </g>
     <g id="text_12">
      <!-- 0.00 -->
      <g transform="translate(33.034375 235.475002) scale(0.1 -0.1)">
       <use xlink:href="#DejaVuSans-30"/>
       <use xlink:href="#DejaVuSans-2e" transform="translate(63.623047 0)"/>
       <use xlink:href="#DejaVuSans-30" transform="translate(95.410156 0)"/>
       <use xlink:href="#DejaVuSans-30" transform="translate(159.033203 0)"/>
      </g>
     </g>
    </g>
    <g id="ytick_3">
     <g id="line2d_12">
      <g>
       <use xlink:href="#m7a995335e6" x="62.3" y="194.270337" style="stroke: #000000; stroke-width: 0.8"/>
      </g>
     </g>
     <g id="text_13">
      <!-- 0.25 -->
      <g transform="translate(33.034375 198.069556) scale(0.1 -0.1)">
       <use xlink:href="#DejaVuSans-30"/>
       <use xlink:href="#DejaVuSans-2e" transform="translate(63.623047 0)"/>
       <use xlink:href="#DejaVuSans-32" transform="translate(95.410156 0)"/>
       <use xlink:href="#DejaVuSans-35" transform="translate(159.033203 0)"/>
      </g>
     </g>
    </g>
    <g id="ytick_4">
     <g id="line2d_13">
      <g>
       <use xlink:href="#m7a995335e6" x="62.3" y="156.86489" style="stroke: #000000; stroke-width: 0.8"/>
      </g>
     </g>
     <g id="text_14">
      <!-- 0.50 -->
      <g transform="translate(33.034375 160.664109) scale(0.1 -0.1)">
       <use xlink:href="#DejaVuSans-30"/>
       <use xlink:href="#DejaVuSans-2e" transform="translate(63.623047 0)"/>
       <use xlink:href="#DejaVuSans-35" transform="translate(95.410156 0)"/>
       <use xlink:href="#DejaVuSans-30" transform="translate(159.033203 0)"/>
      </g>
     </g>
    </g>
    <g id="ytick_5">
     <g id="line2d_14">
      <g>
       <use xlink:href="#m7a995335e6" x="62.3" y="119.459444" style="stroke: #000000; stroke-width: 0.8"/>
      </g>
     </g>
     <g id="text_15">
      <!-- 0.75 -->
      <g transform="translate(33.034375 123.258663) scale(0.1 -0.1)">
       <use xlink:href="#DejaVuSans-30"/>
       <use xlink:href="#DejaVuSans-2e" transform="translate(63.623047 0)"/>
       <use xlink:href="#DejaVuSans-37" transform="translate(95.410156 0)"/>
       <use xlink:href="#DejaVuSans-35" transform="translate(159.033203 0)"/>
      </g>
     </g>
    </g>
    <g id="ytick_6">
     <g id="line2d_15">
      <g>
       <use xlink:href="#m7a995335e6" x="62.3" y="82.053997" style="stroke: #000000; stroke-width: 0.8"/>
      </g>
     </g>
     <g id="text_16">
      <!-- 1.00 -->
      <g transform="translate(33.034375 85.853216) scale(0.1 -0.1)">
       <use xlink:href="#DejaVuSans-31"/>
       <use xlink:href="#DejaVuSans-2e" transform="translate(63.623047 0)"/>
       <use xlink:href="#DejaVuSans-30" transform="translate(95.410156 0)"/>
       <use xlink:href="#DejaVuSans-30" transform="translate(159.033203 0)"/>
      </g>
     </g>
    </g>
    <g id="ytick_7">
     <g id="line2d_16">
      <g>
       <use xlink:href="#m7a995335e6" x="62.3" y="44.648551" style="stroke: #000000; stroke-width: 0.8"/>
      </g>
     </g>
     <g id="text_17">
      <!-- 1.25 -->
      <g transform="translate(33.034375 48.44777) scale(0.1 -0.1)">
       <use xlink:href="#DejaVuSans-31"/>
       <use xlink:href="#DejaVuSans-2e" transform="translate(63.623047 0)"/>
       <use xlink:href="#DejaVuSans-32" transform="translate(95.410156 0)"/>
       <use xlink:href="#DejaVuSans-35" transform="translate(159.033203 0)"/>
      </g>
     </g>
    </g>
    <g id="text_18">
     <!-- pressure P -->
     <g transform="translate(18.575 191.491312) rotate(-90) scale(0.1 -0.1)">
      <defs>
       <path id="DejaVuSans-70" d="M 1159 525 
L 1159 -1331 
L 581 -1331 
L 581 3500 
L 1159 3500 
L 1159 2969 
Q 1341 3281 1617 3432 
Q 1894 3584 2278 3584 
Q 2916 3584 3314 3078 
Q 3713 2572 3713 1747 
Q 3713 922 3314 415 
Q 2916 -91 2278 -91 
Q 1894 -91 1617 61 
Q 1341 213 1159 525 
z
M 3116 1747 
Q 3116 2381 2855 2742 
Q 2594 3103 2138 3103 
Q 1681 3103 1420 2742 
Q 1159 2381 1159 1747 
Q 1159 1113 1420 752 
Q 1681 391 2138 391 
Q 2594 391 2855 752 
Q 3116 1113 3116 1747 
z
" transform="scale(0.015625)"/>
       <path id="DejaVuSans-72" d="M 2631 2963 
Q 2534 3019 2420 3045 
Q 2306 3072 2169 3072 
Q 1681 3072 1420 2755 
Q 1159 2438 1159 1844 
L 1159 0 
L 581 0 
L 581 3500 
L 1159 3500 
L 1159 2956 
Q 1341 3275 1631 3429 
Q 1922 3584 2338 3584 
Q 2397 3584 2469 3576 
Q 2541 3569 2628 3553 
L 2631 2963 
z
" transform="scale(0.015625)"/>
       <path id="DejaVuSans-75" d="M 544 1381 
L 544 3500 
L 1119 3500 
L 1119 1403 
Q 1119 906 1312 657 
Q 1506 409 1894 409 
Q 2359 409 2629 706 
Q 2900 1003 2900 1516 
L 2900 3500 
L 3475 3500 
L 3475 0 
L 2900 0 
L 2900 538 
Q 2691 219 2414 64 
Q 2138 -91 1772 -91 
Q 1169 -91 856 284 
Q 544 659 544 1381 
z
M 1991 3584 
L 1991 3584 
z
" transform="scale(0.015625)"/>
       <path id="DejaVuSans-50" d="M 1259 4147 
L 1259 2394 
L 2053 2394 
Q 2494 2394 2734 2622 
Q 2975 2850 2975 3272 
Q 2975 3691 2734 3919 
Q 2494 4147 2053 4147 
L 1259 4147 
z
M 628 4666 
L 2053 4666 
Q 2838 4666 3239 4311 
Q 3641 3956 3641 3272 
Q 3641 2581 3239 2228 
Q 2838 1875 2053 1875 
L 1259 1875 
L 1259 0 
L 628 0 
L 628 4666 
z
" transform="scale(0.015625)"/>
      </defs>
      <use xlink:href="#DejaVuSans-70"/>
      <use xlink:href="#DejaVuSans-72" transform="translate(63.476562 0)"/>
      <use xlink:href="#DejaVuSans-65" transform="translate(102.339844 0)"/>
      <use xlink:href="#DejaVuSans-73" transform="translate(163.863281 0)"/>
      <use xlink:href="#DejaVuSans-73" transform="translate(215.962891 0)"/>
      <use xlink:href="#DejaVuSans-75" transform="translate(268.0625 0)"/>
      <use xlink:href="#DejaVuSans-72" transform="translate(331.441406 0)"/>
      <use xlink:href="#DejaVuSans-65" transform="translate(370.304688 0)"/>
      <use xlink:href="#DejaVuSans-20" transform="translate(431.828125 0)"/>
      <use xlink:href="#DejaVuSans-50" transform="translate(463.615234 0)"/>
     </g>
    </g>
   </g>
   <g id="line2d_17">
    <path d="M 79.922727 232.673833 
L 95.293242 232.644249 
L 113.879261 231.099686 
L 138.964268 231.554336 
L 166.4694 231.501397 
L 193.981331 231.951376 
L 219.868514 231.901551 
L 253.02967 231.334796 
L 295.096343 231.253831 
L 328.257498 230.687076 
L 363.063795 232.128876 
L 388.950979 232.079051 
L 401.880974 231.048304 
L 407.305862 213.4353 
L 408.842234 207.397179 
L 410.358211 199.850305 
L 414.226333 186.766671 
L 416.435717 170.668646 
L 422.73756 158.083258 
L 424.906155 138.96773 
L 427.156328 125.88721 
L 431.792636 109.784514 
L 432.377273 93.186687 
" clip-path="url(#p180880cb21)" style="fill: none; stroke: #1f77b4; stroke-width: 0.5; stroke-linecap: square"/>
    <defs>
     <path id="m5136a3abfb" d="M 0 1.5 
C 0.397805 1.5 0.77937 1.341951 1.06066 1.06066 
C 1.341951 0.77937 1.5 0.397805 1.5 0 
C 1.5 -0.397805 1.341951 -0.77937 1.06066 -1.06066 
C 0.77937 -1.341951 0.397805 -1.5 0 -1.5 
C -0.397805 -1.5 -0.77937 -1.341951 -1.06066 -1.06066 
C -1.341951 -0.77937 -1.5 -0.397805 -1.5 0 
C -1.5 0.397805 -1.341951 0.77937 -1.06066 1.06066 
C -0.77937 1.341951 -0.397805 1.5 0 1.5 
z
" style="stroke: #1f77b4"/>
    </defs>
    <g clip-path="url(#p180880cb21)">
     <use xlink:href="#m5136a3abfb" x="79.922727" y="232.673833" style="fill: #1f77b4; stroke: #1f77b4"/>
     <use xlink:href="#m5136a3abfb" x="95.293242" y="232.644249" style="fill: #1f77b4; stroke: #1f77b4"/>
     <use xlink:href="#m5136a3abfb" x="113.879261" y="231.099686" style="fill: #1f77b4; stroke: #1f77b4"/>
     <use xlink:href="#m5136a3abfb" x="138.964268" y="231.554336" style="fill: #1f77b4; stroke: #1f77b4"/>
     <use xlink:href="#m5136a3abfb" x="166.4694" y="231.501397" style="fill: #1f77b4; stroke: #1f77b4"/>
     <use xlink:href="#m5136a3abfb" x="193.981331" y="231.951376" style="fill: #1f77b4; stroke: #1f77b4"/>
     <use xlink:href="#m5136a3abfb" x="219.868514" y="231.901551" style="fill: #1f77b4; stroke: #1f77b4"/>
     <use xlink:href="#m5136a3abfb" x="253.02967" y="231.334796" style="fill: #1f77b4; stroke: #1f77b4"/>
     <use xlink:href="#m5136a3abfb" x="295.096343" y="231.253831" style="fill: #1f77b4; stroke: #1f77b4"/>
     <use xlink:href="#m5136a3abfb" x="328.257498" y="230.687076" style="fill: #1f77b4; stroke: #1f77b4"/>
     <use xlink:href="#m5136a3abfb" x="363.063795" y="232.128876" style="fill: #1f77b4; stroke: #1f77b4"/>
     <use xlink:href="#m5136a3abfb" x="388.950979" y="232.079051" style="fill: #1f77b4; stroke: #1f77b4"/>
     <use xlink:href="#m5136a3abfb" x="401.880974" y="231.048304" style="fill: #1f77b4; stroke: #1f77b4"/>
     <use xlink:href="#m5136a3abfb" x="407.305862" y="213.4353" style="fill: #1f77b4; stroke: #1f77b4"/>
     <use xlink:href="#m5136a3abfb" x="408.842234" y="207.397179" style="fill: #1f77b4; stroke: #1f77b4"/>
     <use xlink:href="#m5136a3abfb" x="410.358211" y="199.850305" style="fill: #1f77b4; stroke: #1f77b4"/>
     <use xlink:href="#m5136a3abfb" x="414.226333" y="186.766671" style="fill: #1f77b4; stroke: #1f77b4"/>
     <use xlink:href="#m5136a3abfb" x="416.435717" y="170.668646" style="fill: #1f77b4; stroke: #1f77b4"/>
     <use xlink:href="#m5136a3abfb" x="422.73756" y="158.083258" style="fill: #1f77b4; stroke: #1f77b4"/>
     <use xlink:href="#m5136a3abfb" x="424.906155" y="138.96773" style="fill: #1f77b4; stroke: #1f77b4"/>
     <use xlink:href="#m5136a3abfb" x="427.156328" y="125.88721" style="fill: #1f77b4; stroke: #1f77b4"/>
     <use xlink:href="#m5136a3abfb" x="431.792636" y="109.784514" style="fill: #1f77b4; stroke: #1f77b4"/>
     <use xlink:href="#m5136a3abfb" x="432.377273" y="93.186687" style="fill: #1f77b4; stroke: #1f77b4"/>
    </g>
   </g>
   <g id="LineCollection_1">
    <path d="M 79.922727 230.357791 
L 79.922727 230.355537 
" clip-path="url(#p180880cb21)" style="fill: none; stroke: #ff7f0e; stroke-width: 0.5"/>
    <path d="M 95.293242 227.30511 
L 95.293242 227.283468 
" clip-path="url(#p180880cb21)" style="fill: none; stroke: #ff7f0e; stroke-width: 0.5"/>
    <path d="M 113.879261 226.644141 
L 113.879261 226.580338 
" clip-path="url(#p180880cb21)" style="fill: none; stroke: #ff7f0e; stroke-width: 0.5"/>
    <path d="M 138.964268 227.997379 
L 138.964268 227.860799 
" clip-path="url(#p180880cb21)" style="fill: none; stroke: #ff7f0e; stroke-width: 0.5"/>
    <path d="M 166.4694 230.280714 
L 166.4694 230.047754 
" clip-path="url(#p180880cb21)" style="fill: none; stroke: #ff7f0e; stroke-width: 0.5"/>
    <path d="M 193.981331 236.158822 
L 193.981331 235.848214 
" clip-path="url(#p180880cb21)" style="fill: none; stroke: #ff7f0e; stroke-width: 0.5"/>
    <path d="M 219.868514 242.222337 
L 219.868514 241.837972 
" clip-path="url(#p180880cb21)" style="fill: none; stroke: #ff7f0e; stroke-width: 0.5"/>
    <path d="M 253.02967 253.921864 
L 253.02967 253.40308 
" clip-path="url(#p180880cb21)" style="fill: none; stroke: #ff7f0e; stroke-width: 0.5"/>
    <path d="M 295.096343 269.408843 
L 295.096343 268.73404 
" clip-path="url(#p180880cb21)" style="fill: none; stroke: #ff7f0e; stroke-width: 0.5"/>
    <path d="M 328.257498 275.498958 
L 328.257498 274.678401 
" clip-path="url(#p180880cb21)" style="fill: none; stroke: #ff7f0e; stroke-width: 0.5"/>
    <path d="M 363.063795 256.703321 
L 363.063795 255.734521 
" clip-path="url(#p180880cb21)" style="fill: none; stroke: #ff7f0e; stroke-width: 0.5"/>
    <path d="M 388.950979 213.075597 
L 388.950979 211.99875 
" clip-path="url(#p180880cb21)" style="fill: none; stroke: #ff7f0e; stroke-width: 0.5"/>
    <path d="M 401.880974 175.812211 
L 401.880974 174.591976 
" clip-path="url(#p180880cb21)" style="fill: none; stroke: #ff7f0e; stroke-width: 0.5"/>
    <path d="M 407.305862 153.075818 
L 407.305862 151.845696 
" clip-path="url(#p180880cb21)" style="fill: none; stroke: #ff7f0e; stroke-width: 0.5"/>
    <path d="M 408.842234 142.547401 
L 408.842234 141.279812 
" clip-path="url(#p180880cb21)" style="fill: none; stroke: #ff7f0e; stroke-width: 0.5"/>
    <path d="M 410.358211 144.944915 
L 410.358211 143.578753 
" clip-path="url(#p180880cb21)" style="fill: none; stroke: #ff7f0e; stroke-width: 0.5"/>
    <path d="M 414.226333 128.39673 
L 414.226333 127.11424 
" clip-path="url(#p180880cb21)" style="fill: none; stroke: #ff7f0e; stroke-width: 0.5"/>
    <path d="M 416.435717 123.053706 
L 416.435717 121.800951 
" clip-path="url(#p180880cb21)" style="fill: none; stroke: #ff7f0e; stroke-width: 0.5"/>
    <path d="M 422.73756 86.39509 
L 422.73756 85.037906 
" clip-path="url(#p180880cb21)" style="fill: none; stroke: #ff7f0e; stroke-width: 0.5"/>
    <path d="M 424.906155 74.840871 
L 424.906155 73.288862 
" clip-path="url(#p180880cb21)" style="fill: none; stroke: #ff7f0e; stroke-width: 0.5"/>
    <path d="M 427.156328 64.217012 
L 427.156328 62.674957 
" clip-path="url(#p180880cb21)" style="fill: none; stroke: #ff7f0e; stroke-width: 0.5"/>
    <path d="M 431.792636 43.713687 
L 431.792636 42.146909 
" clip-path="url(#p180880cb21)" style="fill: none; stroke: #ff7f0e; stroke-width: 0.5"/>
    <path d="M 432.377273 45.708483 
L 432.377273 44.165042 
" clip-path="url(#p180880cb21)" style="fill: none; stroke: #ff7f0e; stroke-width: 0.5"/>
   </g>
   <g id="line2d_18">
    <defs>
     <path id="mfc7f8e11b5" d="M 3 0 
L -3 -0 
" style="stroke: #ff7f0e"/>
    </defs>
    <g clip-path="url(#p180880cb21)">
     <use xlink:href="#mfc7f8e11b5" x="79.922727" y="230.357791" style="fill: #ff7f0e; stroke: #ff7f0e"/>
     <use xlink:href="#mfc7f8e11b5" x="95.293242" y="227.30511" style="fill: #ff7f0e; stroke: #ff7f0e"/>
     <use xlink:href="#mfc7f8e11b5" x="113.879261" y="226.644141" style="fill: #ff7f0e; stroke: #ff7f0e"/>
     <use xlink:href="#mfc7f8e11b5" x="138.964268" y="227.997379" style="fill: #ff7f0e; stroke: #ff7f0e"/>
     <use xlink:href="#mfc7f8e11b5" x="166.4694" y="230.280714" style="fill: #ff7f0e; stroke: #ff7f0e"/>
     <use xlink:href="#mfc7f8e11b5" x="193.981331" y="236.158822" style="fill: #ff7f0e; stroke: #ff7f0e"/>
     <use xlink:href="#mfc7f8e11b5" x="219.868514" y="242.222337" style="fill: #ff7f0e; stroke: #ff7f0e"/>
     <use xlink:href="#mfc7f8e11b5" x="253.02967" y="253.921864" style="fill: #ff7f0e; stroke: #ff7f0e"/>
     <use xlink:href="#mfc7f8e11b5" x="295.096343" y="269.408843" style="fill: #ff7f0e; stroke: #ff7f0e"/>
     <use xlink:href="#mfc7f8e11b5" x="328.257498" y="275.498958" style="fill: #ff7f0e; stroke: #ff7f0e"/>
     <use xlink:href="#mfc7f8e11b5" x="363.063795" y="256.703321" style="fill: #ff7f0e; stroke: #ff7f0e"/>
     <use xlink:href="#mfc7f8e11b5" x="388.950979" y="213.075597" style="fill: #ff7f0e; stroke: #ff7f0e"/>
     <use xlink:href="#mfc7f8e11b5" x="401.880974" y="175.812211" style="fill: #ff7f0e; stroke: #ff7f0e"/>
     <use xlink:href="#mfc7f8e11b5" x="407.305862" y="153.075818" style="fill: #ff7f0e; stroke: #ff7f0e"/>
     <use xlink:href="#mfc7f8e11b5" x="408.842234" y="142.547401" style="fill: #ff7f0e; stroke: #ff7f0e"/>
     <use xlink:href="#mfc7f8e11b5" x="410.358211" y="144.944915" style="fill: #ff7f0e; stroke: #ff7f0e"/>
     <use xlink:href="#mfc7f8e11b5" x="414.226333" y="128.39673" style="fill: #ff7f0e; stroke: #ff7f0e"/>
     <use xlink:href="#mfc7f8e11b5" x="416.435717" y="123.053706" style="fill: #ff7f0e; stroke: #ff7f0e"/>
     <use xlink:href="#mfc7f8e11b5" x="422.73756" y="86.39509" style="fill: #ff7f0e; stroke: #ff7f0e"/>
     <use xlink:href="#mfc7f8e11b5" x="424.906155" y="74.840871" style="fill: #ff7f0e; stroke: #ff7f0e"/>
     <use xlink:href="#mfc7f8e11b5" x="427.156328" y="64.217012" style="fill: #ff7f0e; stroke: #ff7f0e"/>
     <use xlink:href="#mfc7f8e11b5" x="431.792636" y="43.713687" style="fill: #ff7f0e; stroke: #ff7f0e"/>
     <use xlink:href="#mfc7f8e11b5" x="432.377273" y="45.708483" style="fill: #ff7f0e; stroke: #ff7f0e"/>
    </g>
   </g>
   <g id="line2d_19">
    <g clip-path="url(#p180880cb21)">
     <use xlink:href="#mfc7f8e11b5" x="79.922727" y="230.355537" style="fill: #ff7f0e; stroke: #ff7f0e"/>
     <use xlink:href="#mfc7f8e11b5" x="95.293242" y="227.283468" style="fill: #ff7f0e; stroke: #ff7f0e"/>
     <use xlink:href="#mfc7f8e11b5" x="113.879261" y="226.580338" style="fill: #ff7f0e; stroke: #ff7f0e"/>
     <use xlink:href="#mfc7f8e11b5" x="138.964268" y="227.860799" style="fill: #ff7f0e; stroke: #ff7f0e"/>
     <use xlink:href="#mfc7f8e11b5" x="166.4694" y="230.047754" style="fill: #ff7f0e; stroke: #ff7f0e"/>
     <use xlink:href="#mfc7f8e11b5" x="193.981331" y="235.848214" style="fill: #ff7f0e; stroke: #ff7f0e"/>
     <use xlink:href="#mfc7f8e11b5" x="219.868514" y="241.837972" style="fill: #ff7f0e; stroke: #ff7f0e"/>
     <use xlink:href="#mfc7f8e11b5" x="253.02967" y="253.40308" style="fill: #ff7f0e; stroke: #ff7f0e"/>
     <use xlink:href="#mfc7f8e11b5" x="295.096343" y="268.73404" style="fill: #ff7f0e; stroke: #ff7f0e"/>
     <use xlink:href="#mfc7f8e11b5" x="328.257498" y="274.678401" style="fill: #ff7f0e; stroke: #ff7f0e"/>
     <use xlink:href="#mfc7f8e11b5" x="363.063795" y="255.734521" style="fill: #ff7f0e; stroke: #ff7f0e"/>
     <use xlink:href="#mfc7f8e11b5" x="388.950979" y="211.99875" style="fill: #ff7f0e; stroke: #ff7f0e"/>
     <use xlink:href="#mfc7f8e11b5" x="401.880974" y="174.591976" style="fill: #ff7f0e; stroke: #ff7f0e"/>
     <use xlink:href="#mfc7f8e11b5" x="407.305862" y="151.845696" style="fill: #ff7f0e; stroke: #ff7f0e"/>
     <use xlink:href="#mfc7f8e11b5" x="408.842234" y="141.279812" style="fill: #ff7f0e; stroke: #ff7f0e"/>
     <use xlink:href="#mfc7f8e11b5" x="410.358211" y="143.578753" style="fill: #ff7f0e; stroke: #ff7f0e"/>
     <use xlink:href="#mfc7f8e11b5" x="414.226333" y="127.11424" style="fill: #ff7f0e; stroke: #ff7f0e"/>
     <use xlink:href="#mfc7f8e11b5" x="416.435717" y="121.800951" style="fill: #ff7f0e; stroke: #ff7f0e"/>
     <use xlink:href="#mfc7f8e11b5" x="422.73756" y="85.037906" style="fill: #ff7f0e; stroke: #ff7f0e"/>
     <use xlink:href="#mfc7f8e11b5" x="424.906155" y="73.288862" style="fill: #ff7f0e; stroke: #ff7f0e"/>
     <use xlink:href="#mfc7f8e11b5" x="427.156328" y="62.674957" style="fill: #ff7f0e; stroke: #ff7f0e"/>
     <use xlink:href="#mfc7f8e11b5" x="431.792636" y="42.146909" style="fill: #ff7f0e; stroke: #ff7f0e"/>
     <use xlink:href="#mfc7f8e11b5" x="432.377273" y="44.165042" style="fill: #ff7f0e; stroke: #ff7f0e"/>
    </g>
   </g>
   <g id="LineCollection_2">
    <path d="M 79.922727 230.359989 
L 79.922727 230.358439 
" clip-path="url(#p180880cb21)" style="fill: none; stroke: #2ca02c; stroke-width: 0.5"/>
    <path d="M 95.293242 227.306155 
L 95.293242 227.291235 
" clip-path="url(#p180880cb21)" style="fill: none; stroke: #2ca02c; stroke-width: 0.5"/>
    <path d="M 113.879261 227.485501 
L 113.879261 227.432007 
" clip-path="url(#p180880cb21)" style="fill: none; stroke: #2ca02c; stroke-width: 0.5"/>
    <path d="M 138.964268 228.644901 
L 138.964268 228.534941 
" clip-path="url(#p180880cb21)" style="fill: none; stroke: #2ca02c; stroke-width: 0.5"/>
    <path d="M 166.4694 231.779918 
L 166.4694 231.6041 
" clip-path="url(#p180880cb21)" style="fill: none; stroke: #2ca02c; stroke-width: 0.5"/>
    <path d="M 193.981331 236.376183 
L 193.981331 236.129986 
" clip-path="url(#p180880cb21)" style="fill: none; stroke: #2ca02c; stroke-width: 0.5"/>
    <path d="M 219.868514 243.166002 
L 219.868514 242.865301 
" clip-path="url(#p180880cb21)" style="fill: none; stroke: #2ca02c; stroke-width: 0.5"/>
    <path d="M 253.02967 252.506317 
L 253.02967 252.108704 
" clip-path="url(#p180880cb21)" style="fill: none; stroke: #2ca02c; stroke-width: 0.5"/>
    <path d="M 295.096343 272.439055 
L 295.096343 271.969164 
" clip-path="url(#p180880cb21)" style="fill: none; stroke: #2ca02c; stroke-width: 0.5"/>
    <path d="M 328.257498 288.151166 
L 328.257498 287.5761 
" clip-path="url(#p180880cb21)" style="fill: none; stroke: #2ca02c; stroke-width: 0.5"/>
    <path d="M 363.063795 274.354681 
L 363.063795 273.702357 
" clip-path="url(#p180880cb21)" style="fill: none; stroke: #2ca02c; stroke-width: 0.5"/>
    <path d="M 388.950979 236.347113 
L 388.950979 235.597692 
" clip-path="url(#p180880cb21)" style="fill: none; stroke: #2ca02c; stroke-width: 0.5"/>
    <path d="M 401.880974 201.630608 
L 401.880974 200.737279 
" clip-path="url(#p180880cb21)" style="fill: none; stroke: #2ca02c; stroke-width: 0.5"/>
    <path d="M 407.305862 178.904073 
L 407.305862 177.866249 
" clip-path="url(#p180880cb21)" style="fill: none; stroke: #2ca02c; stroke-width: 0.5"/>
    <path d="M 408.842234 176.493467 
L 408.842234 175.593719 
" clip-path="url(#p180880cb21)" style="fill: none; stroke: #2ca02c; stroke-width: 0.5"/>
    <path d="M 410.358211 168.821567 
L 410.358211 167.869403 
" clip-path="url(#p180880cb21)" style="fill: none; stroke: #2ca02c; stroke-width: 0.5"/>
    <path d="M 414.226333 148.219419 
L 414.226333 147.186898 
" clip-path="url(#p180880cb21)" style="fill: none; stroke: #2ca02c; stroke-width: 0.5"/>
    <path d="M 416.435717 146.820439 
L 416.435717 145.716923 
" clip-path="url(#p180880cb21)" style="fill: none; stroke: #2ca02c; stroke-width: 0.5"/>
    <path d="M 422.73756 119.255708 
L 422.73756 118.00946 
" clip-path="url(#p180880cb21)" style="fill: none; stroke: #2ca02c; stroke-width: 0.5"/>
    <path d="M 424.906155 101.895583 
L 424.906155 100.741501 
" clip-path="url(#p180880cb21)" style="fill: none; stroke: #2ca02c; stroke-width: 0.5"/>
    <path d="M 427.156328 101.537219 
L 427.156328 100.202211 
" clip-path="url(#p180880cb21)" style="fill: none; stroke: #2ca02c; stroke-width: 0.5"/>
    <path d="M 431.792636 70.422779 
L 431.792636 68.998328 
" clip-path="url(#p180880cb21)" style="fill: none; stroke: #2ca02c; stroke-width: 0.5"/>
    <path d="M 432.377273 65.547639 
L 432.377273 64.155811 
" clip-path="url(#p180880cb21)" style="fill: none; stroke: #2ca02c; stroke-width: 0.5"/>
   </g>
   <g id="line2d_20">
    <defs>
     <path id="md6a65c6a3e" d="M 3 0 
L -3 -0 
" style="stroke: #2ca02c"/>
    </defs>
    <g clip-path="url(#p180880cb21)">
     <use xlink:href="#md6a65c6a3e" x="79.922727" y="230.359989" style="fill: #2ca02c; stroke: #2ca02c"/>
     <use xlink:href="#md6a65c6a3e" x="95.293242" y="227.306155" style="fill: #2ca02c; stroke: #2ca02c"/>
     <use xlink:href="#md6a65c6a3e" x="113.879261" y="227.485501" style="fill: #2ca02c; stroke: #2ca02c"/>
     <use xlink:href="#md6a65c6a3e" x="138.964268" y="228.644901" style="fill: #2ca02c; stroke: #2ca02c"/>
     <use xlink:href="#md6a65c6a3e" x="166.4694" y="231.779918" style="fill: #2ca02c; stroke: #2ca02c"/>
     <use xlink:href="#md6a65c6a3e" x="193.981331" y="236.376183" style="fill: #2ca02c; stroke: #2ca02c"/>
     <use xlink:href="#md6a65c6a3e" x="219.868514" y="243.166002" style="fill: #2ca02c; stroke: #2ca02c"/>
     <use xlink:href="#md6a65c6a3e" x="253.02967" y="252.506317" style="fill: #2ca02c; stroke: #2ca02c"/>
     <use xlink:href="#md6a65c6a3e" x="295.096343" y="272.439055" style="fill: #2ca02c; stroke: #2ca02c"/>
     <use xlink:href="#md6a65c6a3e" x="328.257498" y="288.151166" style="fill: #2ca02c; stroke: #2ca02c"/>
     <use xlink:href="#md6a65c6a3e" x="363.063795" y="274.354681" style="fill: #2ca02c; stroke: #2ca02c"/>
     <use xlink:href="#md6a65c6a3e" x="388.950979" y="236.347113" style="fill: #2ca02c; stroke: #2ca02c"/>
     <use xlink:href="#md6a65c6a3e" x="401.880974" y="201.630608" style="fill: #2ca02c; stroke: #2ca02c"/>
     <use xlink:href="#md6a65c6a3e" x="407.305862" y="178.904073" style="fill: #2ca02c; stroke: #2ca02c"/>
     <use xlink:href="#md6a65c6a3e" x="408.842234" y="176.493467" style="fill: #2ca02c; stroke: #2ca02c"/>
     <use xlink:href="#md6a65c6a3e" x="410.358211" y="168.821567" style="fill: #2ca02c; stroke: #2ca02c"/>
     <use xlink:href="#md6a65c6a3e" x="414.226333" y="148.219419" style="fill: #2ca02c; stroke: #2ca02c"/>
     <use xlink:href="#md6a65c6a3e" x="416.435717" y="146.820439" style="fill: #2ca02c; stroke: #2ca02c"/>
     <use xlink:href="#md6a65c6a3e" x="422.73756" y="119.255708" style="fill: #2ca02c; stroke: #2ca02c"/>
     <use xlink:href="#md6a65c6a3e" x="424.906155" y="101.895583" style="fill: #2ca02c; stroke: #2ca02c"/>
     <use xlink:href="#md6a65c6a3e" x="427.156328" y="101.537219" style="fill: #2ca02c; stroke: #2ca02c"/>
     <use xlink:href="#md6a65c6a3e" x="431.792636" y="70.422779" style="fill: #2ca02c; stroke: #2ca02c"/>
     <use xlink:href="#md6a65c6a3e" x="432.377273" y="65.547639" style="fill: #2ca02c; stroke: #2ca02c"/>
    </g>
   </g>
   <g id="line2d_21">
    <g clip-path="url(#p180880cb21)">
     <use xlink:href="#md6a65c6a3e" x="79.922727" y="230.358439" style="fill: #2ca02c; stroke: #2ca02c"/>
     <use xlink:href="#md6a65c6a3e" x="95.293242" y="227.291235" style="fill: #2ca02c; stroke: #2ca02c"/>
     <use xlink:href="#md6a65c6a3e" x="113.879261" y="227.432007" style="fill: #2ca02c; stroke: #2ca02c"/>
     <use xlink:href="#md6a65c6a3e" x="138.964268" y="228.534941" style="fill: #2ca02c; stroke: #2ca02c"/>
     <use xlink:href="#md6a65c6a3e" x="166.4694" y="231.6041" style="fill: #2ca02c; stroke: #2ca02c"/>
     <use xlink:href="#md6a65c6a3e" x="193.981331" y="236.129986" style="fill: #2ca02c; stroke: #2ca02c"/>
     <use xlink:href="#md6a65c6a3e" x="219.868514" y="242.865301" style="fill: #2ca02c; stroke: #2ca02c"/>
     <use xlink:href="#md6a65c6a3e" x="253.02967" y="252.108704" style="fill: #2ca02c; stroke: #2ca02c"/>
     <use xlink:href="#md6a65c6a3e" x="295.096343" y="271.969164" style="fill: #2ca02c; stroke: #2ca02c"/>
     <use xlink:href="#md6a65c6a3e" x="328.257498" y="287.5761" style="fill: #2ca02c; stroke: #2ca02c"/>
     <use xlink:href="#md6a65c6a3e" x="363.063795" y="273.702357" style="fill: #2ca02c; stroke: #2ca02c"/>
     <use xlink:href="#md6a65c6a3e" x="388.950979" y="235.597692" style="fill: #2ca02c; stroke: #2ca02c"/>
     <use xlink:href="#md6a65c6a3e" x="401.880974" y="200.737279" style="fill: #2ca02c; stroke: #2ca02c"/>
     <use xlink:href="#md6a65c6a3e" x="407.305862" y="177.866249" style="fill: #2ca02c; stroke: #2ca02c"/>
     <use xlink:href="#md6a65c6a3e" x="408.842234" y="175.593719" style="fill: #2ca02c; stroke: #2ca02c"/>
     <use xlink:href="#md6a65c6a3e" x="410.358211" y="167.869403" style="fill: #2ca02c; stroke: #2ca02c"/>
     <use xlink:href="#md6a65c6a3e" x="414.226333" y="147.186898" style="fill: #2ca02c; stroke: #2ca02c"/>
     <use xlink:href="#md6a65c6a3e" x="416.435717" y="145.716923" style="fill: #2ca02c; stroke: #2ca02c"/>
     <use xlink:href="#md6a65c6a3e" x="422.73756" y="118.00946" style="fill: #2ca02c; stroke: #2ca02c"/>
     <use xlink:href="#md6a65c6a3e" x="424.906155" y="100.741501" style="fill: #2ca02c; stroke: #2ca02c"/>
     <use xlink:href="#md6a65c6a3e" x="427.156328" y="100.202211" style="fill: #2ca02c; stroke: #2ca02c"/>
     <use xlink:href="#md6a65c6a3e" x="431.792636" y="68.998328" style="fill: #2ca02c; stroke: #2ca02c"/>
     <use xlink:href="#md6a65c6a3e" x="432.377273" y="64.155811" style="fill: #2ca02c; stroke: #2ca02c"/>
    </g>
   </g>
   <g id="LineCollection_3">
    <path d="M 79.922727 230.360307 
L 79.922727 230.35901 
" clip-path="url(#p180880cb21)" style="fill: none; stroke: #d62728; stroke-width: 0.5"/>
    <path d="M 95.293242 227.325853 
L 95.293242 227.313676 
" clip-path="url(#p180880cb21)" style="fill: none; stroke: #d62728; stroke-width: 0.5"/>
    <path d="M 113.879261 227.695952 
L 113.879261 227.643872 
" clip-path="url(#p180880cb21)" style="fill: none; stroke: #d62728; stroke-width: 0.5"/>
    <path d="M 138.964268 230.000841 
L 138.964268 229.90439 
" clip-path="url(#p180880cb21)" style="fill: none; stroke: #d62728; stroke-width: 0.5"/>
    <path d="M 166.4694 231.932647 
L 166.4694 231.782114 
" clip-path="url(#p180880cb21)" style="fill: none; stroke: #d62728; stroke-width: 0.5"/>
    <path d="M 193.981331 235.625914 
L 193.981331 235.426165 
" clip-path="url(#p180880cb21)" style="fill: none; stroke: #d62728; stroke-width: 0.5"/>
    <path d="M 219.868514 240.600833 
L 219.868514 240.345194 
" clip-path="url(#p180880cb21)" style="fill: none; stroke: #d62728; stroke-width: 0.5"/>
    <path d="M 253.02967 248.226264 
L 253.02967 247.897224 
" clip-path="url(#p180880cb21)" style="fill: none; stroke: #d62728; stroke-width: 0.5"/>
    <path d="M 295.096343 272.486676 
L 295.096343 272.075764 
" clip-path="url(#p180880cb21)" style="fill: none; stroke: #d62728; stroke-width: 0.5"/>
    <path d="M 328.257498 288.445091 
L 328.257498 287.957345 
" clip-path="url(#p180880cb21)" style="fill: none; stroke: #d62728; stroke-width: 0.5"/>
    <path d="M 363.063795 282.088646 
L 363.063795 281.535228 
" clip-path="url(#p180880cb21)" style="fill: none; stroke: #d62728; stroke-width: 0.5"/>
    <path d="M 388.950979 244.033489 
L 388.950979 243.396369 
" clip-path="url(#p180880cb21)" style="fill: none; stroke: #d62728; stroke-width: 0.5"/>
    <path d="M 401.880974 206.237036 
L 401.880974 205.500027 
" clip-path="url(#p180880cb21)" style="fill: none; stroke: #d62728; stroke-width: 0.5"/>
    <path d="M 407.305862 193.2364 
L 407.305862 192.48409 
" clip-path="url(#p180880cb21)" style="fill: none; stroke: #d62728; stroke-width: 0.5"/>
    <path d="M 408.842234 184.036609 
L 408.842234 183.034412 
" clip-path="url(#p180880cb21)" style="fill: none; stroke: #d62728; stroke-width: 0.5"/>
    <path d="M 410.358211 175.644767 
L 410.358211 174.80285 
" clip-path="url(#p180880cb21)" style="fill: none; stroke: #d62728; stroke-width: 0.5"/>
    <path d="M 414.226333 170.406697 
L 414.226333 169.391574 
" clip-path="url(#p180880cb21)" style="fill: none; stroke: #d62728; stroke-width: 0.5"/>
    <path d="M 416.435717 155.156748 
L 416.435717 154.114899 
" clip-path="url(#p180880cb21)" style="fill: none; stroke: #d62728; stroke-width: 0.5"/>
    <path d="M 422.73756 123.266481 
L 422.73756 122.237692 
" clip-path="url(#p180880cb21)" style="fill: none; stroke: #d62728; stroke-width: 0.5"/>
    <path d="M 424.906155 123.241688 
L 424.906155 121.962477 
" clip-path="url(#p180880cb21)" style="fill: none; stroke: #d62728; stroke-width: 0.5"/>
    <path d="M 427.156328 111.518921 
L 427.156328 110.402973 
" clip-path="url(#p180880cb21)" style="fill: none; stroke: #d62728; stroke-width: 0.5"/>
    <path d="M 431.792636 73.421342 
L 431.792636 72.093637 
" clip-path="url(#p180880cb21)" style="fill: none; stroke: #d62728; stroke-width: 0.5"/>
    <path d="M 432.377273 72.338446 
L 432.377273 71.073061 
" clip-path="url(#p180880cb21)" style="fill: none; stroke: #d62728; stroke-width: 0.5"/>
   </g>
   <g id="line2d_22">
    <defs>
     <path id="mcac4f7eef8" d="M 3 0 
L -3 -0 
" style="stroke: #d62728"/>
    </defs>
    <g clip-path="url(#p180880cb21)">
     <use xlink:href="#mcac4f7eef8" x="79.922727" y="230.360307" style="fill: #d62728; stroke: #d62728"/>
     <use xlink:href="#mcac4f7eef8" x="95.293242" y="227.325853" style="fill: #d62728; stroke: #d62728"/>
     <use xlink:href="#mcac4f7eef8" x="113.879261" y="227.695952" style="fill: #d62728; stroke: #d62728"/>
     <use xlink:href="#mcac4f7eef8" x="138.964268" y="230.000841" style="fill: #d62728; stroke: #d62728"/>
     <use xlink:href="#mcac4f7eef8" x="166.4694" y="231.932647" style="fill: #d62728; stroke: #d62728"/>
     <use xlink:href="#mcac4f7eef8" x="193.981331" y="235.625914" style="fill: #d62728; stroke: #d62728"/>
     <use xlink:href="#mcac4f7eef8" x="219.868514" y="240.600833" style="fill: #d62728; stroke: #d62728"/>
     <use xlink:href="#mcac4f7eef8" x="253.02967" y="248.226264" style="fill: #d62728; stroke: #d62728"/>
     <use xlink:href="#mcac4f7eef8" x="295.096343" y="272.486676" style="fill: #d62728; stroke: #d62728"/>
     <use xlink:href="#mcac4f7eef8" x="328.257498" y="288.445091" style="fill: #d62728; stroke: #d62728"/>
     <use xlink:href="#mcac4f7eef8" x="363.063795" y="282.088646" style="fill: #d62728; stroke: #d62728"/>
     <use xlink:href="#mcac4f7eef8" x="388.950979" y="244.033489" style="fill: #d62728; stroke: #d62728"/>
     <use xlink:href="#mcac4f7eef8" x="401.880974" y="206.237036" style="fill: #d62728; stroke: #d62728"/>
     <use xlink:href="#mcac4f7eef8" x="407.305862" y="193.2364" style="fill: #d62728; stroke: #d62728"/>
     <use xlink:href="#mcac4f7eef8" x="408.842234" y="184.036609" style="fill: #d62728; stroke: #d62728"/>
     <use xlink:href="#mcac4f7eef8" x="410.358211" y="175.644767" style="fill: #d62728; stroke: #d62728"/>
     <use xlink:href="#mcac4f7eef8" x="414.226333" y="170.406697" style="fill: #d62728; stroke: #d62728"/>
     <use xlink:href="#mcac4f7eef8" x="416.435717" y="155.156748" style="fill: #d62728; stroke: #d62728"/>
     <use xlink:href="#mcac4f7eef8" x="422.73756" y="123.266481" style="fill: #d62728; stroke: #d62728"/>
     <use xlink:href="#mcac4f7eef8" x="424.906155" y="123.241688" style="fill: #d62728; stroke: #d62728"/>
     <use xlink:href="#mcac4f7eef8" x="427.156328" y="111.518921" style="fill: #d62728; stroke: #d62728"/>
     <use xlink:href="#mcac4f7eef8" x="431.792636" y="73.421342" style="fill: #d62728; stroke: #d62728"/>
     <use xlink:href="#mcac4f7eef8" x="432.377273" y="72.338446" style="fill: #d62728; stroke: #d62728"/>
    </g>
   </g>
   <g id="line2d_23">
    <g clip-path="url(#p180880cb21)">
     <use xlink:href="#mcac4f7eef8" x="79.922727" y="230.35901" style="fill: #d62728; stroke: #d62728"/>
     <use xlink:href="#mcac4f7eef8" x="95.293242" y="227.313676" style="fill: #d62728; stroke: #d62728"/>
     <use xlink:href="#mcac4f7eef8" x="113.879261" y="227.643872" style="fill: #d62728; stroke: #d62728"/>
     <use xlink:href="#mcac4f7eef8" x="138.964268" y="229.90439" style="fill: #d62728; stroke: #d62728"/>
     <use xlink:href="#mcac4f7eef8" x="166.4694" y="231.782114" style="fill: #d62728; stroke: #d62728"/>
     <use xlink:href="#mcac4f7eef8" x="193.981331" y="235.426165" style="fill: #d62728; stroke: #d62728"/>
     <use xlink:href="#mcac4f7eef8" x="219.868514" y="240.345194" style="fill: #d62728; stroke: #d62728"/>
     <use xlink:href="#mcac4f7eef8" x="253.02967" y="247.897224" style="fill: #d62728; stroke: #d62728"/>
     <use xlink:href="#mcac4f7eef8" x="295.096343" y="272.075764" style="fill: #d62728; stroke: #d62728"/>
     <use xlink:href="#mcac4f7eef8" x="328.257498" y="287.957345" style="fill: #d62728; stroke: #d62728"/>
     <use xlink:href="#mcac4f7eef8" x="363.063795" y="281.535228" style="fill: #d62728; stroke: #d62728"/>
     <use xlink:href="#mcac4f7eef8" x="388.950979" y="243.396369" style="fill: #d62728; stroke: #d62728"/>
     <use xlink:href="#mcac4f7eef8" x="401.880974" y="205.500027" style="fill: #d62728; stroke: #d62728"/>
     <use xlink:href="#mcac4f7eef8" x="407.305862" y="192.48409" style="fill: #d62728; stroke: #d62728"/>
     <use xlink:href="#mcac4f7eef8" x="408.842234" y="183.034412" style="fill: #d62728; stroke: #d62728"/>
     <use xlink:href="#mcac4f7eef8" x="410.358211" y="174.80285" style="fill: #d62728; stroke: #d62728"/>
     <use xlink:href="#mcac4f7eef8" x="414.226333" y="169.391574" style="fill: #d62728; stroke: #d62728"/>
     <use xlink:href="#mcac4f7eef8" x="416.435717" y="154.114899" style="fill: #d62728; stroke: #d62728"/>
     <use xlink:href="#mcac4f7eef8" x="422.73756" y="122.237692" style="fill: #d62728; stroke: #d62728"/>
     <use xlink:href="#mcac4f7eef8" x="424.906155" y="121.962477" style="fill: #d62728; stroke: #d62728"/>
     <use xlink:href="#mcac4f7eef8" x="427.156328" y="110.402973" style="fill: #d62728; stroke: #d62728"/>
     <use xlink:href="#mcac4f7eef8" x="431.792636" y="72.093637" style="fill: #d62728; stroke: #d62728"/>
     <use xlink:href="#mcac4f7eef8" x="432.377273" y="71.073061" style="fill: #d62728; stroke: #d62728"/>
    </g>
   </g>
   <g id="line2d_24">
    <path d="M 79.922727 230.356664 
L 95.293242 227.294289 
L 113.879261 226.612239 
L 138.964268 227.929089 
L 166.4694 230.164234 
L 193.981331 236.003518 
L 219.868514 242.030154 
L 253.02967 253.662472 
L 295.096343 269.071441 
L 328.257498 275.08868 
L 363.063795 256.218921 
L 388.950979 212.537173 
L 401.880974 175.202093 
L 407.305862 152.460757 
L 408.842234 141.913606 
L 410.358211 144.261834 
L 414.226333 127.755485 
L 416.435717 122.427328 
L 422.73756 85.716498 
L 424.906155 74.064866 
L 427.156328 63.445985 
L 431.792636 42.930298 
L 432.377273 44.936763 
" clip-path="url(#p180880cb21)" style="fill: none; stroke: #ff7f0e; stroke-width: 0.5; stroke-linecap: square"/>
    <defs>
     <path id="mc385009255" d="M 0 1.5 
C 0.397805 1.5 0.77937 1.341951 1.06066 1.06066 
C 1.341951 0.77937 1.5 0.397805 1.5 0 
C 1.5 -0.397805 1.341951 -0.77937 1.06066 -1.06066 
C 0.77937 -1.341951 0.397805 -1.5 0 -1.5 
C -0.397805 -1.5 -0.77937 -1.341951 -1.06066 -1.06066 
C -1.341951 -0.77937 -1.5 -0.397805 -1.5 0 
C -1.5 0.397805 -1.341951 0.77937 -1.06066 1.06066 
C -0.77937 1.341951 -0.397805 1.5 0 1.5 
z
" style="stroke: #ff7f0e"/>
    </defs>
    <g clip-path="url(#p180880cb21)">
     <use xlink:href="#mc385009255" x="79.922727" y="230.356664" style="fill: #ff7f0e; stroke: #ff7f0e"/>
     <use xlink:href="#mc385009255" x="95.293242" y="227.294289" style="fill: #ff7f0e; stroke: #ff7f0e"/>
     <use xlink:href="#mc385009255" x="113.879261" y="226.612239" style="fill: #ff7f0e; stroke: #ff7f0e"/>
     <use xlink:href="#mc385009255" x="138.964268" y="227.929089" style="fill: #ff7f0e; stroke: #ff7f0e"/>
     <use xlink:href="#mc385009255" x="166.4694" y="230.164234" style="fill: #ff7f0e; stroke: #ff7f0e"/>
     <use xlink:href="#mc385009255" x="193.981331" y="236.003518" style="fill: #ff7f0e; stroke: #ff7f0e"/>
     <use xlink:href="#mc385009255" x="219.868514" y="242.030154" style="fill: #ff7f0e; stroke: #ff7f0e"/>
     <use xlink:href="#mc385009255" x="253.02967" y="253.662472" style="fill: #ff7f0e; stroke: #ff7f0e"/>
     <use xlink:href="#mc385009255" x="295.096343" y="269.071441" style="fill: #ff7f0e; stroke: #ff7f0e"/>
     <use xlink:href="#mc385009255" x="328.257498" y="275.08868" style="fill: #ff7f0e; stroke: #ff7f0e"/>
     <use xlink:href="#mc385009255" x="363.063795" y="256.218921" style="fill: #ff7f0e; stroke: #ff7f0e"/>
     <use xlink:href="#mc385009255" x="388.950979" y="212.537173" style="fill: #ff7f0e; stroke: #ff7f0e"/>
     <use xlink:href="#mc385009255" x="401.880974" y="175.202093" style="fill: #ff7f0e; stroke: #ff7f0e"/>
     <use xlink:href="#mc385009255" x="407.305862" y="152.460757" style="fill: #ff7f0e; stroke: #ff7f0e"/>
     <use xlink:href="#mc385009255" x="408.842234" y="141.913606" style="fill: #ff7f0e; stroke: #ff7f0e"/>
     <use xlink:href="#mc385009255" x="410.358211" y="144.261834" style="fill: #ff7f0e; stroke: #ff7f0e"/>
     <use xlink:href="#mc385009255" x="414.226333" y="127.755485" style="fill: #ff7f0e; stroke: #ff7f0e"/>
     <use xlink:href="#mc385009255" x="416.435717" y="122.427328" style="fill: #ff7f0e; stroke: #ff7f0e"/>
     <use xlink:href="#mc385009255" x="422.73756" y="85.716498" style="fill: #ff7f0e; stroke: #ff7f0e"/>
     <use xlink:href="#mc385009255" x="424.906155" y="74.064866" style="fill: #ff7f0e; stroke: #ff7f0e"/>
     <use xlink:href="#mc385009255" x="427.156328" y="63.445985" style="fill: #ff7f0e; stroke: #ff7f0e"/>
     <use xlink:href="#mc385009255" x="431.792636" y="42.930298" style="fill: #ff7f0e; stroke: #ff7f0e"/>
     <use xlink:href="#mc385009255" x="432.377273" y="44.936763" style="fill: #ff7f0e; stroke: #ff7f0e"/>
    </g>
   </g>
   <g id="line2d_25">
    <path d="M 79.922727 230.359214 
L 95.293242 227.298695 
L 113.879261 227.458754 
L 138.964268 228.589921 
L 166.4694 231.692009 
L 193.981331 236.253085 
L 219.868514 243.015651 
L 253.02967 252.307511 
L 295.096343 272.204109 
L 328.257498 287.863633 
L 363.063795 274.028519 
L 388.950979 235.972403 
L 401.880974 201.183944 
L 407.305862 178.385161 
L 408.842234 176.043593 
L 410.358211 168.345485 
L 414.226333 147.703159 
L 416.435717 146.268681 
L 422.73756 118.632584 
L 424.906155 101.318542 
L 427.156328 100.869715 
L 431.792636 69.710553 
L 432.377273 64.851725 
" clip-path="url(#p180880cb21)" style="fill: none; stroke: #2ca02c; stroke-width: 0.5; stroke-linecap: square"/>
    <defs>
     <path id="m99eb62babf" d="M 0 1.5 
C 0.397805 1.5 0.77937 1.341951 1.06066 1.06066 
C 1.341951 0.77937 1.5 0.397805 1.5 0 
C 1.5 -0.397805 1.341951 -0.77937 1.06066 -1.06066 
C 0.77937 -1.341951 0.397805 -1.5 0 -1.5 
C -0.397805 -1.5 -0.77937 -1.341951 -1.06066 -1.06066 
C -1.341951 -0.77937 -1.5 -0.397805 -1.5 0 
C -1.5 0.397805 -1.341951 0.77937 -1.06066 1.06066 
C -0.77937 1.341951 -0.397805 1.5 0 1.5 
z
" style="stroke: #2ca02c"/>
    </defs>
    <g clip-path="url(#p180880cb21)">
     <use xlink:href="#m99eb62babf" x="79.922727" y="230.359214" style="fill: #2ca02c; stroke: #2ca02c"/>
     <use xlink:href="#m99eb62babf" x="95.293242" y="227.298695" style="fill: #2ca02c; stroke: #2ca02c"/>
     <use xlink:href="#m99eb62babf" x="113.879261" y="227.458754" style="fill: #2ca02c; stroke: #2ca02c"/>
     <use xlink:href="#m99eb62babf" x="138.964268" y="228.589921" style="fill: #2ca02c; stroke: #2ca02c"/>
     <use xlink:href="#m99eb62babf" x="166.4694" y="231.692009" style="fill: #2ca02c; stroke: #2ca02c"/>
     <use xlink:href="#m99eb62babf" x="193.981331" y="236.253085" style="fill: #2ca02c; stroke: #2ca02c"/>
     <use xlink:href="#m99eb62babf" x="219.868514" y="243.015651" style="fill: #2ca02c; stroke: #2ca02c"/>
     <use xlink:href="#m99eb62babf" x="253.02967" y="252.307511" style="fill: #2ca02c; stroke: #2ca02c"/>
     <use xlink:href="#m99eb62babf" x="295.096343" y="272.204109" style="fill: #2ca02c; stroke: #2ca02c"/>
     <use xlink:href="#m99eb62babf" x="328.257498" y="287.863633" style="fill: #2ca02c; stroke: #2ca02c"/>
     <use xlink:href="#m99eb62babf" x="363.063795" y="274.028519" style="fill: #2ca02c; stroke: #2ca02c"/>
     <use xlink:href="#m99eb62babf" x="388.950979" y="235.972403" style="fill: #2ca02c; stroke: #2ca02c"/>
     <use xlink:href="#m99eb62babf" x="401.880974" y="201.183944" style="fill: #2ca02c; stroke: #2ca02c"/>
     <use xlink:href="#m99eb62babf" x="407.305862" y="178.385161" style="fill: #2ca02c; stroke: #2ca02c"/>
     <use xlink:href="#m99eb62babf" x="408.842234" y="176.043593" style="fill: #2ca02c; stroke: #2ca02c"/>
     <use xlink:href="#m99eb62babf" x="410.358211" y="168.345485" style="fill: #2ca02c; stroke: #2ca02c"/>
     <use xlink:href="#m99eb62babf" x="414.226333" y="147.703159" style="fill: #2ca02c; stroke: #2ca02c"/>
     <use xlink:href="#m99eb62babf" x="416.435717" y="146.268681" style="fill: #2ca02c; stroke: #2ca02c"/>
     <use xlink:href="#m99eb62babf" x="422.73756" y="118.632584" style="fill: #2ca02c; stroke: #2ca02c"/>
     <use xlink:href="#m99eb62babf" x="424.906155" y="101.318542" style="fill: #2ca02c; stroke: #2ca02c"/>
     <use xlink:href="#m99eb62babf" x="427.156328" y="100.869715" style="fill: #2ca02c; stroke: #2ca02c"/>
     <use xlink:href="#m99eb62babf" x="431.792636" y="69.710553" style="fill: #2ca02c; stroke: #2ca02c"/>
     <use xlink:href="#m99eb62babf" x="432.377273" y="64.851725" style="fill: #2ca02c; stroke: #2ca02c"/>
    </g>
   </g>
   <g id="line2d_26">
    <path d="M 79.922727 230.359659 
L 95.293242 227.319764 
L 113.879261 227.669912 
L 138.964268 229.952616 
L 166.4694 231.857381 
L 193.981331 235.526039 
L 219.868514 240.473014 
L 253.02967 248.061744 
L 295.096343 272.28122 
L 328.257498 288.201218 
L 363.063795 281.811937 
L 388.950979 243.714929 
L 401.880974 205.868531 
L 407.305862 192.860245 
L 408.842234 183.535511 
L 410.358211 175.223809 
L 414.226333 169.899136 
L 416.435717 154.635823 
L 422.73756 122.752087 
L 424.906155 122.602082 
L 427.156328 110.960947 
L 431.792636 72.757489 
L 432.377273 71.705754 
" clip-path="url(#p180880cb21)" style="fill: none; stroke: #d62728; stroke-width: 0.5; stroke-linecap: square"/>
    <defs>
     <path id="maf6c8b950e" d="M 0 1.5 
C 0.397805 1.5 0.77937 1.341951 1.06066 1.06066 
C 1.341951 0.77937 1.5 0.397805 1.5 0 
C 1.5 -0.397805 1.341951 -0.77937 1.06066 -1.06066 
C 0.77937 -1.341951 0.397805 -1.5 0 -1.5 
C -0.397805 -1.5 -0.77937 -1.341951 -1.06066 -1.06066 
C -1.341951 -0.77937 -1.5 -0.397805 -1.5 0 
C -1.5 0.397805 -1.341951 0.77937 -1.06066 1.06066 
C -0.77937 1.341951 -0.397805 1.5 0 1.5 
z
" style="stroke: #d62728"/>
    </defs>
    <g clip-path="url(#p180880cb21)">
     <use xlink:href="#maf6c8b950e" x="79.922727" y="230.359659" style="fill: #d62728; stroke: #d62728"/>
     <use xlink:href="#maf6c8b950e" x="95.293242" y="227.319764" style="fill: #d62728; stroke: #d62728"/>
     <use xlink:href="#maf6c8b950e" x="113.879261" y="227.669912" style="fill: #d62728; stroke: #d62728"/>
     <use xlink:href="#maf6c8b950e" x="138.964268" y="229.952616" style="fill: #d62728; stroke: #d62728"/>
     <use xlink:href="#maf6c8b950e" x="166.4694" y="231.857381" style="fill: #d62728; stroke: #d62728"/>
     <use xlink:href="#maf6c8b950e" x="193.981331" y="235.526039" style="fill: #d62728; stroke: #d62728"/>
     <use xlink:href="#maf6c8b950e" x="219.868514" y="240.473014" style="fill: #d62728; stroke: #d62728"/>
     <use xlink:href="#maf6c8b950e" x="253.02967" y="248.061744" style="fill: #d62728; stroke: #d62728"/>
     <use xlink:href="#maf6c8b950e" x="295.096343" y="272.28122" style="fill: #d62728; stroke: #d62728"/>
     <use xlink:href="#maf6c8b950e" x="328.257498" y="288.201218" style="fill: #d62728; stroke: #d62728"/>
     <use xlink:href="#maf6c8b950e" x="363.063795" y="281.811937" style="fill: #d62728; stroke: #d62728"/>
     <use xlink:href="#maf6c8b950e" x="388.950979" y="243.714929" style="fill: #d62728; stroke: #d62728"/>
     <use xlink:href="#maf6c8b950e" x="401.880974" y="205.868531" style="fill: #d62728; stroke: #d62728"/>
     <use xlink:href="#maf6c8b950e" x="407.305862" y="192.860245" style="fill: #d62728; stroke: #d62728"/>
     <use xlink:href="#maf6c8b950e" x="408.842234" y="183.535511" style="fill: #d62728; stroke: #d62728"/>
     <use xlink:href="#maf6c8b950e" x="410.358211" y="175.223809" style="fill: #d62728; stroke: #d62728"/>
     <use xlink:href="#maf6c8b950e" x="414.226333" y="169.899136" style="fill: #d62728; stroke: #d62728"/>
     <use xlink:href="#maf6c8b950e" x="416.435717" y="154.635823" style="fill: #d62728; stroke: #d62728"/>
     <use xlink:href="#maf6c8b950e" x="422.73756" y="122.752087" style="fill: #d62728; stroke: #d62728"/>
     <use xlink:href="#maf6c8b950e" x="424.906155" y="122.602082" style="fill: #d62728; stroke: #d62728"/>
     <use xlink:href="#maf6c8b950e" x="427.156328" y="110.960947" style="fill: #d62728; stroke: #d62728"/>
     <use xlink:href="#maf6c8b950e" x="431.792636" y="72.757489" style="fill: #d62728; stroke: #d62728"/>
     <use xlink:href="#maf6c8b950e" x="432.377273" y="71.705754" style="fill: #d62728; stroke: #d62728"/>
    </g>
   </g>
   <g id="patch_3">
    <path d="M 62.3 300.76 
L 62.3 29.832 
" style="fill: none; stroke: #000000; stroke-width: 0.8; stroke-linejoin: miter; stroke-linecap: square"/>
   </g>
   <g id="patch_4">
    <path d="M 450 300.76 
L 450 29.832 
" style="fill: none; stroke: #000000; stroke-width: 0.8; stroke-linejoin: miter; stroke-linecap: square"/>
   </g>
   <g id="patch_5">
    <path d="M 62.3 300.76 
L 450 300.76 
" style="fill: none; stroke: #000000; stroke-width: 0.8; stroke-linejoin: miter; stroke-linecap: square"/>
   </g>
   <g id="patch_6">
    <path d="M 62.3 29.832 
L 450 29.832 
" style="fill: none; stroke: #000000; stroke-width: 0.8; stroke-linejoin: miter; stroke-linecap: square"/>
   </g>
   <g id="text_19">
    <!-- Pressure vs Density, $T^*=0.9$, $n_{iters}$=10000 -->
    <g transform="translate(126.91 23.832) scale(0.12 -0.12)">
     <defs>
      <path id="DejaVuSans-76" d="M 191 3500 
L 800 3500 
L 1894 563 
L 2988 3500 
L 3597 3500 
L 2284 0 
L 1503 0 
L 191 3500 
z
" transform="scale(0.015625)"/>
      <path id="DejaVuSans-44" d="M 1259 4147 
L 1259 519 
L 2022 519 
Q 2988 519 3436 956 
Q 3884 1394 3884 2338 
Q 3884 3275 3436 3711 
Q 2988 4147 2022 4147 
L 1259 4147 
z
M 628 4666 
L 1925 4666 
Q 3281 4666 3915 4102 
Q 4550 3538 4550 2338 
Q 4550 1131 3912 565 
Q 3275 0 1925 0 
L 628 0 
L 628 4666 
z
" transform="scale(0.015625)"/>
      <path id="DejaVuSans-2c" d="M 750 794 
L 1409 794 
L 1409 256 
L 897 -744 
L 494 -744 
L 750 256 
L 750 794 
z
" transform="scale(0.015625)"/>
      <path id="DejaVuSans-Oblique-54" d="M 378 4666 
L 4325 4666 
L 4225 4134 
L 2559 4134 
L 1759 0 
L 1125 0 
L 1925 4134 
L 275 4134 
L 378 4666 
z
" transform="scale(0.015625)"/>
      <path id="DejaVuSans-2a" d="M 3009 3897 
L 1888 3291 
L 3009 2681 
L 2828 2375 
L 1778 3009 
L 1778 1831 
L 1422 1831 
L 1422 3009 
L 372 2375 
L 191 2681 
L 1313 3291 
L 191 3897 
L 372 4206 
L 1422 3572 
L 1422 4750 
L 1778 4750 
L 1778 3572 
L 2828 4206 
L 3009 3897 
z
" transform="scale(0.015625)"/>
      <path id="DejaVuSans-3d" d="M 678 2906 
L 4684 2906 
L 4684 2381 
L 678 2381 
L 678 2906 
z
M 678 1631 
L 4684 1631 
L 4684 1100 
L 678 1100 
L 678 1631 
z
" transform="scale(0.015625)"/>
      <path id="DejaVuSans-39" d="M 703 97 
L 703 672 
Q 941 559 1184 500 
Q 1428 441 1663 441 
Q 2288 441 2617 861 
Q 2947 1281 2994 2138 
Q 2813 1869 2534 1725 
Q 2256 1581 1919 1581 
Q 1219 1581 811 2004 
Q 403 2428 403 3163 
Q 403 3881 828 4315 
Q 1253 4750 1959 4750 
Q 2769 4750 3195 4129 
Q 3622 3509 3622 2328 
Q 3622 1225 3098 567 
Q 2575 -91 1691 -91 
Q 1453 -91 1209 -44 
Q 966 3 703 97 
z
M 1959 2075 
Q 2384 2075 2632 2365 
Q 2881 2656 2881 3163 
Q 2881 3666 2632 3958 
Q 2384 4250 1959 4250 
Q 1534 4250 1286 3958 
Q 1038 3666 1038 3163 
Q 1038 2656 1286 2365 
Q 1534 2075 1959 2075 
z
" transform="scale(0.015625)"/>
      <path id="DejaVuSans-Oblique-6e" d="M 3566 2113 
L 3156 0 
L 2578 0 
L 2988 2091 
Q 3016 2238 3031 2350 
Q 3047 2463 3047 2528 
Q 3047 2791 2881 2937 
Q 2716 3084 2419 3084 
Q 1956 3084 1622 2776 
Q 1288 2469 1184 1941 
L 800 0 
L 225 0 
L 903 3500 
L 1478 3500 
L 1363 2950 
Q 1603 3253 1940 3418 
Q 2278 3584 2650 3584 
Q 3113 3584 3367 3334 
Q 3622 3084 3622 2631 
Q 3622 2519 3608 2391 
Q 3594 2263 3566 2113 
z
" transform="scale(0.015625)"/>
      <path id="DejaVuSans-Oblique-69" d="M 1172 4863 
L 1747 4863 
L 1606 4134 
L 1031 4134 
L 1172 4863 
z
M 909 3500 
L 1484 3500 
L 800 0 
L 225 0 
L 909 3500 
z
" transform="scale(0.015625)"/>
      <path id="DejaVuSans-Oblique-74" d="M 2706 3500 
L 2619 3053 
L 1472 3053 
L 1100 1153 
Q 1081 1047 1072 975 
Q 1063 903 1063 863 
Q 1063 663 1183 572 
Q 1303 481 1569 481 
L 2150 481 
L 2053 0 
L 1503 0 
Q 991 0 739 200 
Q 488 400 488 806 
Q 488 878 497 964 
Q 506 1050 525 1153 
L 897 3053 
L 409 3053 
L 500 3500 
L 978 3500 
L 1172 4494 
L 1747 4494 
L 1556 3500 
L 2706 3500 
z
" transform="scale(0.015625)"/>
      <path id="DejaVuSans-Oblique-65" d="M 3078 2063 
Q 3088 2113 3092 2166 
Q 3097 2219 3097 2272 
Q 3097 2653 2873 2875 
Q 2650 3097 2266 3097 
Q 1838 3097 1509 2826 
Q 1181 2556 1013 2059 
L 3078 2063 
z
M 3578 1613 
L 903 1613 
Q 884 1494 878 1425 
Q 872 1356 872 1306 
Q 872 872 1139 634 
Q 1406 397 1894 397 
Q 2269 397 2603 481 
Q 2938 566 3225 728 
L 3116 159 
Q 2806 34 2476 -28 
Q 2147 -91 1806 -91 
Q 1078 -91 686 257 
Q 294 606 294 1247 
Q 294 1794 489 2264 
Q 684 2734 1063 3103 
Q 1306 3334 1642 3459 
Q 1978 3584 2356 3584 
Q 2950 3584 3301 3228 
Q 3653 2872 3653 2272 
Q 3653 2128 3634 1964 
Q 3616 1800 3578 1613 
z
" transform="scale(0.015625)"/>
      <path id="DejaVuSans-Oblique-72" d="M 2853 2969 
Q 2766 3016 2653 3041 
Q 2541 3066 2413 3066 
Q 1953 3066 1609 2717 
Q 1266 2369 1153 1784 
L 800 0 
L 225 0 
L 909 3500 
L 1484 3500 
L 1375 2956 
Q 1603 3259 1920 3421 
Q 2238 3584 2597 3584 
Q 2691 3584 2781 3573 
Q 2872 3563 2963 3538 
L 2853 2969 
z
" transform="scale(0.015625)"/>
      <path id="DejaVuSans-Oblique-73" d="M 3200 3397 
L 3091 2853 
Q 2863 2978 2609 3040 
Q 2356 3103 2088 3103 
Q 1634 3103 1373 2948 
Q 1113 2794 1113 2528 
Q 1113 2219 1719 2053 
Q 1766 2041 1788 2034 
L 1972 1978 
Q 2547 1819 2739 1644 
Q 2931 1469 2931 1166 
Q 2931 609 2489 259 
Q 2047 -91 1331 -91 
Q 1053 -91 747 -37 
Q 441 16 72 128 
L 184 722 
Q 500 559 806 475 
Q 1113 391 1394 391 
Q 1816 391 2080 572 
Q 2344 753 2344 1031 
Q 2344 1331 1650 1516 
L 1591 1531 
L 1394 1581 
Q 956 1697 753 1886 
Q 550 2075 550 2369 
Q 550 2928 970 3256 
Q 1391 3584 2113 3584 
Q 2397 3584 2667 3537 
Q 2938 3491 3200 3397 
z
" transform="scale(0.015625)"/>
     </defs>
     <use xlink:href="#DejaVuSans-50" transform="translate(0 0.765625)"/>
     <use xlink:href="#DejaVuSans-72" transform="translate(60.302734 0.765625)"/>
     <use xlink:href="#DejaVuSans-65" transform="translate(101.416016 0.765625)"/>
     <use xlink:href="#DejaVuSans-73" transform="translate(162.939453 0.765625)"/>
     <use xlink:href="#DejaVuSans-73" transform="translate(215.039062 0.765625)"/>
     <use xlink:href="#DejaVuSans-75" transform="translate(267.138672 0.765625)"/>
     <use xlink:href="#DejaVuSans-72" transform="translate(330.517578 0.765625)"/>
     <use xlink:href="#DejaVuSans-65" transform="translate(371.630859 0.765625)"/>
     <use xlink:href="#DejaVuSans-20" transform="translate(433.154297 0.765625)"/>
     <use xlink:href="#DejaVuSans-76" transform="translate(464.941406 0.765625)"/>
     <use xlink:href="#DejaVuSans-73" transform="translate(524.121094 0.765625)"/>
     <use xlink:href="#DejaVuSans-20" transform="translate(576.220703 0.765625)"/>
     <use xlink:href="#DejaVuSans-44" transform="translate(608.007812 0.765625)"/>
     <use xlink:href="#DejaVuSans-65" transform="translate(685.009766 0.765625)"/>
     <use xlink:href="#DejaVuSans-6e" transform="translate(746.533203 0.765625)"/>
     <use xlink:href="#DejaVuSans-73" transform="translate(809.912109 0.765625)"/>
     <use xlink:href="#DejaVuSans-69" transform="translate(862.011719 0.765625)"/>
     <use xlink:href="#DejaVuSans-74" transform="translate(889.794922 0.765625)"/>
     <use xlink:href="#DejaVuSans-79" transform="translate(929.003906 0.765625)"/>
     <use xlink:href="#DejaVuSans-2c" transform="translate(988.183594 0.765625)"/>
     <use xlink:href="#DejaVuSans-20" transform="translate(1019.970703 0.765625)"/>
     <use xlink:href="#DejaVuSans-Oblique-54" transform="translate(1051.757812 0.765625)"/>
     <use xlink:href="#DejaVuSans-2a" transform="translate(1133.496263 39.046875) scale(0.7)"/>
     <use xlink:href="#DejaVuSans-3d" transform="translate(1204.350755 0.765625)"/>
     <use xlink:href="#DejaVuSans-30" transform="translate(1307.62224 0.765625)"/>
     <use xlink:href="#DejaVuSans-2e" transform="translate(1371.245286 0.765625)"/>
     <use xlink:href="#DejaVuSans-39" transform="translate(1403.032396 0.765625)"/>
     <use xlink:href="#DejaVuSans-2c" transform="translate(1466.655443 0.765625)"/>
     <use xlink:href="#DejaVuSans-20" transform="translate(1498.442552 0.765625)"/>
     <use xlink:href="#DejaVuSans-Oblique-6e" transform="translate(1530.229661 0.765625)"/>
     <use xlink:href="#DejaVuSans-Oblique-69" transform="translate(1593.608568 -15.640625) scale(0.7)"/>
     <use xlink:href="#DejaVuSans-Oblique-74" transform="translate(1613.05681 -15.640625) scale(0.7)"/>
     <use xlink:href="#DejaVuSans-Oblique-65" transform="translate(1640.503099 -15.640625) scale(0.7)"/>
     <use xlink:href="#DejaVuSans-Oblique-72" transform="translate(1683.569505 -15.640625) scale(0.7)"/>
     <use xlink:href="#DejaVuSans-Oblique-73" transform="translate(1712.348802 -15.640625) scale(0.7)"/>
     <use xlink:href="#DejaVuSans-3d" transform="translate(1751.552904 0.765625)"/>
     <use xlink:href="#DejaVuSans-31" transform="translate(1835.341966 0.765625)"/>
     <use xlink:href="#DejaVuSans-30" transform="translate(1898.965013 0.765625)"/>
     <use xlink:href="#DejaVuSans-30" transform="translate(1962.58806 0.765625)"/>
     <use xlink:href="#DejaVuSans-30" transform="translate(2026.211107 0.765625)"/>
     <use xlink:href="#DejaVuSans-30" transform="translate(2089.834154 0.765625)"/>
    </g>
   </g>
   <g id="legend_1">
    <g id="patch_7">
     <path d="M 69.3 96.5445 
L 189.959375 96.5445 
Q 191.959375 96.5445 191.959375 94.5445 
L 191.959375 36.832 
Q 191.959375 34.832 189.959375 34.832 
L 69.3 34.832 
Q 67.3 34.832 67.3 36.832 
L 67.3 94.5445 
Q 67.3 96.5445 69.3 96.5445 
z
" style="fill: #ffffff; opacity: 0.8; stroke: #cccccc; stroke-linejoin: miter"/>
    </g>
    <g id="line2d_27">
     <path d="M 71.3 42.930437 
L 81.3 42.930437 
L 91.3 42.930437 
" style="fill: none; stroke: #1f77b4; stroke-width: 0.5; stroke-linecap: square"/>
     <g>
      <use xlink:href="#m5136a3abfb" x="81.3" y="42.930437" style="fill: #1f77b4; stroke: #1f77b4"/>
     </g>
    </g>
    <g id="text_20">
     <!-- Real Data -->
     <g transform="translate(99.3 46.430437) scale(0.1 -0.1)">
      <defs>
       <path id="DejaVuSans-52" d="M 2841 2188 
Q 3044 2119 3236 1894 
Q 3428 1669 3622 1275 
L 4263 0 
L 3584 0 
L 2988 1197 
Q 2756 1666 2539 1819 
Q 2322 1972 1947 1972 
L 1259 1972 
L 1259 0 
L 628 0 
L 628 4666 
L 2053 4666 
Q 2853 4666 3247 4331 
Q 3641 3997 3641 3322 
Q 3641 2881 3436 2590 
Q 3231 2300 2841 2188 
z
M 1259 4147 
L 1259 2491 
L 2053 2491 
Q 2509 2491 2742 2702 
Q 2975 2913 2975 3322 
Q 2975 3731 2742 3939 
Q 2509 4147 2053 4147 
L 1259 4147 
z
" transform="scale(0.015625)"/>
       <path id="DejaVuSans-61" d="M 2194 1759 
Q 1497 1759 1228 1600 
Q 959 1441 959 1056 
Q 959 750 1161 570 
Q 1363 391 1709 391 
Q 2188 391 2477 730 
Q 2766 1069 2766 1631 
L 2766 1759 
L 2194 1759 
z
M 3341 1997 
L 3341 0 
L 2766 0 
L 2766 531 
Q 2569 213 2275 61 
Q 1981 -91 1556 -91 
Q 1019 -91 701 211 
Q 384 513 384 1019 
Q 384 1609 779 1909 
Q 1175 2209 1959 2209 
L 2766 2209 
L 2766 2266 
Q 2766 2663 2505 2880 
Q 2244 3097 1772 3097 
Q 1472 3097 1187 3025 
Q 903 2953 641 2809 
L 641 3341 
Q 956 3463 1253 3523 
Q 1550 3584 1831 3584 
Q 2591 3584 2966 3190 
Q 3341 2797 3341 1997 
z
" transform="scale(0.015625)"/>
       <path id="DejaVuSans-6c" d="M 603 4863 
L 1178 4863 
L 1178 0 
L 603 0 
L 603 4863 
z
" transform="scale(0.015625)"/>
      </defs>
      <use xlink:href="#DejaVuSans-52"/>
      <use xlink:href="#DejaVuSans-65" transform="translate(64.982422 0)"/>
      <use xlink:href="#DejaVuSans-61" transform="translate(126.505859 0)"/>
      <use xlink:href="#DejaVuSans-6c" transform="translate(187.785156 0)"/>
      <use xlink:href="#DejaVuSans-20" transform="translate(215.568359 0)"/>
      <use xlink:href="#DejaVuSans-44" transform="translate(247.355469 0)"/>
      <use xlink:href="#DejaVuSans-61" transform="translate(324.357422 0)"/>
      <use xlink:href="#DejaVuSans-74" transform="translate(385.636719 0)"/>
      <use xlink:href="#DejaVuSans-61" transform="translate(424.845703 0)"/>
     </g>
    </g>
    <g id="LineCollection_4">
     <path d="M 81.3 62.608563 
L 81.3 52.608563 
" style="fill: none; stroke: #ff7f0e; stroke-width: 0.5"/>
    </g>
    <g id="line2d_28">
     <g>
      <use xlink:href="#mfc7f8e11b5" x="81.3" y="62.608563" style="fill: #ff7f0e; stroke: #ff7f0e"/>
     </g>
    </g>
    <g id="line2d_29">
     <g>
      <use xlink:href="#mfc7f8e11b5" x="81.3" y="52.608563" style="fill: #ff7f0e; stroke: #ff7f0e"/>
     </g>
    </g>
    <g id="line2d_30">
     <path d="M 71.3 57.608563 
L 91.3 57.608563 
" style="fill: none; stroke: #ff7f0e; stroke-width: 0.5; stroke-linecap: square"/>
    </g>
    <g id="line2d_31">
     <g>
      <use xlink:href="#mc385009255" x="81.3" y="57.608563" style="fill: #ff7f0e; stroke: #ff7f0e"/>
     </g>
    </g>
    <g id="text_21">
     <!-- Simulated N=100 -->
     <g transform="translate(99.3 61.108563) scale(0.1 -0.1)">
      <defs>
       <path id="DejaVuSans-53" d="M 3425 4513 
L 3425 3897 
Q 3066 4069 2747 4153 
Q 2428 4238 2131 4238 
Q 1616 4238 1336 4038 
Q 1056 3838 1056 3469 
Q 1056 3159 1242 3001 
Q 1428 2844 1947 2747 
L 2328 2669 
Q 3034 2534 3370 2195 
Q 3706 1856 3706 1288 
Q 3706 609 3251 259 
Q 2797 -91 1919 -91 
Q 1588 -91 1214 -16 
Q 841 59 441 206 
L 441 856 
Q 825 641 1194 531 
Q 1563 422 1919 422 
Q 2459 422 2753 634 
Q 3047 847 3047 1241 
Q 3047 1584 2836 1778 
Q 2625 1972 2144 2069 
L 1759 2144 
Q 1053 2284 737 2584 
Q 422 2884 422 3419 
Q 422 4038 858 4394 
Q 1294 4750 2059 4750 
Q 2388 4750 2728 4690 
Q 3069 4631 3425 4513 
z
" transform="scale(0.015625)"/>
       <path id="DejaVuSans-6d" d="M 3328 2828 
Q 3544 3216 3844 3400 
Q 4144 3584 4550 3584 
Q 5097 3584 5394 3201 
Q 5691 2819 5691 2113 
L 5691 0 
L 5113 0 
L 5113 2094 
Q 5113 2597 4934 2840 
Q 4756 3084 4391 3084 
Q 3944 3084 3684 2787 
Q 3425 2491 3425 1978 
L 3425 0 
L 2847 0 
L 2847 2094 
Q 2847 2600 2669 2842 
Q 2491 3084 2119 3084 
Q 1678 3084 1418 2786 
Q 1159 2488 1159 1978 
L 1159 0 
L 581 0 
L 581 3500 
L 1159 3500 
L 1159 2956 
Q 1356 3278 1631 3431 
Q 1906 3584 2284 3584 
Q 2666 3584 2933 3390 
Q 3200 3197 3328 2828 
z
" transform="scale(0.015625)"/>
       <path id="DejaVuSans-4e" d="M 628 4666 
L 1478 4666 
L 3547 763 
L 3547 4666 
L 4159 4666 
L 4159 0 
L 3309 0 
L 1241 3903 
L 1241 0 
L 628 0 
L 628 4666 
z
" transform="scale(0.015625)"/>
      </defs>
      <use xlink:href="#DejaVuSans-53"/>
      <use xlink:href="#DejaVuSans-69" transform="translate(63.476562 0)"/>
      <use xlink:href="#DejaVuSans-6d" transform="translate(91.259766 0)"/>
      <use xlink:href="#DejaVuSans-75" transform="translate(188.671875 0)"/>
      <use xlink:href="#DejaVuSans-6c" transform="translate(252.050781 0)"/>
      <use xlink:href="#DejaVuSans-61" transform="translate(279.833984 0)"/>
      <use xlink:href="#DejaVuSans-74" transform="translate(341.113281 0)"/>
      <use xlink:href="#DejaVuSans-65" transform="translate(380.322266 0)"/>
      <use xlink:href="#DejaVuSans-64" transform="translate(441.845703 0)"/>
      <use xlink:href="#DejaVuSans-20" transform="translate(505.322266 0)"/>
      <use xlink:href="#DejaVuSans-4e" transform="translate(537.109375 0)"/>
      <use xlink:href="#DejaVuSans-3d" transform="translate(611.914062 0)"/>
      <use xlink:href="#DejaVuSans-31" transform="translate(695.703125 0)"/>
      <use xlink:href="#DejaVuSans-30" transform="translate(759.326172 0)"/>
      <use xlink:href="#DejaVuSans-30" transform="translate(822.949219 0)"/>
     </g>
    </g>
    <g id="LineCollection_5">
     <path d="M 81.3 77.286687 
L 81.3 67.286687 
" style="fill: none; stroke: #2ca02c; stroke-width: 0.5"/>
    </g>
    <g id="line2d_32">
     <g>
      <use xlink:href="#md6a65c6a3e" x="81.3" y="77.286687" style="fill: #2ca02c; stroke: #2ca02c"/>
     </g>
    </g>
    <g id="line2d_33">
     <g>
      <use xlink:href="#md6a65c6a3e" x="81.3" y="67.286687" style="fill: #2ca02c; stroke: #2ca02c"/>
     </g>
    </g>
    <g id="line2d_34">
     <path d="M 71.3 72.286687 
L 91.3 72.286687 
" style="fill: none; stroke: #2ca02c; stroke-width: 0.5; stroke-linecap: square"/>
    </g>
    <g id="line2d_35">
     <g>
      <use xlink:href="#m99eb62babf" x="81.3" y="72.286687" style="fill: #2ca02c; stroke: #2ca02c"/>
     </g>
    </g>
    <g id="text_22">
     <!-- Simulated N=200 -->
     <g transform="translate(99.3 75.786687) scale(0.1 -0.1)">
      <use xlink:href="#DejaVuSans-53"/>
      <use xlink:href="#DejaVuSans-69" transform="translate(63.476562 0)"/>
      <use xlink:href="#DejaVuSans-6d" transform="translate(91.259766 0)"/>
      <use xlink:href="#DejaVuSans-75" transform="translate(188.671875 0)"/>
      <use xlink:href="#DejaVuSans-6c" transform="translate(252.050781 0)"/>
      <use xlink:href="#DejaVuSans-61" transform="translate(279.833984 0)"/>
      <use xlink:href="#DejaVuSans-74" transform="translate(341.113281 0)"/>
      <use xlink:href="#DejaVuSans-65" transform="translate(380.322266 0)"/>
      <use xlink:href="#DejaVuSans-64" transform="translate(441.845703 0)"/>
      <use xlink:href="#DejaVuSans-20" transform="translate(505.322266 0)"/>
      <use xlink:href="#DejaVuSans-4e" transform="translate(537.109375 0)"/>
      <use xlink:href="#DejaVuSans-3d" transform="translate(611.914062 0)"/>
      <use xlink:href="#DejaVuSans-32" transform="translate(695.703125 0)"/>
      <use xlink:href="#DejaVuSans-30" transform="translate(759.326172 0)"/>
      <use xlink:href="#DejaVuSans-30" transform="translate(822.949219 0)"/>
     </g>
    </g>
    <g id="LineCollection_6">
     <path d="M 81.3 91.964812 
L 81.3 81.964812 
" style="fill: none; stroke: #d62728; stroke-width: 0.5"/>
    </g>
    <g id="line2d_36">
     <g>
      <use xlink:href="#mcac4f7eef8" x="81.3" y="91.964812" style="fill: #d62728; stroke: #d62728"/>
     </g>
    </g>
    <g id="line2d_37">
     <g>
      <use xlink:href="#mcac4f7eef8" x="81.3" y="81.964812" style="fill: #d62728; stroke: #d62728"/>
     </g>
    </g>
    <g id="line2d_38">
     <path d="M 71.3 86.964812 
L 91.3 86.964812 
" style="fill: none; stroke: #d62728; stroke-width: 0.5; stroke-linecap: square"/>
    </g>
    <g id="line2d_39">
     <g>
      <use xlink:href="#maf6c8b950e" x="81.3" y="86.964812" style="fill: #d62728; stroke: #d62728"/>
     </g>
    </g>
    <g id="text_23">
     <!-- Simulated N=300 -->
     <g transform="translate(99.3 90.464812) scale(0.1 -0.1)">
      <use xlink:href="#DejaVuSans-53"/>
      <use xlink:href="#DejaVuSans-69" transform="translate(63.476562 0)"/>
      <use xlink:href="#DejaVuSans-6d" transform="translate(91.259766 0)"/>
      <use xlink:href="#DejaVuSans-75" transform="translate(188.671875 0)"/>
      <use xlink:href="#DejaVuSans-6c" transform="translate(252.050781 0)"/>
      <use xlink:href="#DejaVuSans-61" transform="translate(279.833984 0)"/>
      <use xlink:href="#DejaVuSans-74" transform="translate(341.113281 0)"/>
      <use xlink:href="#DejaVuSans-65" transform="translate(380.322266 0)"/>
      <use xlink:href="#DejaVuSans-64" transform="translate(441.845703 0)"/>
      <use xlink:href="#DejaVuSans-20" transform="translate(505.322266 0)"/>
      <use xlink:href="#DejaVuSans-4e" transform="translate(537.109375 0)"/>
      <use xlink:href="#DejaVuSans-3d" transform="translate(611.914062 0)"/>
      <use xlink:href="#DejaVuSans-33" transform="translate(695.703125 0)"/>
      <use xlink:href="#DejaVuSans-30" transform="translate(759.326172 0)"/>
      <use xlink:href="#DejaVuSans-30" transform="translate(822.949219 0)"/>
     </g>
    </g>
   </g>
  </g>
 </g>
 <defs>
  <clipPath id="p180880cb21">
   <rect x="62.3" y="29.832" width="387.7" height="270.928"/>
  </clipPath>
 </defs>
</svg>
