<?xml version="1.0" encoding="utf-8" standalone="no"?>
<!DOCTYPE svg PUBLIC "-//W3C//DTD SVG 1.1//EN"
  "http://www.w3.org/Graphics/SVG/1.1/DTD/svg11.dtd">
<svg xmlns:xlink="http://www.w3.org/1999/xlink" width="460.8pt" height="345.6pt" viewBox="0 0 460.8 345.6" xmlns="http://www.w3.org/2000/svg" version="1.1">
 <metadata>
  <rdf:RDF xmlns:dc="http://purl.org/dc/elements/1.1/" xmlns:cc="http://creativecommons.org/ns#" xmlns:rdf="http://www.w3.org/1999/02/22-rdf-syntax-ns#">
   <cc:Work>
    <dc:type rdf:resource="http://purl.org/dc/dcmitype/StillImage"/>
    <dc:date>2025-05-07T14:11:30.684501</dc:date>
    <dc:format>image/svg+xml</dc:format>
    <dc:creator>
     <cc:Agent>
      <dc:title>Matplotlib v3.10.1, https://matplotlib.org/</dc:title>
     </cc:Agent>
    </dc:creator>
   </cc:Work>
  </rdf:RDF>
 </metadata>
 <defs>
  <style type="text/css">*{stroke-linejoin: round; stroke-linecap: butt}</style>
 </defs>
 <g id="figure_1">
  <g id="patch_1">
   <path d="M 0 345.6 
L 460.8 345.6 
L 460.8 0 
L 0 0 
z
" style="fill: #ffffff"/>
  </g>
  <g id="axes_1">
   <g id="patch_2">
    <path d="M 47.72 303.64 
L 450 303.64 
L 450 28.32 
L 47.72 28.32 
z
" style="fill: #ffffff"/>
   </g>
   <g id="patch_3">
    <path d="M 66.005455 303.64 
L 84.290909 303.64 
L 84.290909 303.64 
L 66.005455 303.64 
z
" clip-path="url(#p3bc58298cf)" style="fill: #1f77b4; opacity: 0.5"/>
   </g>
   <g id="patch_4">
    <path d="M 84.290909 303.64 
L 102.576364 303.64 
L 102.576364 303.64 
L 84.290909 303.64 
z
" clip-path="url(#p3bc58298cf)" style="fill: #1f77b4; opacity: 0.5"/>
   </g>
   <g id="patch_5">
    <path d="M 102.576364 303.64 
L 120.861818 303.64 
L 120.861818 303.64 
L 102.576364 303.64 
z
" clip-path="url(#p3bc58298cf)" style="fill: #1f77b4; opacity: 0.5"/>
   </g>
   <g id="patch_6">
    <path d="M 120.861818 303.64 
L 139.147273 303.64 
L 139.147273 303.64 
L 120.861818 303.64 
z
" clip-path="url(#p3bc58298cf)" style="fill: #1f77b4; opacity: 0.5"/>
   </g>
   <g id="patch_7">
    <path d="M 139.147273 303.64 
L 157.432727 303.64 
L 157.432727 303.64 
L 139.147273 303.64 
z
" clip-path="url(#p3bc58298cf)" style="fill: #1f77b4; opacity: 0.5"/>
   </g>
   <g id="patch_8">
    <path d="M 157.432727 303.64 
L 175.718182 303.64 
L 175.718182 303.64 
L 157.432727 303.64 
z
" clip-path="url(#p3bc58298cf)" style="fill: #1f77b4; opacity: 0.5"/>
   </g>
   <g id="patch_9">
    <path d="M 175.718182 303.64 
L 194.003636 303.64 
L 194.003636 303.64 
L 175.718182 303.64 
z
" clip-path="url(#p3bc58298cf)" style="fill: #1f77b4; opacity: 0.5"/>
   </g>
   <g id="patch_10">
    <path d="M 194.003636 303.64 
L 212.289091 303.64 
L 212.289091 303.64 
L 194.003636 303.64 
z
" clip-path="url(#p3bc58298cf)" style="fill: #1f77b4; opacity: 0.5"/>
   </g>
   <g id="patch_11">
    <path d="M 212.289091 303.64 
L 230.574545 303.64 
L 230.574545 303.64 
L 212.289091 303.64 
z
" clip-path="url(#p3bc58298cf)" style="fill: #1f77b4; opacity: 0.5"/>
   </g>
   <g id="patch_12">
    <path d="M 230.574545 303.64 
L 248.86 303.64 
L 248.86 303.64 
L 230.574545 303.64 
z
" clip-path="url(#p3bc58298cf)" style="fill: #1f77b4; opacity: 0.5"/>
   </g>
   <g id="patch_13">
    <path d="M 248.86 303.64 
L 267.145455 303.64 
L 267.145455 303.64 
L 248.86 303.64 
z
" clip-path="url(#p3bc58298cf)" style="fill: #1f77b4; opacity: 0.5"/>
   </g>
   <g id="patch_14">
    <path d="M 267.145455 303.64 
L 285.430909 303.64 
L 285.430909 303.592815 
L 267.145455 303.592815 
z
" clip-path="url(#p3bc58298cf)" style="fill: #1f77b4; opacity: 0.5"/>
   </g>
   <g id="patch_15">
    <path d="M 285.430909 303.64 
L 303.716364 303.64 
L 303.716364 303.592815 
L 285.430909 303.592815 
z
" clip-path="url(#p3bc58298cf)" style="fill: #1f77b4; opacity: 0.5"/>
   </g>
   <g id="patch_16">
    <path d="M 303.716364 303.64 
L 322.001818 303.64 
L 322.001818 303.309702 
L 303.716364 303.309702 
z
" clip-path="url(#p3bc58298cf)" style="fill: #1f77b4; opacity: 0.5"/>
   </g>
   <g id="patch_17">
    <path d="M 322.001818 303.64 
L 340.287273 303.64 
L 340.287273 302.177251 
L 322.001818 302.177251 
z
" clip-path="url(#p3bc58298cf)" style="fill: #1f77b4; opacity: 0.5"/>
   </g>
   <g id="patch_18">
    <path d="M 340.287273 303.64 
L 358.572727 303.64 
L 358.572727 299.39331 
L 340.287273 299.39331 
z
" clip-path="url(#p3bc58298cf)" style="fill: #1f77b4; opacity: 0.5"/>
   </g>
   <g id="patch_19">
    <path d="M 358.572727 303.64 
L 376.858182 303.64 
L 376.858182 289.295624 
L 358.572727 289.295624 
z
" clip-path="url(#p3bc58298cf)" style="fill: #1f77b4; opacity: 0.5"/>
   </g>
   <g id="patch_20">
    <path d="M 376.858182 303.64 
L 395.143636 303.64 
L 395.143636 247.159021 
L 376.858182 247.159021 
z
" clip-path="url(#p3bc58298cf)" style="fill: #1f77b4; opacity: 0.5"/>
   </g>
   <g id="patch_21">
    <path d="M 395.143636 303.64 
L 413.429091 303.64 
L 413.429091 41.430476 
L 395.143636 41.430476 
z
" clip-path="url(#p3bc58298cf)" style="fill: #1f77b4; opacity: 0.5"/>
   </g>
   <g id="patch_22">
    <path d="M 413.429091 303.64 
L 431.714545 303.64 
L 431.714545 194.547249 
L 413.429091 194.547249 
z
" clip-path="url(#p3bc58298cf)" style="fill: #1f77b4; opacity: 0.5"/>
   </g>
   <g id="patch_23">
    <path d="M 66.005455 303.64 
L 84.290909 303.64 
L 84.290909 303.64 
L 66.005455 303.64 
z
" clip-path="url(#p3bc58298cf)" style="fill: #ff7f0e; opacity: 0.5"/>
   </g>
   <g id="patch_24">
    <path d="M 84.290909 303.64 
L 102.576364 303.64 
L 102.576364 303.64 
L 84.290909 303.64 
z
" clip-path="url(#p3bc58298cf)" style="fill: #ff7f0e; opacity: 0.5"/>
   </g>
   <g id="patch_25">
    <path d="M 102.576364 303.64 
L 120.861818 303.64 
L 120.861818 303.64 
L 102.576364 303.64 
z
" clip-path="url(#p3bc58298cf)" style="fill: #ff7f0e; opacity: 0.5"/>
   </g>
   <g id="patch_26">
    <path d="M 120.861818 303.64 
L 139.147273 303.64 
L 139.147273 303.64 
L 120.861818 303.64 
z
" clip-path="url(#p3bc58298cf)" style="fill: #ff7f0e; opacity: 0.5"/>
   </g>
   <g id="patch_27">
    <path d="M 139.147273 303.64 
L 157.432727 303.64 
L 157.432727 303.64 
L 139.147273 303.64 
z
" clip-path="url(#p3bc58298cf)" style="fill: #ff7f0e; opacity: 0.5"/>
   </g>
   <g id="patch_28">
    <path d="M 157.432727 303.64 
L 175.718182 303.64 
L 175.718182 303.64 
L 157.432727 303.64 
z
" clip-path="url(#p3bc58298cf)" style="fill: #ff7f0e; opacity: 0.5"/>
   </g>
   <g id="patch_29">
    <path d="M 175.718182 303.64 
L 194.003636 303.64 
L 194.003636 303.64 
L 175.718182 303.64 
z
" clip-path="url(#p3bc58298cf)" style="fill: #ff7f0e; opacity: 0.5"/>
   </g>
   <g id="patch_30">
    <path d="M 194.003636 303.64 
L 212.289091 303.64 
L 212.289091 303.64 
L 194.003636 303.64 
z
" clip-path="url(#p3bc58298cf)" style="fill: #ff7f0e; opacity: 0.5"/>
   </g>
   <g id="patch_31">
    <path d="M 212.289091 303.64 
L 230.574545 303.64 
L 230.574545 303.64 
L 212.289091 303.64 
z
" clip-path="url(#p3bc58298cf)" style="fill: #ff7f0e; opacity: 0.5"/>
   </g>
   <g id="patch_32">
    <path d="M 230.574545 303.64 
L 248.86 303.64 
L 248.86 303.64 
L 230.574545 303.64 
z
" clip-path="url(#p3bc58298cf)" style="fill: #ff7f0e; opacity: 0.5"/>
   </g>
   <g id="patch_33">
    <path d="M 248.86 303.64 
L 267.145455 303.64 
L 267.145455 303.592815 
L 248.86 303.592815 
z
" clip-path="url(#p3bc58298cf)" style="fill: #ff7f0e; opacity: 0.5"/>
   </g>
   <g id="patch_34">
    <path d="M 267.145455 303.64 
L 285.430909 303.64 
L 285.430909 303.64 
L 267.145455 303.64 
z
" clip-path="url(#p3bc58298cf)" style="fill: #ff7f0e; opacity: 0.5"/>
   </g>
   <g id="patch_35">
    <path d="M 285.430909 303.64 
L 303.716364 303.64 
L 303.716364 303.498444 
L 285.430909 303.498444 
z
" clip-path="url(#p3bc58298cf)" style="fill: #ff7f0e; opacity: 0.5"/>
   </g>
   <g id="patch_36">
    <path d="M 303.716364 303.64 
L 322.001818 303.64 
L 322.001818 302.790662 
L 303.716364 302.790662 
z
" clip-path="url(#p3bc58298cf)" style="fill: #ff7f0e; opacity: 0.5"/>
   </g>
   <g id="patch_37">
    <path d="M 322.001818 303.64 
L 340.287273 303.64 
L 340.287273 301.752582 
L 322.001818 301.752582 
z
" clip-path="url(#p3bc58298cf)" style="fill: #ff7f0e; opacity: 0.5"/>
   </g>
   <g id="patch_38">
    <path d="M 340.287273 303.64 
L 358.572727 303.64 
L 358.572727 296.656554 
L 340.287273 296.656554 
z
" clip-path="url(#p3bc58298cf)" style="fill: #ff7f0e; opacity: 0.5"/>
   </g>
   <g id="patch_39">
    <path d="M 358.572727 303.64 
L 376.858182 303.64 
L 376.858182 282.784033 
L 358.572727 282.784033 
z
" clip-path="url(#p3bc58298cf)" style="fill: #ff7f0e; opacity: 0.5"/>
   </g>
   <g id="patch_40">
    <path d="M 376.858182 303.64 
L 395.143636 303.64 
L 395.143636 240.694615 
L 376.858182 240.694615 
z
" clip-path="url(#p3bc58298cf)" style="fill: #ff7f0e; opacity: 0.5"/>
   </g>
   <g id="patch_41">
    <path d="M 395.143636 303.64 
L 413.429091 303.64 
L 413.429091 60.35184 
L 395.143636 60.35184 
z
" clip-path="url(#p3bc58298cf)" style="fill: #ff7f0e; opacity: 0.5"/>
   </g>
   <g id="patch_42">
    <path d="M 413.429091 303.64 
L 431.714545 303.64 
L 431.714545 192.376718 
L 413.429091 192.376718 
z
" clip-path="url(#p3bc58298cf)" style="fill: #ff7f0e; opacity: 0.5"/>
   </g>
   <g id="patch_43">
    <path d="M 66.005455 303.64 
L 84.290909 303.64 
L 84.290909 303.64 
L 66.005455 303.64 
z
" clip-path="url(#p3bc58298cf)" style="fill: #2ca02c; opacity: 0.5"/>
   </g>
   <g id="patch_44">
    <path d="M 84.290909 303.64 
L 102.576364 303.64 
L 102.576364 303.64 
L 84.290909 303.64 
z
" clip-path="url(#p3bc58298cf)" style="fill: #2ca02c; opacity: 0.5"/>
   </g>
   <g id="patch_45">
    <path d="M 102.576364 303.64 
L 120.861818 303.64 
L 120.861818 303.64 
L 102.576364 303.64 
z
" clip-path="url(#p3bc58298cf)" style="fill: #2ca02c; opacity: 0.5"/>
   </g>
   <g id="patch_46">
    <path d="M 120.861818 303.64 
L 139.147273 303.64 
L 139.147273 303.64 
L 120.861818 303.64 
z
" clip-path="url(#p3bc58298cf)" style="fill: #2ca02c; opacity: 0.5"/>
   </g>
   <g id="patch_47">
    <path d="M 139.147273 303.64 
L 157.432727 303.64 
L 157.432727 303.64 
L 139.147273 303.64 
z
" clip-path="url(#p3bc58298cf)" style="fill: #2ca02c; opacity: 0.5"/>
   </g>
   <g id="patch_48">
    <path d="M 157.432727 303.64 
L 175.718182 303.64 
L 175.718182 303.64 
L 157.432727 303.64 
z
" clip-path="url(#p3bc58298cf)" style="fill: #2ca02c; opacity: 0.5"/>
   </g>
   <g id="patch_49">
    <path d="M 175.718182 303.64 
L 194.003636 303.64 
L 194.003636 303.64 
L 175.718182 303.64 
z
" clip-path="url(#p3bc58298cf)" style="fill: #2ca02c; opacity: 0.5"/>
   </g>
   <g id="patch_50">
    <path d="M 194.003636 303.64 
L 212.289091 303.64 
L 212.289091 303.64 
L 194.003636 303.64 
z
" clip-path="url(#p3bc58298cf)" style="fill: #2ca02c; opacity: 0.5"/>
   </g>
   <g id="patch_51">
    <path d="M 212.289091 303.64 
L 230.574545 303.64 
L 230.574545 303.64 
L 212.289091 303.64 
z
" clip-path="url(#p3bc58298cf)" style="fill: #2ca02c; opacity: 0.5"/>
   </g>
   <g id="patch_52">
    <path d="M 230.574545 303.64 
L 248.86 303.64 
L 248.86 303.64 
L 230.574545 303.64 
z
" clip-path="url(#p3bc58298cf)" style="fill: #2ca02c; opacity: 0.5"/>
   </g>
   <g id="patch_53">
    <path d="M 248.86 303.64 
L 267.145455 303.64 
L 267.145455 303.64 
L 248.86 303.64 
z
" clip-path="url(#p3bc58298cf)" style="fill: #2ca02c; opacity: 0.5"/>
   </g>
   <g id="patch_54">
    <path d="M 267.145455 303.64 
L 285.430909 303.64 
L 285.430909 303.545629 
L 267.145455 303.545629 
z
" clip-path="url(#p3bc58298cf)" style="fill: #2ca02c; opacity: 0.5"/>
   </g>
   <g id="patch_55">
    <path d="M 285.430909 303.64 
L 303.716364 303.64 
L 303.716364 303.026589 
L 285.430909 303.026589 
z
" clip-path="url(#p3bc58298cf)" style="fill: #2ca02c; opacity: 0.5"/>
   </g>
   <g id="patch_56">
    <path d="M 303.716364 303.64 
L 322.001818 303.64 
L 322.001818 302.554735 
L 303.716364 302.554735 
z
" clip-path="url(#p3bc58298cf)" style="fill: #2ca02c; opacity: 0.5"/>
   </g>
   <g id="patch_57">
    <path d="M 322.001818 303.64 
L 340.287273 303.64 
L 340.287273 300.43139 
L 322.001818 300.43139 
z
" clip-path="url(#p3bc58298cf)" style="fill: #2ca02c; opacity: 0.5"/>
   </g>
   <g id="patch_58">
    <path d="M 340.287273 303.64 
L 358.572727 303.64 
L 358.572727 294.816322 
L 340.287273 294.816322 
z
" clip-path="url(#p3bc58298cf)" style="fill: #2ca02c; opacity: 0.5"/>
   </g>
   <g id="patch_59">
    <path d="M 358.572727 303.64 
L 376.858182 303.64 
L 376.858182 280.047277 
L 358.572727 280.047277 
z
" clip-path="url(#p3bc58298cf)" style="fill: #2ca02c; opacity: 0.5"/>
   </g>
   <g id="patch_60">
    <path d="M 376.858182 303.64 
L 395.143636 303.64 
L 395.143636 240.175575 
L 376.858182 240.175575 
z
" clip-path="url(#p3bc58298cf)" style="fill: #2ca02c; opacity: 0.5"/>
   </g>
   <g id="patch_61">
    <path d="M 395.143636 303.64 
L 413.429091 303.64 
L 413.429091 45.252497 
L 395.143636 45.252497 
z
" clip-path="url(#p3bc58298cf)" style="fill: #2ca02c; opacity: 0.5"/>
   </g>
   <g id="patch_62">
    <path d="M 413.429091 303.64 
L 431.714545 303.64 
L 431.714545 214.648249 
L 413.429091 214.648249 
z
" clip-path="url(#p3bc58298cf)" style="fill: #2ca02c; opacity: 0.5"/>
   </g>
   <g id="patch_63">
    <path d="M 66.005455 303.64 
L 84.290909 303.64 
L 84.290909 303.64 
L 66.005455 303.64 
z
" clip-path="url(#p3bc58298cf)" style="fill: #d62728; opacity: 0.5"/>
   </g>
   <g id="patch_64">
    <path d="M 84.290909 303.64 
L 102.576364 303.64 
L 102.576364 303.64 
L 84.290909 303.64 
z
" clip-path="url(#p3bc58298cf)" style="fill: #d62728; opacity: 0.5"/>
   </g>
   <g id="patch_65">
    <path d="M 102.576364 303.64 
L 120.861818 303.64 
L 120.861818 303.64 
L 102.576364 303.64 
z
" clip-path="url(#p3bc58298cf)" style="fill: #d62728; opacity: 0.5"/>
   </g>
   <g id="patch_66">
    <path d="M 120.861818 303.64 
L 139.147273 303.64 
L 139.147273 303.64 
L 120.861818 303.64 
z
" clip-path="url(#p3bc58298cf)" style="fill: #d62728; opacity: 0.5"/>
   </g>
   <g id="patch_67">
    <path d="M 139.147273 303.64 
L 157.432727 303.64 
L 157.432727 303.64 
L 139.147273 303.64 
z
" clip-path="url(#p3bc58298cf)" style="fill: #d62728; opacity: 0.5"/>
   </g>
   <g id="patch_68">
    <path d="M 157.432727 303.64 
L 175.718182 303.64 
L 175.718182 303.64 
L 157.432727 303.64 
z
" clip-path="url(#p3bc58298cf)" style="fill: #d62728; opacity: 0.5"/>
   </g>
   <g id="patch_69">
    <path d="M 175.718182 303.64 
L 194.003636 303.64 
L 194.003636 303.64 
L 175.718182 303.64 
z
" clip-path="url(#p3bc58298cf)" style="fill: #d62728; opacity: 0.5"/>
   </g>
   <g id="patch_70">
    <path d="M 194.003636 303.64 
L 212.289091 303.64 
L 212.289091 303.64 
L 194.003636 303.64 
z
" clip-path="url(#p3bc58298cf)" style="fill: #d62728; opacity: 0.5"/>
   </g>
   <g id="patch_71">
    <path d="M 212.289091 303.64 
L 230.574545 303.64 
L 230.574545 303.64 
L 212.289091 303.64 
z
" clip-path="url(#p3bc58298cf)" style="fill: #d62728; opacity: 0.5"/>
   </g>
   <g id="patch_72">
    <path d="M 230.574545 303.64 
L 248.86 303.64 
L 248.86 303.592815 
L 230.574545 303.592815 
z
" clip-path="url(#p3bc58298cf)" style="fill: #d62728; opacity: 0.5"/>
   </g>
   <g id="patch_73">
    <path d="M 248.86 303.64 
L 267.145455 303.64 
L 267.145455 303.64 
L 248.86 303.64 
z
" clip-path="url(#p3bc58298cf)" style="fill: #d62728; opacity: 0.5"/>
   </g>
   <g id="patch_74">
    <path d="M 267.145455 303.64 
L 285.430909 303.64 
L 285.430909 303.451258 
L 267.145455 303.451258 
z
" clip-path="url(#p3bc58298cf)" style="fill: #d62728; opacity: 0.5"/>
   </g>
   <g id="patch_75">
    <path d="M 285.430909 303.64 
L 303.716364 303.64 
L 303.716364 302.507549 
L 285.430909 302.507549 
z
" clip-path="url(#p3bc58298cf)" style="fill: #d62728; opacity: 0.5"/>
   </g>
   <g id="patch_76">
    <path d="M 303.716364 303.64 
L 322.001818 303.64 
L 322.001818 300.903244 
L 303.716364 300.903244 
z
" clip-path="url(#p3bc58298cf)" style="fill: #d62728; opacity: 0.5"/>
   </g>
   <g id="patch_77">
    <path d="M 322.001818 303.64 
L 340.287273 303.64 
L 340.287273 298.543972 
L 322.001818 298.543972 
z
" clip-path="url(#p3bc58298cf)" style="fill: #d62728; opacity: 0.5"/>
   </g>
   <g id="patch_78">
    <path d="M 340.287273 303.64 
L 358.572727 303.64 
L 358.572727 290.286519 
L 340.287273 290.286519 
z
" clip-path="url(#p3bc58298cf)" style="fill: #d62728; opacity: 0.5"/>
   </g>
   <g id="patch_79">
    <path d="M 358.572727 303.64 
L 376.858182 303.64 
L 376.858182 276.555554 
L 358.572727 276.555554 
z
" clip-path="url(#p3bc58298cf)" style="fill: #d62728; opacity: 0.5"/>
   </g>
   <g id="patch_80">
    <path d="M 376.858182 303.64 
L 395.143636 303.64 
L 395.143636 230.17226 
L 376.858182 230.17226 
z
" clip-path="url(#p3bc58298cf)" style="fill: #d62728; opacity: 0.5"/>
   </g>
   <g id="patch_81">
    <path d="M 395.143636 303.64 
L 413.429091 303.64 
L 413.429091 61.248364 
L 395.143636 61.248364 
z
" clip-path="url(#p3bc58298cf)" style="fill: #d62728; opacity: 0.5"/>
   </g>
   <g id="patch_82">
    <path d="M 413.429091 303.64 
L 431.714545 303.64 
L 431.714545 220.876728 
L 413.429091 220.876728 
z
" clip-path="url(#p3bc58298cf)" style="fill: #d62728; opacity: 0.5"/>
   </g>
   <g id="patch_83">
    <path d="M 66.005455 303.64 
L 84.290909 303.64 
L 84.290909 303.64 
L 66.005455 303.64 
z
" clip-path="url(#p3bc58298cf)" style="fill: #9467bd; opacity: 0.5"/>
   </g>
   <g id="patch_84">
    <path d="M 84.290909 303.64 
L 102.576364 303.64 
L 102.576364 303.64 
L 84.290909 303.64 
z
" clip-path="url(#p3bc58298cf)" style="fill: #9467bd; opacity: 0.5"/>
   </g>
   <g id="patch_85">
    <path d="M 102.576364 303.64 
L 120.861818 303.64 
L 120.861818 303.64 
L 102.576364 303.64 
z
" clip-path="url(#p3bc58298cf)" style="fill: #9467bd; opacity: 0.5"/>
   </g>
   <g id="patch_86">
    <path d="M 120.861818 303.64 
L 139.147273 303.64 
L 139.147273 303.64 
L 120.861818 303.64 
z
" clip-path="url(#p3bc58298cf)" style="fill: #9467bd; opacity: 0.5"/>
   </g>
   <g id="patch_87">
    <path d="M 139.147273 303.64 
L 157.432727 303.64 
L 157.432727 303.64 
L 139.147273 303.64 
z
" clip-path="url(#p3bc58298cf)" style="fill: #9467bd; opacity: 0.5"/>
   </g>
   <g id="patch_88">
    <path d="M 157.432727 303.64 
L 175.718182 303.64 
L 175.718182 303.64 
L 157.432727 303.64 
z
" clip-path="url(#p3bc58298cf)" style="fill: #9467bd; opacity: 0.5"/>
   </g>
   <g id="patch_89">
    <path d="M 175.718182 303.64 
L 194.003636 303.64 
L 194.003636 303.64 
L 175.718182 303.64 
z
" clip-path="url(#p3bc58298cf)" style="fill: #9467bd; opacity: 0.5"/>
   </g>
   <g id="patch_90">
    <path d="M 194.003636 303.64 
L 212.289091 303.64 
L 212.289091 303.64 
L 194.003636 303.64 
z
" clip-path="url(#p3bc58298cf)" style="fill: #9467bd; opacity: 0.5"/>
   </g>
   <g id="patch_91">
    <path d="M 212.289091 303.64 
L 230.574545 303.64 
L 230.574545 303.498444 
L 212.289091 303.498444 
z
" clip-path="url(#p3bc58298cf)" style="fill: #9467bd; opacity: 0.5"/>
   </g>
   <g id="patch_92">
    <path d="M 230.574545 303.64 
L 248.86 303.64 
L 248.86 303.545629 
L 230.574545 303.545629 
z
" clip-path="url(#p3bc58298cf)" style="fill: #9467bd; opacity: 0.5"/>
   </g>
   <g id="patch_93">
    <path d="M 248.86 303.64 
L 267.145455 303.64 
L 267.145455 303.404073 
L 248.86 303.404073 
z
" clip-path="url(#p3bc58298cf)" style="fill: #9467bd; opacity: 0.5"/>
   </g>
   <g id="patch_94">
    <path d="M 267.145455 303.64 
L 285.430909 303.64 
L 285.430909 303.168146 
L 267.145455 303.168146 
z
" clip-path="url(#p3bc58298cf)" style="fill: #9467bd; opacity: 0.5"/>
   </g>
   <g id="patch_95">
    <path d="M 285.430909 303.64 
L 303.716364 303.64 
L 303.716364 302.696291 
L 285.430909 302.696291 
z
" clip-path="url(#p3bc58298cf)" style="fill: #9467bd; opacity: 0.5"/>
   </g>
   <g id="patch_96">
    <path d="M 303.716364 303.64 
L 322.001818 303.64 
L 322.001818 300.997615 
L 303.716364 300.997615 
z
" clip-path="url(#p3bc58298cf)" style="fill: #9467bd; opacity: 0.5"/>
   </g>
   <g id="patch_97">
    <path d="M 322.001818 303.64 
L 340.287273 303.64 
L 340.287273 296.750925 
L 322.001818 296.750925 
z
" clip-path="url(#p3bc58298cf)" style="fill: #9467bd; opacity: 0.5"/>
   </g>
   <g id="patch_98">
    <path d="M 340.287273 303.64 
L 358.572727 303.64 
L 358.572727 289.059697 
L 340.287273 289.059697 
z
" clip-path="url(#p3bc58298cf)" style="fill: #9467bd; opacity: 0.5"/>
   </g>
   <g id="patch_99">
    <path d="M 358.572727 303.64 
L 376.858182 303.64 
L 376.858182 272.591976 
L 358.572727 272.591976 
z
" clip-path="url(#p3bc58298cf)" style="fill: #9467bd; opacity: 0.5"/>
   </g>
   <g id="patch_100">
    <path d="M 376.858182 303.64 
L 395.143636 303.64 
L 395.143636 228.426399 
L 376.858182 228.426399 
z
" clip-path="url(#p3bc58298cf)" style="fill: #9467bd; opacity: 0.5"/>
   </g>
   <g id="patch_101">
    <path d="M 395.143636 303.64 
L 413.429091 303.64 
L 413.429091 62.899854 
L 395.143636 62.899854 
z
" clip-path="url(#p3bc58298cf)" style="fill: #9467bd; opacity: 0.5"/>
   </g>
   <g id="patch_102">
    <path d="M 413.429091 303.64 
L 431.714545 303.64 
L 431.714545 228.379214 
L 413.429091 228.379214 
z
" clip-path="url(#p3bc58298cf)" style="fill: #9467bd; opacity: 0.5"/>
   </g>
   <g id="patch_103">
    <path d="M 66.005455 303.64 
L 84.290909 303.64 
L 84.290909 303.64 
L 66.005455 303.64 
z
" clip-path="url(#p3bc58298cf)" style="fill: #8c564b; opacity: 0.5"/>
   </g>
   <g id="patch_104">
    <path d="M 84.290909 303.64 
L 102.576364 303.64 
L 102.576364 303.64 
L 84.290909 303.64 
z
" clip-path="url(#p3bc58298cf)" style="fill: #8c564b; opacity: 0.5"/>
   </g>
   <g id="patch_105">
    <path d="M 102.576364 303.64 
L 120.861818 303.64 
L 120.861818 303.64 
L 102.576364 303.64 
z
" clip-path="url(#p3bc58298cf)" style="fill: #8c564b; opacity: 0.5"/>
   </g>
   <g id="patch_106">
    <path d="M 120.861818 303.64 
L 139.147273 303.64 
L 139.147273 303.64 
L 120.861818 303.64 
z
" clip-path="url(#p3bc58298cf)" style="fill: #8c564b; opacity: 0.5"/>
   </g>
   <g id="patch_107">
    <path d="M 139.147273 303.64 
L 157.432727 303.64 
L 157.432727 303.64 
L 139.147273 303.64 
z
" clip-path="url(#p3bc58298cf)" style="fill: #8c564b; opacity: 0.5"/>
   </g>
   <g id="patch_108">
    <path d="M 157.432727 303.64 
L 175.718182 303.64 
L 175.718182 303.592815 
L 157.432727 303.592815 
z
" clip-path="url(#p3bc58298cf)" style="fill: #8c564b; opacity: 0.5"/>
   </g>
   <g id="patch_109">
    <path d="M 175.718182 303.64 
L 194.003636 303.64 
L 194.003636 303.592815 
L 175.718182 303.592815 
z
" clip-path="url(#p3bc58298cf)" style="fill: #8c564b; opacity: 0.5"/>
   </g>
   <g id="patch_110">
    <path d="M 194.003636 303.64 
L 212.289091 303.64 
L 212.289091 303.545629 
L 194.003636 303.545629 
z
" clip-path="url(#p3bc58298cf)" style="fill: #8c564b; opacity: 0.5"/>
   </g>
   <g id="patch_111">
    <path d="M 212.289091 303.64 
L 230.574545 303.64 
L 230.574545 303.404073 
L 212.289091 303.404073 
z
" clip-path="url(#p3bc58298cf)" style="fill: #8c564b; opacity: 0.5"/>
   </g>
   <g id="patch_112">
    <path d="M 230.574545 303.64 
L 248.86 303.64 
L 248.86 303.451258 
L 230.574545 303.451258 
z
" clip-path="url(#p3bc58298cf)" style="fill: #8c564b; opacity: 0.5"/>
   </g>
   <g id="patch_113">
    <path d="M 248.86 303.64 
L 267.145455 303.64 
L 267.145455 303.498444 
L 248.86 303.498444 
z
" clip-path="url(#p3bc58298cf)" style="fill: #8c564b; opacity: 0.5"/>
   </g>
   <g id="patch_114">
    <path d="M 267.145455 303.64 
L 285.430909 303.64 
L 285.430909 303.215331 
L 267.145455 303.215331 
z
" clip-path="url(#p3bc58298cf)" style="fill: #8c564b; opacity: 0.5"/>
   </g>
   <g id="patch_115">
    <path d="M 285.430909 303.64 
L 303.716364 303.64 
L 303.716364 300.43139 
L 285.430909 300.43139 
z
" clip-path="url(#p3bc58298cf)" style="fill: #8c564b; opacity: 0.5"/>
   </g>
   <g id="patch_116">
    <path d="M 303.716364 303.64 
L 322.001818 303.64 
L 322.001818 299.157383 
L 303.716364 299.157383 
z
" clip-path="url(#p3bc58298cf)" style="fill: #8c564b; opacity: 0.5"/>
   </g>
   <g id="patch_117">
    <path d="M 322.001818 303.64 
L 340.287273 303.64 
L 340.287273 294.391653 
L 322.001818 294.391653 
z
" clip-path="url(#p3bc58298cf)" style="fill: #8c564b; opacity: 0.5"/>
   </g>
   <g id="patch_118">
    <path d="M 340.287273 303.64 
L 358.572727 303.64 
L 358.572727 281.934695 
L 340.287273 281.934695 
z
" clip-path="url(#p3bc58298cf)" style="fill: #8c564b; opacity: 0.5"/>
   </g>
   <g id="patch_119">
    <path d="M 358.572727 303.64 
L 376.858182 303.64 
L 376.858182 263.815484 
L 358.572727 263.815484 
z
" clip-path="url(#p3bc58298cf)" style="fill: #8c564b; opacity: 0.5"/>
   </g>
   <g id="patch_120">
    <path d="M 376.858182 303.64 
L 395.143636 303.64 
L 395.143636 224.462821 
L 376.858182 224.462821 
z
" clip-path="url(#p3bc58298cf)" style="fill: #8c564b; opacity: 0.5"/>
   </g>
   <g id="patch_121">
    <path d="M 395.143636 303.64 
L 413.429091 303.64 
L 413.429091 81.632476 
L 395.143636 81.632476 
z
" clip-path="url(#p3bc58298cf)" style="fill: #8c564b; opacity: 0.5"/>
   </g>
   <g id="patch_122">
    <path d="M 413.429091 303.64 
L 431.714545 303.64 
L 431.714545 236.211998 
L 413.429091 236.211998 
z
" clip-path="url(#p3bc58298cf)" style="fill: #8c564b; opacity: 0.5"/>
   </g>
   <g id="patch_123">
    <path d="M 66.005455 303.64 
L 84.290909 303.64 
L 84.290909 303.64 
L 66.005455 303.64 
z
" clip-path="url(#p3bc58298cf)" style="fill: #e377c2; opacity: 0.5"/>
   </g>
   <g id="patch_124">
    <path d="M 84.290909 303.64 
L 102.576364 303.64 
L 102.576364 303.64 
L 84.290909 303.64 
z
" clip-path="url(#p3bc58298cf)" style="fill: #e377c2; opacity: 0.5"/>
   </g>
   <g id="patch_125">
    <path d="M 102.576364 303.64 
L 120.861818 303.64 
L 120.861818 303.64 
L 102.576364 303.64 
z
" clip-path="url(#p3bc58298cf)" style="fill: #e377c2; opacity: 0.5"/>
   </g>
   <g id="patch_126">
    <path d="M 120.861818 303.64 
L 139.147273 303.64 
L 139.147273 303.64 
L 120.861818 303.64 
z
" clip-path="url(#p3bc58298cf)" style="fill: #e377c2; opacity: 0.5"/>
   </g>
   <g id="patch_127">
    <path d="M 139.147273 303.64 
L 157.432727 303.64 
L 157.432727 303.64 
L 139.147273 303.64 
z
" clip-path="url(#p3bc58298cf)" style="fill: #e377c2; opacity: 0.5"/>
   </g>
   <g id="patch_128">
    <path d="M 157.432727 303.64 
L 175.718182 303.64 
L 175.718182 303.64 
L 157.432727 303.64 
z
" clip-path="url(#p3bc58298cf)" style="fill: #e377c2; opacity: 0.5"/>
   </g>
   <g id="patch_129">
    <path d="M 175.718182 303.64 
L 194.003636 303.64 
L 194.003636 303.64 
L 175.718182 303.64 
z
" clip-path="url(#p3bc58298cf)" style="fill: #e377c2; opacity: 0.5"/>
   </g>
   <g id="patch_130">
    <path d="M 194.003636 303.64 
L 212.289091 303.64 
L 212.289091 303.64 
L 194.003636 303.64 
z
" clip-path="url(#p3bc58298cf)" style="fill: #e377c2; opacity: 0.5"/>
   </g>
   <g id="patch_131">
    <path d="M 212.289091 303.64 
L 230.574545 303.64 
L 230.574545 303.404073 
L 212.289091 303.404073 
z
" clip-path="url(#p3bc58298cf)" style="fill: #e377c2; opacity: 0.5"/>
   </g>
   <g id="patch_132">
    <path d="M 230.574545 303.64 
L 248.86 303.64 
L 248.86 303.12096 
L 230.574545 303.12096 
z
" clip-path="url(#p3bc58298cf)" style="fill: #e377c2; opacity: 0.5"/>
   </g>
   <g id="patch_133">
    <path d="M 248.86 303.64 
L 267.145455 303.64 
L 267.145455 302.837847 
L 248.86 302.837847 
z
" clip-path="url(#p3bc58298cf)" style="fill: #e377c2; opacity: 0.5"/>
   </g>
   <g id="patch_134">
    <path d="M 267.145455 303.64 
L 285.430909 303.64 
L 285.430909 301.988509 
L 267.145455 301.988509 
z
" clip-path="url(#p3bc58298cf)" style="fill: #e377c2; opacity: 0.5"/>
   </g>
   <g id="patch_135">
    <path d="M 285.430909 303.64 
L 303.716364 303.64 
L 303.716364 301.469469 
L 285.430909 301.469469 
z
" clip-path="url(#p3bc58298cf)" style="fill: #e377c2; opacity: 0.5"/>
   </g>
   <g id="patch_136">
    <path d="M 303.716364 303.64 
L 322.001818 303.64 
L 322.001818 297.977746 
L 303.716364 297.977746 
z
" clip-path="url(#p3bc58298cf)" style="fill: #e377c2; opacity: 0.5"/>
   </g>
   <g id="patch_137">
    <path d="M 322.001818 303.64 
L 340.287273 303.64 
L 340.287273 292.173937 
L 322.001818 292.173937 
z
" clip-path="url(#p3bc58298cf)" style="fill: #e377c2; opacity: 0.5"/>
   </g>
   <g id="patch_138">
    <path d="M 340.287273 303.64 
L 358.572727 303.64 
L 358.572727 282.217807 
L 340.287273 282.217807 
z
" clip-path="url(#p3bc58298cf)" style="fill: #e377c2; opacity: 0.5"/>
   </g>
   <g id="patch_139">
    <path d="M 358.572727 303.64 
L 376.858182 303.64 
L 376.858182 257.351077 
L 358.572727 257.351077 
z
" clip-path="url(#p3bc58298cf)" style="fill: #e377c2; opacity: 0.5"/>
   </g>
   <g id="patch_140">
    <path d="M 376.858182 303.64 
L 395.143636 303.64 
L 395.143636 221.207026 
L 376.858182 221.207026 
z
" clip-path="url(#p3bc58298cf)" style="fill: #e377c2; opacity: 0.5"/>
   </g>
   <g id="patch_141">
    <path d="M 395.143636 303.64 
L 413.429091 303.64 
L 413.429091 79.037277 
L 395.143636 79.037277 
z
" clip-path="url(#p3bc58298cf)" style="fill: #e377c2; opacity: 0.5"/>
   </g>
   <g id="patch_142">
    <path d="M 413.429091 303.64 
L 431.714545 303.64 
L 431.714545 252.632533 
L 413.429091 252.632533 
z
" clip-path="url(#p3bc58298cf)" style="fill: #e377c2; opacity: 0.5"/>
   </g>
   <g id="patch_143">
    <path d="M 66.005455 303.64 
L 84.290909 303.64 
L 84.290909 303.545599 
L 66.005455 303.545599 
z
" clip-path="url(#p3bc58298cf)" style="fill: #7f7f7f; opacity: 0.5"/>
   </g>
   <g id="patch_144">
    <path d="M 84.290909 303.64 
L 102.576364 303.64 
L 102.576364 303.451199 
L 84.290909 303.451199 
z
" clip-path="url(#p3bc58298cf)" style="fill: #7f7f7f; opacity: 0.5"/>
   </g>
   <g id="patch_145">
    <path d="M 102.576364 303.64 
L 120.861818 303.64 
L 120.861818 303.451199 
L 102.576364 303.451199 
z
" clip-path="url(#p3bc58298cf)" style="fill: #7f7f7f; opacity: 0.5"/>
   </g>
   <g id="patch_146">
    <path d="M 120.861818 303.64 
L 139.147273 303.64 
L 139.147273 303.403998 
L 120.861818 303.403998 
z
" clip-path="url(#p3bc58298cf)" style="fill: #7f7f7f; opacity: 0.5"/>
   </g>
   <g id="patch_147">
    <path d="M 139.147273 303.64 
L 157.432727 303.64 
L 157.432727 303.309598 
L 139.147273 303.309598 
z
" clip-path="url(#p3bc58298cf)" style="fill: #7f7f7f; opacity: 0.5"/>
   </g>
   <g id="patch_148">
    <path d="M 157.432727 303.64 
L 175.718182 303.64 
L 175.718182 303.545599 
L 157.432727 303.545599 
z
" clip-path="url(#p3bc58298cf)" style="fill: #7f7f7f; opacity: 0.5"/>
   </g>
   <g id="patch_149">
    <path d="M 175.718182 303.64 
L 194.003636 303.64 
L 194.003636 303.451199 
L 175.718182 303.451199 
z
" clip-path="url(#p3bc58298cf)" style="fill: #7f7f7f; opacity: 0.5"/>
   </g>
   <g id="patch_150">
    <path d="M 194.003636 303.64 
L 212.289091 303.64 
L 212.289091 303.356798 
L 194.003636 303.356798 
z
" clip-path="url(#p3bc58298cf)" style="fill: #7f7f7f; opacity: 0.5"/>
   </g>
   <g id="patch_151">
    <path d="M 212.289091 303.64 
L 230.574545 303.64 
L 230.574545 303.073596 
L 212.289091 303.073596 
z
" clip-path="url(#p3bc58298cf)" style="fill: #7f7f7f; opacity: 0.5"/>
   </g>
   <g id="patch_152">
    <path d="M 230.574545 303.64 
L 248.86 303.64 
L 248.86 301.940787 
L 230.574545 301.940787 
z
" clip-path="url(#p3bc58298cf)" style="fill: #7f7f7f; opacity: 0.5"/>
   </g>
   <g id="patch_153">
    <path d="M 248.86 303.64 
L 267.145455 303.64 
L 267.145455 301.232782 
L 248.86 301.232782 
z
" clip-path="url(#p3bc58298cf)" style="fill: #7f7f7f; opacity: 0.5"/>
   </g>
   <g id="patch_154">
    <path d="M 267.145455 303.64 
L 285.430909 303.64 
L 285.430909 299.722371 
L 267.145455 299.722371 
z
" clip-path="url(#p3bc58298cf)" style="fill: #7f7f7f; opacity: 0.5"/>
   </g>
   <g id="patch_155">
    <path d="M 285.430909 303.64 
L 303.716364 303.64 
L 303.716364 298.353561 
L 285.430909 298.353561 
z
" clip-path="url(#p3bc58298cf)" style="fill: #7f7f7f; opacity: 0.5"/>
   </g>
   <g id="patch_156">
    <path d="M 303.716364 303.64 
L 322.001818 303.64 
L 322.001818 292.92552 
L 303.716364 292.92552 
z
" clip-path="url(#p3bc58298cf)" style="fill: #7f7f7f; opacity: 0.5"/>
   </g>
   <g id="patch_157">
    <path d="M 322.001818 303.64 
L 340.287273 303.64 
L 340.287273 282.352641 
L 322.001818 282.352641 
z
" clip-path="url(#p3bc58298cf)" style="fill: #7f7f7f; opacity: 0.5"/>
   </g>
   <g id="patch_158">
    <path d="M 340.287273 303.64 
L 358.572727 303.64 
L 358.572727 271.166158 
L 340.287273 271.166158 
z
" clip-path="url(#p3bc58298cf)" style="fill: #7f7f7f; opacity: 0.5"/>
   </g>
   <g id="patch_159">
    <path d="M 358.572727 303.64 
L 376.858182 303.64 
L 376.858182 251.719613 
L 358.572727 251.719613 
z
" clip-path="url(#p3bc58298cf)" style="fill: #7f7f7f; opacity: 0.5"/>
   </g>
   <g id="patch_160">
    <path d="M 376.858182 303.64 
L 395.143636 303.64 
L 395.143636 206.97368 
L 376.858182 206.97368 
z
" clip-path="url(#p3bc58298cf)" style="fill: #7f7f7f; opacity: 0.5"/>
   </g>
   <g id="patch_161">
    <path d="M 395.143636 303.64 
L 413.429091 303.64 
L 413.429091 131.122715 
L 395.143636 131.122715 
z
" clip-path="url(#p3bc58298cf)" style="fill: #7f7f7f; opacity: 0.5"/>
   </g>
   <g id="patch_162">
    <path d="M 413.429091 303.64 
L 431.714545 303.64 
L 431.714545 256.439649 
L 413.429091 256.439649 
z
" clip-path="url(#p3bc58298cf)" style="fill: #7f7f7f; opacity: 0.5"/>
   </g>
   <g id="patch_163">
    <path d="M 66.005455 303.64 
L 84.290909 303.64 
L 84.290909 303.64 
L 66.005455 303.64 
z
" clip-path="url(#p3bc58298cf)" style="fill: #bcbd22; opacity: 0.5"/>
   </g>
   <g id="patch_164">
    <path d="M 84.290909 303.64 
L 102.576364 303.64 
L 102.576364 303.64 
L 84.290909 303.64 
z
" clip-path="url(#p3bc58298cf)" style="fill: #bcbd22; opacity: 0.5"/>
   </g>
   <g id="patch_165">
    <path d="M 102.576364 303.64 
L 120.861818 303.64 
L 120.861818 303.64 
L 102.576364 303.64 
z
" clip-path="url(#p3bc58298cf)" style="fill: #bcbd22; opacity: 0.5"/>
   </g>
   <g id="patch_166">
    <path d="M 120.861818 303.64 
L 139.147273 303.64 
L 139.147273 303.64 
L 120.861818 303.64 
z
" clip-path="url(#p3bc58298cf)" style="fill: #bcbd22; opacity: 0.5"/>
   </g>
   <g id="patch_167">
    <path d="M 139.147273 303.64 
L 157.432727 303.64 
L 157.432727 303.545629 
L 139.147273 303.545629 
z
" clip-path="url(#p3bc58298cf)" style="fill: #bcbd22; opacity: 0.5"/>
   </g>
   <g id="patch_168">
    <path d="M 157.432727 303.64 
L 175.718182 303.64 
L 175.718182 303.451258 
L 157.432727 303.451258 
z
" clip-path="url(#p3bc58298cf)" style="fill: #bcbd22; opacity: 0.5"/>
   </g>
   <g id="patch_169">
    <path d="M 175.718182 303.64 
L 194.003636 303.64 
L 194.003636 303.215331 
L 175.718182 303.215331 
z
" clip-path="url(#p3bc58298cf)" style="fill: #bcbd22; opacity: 0.5"/>
   </g>
   <g id="patch_170">
    <path d="M 194.003636 303.64 
L 212.289091 303.64 
L 212.289091 302.979404 
L 194.003636 302.979404 
z
" clip-path="url(#p3bc58298cf)" style="fill: #bcbd22; opacity: 0.5"/>
   </g>
   <g id="patch_171">
    <path d="M 212.289091 303.64 
L 230.574545 303.64 
L 230.574545 302.507549 
L 212.289091 302.507549 
z
" clip-path="url(#p3bc58298cf)" style="fill: #bcbd22; opacity: 0.5"/>
   </g>
   <g id="patch_172">
    <path d="M 230.574545 303.64 
L 248.86 303.64 
L 248.86 301.799768 
L 230.574545 301.799768 
z
" clip-path="url(#p3bc58298cf)" style="fill: #bcbd22; opacity: 0.5"/>
   </g>
   <g id="patch_173">
    <path d="M 248.86 303.64 
L 267.145455 303.64 
L 267.145455 299.91235 
L 248.86 299.91235 
z
" clip-path="url(#p3bc58298cf)" style="fill: #bcbd22; opacity: 0.5"/>
   </g>
   <g id="patch_174">
    <path d="M 267.145455 303.64 
L 285.430909 303.64 
L 285.430909 296.420627 
L 267.145455 296.420627 
z
" clip-path="url(#p3bc58298cf)" style="fill: #bcbd22; opacity: 0.5"/>
   </g>
   <g id="patch_175">
    <path d="M 285.430909 303.64 
L 303.716364 303.64 
L 303.716364 293.447944 
L 285.430909 293.447944 
z
" clip-path="url(#p3bc58298cf)" style="fill: #bcbd22; opacity: 0.5"/>
   </g>
   <g id="patch_176">
    <path d="M 303.716364 303.64 
L 322.001818 303.64 
L 322.001818 290.428075 
L 303.716364 290.428075 
z
" clip-path="url(#p3bc58298cf)" style="fill: #bcbd22; opacity: 0.5"/>
   </g>
   <g id="patch_177">
    <path d="M 322.001818 303.64 
L 340.287273 303.64 
L 340.287273 282.453735 
L 322.001818 282.453735 
z
" clip-path="url(#p3bc58298cf)" style="fill: #bcbd22; opacity: 0.5"/>
   </g>
   <g id="patch_178">
    <path d="M 340.287273 303.64 
L 358.572727 303.64 
L 358.572727 267.68469 
L 340.287273 267.68469 
z
" clip-path="url(#p3bc58298cf)" style="fill: #bcbd22; opacity: 0.5"/>
   </g>
   <g id="patch_179">
    <path d="M 358.572727 303.64 
L 376.858182 303.64 
L 376.858182 252.34942 
L 358.572727 252.34942 
z
" clip-path="url(#p3bc58298cf)" style="fill: #bcbd22; opacity: 0.5"/>
   </g>
   <g id="patch_180">
    <path d="M 376.858182 303.64 
L 395.143636 303.64 
L 395.143636 210.307188 
L 376.858182 210.307188 
z
" clip-path="url(#p3bc58298cf)" style="fill: #bcbd22; opacity: 0.5"/>
   </g>
   <g id="patch_181">
    <path d="M 395.143636 303.64 
L 413.429091 303.64 
L 413.429091 132.592758 
L 395.143636 132.592758 
z
" clip-path="url(#p3bc58298cf)" style="fill: #bcbd22; opacity: 0.5"/>
   </g>
   <g id="patch_182">
    <path d="M 413.429091 303.64 
L 431.714545 303.64 
L 431.714545 266.882538 
L 413.429091 266.882538 
z
" clip-path="url(#p3bc58298cf)" style="fill: #bcbd22; opacity: 0.5"/>
   </g>
   <g id="patch_183">
    <path d="M 66.005455 303.64 
L 84.290909 303.64 
L 84.290909 303.64 
L 66.005455 303.64 
z
" clip-path="url(#p3bc58298cf)" style="fill: #17becf; opacity: 0.5"/>
   </g>
   <g id="patch_184">
    <path d="M 84.290909 303.64 
L 102.576364 303.64 
L 102.576364 303.64 
L 84.290909 303.64 
z
" clip-path="url(#p3bc58298cf)" style="fill: #17becf; opacity: 0.5"/>
   </g>
   <g id="patch_185">
    <path d="M 102.576364 303.64 
L 120.861818 303.64 
L 120.861818 303.404073 
L 102.576364 303.404073 
z
" clip-path="url(#p3bc58298cf)" style="fill: #17becf; opacity: 0.5"/>
   </g>
   <g id="patch_186">
    <path d="M 120.861818 303.64 
L 139.147273 303.64 
L 139.147273 303.215331 
L 120.861818 303.215331 
z
" clip-path="url(#p3bc58298cf)" style="fill: #17becf; opacity: 0.5"/>
   </g>
   <g id="patch_187">
    <path d="M 139.147273 303.64 
L 157.432727 303.64 
L 157.432727 303.309702 
L 139.147273 303.309702 
z
" clip-path="url(#p3bc58298cf)" style="fill: #17becf; opacity: 0.5"/>
   </g>
   <g id="patch_188">
    <path d="M 157.432727 303.64 
L 175.718182 303.64 
L 175.718182 303.12096 
L 157.432727 303.12096 
z
" clip-path="url(#p3bc58298cf)" style="fill: #17becf; opacity: 0.5"/>
   </g>
   <g id="patch_189">
    <path d="M 175.718182 303.64 
L 194.003636 303.64 
L 194.003636 302.413178 
L 175.718182 302.413178 
z
" clip-path="url(#p3bc58298cf)" style="fill: #17becf; opacity: 0.5"/>
   </g>
   <g id="patch_190">
    <path d="M 194.003636 303.64 
L 212.289091 303.64 
L 212.289091 302.271622 
L 194.003636 302.271622 
z
" clip-path="url(#p3bc58298cf)" style="fill: #17becf; opacity: 0.5"/>
   </g>
   <g id="patch_191">
    <path d="M 212.289091 303.64 
L 230.574545 303.64 
L 230.574545 300.761688 
L 212.289091 300.761688 
z
" clip-path="url(#p3bc58298cf)" style="fill: #17becf; opacity: 0.5"/>
   </g>
   <g id="patch_192">
    <path d="M 230.574545 303.64 
L 248.86 303.64 
L 248.86 300.289833 
L 230.574545 300.289833 
z
" clip-path="url(#p3bc58298cf)" style="fill: #17becf; opacity: 0.5"/>
   </g>
   <g id="patch_193">
    <path d="M 248.86 303.64 
L 267.145455 303.64 
L 267.145455 296.986852 
L 248.86 296.986852 
z
" clip-path="url(#p3bc58298cf)" style="fill: #17becf; opacity: 0.5"/>
   </g>
   <g id="patch_194">
    <path d="M 267.145455 303.64 
L 285.430909 303.64 
L 285.430909 293.306387 
L 267.145455 293.306387 
z
" clip-path="url(#p3bc58298cf)" style="fill: #17becf; opacity: 0.5"/>
   </g>
   <g id="patch_195">
    <path d="M 285.430909 303.64 
L 303.716364 303.64 
L 303.716364 288.446286 
L 285.430909 288.446286 
z
" clip-path="url(#p3bc58298cf)" style="fill: #17becf; opacity: 0.5"/>
   </g>
   <g id="patch_196">
    <path d="M 303.716364 303.64 
L 322.001818 303.64 
L 322.001818 283.350258 
L 303.716364 283.350258 
z
" clip-path="url(#p3bc58298cf)" style="fill: #17becf; opacity: 0.5"/>
   </g>
   <g id="patch_197">
    <path d="M 322.001818 303.64 
L 340.287273 303.64 
L 340.287273 276.413998 
L 322.001818 276.413998 
z
" clip-path="url(#p3bc58298cf)" style="fill: #17becf; opacity: 0.5"/>
   </g>
   <g id="patch_198">
    <path d="M 340.287273 303.64 
L 358.572727 303.64 
L 358.572727 262.022437 
L 340.287273 262.022437 
z
" clip-path="url(#p3bc58298cf)" style="fill: #17becf; opacity: 0.5"/>
   </g>
   <g id="patch_199">
    <path d="M 358.572727 303.64 
L 376.858182 303.64 
L 376.858182 246.356868 
L 358.572727 246.356868 
z
" clip-path="url(#p3bc58298cf)" style="fill: #17becf; opacity: 0.5"/>
   </g>
   <g id="patch_200">
    <path d="M 376.858182 303.64 
L 395.143636 303.64 
L 395.143636 233.569613 
L 376.858182 233.569613 
z
" clip-path="url(#p3bc58298cf)" style="fill: #17becf; opacity: 0.5"/>
   </g>
   <g id="patch_201">
    <path d="M 395.143636 303.64 
L 413.429091 303.64 
L 413.429091 144.011636 
L 395.143636 144.011636 
z
" clip-path="url(#p3bc58298cf)" style="fill: #17becf; opacity: 0.5"/>
   </g>
   <g id="patch_202">
    <path d="M 413.429091 303.64 
L 431.714545 303.64 
L 431.714545 274.00754 
L 413.429091 274.00754 
z
" clip-path="url(#p3bc58298cf)" style="fill: #17becf; opacity: 0.5"/>
   </g>
   <g id="matplotlib.axis_1">
    <g id="xtick_1">
     <g id="line2d_1">
      <defs>
       <path id="md697e5e62e" d="M 0 0 
L 0 3.5 
" style="stroke: #000000; stroke-width: 0.8"/>
      </defs>
      <g>
       <use xlink:href="#md697e5e62e" x="56.862727" y="303.64" style="stroke: #000000; stroke-width: 0.8"/>
      </g>
     </g>
     <g id="text_1">
      <!-- −20.0 -->
      <g transform="translate(41.540071 318.238437) scale(0.1 -0.1)">
       <defs>
        <path id="DejaVuSans-2212" d="M 678 2272 
L 4684 2272 
L 4684 1741 
L 678 1741 
L 678 2272 
z
" transform="scale(0.015625)"/>
        <path id="DejaVuSans-32" d="M 1228 531 
L 3431 531 
L 3431 0 
L 469 0 
L 469 531 
Q 828 903 1448 1529 
Q 2069 2156 2228 2338 
Q 2531 2678 2651 2914 
Q 2772 3150 2772 3378 
Q 2772 3750 2511 3984 
Q 2250 4219 1831 4219 
Q 1534 4219 1204 4116 
Q 875 4013 500 3803 
L 500 4441 
Q 881 4594 1212 4672 
Q 1544 4750 1819 4750 
Q 2544 4750 2975 4387 
Q 3406 4025 3406 3419 
Q 3406 3131 3298 2873 
Q 3191 2616 2906 2266 
Q 2828 2175 2409 1742 
Q 1991 1309 1228 531 
z
" transform="scale(0.015625)"/>
        <path id="DejaVuSans-30" d="M 2034 4250 
Q 1547 4250 1301 3770 
Q 1056 3291 1056 2328 
Q 1056 1369 1301 889 
Q 1547 409 2034 409 
Q 2525 409 2770 889 
Q 3016 1369 3016 2328 
Q 3016 3291 2770 3770 
Q 2525 4250 2034 4250 
z
M 2034 4750 
Q 2819 4750 3233 4129 
Q 3647 3509 3647 2328 
Q 3647 1150 3233 529 
Q 2819 -91 2034 -91 
Q 1250 -91 836 529 
Q 422 1150 422 2328 
Q 422 3509 836 4129 
Q 1250 4750 2034 4750 
z
" transform="scale(0.015625)"/>
        <path id="DejaVuSans-2e" d="M 684 794 
L 1344 794 
L 1344 0 
L 684 0 
L 684 794 
z
" transform="scale(0.015625)"/>
       </defs>
       <use xlink:href="#DejaVuSans-2212"/>
       <use xlink:href="#DejaVuSans-32" transform="translate(83.789062 0)"/>
       <use xlink:href="#DejaVuSans-30" transform="translate(147.412109 0)"/>
       <use xlink:href="#DejaVuSans-2e" transform="translate(211.035156 0)"/>
       <use xlink:href="#DejaVuSans-30" transform="translate(242.822266 0)"/>
      </g>
     </g>
    </g>
    <g id="xtick_2">
     <g id="line2d_2">
      <g>
       <use xlink:href="#md697e5e62e" x="102.576364" y="303.64" style="stroke: #000000; stroke-width: 0.8"/>
      </g>
     </g>
     <g id="text_2">
      <!-- −17.5 -->
      <g transform="translate(87.253707 318.238437) scale(0.1 -0.1)">
       <defs>
        <path id="DejaVuSans-31" d="M 794 531 
L 1825 531 
L 1825 4091 
L 703 3866 
L 703 4441 
L 1819 4666 
L 2450 4666 
L 2450 531 
L 3481 531 
L 3481 0 
L 794 0 
L 794 531 
z
" transform="scale(0.015625)"/>
        <path id="DejaVuSans-37" d="M 525 4666 
L 3525 4666 
L 3525 4397 
L 1831 0 
L 1172 0 
L 2766 4134 
L 525 4134 
L 525 4666 
z
" transform="scale(0.015625)"/>
        <path id="DejaVuSans-35" d="M 691 4666 
L 3169 4666 
L 3169 4134 
L 1269 4134 
L 1269 2991 
Q 1406 3038 1543 3061 
Q 1681 3084 1819 3084 
Q 2600 3084 3056 2656 
Q 3513 2228 3513 1497 
Q 3513 744 3044 326 
Q 2575 -91 1722 -91 
Q 1428 -91 1123 -41 
Q 819 9 494 109 
L 494 744 
Q 775 591 1075 516 
Q 1375 441 1709 441 
Q 2250 441 2565 725 
Q 2881 1009 2881 1497 
Q 2881 1984 2565 2268 
Q 2250 2553 1709 2553 
Q 1456 2553 1204 2497 
Q 953 2441 691 2322 
L 691 4666 
z
" transform="scale(0.015625)"/>
       </defs>
       <use xlink:href="#DejaVuSans-2212"/>
       <use xlink:href="#DejaVuSans-31" transform="translate(83.789062 0)"/>
       <use xlink:href="#DejaVuSans-37" transform="translate(147.412109 0)"/>
       <use xlink:href="#DejaVuSans-2e" transform="translate(211.035156 0)"/>
       <use xlink:href="#DejaVuSans-35" transform="translate(242.822266 0)"/>
      </g>
     </g>
    </g>
    <g id="xtick_3">
     <g id="line2d_3">
      <g>
       <use xlink:href="#md697e5e62e" x="148.29" y="303.64" style="stroke: #000000; stroke-width: 0.8"/>
      </g>
     </g>
     <g id="text_3">
      <!-- −15.0 -->
      <g transform="translate(132.967344 318.238437) scale(0.1 -0.1)">
       <use xlink:href="#DejaVuSans-2212"/>
       <use xlink:href="#DejaVuSans-31" transform="translate(83.789062 0)"/>
       <use xlink:href="#DejaVuSans-35" transform="translate(147.412109 0)"/>
       <use xlink:href="#DejaVuSans-2e" transform="translate(211.035156 0)"/>
       <use xlink:href="#DejaVuSans-30" transform="translate(242.822266 0)"/>
      </g>
     </g>
    </g>
    <g id="xtick_4">
     <g id="line2d_4">
      <g>
       <use xlink:href="#md697e5e62e" x="194.003636" y="303.64" style="stroke: #000000; stroke-width: 0.8"/>
      </g>
     </g>
     <g id="text_4">
      <!-- −12.5 -->
      <g transform="translate(178.68098 318.238437) scale(0.1 -0.1)">
       <use xlink:href="#DejaVuSans-2212"/>
       <use xlink:href="#DejaVuSans-31" transform="translate(83.789062 0)"/>
       <use xlink:href="#DejaVuSans-32" transform="translate(147.412109 0)"/>
       <use xlink:href="#DejaVuSans-2e" transform="translate(211.035156 0)"/>
       <use xlink:href="#DejaVuSans-35" transform="translate(242.822266 0)"/>
      </g>
     </g>
    </g>
    <g id="xtick_5">
     <g id="line2d_5">
      <g>
       <use xlink:href="#md697e5e62e" x="239.717273" y="303.64" style="stroke: #000000; stroke-width: 0.8"/>
      </g>
     </g>
     <g id="text_5">
      <!-- −10.0 -->
      <g transform="translate(224.394616 318.238437) scale(0.1 -0.1)">
       <use xlink:href="#DejaVuSans-2212"/>
       <use xlink:href="#DejaVuSans-31" transform="translate(83.789062 0)"/>
       <use xlink:href="#DejaVuSans-30" transform="translate(147.412109 0)"/>
       <use xlink:href="#DejaVuSans-2e" transform="translate(211.035156 0)"/>
       <use xlink:href="#DejaVuSans-30" transform="translate(242.822266 0)"/>
      </g>
     </g>
    </g>
    <g id="xtick_6">
     <g id="line2d_6">
      <g>
       <use xlink:href="#md697e5e62e" x="285.430909" y="303.64" style="stroke: #000000; stroke-width: 0.8"/>
      </g>
     </g>
     <g id="text_6">
      <!-- −7.5 -->
      <g transform="translate(273.289503 318.238437) scale(0.1 -0.1)">
       <use xlink:href="#DejaVuSans-2212"/>
       <use xlink:href="#DejaVuSans-37" transform="translate(83.789062 0)"/>
       <use xlink:href="#DejaVuSans-2e" transform="translate(147.412109 0)"/>
       <use xlink:href="#DejaVuSans-35" transform="translate(179.199219 0)"/>
      </g>
     </g>
    </g>
    <g id="xtick_7">
     <g id="line2d_7">
      <g>
       <use xlink:href="#md697e5e62e" x="331.144545" y="303.64" style="stroke: #000000; stroke-width: 0.8"/>
      </g>
     </g>
     <g id="text_7">
      <!-- −5.0 -->
      <g transform="translate(319.003139 318.238437) scale(0.1 -0.1)">
       <use xlink:href="#DejaVuSans-2212"/>
       <use xlink:href="#DejaVuSans-35" transform="translate(83.789062 0)"/>
       <use xlink:href="#DejaVuSans-2e" transform="translate(147.412109 0)"/>
       <use xlink:href="#DejaVuSans-30" transform="translate(179.199219 0)"/>
      </g>
     </g>
    </g>
    <g id="xtick_8">
     <g id="line2d_8">
      <g>
       <use xlink:href="#md697e5e62e" x="376.858182" y="303.64" style="stroke: #000000; stroke-width: 0.8"/>
      </g>
     </g>
     <g id="text_8">
      <!-- −2.5 -->
      <g transform="translate(364.716776 318.238437) scale(0.1 -0.1)">
       <use xlink:href="#DejaVuSans-2212"/>
       <use xlink:href="#DejaVuSans-32" transform="translate(83.789062 0)"/>
       <use xlink:href="#DejaVuSans-2e" transform="translate(147.412109 0)"/>
       <use xlink:href="#DejaVuSans-35" transform="translate(179.199219 0)"/>
      </g>
     </g>
    </g>
    <g id="xtick_9">
     <g id="line2d_9">
      <g>
       <use xlink:href="#md697e5e62e" x="422.571818" y="303.64" style="stroke: #000000; stroke-width: 0.8"/>
      </g>
     </g>
     <g id="text_9">
      <!-- 0.0 -->
      <g transform="translate(414.620256 318.238437) scale(0.1 -0.1)">
       <use xlink:href="#DejaVuSans-30"/>
       <use xlink:href="#DejaVuSans-2e" transform="translate(63.623047 0)"/>
       <use xlink:href="#DejaVuSans-30" transform="translate(95.410156 0)"/>
      </g>
     </g>
    </g>
    <g id="text_10">
     <!-- Energy -->
     <g transform="translate(231.35375 331.916562) scale(0.1 -0.1)">
      <defs>
       <path id="DejaVuSans-45" d="M 628 4666 
L 3578 4666 
L 3578 4134 
L 1259 4134 
L 1259 2753 
L 3481 2753 
L 3481 2222 
L 1259 2222 
L 1259 531 
L 3634 531 
L 3634 0 
L 628 0 
L 628 4666 
z
" transform="scale(0.015625)"/>
       <path id="DejaVuSans-6e" d="M 3513 2113 
L 3513 0 
L 2938 0 
L 2938 2094 
Q 2938 2591 2744 2837 
Q 2550 3084 2163 3084 
Q 1697 3084 1428 2787 
Q 1159 2491 1159 1978 
L 1159 0 
L 581 0 
L 581 3500 
L 1159 3500 
L 1159 2956 
Q 1366 3272 1645 3428 
Q 1925 3584 2291 3584 
Q 2894 3584 3203 3211 
Q 3513 2838 3513 2113 
z
" transform="scale(0.015625)"/>
       <path id="DejaVuSans-65" d="M 3597 1894 
L 3597 1613 
L 953 1613 
Q 991 1019 1311 708 
Q 1631 397 2203 397 
Q 2534 397 2845 478 
Q 3156 559 3463 722 
L 3463 178 
Q 3153 47 2828 -22 
Q 2503 -91 2169 -91 
Q 1331 -91 842 396 
Q 353 884 353 1716 
Q 353 2575 817 3079 
Q 1281 3584 2069 3584 
Q 2775 3584 3186 3129 
Q 3597 2675 3597 1894 
z
M 3022 2063 
Q 3016 2534 2758 2815 
Q 2500 3097 2075 3097 
Q 1594 3097 1305 2825 
Q 1016 2553 972 2059 
L 3022 2063 
z
" transform="scale(0.015625)"/>
       <path id="DejaVuSans-72" d="M 2631 2963 
Q 2534 3019 2420 3045 
Q 2306 3072 2169 3072 
Q 1681 3072 1420 2755 
Q 1159 2438 1159 1844 
L 1159 0 
L 581 0 
L 581 3500 
L 1159 3500 
L 1159 2956 
Q 1341 3275 1631 3429 
Q 1922 3584 2338 3584 
Q 2397 3584 2469 3576 
Q 2541 3569 2628 3553 
L 2631 2963 
z
" transform="scale(0.015625)"/>
       <path id="DejaVuSans-67" d="M 2906 1791 
Q 2906 2416 2648 2759 
Q 2391 3103 1925 3103 
Q 1463 3103 1205 2759 
Q 947 2416 947 1791 
Q 947 1169 1205 825 
Q 1463 481 1925 481 
Q 2391 481 2648 825 
Q 2906 1169 2906 1791 
z
M 3481 434 
Q 3481 -459 3084 -895 
Q 2688 -1331 1869 -1331 
Q 1566 -1331 1297 -1286 
Q 1028 -1241 775 -1147 
L 775 -588 
Q 1028 -725 1275 -790 
Q 1522 -856 1778 -856 
Q 2344 -856 2625 -561 
Q 2906 -266 2906 331 
L 2906 616 
Q 2728 306 2450 153 
Q 2172 0 1784 0 
Q 1141 0 747 490 
Q 353 981 353 1791 
Q 353 2603 747 3093 
Q 1141 3584 1784 3584 
Q 2172 3584 2450 3431 
Q 2728 3278 2906 2969 
L 2906 3500 
L 3481 3500 
L 3481 434 
z
" transform="scale(0.015625)"/>
       <path id="DejaVuSans-79" d="M 2059 -325 
Q 1816 -950 1584 -1140 
Q 1353 -1331 966 -1331 
L 506 -1331 
L 506 -850 
L 844 -850 
Q 1081 -850 1212 -737 
Q 1344 -625 1503 -206 
L 1606 56 
L 191 3500 
L 800 3500 
L 1894 763 
L 2988 3500 
L 3597 3500 
L 2059 -325 
z
" transform="scale(0.015625)"/>
      </defs>
      <use xlink:href="#DejaVuSans-45"/>
      <use xlink:href="#DejaVuSans-6e" transform="translate(63.183594 0)"/>
      <use xlink:href="#DejaVuSans-65" transform="translate(126.5625 0)"/>
      <use xlink:href="#DejaVuSans-72" transform="translate(188.085938 0)"/>
      <use xlink:href="#DejaVuSans-67" transform="translate(227.449219 0)"/>
      <use xlink:href="#DejaVuSans-79" transform="translate(290.925781 0)"/>
     </g>
    </g>
   </g>
   <g id="matplotlib.axis_2">
    <g id="ytick_1">
     <g id="line2d_10">
      <defs>
       <path id="maa6eeb7a6b" d="M 0 0 
L -3.5 0 
" style="stroke: #000000; stroke-width: 0.8"/>
      </defs>
      <g>
       <use xlink:href="#maa6eeb7a6b" x="47.72" y="303.64" style="stroke: #000000; stroke-width: 0.8"/>
      </g>
     </g>
     <g id="text_11">
      <!-- 0.0 -->
      <g transform="translate(24.816875 307.439219) scale(0.1 -0.1)">
       <use xlink:href="#DejaVuSans-30"/>
       <use xlink:href="#DejaVuSans-2e" transform="translate(63.623047 0)"/>
       <use xlink:href="#DejaVuSans-30" transform="translate(95.410156 0)"/>
      </g>
     </g>
    </g>
    <g id="ytick_2">
     <g id="line2d_11">
      <g>
       <use xlink:href="#maa6eeb7a6b" x="47.72" y="258.813826" style="stroke: #000000; stroke-width: 0.8"/>
      </g>
     </g>
     <g id="text_12">
      <!-- 0.1 -->
      <g transform="translate(24.816875 262.613045) scale(0.1 -0.1)">
       <use xlink:href="#DejaVuSans-30"/>
       <use xlink:href="#DejaVuSans-2e" transform="translate(63.623047 0)"/>
       <use xlink:href="#DejaVuSans-31" transform="translate(95.410156 0)"/>
      </g>
     </g>
    </g>
    <g id="ytick_3">
     <g id="line2d_12">
      <g>
       <use xlink:href="#maa6eeb7a6b" x="47.72" y="213.987652" style="stroke: #000000; stroke-width: 0.8"/>
      </g>
     </g>
     <g id="text_13">
      <!-- 0.2 -->
      <g transform="translate(24.816875 217.786871) scale(0.1 -0.1)">
       <use xlink:href="#DejaVuSans-30"/>
       <use xlink:href="#DejaVuSans-2e" transform="translate(63.623047 0)"/>
       <use xlink:href="#DejaVuSans-32" transform="translate(95.410156 0)"/>
      </g>
     </g>
    </g>
    <g id="ytick_4">
     <g id="line2d_13">
      <g>
       <use xlink:href="#maa6eeb7a6b" x="47.72" y="169.161479" style="stroke: #000000; stroke-width: 0.8"/>
      </g>
     </g>
     <g id="text_14">
      <!-- 0.3 -->
      <g transform="translate(24.816875 172.960697) scale(0.1 -0.1)">
       <defs>
        <path id="DejaVuSans-33" d="M 2597 2516 
Q 3050 2419 3304 2112 
Q 3559 1806 3559 1356 
Q 3559 666 3084 287 
Q 2609 -91 1734 -91 
Q 1441 -91 1130 -33 
Q 819 25 488 141 
L 488 750 
Q 750 597 1062 519 
Q 1375 441 1716 441 
Q 2309 441 2620 675 
Q 2931 909 2931 1356 
Q 2931 1769 2642 2001 
Q 2353 2234 1838 2234 
L 1294 2234 
L 1294 2753 
L 1863 2753 
Q 2328 2753 2575 2939 
Q 2822 3125 2822 3475 
Q 2822 3834 2567 4026 
Q 2313 4219 1838 4219 
Q 1578 4219 1281 4162 
Q 984 4106 628 3988 
L 628 4550 
Q 988 4650 1302 4700 
Q 1616 4750 1894 4750 
Q 2613 4750 3031 4423 
Q 3450 4097 3450 3541 
Q 3450 3153 3228 2886 
Q 3006 2619 2597 2516 
z
" transform="scale(0.015625)"/>
       </defs>
       <use xlink:href="#DejaVuSans-30"/>
       <use xlink:href="#DejaVuSans-2e" transform="translate(63.623047 0)"/>
       <use xlink:href="#DejaVuSans-33" transform="translate(95.410156 0)"/>
      </g>
     </g>
    </g>
    <g id="ytick_5">
     <g id="line2d_14">
      <g>
       <use xlink:href="#maa6eeb7a6b" x="47.72" y="124.335305" style="stroke: #000000; stroke-width: 0.8"/>
      </g>
     </g>
     <g id="text_15">
      <!-- 0.4 -->
      <g transform="translate(24.816875 128.134524) scale(0.1 -0.1)">
       <defs>
        <path id="DejaVuSans-34" d="M 2419 4116 
L 825 1625 
L 2419 1625 
L 2419 4116 
z
M 2253 4666 
L 3047 4666 
L 3047 1625 
L 3713 1625 
L 3713 1100 
L 3047 1100 
L 3047 0 
L 2419 0 
L 2419 1100 
L 313 1100 
L 313 1709 
L 2253 4666 
z
" transform="scale(0.015625)"/>
       </defs>
       <use xlink:href="#DejaVuSans-30"/>
       <use xlink:href="#DejaVuSans-2e" transform="translate(63.623047 0)"/>
       <use xlink:href="#DejaVuSans-34" transform="translate(95.410156 0)"/>
      </g>
     </g>
    </g>
    <g id="ytick_6">
     <g id="line2d_15">
      <g>
       <use xlink:href="#maa6eeb7a6b" x="47.72" y="79.509131" style="stroke: #000000; stroke-width: 0.8"/>
      </g>
     </g>
     <g id="text_16">
      <!-- 0.5 -->
      <g transform="translate(24.816875 83.30835) scale(0.1 -0.1)">
       <use xlink:href="#DejaVuSans-30"/>
       <use xlink:href="#DejaVuSans-2e" transform="translate(63.623047 0)"/>
       <use xlink:href="#DejaVuSans-35" transform="translate(95.410156 0)"/>
      </g>
     </g>
    </g>
    <g id="ytick_7">
     <g id="line2d_16">
      <g>
       <use xlink:href="#maa6eeb7a6b" x="47.72" y="34.682957" style="stroke: #000000; stroke-width: 0.8"/>
      </g>
     </g>
     <g id="text_17">
      <!-- 0.6 -->
      <g transform="translate(24.816875 38.482176) scale(0.1 -0.1)">
       <defs>
        <path id="DejaVuSans-36" d="M 2113 2584 
Q 1688 2584 1439 2293 
Q 1191 2003 1191 1497 
Q 1191 994 1439 701 
Q 1688 409 2113 409 
Q 2538 409 2786 701 
Q 3034 994 3034 1497 
Q 3034 2003 2786 2293 
Q 2538 2584 2113 2584 
z
M 3366 4563 
L 3366 3988 
Q 3128 4100 2886 4159 
Q 2644 4219 2406 4219 
Q 1781 4219 1451 3797 
Q 1122 3375 1075 2522 
Q 1259 2794 1537 2939 
Q 1816 3084 2150 3084 
Q 2853 3084 3261 2657 
Q 3669 2231 3669 1497 
Q 3669 778 3244 343 
Q 2819 -91 2113 -91 
Q 1303 -91 875 529 
Q 447 1150 447 2328 
Q 447 3434 972 4092 
Q 1497 4750 2381 4750 
Q 2619 4750 2861 4703 
Q 3103 4656 3366 4563 
z
" transform="scale(0.015625)"/>
       </defs>
       <use xlink:href="#DejaVuSans-30"/>
       <use xlink:href="#DejaVuSans-2e" transform="translate(63.623047 0)"/>
       <use xlink:href="#DejaVuSans-36" transform="translate(95.410156 0)"/>
      </g>
     </g>
    </g>
    <g id="text_18">
     <!-- Density -->
     <g transform="translate(18.737188 184.988594) rotate(-90) scale(0.1 -0.1)">
      <defs>
       <path id="DejaVuSans-44" d="M 1259 4147 
L 1259 519 
L 2022 519 
Q 2988 519 3436 956 
Q 3884 1394 3884 2338 
Q 3884 3275 3436 3711 
Q 2988 4147 2022 4147 
L 1259 4147 
z
M 628 4666 
L 1925 4666 
Q 3281 4666 3915 4102 
Q 4550 3538 4550 2338 
Q 4550 1131 3912 565 
Q 3275 0 1925 0 
L 628 0 
L 628 4666 
z
" transform="scale(0.015625)"/>
       <path id="DejaVuSans-73" d="M 2834 3397 
L 2834 2853 
Q 2591 2978 2328 3040 
Q 2066 3103 1784 3103 
Q 1356 3103 1142 2972 
Q 928 2841 928 2578 
Q 928 2378 1081 2264 
Q 1234 2150 1697 2047 
L 1894 2003 
Q 2506 1872 2764 1633 
Q 3022 1394 3022 966 
Q 3022 478 2636 193 
Q 2250 -91 1575 -91 
Q 1294 -91 989 -36 
Q 684 19 347 128 
L 347 722 
Q 666 556 975 473 
Q 1284 391 1588 391 
Q 1994 391 2212 530 
Q 2431 669 2431 922 
Q 2431 1156 2273 1281 
Q 2116 1406 1581 1522 
L 1381 1569 
Q 847 1681 609 1914 
Q 372 2147 372 2553 
Q 372 3047 722 3315 
Q 1072 3584 1716 3584 
Q 2034 3584 2315 3537 
Q 2597 3491 2834 3397 
z
" transform="scale(0.015625)"/>
       <path id="DejaVuSans-69" d="M 603 3500 
L 1178 3500 
L 1178 0 
L 603 0 
L 603 3500 
z
M 603 4863 
L 1178 4863 
L 1178 4134 
L 603 4134 
L 603 4863 
z
" transform="scale(0.015625)"/>
       <path id="DejaVuSans-74" d="M 1172 4494 
L 1172 3500 
L 2356 3500 
L 2356 3053 
L 1172 3053 
L 1172 1153 
Q 1172 725 1289 603 
Q 1406 481 1766 481 
L 2356 481 
L 2356 0 
L 1766 0 
Q 1100 0 847 248 
Q 594 497 594 1153 
L 594 3053 
L 172 3053 
L 172 3500 
L 594 3500 
L 594 4494 
L 1172 4494 
z
" transform="scale(0.015625)"/>
      </defs>
      <use xlink:href="#DejaVuSans-44"/>
      <use xlink:href="#DejaVuSans-65" transform="translate(77.001953 0)"/>
      <use xlink:href="#DejaVuSans-6e" transform="translate(138.525391 0)"/>
      <use xlink:href="#DejaVuSans-73" transform="translate(201.904297 0)"/>
      <use xlink:href="#DejaVuSans-69" transform="translate(254.003906 0)"/>
      <use xlink:href="#DejaVuSans-74" transform="translate(281.787109 0)"/>
      <use xlink:href="#DejaVuSans-79" transform="translate(320.996094 0)"/>
     </g>
    </g>
   </g>
   <g id="patch_203">
    <path d="M 47.72 303.64 
L 47.72 28.32 
" style="fill: none; stroke: #000000; stroke-width: 0.8; stroke-linejoin: miter; stroke-linecap: square"/>
   </g>
   <g id="patch_204">
    <path d="M 450 303.64 
L 450 28.32 
" style="fill: none; stroke: #000000; stroke-width: 0.8; stroke-linejoin: miter; stroke-linecap: square"/>
   </g>
   <g id="patch_205">
    <path d="M 47.72 303.64 
L 450 303.64 
" style="fill: none; stroke: #000000; stroke-width: 0.8; stroke-linejoin: miter; stroke-linecap: square"/>
   </g>
   <g id="patch_206">
    <path d="M 47.72 28.32 
L 450 28.32 
" style="fill: none; stroke: #000000; stroke-width: 0.8; stroke-linejoin: miter; stroke-linecap: square"/>
   </g>
   <g id="text_19">
    <!-- Energy Histograms - N=100 - $n_{iters}=$ 10000 - No Chain Swap -->
    <g transform="translate(65.68 22.32) scale(0.12 -0.12)">
     <defs>
      <path id="DejaVuSans-20" transform="scale(0.015625)"/>
      <path id="DejaVuSans-48" d="M 628 4666 
L 1259 4666 
L 1259 2753 
L 3553 2753 
L 3553 4666 
L 4184 4666 
L 4184 0 
L 3553 0 
L 3553 2222 
L 1259 2222 
L 1259 0 
L 628 0 
L 628 4666 
z
" transform="scale(0.015625)"/>
      <path id="DejaVuSans-6f" d="M 1959 3097 
Q 1497 3097 1228 2736 
Q 959 2375 959 1747 
Q 959 1119 1226 758 
Q 1494 397 1959 397 
Q 2419 397 2687 759 
Q 2956 1122 2956 1747 
Q 2956 2369 2687 2733 
Q 2419 3097 1959 3097 
z
M 1959 3584 
Q 2709 3584 3137 3096 
Q 3566 2609 3566 1747 
Q 3566 888 3137 398 
Q 2709 -91 1959 -91 
Q 1206 -91 779 398 
Q 353 888 353 1747 
Q 353 2609 779 3096 
Q 1206 3584 1959 3584 
z
" transform="scale(0.015625)"/>
      <path id="DejaVuSans-61" d="M 2194 1759 
Q 1497 1759 1228 1600 
Q 959 1441 959 1056 
Q 959 750 1161 570 
Q 1363 391 1709 391 
Q 2188 391 2477 730 
Q 2766 1069 2766 1631 
L 2766 1759 
L 2194 1759 
z
M 3341 1997 
L 3341 0 
L 2766 0 
L 2766 531 
Q 2569 213 2275 61 
Q 1981 -91 1556 -91 
Q 1019 -91 701 211 
Q 384 513 384 1019 
Q 384 1609 779 1909 
Q 1175 2209 1959 2209 
L 2766 2209 
L 2766 2266 
Q 2766 2663 2505 2880 
Q 2244 3097 1772 3097 
Q 1472 3097 1187 3025 
Q 903 2953 641 2809 
L 641 3341 
Q 956 3463 1253 3523 
Q 1550 3584 1831 3584 
Q 2591 3584 2966 3190 
Q 3341 2797 3341 1997 
z
" transform="scale(0.015625)"/>
      <path id="DejaVuSans-6d" d="M 3328 2828 
Q 3544 3216 3844 3400 
Q 4144 3584 4550 3584 
Q 5097 3584 5394 3201 
Q 5691 2819 5691 2113 
L 5691 0 
L 5113 0 
L 5113 2094 
Q 5113 2597 4934 2840 
Q 4756 3084 4391 3084 
Q 3944 3084 3684 2787 
Q 3425 2491 3425 1978 
L 3425 0 
L 2847 0 
L 2847 2094 
Q 2847 2600 2669 2842 
Q 2491 3084 2119 3084 
Q 1678 3084 1418 2786 
Q 1159 2488 1159 1978 
L 1159 0 
L 581 0 
L 581 3500 
L 1159 3500 
L 1159 2956 
Q 1356 3278 1631 3431 
Q 1906 3584 2284 3584 
Q 2666 3584 2933 3390 
Q 3200 3197 3328 2828 
z
" transform="scale(0.015625)"/>
      <path id="DejaVuSans-2d" d="M 313 2009 
L 1997 2009 
L 1997 1497 
L 313 1497 
L 313 2009 
z
" transform="scale(0.015625)"/>
      <path id="DejaVuSans-4e" d="M 628 4666 
L 1478 4666 
L 3547 763 
L 3547 4666 
L 4159 4666 
L 4159 0 
L 3309 0 
L 1241 3903 
L 1241 0 
L 628 0 
L 628 4666 
z
" transform="scale(0.015625)"/>
      <path id="DejaVuSans-3d" d="M 678 2906 
L 4684 2906 
L 4684 2381 
L 678 2381 
L 678 2906 
z
M 678 1631 
L 4684 1631 
L 4684 1100 
L 678 1100 
L 678 1631 
z
" transform="scale(0.015625)"/>
      <path id="DejaVuSans-Oblique-6e" d="M 3566 2113 
L 3156 0 
L 2578 0 
L 2988 2091 
Q 3016 2238 3031 2350 
Q 3047 2463 3047 2528 
Q 3047 2791 2881 2937 
Q 2716 3084 2419 3084 
Q 1956 3084 1622 2776 
Q 1288 2469 1184 1941 
L 800 0 
L 225 0 
L 903 3500 
L 1478 3500 
L 1363 2950 
Q 1603 3253 1940 3418 
Q 2278 3584 2650 3584 
Q 3113 3584 3367 3334 
Q 3622 3084 3622 2631 
Q 3622 2519 3608 2391 
Q 3594 2263 3566 2113 
z
" transform="scale(0.015625)"/>
      <path id="DejaVuSans-Oblique-69" d="M 1172 4863 
L 1747 4863 
L 1606 4134 
L 1031 4134 
L 1172 4863 
z
M 909 3500 
L 1484 3500 
L 800 0 
L 225 0 
L 909 3500 
z
" transform="scale(0.015625)"/>
      <path id="DejaVuSans-Oblique-74" d="M 2706 3500 
L 2619 3053 
L 1472 3053 
L 1100 1153 
Q 1081 1047 1072 975 
Q 1063 903 1063 863 
Q 1063 663 1183 572 
Q 1303 481 1569 481 
L 2150 481 
L 2053 0 
L 1503 0 
Q 991 0 739 200 
Q 488 400 488 806 
Q 488 878 497 964 
Q 506 1050 525 1153 
L 897 3053 
L 409 3053 
L 500 3500 
L 978 3500 
L 1172 4494 
L 1747 4494 
L 1556 3500 
L 2706 3500 
z
" transform="scale(0.015625)"/>
      <path id="DejaVuSans-Oblique-65" d="M 3078 2063 
Q 3088 2113 3092 2166 
Q 3097 2219 3097 2272 
Q 3097 2653 2873 2875 
Q 2650 3097 2266 3097 
Q 1838 3097 1509 2826 
Q 1181 2556 1013 2059 
L 3078 2063 
z
M 3578 1613 
L 903 1613 
Q 884 1494 878 1425 
Q 872 1356 872 1306 
Q 872 872 1139 634 
Q 1406 397 1894 397 
Q 2269 397 2603 481 
Q 2938 566 3225 728 
L 3116 159 
Q 2806 34 2476 -28 
Q 2147 -91 1806 -91 
Q 1078 -91 686 257 
Q 294 606 294 1247 
Q 294 1794 489 2264 
Q 684 2734 1063 3103 
Q 1306 3334 1642 3459 
Q 1978 3584 2356 3584 
Q 2950 3584 3301 3228 
Q 3653 2872 3653 2272 
Q 3653 2128 3634 1964 
Q 3616 1800 3578 1613 
z
" transform="scale(0.015625)"/>
      <path id="DejaVuSans-Oblique-72" d="M 2853 2969 
Q 2766 3016 2653 3041 
Q 2541 3066 2413 3066 
Q 1953 3066 1609 2717 
Q 1266 2369 1153 1784 
L 800 0 
L 225 0 
L 909 3500 
L 1484 3500 
L 1375 2956 
Q 1603 3259 1920 3421 
Q 2238 3584 2597 3584 
Q 2691 3584 2781 3573 
Q 2872 3563 2963 3538 
L 2853 2969 
z
" transform="scale(0.015625)"/>
      <path id="DejaVuSans-Oblique-73" d="M 3200 3397 
L 3091 2853 
Q 2863 2978 2609 3040 
Q 2356 3103 2088 3103 
Q 1634 3103 1373 2948 
Q 1113 2794 1113 2528 
Q 1113 2219 1719 2053 
Q 1766 2041 1788 2034 
L 1972 1978 
Q 2547 1819 2739 1644 
Q 2931 1469 2931 1166 
Q 2931 609 2489 259 
Q 2047 -91 1331 -91 
Q 1053 -91 747 -37 
Q 441 16 72 128 
L 184 722 
Q 500 559 806 475 
Q 1113 391 1394 391 
Q 1816 391 2080 572 
Q 2344 753 2344 1031 
Q 2344 1331 1650 1516 
L 1591 1531 
L 1394 1581 
Q 956 1697 753 1886 
Q 550 2075 550 2369 
Q 550 2928 970 3256 
Q 1391 3584 2113 3584 
Q 2397 3584 2667 3537 
Q 2938 3491 3200 3397 
z
" transform="scale(0.015625)"/>
      <path id="DejaVuSans-43" d="M 4122 4306 
L 4122 3641 
Q 3803 3938 3442 4084 
Q 3081 4231 2675 4231 
Q 1875 4231 1450 3742 
Q 1025 3253 1025 2328 
Q 1025 1406 1450 917 
Q 1875 428 2675 428 
Q 3081 428 3442 575 
Q 3803 722 4122 1019 
L 4122 359 
Q 3791 134 3420 21 
Q 3050 -91 2638 -91 
Q 1578 -91 968 557 
Q 359 1206 359 2328 
Q 359 3453 968 4101 
Q 1578 4750 2638 4750 
Q 3056 4750 3426 4639 
Q 3797 4528 4122 4306 
z
" transform="scale(0.015625)"/>
      <path id="DejaVuSans-68" d="M 3513 2113 
L 3513 0 
L 2938 0 
L 2938 2094 
Q 2938 2591 2744 2837 
Q 2550 3084 2163 3084 
Q 1697 3084 1428 2787 
Q 1159 2491 1159 1978 
L 1159 0 
L 581 0 
L 581 4863 
L 1159 4863 
L 1159 2956 
Q 1366 3272 1645 3428 
Q 1925 3584 2291 3584 
Q 2894 3584 3203 3211 
Q 3513 2838 3513 2113 
z
" transform="scale(0.015625)"/>
      <path id="DejaVuSans-53" d="M 3425 4513 
L 3425 3897 
Q 3066 4069 2747 4153 
Q 2428 4238 2131 4238 
Q 1616 4238 1336 4038 
Q 1056 3838 1056 3469 
Q 1056 3159 1242 3001 
Q 1428 2844 1947 2747 
L 2328 2669 
Q 3034 2534 3370 2195 
Q 3706 1856 3706 1288 
Q 3706 609 3251 259 
Q 2797 -91 1919 -91 
Q 1588 -91 1214 -16 
Q 841 59 441 206 
L 441 856 
Q 825 641 1194 531 
Q 1563 422 1919 422 
Q 2459 422 2753 634 
Q 3047 847 3047 1241 
Q 3047 1584 2836 1778 
Q 2625 1972 2144 2069 
L 1759 2144 
Q 1053 2284 737 2584 
Q 422 2884 422 3419 
Q 422 4038 858 4394 
Q 1294 4750 2059 4750 
Q 2388 4750 2728 4690 
Q 3069 4631 3425 4513 
z
" transform="scale(0.015625)"/>
      <path id="DejaVuSans-77" d="M 269 3500 
L 844 3500 
L 1563 769 
L 2278 3500 
L 2956 3500 
L 3675 769 
L 4391 3500 
L 4966 3500 
L 4050 0 
L 3372 0 
L 2619 2869 
L 1863 0 
L 1184 0 
L 269 3500 
z
" transform="scale(0.015625)"/>
      <path id="DejaVuSans-70" d="M 1159 525 
L 1159 -1331 
L 581 -1331 
L 581 3500 
L 1159 3500 
L 1159 2969 
Q 1341 3281 1617 3432 
Q 1894 3584 2278 3584 
Q 2916 3584 3314 3078 
Q 3713 2572 3713 1747 
Q 3713 922 3314 415 
Q 2916 -91 2278 -91 
Q 1894 -91 1617 61 
Q 1341 213 1159 525 
z
M 3116 1747 
Q 3116 2381 2855 2742 
Q 2594 3103 2138 3103 
Q 1681 3103 1420 2742 
Q 1159 2381 1159 1747 
Q 1159 1113 1420 752 
Q 1681 391 2138 391 
Q 2594 391 2855 752 
Q 3116 1113 3116 1747 
z
" transform="scale(0.015625)"/>
     </defs>
     <use xlink:href="#DejaVuSans-45" transform="translate(0 0.015625)"/>
     <use xlink:href="#DejaVuSans-6e" transform="translate(63.183594 0.015625)"/>
     <use xlink:href="#DejaVuSans-65" transform="translate(126.5625 0.015625)"/>
     <use xlink:href="#DejaVuSans-72" transform="translate(188.085938 0.015625)"/>
     <use xlink:href="#DejaVuSans-67" transform="translate(229.199219 0.015625)"/>
     <use xlink:href="#DejaVuSans-79" transform="translate(292.675781 0.015625)"/>
     <use xlink:href="#DejaVuSans-20" transform="translate(351.855469 0.015625)"/>
     <use xlink:href="#DejaVuSans-48" transform="translate(383.642578 0.015625)"/>
     <use xlink:href="#DejaVuSans-69" transform="translate(458.837891 0.015625)"/>
     <use xlink:href="#DejaVuSans-73" transform="translate(486.621094 0.015625)"/>
     <use xlink:href="#DejaVuSans-74" transform="translate(538.720703 0.015625)"/>
     <use xlink:href="#DejaVuSans-6f" transform="translate(577.929688 0.015625)"/>
     <use xlink:href="#DejaVuSans-67" transform="translate(639.111328 0.015625)"/>
     <use xlink:href="#DejaVuSans-72" transform="translate(702.587891 0.015625)"/>
     <use xlink:href="#DejaVuSans-61" transform="translate(743.701172 0.015625)"/>
     <use xlink:href="#DejaVuSans-6d" transform="translate(804.980469 0.015625)"/>
     <use xlink:href="#DejaVuSans-73" transform="translate(902.392578 0.015625)"/>
     <use xlink:href="#DejaVuSans-20" transform="translate(954.492188 0.015625)"/>
     <use xlink:href="#DejaVuSans-2d" transform="translate(986.279297 0.015625)"/>
     <use xlink:href="#DejaVuSans-20" transform="translate(1022.363281 0.015625)"/>
     <use xlink:href="#DejaVuSans-4e" transform="translate(1054.150391 0.015625)"/>
     <use xlink:href="#DejaVuSans-3d" transform="translate(1128.955078 0.015625)"/>
     <use xlink:href="#DejaVuSans-31" transform="translate(1212.744141 0.015625)"/>
     <use xlink:href="#DejaVuSans-30" transform="translate(1276.367188 0.015625)"/>
     <use xlink:href="#DejaVuSans-30" transform="translate(1339.990234 0.015625)"/>
     <use xlink:href="#DejaVuSans-20" transform="translate(1403.613281 0.015625)"/>
     <use xlink:href="#DejaVuSans-2d" transform="translate(1435.400391 0.015625)"/>
     <use xlink:href="#DejaVuSans-20" transform="translate(1471.484375 0.015625)"/>
     <use xlink:href="#DejaVuSans-Oblique-6e" transform="translate(1503.271484 0.015625)"/>
     <use xlink:href="#DejaVuSans-Oblique-69" transform="translate(1566.650391 -16.390625) scale(0.7)"/>
     <use xlink:href="#DejaVuSans-Oblique-74" transform="translate(1586.098633 -16.390625) scale(0.7)"/>
     <use xlink:href="#DejaVuSans-Oblique-65" transform="translate(1613.544922 -16.390625) scale(0.7)"/>
     <use xlink:href="#DejaVuSans-Oblique-72" transform="translate(1656.611328 -16.390625) scale(0.7)"/>
     <use xlink:href="#DejaVuSans-Oblique-73" transform="translate(1685.390625 -16.390625) scale(0.7)"/>
     <use xlink:href="#DejaVuSans-3d" transform="translate(1744.077148 0.015625)"/>
     <use xlink:href="#DejaVuSans-20" transform="translate(1847.348633 0.015625)"/>
     <use xlink:href="#DejaVuSans-31" transform="translate(1879.135742 0.015625)"/>
     <use xlink:href="#DejaVuSans-30" transform="translate(1942.758789 0.015625)"/>
     <use xlink:href="#DejaVuSans-30" transform="translate(2006.381836 0.015625)"/>
     <use xlink:href="#DejaVuSans-30" transform="translate(2070.004883 0.015625)"/>
     <use xlink:href="#DejaVuSans-30" transform="translate(2133.62793 0.015625)"/>
     <use xlink:href="#DejaVuSans-20" transform="translate(2197.250977 0.015625)"/>
     <use xlink:href="#DejaVuSans-2d" transform="translate(2229.038086 0.015625)"/>
     <use xlink:href="#DejaVuSans-20" transform="translate(2265.12207 0.015625)"/>
     <use xlink:href="#DejaVuSans-4e" transform="translate(2296.90918 0.015625)"/>
     <use xlink:href="#DejaVuSans-6f" transform="translate(2371.713867 0.015625)"/>
     <use xlink:href="#DejaVuSans-20" transform="translate(2432.895508 0.015625)"/>
     <use xlink:href="#DejaVuSans-43" transform="translate(2464.682617 0.015625)"/>
     <use xlink:href="#DejaVuSans-68" transform="translate(2534.506836 0.015625)"/>
     <use xlink:href="#DejaVuSans-61" transform="translate(2597.885742 0.015625)"/>
     <use xlink:href="#DejaVuSans-69" transform="translate(2659.165039 0.015625)"/>
     <use xlink:href="#DejaVuSans-6e" transform="translate(2686.948242 0.015625)"/>
     <use xlink:href="#DejaVuSans-20" transform="translate(2750.327148 0.015625)"/>
     <use xlink:href="#DejaVuSans-53" transform="translate(2782.114258 0.015625)"/>
     <use xlink:href="#DejaVuSans-77" transform="translate(2845.59082 0.015625)"/>
     <use xlink:href="#DejaVuSans-61" transform="translate(2927.37793 0.015625)"/>
     <use xlink:href="#DejaVuSans-70" transform="translate(2988.657227 0.015625)"/>
    </g>
   </g>
   <g id="legend_1">
    <g id="patch_207">
     <path d="M 54.72 184.32 
L 173.22 184.32 
Q 175.22 184.32 175.22 182.32 
L 175.22 35.32 
Q 175.22 33.32 173.22 33.32 
L 54.72 33.32 
Q 52.72 33.32 52.72 35.32 
L 52.72 182.32 
Q 52.72 184.32 54.72 184.32 
z
" style="fill: #ffffff; opacity: 0.8; stroke: #cccccc; stroke-linejoin: miter"/>
    </g>
    <g id="patch_208">
     <path d="M 56.72 45.02 
L 76.72 45.02 
L 76.72 38.02 
L 56.72 38.02 
z
" style="fill: #1f77b4; opacity: 0.5"/>
    </g>
    <g id="text_20">
     <!-- $\beta$=0.10, T=10.00 -->
     <g transform="translate(84.72 45.02) scale(0.1 -0.1)">
      <defs>
       <path id="DejaVuSans-Oblique-3b2" d="M 872 216 
L 572 -1331 
L -6 -1331 
L 928 3478 
Q 1206 4903 2538 4903 
Q 3888 4903 3659 3700 
Q 3503 2844 2894 2531 
Q 3713 2250 3553 1416 
Q 3272 -69 1759 -66 
Q 1097 -63 872 216 
z
M 1019 966 
Q 1259 422 1875 425 
Q 2775 425 2966 1406 
Q 3138 2288 1675 2219 
L 1778 2750 
Q 2909 2731 3106 3750 
Q 3241 4438 2509 4434 
Q 1691 4434 1503 3459 
L 1019 966 
z
" transform="scale(0.015625)"/>
       <path id="DejaVuSans-2c" d="M 750 794 
L 1409 794 
L 1409 256 
L 897 -744 
L 494 -744 
L 750 256 
L 750 794 
z
" transform="scale(0.015625)"/>
       <path id="DejaVuSans-54" d="M -19 4666 
L 3928 4666 
L 3928 4134 
L 2272 4134 
L 2272 0 
L 1638 0 
L 1638 4134 
L -19 4134 
L -19 4666 
z
" transform="scale(0.015625)"/>
      </defs>
      <use xlink:href="#DejaVuSans-Oblique-3b2" transform="translate(0 0.390625)"/>
      <use xlink:href="#DejaVuSans-3d" transform="translate(63.818359 0.390625)"/>
      <use xlink:href="#DejaVuSans-30" transform="translate(147.607422 0.390625)"/>
      <use xlink:href="#DejaVuSans-2e" transform="translate(211.230469 0.390625)"/>
      <use xlink:href="#DejaVuSans-31" transform="translate(243.017578 0.390625)"/>
      <use xlink:href="#DejaVuSans-30" transform="translate(306.640625 0.390625)"/>
      <use xlink:href="#DejaVuSans-2c" transform="translate(370.263672 0.390625)"/>
      <use xlink:href="#DejaVuSans-20" transform="translate(402.050781 0.390625)"/>
      <use xlink:href="#DejaVuSans-54" transform="translate(433.837891 0.390625)"/>
      <use xlink:href="#DejaVuSans-3d" transform="translate(494.921875 0.390625)"/>
      <use xlink:href="#DejaVuSans-31" transform="translate(578.710938 0.390625)"/>
      <use xlink:href="#DejaVuSans-30" transform="translate(642.333984 0.390625)"/>
      <use xlink:href="#DejaVuSans-2e" transform="translate(705.957031 0.390625)"/>
      <use xlink:href="#DejaVuSans-30" transform="translate(737.744141 0.390625)"/>
      <use xlink:href="#DejaVuSans-30" transform="translate(801.367188 0.390625)"/>
     </g>
    </g>
    <g id="patch_209">
     <path d="M 56.72 59.82 
L 76.72 59.82 
L 76.72 52.82 
L 56.72 52.82 
z
" style="fill: #ff7f0e; opacity: 0.5"/>
    </g>
    <g id="text_21">
     <!-- $\beta$=0.20, T=5.00 -->
     <g transform="translate(84.72 59.82) scale(0.1 -0.1)">
      <use xlink:href="#DejaVuSans-Oblique-3b2" transform="translate(0 0.390625)"/>
      <use xlink:href="#DejaVuSans-3d" transform="translate(63.818359 0.390625)"/>
      <use xlink:href="#DejaVuSans-30" transform="translate(147.607422 0.390625)"/>
      <use xlink:href="#DejaVuSans-2e" transform="translate(211.230469 0.390625)"/>
      <use xlink:href="#DejaVuSans-32" transform="translate(237.517578 0.390625)"/>
      <use xlink:href="#DejaVuSans-30" transform="translate(301.140625 0.390625)"/>
      <use xlink:href="#DejaVuSans-2c" transform="translate(364.763672 0.390625)"/>
      <use xlink:href="#DejaVuSans-20" transform="translate(396.550781 0.390625)"/>
      <use xlink:href="#DejaVuSans-54" transform="translate(428.337891 0.390625)"/>
      <use xlink:href="#DejaVuSans-3d" transform="translate(489.421875 0.390625)"/>
      <use xlink:href="#DejaVuSans-35" transform="translate(573.210938 0.390625)"/>
      <use xlink:href="#DejaVuSans-2e" transform="translate(636.833984 0.390625)"/>
      <use xlink:href="#DejaVuSans-30" transform="translate(668.621094 0.390625)"/>
      <use xlink:href="#DejaVuSans-30" transform="translate(732.244141 0.390625)"/>
     </g>
    </g>
    <g id="patch_210">
     <path d="M 56.72 74.62 
L 76.72 74.62 
L 76.72 67.62 
L 56.72 67.62 
z
" style="fill: #2ca02c; opacity: 0.5"/>
    </g>
    <g id="text_22">
     <!-- $\beta$=0.30, T=3.33 -->
     <g transform="translate(84.72 74.62) scale(0.1 -0.1)">
      <use xlink:href="#DejaVuSans-Oblique-3b2" transform="translate(0 0.390625)"/>
      <use xlink:href="#DejaVuSans-3d" transform="translate(63.818359 0.390625)"/>
      <use xlink:href="#DejaVuSans-30" transform="translate(147.607422 0.390625)"/>
      <use xlink:href="#DejaVuSans-2e" transform="translate(211.230469 0.390625)"/>
      <use xlink:href="#DejaVuSans-33" transform="translate(243.017578 0.390625)"/>
      <use xlink:href="#DejaVuSans-30" transform="translate(306.640625 0.390625)"/>
      <use xlink:href="#DejaVuSans-2c" transform="translate(370.263672 0.390625)"/>
      <use xlink:href="#DejaVuSans-20" transform="translate(402.050781 0.390625)"/>
      <use xlink:href="#DejaVuSans-54" transform="translate(433.837891 0.390625)"/>
      <use xlink:href="#DejaVuSans-3d" transform="translate(494.921875 0.390625)"/>
      <use xlink:href="#DejaVuSans-33" transform="translate(578.710938 0.390625)"/>
      <use xlink:href="#DejaVuSans-2e" transform="translate(642.333984 0.390625)"/>
      <use xlink:href="#DejaVuSans-33" transform="translate(674.121094 0.390625)"/>
      <use xlink:href="#DejaVuSans-33" transform="translate(737.744141 0.390625)"/>
     </g>
    </g>
    <g id="patch_211">
     <path d="M 56.72 89.42 
L 76.72 89.42 
L 76.72 82.42 
L 56.72 82.42 
z
" style="fill: #d62728; opacity: 0.5"/>
    </g>
    <g id="text_23">
     <!-- $\beta$=0.40, T=2.50 -->
     <g transform="translate(84.72 89.42) scale(0.1 -0.1)">
      <use xlink:href="#DejaVuSans-Oblique-3b2" transform="translate(0 0.390625)"/>
      <use xlink:href="#DejaVuSans-3d" transform="translate(63.818359 0.390625)"/>
      <use xlink:href="#DejaVuSans-30" transform="translate(147.607422 0.390625)"/>
      <use xlink:href="#DejaVuSans-2e" transform="translate(211.230469 0.390625)"/>
      <use xlink:href="#DejaVuSans-34" transform="translate(243.017578 0.390625)"/>
      <use xlink:href="#DejaVuSans-30" transform="translate(306.640625 0.390625)"/>
      <use xlink:href="#DejaVuSans-2c" transform="translate(370.263672 0.390625)"/>
      <use xlink:href="#DejaVuSans-20" transform="translate(402.050781 0.390625)"/>
      <use xlink:href="#DejaVuSans-54" transform="translate(433.837891 0.390625)"/>
      <use xlink:href="#DejaVuSans-3d" transform="translate(494.921875 0.390625)"/>
      <use xlink:href="#DejaVuSans-32" transform="translate(578.710938 0.390625)"/>
      <use xlink:href="#DejaVuSans-2e" transform="translate(642.333984 0.390625)"/>
      <use xlink:href="#DejaVuSans-35" transform="translate(674.121094 0.390625)"/>
      <use xlink:href="#DejaVuSans-30" transform="translate(737.744141 0.390625)"/>
     </g>
    </g>
    <g id="patch_212">
     <path d="M 56.72 104.22 
L 76.72 104.22 
L 76.72 97.22 
L 56.72 97.22 
z
" style="fill: #9467bd; opacity: 0.5"/>
    </g>
    <g id="text_24">
     <!-- $\beta$=0.50, T=2.00 -->
     <g transform="translate(84.72 104.22) scale(0.1 -0.1)">
      <use xlink:href="#DejaVuSans-Oblique-3b2" transform="translate(0 0.390625)"/>
      <use xlink:href="#DejaVuSans-3d" transform="translate(63.818359 0.390625)"/>
      <use xlink:href="#DejaVuSans-30" transform="translate(147.607422 0.390625)"/>
      <use xlink:href="#DejaVuSans-2e" transform="translate(211.230469 0.390625)"/>
      <use xlink:href="#DejaVuSans-35" transform="translate(243.017578 0.390625)"/>
      <use xlink:href="#DejaVuSans-30" transform="translate(306.640625 0.390625)"/>
      <use xlink:href="#DejaVuSans-2c" transform="translate(370.263672 0.390625)"/>
      <use xlink:href="#DejaVuSans-20" transform="translate(402.050781 0.390625)"/>
      <use xlink:href="#DejaVuSans-54" transform="translate(433.837891 0.390625)"/>
      <use xlink:href="#DejaVuSans-3d" transform="translate(494.921875 0.390625)"/>
      <use xlink:href="#DejaVuSans-32" transform="translate(578.710938 0.390625)"/>
      <use xlink:href="#DejaVuSans-2e" transform="translate(642.333984 0.390625)"/>
      <use xlink:href="#DejaVuSans-30" transform="translate(674.121094 0.390625)"/>
      <use xlink:href="#DejaVuSans-30" transform="translate(737.744141 0.390625)"/>
     </g>
    </g>
    <g id="patch_213">
     <path d="M 56.72 119.02 
L 76.72 119.02 
L 76.72 112.02 
L 56.72 112.02 
z
" style="fill: #8c564b; opacity: 0.5"/>
    </g>
    <g id="text_25">
     <!-- $\beta$=0.60, T=1.67 -->
     <g transform="translate(84.72 119.02) scale(0.1 -0.1)">
      <use xlink:href="#DejaVuSans-Oblique-3b2" transform="translate(0 0.390625)"/>
      <use xlink:href="#DejaVuSans-3d" transform="translate(63.818359 0.390625)"/>
      <use xlink:href="#DejaVuSans-30" transform="translate(147.607422 0.390625)"/>
      <use xlink:href="#DejaVuSans-2e" transform="translate(211.230469 0.390625)"/>
      <use xlink:href="#DejaVuSans-36" transform="translate(243.017578 0.390625)"/>
      <use xlink:href="#DejaVuSans-30" transform="translate(306.640625 0.390625)"/>
      <use xlink:href="#DejaVuSans-2c" transform="translate(370.263672 0.390625)"/>
      <use xlink:href="#DejaVuSans-20" transform="translate(402.050781 0.390625)"/>
      <use xlink:href="#DejaVuSans-54" transform="translate(433.837891 0.390625)"/>
      <use xlink:href="#DejaVuSans-3d" transform="translate(494.921875 0.390625)"/>
      <use xlink:href="#DejaVuSans-31" transform="translate(578.710938 0.390625)"/>
      <use xlink:href="#DejaVuSans-2e" transform="translate(642.333984 0.390625)"/>
      <use xlink:href="#DejaVuSans-36" transform="translate(674.121094 0.390625)"/>
      <use xlink:href="#DejaVuSans-37" transform="translate(737.744141 0.390625)"/>
     </g>
    </g>
    <g id="patch_214">
     <path d="M 56.72 133.82 
L 76.72 133.82 
L 76.72 126.82 
L 56.72 126.82 
z
" style="fill: #e377c2; opacity: 0.5"/>
    </g>
    <g id="text_26">
     <!-- $\beta$=0.70, T=1.43 -->
     <g transform="translate(84.72 133.82) scale(0.1 -0.1)">
      <use xlink:href="#DejaVuSans-Oblique-3b2" transform="translate(0 0.390625)"/>
      <use xlink:href="#DejaVuSans-3d" transform="translate(63.818359 0.390625)"/>
      <use xlink:href="#DejaVuSans-30" transform="translate(147.607422 0.390625)"/>
      <use xlink:href="#DejaVuSans-2e" transform="translate(211.230469 0.390625)"/>
      <use xlink:href="#DejaVuSans-37" transform="translate(235.267578 0.390625)"/>
      <use xlink:href="#DejaVuSans-30" transform="translate(298.890625 0.390625)"/>
      <use xlink:href="#DejaVuSans-2c" transform="translate(362.513672 0.390625)"/>
      <use xlink:href="#DejaVuSans-20" transform="translate(394.300781 0.390625)"/>
      <use xlink:href="#DejaVuSans-54" transform="translate(426.087891 0.390625)"/>
      <use xlink:href="#DejaVuSans-3d" transform="translate(487.171875 0.390625)"/>
      <use xlink:href="#DejaVuSans-31" transform="translate(570.960938 0.390625)"/>
      <use xlink:href="#DejaVuSans-2e" transform="translate(634.583984 0.390625)"/>
      <use xlink:href="#DejaVuSans-34" transform="translate(666.371094 0.390625)"/>
      <use xlink:href="#DejaVuSans-33" transform="translate(729.994141 0.390625)"/>
     </g>
    </g>
    <g id="patch_215">
     <path d="M 56.72 148.62 
L 76.72 148.62 
L 76.72 141.62 
L 56.72 141.62 
z
" style="fill: #7f7f7f; opacity: 0.5"/>
    </g>
    <g id="text_27">
     <!-- $\beta$=0.80, T=1.25 -->
     <g transform="translate(84.72 148.62) scale(0.1 -0.1)">
      <defs>
       <path id="DejaVuSans-38" d="M 2034 2216 
Q 1584 2216 1326 1975 
Q 1069 1734 1069 1313 
Q 1069 891 1326 650 
Q 1584 409 2034 409 
Q 2484 409 2743 651 
Q 3003 894 3003 1313 
Q 3003 1734 2745 1975 
Q 2488 2216 2034 2216 
z
M 1403 2484 
Q 997 2584 770 2862 
Q 544 3141 544 3541 
Q 544 4100 942 4425 
Q 1341 4750 2034 4750 
Q 2731 4750 3128 4425 
Q 3525 4100 3525 3541 
Q 3525 3141 3298 2862 
Q 3072 2584 2669 2484 
Q 3125 2378 3379 2068 
Q 3634 1759 3634 1313 
Q 3634 634 3220 271 
Q 2806 -91 2034 -91 
Q 1263 -91 848 271 
Q 434 634 434 1313 
Q 434 1759 690 2068 
Q 947 2378 1403 2484 
z
M 1172 3481 
Q 1172 3119 1398 2916 
Q 1625 2713 2034 2713 
Q 2441 2713 2670 2916 
Q 2900 3119 2900 3481 
Q 2900 3844 2670 4047 
Q 2441 4250 2034 4250 
Q 1625 4250 1398 4047 
Q 1172 3844 1172 3481 
z
" transform="scale(0.015625)"/>
      </defs>
      <use xlink:href="#DejaVuSans-Oblique-3b2" transform="translate(0 0.390625)"/>
      <use xlink:href="#DejaVuSans-3d" transform="translate(63.818359 0.390625)"/>
      <use xlink:href="#DejaVuSans-30" transform="translate(147.607422 0.390625)"/>
      <use xlink:href="#DejaVuSans-2e" transform="translate(211.230469 0.390625)"/>
      <use xlink:href="#DejaVuSans-38" transform="translate(240.392578 0.390625)"/>
      <use xlink:href="#DejaVuSans-30" transform="translate(304.015625 0.390625)"/>
      <use xlink:href="#DejaVuSans-2c" transform="translate(367.638672 0.390625)"/>
      <use xlink:href="#DejaVuSans-20" transform="translate(399.425781 0.390625)"/>
      <use xlink:href="#DejaVuSans-54" transform="translate(431.212891 0.390625)"/>
      <use xlink:href="#DejaVuSans-3d" transform="translate(492.296875 0.390625)"/>
      <use xlink:href="#DejaVuSans-31" transform="translate(576.085938 0.390625)"/>
      <use xlink:href="#DejaVuSans-2e" transform="translate(639.708984 0.390625)"/>
      <use xlink:href="#DejaVuSans-32" transform="translate(665.996094 0.390625)"/>
      <use xlink:href="#DejaVuSans-35" transform="translate(729.619141 0.390625)"/>
     </g>
    </g>
    <g id="patch_216">
     <path d="M 56.72 163.42 
L 76.72 163.42 
L 76.72 156.42 
L 56.72 156.42 
z
" style="fill: #bcbd22; opacity: 0.5"/>
    </g>
    <g id="text_28">
     <!-- $\beta$=0.90, T=1.11 -->
     <g transform="translate(84.72 163.42) scale(0.1 -0.1)">
      <defs>
       <path id="DejaVuSans-39" d="M 703 97 
L 703 672 
Q 941 559 1184 500 
Q 1428 441 1663 441 
Q 2288 441 2617 861 
Q 2947 1281 2994 2138 
Q 2813 1869 2534 1725 
Q 2256 1581 1919 1581 
Q 1219 1581 811 2004 
Q 403 2428 403 3163 
Q 403 3881 828 4315 
Q 1253 4750 1959 4750 
Q 2769 4750 3195 4129 
Q 3622 3509 3622 2328 
Q 3622 1225 3098 567 
Q 2575 -91 1691 -91 
Q 1453 -91 1209 -44 
Q 966 3 703 97 
z
M 1959 2075 
Q 2384 2075 2632 2365 
Q 2881 2656 2881 3163 
Q 2881 3666 2632 3958 
Q 2384 4250 1959 4250 
Q 1534 4250 1286 3958 
Q 1038 3666 1038 3163 
Q 1038 2656 1286 2365 
Q 1534 2075 1959 2075 
z
" transform="scale(0.015625)"/>
      </defs>
      <use xlink:href="#DejaVuSans-Oblique-3b2" transform="translate(0 0.390625)"/>
      <use xlink:href="#DejaVuSans-3d" transform="translate(63.818359 0.390625)"/>
      <use xlink:href="#DejaVuSans-30" transform="translate(147.607422 0.390625)"/>
      <use xlink:href="#DejaVuSans-2e" transform="translate(211.230469 0.390625)"/>
      <use xlink:href="#DejaVuSans-39" transform="translate(243.017578 0.390625)"/>
      <use xlink:href="#DejaVuSans-30" transform="translate(306.640625 0.390625)"/>
      <use xlink:href="#DejaVuSans-2c" transform="translate(370.263672 0.390625)"/>
      <use xlink:href="#DejaVuSans-20" transform="translate(402.050781 0.390625)"/>
      <use xlink:href="#DejaVuSans-54" transform="translate(433.837891 0.390625)"/>
      <use xlink:href="#DejaVuSans-3d" transform="translate(494.921875 0.390625)"/>
      <use xlink:href="#DejaVuSans-31" transform="translate(578.710938 0.390625)"/>
      <use xlink:href="#DejaVuSans-2e" transform="translate(642.333984 0.390625)"/>
      <use xlink:href="#DejaVuSans-31" transform="translate(674.121094 0.390625)"/>
      <use xlink:href="#DejaVuSans-31" transform="translate(737.744141 0.390625)"/>
     </g>
    </g>
    <g id="patch_217">
     <path d="M 56.72 178.22 
L 76.72 178.22 
L 76.72 171.22 
L 56.72 171.22 
z
" style="fill: #17becf; opacity: 0.5"/>
    </g>
    <g id="text_29">
     <!-- $\beta$=1.00, T=1.00 -->
     <g transform="translate(84.72 178.22) scale(0.1 -0.1)">
      <use xlink:href="#DejaVuSans-Oblique-3b2" transform="translate(0 0.390625)"/>
      <use xlink:href="#DejaVuSans-3d" transform="translate(63.818359 0.390625)"/>
      <use xlink:href="#DejaVuSans-31" transform="translate(147.607422 0.390625)"/>
      <use xlink:href="#DejaVuSans-2e" transform="translate(211.230469 0.390625)"/>
      <use xlink:href="#DejaVuSans-30" transform="translate(243.017578 0.390625)"/>
      <use xlink:href="#DejaVuSans-30" transform="translate(306.640625 0.390625)"/>
      <use xlink:href="#DejaVuSans-2c" transform="translate(370.263672 0.390625)"/>
      <use xlink:href="#DejaVuSans-20" transform="translate(402.050781 0.390625)"/>
      <use xlink:href="#DejaVuSans-54" transform="translate(433.837891 0.390625)"/>
      <use xlink:href="#DejaVuSans-3d" transform="translate(494.921875 0.390625)"/>
      <use xlink:href="#DejaVuSans-31" transform="translate(578.710938 0.390625)"/>
      <use xlink:href="#DejaVuSans-2e" transform="translate(642.333984 0.390625)"/>
      <use xlink:href="#DejaVuSans-30" transform="translate(674.121094 0.390625)"/>
      <use xlink:href="#DejaVuSans-30" transform="translate(737.744141 0.390625)"/>
     </g>
    </g>
   </g>
  </g>
 </g>
 <defs>
  <clipPath id="p3bc58298cf">
   <rect x="47.72" y="28.32" width="402.28" height="275.32"/>
  </clipPath>
 </defs>
</svg>
